<?xml version="1.0" encoding="iso-8859-1"?>
<!-- Generator: Adobe Illustrator 19.0.0, SVG Export Plug-In . SVG Version: 6.00 Build 0)  -->
<svg xmlns="http://www.w3.org/2000/svg" xmlns:xlink="http://www.w3.org/1999/xlink" version="1.1" id="Layer_1" x="0px" y="0px" viewBox="0 0 512 512" style="enable-background:new 0 0 512 512;" xml:space="preserve">
<path style="fill:#FFA233;" d="M321.871,117.539c6.587,6.587,15.687,10.661,25.737,10.661c20.103,0,36.4-16.297,36.4-36.398  c0-20.105-16.297-36.401-36.4-36.401c-20.101,0-36.398,16.295-36.398,36.401C311.211,101.851,315.284,110.952,321.871,117.539"/>
<g>
	<circle style="fill:#36CC6B;" cx="239.832" cy="235.994" r="30.621"/>
	<path style="fill:#36CC6B;" d="M209.211,235.999c0-15.089,10.916-27.62,25.282-30.148c-3.313-22.165-22.426-39.164-45.512-39.164   c-25.419,0-46.023,20.605-46.023,46.023s20.604,46.023,46.023,46.023c9.019,0,17.425-2.605,24.529-7.088   C210.781,247.065,209.211,241.717,209.211,235.999z"/>
</g>
<g style="opacity:0.1;">
	<path style="fill:#231F20;" d="M168.321,212.711c0-21.023,14.102-38.741,33.359-44.244c-4.035-1.156-8.293-1.779-12.699-1.779   c-25.419,0-46.023,20.605-46.023,46.023s20.604,46.023,46.023,46.023c4.4,0,8.65-0.63,12.678-1.785   C182.412,251.44,168.321,233.726,168.321,212.711z"/>
</g>
<path style="fill:#B8E5F4;" d="M502.739,305.225c-4.038-2.008-8.577-3.158-13.394-3.158c-3.523,0-6.901,0.609-10.044,1.719  c-0.581-26.13-21.931-47.135-48.2-47.135c-23.692,0-43.381,17.09-47.445,39.614c-6.973-6.862-16.531-11.097-27.084-11.097  c-20.438,0-37.156,15.876-38.516,35.969c-1.859-0.498-3.802-0.789-5.818-0.789c-12.407,0-22.463,10.058-22.463,22.465  c0,12.407,10.057,22.464,22.463,22.464h190.501v-60.053H502.739z"/>
<polygon style="fill:#85C8EB;" points="220.224,365.055 220.224,456.913 104.651,456.913 84.416,456.913 9.261,456.913   9.261,503.916 502.739,503.916 502.739,365.055 "/>
<g style="opacity:0.1;">
	<rect x="220.225" y="365.051" style="fill:#231F20;" width="25.231" height="91.858"/>
</g>
<g style="opacity:0.1;">
	<rect x="9.261" y="456.909" style="fill:#231F20;" width="25.231" height="47.003"/>
</g>
<path style="fill:#8C6644;" d="M200.332,333.889h-69.029v-57.54v-32.496c0-7.144-5.792-12.935-12.935-12.935H69.082  c-7.143,0-12.935,5.79-12.935,12.935v25.985v19.614H22.196c-7.143,0-12.935,5.79-12.935,12.935v154.525h75.156h20.233h115.573  V346.823C220.224,339.679,211.318,333.889,200.332,333.889z"/>
<g style="opacity:0.1;">
	<path style="fill:#231F20;" d="M47.427,289.452H22.196c-7.143,0-12.935,5.79-12.935,12.935v154.525h25.231V302.387   C34.493,295.243,40.284,289.452,47.427,289.452z"/>
</g>
<g>
	<path style="fill:#231F20;" d="M347.608,136.285c-11.881,0-23.052-4.627-31.454-13.029c-8.401-8.402-13.029-19.572-13.029-31.454   c0-24.529,19.955-44.485,44.483-44.485c24.529,0,44.485,19.956,44.485,44.485C392.093,116.33,372.137,136.285,347.608,136.285z    M347.608,63.486c-15.612,0-28.314,12.702-28.314,28.316c0,7.563,2.945,14.672,8.293,20.02c5.347,5.349,12.458,8.293,20.02,8.293   c15.613,0,28.316-12.701,28.316-28.314C375.924,76.189,363.222,63.486,347.608,63.486z"/>
	<path style="fill:#231F20;" d="M431.326,99.886h-23.659c-4.466,0-8.084-3.618-8.084-8.084s3.618-8.084,8.084-8.084h23.659   c4.466,0,8.084,3.618,8.084,8.084S435.792,99.886,431.326,99.886z"/>
	<path style="fill:#231F20;" d="M287.552,99.886h-23.659c-4.466,0-8.084-3.618-8.084-8.084s3.618-8.084,8.084-8.084h23.659   c4.465,0,8.084,3.618,8.084,8.084S292.017,99.886,287.552,99.886z"/>
	<path style="fill:#231F20;" d="M390.078,57.418c-2.068,0-4.138-0.789-5.716-2.367c-3.158-3.157-3.158-8.276-0.001-11.432   l16.729-16.73c3.158-3.158,8.277-3.157,11.432-0.001c3.158,3.157,3.158,8.276,0.001,11.432l-16.729,16.73   C394.216,56.628,392.147,57.418,390.078,57.418z"/>
	<path style="fill:#231F20;" d="M288.412,159.082c-2.069,0-4.138-0.789-5.717-2.367c-3.157-3.158-3.157-8.276,0-11.433l16.731-16.73   c3.158-3.156,8.276-3.156,11.433,0c3.157,3.158,3.157,8.276,0,11.433l-16.731,16.73   C292.55,158.293,290.481,159.082,288.412,159.082z"/>
	<path style="fill:#231F20;" d="M347.608,39.827h-0.001c-4.465,0-8.083-3.62-8.083-8.085l0.002-23.659   c0-4.465,3.62-8.083,8.084-8.083h0.001c4.465,0,8.083,3.62,8.083,8.085l-0.002,23.659   C355.692,36.209,352.073,39.827,347.608,39.827z"/>
	<path style="fill:#231F20;" d="M347.608,183.603c-4.466,0-8.084-3.618-8.084-8.084v-23.66c0-4.466,3.618-8.084,8.084-8.084   c4.465,0,8.084,3.618,8.084,8.084v23.66C355.692,179.985,352.074,183.603,347.608,183.603z"/>
	<path style="fill:#231F20;" d="M305.143,57.419c-2.068,0-4.138-0.789-5.717-2.367l-16.731-16.73c-3.157-3.158-3.157-8.276,0-11.433   c3.158-3.156,8.276-3.156,11.433,0l16.731,16.73c3.157,3.158,3.157,8.276,0,11.433C309.281,56.629,307.212,57.419,305.143,57.419z"/>
	<path style="fill:#231F20;" d="M406.806,159.084c-2.07,0-4.138-0.789-5.717-2.368l-16.729-16.73   c-3.157-3.157-3.157-8.276,0.001-11.432c3.157-3.157,8.276-3.156,11.433,0.001l16.729,16.73c3.157,3.157,3.157,8.276-0.001,11.432   C410.944,158.294,408.875,159.084,406.806,159.084z"/>
	<path style="fill:#231F20;" d="M465.668,402.899h-89.552c-4.466,0-8.084,3.618-8.084,8.084s3.618,8.084,8.084,8.084h89.552   c4.466,0,8.084-3.618,8.084-8.084S470.132,402.899,465.668,402.899z"/>
	<path style="fill:#231F20;" d="M465.668,448.829H247.737c-4.466,0-8.084,3.618-8.084,8.084c0,4.466,3.618,8.084,8.084,8.084   h217.931c4.466,0,8.084-3.618,8.084-8.084C473.752,452.447,470.132,448.829,465.668,448.829z"/>
	<path style="fill:#231F20;" d="M506.339,297.987c-5.341-2.657-11.059-4.004-16.994-4.004c-0.996,0-1.988,0.038-2.975,0.114   c-2.15-11.137-7.619-21.36-15.878-29.452c-10.582-10.368-24.572-16.078-39.391-16.078c-23.037,0-43.241,13.888-51.872,34.364   c-6.858-3.817-14.609-5.848-22.657-5.848c-21.611,0-40.094,14.905-45.255,35.194c-16.418,0.489-29.626,13.999-29.626,30.536   c0,5.107,1.267,9.921,3.49,14.156h-56.874v-10.147c0-11.787-12.288-21.019-27.975-21.019h-3.267v-27.819V289.9h42.767   c4.466,0,8.084-3.618,8.084-8.084v-7.968c17.474-3.728,30.621-19.28,30.621-37.849c0-21.001-16.814-38.135-37.685-38.679   c-6.72-22.519-27.831-38.716-51.87-38.716c-29.835,0-54.107,24.273-54.107,54.107c0,27.087,20.009,49.586,46.023,53.501v15.605   v16.168v2.779h-8.433v-8.909c0-4.466-3.618-8.084-8.084-8.084c-4.466,0-8.084,3.618-8.084,8.084v16.993   c0,4.466,3.618,8.084,8.084,8.084h16.518v8.871h-41.51v-49.456v-32.495c0-11.59-9.429-21.019-21.019-21.019H69.082   c-11.59,0-21.019,9.429-21.019,21.019v25.985v11.53H22.196c-11.59,0-21.019,9.429-21.019,21.019v154.525v47.005   c0,4.466,3.618,8.084,8.084,8.084h493.477c4.466,0,8.084-3.618,8.084-8.084V365.279v-0.224v-59.83   C510.823,302.157,509.086,299.354,506.339,297.987z M211.218,262.035c5.239,5.752,12.187,9.914,20.029,11.697h-34.181v-7.527   C201.953,265.469,206.712,264.069,211.218,262.035z M262.368,235.999c0,12.427-10.11,22.537-22.537,22.537   c-8.475,0-15.866-4.706-19.713-11.639c-0.056-0.1-0.112-0.201-0.167-0.302c-0.622-1.162-1.141-2.386-1.553-3.659   c-0.054-0.165-0.105-0.33-0.154-0.496c-0.175-0.585-0.332-1.178-0.459-1.783c-0.011-0.051-0.026-0.1-0.036-0.151   c-0.13-0.638-0.223-1.289-0.298-1.946c-0.02-0.177-0.038-0.352-0.054-0.529c-0.06-0.67-0.102-1.346-0.102-2.032   c0-0.737,0.041-1.466,0.111-2.185c0.02-0.212,0.058-0.418,0.084-0.628c0.065-0.512,0.135-1.022,0.233-1.522   c0.042-0.219,0.098-0.433,0.147-0.649c0.112-0.496,0.235-0.988,0.379-1.471c0.055-0.185,0.116-0.369,0.177-0.552   c0.171-0.523,0.359-1.04,0.567-1.546c0.053-0.128,0.106-0.255,0.16-0.382c0.253-0.583,0.526-1.156,0.826-1.712   c0.023-0.043,0.044-0.086,0.068-0.128c2.068-3.782,5.189-6.907,8.967-8.983c0.082-0.044,0.165-0.086,0.247-0.13   c0.506-0.269,1.023-0.516,1.55-0.748c0.191-0.083,0.383-0.164,0.577-0.241c0.418-0.169,0.844-0.322,1.274-0.467   c0.286-0.096,0.572-0.191,0.864-0.275c0.343-0.1,0.692-0.184,1.042-0.268c0.365-0.087,0.731-0.176,1.104-0.246   c1.351-0.253,2.739-0.402,4.163-0.402C252.259,213.462,262.368,223.572,262.368,235.999z M151.042,212.711   c0-20.92,17.019-37.939,37.939-37.939c16.281,0,30.648,10.589,35.854,25.533c-0.365,0.153-0.715,0.333-1.074,0.496   c-0.276,0.126-0.553,0.249-0.825,0.382c-0.515,0.249-1.022,0.511-1.523,0.781c-0.016,0.009-0.033,0.018-0.05,0.028   c-7.634,4.134-13.625,10.716-17.046,18.636c-0.069,0.158-0.14,0.317-0.207,0.476c-0.194,0.466-0.38,0.933-0.556,1.408   c-0.133,0.355-0.253,0.715-0.375,1.075c-0.19,0.562-0.369,1.125-0.532,1.697c-0.146,0.506-0.283,1.014-0.41,1.527   c-0.075,0.312-0.149,0.624-0.218,0.939c-0.161,0.738-0.306,1.482-0.425,2.234c-0.02,0.133-0.038,0.265-0.057,0.398   c-0.111,0.762-0.195,1.532-0.261,2.307c-0.019,0.231-0.038,0.461-0.053,0.693c-0.058,0.866-0.098,1.736-0.098,2.616   c0,0.924,0.044,1.837,0.108,2.745c0.013,0.191,0.027,0.38,0.043,0.57c0.079,0.919,0.182,1.831,0.324,2.732   c0.004,0.028,0.011,0.057,0.015,0.085c0.144,0.903,0.327,1.795,0.532,2.676c0.03,0.128,0.057,0.255,0.088,0.383   c0.218,0.889,0.463,1.768,0.742,2.632c0.014,0.044,0.024,0.089,0.038,0.134c-4.442,1.773-9.199,2.693-14.036,2.693   C168.061,250.649,151.042,233.63,151.042,212.711z M297.859,342.815c0-7.929,6.45-14.381,14.379-14.381   c1.202,0,2.455,0.172,3.727,0.514c2.334,0.623,4.827,0.172,6.794-1.234c1.966-1.407,3.2-3.617,3.363-6.03   c1.08-15.943,14.455-28.432,30.451-28.432c4.284,0,8.435,0.888,12.251,2.562c-5.033,3.514-9.113,8.413-11.616,14.331   c-1.74,4.112,0.183,8.856,4.294,10.596c4.11,1.736,8.856-0.184,10.596-4.294c2.69-6.358,8.888-10.469,15.79-10.469   c9.449,0,17.134,7.686,17.134,17.134c0,4.466,3.618,8.084,8.084,8.084s8.084-3.618,8.084-8.084   c0-16.384-11.896-30.032-27.501-32.786c5.879-15.191,20.58-25.591,37.412-25.591c21.64,0,39.636,17.599,40.118,39.231   c0.058,2.591,1.354,4.998,3.486,6.472c2.132,1.472,4.842,1.837,7.287,0.971c4.065-1.435,8.533-1.642,12.663-0.607v46.168H309.791   C303.026,355.803,297.859,349.908,297.859,342.815z M17.345,302.387c0-2.674,2.176-4.851,4.851-4.851h25.867v50.322   c0,4.466,3.618,8.084,8.084,8.084s8.084-3.618,8.084-8.084v-58.406v-19.614v-25.986c0-2.674,2.176-4.851,4.851-4.851h49.287   c2.674,0,4.851,2.176,4.851,4.851v32.495v57.54v62.432c0,4.466,3.618,8.084,8.084,8.084s8.084-3.618,8.084-8.084v-54.347h60.945   c7.619,0,11.806,3.643,11.806,4.851v18.232v83.774h-29.086v-62.809c0-4.466-3.618-8.084-8.084-8.084   c-4.466,0-8.084,3.618-8.084,8.084v62.809H98.978V345.11c0-4.466-3.618-8.084-8.084-8.084s-8.084,3.618-8.084,8.084v103.718H17.345   V302.387z M17.345,495.832v-30.834h202.878c4.466,0,8.084-3.618,8.084-8.084v-37.845h119.423c4.466,0,8.084-3.618,8.084-8.084   c0-4.466-3.618-8.084-8.084-8.084H228.308v-29.76H308.6c1.194,0.142,2.406,0.224,3.638,0.224h182.416v122.467H17.345z"/>
</g>
<g style="opacity:0.1;">
	<path style="fill:#231F20;" d="M81.379,243.852c0-7.144,5.792-12.935,12.935-12.935H69.082c-7.143,0-12.935,5.79-12.935,12.935   v25.985v19.614h0.688c-2.923,3.814-4.554,8.802,6.936,8.802c18.594,0,17.608-8.802,17.608-8.802v-19.614v-25.985H81.379z"/>
</g>
<g>
</g>
<g>
</g>
<g>
</g>
<g>
</g>
<g>
</g>
<g>
</g>
<g>
</g>
<g>
</g>
<g>
</g>
<g>
</g>
<g>
</g>
<g>
</g>
<g>
</g>
<g>
</g>
<g>
</g>
</svg>
