<?xml version="1.0" encoding="iso-8859-1"?>
<!-- Generator: Adobe Illustrator 19.0.0, SVG Export Plug-In . SVG Version: 6.00 Build 0)  -->
<svg version="1.1" id="Layer_1" xmlns="http://www.w3.org/2000/svg" xmlns:xlink="http://www.w3.org/1999/xlink" x="0px" y="0px"
	 viewBox="0 0 512 512" style="enable-background:new 0 0 512 512;" xml:space="preserve">
<path style="fill:#FED159;" d="M358.449,355.863c20.186,20.186,20.186,52.926,0,73.112c-20.198,20.186-52.926,20.186-73.112,0
	c-20.198-20.186-20.198-52.926,0-73.112C305.523,335.665,338.251,335.665,358.449,355.863z"/>
<g>
	
		<rect x="305.893" y="175.923" transform="matrix(-0.7071 0.7071 -0.7071 -0.7071 748.0685 69.0106)" style="fill:#529298;" width="107.697" height="27.025"/>
	<polygon style="fill:#529298;" points="338.299,244.13 255.958,326.483 222.697,293.223 305.038,210.881 312.114,217.957 
		331.223,237.066 	"/>
</g>
<polygon style="fill:#437F82;" points="338.299,244.13 255.958,326.483 243.25,313.775 325.591,231.434 "/>
<polygon style="fill:#EE4948;" points="263.802,334.328 103.167,494.952 54.216,446.013 214.852,285.378 222.697,293.223 
	255.958,326.483 "/>
<polygon style="fill:#CE3838;" points="263.802,334.328 103.167,494.952 87.684,479.481 248.32,318.845 "/>
<path d="M321.943,422.261c7.534,0,15.071-2.868,20.81-8.603c11.471-11.473,11.471-30.14,0-41.612c-3.466-3.466-9.085-3.466-12.549,0
	c-3.466,3.466-3.466,9.085,0,12.549c4.552,4.553,4.552,11.96,0.001,16.511c-4.555,4.553-11.962,4.553-16.517,0
	c-2.206-2.204-3.421-5.136-3.421-8.255s1.214-6.05,3.421-8.254c3.467-3.465,3.468-9.084,0.004-12.549
	c-3.465-3.467-9.082-3.468-12.549-0.004c-5.56,5.556-8.622,12.947-8.622,20.807c0,7.86,3.062,15.251,8.621,20.806
	C306.874,419.393,314.407,422.261,321.943,422.261z"/>
<path d="M480.322,131.73c4.333-20.166-0.206-40.497-13.492-60.425c-11.365-17.048-28.301-30.459-48.978-38.783
	c-20.178-8.124-42.496-10.857-64.542-7.905c-23.421,3.137-45.372,12.661-63.479,27.542c-20.294,16.679-35.324,39.358-44.674,67.409
	c-16.959,50.877-41.807,111.895-83.774,132.327c-19.824,9.652-42.098,9.83-68.097,0.548c-26.599-9.494-42.16-27.492-45-52.049
	c-4.038-34.93,18.355-76.184,55.014-102.598c6.192,5.56,14.108,8.604,22.493,8.604c9.004,0,17.472-3.507,23.84-9.876
	c6.368-6.368,9.876-14.838,9.876-23.846c0-5.967-1.548-11.694-4.438-16.733l35.348-35.348c3.809-3.81,10.005-3.808,13.813,0
	c1.841,1.841,2.855,4.294,2.855,6.907s-1.014,5.065-2.852,6.902l-9.419,9.407c-3.468,3.463-3.472,9.082-0.008,12.549
	c3.464,3.468,9.084,3.472,12.549,0.008l9.422-9.41c5.193-5.193,8.054-12.103,8.054-19.456s-2.861-14.264-8.054-19.457
	c-10.728-10.728-28.185-10.727-38.913,0L142.52,43.394c-5.039-2.891-10.764-4.438-16.729-4.438c-9.004,0-17.472,3.507-23.84,9.876
	c-8.99,8.989-11.965,22.283-8.286,34.033c-19.782,14.064-36.123,32.036-47.504,52.371c-12.441,22.225-17.947,46.089-15.506,67.197
	c3.616,31.279,23.739,54.975,56.664,66.726c14.564,5.199,28.485,7.798,41.685,7.798c14.263,0,27.683-3.036,40.148-9.104
	c21.031-10.239,39.273-28.735,55.767-56.542c13.031-21.969,24.812-49.338,37.077-86.13c15.616-46.849,49.758-77.09,93.672-82.972
	c38.679-5.18,77.414,10.469,96.397,38.941c10.501,15.754,14.179,31.482,10.928,46.751c-4.635,21.771-22.121,38.003-31.26,45.204
	l-37.136-37.14c-1.664-1.665-3.921-2.6-6.275-2.6c-2.353,0-4.611,0.935-6.275,2.6l-69.878,69.878l-0.801-0.801
	c-3.466-3.466-9.085-3.466-12.549,0l-76.066,76.066l-1.57-1.57c-3.467-3.466-9.085-3.465-12.549,0l-30.379,30.379
	c-3.466,3.466-3.466,9.085,0,12.549c1.732,1.732,4.004,2.6,6.275,2.6c2.271,0,4.542-0.866,6.275-2.6l24.105-24.105l36.4,36.4
	l-148.091,148.08l-36.394-36.395L167.73,345.54c3.466-3.466,3.466-9.085,0-12.549c-3.466-3.466-9.085-3.466-12.549,0L54.278,433.894
	l-1.452-1.454c-3.463-3.469-9.081-3.472-12.551-0.009c-3.468,3.463-3.473,9.081-0.009,12.551l64.403,64.415
	c1.733,1.736,4.006,2.604,6.281,2.604c2.268,0,4.538-0.865,6.27-2.594c3.468-3.463,3.473-9.081,0.009-12.551l-1.461-1.461
	l148.089-148.078l9.436,9.442c-7.737,10.379-11.922,22.914-11.922,36.096c0,16.182,6.304,31.394,17.748,42.831
	c11.806,11.806,27.314,17.708,42.826,17.708c15.509,0,31.023-5.903,42.834-17.706l0.001-0.001c23.617-23.617,23.617-62.045,0-85.661
	c-11.444-11.444-26.657-17.747-42.835-17.747c-13.185,0-25.725,4.189-36.104,11.931l-15.706-15.716l0,0
	c-0.001,0-0.001-0.001-0.002-0.002l-1.57-1.57l69.788-69.799l24.162,24.153c1.732,1.732,4.004,2.6,6.275,2.6s4.542-0.866,6.275-2.6
	c3.466-3.466,3.466-9.085,0-12.549l-31.233-31.223l63.601-63.601l31.22,31.23c1.733,1.735,4.005,2.602,6.278,2.602
	c2.269,0,4.54-0.865,6.272-2.596c3.467-3.464,3.469-9.084,0.005-12.551l-6.831-6.833C455.78,176.477,474.746,157.683,480.322,131.73
	z M114.503,61.382c3.016-3.016,7.026-4.678,11.289-4.678c4.264,0,8.274,1.661,11.29,4.678c3.016,3.017,4.677,7.027,4.677,11.295
	s-1.661,8.28-4.677,11.296c-3.016,3.016-7.026,4.677-11.29,4.677c-2.103,0-4.142-0.408-6.033-1.18
	c0.987-0.532,1.977-1.057,2.971-1.564c4.366-2.227,6.101-7.57,3.874-11.938c-2.228-4.366-7.57-6.101-11.938-3.874
	c-1.614,0.824-3.217,1.687-4.813,2.57C109.869,68.539,111.447,64.436,114.503,61.382z M321.944,350.025
	c11.437,0,22.193,4.457,30.286,12.548c16.697,16.697,16.697,43.865,0.001,60.56c-16.702,16.692-43.872,16.693-60.566,0
	c-8.091-8.086-12.547-18.839-12.547-30.279s4.456-22.193,12.551-30.282C299.756,354.481,310.508,350.025,321.944,350.025z
	 M256.012,314.368l-20.71-20.71l69.791-69.791l0.801,0.801l19.109,19.109c0.001,0.001,0.002,0.001,0.002,0.002
	s0.001,0.002,0.002,0.002l0.79,0.789L256.012,314.368z M331.279,224.952l-6.559-6.559l63.602-63.603l6.56,6.56L331.279,224.952z"/>
<g>
</g>
<g>
</g>
<g>
</g>
<g>
</g>
<g>
</g>
<g>
</g>
<g>
</g>
<g>
</g>
<g>
</g>
<g>
</g>
<g>
</g>
<g>
</g>
<g>
</g>
<g>
</g>
<g>
</g>
</svg>
