<?xml version="1.0" encoding="utf-8"?>
<!-- Generator: Adobe Illustrator 16.0.0, SVG Export Plug-In . SVG Version: 6.00 Build 0)  -->
<!DOCTYPE svg PUBLIC "-//W3C//DTD SVG 1.1//EN" "http://www.w3.org/Graphics/SVG/1.1/DTD/svg11.dtd">
<svg version="1.1" id="icons" xmlns="http://www.w3.org/2000/svg" xmlns:xlink="http://www.w3.org/1999/xlink" x="0px" y="0px"
	 width="64px" height="64px" viewBox="0 0 64 64" enable-background="new 0 0 64 64" xml:space="preserve">
<g>
	<g>
		<g>
			<rect x="5" y="41.502" fill="#CCD1D9" width="54" height="12"/>
		</g>
		<g>
			<path fill="#AAB2BD" d="M59,53.502v-12c2.2,0,4-1.801,4-4v12C63,51.701,61.2,53.502,59,53.502z"/>
		</g>
		<g>
			<path fill="#AAB2BD" d="M63,19.501v6c0-2.2-1.8-4-4-4v-6C61.2,15.501,63,17.301,63,19.501z"/>
		</g>
		<g>
			<path fill="#5D9CEC" d="M63,27.501v10c0,2.199-1.8,4-4,4H5c-2.2,0-4-1.801-4-4v-10v-2c0-2.2,1.8-4,4-4h23h6h25c2.2,0,4,1.8,4,4
				V27.501z"/>
		</g>
		<g>
			<polygon fill="#CCD1D9" points="40,15.501 34,15.501 28,15.501 5,15.501 5,21.501 28,21.501 34,21.501 59,21.501 59,15.501 			
				"/>
		</g>
		<g>
			<path fill="#AAB2BD" d="M5,15.501v6c-2.2,0-4,1.8-4,4v-6C1,17.301,2.8,15.501,5,15.501z"/>
		</g>
		<g>
			<path fill="#AAB2BD" d="M5,41.502v12c-2.2,0-4-1.801-4-4v-12C1,39.701,2.8,41.502,5,41.502z"/>
		</g>
	</g>
	<g>
		<g>
			<path fill="#87BCF4" d="M24,28.496h-9c-0.553,0-1-0.448-1-1s0.447-1,1-1h9c0.553,0,1,0.448,1,1S24.553,28.496,24,28.496z"/>
		</g>
		<g>
			<path fill="#87BCF4" d="M29,28.496h-2c-0.553,0-1-0.448-1-1s0.447-1,1-1h2c0.553,0,1,0.448,1,1S29.553,28.496,29,28.496z"/>
		</g>
		<g>
			<path fill="#87BCF4" d="M37.995,32.496H27c-0.553,0-1-0.448-1-1s0.447-1,1-1h10.995c0.553,0,1,0.448,1,1
				S38.548,32.496,37.995,32.496z"/>
		</g>
		<g>
			<path fill="#87BCF4" d="M48.995,36.496h-10c-0.553,0-1-0.447-1-1s0.447-1,1-1h10c0.553,0,1,0.447,1,1
				S49.548,36.496,48.995,36.496z"/>
		</g>
		<g>
			<path fill="#87BCF4" d="M35.995,36.496h-2c-0.553,0-1-0.447-1-1s0.447-1,1-1h2c0.553,0,1,0.447,1,1S36.548,36.496,35.995,36.496z
				"/>
		</g>
	</g>
	<g>
		<path fill="#E6E9ED" d="M59,42.498H5c-2.757,0-5-2.244-5-5v-18c0-2.757,2.243-5,5-5h54c2.757,0,5,2.243,5,5v18
			C64,40.254,61.757,42.498,59,42.498z M5,16.498c-1.654,0-3,1.346-3,3v18c0,1.654,1.346,3,3,3h54c1.654,0,3-1.346,3-3v-18
			c0-1.654-1.346-3-3-3H5z"/>
	</g>
	<g>
		<path fill="#545C66" d="M34,19.5h-5.75c-0.553,0-1-0.448-1-1s0.447-1,1-1H34c0.553,0,1,0.448,1,1S34.553,19.5,34,19.5z"/>
	</g>
	<g>
		<path fill="#545C66" d="M34.004,15.499c-0.553,0-1-0.447-1-1c0-1.103-0.897-2-2-2s-2,0.897-2,2c0,0.553-0.447,1-1,1s-1-0.447-1-1
			c0-2.205,1.794-4,4-4s4,1.795,4,4C35.004,15.051,34.557,15.499,34.004,15.499z"/>
	</g>
	<path fill="#656D78" d="M37,10.499c-2.206,0-4,1.795-4,4c0,0.553,0.447,1,1,1s1-0.447,1-1c0-1.103,0.897-2,2-2s2,0.897,2,2h2
		C41,12.293,39.206,10.499,37,10.499z"/>
	<g>
		<path fill="#545C66" d="M28.004,13.499c-0.553,0-1,0.448-1,1V21.5h2v-7.002C29.004,13.947,28.557,13.499,28.004,13.499z"/>
		<path fill="#656D78" d="M34,13.499c-0.553,0-1,0.448-1,1V21.5h2v-7.002C35,13.947,34.553,13.499,34,13.499z"/>
	</g>
</g>
</svg>
