<?xml version="1.0" encoding="iso-8859-1"?>
<!-- Generator: Adobe Illustrator 19.0.0, SVG Export Plug-In . SVG Version: 6.00 Build 0)  -->
<svg version="1.1" id="Layer_1" xmlns="http://www.w3.org/2000/svg" xmlns:xlink="http://www.w3.org/1999/xlink" x="0px" y="0px"
	 viewBox="0 0 512.001 512.001" style="enable-background:new 0 0 512.001 512.001;" xml:space="preserve">
<path style="fill:#FFCE00;" d="M290.917,451.871H130.655c-60.236,0-109.24-49.005-109.24-109.24V107.218h50.843v235.412
	c0,32.202,26.197,58.397,58.397,58.397h160.262V451.871z"/>
<rect x="21.415" y="290.853" style="opacity:0.2;enable-background:new    ;" width="50.846" height="28.248"/>
<path style="fill:#009BDE;" d="M90.172,259.229c0-3.108-2.541-5.648-5.649-5.648h-63.87c-3.108,0-5.649,2.541-5.649,5.648v36.135
	c0,3.108,2.541,5.65,5.649,5.65h63.87c3.108,0,5.649-2.542,5.649-5.65V259.229z"/>
<path style="opacity:0.2;enable-background:new    ;" d="M84.523,253.58H57.588c-1.489,7.68-2.277,15.607-2.277,23.716
	c0,8.048,0.769,15.98,2.259,23.716h26.954c3.108,0,5.649-2.542,5.649-5.65v-36.135C90.172,256.121,87.631,253.58,84.523,253.58z"/>
<path style="opacity:0.2;enable-background:new    ;" d="M219.724,401.028c-2.838,7.947-4.395,16.501-4.395,25.421
	c0,8.921,1.557,17.475,4.395,25.422h71.193v-50.843L219.724,401.028L219.724,401.028z"/>
<rect x="21.415" y="107.214" style="opacity:0.2;enable-background:new    ;" width="50.846" height="63.544"/>
<g>
	<path style="fill:#333E48;" d="M85.603,43.321c0-6.213-5.085-11.298-11.299-11.298H19.37c-6.215,0-11.299,5.085-11.299,11.298
		v96.388c0,6.215,5.085,11.299,11.299,11.299h54.933c6.215,0,11.299-5.085,11.299-11.299
		C85.603,139.709,85.603,43.321,85.603,43.321z"/>
	<circle style="fill:#333E48;" cx="290.916" cy="426.453" r="53.53"/>
</g>
<circle style="fill:#009BDE;" cx="290.916" cy="426.453" r="17.901"/>
<path style="fill:#333E48;" d="M396.451,384.776c-28.713,0-55.706-11.184-76.007-31.488c-11.949-11.948-25.959-15.138-32.353-15.138
	c-6.392,0-20.4,3.19-32.352,15.143c-20.295,20.299-47.289,31.481-75.999,31.481h-0.005
	c-59.258,0.001-107.475-48.212-107.476-107.477c0-59.264,48.215-107.479,107.478-107.479h216.716
	c59.264,0,107.478,48.216,107.478,107.479c0.001,28.709-11.179,55.7-31.478,75.999C452.151,373.596,425.162,384.776,396.451,384.776
	z"/>
<path style="fill:#009BDE;" d="M396.451,202.623L396.451,202.623H179.735l0,0c-41.24,0-74.672,33.432-74.672,74.671
	c0.001,41.243,33.432,74.675,74.672,74.675c20.622,0,39.294-8.359,52.806-21.875c18.885-18.883,41.768-24.748,55.549-24.748
	c13.784,0,36.667,5.867,55.554,24.747c13.513,13.517,32.183,21.877,52.806,21.877c41.242,0,74.674-33.432,74.674-74.674
	C471.125,236.055,437.696,202.623,396.451,202.623z"/>
<path style="opacity:0.2;enable-background:new    ;" d="M396.451,202.623H179.735c-41.24,0-74.672,33.432-74.672,74.671
	c0,2.052,0.107,4.081,0.268,6.092c3.102-38.387,35.218-68.577,74.405-68.577h216.716c39.19,0,71.301,30.192,74.405,68.582
	c0.162-2.013,0.269-4.039,0.269-6.094C471.125,236.055,437.696,202.623,396.451,202.623z"/>
<g>
	<path style="opacity:0.2;fill:#FFFFFF;enable-background:new    ;" d="M464,245.448c-13.264-17.608-34.343-28.998-58.087-28.998
		c-40.14,0-72.681,32.541-72.681,72.682c0,17.922,6.5,34.318,17.254,46.991c12.673,9.921,28.624,15.848,45.966,15.848
		c41.242,0,74.674-33.432,74.674-74.674C471.125,265.903,468.562,255.111,464,245.448z"/>
	<circle style="opacity:0.2;fill:#FFFFFF;enable-background:new    ;" cx="309.963" cy="243.009" r="21.87"/>
	<path style="opacity:0.2;fill:#FFFFFF;enable-background:new    ;" d="M136.745,216.257
		c-17.423,12.296-29.347,31.851-31.363,54.274c6.053,6.83,14.887,11.139,24.731,11.139c18.248,0,33.039-14.791,33.039-33.039
		C163.153,232.653,151.815,219.33,136.745,216.257z"/>
</g>
<path style="fill:#1E252B;" d="M396.451,161.747H179.735c-42.24,0-79.251,22.788-99.407,56.71v-60.349
	c7.736-2.541,13.344-9.823,13.344-18.398V43.321c0-10.68-8.69-19.369-19.37-19.369H19.37C8.69,23.952,0,32.641,0,43.321v96.388
	c0,8.576,5.608,15.857,13.344,18.398v89.53c-3.845,2.434-6.41,6.713-6.41,11.59v36.135c0,4.877,2.565,9.158,6.41,11.591v35.675
	c0,64.686,52.625,117.312,117.311,117.312h108.602c10.996,16.901,30.037,28.108,51.66,28.108c33.966,0,61.601-27.635,61.601-61.601
	s-27.635-61.601-61.601-61.601c-21.623,0-40.665,11.208-51.661,28.109H130.655c-27.75,0-50.327-22.576-50.327-50.327v-6.421
	c4.881,8.19,10.815,15.834,17.738,22.757c21.848,21.847,50.851,33.878,81.673,33.878c30.868,0,59.885-12.02,81.707-33.845
	c10.108-10.109,21.849-12.779,26.646-12.779c4.798,0,16.542,2.67,26.647,12.773c21.826,21.83,50.846,33.852,81.715,33.852
	c30.865,0,59.882-12.019,81.707-33.843c21.824-21.825,33.843-50.842,33.842-81.707C512,213.582,460.165,161.747,396.451,161.747z
	 M290.917,380.99c25.067,0,45.459,20.392,45.459,45.459c0,25.067-20.392,45.459-45.459,45.459
	c-25.067,0-45.459-20.392-45.459-45.459S265.85,380.99,290.917,380.99z M16.142,139.709V43.321c0-1.75,1.479-3.227,3.228-3.227
	h54.933c1.75,0,3.228,1.478,3.228,3.227v96.388c0,1.75-1.479,3.228-3.228,3.228H19.37C17.62,142.938,16.142,141.459,16.142,139.709z
	 M64.187,159.079v86.429H29.485v-86.429H64.187z M23.075,261.651H65.25c-0.695,5.118-1.063,10.339-1.063,15.646
	c0,5.277,0.362,10.501,1.057,15.646H23.075V261.651z M130.655,409.099H231.82c-1.62,5.506-2.504,11.326-2.504,17.35
	c0,6.025,0.885,11.844,2.504,17.351H130.655c-55.785,0-101.17-45.385-101.17-101.171v-33.547h34.701v33.547
	C64.187,379.281,94.004,409.099,130.655,409.099z M466.744,347.588c-18.775,18.776-43.74,29.116-70.292,29.116
	c-26.556,0-51.522-10.342-70.299-29.124c-12.919-12.918-28.577-17.502-38.061-17.502c-9.482,0-25.138,4.585-38.06,17.508
	c-18.773,18.775-43.736,29.116-70.297,29.116c-26.505,0-51.454-10.351-70.252-29.15c-18.8-18.799-29.153-43.749-29.153-70.256
	c0-54.814,44.593-99.408,99.407-99.408h216.716c54.813,0,99.407,44.594,99.407,99.408
	C495.859,303.85,485.52,328.814,466.744,347.588z M396.451,194.552H179.735c-45.624,0-82.743,37.117-82.743,82.742
	c0.001,45.625,37.119,82.745,82.743,82.745c22.107,0,42.888-8.609,58.513-24.238c16.524-16.522,37.178-22.385,49.842-22.385
	s33.321,5.862,49.846,22.382c15.627,15.633,36.408,24.243,58.515,24.243c45.625,0,82.744-37.118,82.744-82.744
	C479.196,231.671,442.077,194.552,396.451,194.552z M396.451,343.898c-17.794,0-34.521-6.93-47.1-19.515
	c-19.995-19.988-44.757-27.109-61.261-27.109s-41.264,7.122-61.257,27.113c-12.579,12.582-29.305,19.511-47.099,19.511
	c-36.723,0-66.601-29.878-66.602-66.604c0-36.723,29.877-66.601,66.602-66.601H396.45c36.724,0,66.603,29.878,66.603,66.603
	C463.054,314.021,433.176,343.898,396.451,343.898z"/>
<g>
</g>
<g>
</g>
<g>
</g>
<g>
</g>
<g>
</g>
<g>
</g>
<g>
</g>
<g>
</g>
<g>
</g>
<g>
</g>
<g>
</g>
<g>
</g>
<g>
</g>
<g>
</g>
<g>
</g>
</svg>
