<?xml version="1.0" encoding="iso-8859-1"?>
<!-- Generator: Adobe Illustrator 19.0.0, SVG Export Plug-In . SVG Version: 6.00 Build 0)  -->
<svg version="1.1" id="Layer_1" xmlns="http://www.w3.org/2000/svg" xmlns:xlink="http://www.w3.org/1999/xlink" x="0px" y="0px"
	 viewBox="0 0 512 512" style="enable-background:new 0 0 512 512;" xml:space="preserve">
<path style="fill:#CE3838;" d="M406.817,333.655v32.606c0,16.713-1.003,33.413-2.998,49.979
	c-1.994,16.578-4.992,33.022-8.956,49.269c-5.298,21.643-24.69,36.863-46.969,36.863h-84.2c-4.331,0-8.54-0.575-12.565-1.664
	c16.7-4.502,30.11-17.765,34.38-35.199c3.964-16.248,6.962-32.691,8.956-49.269c1.994-16.566,2.998-33.266,2.998-49.979v-32.606
	c0-78.009-15.917-154.77-46.333-225.743c7.145-16.688,15.098-33.058,23.858-49.049c9.36-17.165,19.649-33.903,30.807-50.138
	C371.593,104.315,406.817,217.609,406.817,333.655z"/>
<path style="fill:#EE4948;" d="M312.314,474.233c0.184-0.672,0.36-1.349,0.526-2.029c4.236-17.364,7.451-35.054,9.561-52.603
	c2.123-17.634,3.199-35.581,3.199-53.34v-32.604c0-77.76-14.749-153.535-43.858-225.427c5.537-12.189,11.545-24.205,17.921-35.847
	c2.003-3.672,4.055-7.331,6.154-10.976c47.789,82.689,72.855,175.959,72.855,272.249v32.604c0,15.523-0.941,31.207-2.796,46.616
	c-1.845,15.339-4.657,30.801-8.355,45.962c-2.217,9.055-10.292,15.394-19.632,15.394L312.314,474.233L312.314,474.233z"/>
<path style="fill:#EFBE52;" d="M297.462,333.655v32.606c0,16.713-1.003,33.413-2.998,49.979
	c-1.994,16.578-4.992,33.022-8.956,49.269c-4.27,17.435-17.679,30.697-34.38,35.199h-0.012c-4.025,1.089-8.246,1.664-12.577,1.664
	h-84.2c-11.146,0-21.558-3.805-29.853-10.314c-8.295-6.509-14.461-15.734-17.104-26.549c-7.94-32.483-11.966-65.811-11.966-99.248
	v-32.606c0-116.047,35.236-229.34,101.022-324.931c21.558,31.345,39.849,64.575,54.689,99.187
	C281.544,178.886,297.462,255.646,297.462,333.655z"/>
<path style="fill:#FED159;" d="M154.34,474.234c-4.57,0-8.887-1.491-12.483-4.313c-3.584-2.813-6.053-6.647-7.138-11.09
	c-7.406-30.298-11.162-61.443-11.162-92.568v-32.606c0-96.275,25.074-189.556,72.863-272.255
	c10.749,18.638,20.399,37.902,28.846,57.601c29.232,68.214,44.056,140.435,44.056,214.654v32.606
	c0,15.519-0.941,31.202-2.796,46.616c-1.845,15.333-4.655,30.796-8.356,45.962c-1.72,7.023-7.075,12.596-14.016,14.601l-0.387,0.104
	c-1.687,0.456-3.447,0.688-5.228,0.688H154.34z"/>
<path style="fill:#CE3838;" d="M345.178,333.655v32.606c0,16.713-1.003,33.413-2.998,49.979
	c-1.994,16.578-4.992,33.022-8.956,49.269c-4.27,17.435-17.679,30.697-34.38,35.199h-0.012c-4.025,1.089-8.246,1.664-12.577,1.664
	h-22.561c-4.331,0-8.54-0.575-12.565-1.664c16.7-4.502,30.11-17.765,34.38-35.199c3.964-16.248,6.962-32.691,8.956-49.269
	c1.994-16.566,2.997-33.266,2.997-49.979v-32.606c0-78.009-15.917-154.77-46.333-225.743c7.145-16.688,15.098-33.058,23.858-49.049
	c8.736,15.991,16.713,32.361,23.858,49.049C329.259,178.886,345.178,255.646,345.178,333.655z"/>
<path d="M196.496,208.003c-5.068,0-9.176,4.108-9.176,9.176v249.43c0,5.068,4.108,9.176,9.176,9.176
	c5.068,0,9.176-4.108,9.176-9.176v-249.43C205.672,212.111,201.564,208.003,196.496,208.003z"/>
<path d="M196.496,59.082c-5.068,0-9.176,4.108-9.176,9.176v118.335c0,5.068,4.108,9.176,9.176,9.176
	c5.068,0,9.176-4.108,9.176-9.176V68.258C205.672,63.189,201.564,59.082,196.496,59.082z"/>
<path d="M448.691,493.648h-58.579c6.502-7.004,11.317-15.694,13.721-25.513c4.052-16.606,7.13-33.546,9.152-50.347
	c2.033-16.883,3.064-34.066,3.064-51.075v-32.606c0-118.424-35.492-232.583-102.64-330.133C311.696,1.485,308.869,0,305.849,0
	s-5.847,1.488-7.559,3.976c-17.875,25.989-33.669,53.51-47.107,82.034c-13.444-28.513-29.245-56.034-47.127-82.034
	C202.344,1.488,199.518,0,196.497,0c0,0,0,0-0.001,0c-3.021,0-5.847,1.487-7.559,3.974
	c-67.148,97.567-102.64,211.725-102.64,330.133v32.606c0,34.108,4.113,68.233,12.227,101.426
	c2.332,9.543,7.124,18.352,13.765,25.509H63.309c-5.068,0-9.176,4.108-9.176,9.176S58.241,512,63.309,512h385.383
	c5.068,0,9.176-4.108,9.176-9.176S453.759,493.648,448.691,493.648z M154.396,493.648c-8.73,0-17.321-2.968-24.189-8.358
	c-6.86-5.383-11.781-13.023-13.855-21.51c-7.765-31.769-11.703-64.428-11.703-97.069v-32.606
	c0-110.146,31.71-216.493,91.841-308.455c17.882,27.389,33.414,56.369,46.26,86.326c30.253,70.593,45.592,145.328,45.592,222.129
	v32.606c0,16.273-0.986,32.719-2.931,48.883c-1.934,16.078-4.882,32.291-8.758,48.182c-3.399,13.878-14.072,24.807-27.856,28.523
	l-0.021,0.002c-3.301,0.893-6.725,1.346-10.181,1.346h-84.2V493.648z M280.684,493.648c6.58-7.072,11.415-15.789,13.796-25.513
	c4.052-16.606,7.13-33.546,9.152-50.347c2.033-16.888,3.064-34.071,3.064-51.075v-32.606c0-77.961-15.319-153.856-45.517-225.658
	c12.537-28.714,27.511-56.501,44.678-82.797c60.131,91.947,91.84,198.292,91.84,308.455v32.606c0,16.278-0.986,32.724-2.931,48.883
	c-1.934,16.078-4.882,32.291-8.758,48.183c-4.305,17.587-19.955,29.87-38.056,29.87H280.684z"/>
<g>
</g>
<g>
</g>
<g>
</g>
<g>
</g>
<g>
</g>
<g>
</g>
<g>
</g>
<g>
</g>
<g>
</g>
<g>
</g>
<g>
</g>
<g>
</g>
<g>
</g>
<g>
</g>
<g>
</g>
</svg>
