<?xml version="1.0" encoding="iso-8859-1"?>
<!-- Generator: Adobe Illustrator 19.0.0, SVG Export Plug-In . SVG Version: 6.00 Build 0)  -->
<svg version="1.1" id="Layer_1" xmlns="http://www.w3.org/2000/svg" xmlns:xlink="http://www.w3.org/1999/xlink" x="0px" y="0px"
	 viewBox="0 0 512 512" style="enable-background:new 0 0 512 512;" xml:space="preserve">
<path style="fill:#FFCE00;" d="M87.169,195.505c-38.489,0-69.691,31.202-69.691,69.69s31.202,69.69,69.691,69.69h337.663
	c38.49,0,69.691-31.202,69.691-69.69s-31.203-69.69-69.691-69.69L87.169,195.505L87.169,195.505z"/>
<path style="opacity:0.2;enable-background:new    ;" d="M468.396,273.759c-18.332,0-35.36,8.227-47.948,23.167
	c-6.246,7.412-14.361,11.496-22.851,11.496c-8.49,0-16.606-4.083-22.851-11.496c-12.587-14.939-29.615-23.167-47.948-23.167
	s-35.361,8.227-47.948,23.167c-6.246,7.412-14.361,11.496-22.85,11.496c-8.49,0-16.606-4.083-22.851-11.496
	c-12.587-14.939-29.615-23.167-47.948-23.167s-35.361,8.227-47.948,23.167c-6.244,7.412-14.36,11.496-22.85,11.496
	s-16.604-4.083-22.851-11.496c-12.587-14.939-29.616-23.167-47.948-23.167c-8.609,0-16.956,1.837-24.731,5.365
	c6.453,31.813,34.576,55.761,68.295,55.761h337.663c33.719,0,61.842-23.948,68.296-55.761
	C485.352,275.596,477.005,273.759,468.396,273.759z"/>
<path style="fill:#009BDE;" d="M441.879,433.382c34.195,0,61.916-27.722,61.916-61.915c0,0,0-45.475,0-54.573
	s-4.259-14.027-6.568-15.955c-19.506-16.29-46.82-14.103-64.229,6.56c-19.471,23.108-51.33,23.108-70.8,0
	c-19.47-23.108-51.329-23.108-70.798,0s-51.329,23.108-70.799,0c-19.47-23.108-51.329-23.108-70.798,0s-51.33,23.108-70.799,0
	c-17.41-20.662-44.724-22.85-64.23-6.56c-2.308,1.928-6.568,6.857-6.568,15.955s0,54.573,0,54.573
	c0,34.194,27.722,61.915,61.916,61.915H441.879z"/>
<path style="opacity:0.2;enable-background:new    ;" d="M256.001,388.576c-15.873,0-30.673-7.192-41.675-20.252
	c-7.831-9.292-18.173-14.411-29.124-14.411s-21.293,5.119-29.125,14.412c-2.92,3.464-8.097,3.907-11.561,0.987
	c-3.466-2.92-3.908-8.095-0.988-11.561c11.002-13.056,25.802-20.247,41.673-20.247s30.672,7.191,41.673,20.247
	c7.832,9.296,18.175,14.415,29.126,14.415c10.95,0,21.293-5.12,29.124-14.414c11.002-13.057,25.802-20.249,41.674-20.249
	c15.872,0,30.672,7.191,41.673,20.247c2.92,3.466,2.478,8.642-0.988,11.561c-3.465,2.92-8.642,2.478-11.561-0.987
	c-7.831-9.293-18.174-14.412-29.125-14.412c-10.951,0-21.293,5.119-29.124,14.412C286.672,381.384,271.873,388.576,256.001,388.576z
	"/>
<path style="fill:#7C6755;" d="M451.851,107.446H186.093c-1.146-8.182-7.752-15.997-15.689-18.057l-31.138-8.086
	c-8.735-2.269-23.222-3.307-32.192-2.307l-39.038,4.346c-8.97,0.998-16.309,9.2-16.309,18.226v42.905
	c0,9.025,7.34,17.226,16.309,18.226l39.038,4.346c8.97,0.998,23.455-0.04,32.192-2.307l31.138-8.086
	c7.936-2.062,14.542-9.878,15.689-18.057h265.757c8.601,0,15.574-6.974,15.574-15.574
	C467.425,114.418,460.451,107.446,451.851,107.446z"/>
<path style="opacity:0.2;enable-background:new    ;" d="M79.546,148.628c-5.788-0.643-10.525-5.938-10.525-11.763v-27.691
	c0-5.824,4.737-11.119,10.525-11.765l25.196-2.804c5.789-0.645,15.139,0.023,20.777,1.489l20.096,5.217
	c5.638,1.464,10.252,7.427,10.252,13.251v16.908c0,5.824-4.613,11.788-10.252,13.254l-20.097,5.218
	c-5.638,1.464-14.988,2.134-20.777,1.489L79.546,148.628z"/>
<path style="fill:#1E252B;" d="M67.129,170.854l39.039,4.346c2.564,0.286,5.514,0.43,8.766,0.43c9.268,0,19.381-1.13,26.395-2.949
	l31.139-8.087c8.68-2.255,16.213-9.256,19.79-17.794h259.593c13.111,0,23.779-10.667,23.779-23.779s-10.667-23.779-23.779-23.779
	H192.259c-3.577-8.54-11.112-15.541-19.791-17.794l-31.137-8.086c-7.01-1.821-17.121-2.952-26.386-2.952
	c-3.258,0-6.211,0.144-8.776,0.43l-39.038,4.346c-13.018,1.447-23.608,13.282-23.608,26.38v42.905
	C43.523,157.567,54.112,169.403,67.129,170.854z M59.933,101.568c0-4.831,4.211-9.537,9.012-10.071l39.04-4.346
	c1.937-0.217,4.344-0.33,6.959-0.33c7.73,0,16.677,0.975,22.261,2.424l31.138,8.087c4.606,1.195,8.923,6.243,9.625,11.254
	c0.567,4.051,4.034,7.066,8.125,7.066h265.757c4.063,0,7.369,3.305,7.369,7.369c0,4.064-3.306,7.369-7.369,7.369H186.093
	c-4.092,0-7.557,3.014-8.125,7.066c-0.702,5.009-5.02,10.058-9.625,11.254l-31.137,8.086c-5.587,1.45-14.538,2.424-22.271,2.424
	c-2.611,0-5.015-0.114-6.951-0.329l-39.037-4.346c-4.801-0.535-9.013-5.241-9.013-10.071v-42.904H59.933z M502.486,294.642
	c-1.395-1.164-2.829-2.244-4.294-3.254c2.998-8.37,4.535-17.147,4.535-26.193c0-14.497-3.993-28.075-10.92-39.712
	c-0.242-0.505-0.534-0.98-0.87-1.422c-13.771-22.051-38.248-36.762-66.107-36.762H87.169c-27.887,0-52.385,14.739-66.149,36.827
	c-0.299,0.4-0.562,0.83-0.784,1.283c-6.953,11.652-10.963,25.258-10.963,39.785c0,9.046,1.537,17.823,4.535,26.193
	c-1.464,1.01-2.898,2.087-4.292,3.252C6.654,297.03,0,303.979,0,316.895v54.573c0,38.665,31.456,70.12,70.121,70.12h371.758
	c38.665,0,70.121-31.455,70.121-70.12v-54.573C512,303.979,505.345,297.03,502.486,294.642z M87.169,203.71h337.663
	c21.314,0,40.124,10.906,51.159,27.425c-2.228,11.065-21.593,22.547-48.679,22.547c-28.817,0-48.899-12.997-48.899-24.66
	c0-4.532-3.674-8.205-8.205-8.205s-8.205,3.673-8.205,8.205c0,11.663-20.081,24.66-48.898,24.66
	c-28.816,0-48.897-12.997-48.897-24.66c0-4.532-3.674-8.205-8.205-8.205c-4.531,0-8.205,3.673-8.205,8.205
	c0,11.663-20.081,24.66-48.898,24.66c-28.816,0-48.898-12.997-48.898-24.66c0-4.532-3.674-8.205-8.205-8.205
	c-4.531,0-8.205,3.673-8.205,8.205c0,11.663-20.081,24.66-48.898,24.66c-27.094,0-46.46-11.489-48.68-22.556
	C47.051,214.612,65.858,203.71,87.169,203.71z M27.748,249.405c11.098,12.445,32.204,20.687,56.948,20.687
	c24.858,0,46.046-8.316,57.103-20.859c11.056,12.543,32.245,20.859,57.103,20.859s46.047-8.316,57.103-20.859
	c11.056,12.543,32.244,20.859,57.102,20.859c24.857,0,46.047-8.316,57.103-20.859c11.056,12.543,32.246,20.859,57.104,20.859
	c24.739,0,45.843-8.239,56.942-20.682c1.34,5.039,2.063,10.328,2.063,15.785c0,6.538-1.018,12.894-3,18.985
	c-4.816-1.458-9.817-2.216-14.921-2.216c-15.872,0-30.671,7.191-41.673,20.249c-7.832,9.294-18.175,14.413-29.126,14.413
	c-10.951,0-21.294-5.119-29.125-14.412c-11.002-13.058-25.803-20.25-41.674-20.25s-30.672,7.191-41.674,20.25
	c-7.831,9.293-18.173,14.412-29.124,14.412s-21.294-5.119-29.125-14.412c-11.002-13.058-25.802-20.25-41.674-20.25
	s-30.672,7.191-41.674,20.25c-7.831,9.293-18.174,14.412-29.125,14.412s-21.294-5.119-29.125-14.413
	c-11.002-13.058-25.803-20.249-41.674-20.249c-5.103,0-10.105,0.758-14.921,2.216c-1.981-6.091-3-12.447-3-18.985
	C25.682,259.738,26.407,254.447,27.748,249.405z M495.59,371.468c0,29.615-24.095,53.71-53.711,53.71H70.121
	c-29.616-0.001-53.711-24.095-53.711-53.71v-54.573c0-6.155,2.772-8.948,3.622-9.657c6.944-5.799,15.094-8.865,23.571-8.865
	c10.95,0,21.293,5.119,29.124,14.412c11.002,13.058,25.803,20.25,41.674,20.25s30.672-7.191,41.674-20.25
	c7.831-9.293,18.173-14.412,29.124-14.412s21.293,5.119,29.125,14.413c11.002,13.058,25.803,20.249,41.674,20.249
	s30.672-7.191,41.674-20.25c7.831-9.293,18.173-14.412,29.124-14.412s21.293,5.119,29.125,14.413
	c11.002,13.058,25.803,20.249,41.674,20.249s30.672-7.191,41.674-20.25c7.831-9.293,18.174-14.412,29.124-14.412
	c8.477,0,16.627,3.065,23.572,8.866c0.849,0.708,3.621,3.501,3.621,9.655v54.573H495.59z"/>
<g>
</g>
<g>
</g>
<g>
</g>
<g>
</g>
<g>
</g>
<g>
</g>
<g>
</g>
<g>
</g>
<g>
</g>
<g>
</g>
<g>
</g>
<g>
</g>
<g>
</g>
<g>
</g>
<g>
</g>
</svg>
