<?xml version="1.0" encoding="iso-8859-1"?>
<!-- Generator: Adobe Illustrator 19.0.0, SVG Export Plug-In . SVG Version: 6.00 Build 0)  -->
<svg version="1.1" id="Layer_1" xmlns="http://www.w3.org/2000/svg" xmlns:xlink="http://www.w3.org/1999/xlink" x="0px" y="0px"
	 viewBox="0 0 512 512" style="enable-background:new 0 0 512 512;" xml:space="preserve">
<path style="fill:#7D868C;" d="M242.894,91.529c-8.883,0-16.085,7.201-16.085,16.085c0,8.883,7.202,16.085,16.085,16.085h35.126
	v-32.17H242.894z"/>
<path style="fill:#333E48;" d="M294.105,107.614c0-8.884-7.201-16.085-16.085-16.085c-8.883,0-16.085,7.201-16.085,16.085v70.254
	h32.17V107.614z"/>
<path style="opacity:0.2;enable-background:new    ;" d="M261.936,138.179v39.69h32.17v-56.284
	C281.205,122.546,269.757,128.795,261.936,138.179z"/>
<path style="fill:#7D868C;" d="M124.79,162.261H39.879c-11.195,0-20.354,9.161-20.354,20.358v133.322
	c0,8.149,6.606,14.758,14.757,14.758s14.757-6.608,14.757-14.758v-64.898h75.751c11.196,0,20.355-9.158,20.355-20.355v-48.069
	C145.146,171.421,135.986,162.261,124.79,162.261z"/>
<rect x="19.525" y="180.665" style="opacity:0.2;enable-background:new    ;" width="125.625" height="16.128"/>
<rect x="19.525" y="207.329" style="opacity:0.2;enable-background:new    ;" width="125.625" height="16.128"/>
<path style="opacity:0.2;enable-background:new    ;" d="M131.685,204.642c-25.585,0-46.401,20.815-46.401,46.399h39.507
	c11.196,0,20.355-9.158,20.355-20.355v-26.044h-13.461V204.642z"/>
<path style="fill:#FFCE00;" d="M452.665,222.359c-29.025-25.662-107.692-80.208-145.89-88.964c-2.932-0.78-6.012-1.202-9.189-1.202
	c-19.689,0-35.65,15.961-35.65,35.651v47.551H131.685c-19.688,0-35.649,15.958-35.649,35.647c0,19.688,15.961,35.649,35.649,35.649
	h299.816c19.688,0,35.649-15.961,35.649-35.649C467.149,239.279,461.45,228.849,452.665,222.359z"/>
<path style="opacity:0.2;enable-background:new    ;" d="M462.526,233.503H100.652c-2.934,5.18-4.617,11.164-4.617,17.54
	c0,19.688,15.961,35.649,35.649,35.649h299.816c19.688,0,35.649-15.961,35.649-35.649
	C467.149,244.664,465.463,238.683,462.526,233.503z"/>
<path style="fill:#333E48;" d="M492.476,273.892c0-12.569-10.283-22.851-22.852-22.851H93.562
	c-12.568,0-22.851,10.282-22.851,22.851v19.198c0,12.565,10.283,22.851,22.851,22.851h376.063c12.568,0,22.852-10.285,22.852-22.851
	v-19.198H492.476z"/>
<path style="opacity:0.2;enable-background:new    ;" d="M359.92,198.826h-59.707c-4.453,0-8.064-3.609-8.064-8.064
	c0-4.455,3.611-8.064,8.064-8.064h59.707c4.453,0,8.064,3.609,8.064,8.064C367.984,195.215,364.373,198.826,359.92,198.826z"/>
<path style="opacity:0.2;enable-background:new    ;" d="M359.92,223.458h-59.707c-4.453,0-8.064-3.609-8.064-8.064
	c0-4.455,3.611-8.064,8.064-8.064h59.707c4.453,0,8.064,3.609,8.064,8.064C367.984,219.849,364.373,223.458,359.92,223.458z"/>
<path style="fill:#009BDE;" d="M441.986,420.472c34.214,0,61.95-27.737,61.95-61.949c0,0,0-45.5,0-54.606
	c0-9.102-4.261-14.034-6.572-15.962c-19.516-16.3-46.846-14.11-64.266,6.563c-19.481,23.121-51.359,23.121-70.841,0
	c-19.479-23.121-51.358-23.121-70.839,0c-19.479,23.121-51.357,23.121-70.839,0c-19.48-23.121-51.359-23.121-70.839,0
	c-19.48,23.121-51.36,23.121-70.84,0c-17.42-20.673-44.749-22.863-64.266-6.563c-2.31,1.928-6.572,6.861-6.572,15.962
	c0,9.106,0,54.606,0,54.606c0,34.213,27.737,61.949,61.951,61.949H441.986z"/>
<path style="opacity:0.2;enable-background:new    ;" d="M256.003,375.494c-15.838,0-30.607-7.178-41.588-20.213
	c-7.863-9.332-18.251-14.471-29.253-14.471c-11,0-21.389,5.139-29.253,14.472c-2.87,3.405-7.957,3.84-11.363,0.97
	c-3.406-2.87-3.841-7.956-0.971-11.363c10.98-13.03,25.749-20.207,41.586-20.207s30.606,7.177,41.586,20.207
	c7.864,9.336,18.253,14.476,29.254,14.476c10.999,0,21.388-5.141,29.251-14.475c10.981-13.031,25.752-20.208,41.588-20.208
	c0,0,0,0,0.001,0c15.836,0.001,30.605,7.178,41.584,20.207c2.87,3.406,2.435,8.493-0.971,11.363
	c-3.406,2.87-8.493,2.435-11.363-0.97c-7.863-9.333-18.251-14.471-29.252-14.472c-11,0-21.391,5.139-29.254,14.472
	C286.608,368.316,271.839,375.494,256.003,375.494z"/>
<path style="fill:#1E252B;" d="M502.534,281.766c-0.656-0.548-1.323-1.076-1.995-1.59v-6.283c0-15.378-11.288-28.166-26.014-30.523
	c-1.941-10.774-7.904-20.607-16.774-27.276c-30.583-26.954-109.952-81.486-149.043-90.529c-2.149-0.563-4.337-0.942-6.54-1.174
	v-16.777c0-13.316-10.834-24.149-24.149-24.149h-35.126c-13.315,0-24.149,10.833-24.149,24.149s10.834,24.149,24.149,24.149h10.978
	v75.568H153.209v-24.712c0-15.671-12.749-28.422-28.419-28.422H39.879c-15.67,0-28.418,12.75-28.418,28.422v97.557
	c-0.671,0.514-1.336,1.042-1.991,1.589C6.622,284.14,0,291.054,0,303.917v54.606c0,38.605,31.408,70.013,70.015,70.013h371.97
	c38.606,0,70.014-31.408,70.014-70.013v-54.606C512,291.051,505.378,284.139,502.534,281.766z M469.624,259.105
	c7.361,0,13.465,5.411,14.586,12.46c-5.05-1.62-10.315-2.451-15.691-2.451c-15.836,0-30.605,7.176-41.586,20.207
	c-7.864,9.334-18.253,14.473-29.253,14.473c-11,0-21.39-5.139-29.254-14.472c-10.98-13.032-25.749-20.209-41.586-20.209
	s-30.606,7.177-41.587,20.209c-7.863,9.333-18.251,14.472-29.251,14.472c-11.001,0-21.39-5.139-29.254-14.473
	c-10.98-13.031-25.749-20.208-41.586-20.208c-15.838,0-30.606,7.177-41.586,20.208c-7.863,9.334-18.252,14.473-29.253,14.473
	c-11.001,0-21.39-5.139-29.254-14.473c-1.979-2.349-4.086-4.5-6.295-6.461v-8.968c0-8.153,6.634-14.787,14.787-14.787H469.624z
	 M269.999,107.614c0-4.422,3.599-8.021,8.021-8.021c4.422,0,8.021,3.599,8.021,8.021v18.073c-5.946,1.631-11.391,4.481-16.042,8.276
	V107.614z M242.894,115.635c-4.422,0-8.021-3.599-8.021-8.021c0-4.422,3.599-8.021,8.021-8.021h12.353
	c-0.887,2.512-1.375,5.209-1.375,8.021v8.021H242.894z M261.936,223.458c4.453,0,8.064-3.609,8.064-8.064v-47.551
	c0-15.212,12.375-27.587,27.586-27.587c2.396,0,4.791,0.314,7.118,0.931c0.089,0.025,0.18,0.046,0.269,0.068
	c36.092,8.274,113.77,61.876,142.351,87.146c0.177,0.156,0.36,0.304,0.55,0.444c4.881,3.606,8.336,8.539,10.028,14.133H105.304
	c3.458-11.286,13.974-19.519,26.38-19.519h130.252V223.458z M27.588,182.618c0-6.779,5.514-12.294,12.29-12.294h84.912
	c6.778,0,12.292,5.515,12.292,12.294v24.712h-5.397c-21.348,0-39.158,15.386-42.955,35.647H49.038c-4.453,0-8.064,3.609-8.064,8.064
	v18.136c-4.577,0.221-9.062,1.047-13.386,2.455V182.618z M66.419,259.105c-2.244,4.103-3.578,8.769-3.746,13.727
	c-1.824-0.731-3.681-1.356-5.571-1.873v-11.853h9.317V259.105z M495.872,358.523c0,29.713-24.173,53.885-53.886,53.885H70.015
	c-29.714,0-53.887-24.172-53.887-53.885v-54.606c0-6.22,2.813-9.051,3.677-9.772c6.974-5.824,15.161-8.903,23.678-8.903
	c10.999,0,21.389,5.139,29.254,14.472c10.98,13.031,25.749,20.208,41.586,20.208s30.606-7.177,41.586-20.208
	c7.864-9.334,18.252-14.473,29.253-14.473c11,0,21.39,5.139,29.253,14.473c10.98,13.031,25.75,20.208,41.587,20.208
	c15.836,0,30.605-7.177,41.585-20.208c7.864-9.334,18.253-14.473,29.254-14.473c11,0,21.389,5.139,29.252,14.473
	c10.981,13.031,25.751,20.208,41.587,20.208c15.836,0,30.606-7.177,41.586-20.208c7.864-9.334,18.253-14.472,29.254-14.472
	c8.516,0,16.703,3.077,23.681,8.906c0.862,0.718,3.673,3.547,3.673,9.769v54.606H495.872z"/>
<g>
</g>
<g>
</g>
<g>
</g>
<g>
</g>
<g>
</g>
<g>
</g>
<g>
</g>
<g>
</g>
<g>
</g>
<g>
</g>
<g>
</g>
<g>
</g>
<g>
</g>
<g>
</g>
<g>
</g>
</svg>
