<?xml version="1.0" encoding="iso-8859-1"?>
<!-- Generator: Adobe Illustrator 19.0.0, SVG Export Plug-In . SVG Version: 6.00 Build 0)  -->
<svg version="1.1" id="Layer_1" xmlns="http://www.w3.org/2000/svg" xmlns:xlink="http://www.w3.org/1999/xlink" x="0px" y="0px"
	 viewBox="0 0 512 512" style="enable-background:new 0 0 512 512;" xml:space="preserve">
<path style="fill:#333E48;" d="M276.188,380.875c0,5.559-4.547,10.107-10.107,10.107h-20.169c-5.561,0-10.11-4.549-10.11-10.107
	V170.423c0-5.559,4.549-10.107,10.11-10.107h20.169c5.561,0,10.107,4.549,10.107,10.107V380.875z"/>
<g>
	<rect x="235.797" y="228.118" style="fill:#7D868C;" width="40.386" height="16.41"/>
	<rect x="235.797" y="256.922" style="fill:#7D868C;" width="40.386" height="16.41"/>
	<rect x="235.797" y="285.738" style="fill:#7D868C;" width="40.386" height="16.41"/>
	<rect x="235.797" y="314.542" style="fill:#7D868C;" width="40.386" height="16.41"/>
</g>
<rect x="235.797" y="160.312" style="opacity:0.2;enable-background:new    ;" width="40.386" height="30.374"/>
<path style="fill:#61B4E4;" d="M469.705,153.67v78.962c0,9.781-7.929,17.711-17.711,17.711c-9.781,0-17.711-7.929-17.711-17.711
	V153.67L469.705,153.67L469.705,153.67z"/>
<rect x="434.29" y="153.672" style="opacity:0.2;enable-background:new    ;" width="35.422" height="16.828"/>
<path style="fill:#333E48;" d="M434.368,157.372h35.339v-25.962c0-21.712-17.662-39.376-39.377-39.376h-31.467v35.338h31.467
	c2.227,0,4.038,1.811,4.038,4.038L434.368,157.372L434.368,157.372z"/>
<polygon style="opacity:0.2;enable-background:new    ;" points="419.752,92.033 415.785,127.37 398.862,127.37 398.862,92.033 "/>
<path style="fill:#333E48;" d="M255.997,149.967h32.309v-18.558c0-3.063,2.492-5.553,5.551-5.553h31.47V93.548h-31.47
	c-20.874,0-37.86,16.984-37.86,37.861V149.967z"/>
<polygon style="opacity:0.2;enable-background:new    ;" points="325.326,93.548 325.326,125.855 309.262,125.855 305.634,93.548 
	"/>
<path style="fill:#FFCE00;" d="M322.887,156.713c0.619,5.519,5.67,10.034,11.223,10.034h56.998c5.553,0,10.602-4.515,11.224-10.034
	l8.528-75.958c0.62-5.518-3.417-10.033-8.967-10.033h-78.566c-5.552,0-9.589,4.515-8.97,10.033L322.887,156.713z"/>
<path style="fill:#493728;" d="M320.97,139.618l1.919,17.096c0.62,5.519,5.672,10.034,11.223,10.034h56.998
	c5.553,0,10.602-4.515,11.224-10.034l1.919-17.096H320.97z"/>
<path style="opacity:0.2;enable-background:new    ;" d="M323.327,70.723h78.564c5.551,0,9.589,4.515,8.967,10.033l-1.038,9.256
	h-94.423l-1.04-9.256C313.738,75.238,317.775,70.723,323.327,70.723z"/>
<path style="fill:#61B4E4;" d="M42.287,153.67v78.962c0,9.781,7.93,17.711,17.711,17.711s17.712-7.929,17.712-17.711V153.67
	L42.287,153.67L42.287,153.67z"/>
<rect x="42.287" y="153.672" style="opacity:0.2;enable-background:new    ;" width="35.423" height="16.828"/>
<path style="fill:#333E48;" d="M77.625,157.372H42.287v-25.962c0-21.712,17.663-39.376,39.377-39.376h31.467v35.338H81.664
	c-2.227,0-4.039,1.811-4.039,4.038V157.372z"/>
<polygon style="opacity:0.2;enable-background:new    ;" points="92.238,92.033 96.207,127.37 113.131,127.37 113.131,92.033 "/>
<path style="fill:#333E48;" d="M255.997,149.967h-32.309v-18.558c0-3.063-2.491-5.553-5.553-5.553h-31.466V93.548h31.466
	c20.878,0,37.862,16.984,37.862,37.861V149.967z"/>
<polygon style="opacity:0.2;enable-background:new    ;" points="186.669,93.548 186.669,125.855 202.731,125.855 206.359,93.548 
	"/>
<path style="fill:#FFCE00;" d="M189.105,156.713c-0.619,5.519-5.671,10.034-11.223,10.034h-56.997
	c-5.551,0-10.602-4.515-11.224-10.034l-8.529-75.958c-0.62-5.518,3.415-10.033,8.97-10.033h78.562c5.554,0,9.591,4.515,8.971,10.033
	L189.105,156.713z"/>
<path style="fill:#493728;" d="M107.742,139.618l1.919,17.096c0.621,5.519,5.673,10.034,11.224,10.034h56.998
	c5.552,0,10.603-4.515,11.223-10.034l1.92-17.096H107.742z"/>
<path style="opacity:0.2;enable-background:new    ;" d="M188.665,70.723h-78.562c-5.554,0-9.591,4.515-8.97,10.033l1.039,9.256
	h94.425l1.039-9.256C198.256,75.238,194.219,70.723,188.665,70.723z"/>
<path style="fill:#333E48;" d="M431.378,79.521c12.99,0,23.521-10.532,23.521-23.521c0-12.99-10.531-23.522-23.521-23.522H80.614
	c-12.989,0-23.52,10.532-23.52,23.522c0,12.989,10.531,23.521,23.52,23.521H431.378z"/>
<path style="fill:#7D868C;" d="M300.547,166.373c0,5.553-4.542,10.096-10.096,10.096h-68.908c-5.553,0-10.097-4.543-10.097-10.096
	v-16.659c0-5.553,4.543-10.096,10.097-10.096h68.908c5.553,0,10.096,4.543,10.096,10.096V166.373z"/>
<path style="fill:#61B4E4;" d="M441.879,479.521c34.195,0,61.916-27.722,61.916-61.916c0,0,0-45.475,0-54.573
	c0-9.098-4.26-14.027-6.568-15.955c-19.506-16.289-46.82-14.103-64.229,6.561c-19.471,23.108-51.33,23.108-70.8,0
	c-19.47-23.108-51.329-23.108-70.798,0c-19.47,23.108-51.329,23.108-70.799,0c-19.47-23.108-51.329-23.108-70.798,0
	c-19.47,23.108-51.33,23.108-70.799,0c-17.41-20.663-44.724-22.85-64.23-6.561c-2.308,1.928-6.568,6.857-6.568,15.955
	s0,54.573,0,54.573c0,34.195,27.722,61.916,61.916,61.916H441.879z"/>
<path style="opacity:0.2;enable-background:new    ;" d="M256.001,434.714c-15.873,0-30.673-7.192-41.675-20.251
	c-7.831-9.294-18.174-14.412-29.124-14.412c-10.951,0-21.294,5.119-29.125,14.412c-2.919,3.466-8.094,3.908-11.561,0.988
	c-3.465-2.92-3.907-8.095-0.987-11.561c11.002-13.058,25.802-20.249,41.674-20.249c15.872,0,30.671,7.192,41.673,20.249
	c7.832,9.294,18.175,14.414,29.126,14.414c10.95,0,21.293-5.12,29.124-14.414c11.002-13.058,25.802-20.249,41.673-20.249
	c15.873,0,30.672,7.192,41.674,20.249c2.92,3.465,2.478,8.641-0.987,11.561c-3.467,2.92-8.642,2.477-11.561-0.988
	c-7.831-9.294-18.174-14.412-29.125-14.412c-10.95,0-21.293,5.119-29.124,14.412C286.673,427.521,271.873,434.713,256.001,434.714z"
	/>
<path style="fill:#1E252B;" d="M416.978,199.208c0-4.531-3.672-8.205-8.205-8.205s-8.205,3.674-8.205,8.205v21.77
	c0,4.531,3.673,8.205,8.205,8.205s8.205-3.674,8.205-8.205V199.208z M424.773,295.333c4.532,0,8.205-3.674,8.205-8.205v-21.77
	c0-4.531-3.673-8.205-8.205-8.205s-8.205,3.674-8.205,8.205v21.77C416.568,291.659,420.242,295.333,424.773,295.333z
	 M493.896,234.011c4.532,0,8.205-3.674,8.205-8.205v-21.77c0-4.531-3.672-8.205-8.205-8.205c-4.532,0-8.205,3.674-8.205,8.205v21.77
	C485.691,230.337,489.363,234.011,493.896,234.011z M18.096,234.011c4.532,0,8.205-3.674,8.205-8.205v-21.77
	c0-4.531-3.673-8.205-8.205-8.205s-8.205,3.674-8.205,8.205v21.77C9.891,230.337,13.563,234.011,18.096,234.011z M464.149,283.687
	c-4.532,0-8.205,3.674-8.205,8.205v21.769c0,4.531,3.673,8.205,8.205,8.205s8.205-3.674,8.205-8.205v-21.769
	C472.354,287.36,468.681,283.687,464.149,283.687z M103.219,229.183c4.532,0,8.205-3.674,8.205-8.205v-21.77
	c0-4.531-3.673-8.205-8.205-8.205c-4.532,0-8.205,3.674-8.205,8.205v21.77C95.014,225.51,98.686,229.183,103.219,229.183z
	 M56.046,313.662v-21.769c0-4.531-3.673-8.205-8.205-8.205s-8.205,3.674-8.205,8.205v21.769c0,4.531,3.673,8.205,8.205,8.205
	S56.046,318.193,56.046,313.662z M502.486,340.779c-9.932-8.293-21.72-12.677-34.09-12.677c-15.872,0-30.671,7.191-41.673,20.25
	c-7.831,9.294-18.174,14.413-29.125,14.413c-10.952,0-21.296-5.119-29.126-14.413c-11.002-13.058-25.802-20.25-41.674-20.25
	c-15.872,0-30.671,7.192-41.673,20.25c-0.24,0.283-0.488,0.551-0.732,0.828V184.674h6.057c10.092,0,18.301-8.21,18.301-18.301
	v-16.659c0-6.638-3.565-12.446-8.868-15.655h12.201l2.647,23.569c1.091,9.713,9.602,17.323,19.377,17.323h56.998
	c9.773,0,18.284-7.609,19.378-17.323l2.477-22.054h13.201v21.797h-0.085v75.26c0,14.291,11.627,25.915,25.918,25.915
	s25.915-11.626,25.915-25.915V131.408c0-21.871-14.838-40.331-34.972-45.872c11.792-4.631,20.168-16.12,20.168-29.536
	c0-17.494-14.233-31.727-31.726-31.727H80.614c-17.493,0-31.724,14.233-31.724,31.727c0,13.416,8.373,24.905,20.167,29.536
	c-20.135,5.541-34.974,24.001-34.974,45.872V232.63c0,14.291,11.626,25.915,25.915,25.915s25.916-11.626,25.916-25.915v-75.26
	h-0.085v-21.797H99.03l2.477,22.057c1.094,9.711,9.605,17.32,19.378,17.32h56.998c9.774,0,18.286-7.61,19.377-17.323l2.647-23.569
	h12.203c-5.305,3.209-8.869,9.016-8.869,15.655v16.659c0,10.092,8.21,18.301,18.302,18.301h6.055v164.494
	c-0.241-0.272-0.487-0.537-0.723-0.818c-11.002-13.058-25.802-20.25-41.673-20.25c-15.873,0-30.672,7.192-41.674,20.25
	c-7.831,9.294-18.174,14.413-29.125,14.413s-21.294-5.119-29.125-14.413c-11.002-13.058-25.803-20.25-41.674-20.25
	c-12.37,0-24.157,4.384-34.089,12.676C6.655,343.166,0,350.117,0,363.032v54.573c0,38.665,31.456,70.121,70.121,70.121h371.758
	c38.665,0,70.121-31.456,70.121-70.121v-54.573C512,350.117,505.345,343.166,502.486,340.779z M293.856,117.65
	c-7.587,0-13.758,6.172-13.758,13.758v0.004h-15.897v-0.004c0-0.014-0.001-0.027-0.001-0.043
	c0.023-16.333,13.317-29.614,29.656-29.614h14.6l1.785,15.898h-16.386V117.65z M255.996,105.21
	c-5.615-8.09-13.752-14.297-23.267-17.484h46.533C269.748,90.913,261.611,97.12,255.996,105.21z M394.177,155.794
	c-0.153,1.361-1.703,2.748-3.071,2.748h-56.998c-1.367,0-2.917-1.385-3.07-2.745l-7.645-68.072h78.426L394.177,155.794z
	 M461.499,232.63c0,5.242-4.264,9.506-9.506,9.506c-5.242,0-9.508-4.264-9.508-9.506v-67.055h19.013V232.63z M461.499,131.408
	v17.758h-18.928v-17.758c0-6.751-5.493-12.243-12.244-12.243h-15.524l2.125-18.928h13.399
	C447.515,100.237,461.499,114.221,461.499,131.408z M69.505,232.63c0,5.242-4.264,9.506-9.507,9.506
	c-5.241,0-9.506-4.264-9.506-9.506v-67.055h19.013v67.055H69.505z M81.664,119.166c-6.752,0-12.244,5.493-12.244,12.243v17.758
	H50.492v-17.758c0-17.188,13.983-31.171,31.172-31.171h13.399l2.125,18.928C97.187,119.166,81.664,119.166,81.664,119.166z
	 M180.952,155.798c-0.153,1.36-1.702,2.745-3.07,2.745h-56.997c-1.367,0-2.918-1.387-3.071-2.745l-7.643-68.072h78.426
	L180.952,155.798z M80.614,71.316c-8.444,0-15.315-6.87-15.315-15.316s6.87-15.317,15.315-15.317h350.764
	c8.446,0,15.316,6.871,15.316,15.317s-6.87,15.316-15.316,15.316H80.614z M201.749,117.65l1.785-15.898h14.6
	c16.34,0,29.633,13.281,29.656,29.614c0,0.014-0.001,0.028-0.001,0.043v0.004h-15.897v-0.004c0-7.587-6.172-13.758-13.758-13.758
	h-16.386V117.65z M221.543,168.265c-1.026,0-1.893-0.866-1.893-1.892v-16.659c0-1.026,0.866-1.892,1.893-1.892h68.908
	c1.025,0,1.892,0.866,1.892,1.892v16.659c0,1.026-0.866,1.892-1.892,1.892H221.543z M267.983,184.674v175.972
	c-3.842,1.395-7.869,2.118-11.983,2.118c-4.118,0-8.148-0.724-11.992-2.121V184.674H267.983z M495.59,417.604
	c0,29.616-24.094,53.711-53.711,53.711H70.121c-29.617,0-53.711-24.095-53.711-53.711v-54.573c0-6.155,2.771-8.947,3.623-9.657
	c6.944-5.799,15.095-8.863,23.571-8.863c10.951,0,21.294,5.119,29.125,14.413c11.002,13.058,25.802,20.25,41.674,20.25
	s30.672-7.192,41.674-20.25c7.831-9.294,18.174-14.413,29.125-14.413c10.95,0,21.293,5.119,29.124,14.413
	c11.002,13.058,25.803,20.25,41.674,20.25c15.873,0,30.672-7.192,41.674-20.25c7.831-9.294,18.174-14.413,29.124-14.413
	c10.951,0,21.294,5.119,29.125,14.413c11.002,13.058,25.803,20.25,41.675,20.25c15.872,0,30.672-7.192,41.674-20.25
	c7.831-9.294,18.173-14.413,29.124-14.413c8.476,0,16.628,3.064,23.572,8.865c0.85,0.709,3.622,3.501,3.622,9.656v54.573H495.59z
	 M87.218,257.153c-4.532,0-8.205,3.674-8.205,8.205v21.77c0,4.531,3.673,8.205,8.205,8.205c4.532,0,8.205-3.674,8.205-8.205v-21.77
	C95.423,260.826,91.749,257.153,87.218,257.153z"/>
<g>
</g>
<g>
</g>
<g>
</g>
<g>
</g>
<g>
</g>
<g>
</g>
<g>
</g>
<g>
</g>
<g>
</g>
<g>
</g>
<g>
</g>
<g>
</g>
<g>
</g>
<g>
</g>
<g>
</g>
</svg>
