<?xml version="1.0" encoding="utf-8"?>
<!-- Generator: Adobe Illustrator 16.0.0, SVG Export Plug-In . SVG Version: 6.00 Build 0)  -->
<!DOCTYPE svg PUBLIC "-//W3C//DTD SVG 1.1//EN" "http://www.w3.org/Graphics/SVG/1.1/DTD/svg11.dtd">
<svg version="1.1" id="icons" xmlns="http://www.w3.org/2000/svg" xmlns:xlink="http://www.w3.org/1999/xlink" x="0px" y="0px"
	 width="64px" height="64px" viewBox="0 0 64 64" enable-background="new 0 0 64 64" xml:space="preserve">
<g>
	<g>
		<g>
			<path fill="#F6BB42" d="M46.167,30.926c2.89-5.648,0.87-12.629-4.69-15.83c-5.739-3.318-13.08-1.35-16.399,4.391l-0.011,0.01
				c-0.68-1.17-1.069-2.539-1.069-4c0-4.25,3.319-7.73,7.51-7.98c0.03-0.01,0.05-0.01,0.08-0.01c0.14-0.01,0.27-0.01,0.41-0.01h0.01
				c8.84,0,16,7.16,16,16c0,2.711-0.68,5.27-1.88,7.51C46.137,30.986,46.146,30.957,46.167,30.926z"/>
		</g>
		<g>
			<path fill="#FFCE54" d="M40.007,33.486l-2,2l-1.24-1.24c3.971-3.73,5.01-9.83,2.17-14.75v-0.01c1.36,0,2.74,0.34,4,1.07
				c3.65,2.1,5.011,6.641,3.23,10.369c-0.021,0.031-0.03,0.061-0.04,0.08c-0.08,0.16-0.17,0.32-0.26,0.48
				c-0.46,0.811-1,1.561-1.591,2.27l-0.27-0.27l-2,2L40.007,33.486z"/>
		</g>
		<g>
			<path fill="#E6E9ED" d="M41.477,15.096c5.561,3.201,7.58,10.182,4.69,15.83c1.78-3.729,0.42-8.27-3.23-10.369
				c-1.26-0.73-2.64-1.07-4-1.07c-2.76,0-5.449,1.43-6.93,4v0.01h-0.01c-2.96,0-5.55-1.609-6.931-4l0.011-0.01
				C28.396,13.746,35.737,11.777,41.477,15.096z"/>
		</g>
		<g>
			<path fill="#E6E9ED" d="M29.077,34.426c-0.021,0.021-0.051,0.031-0.08,0.051l-0.99-0.99l-2,2l-2-2l-2,2l-2-2l-0.11,0.109
				c-0.51-0.439-0.97-0.939-1.37-1.51c0.381,0.59,0.801,1.131,1.261,1.621l-0.05,0.049c-2.33-2.779-3.73-6.35-3.73-10.26
				c0-8.629,6.82-15.66,15.37-15.98c-6.33,0.32-11.38,5.561-11.38,11.98c0,6.621,5.38,12,12,12
				C31.327,32.676,30.337,33.697,29.077,34.426z"/>
		</g>
		<g>
			<path fill="#FFCE54" d="M32.007,23.496c1.48,2.57,1.38,5.611-0.01,8c-6.62,0-12-5.379-12-12c0-6.42,5.05-11.66,11.38-11.98
				c0.05-0.01,0.09-0.01,0.13,0c-4.19,0.25-7.51,3.73-7.51,7.98c0,1.461,0.39,2.83,1.069,4c1.381,2.391,3.971,4,6.931,4H32.007z"/>
		</g>
		<g>
			<path fill="#F5F7FA" d="M32.007,33.486l-2,2l-1.01-1.01c0.029-0.02,0.06-0.029,0.08-0.051c1.26-0.729,2.25-1.75,2.92-2.93
				c1.39-2.389,1.49-5.43,0.01-8v-0.01c1.48-2.57,4.17-4,6.93-4v0.01c2.84,4.92,1.801,11.02-2.17,14.75l-0.76-0.76l-2,2
				L32.007,33.486z"/>
		</g>
		<g>
			<polygon fill="#4A89DC" points="63,56.504 1,56.504 1,34.484 2,35.484 4,33.484 6,35.484 8,33.484 10,35.484 12,33.484 
				14,35.484 16,33.484 18,35.484 20,33.484 22,35.484 24,33.484 26,35.484 28,33.484 30,35.484 32,33.484 34,35.484 36,33.484 
				38,35.484 40,33.484 42,35.484 44,33.484 46,35.484 48,33.484 50,35.484 52,33.484 54,35.484 56,33.484 58,35.484 60,33.484 
				62,35.484 63,34.484 			"/>
		</g>
	</g>
	<g>
		<g>
			<g>
				<g>
					<path fill="#5D9CEC" d="M62,36.507c-0.256,0-0.512-0.098-0.707-0.293c-0.391-0.391-0.391-1.023,0-1.414l1-1
						c0.391-0.391,1.023-0.391,1.414,0s0.391,1.023,0,1.414l-1,1C62.512,36.409,62.256,36.507,62,36.507z"/>
				</g>
				<g>
					<path fill="#5D9CEC" d="M62,36.507c-0.256,0-0.512-0.098-0.707-0.293l-2-2.001c-0.391-0.391-0.391-1.023,0-1.414
						s1.023-0.391,1.414,0l2,2.001c0.391,0.391,0.391,1.023,0,1.414C62.512,36.409,62.256,36.507,62,36.507z"/>
				</g>
				<g>
					<path fill="#5D9CEC" d="M58,36.507c-0.256,0-0.512-0.098-0.707-0.293c-0.391-0.391-0.391-1.023,0-1.414l2-2.001
						c0.391-0.391,1.023-0.391,1.414,0s0.391,1.023,0,1.414l-2,2.001C58.512,36.409,58.256,36.507,58,36.507z"/>
				</g>
				<g>
					<path fill="#5D9CEC" d="M58,36.507c-0.256,0-0.512-0.098-0.707-0.293l-2-2.001c-0.391-0.391-0.391-1.023,0-1.414
						s1.023-0.391,1.414,0l2,2.001c0.391,0.391,0.391,1.023,0,1.414C58.512,36.409,58.256,36.507,58,36.507z"/>
				</g>
				<g>
					<path fill="#5D9CEC" d="M54,36.507c-0.256,0-0.512-0.098-0.707-0.293c-0.391-0.391-0.391-1.023,0-1.414l2-2.001
						c0.391-0.391,1.023-0.391,1.414,0s0.391,1.023,0,1.414l-2,2.001C54.512,36.409,54.256,36.507,54,36.507z"/>
				</g>
				<g>
					<path fill="#5D9CEC" d="M54,36.507c-0.256,0-0.512-0.098-0.707-0.293l-2-2.001c-0.391-0.391-0.391-1.023,0-1.414
						s1.023-0.391,1.414,0l2,2.001c0.391,0.391,0.391,1.023,0,1.414C54.512,36.409,54.256,36.507,54,36.507z"/>
				</g>
				<g>
					<path fill="#5D9CEC" d="M50,36.507c-0.256,0-0.512-0.098-0.707-0.293l-2-2.001c-0.391-0.391-0.391-1.023,0-1.414
						s1.023-0.391,1.414,0l2,2.001c0.391,0.391,0.391,1.023,0,1.414C50.512,36.409,50.256,36.507,50,36.507z"/>
				</g>
				<g>
					<path fill="#5D9CEC" d="M46,36.507c-0.256,0-0.512-0.098-0.707-0.293c-0.391-0.391-0.391-1.023,0-1.414l2-2.001
						c0.391-0.391,1.023-0.391,1.414,0s0.391,1.023,0,1.414l-2,2.001C46.512,36.409,46.256,36.507,46,36.507z"/>
				</g>
				<g>
					<path fill="#5D9CEC" d="M50.016,36.507c-0.256,0-0.512-0.098-0.707-0.293c-0.391-0.391-0.391-1.023,0-1.414l2-2.001
						c0.391-0.391,1.023-0.391,1.414,0s0.391,1.023,0,1.414l-2,2.001C50.527,36.409,50.271,36.507,50.016,36.507z"/>
				</g>
				<g>
					<path fill="#5D9CEC" d="M46,36.507c-0.256,0-0.512-0.098-0.707-0.293l-2-2.001c-0.391-0.391-0.391-1.023,0-1.414
						s1.023-0.391,1.414,0l2,2.001c0.391,0.391,0.391,1.023,0,1.414C46.512,36.409,46.256,36.507,46,36.507z"/>
				</g>
				<g>
					<path fill="#5D9CEC" d="M42,36.507c-0.256,0-0.512-0.098-0.707-0.293c-0.391-0.391-0.391-1.023,0-1.414l2-2.001
						c0.391-0.391,1.023-0.391,1.414,0s0.391,1.023,0,1.414l-2,2.001C42.512,36.409,42.256,36.507,42,36.507z"/>
				</g>
				<g>
					<path fill="#5D9CEC" d="M42,36.507c-0.256,0-0.512-0.098-0.707-0.293l-2-2.001c-0.391-0.391-0.391-1.023,0-1.414
						s1.023-0.391,1.414,0l2,2.001c0.391,0.391,0.391,1.023,0,1.414C42.512,36.409,42.256,36.507,42,36.507z"/>
				</g>
				<g>
					<path fill="#5D9CEC" d="M38,36.507c-0.256,0-0.512-0.098-0.707-0.293c-0.391-0.391-0.391-1.023,0-1.414l2-2.001
						c0.391-0.391,1.023-0.391,1.414,0s0.391,1.023,0,1.414l-2,2.001C38.512,36.409,38.256,36.507,38,36.507z"/>
				</g>
				<g>
					<path fill="#5D9CEC" d="M38,36.507c-0.256,0-0.512-0.098-0.707-0.293l-2-2.001c-0.391-0.391-0.391-1.023,0-1.414
						s1.023-0.391,1.414,0l2,2.001c0.391,0.391,0.391,1.023,0,1.414C38.512,36.409,38.256,36.507,38,36.507z"/>
				</g>
				<g>
					<path fill="#5D9CEC" d="M34,36.507c-0.256,0-0.512-0.098-0.707-0.293c-0.391-0.391-0.391-1.023,0-1.414l2-2.001
						c0.391-0.391,1.023-0.391,1.414,0s0.391,1.023,0,1.414l-2,2.001C34.512,36.409,34.256,36.507,34,36.507z"/>
				</g>
				<g>
					<path fill="#5D9CEC" d="M34,36.507c-0.256,0-0.512-0.098-0.707-0.293l-2-2.001c-0.391-0.391-0.391-1.023,0-1.414
						s1.023-0.391,1.414,0l2,2.001c0.391,0.391,0.391,1.023,0,1.414C34.512,36.409,34.256,36.507,34,36.507z"/>
				</g>
				<g>
					<path fill="#5D9CEC" d="M30,36.507c-0.256,0-0.512-0.098-0.707-0.293c-0.391-0.391-0.391-1.023,0-1.414l2-2.001
						c0.391-0.391,1.023-0.391,1.414,0s0.391,1.023,0,1.414l-2,2.001C30.512,36.409,30.256,36.507,30,36.507z"/>
				</g>
				<g>
					<path fill="#5D9CEC" d="M30,36.507c-0.256,0-0.512-0.098-0.707-0.293l-2-2.001c-0.391-0.391-0.391-1.023,0-1.414
						s1.023-0.391,1.414,0l2,2.001c0.391,0.391,0.391,1.023,0,1.414C30.512,36.409,30.256,36.507,30,36.507z"/>
				</g>
				<g>
					<path fill="#5D9CEC" d="M26,36.507c-0.256,0-0.512-0.098-0.707-0.293c-0.391-0.391-0.391-1.023,0-1.414l2-2.001
						c0.391-0.391,1.023-0.391,1.414,0s0.391,1.023,0,1.414l-2,2.001C26.512,36.409,26.256,36.507,26,36.507z"/>
				</g>
				<g>
					<path fill="#5D9CEC" d="M26,36.507c-0.256,0-0.512-0.098-0.707-0.293l-2-2.001c-0.391-0.391-0.391-1.023,0-1.414
						s1.023-0.391,1.414,0l2,2.001c0.391,0.391,0.391,1.023,0,1.414C26.512,36.409,26.256,36.507,26,36.507z"/>
				</g>
				<g>
					<path fill="#5D9CEC" d="M22,36.507c-0.256,0-0.512-0.098-0.707-0.293c-0.391-0.391-0.391-1.023,0-1.414l2-2.001
						c0.391-0.391,1.023-0.391,1.414,0s0.391,1.023,0,1.414l-2,2.001C22.512,36.409,22.256,36.507,22,36.507z"/>
				</g>
				<g>
					<path fill="#5D9CEC" d="M22,36.507c-0.256,0-0.512-0.098-0.707-0.293l-2-2.001c-0.391-0.391-0.391-1.023,0-1.414
						s1.023-0.391,1.414,0l2,2.001c0.391,0.391,0.391,1.023,0,1.414C22.512,36.409,22.256,36.507,22,36.507z"/>
				</g>
				<g>
					<path fill="#5D9CEC" d="M18,36.507c-0.256,0-0.512-0.098-0.707-0.293c-0.391-0.391-0.391-1.023,0-1.414l2-2.001
						c0.391-0.391,1.023-0.391,1.414,0s0.391,1.023,0,1.414l-2,2.001C18.512,36.409,18.256,36.507,18,36.507z"/>
				</g>
				<g>
					<path fill="#5D9CEC" d="M18,36.507c-0.256,0-0.512-0.098-0.707-0.293l-2-2.001c-0.391-0.391-0.391-1.023,0-1.414
						s1.023-0.391,1.414,0l2,2.001c0.391,0.391,0.391,1.023,0,1.414C18.512,36.409,18.256,36.507,18,36.507z"/>
				</g>
				<g>
					<path fill="#5D9CEC" d="M14,36.507c-0.256,0-0.512-0.098-0.707-0.293c-0.391-0.391-0.391-1.023,0-1.414l2-2.001
						c0.391-0.391,1.023-0.391,1.414,0s0.391,1.023,0,1.414l-2,2.001C14.512,36.409,14.256,36.507,14,36.507z"/>
				</g>
				<g>
					<path fill="#5D9CEC" d="M14,36.507c-0.256,0-0.512-0.098-0.707-0.293l-2-2.001c-0.391-0.391-0.391-1.023,0-1.414
						s1.023-0.391,1.414,0l2,2.001c0.391,0.391,0.391,1.023,0,1.414C14.512,36.409,14.256,36.507,14,36.507z"/>
				</g>
				<g>
					<path fill="#5D9CEC" d="M10,36.507c-0.256,0-0.512-0.098-0.707-0.293c-0.391-0.391-0.391-1.023,0-1.414l2-2.001
						c0.391-0.391,1.023-0.391,1.414,0s0.391,1.023,0,1.414l-2,2.001C10.512,36.409,10.256,36.507,10,36.507z"/>
				</g>
				<g>
					<path fill="#5D9CEC" d="M10,36.507c-0.256,0-0.512-0.098-0.707-0.293l-2-2.001c-0.391-0.391-0.391-1.023,0-1.414
						s1.023-0.391,1.414,0l2,2.001c0.391,0.391,0.391,1.023,0,1.414C10.512,36.409,10.256,36.507,10,36.507z"/>
				</g>
				<g>
					<path fill="#5D9CEC" d="M6,36.507c-0.256,0-0.512-0.098-0.707-0.293c-0.391-0.391-0.391-1.023,0-1.414l2-2.001
						c0.391-0.391,1.023-0.391,1.414,0s0.391,1.023,0,1.414l-2,2.001C6.512,36.409,6.256,36.507,6,36.507z"/>
				</g>
				<g>
					<path fill="#5D9CEC" d="M6,36.507c-0.256,0-0.512-0.098-0.707-0.293l-2-2.001c-0.391-0.391-0.391-1.023,0-1.414
						s1.023-0.391,1.414,0l2,2.001c0.391,0.391,0.391,1.023,0,1.414C6.512,36.409,6.256,36.507,6,36.507z"/>
				</g>
				<g>
					<path fill="#5D9CEC" d="M2,36.507c-0.256,0-0.512-0.098-0.707-0.293c-0.391-0.391-0.391-1.023,0-1.414l2-2.001
						c0.391-0.391,1.023-0.391,1.414,0s0.391,1.023,0,1.414l-2,2.001C2.512,36.409,2.256,36.507,2,36.507z"/>
				</g>
				<g>
					<path fill="#5D9CEC" d="M2,36.507c-0.256,0-0.512-0.098-0.707-0.293l-1-1c-0.391-0.391-0.391-1.023,0-1.414
						s1.023-0.391,1.414,0l1,1c0.391,0.391,0.391,1.023,0,1.414C2.512,36.409,2.256,36.507,2,36.507z"/>
				</g>
			</g>
			<g>
				<g>
					<g>
						<path fill="#5D9CEC" d="M32,43.506c-0.256,0-0.512-0.098-0.707-0.293l-2-2c-0.391-0.391-0.391-1.023,0-1.414
							s1.023-0.391,1.414,0l2,2c0.391,0.391,0.391,1.023,0,1.414C32.512,43.408,32.256,43.506,32,43.506z"/>
					</g>
					<g>
						<path fill="#5D9CEC" d="M28,43.506c-0.256,0-0.512-0.098-0.707-0.293c-0.391-0.391-0.391-1.023,0-1.414l2-2
							c0.391-0.391,1.023-0.391,1.414,0s0.391,1.023,0,1.414l-2,2C28.512,43.408,28.256,43.506,28,43.506z"/>
					</g>
					<g>
						<path fill="#5D9CEC" d="M28,43.506c-0.256,0-0.512-0.098-0.707-0.293l-2-2c-0.391-0.391-0.391-1.023,0-1.414
							s1.023-0.391,1.414,0l2,2c0.391,0.391,0.391,1.023,0,1.414C28.512,43.408,28.256,43.506,28,43.506z"/>
					</g>
					<g>
						<path fill="#5D9CEC" d="M24,43.506c-0.256,0-0.512-0.098-0.707-0.293c-0.391-0.391-0.391-1.023,0-1.414l2-2
							c0.391-0.391,1.023-0.391,1.414,0s0.391,1.023,0,1.414l-2,2C24.512,43.408,24.256,43.506,24,43.506z"/>
					</g>
					<g>
						<path fill="#5D9CEC" d="M24,43.506c-0.256,0-0.512-0.098-0.707-0.293l-2-2c-0.391-0.391-0.391-1.023,0-1.414
							s1.023-0.391,1.414,0l2,2c0.391,0.391,0.391,1.023,0,1.414C24.512,43.408,24.256,43.506,24,43.506z"/>
					</g>
					<g>
						<path fill="#5D9CEC" d="M20,43.506c-0.256,0-0.512-0.098-0.707-0.293c-0.391-0.391-0.391-1.023,0-1.414l2-2
							c0.391-0.391,1.023-0.391,1.414,0s0.391,1.023,0,1.414l-2,2C20.512,43.408,20.256,43.506,20,43.506z"/>
					</g>
					<g>
						<path fill="#5D9CEC" d="M20,43.506c-0.256,0-0.512-0.098-0.707-0.293l-2-2c-0.391-0.391-0.391-1.023,0-1.414
							s1.023-0.391,1.414,0l2,2c0.391,0.391,0.391,1.023,0,1.414C20.512,43.408,20.256,43.506,20,43.506z"/>
					</g>
					<g>
						<path fill="#5D9CEC" d="M16,43.506c-0.256,0-0.512-0.098-0.707-0.293c-0.391-0.391-0.391-1.023,0-1.414l2-2
							c0.391-0.391,1.023-0.391,1.414,0s0.391,1.023,0,1.414l-2,2C16.512,43.408,16.256,43.506,16,43.506z"/>
					</g>
					<g>
						<path fill="#5D9CEC" d="M16,43.506c-0.256,0-0.512-0.098-0.707-0.293l-2-2c-0.391-0.391-0.391-1.023,0-1.414
							s1.023-0.391,1.414,0l2,2c0.391,0.391,0.391,1.023,0,1.414C16.512,43.408,16.256,43.506,16,43.506z"/>
					</g>
					<g>
						<path fill="#5D9CEC" d="M12,43.506c-0.256,0-0.512-0.098-0.707-0.293c-0.391-0.391-0.391-1.023,0-1.414l2-2
							c0.391-0.391,1.023-0.391,1.414,0s0.391,1.023,0,1.414l-2,2C12.512,43.408,12.256,43.506,12,43.506z"/>
					</g>
				</g>
				<g>
					<g>
						<path fill="#5D9CEC" d="M52,47.504c-0.256,0-0.512-0.098-0.707-0.293l-2-2c-0.391-0.391-0.391-1.023,0-1.414
							s1.023-0.391,1.414,0l2,2c0.391,0.391,0.391,1.023,0,1.414C52.512,47.406,52.256,47.504,52,47.504z"/>
					</g>
					<g>
						<path fill="#5D9CEC" d="M48,47.504c-0.256,0-0.512-0.098-0.707-0.293c-0.391-0.391-0.391-1.023,0-1.414l2-2
							c0.391-0.391,1.023-0.391,1.414,0s0.391,1.023,0,1.414l-2,2C48.512,47.406,48.256,47.504,48,47.504z"/>
					</g>
					<g>
						<path fill="#5D9CEC" d="M48,47.504c-0.256,0-0.512-0.098-0.707-0.293l-2-2c-0.391-0.391-0.391-1.023,0-1.414
							s1.023-0.391,1.414,0l2,2c0.391,0.391,0.391,1.023,0,1.414C48.512,47.406,48.256,47.504,48,47.504z"/>
					</g>
					<g>
						<path fill="#5D9CEC" d="M44,47.504c-0.256,0-0.512-0.098-0.707-0.293c-0.391-0.391-0.391-1.023,0-1.414l2-2
							c0.391-0.391,1.023-0.391,1.414,0s0.391,1.023,0,1.414l-2,2C44.512,47.406,44.256,47.504,44,47.504z"/>
					</g>
					<g>
						<path fill="#5D9CEC" d="M44,47.504c-0.256,0-0.512-0.098-0.707-0.293l-2-2c-0.391-0.391-0.391-1.023,0-1.414
							s1.023-0.391,1.414,0l2,2c0.391,0.391,0.391,1.023,0,1.414C44.512,47.406,44.256,47.504,44,47.504z"/>
					</g>
					<g>
						<path fill="#5D9CEC" d="M40,47.504c-0.256,0-0.512-0.098-0.707-0.293c-0.391-0.391-0.391-1.023,0-1.414l2-2
							c0.391-0.391,1.023-0.391,1.414,0s0.391,1.023,0,1.414l-2,2C40.512,47.406,40.256,47.504,40,47.504z"/>
					</g>
				</g>
			</g>
		</g>
	</g>
</g>
</svg>
