<?xml version="1.0" encoding="iso-8859-1"?>
<!-- Generator: Adobe Illustrator 19.0.0, SVG Export Plug-In . SVG Version: 6.00 Build 0)  -->
<svg version="1.1" id="Layer_1" xmlns="http://www.w3.org/2000/svg" xmlns:xlink="http://www.w3.org/1999/xlink" x="0px" y="0px"
	 viewBox="0 0 511.999 511.999" style="enable-background:new 0 0 511.999 511.999;" xml:space="preserve">
<path style="fill:#FFCE00;" d="M255.998,218.629h0.009H255.998h0.009c27.961,0,54.117,7.713,76.469,21.121
	c6.748,4.048,10.289,4.18,16.979,0.148c22.407-13.498,48.652-21.27,76.718-21.27c26.4,0,51.192,6.877,72.692,18.931
	c2.106,1.181,5.47-1.095,5.041-3.463c-18.043-99.42-98.115-167.668-200.09-183.93c-15.939-7.958-31.465-10.068-47.815-10.068
	s-31.877,2.11-47.815,10.068C106.212,66.43,26.142,134.677,8.099,234.097c-0.429,2.368,2.935,4.644,5.041,3.463
	c21.5-12.054,46.291-18.931,72.692-18.931c28.065,0,54.312,7.771,76.718,21.27c6.69,4.031,10.231,3.899,16.979-0.148
	C201.881,226.342,228.037,218.629,255.998,218.629h0.009H255.998h0.009H255.998z"/>
<g>
	<path style="fill:#009BDE;" d="M8.099,234.097c-0.429,2.368,2.935,4.644,5.041,3.463c21.5-12.054,46.291-18.931,72.692-18.931
		c28.065,0,54.312,7.771,76.718,21.27c2.971,1.79,5.32,2.756,7.605,2.925c-19.212-64.716-3.153-156.548,38.032-192.65v-0.008
		C106.212,66.43,26.142,134.677,8.099,234.097z"/>
	<path style="fill:#009BDE;" d="M503.907,234.097c0.429,2.368-2.935,4.644-5.041,3.463c-21.5-12.054-46.291-18.931-72.692-18.931
		c-28.065,0-54.312,7.771-76.718,21.27c-2.97,1.79-5.32,2.756-7.605,2.925c19.212-64.716,3.153-156.548-38.032-192.65v-0.008
		C405.792,66.43,485.864,134.677,503.907,234.097z"/>
</g>
<path style="opacity:0.1;enable-background:new    ;" d="M187.833,54.178c-36.265,36.72-50.955,118.159-36.166,179.791
	c3.715,1.835,7.352,3.802,10.884,5.93c2.97,1.79,5.32,2.756,7.605,2.925c-19.212-64.716-3.153-156.548,38.032-192.65v-0.008
	C201.297,51.266,194.51,52.611,187.833,54.178z"/>
<path style="opacity:0.1;enable-background:new    ;" d="M324.171,54.178c36.265,36.72,50.955,118.159,36.166,179.791
	c-3.715,1.835-7.352,3.802-10.884,5.93c-2.971,1.79-5.32,2.756-7.605,2.925c19.212-64.716,3.153-156.548-38.032-192.65v-0.008
	C310.708,51.266,317.494,52.611,324.171,54.178z"/>
<path style="fill:#1E252B;" d="M511.834,232.658c-9.039-49.805-33.628-93.964-71.108-127.701
	c-36.04-32.441-82.506-54.056-134.436-62.555C291.506,35.24,275.931,32.039,256,32.039s-35.506,3.202-50.29,10.363
	c-51.931,8.499-98.396,30.114-134.436,62.555C33.794,138.694,9.205,182.852,0.165,232.662c-0.563,3.108,0.33,6.346,2.45,8.886
	c2.299,2.752,5.751,4.396,9.235,4.396c1.844,0,3.653-0.467,5.23-1.352c0.201-0.113,0.407-0.217,0.609-0.329l232.6,233.328
	c0.003,0.003,0.006,0.005,0.01,0.009c0.003,0.003,0.005,0.006,0.009,0.01c0.106,0.105,0.219,0.199,0.329,0.297
	c0.092,0.082,0.179,0.17,0.274,0.247c0.123,0.1,0.251,0.187,0.378,0.278c0.091,0.067,0.181,0.14,0.274,0.202
	c0.136,0.09,0.278,0.167,0.419,0.247c0.089,0.052,0.176,0.111,0.267,0.158c0.152,0.08,0.307,0.146,0.463,0.215
	c0.085,0.038,0.167,0.083,0.253,0.117c0.166,0.068,0.334,0.12,0.502,0.176c0.08,0.026,0.157,0.059,0.236,0.082
	c0.176,0.053,0.355,0.09,0.533,0.131c0.074,0.016,0.148,0.04,0.224,0.054c0.192,0.038,0.387,0.061,0.583,0.084
	c0.062,0.008,0.124,0.021,0.185,0.027c0.257,0.024,0.515,0.037,0.773,0.037c0.258,0,0.516-0.013,0.773-0.037
	c0.06-0.006,0.119-0.019,0.179-0.026c0.197-0.023,0.392-0.047,0.587-0.085c0.094-0.018,0.184-0.046,0.277-0.068
	c0.16-0.037,0.32-0.07,0.478-0.117c0.11-0.032,0.216-0.076,0.325-0.113c0.138-0.047,0.277-0.089,0.413-0.145
	c0.122-0.049,0.241-0.111,0.361-0.168c0.118-0.055,0.239-0.103,0.355-0.164c0.128-0.068,0.249-0.146,0.374-0.221
	c0.104-0.062,0.21-0.117,0.312-0.185c0.119-0.078,0.233-0.17,0.349-0.256c0.101-0.075,0.205-0.144,0.304-0.224
	c0.104-0.085,0.201-0.181,0.301-0.271c0.101-0.091,0.206-0.176,0.304-0.274c0.003-0.003,0.005-0.006,0.009-0.01
	c0.003-0.003,0.006-0.005,0.01-0.009l232.602-233.331c0.203,0.113,0.411,0.217,0.614,0.331c1.577,0.884,3.385,1.352,5.23,1.352
	c3.484,0,6.936-1.643,9.235-4.396C511.504,239.008,512.397,235.77,511.834,232.658z M212.745,56.916
	c12.638-6.125,25.65-8.757,43.253-8.757c17.604,0,30.615,2.633,43.254,8.757c35.464,32.02,52.204,113.398,36.994,175.707
	c-24.19-14.42-51.912-22.049-80.216-22.055h-0.016c-0.008-0.001-0.013,0-0.019,0c-28.308,0-56.043,7.628-80.243,22.054
	C160.542,170.314,177.282,88.936,212.745,56.916z M82.057,116.939c28.648-25.787,64.429-44.281,104.495-54.174
	c-27.731,40.193-39.751,108.24-28.286,165.511c-22.28-11.603-47.124-17.708-72.438-17.708c-23.52,0-46.777,5.299-67.843,15.396
	C27.654,183.619,49.674,146.088,82.057,116.939z M33.117,236.907c16.664-6.716,34.599-10.217,52.711-10.217
	c25.626,0,50.717,6.956,72.558,20.113c1.805,1.088,3.981,2.254,6.434,3.069l70.684,190.057L33.117,236.907z M255.995,448.776
	l-74.675-200.788c0.816-0.431,1.605-0.878,2.351-1.326c21.782-13.066,46.792-19.972,72.331-19.972
	c25.531,0,50.54,6.906,72.322,19.972c0.745,0.447,1.533,0.893,2.346,1.323L255.995,448.776z M276.485,439.929l70.684-190.054
	c2.458-0.816,4.635-1.984,6.442-3.072c21.842-13.159,46.933-20.113,72.559-20.113c18.111,0,36.044,3.501,52.706,10.215
	L276.485,439.929z M426.169,210.569c-25.314,0-50.158,6.105-72.438,17.708c11.465-57.271-0.556-125.318-28.286-165.511
	c40.066,9.893,75.849,28.387,104.495,54.174c32.383,29.149,54.404,66.683,64.072,109.026
	C472.947,215.868,449.689,210.569,426.169,210.569z"/>
<g>
</g>
<g>
</g>
<g>
</g>
<g>
</g>
<g>
</g>
<g>
</g>
<g>
</g>
<g>
</g>
<g>
</g>
<g>
</g>
<g>
</g>
<g>
</g>
<g>
</g>
<g>
</g>
<g>
</g>
</svg>
