<?xml version="1.0" encoding="iso-8859-1"?>
<!-- Generator: Adobe Illustrator 19.0.0, SVG Export Plug-In . SVG Version: 6.00 Build 0)  -->
<svg version="1.1" id="Layer_1" xmlns="http://www.w3.org/2000/svg" xmlns:xlink="http://www.w3.org/1999/xlink" x="0px" y="0px"
	 viewBox="0 0 511.998 511.998" style="enable-background:new 0 0 511.998 511.998;" xml:space="preserve">
<path style="fill:#009BDE;" d="M255.999,35.914c22.264,0.245,44.77,1.506,66.846,4.482c44.205,5.959,88.319,16.896,128.37,36.929
	c21.74,10.875,59.949,29.613,51.522,59.907c-4.655,16.738-21.998,26.533-38.737,21.879l-5.945-1.655c0,0-1.267-0.352-3.55-1.08
	c-2.452-0.691-5.926-1.782-10.896-3.043c-4.919-1.252-11.123-2.729-18.536-4.212c-7.403-1.493-15.985-3.032-25.525-4.484
	c-15.82-2.413-31.716-4.343-47.646-5.882c-31.969-3.091-63.778-5.086-95.906-4.972c-32.128-0.113-63.937,1.881-95.906,4.972
	c-15.928,1.539-31.825,3.469-47.645,5.882c-9.54,1.452-18.122,2.991-25.525,4.484c-7.413,1.483-13.616,2.96-18.536,4.212
	c-4.969,1.261-8.444,2.351-10.895,3.043c-2.284,0.728-3.551,1.08-3.551,1.08l-5.945,1.655c-16.738,4.655-34.081-5.141-38.736-21.879
	C0.834,106.937,39.043,88.2,60.784,77.325c40.05-20.033,84.164-30.97,128.369-36.929C211.23,37.419,233.735,36.157,255.999,35.914z"
	/>
<path style="opacity:0.2;enable-background:new    ;" d="M378.16,50.85c-18.228-4.56-36.76-7.953-55.315-10.454
	c-22.077-2.976-44.582-4.238-66.846-4.482c-22.264,0.245-44.77,1.506-66.846,4.482c-18.556,2.503-37.093,5.896-55.322,10.457
	c-7.982,13.171-11.497,28.496-9.962,44.097c1.767,17.971,9.957,33.777,22.157,45.281c4.687-0.522,9.376-1.022,14.068-1.476
	c31.969-3.091,63.778-5.086,95.906-4.972c32.128-0.113,63.937,1.881,95.906,4.972c4.691,0.453,9.376,0.953,14.06,1.476
	c12.202-11.505,20.391-27.31,22.159-45.281C389.659,79.347,386.143,64.023,378.16,50.85z"/>
<path style="fill:#FFCE00;" d="M316.762,143.392c-1.816,0-3.648-0.089-5.494-0.271c-18.97-1.865-37.565-2.812-55.272-2.812
	s-36.301,0.947-55.272,2.812c-1.844,0.182-3.679,0.271-5.494,0.271c-28.19,0.002-52.312-21.398-55.129-50.037
	c-2.998-30.484,19.283-57.625,49.766-60.623c22.563-2.219,44.811-3.344,66.128-3.344s43.564,1.125,66.128,3.344
	c30.483,2.998,52.764,30.139,49.766,60.623C369.074,121.992,344.948,143.392,316.762,143.392z"/>
<path style="fill:#1E252B;" d="M455.499,70.498l-0.693-0.347c-29.215-14.613-61.785-25.268-99.486-32.568
	c-9.092-6.999-20.174-11.631-32.41-12.834c-22.82-2.245-45.332-3.383-66.913-3.383s-44.094,1.138-66.913,3.383
	c-12.233,1.203-23.313,5.833-32.405,12.83c-37.711,7.305-70.272,17.961-99.483,32.572l-0.691,0.347
	C33.76,81.869-8.576,103.038,1.533,139.382c4.852,17.448,20.761,28.905,38.049,28.905c1.4,0,2.81-0.097,4.221-0.249l205.453,318.914
	c0.012,0.018,0.026,0.032,0.037,0.051c0.176,0.27,0.368,0.533,0.579,0.782c0.015,0.018,0.031,0.032,0.046,0.049
	c0.182,0.212,0.379,0.415,0.585,0.609c0.081,0.077,0.167,0.15,0.25,0.222c0.144,0.123,0.292,0.243,0.445,0.357
	c0.106,0.079,0.211,0.156,0.319,0.23c0.047,0.031,0.09,0.067,0.138,0.098c0.065,0.042,0.135,0.07,0.199,0.109
	c0.212,0.128,0.426,0.246,0.647,0.354c0.126,0.062,0.253,0.12,0.382,0.174c0.198,0.083,0.398,0.156,0.602,0.222
	c0.144,0.048,0.289,0.098,0.434,0.137c0.202,0.055,0.409,0.094,0.614,0.132c0.142,0.027,0.282,0.061,0.424,0.079
	c0.307,0.04,0.617,0.061,0.927,0.065c0.035,0,0.071,0.007,0.106,0.007c0.002,0,0.005-0.001,0.007-0.001
	c0.002,0,0.005,0.001,0.007,0.001c0.035,0,0.07-0.007,0.106-0.007c0.31-0.004,0.62-0.025,0.927-0.065
	c0.142-0.019,0.282-0.052,0.424-0.079c0.205-0.037,0.412-0.077,0.614-0.132c0.147-0.039,0.29-0.089,0.434-0.137
	c0.203-0.067,0.404-0.139,0.602-0.222c0.128-0.055,0.256-0.112,0.382-0.174c0.221-0.108,0.435-0.226,0.647-0.354
	c0.065-0.04,0.135-0.067,0.2-0.109c0.048-0.031,0.091-0.067,0.138-0.098c0.108-0.073,0.213-0.151,0.319-0.23
	c0.154-0.116,0.301-0.234,0.445-0.357c0.083-0.073,0.169-0.145,0.25-0.222c0.206-0.195,0.403-0.397,0.585-0.609
	c0.015-0.017,0.031-0.031,0.046-0.049c0.211-0.249,0.402-0.512,0.579-0.782c0.012-0.019,0.026-0.033,0.037-0.051l205.452-318.914
	c1.413,0.153,2.822,0.249,4.222,0.249c17.285-0.001,33.198-11.459,38.049-28.905C520.575,103.039,478.241,81.87,455.499,70.498z
	 M190.654,40.715c22.3-2.194,44.283-3.306,65.343-3.306c21.059,0,43.042,1.112,65.343,3.306c26.033,2.56,45.129,25.822,42.57,51.854
	c-2.4,24.401-22.668,42.802-47.146,42.802c-1.561,0-3.144-0.078-4.708-0.232c-19.233-1.892-38.094-2.85-56.057-2.85
	s-36.824,0.958-56.059,2.85c-1.559,0.154-3.142,0.232-4.707,0.232c-24.477,0.002-44.745-18.399-47.145-42.802
	C145.525,66.537,164.621,43.275,190.654,40.715z M55.316,148.657c-0.087,0.025-0.172,0.05-0.258,0.078
	c-2.03,0.646-3.188,0.972-3.266,0.995l-5.943,1.655c-12.453,3.458-25.398-3.85-28.86-16.3C10.93,113.299,37.912,97.73,63.678,84.847
	l0.694-0.347c22.561-11.285,47.3-20.113,75.121-26.793c-5.854,10.771-8.663,23.34-7.375,36.433
	c1.445,14.683,7.736,27.731,17.19,37.657c-13.082,1.404-25.852,3.048-38.069,4.911c-9.046,1.376-17.76,2.909-25.892,4.549
	c-6.39,1.278-12.586,2.688-18.933,4.303c-3.768,0.956-6.767,1.834-8.956,2.475C56.668,148.267,55.955,148.477,55.316,148.657z
	 M60.243,163.932c0.536-0.154,1.102-0.319,1.728-0.502c2.185-0.642,4.906-1.438,8.396-2.323c6.083-1.549,12.014-2.897,18.143-4.123
	c7.893-1.591,16.353-3.078,25.148-4.418c8.853-1.35,18.009-2.582,27.365-3.691l88.907,278.455L60.243,163.932z M255.999,456.236
	l-98.705-309.14c1.189-0.12,2.376-0.243,3.57-0.357c2.831-0.274,5.662-0.53,8.491-0.786c7.91,3.518,16.67,5.461,25.875,5.46
	c2.087,0,4.2-0.105,6.279-0.309c18.713-1.841,37.046-2.773,54.486-2.773s35.773,0.933,54.485,2.773
	c2.083,0.204,4.196,0.309,6.28,0.309c9.204,0,17.965-1.943,25.874-5.461c2.831,0.256,5.663,0.513,8.497,0.787
	c1.194,0.114,2.382,0.237,3.571,0.357L255.999,456.236z M282.068,427.331l88.907-278.455c9.356,1.109,18.512,2.341,27.368,3.691
	c8.794,1.34,17.253,2.827,25.158,4.421c6.123,1.226,12.053,2.572,18.138,4.122c3.479,0.882,6.198,1.679,8.382,2.32
	c0.629,0.184,1.197,0.349,1.735,0.504L282.068,427.331z M495.01,135.083c-3.461,12.45-16.405,19.763-28.857,16.3l-5.944-1.653
	c-0.078-0.022-1.235-0.349-3.265-0.996c-0.087-0.027-0.173-0.053-0.26-0.078c-0.642-0.181-1.356-0.39-2.152-0.624
	c-2.31-0.677-5.185-1.519-8.941-2.473c-6.348-1.616-12.544-3.023-18.928-4.3c-8.143-1.643-16.859-3.175-25.902-4.552
	c-12.221-1.863-24.993-3.508-38.078-4.912c9.454-9.926,15.746-22.974,17.19-37.656c1.288-13.093-1.521-25.661-7.375-36.433
	c27.819,6.68,52.564,15.506,75.129,26.793l0.695,0.348C474.088,97.731,501.069,113.3,495.01,135.083z"/>
<g>
</g>
<g>
</g>
<g>
</g>
<g>
</g>
<g>
</g>
<g>
</g>
<g>
</g>
<g>
</g>
<g>
</g>
<g>
</g>
<g>
</g>
<g>
</g>
<g>
</g>
<g>
</g>
<g>
</g>
</svg>
