<?xml version="1.0" encoding="iso-8859-1"?>
<!-- Generator: Adobe Illustrator 19.0.0, SVG Export Plug-In . SVG Version: 6.00 Build 0)  -->
<svg version="1.1" id="Layer_1" xmlns="http://www.w3.org/2000/svg" xmlns:xlink="http://www.w3.org/1999/xlink" x="0px" y="0px"
	 viewBox="0 0 512 512" style="enable-background:new 0 0 512 512;" xml:space="preserve">
<path style="fill:#61B4E4;" d="M329.835,334.544c29.544-42.178,79.829-105.571,79.829-172.902
	C409.664,76.776,340.866,7.977,256,7.977S102.337,76.776,102.337,161.642c0,67.333,50.284,130.723,79.828,172.902H329.835z"/>
<path style="fill:#009BDE;" d="M289.982,334.544c45.123-169.612,68.938-223.359-6.325-324.08c-8.973-1.63-18.214-2.488-27.657-2.488
	s-18.684,0.857-27.657,2.488c-75.267,100.727-51.452,154.464-6.325,324.08H289.982z"/>
<path style="fill:#493728;" d="M198.814,443.472v49.915c0,5.85,4.786,10.636,10.636,10.636h93.1c5.85,0,10.636-4.786,10.636-10.636
	v-49.915H198.814z"/>
<rect x="198.82" y="443.469" style="opacity:0.2;enable-background:new    ;" width="114.369" height="27.034"/>
<path style="fill:#7C6755;" d="M324.656,436.686c0-5.85-4.786-10.636-10.636-10.636H197.98c-5.85,0-10.636,4.786-10.636,10.636
	v5.063c0,5.85,4.786,10.636,10.636,10.636h116.039c5.85,0,10.636-4.786,10.636-10.636V436.686z"/>
<path style="fill:#FFCE00;" d="M161.693,305.647c17.909,25.64,34.262,46.694,39.621,60.862c1.193,3.154,3.632,8.411,10.015,8.411
	h89.343c6.383,0,8.823-5.257,10.015-8.411c5.359-14.167,21.712-35.221,39.621-60.862H161.693z"/>
<path style="fill:#1E252B;" d="M256,0C166.871,0,94.36,72.512,94.36,161.642c0,54.222,30.731,105.534,60.791,148.575l0.001-0.001
	c3.962,5.672,7.813,11.072,11.538,16.294c12.528,17.568,23.348,32.738,27.162,42.823c4.243,11.211,11.845,13.565,17.476,13.565
	h2.659v35.175H197.98c-10.263,0-18.613,8.35-18.613,18.613v5.063c0,7.732,4.742,14.376,11.469,17.182v34.455
	c0,10.263,8.35,18.613,18.613,18.613h93.1c10.263,0,18.613-8.35,18.613-18.613v-34.455c6.727-2.808,11.469-9.45,11.469-17.182
	v-5.063c0-10.263-8.35-18.613-18.613-18.613h-16.007v-35.175h2.659c5.633,0,13.237-2.354,17.476-13.566
	c3.815-10.083,14.635-25.254,27.163-42.822c3.724-5.222,7.575-10.622,11.536-16.293l0.002,0.001
	c30.062-43.043,60.792-94.353,60.792-148.576C417.641,72.512,345.129,0,256,0z M256,15.954c7.88,0,15.614,0.638,23.158,1.847
	c31.635,42.97,44.733,77.169,45.056,117.375c0.332,41.048-12.218,87.362-31.215,157.468l-1.361,5.026h-71.28l-1.365-5.036
	c-18.995-70.102-31.544-116.413-31.212-157.459c0.325-40.204,13.424-74.401,45.058-117.373C240.386,16.592,248.12,15.954,256,15.954
	z M165.863,297.67c-27.863-40.28-55.549-87.603-55.549-136.028c0-63.981,41.458-118.462,98.922-137.989
	c-26.057,39.078-37.093,72.498-37.407,111.393c-0.35,43.233,13.122,92.95,31.768,161.76l0.234,0.865h-37.968V297.67z
	 M305.21,493.387c0,1.441-1.218,2.659-2.659,2.659h-93.1c-1.441,0-2.659-1.218-2.659-2.659v-33.025h98.418V493.387z
	 M314.019,434.027c1.441,0,2.659,1.218,2.659,2.659v5.063c0,1.441-1.218,2.659-2.659,2.659H197.98c-1.441,0-2.659-1.218-2.659-2.659
	v-5.063c0-1.441,1.218-2.659,2.659-2.659H314.019z M229.942,418.073v-35.175h52.117v35.175H229.942z M332.321,317.246
	c-13.716,19.232-24.549,34.422-29.096,46.442c-1.231,3.256-1.964,3.256-2.553,3.256H211.33c-0.589,0-1.321,0-2.554-3.257
	c-4.546-12.019-15.38-27.209-29.095-46.441c-0.854-1.198-1.715-2.405-2.582-3.622h157.806
	C334.036,314.842,333.175,316.048,332.321,317.246z M346.138,297.67h-37.97l0.231-0.853c18.646-68.814,32.118-118.533,31.77-161.77
	c-0.315-38.898-11.35-72.32-37.406-111.395c57.463,19.526,98.924,74.007,98.924,137.989
	C401.687,210.068,374.001,257.391,346.138,297.67z"/>
<g>
</g>
<g>
</g>
<g>
</g>
<g>
</g>
<g>
</g>
<g>
</g>
<g>
</g>
<g>
</g>
<g>
</g>
<g>
</g>
<g>
</g>
<g>
</g>
<g>
</g>
<g>
</g>
<g>
</g>
</svg>
