<?xml version="1.0" encoding="iso-8859-1"?>
<!-- Generator: Adobe Illustrator 19.0.0, SVG Export Plug-In . SVG Version: 6.00 Build 0)  -->
<svg version="1.1" id="Layer_1" xmlns="http://www.w3.org/2000/svg" xmlns:xlink="http://www.w3.org/1999/xlink" x="0px" y="0px"
	 viewBox="0 0 512 512" style="enable-background:new 0 0 512 512;" xml:space="preserve">
<path style="fill:#009BDE;" d="M14.854,374.897c-12.507,12.504-6.175,26.445,6.329,38.95c12.505,12.505,26.449,18.836,38.953,6.331
	l357.47-357.47c12.505-12.506,12.505-32.78,0-45.285c-12.505-12.504-32.778-12.504-45.284,0L14.854,374.897z"/>
<path style="opacity:0.2;enable-background:new    ;" d="M141.575,248.174l45.284,45.283l16.731-16.731l-45.283-45.283
	L141.575,248.174z M233.757,155.992l-16.73,16.73l45.284,45.284l16.73-16.73L233.757,155.992z"/>
<path style="fill:#333E48;" d="M117.039,296.164l21.831,21.83c6.474,6.476,6.474,16.977,0,23.451l-11.729,11.729
	c-1.586,1.586-4.18,1.586-5.766,0l-39.516-39.516c-1.586-1.589-1.589-4.183-0.002-5.768l11.727-11.727
	C100.061,289.687,110.562,289.688,117.039,296.164z"/>
<rect x="80.002" y="318.022" transform="matrix(0.7071 0.7071 -0.7071 0.7071 261.1935 15.3855)" style="fill:#7D868C;" width="64.045" height="9.919"/>
<path style="fill:#009BDE;" d="M91.821,451.864c-12.505,12.504-6.173,26.446,6.331,38.951c12.505,12.506,26.446,18.836,38.951,6.331
	l357.471-357.471c12.507-12.506,12.507-32.78,0-45.285c-12.505-12.503-32.778-12.504-45.284,0.001L91.821,451.864z"/>
<path style="opacity:0.2;enable-background:new    ;" d="M218.543,325.141l45.283,45.283l16.731-16.73l-45.284-45.283
	L218.543,325.141z M310.723,232.96l-16.73,16.73l45.283,45.284l16.731-16.73L310.723,232.96z"/>
<path style="fill:#333E48;" d="M194.005,373.132l21.831,21.83c6.476,6.476,6.476,16.977,0,23.451l-11.727,11.729
	c-1.586,1.586-4.183,1.586-5.768,0l-39.516-39.515c-1.586-1.59-1.586-4.183,0-5.769l11.727-11.727
	C177.031,366.654,187.532,366.655,194.005,373.132z"/>
<rect x="156.983" y="394.998" transform="matrix(0.7071 0.7071 -0.7071 0.7071 338.171 -16.5019)" style="fill:#7D868C;" width="64.045" height="9.918"/>
<path style="fill:#333E48;" d="M443.145,376.201L109.136,42.192c-4.62-4.62-4.62-12.111,0-16.731c4.62-4.62,12.111-4.62,16.73,0
	L459.876,359.47L443.145,376.201z"/>
<rect x="157.481" y="52.564" transform="matrix(-0.7071 0.7071 -0.7071 -0.7071 349.5852 26.467)" style="fill:#FFCE00;" width="23.66" height="66.142"/>
<path style="fill:#7D868C;" d="M462.848,346.886c4.333-4.333,11.361-4.333,15.698,0.001c4.333,4.334,4.333,11.361,0,15.697
	l-32.287,32.287c-4.334,4.334-11.361,4.334-15.696,0c-4.335-4.334-4.335-11.363-0.001-15.698L462.848,346.886z"/>
<path style="fill:#333E48;" d="M384.425,434.921L50.415,100.913c-4.62-4.62-12.11-4.621-16.731-0.001
	c-4.619,4.62-4.619,12.111,0,16.731l334.01,334.009L384.425,434.921z"/>
<rect x="82.03" y="128.015" transform="matrix(0.7071 -0.7071 0.7071 0.7071 -86.4137 113.5505)" style="fill:#FFCE00;" width="23.661" height="66.142"/>
<path style="fill:#7D868C;" d="M355.11,454.624c-4.333,4.333-4.333,11.362,0.001,15.697c4.334,4.334,11.363,4.334,15.697,0
	l32.286-32.286c4.335-4.335,4.335-11.363,0.001-15.698c-4.334-4.334-11.363-4.334-15.698,0L355.11,454.624z"/>
<path style="fill:#1E252B;" d="M500.276,88.688c-15.628-15.627-41.059-15.627-56.691,0.001L322.044,210.232l-20.276-20.277
	L423.311,68.412c15.629-15.63,15.629-41.062-0.001-56.691c-15.628-15.627-41.059-15.627-56.691,0L245.076,133.265L131.57,19.758
	c-3.757-3.759-8.755-5.828-14.069-5.828S107.19,16,103.432,19.758c-7.758,7.758-7.758,20.381,0,28.138l113.506,113.505
	l-47.312,47.314L56.119,95.209c-3.757-3.759-8.755-5.828-14.069-5.828s-10.311,2.069-14.07,5.827
	c-7.758,7.758-7.758,20.381,0,28.138l113.507,113.506l-53.593,53.595c-0.004,0.004-0.011,0.009-0.015,0.013h0.001l-78.73,78.733
	c-9.891,9.89-10.004,20.172-8.356,27.057c1.824,7.623,6.627,15.245,14.684,23.302s15.68,12.86,23.303,14.685
	c1.957,0.469,4.187,0.795,6.607,0.795c6.091,0,13.373-2.07,20.452-9.148l132.339-132.338l20.276,20.276l-53.593,53.595
	c-0.004,0.004-0.011,0.009-0.015,0.013l0.001,0.001l-78.73,78.733c-9.891,9.89-10.004,20.172-8.357,27.057
	c1.824,7.623,6.627,15.245,14.684,23.302c8.057,8.056,15.68,12.86,23.303,14.685c1.957,0.469,4.188,0.795,6.608,0.795
	c6.091,0,13.373-2.07,20.452-9.148l132.339-132.339l76.335,76.334l-2.076,2.075c-3.62,3.62-5.613,8.434-5.613,13.552
	c0,5.119,1.994,9.933,5.614,13.551c3.619,3.62,8.432,5.614,13.552,5.614c5.119,0,9.931-1.994,13.551-5.614l10.441-10.44
	l11.544,11.543c1.574,1.576,3.639,2.363,5.703,2.363s4.129-0.787,5.704-2.363c3.15-3.15,3.15-8.258-0.001-11.408l-11.543-11.543
	l10.441-10.441c7.47-7.473,7.47-19.63-0.001-27.105c-3.62-3.619-8.434-5.613-13.553-5.613s-9.932,1.993-13.552,5.613l-2.075,2.075
	l-76.335-76.334l47.313-47.314l76.336,76.335l-2.076,2.075c-3.62,3.62-5.613,8.434-5.613,13.552c0,5.119,1.995,9.933,5.614,13.551
	c3.619,3.62,8.432,5.614,13.552,5.614c5.119,0,9.931-1.994,13.551-5.614l10.441-10.44l11.544,11.543
	c1.574,1.576,3.639,2.363,5.703,2.363s4.129-0.788,5.704-2.363c3.15-3.15,3.15-8.258-0.001-11.408l-11.543-11.543l10.441-10.44
	c7.47-7.473,7.47-19.63-0.001-27.105c-3.62-3.619-8.434-5.613-13.553-5.613c-5.119,0-9.932,1.994-13.552,5.613l-2.076,2.075
	l-76.334-76.334l121.544-121.544C515.908,129.749,515.908,104.317,500.276,88.688z M378.026,23.129
	c9.34-9.339,24.538-9.34,33.877-0.001c9.341,9.34,9.341,24.536,0,33.877L290.36,178.547l-33.875-33.876L378.026,23.129z
	 M228.347,172.81l33.875,33.876L214.91,254l-33.876-33.876L228.347,172.81z M273.629,218.092l20.277,20.276l-47.313,47.314
	l-20.277-20.276L273.629,218.092z M54.432,414.476c-4.947,4.949-8.955,4.775-11.894,4.072c-4.513-1.081-9.926-4.678-15.651-10.403
	c-5.726-5.726-9.323-11.137-10.403-15.65c-0.703-2.938-0.875-6.944,4.074-11.894l58.415-58.417l33.876,33.875L54.432,414.476z
	 M133.166,335.742l-8.908,8.908l-33.875-33.876l8.93-8.931c1.608-1.594,3.736-2.473,6-2.471c2.275,0,4.414,0.886,6.023,2.495
	l21.831,21.83C136.486,327.019,136.486,332.421,133.166,335.742z M149.5,319.408c-1.185-2.576-2.808-4.998-4.927-7.117
	l-21.831-21.83c-2.091-2.091-4.503-3.734-7.108-4.938l37.262-37.263l33.876,33.876L149.5,319.408z M131.399,491.444
	c-4.948,4.948-8.955,4.775-11.895,4.072c-4.513-1.081-9.926-4.678-15.651-10.403c-5.726-5.726-9.323-11.137-10.403-15.65
	c-0.703-2.938-0.875-6.946,4.074-11.894l58.415-58.418l33.876,33.875L131.399,491.444z M210.132,412.71l-8.908,8.908l-33.875-33.875
	l8.93-8.931c1.608-1.594,3.736-2.473,6-2.471c2.275,0,4.414,0.886,6.023,2.495l21.831,21.83
	C213.452,403.987,213.452,409.389,210.132,412.71z M226.468,396.375c-1.185-2.576-2.808-4.997-4.927-7.117l-21.831-21.83
	c-2.091-2.091-4.503-3.733-7.108-4.938l37.262-37.263l33.876,33.876L226.468,396.375z M393.1,428.039
	c0.772-0.772,1.675-0.887,2.143-0.887c0.47,0,1.372,0.115,2.146,0.888c1.183,1.183,1.183,3.108,0.001,4.29l-32.29,32.287
	c-0.773,0.773-1.676,0.888-2.143,0.888c-0.47,0-1.371-0.115-2.145-0.889c-0.773-0.773-0.888-1.676-0.888-2.145
	c0-0.469,0.115-1.372,0.888-2.146L393.1,428.039z M368.21,430.115l-5.322,5.322L39.388,111.939c-1.468-1.468-1.468-3.857,0-5.324
	c0.959-0.959,2.079-1.102,2.662-1.102c0.582,0,1.701,0.143,2.661,1.102L368.21,430.115z M291.876,330.966L258,297.091l47.313-47.314
	l33.876,33.876L291.876,330.966z M468.552,352.589c0.772-0.772,1.675-0.887,2.143-0.887c0.469,0,1.372,0.115,2.146,0.888
	c1.183,1.183,1.183,3.108,0.001,4.29l-32.288,32.287c-0.773,0.773-1.676,0.888-2.143,0.888c-0.469,0-1.371-0.115-2.145-0.889
	c-0.773-0.773-0.888-1.676-0.888-2.145c0-0.469,0.115-1.372,0.888-2.146L468.552,352.589z M443.661,354.665l-5.322,5.322
	L114.84,36.489c-1.468-1.468-1.468-3.856,0-5.324c0.959-0.959,2.079-1.102,2.662-1.102c0.582,0,1.701,0.143,2.661,1.102
	L443.661,354.665z M488.87,133.972L367.327,255.515l-33.876-33.875l121.541-121.544c9.34-9.338,24.538-9.34,33.877-0.001
	C498.21,109.435,498.21,124.632,488.87,133.972z"/>
<g>
</g>
<g>
</g>
<g>
</g>
<g>
</g>
<g>
</g>
<g>
</g>
<g>
</g>
<g>
</g>
<g>
</g>
<g>
</g>
<g>
</g>
<g>
</g>
<g>
</g>
<g>
</g>
<g>
</g>
</svg>
