<?xml version="1.0" encoding="UTF-8" standalone="no"?>
<!-- Created with Inkscape (http://www.inkscape.org/) -->

<svg
   width="135.4666mm"
   height="132.63995mm"
   viewBox="0 0 135.4666 132.63995"
   version="1.1"
   id="svg3325"
   inkscape:version="1.1.1 (3bf5ae0d25, 2021-09-20)"
   sodipodi:docname="31.svg"
   xmlns:inkscape="http://www.inkscape.org/namespaces/inkscape"
   xmlns:sodipodi="http://sodipodi.sourceforge.net/DTD/sodipodi-0.dtd"
   xmlns="http://www.w3.org/2000/svg"
   xmlns:svg="http://www.w3.org/2000/svg">
  <sodipodi:namedview
     id="namedview3327"
     pagecolor="#505050"
     bordercolor="#ffffff"
     borderopacity="1"
     inkscape:pageshadow="0"
     inkscape:pageopacity="0"
     inkscape:pagecheckerboard="1"
     inkscape:document-units="mm"
     showgrid="false"
     inkscape:zoom="1.4289282"
     inkscape:cx="207.14827"
     inkscape:cy="277.48071"
     inkscape:window-width="1920"
     inkscape:window-height="991"
     inkscape:window-x="-9"
     inkscape:window-y="-9"
     inkscape:window-maximized="1"
     inkscape:current-layer="layer1" />
  <defs
     id="defs3322">
    <clipPath
       clipPathUnits="userSpaceOnUse"
       id="clipPath3878">
      <path
         id="path3880"
         style="fill:#ff0000;fill-opacity:1;fill-rule:nonzero;stroke:none"
         d="m 157.41968,436.55512 c -0.003,0.28805 -0.002,0.57933 -0.006,0.86524 0.15468,0.002 0.3103,0.002 0.46485,0.004 0.0345,4.4e-4 0.069,0.003 0.10351,0.004 -0.0551,-0.28232 -0.10999,-0.56265 -0.16406,-0.8418 -0.12919,-0.01 -0.27516,-0.0218 -0.39844,-0.0312 z m 0.5625,0.87305 c 0.0802,0.41093 0.16453,0.82169 0.24219,1.22461 -0.0265,-0.40764 -0.0548,-0.83131 -0.0801,-1.2207 -0.0541,-8.5e-4 -0.10805,-0.003 -0.16211,-0.004 z m 0.16211,0.004 c 0.013,2e-4 0.026,0.002 0.0391,0.002 -0.0181,-0.10719 -0.0458,-0.27479 -0.0645,-0.38477 0.008,0.12035 0.0175,0.26069 0.0254,0.38282 z m -0.0254,-0.38282 c -0.0148,-0.22848 -0.0129,-0.2201 -0.0273,-0.44336 -0.0164,-0.001 -0.0326,-0.003 -0.0488,-0.004 0.0225,0.13346 0.0545,0.31936 0.0762,0.44726 z" />
    </clipPath>
    <clipPath
       clipPathUnits="userSpaceOnUse"
       id="clipPath4104">
      <path
         id="path4106"
         style="fill:#ff0000;fill-opacity:1;fill-rule:nonzero;stroke:none"
         d="m 29.943117,306.20747 v 49.14843 c 0.0362,0.099 0.0511,0.22929 0.0586,0.36914 2.80725,0.002 5.6144,0.002 8.42188,0.002 4.75428,-1.5e-4 9.50939,1.9e-4 14.26367,0 4.44014,-2.3e-4 8.88017,-4e-5 13.32031,0 3.36506,0 6.73065,-4e-5 10.09571,0 h 5.48828 c 2.10815,-0.29477 4.05104,0.76115 6.05664,1.09375 0.0572,0.01 -0.0346,-0.13981 0.0137,-0.17383 0.28064,-0.18784 0.67166,-0.0811 1.00781,-0.11133 2.92638,-0.26872 5.88385,-0.13992 8.82032,-0.0957 0.46125,-0.0227 1.72043,-0.0172 2.4746,-0.0156 1.685213,0.004 3.369513,0.002 5.054693,0.002 1.72905,3e-5 3.45845,7e-5 5.1875,0 1.62116,-4e-5 3.24212,0 4.86328,0 h 3.48438 c 2.56334,-0.16848 5.0736,0.38313 7.58984,0.79492 0.70863,-0.0512 1.41721,-0.10392 2.12695,-0.13281 0.64441,-0.0287 2.32476,0.008 2.91797,0.0156 0.33183,0.008 0.66724,-0.0235 0.9961,0.0215 1.24612,0.17049 2.49129,0.36679 3.72265,0.62304 0.15789,0.0329 0.31135,0.0824 0.4668,0.125 2.18058,-0.15171 4.37429,-0.0467 6.55859,-0.0371 2.04781,-0.11603 3.9516,0.20113 5.77344,0.84375 0.48254,-0.0456 0.97018,-0.0378 1.45508,-0.0605 3.86744,-0.27047 7.77472,0.40855 11.46875,1.52343 0.61631,0.18603 1.17978,0.5799 1.82031,0.64453 0.43262,0.0436 -0.78019,-0.38732 -1.16992,-0.58007 3.88247,-0.43578 7.80199,-0.37045 11.70313,-0.29297 2.52454,0.0484 5.00223,0.59901 7.50586,0.86718 0.25515,-0.11162 0.56593,-0.0332 0.84765,-0.0547 3.47914,-0.26495 6.97245,-0.10314 10.45703,-0.0918 3.28503,-7.6e-4 2.21406,-0.0539 6.91602,0.38281 1.0958,0.10167 2.19823,0.17097 3.2793,0.37696 1.23599,0.23554 2.5947,0.26669 3.65429,0.94531 0.28004,0.17935 0.5093,0.44614 0.76367,0.66992 0.013,2.9e-4 0.026,0.002 0.0391,0.002 -0.005,0.003 -0.0181,0.008 -0.0254,0.0117 0.008,0.007 0.0155,0.0144 0.0234,0.0215 0.0795,-0.0347 0.15824,-0.0707 0.24219,-0.0898 0.1444,-0.0338 0.29157,-0.0492 0.4375,-0.0488 0.2179,5.4e-4 0.43527,0.0358 0.65039,0.0898 -0.0819,-0.0835 -0.23067,-0.20557 -0.29883,-0.28125 6.08831,0.48 12.22911,0.23776 18.33008,0.14062 1.71281,-0.0272 3.42621,-0.0655 5.13867,-0.10937 0.45391,-0.0117 0.90805,-0.0851 1.36133,-0.0586 1.52436,0.0896 3.04155,0.27251 4.5625,0.4082 0.896,0.15745 1.78136,0.39177 2.6875,0.47265 0.99477,0.0881 1.99739,0.0256 2.9961,0.0332 3.85189,0.0261 6.42704,-0.0233 10.71484,-0.0781 8.5596,-0.1096 3.73028,-0.20714 12.5332,0.22071 11.44762,1.68124 23.01312,1.36701 34.53905,1.1289 3.86065,-0.0996 5.19845,-0.009 7.63282,0.37891 1.13324,0.023 2.26333,0.0993 3.40039,0.17969 0.77015,0.0544 1.53681,0.1531 2.30859,0.17578 1.28497,0.0363 2.57201,-0.002 3.85742,-0.004 2.36323,-0.0737 2.80366,-0.0462 5.03321,-0.25781 0.27276,-0.0257 0.53886,-0.10598 0.8125,-0.1211 0.67093,-0.0397 1.34268,-0.0547 2.01367,-0.0566 1.11831,-0.003 2.23729,0.0323 3.35547,0.0645 0.25254,0.0113 0.50301,0.0314 0.75586,0.0352 0.46877,0.0112 0.93935,0.011 1.4082,0.0117 0.35879,0.004 0.71825,-0.0304 1.07617,-0.004 2.9658,0.21369 1.71147,0.22252 4.25195,0.52148 0.72677,0.0854 1.45705,0.13787 2.18555,0.20703 1.48791,0.12608 2.97759,0.16151 4.46875,0.16406 v -59.96106 z m 96.964843,51.04882 c -0.16497,-0.0204 -0.33357,-0.0112 -0.50195,0.006 0.32178,0.0512 0.6427,0.11086 0.96484,0.1543 -0.15087,-0.093 -0.30494,-0.14061 -0.46289,-0.16016 z m -81.324223,20.16016 c -0.20672,0.17605 -0.40545,0.36331 -0.61523,0.53516 0.2886,-0.17458 0.57206,-0.3583 0.85938,-0.53516 z" />
    </clipPath>
    <clipPath
       clipPathUnits="userSpaceOnUse"
       id="clipPath4136">
      <path
         id="path4138"
         style="fill:#ff0000;fill-opacity:1;fill-rule:nonzero;stroke:none"
         d="m 146.26734,358.06489 c 0.82899,0.1475 1.64661,0.33557 2.43945,0.61523 0.48254,-0.0456 0.97018,-0.0378 1.45508,-0.0605 3.86744,-0.27047 7.77472,0.40855 11.46875,1.52343 0.61631,0.18603 1.17978,0.5799 1.82031,0.64453 0.43262,0.0436 -0.78019,-0.38732 -1.16992,-0.58007 3.88247,-0.43578 7.80199,-0.37045 11.70313,-0.29297 2.52454,0.0484 5.00223,0.59902 7.50586,0.86718 0.25514,-0.11161 0.56593,-0.0332 0.84765,-0.0547 3.47914,-0.26495 6.97245,-0.10314 10.45703,-0.0918 3.28503,-7.6e-4 2.21406,-0.0539 6.91602,0.38281 1.0958,0.10167 2.19823,0.17097 3.2793,0.37696 1.23598,0.23554 2.5947,0.26669 3.65429,0.94531 0.28004,0.17935 0.5093,0.44614 0.76367,0.66992 0.013,2.9e-4 0.026,0.002 0.0391,0.002 -0.005,0.003 -0.0181,0.008 -0.0254,0.0117 0.008,0.007 0.0155,0.0144 0.0234,0.0215 0.0795,-0.0347 0.15824,-0.0707 0.24219,-0.0898 0.1444,-0.0338 0.29157,-0.0492 0.4375,-0.0488 0.22378,5.5e-4 0.44723,0.037 0.66797,0.0938 -0.0777,-0.0795 -0.25127,-0.21284 -0.31641,-0.28516 6.08831,0.48 12.22911,0.23776 18.33008,0.14062 1.71281,-0.0272 3.42621,-0.0655 5.13867,-0.10937 0.45391,-0.0117 0.90805,-0.0851 1.36133,-0.0586 1.52436,0.0896 3.04155,0.27251 4.5625,0.4082 0.896,0.15745 1.78136,0.39177 2.6875,0.47265 0.99477,0.0881 1.99739,0.0256 2.9961,0.0332 3.85188,0.0261 6.42704,-0.0233 10.71484,-0.0781 8.5596,-0.1096 3.73028,-0.20714 12.5332,0.22071 11.44762,1.68124 23.01312,1.36701 34.53905,1.1289 3.86065,-0.0996 5.19845,-0.009 7.63282,0.37891 1.13324,0.023 2.26333,0.0993 3.40039,0.17969 0.77015,0.0544 1.53681,0.1531 2.30859,0.17578 1.28497,0.0363 2.57201,-0.002 3.85742,-0.004 2.36323,-0.0737 2.80366,-0.0462 5.03321,-0.25781 0.27276,-0.0257 0.53886,-0.10598 0.8125,-0.1211 0.67093,-0.0397 1.34268,-0.0547 2.01367,-0.0566 1.11831,-0.003 2.23729,0.0323 3.35547,0.0645 0.25254,0.0113 0.50301,0.0314 0.75586,0.0352 0.46877,0.0112 0.93935,0.011 1.4082,0.0117 0.35879,0.004 0.71825,-0.0303 1.07617,-0.004 2.9658,0.21369 1.71147,0.22252 4.25195,0.52148 0.72677,0.0854 1.45705,0.13787 2.18555,0.20703 2.77448,0.23509 5.55809,0.16771 8.33789,0.125 2.01615,-0.0703 3.97412,0.44222 5.94922,0.7461 0.67582,0.0794 1.35541,0.13395 2.03516,0.16796 0.0979,0.005 0.38638,-0.0302 0.29492,0.004 -0.18996,0.0737 -0.8049,0.13035 -0.60156,0.11523 0.37356,-0.0249 0.74213,-0.1005 1.11328,-0.15039 0.7107,-0.0147 0.61454,-0.0358 1.46289,0.0859 0.18742,0.0268 0.3688,0.0906 0.55664,0.11328 0.44715,0.0565 0.92709,0.0171 1.375,-0.002 0.61213,-0.0529 1.22834,-0.035 1.8418,-0.0312 0.23569,0.004 0.47194,-0.0113 0.70703,0.008 0.26298,0.0204 0.52203,0.0716 0.7832,0.10938 0.18365,0.0627 0.3671,0.12671 0.55078,0.18945 -0.0665,-0.0903 -0.0772,-0.065 0.0312,-0.0801 0.67251,-0.0949 1.18532,0.0209 1.55078,0.2461 1.03096,-0.0288 2.06385,-0.0483 3.09375,-0.0723 2.13653,0.0125 4.27363,0.0355 6.41016,0.0469 0.59928,0.004 1.21528,-0.14088 1.79687,0.004 1.7663,0.43908 3.52154,0.92188 5.28125,1.38672 0.0573,-0.11656 0.27616,-0.034 0.7793,0.0801 0.005,-0.0292 0.0146,-0.058 0.0371,-0.0859 0.46243,-0.57426 1.46095,0.20881 2.19531,0.27344 0.34069,0.0302 1.36668,-0.011 1.02539,0.0117 -1.66623,0.10447 -2.6604,-0.0638 -3.25781,-0.19922 -0.0879,0.48115 2.012,1.10468 1.42578,1.18945 -0.74955,0.10847 -1.28795,-0.79818 -1.93164,-1.19726 -0.0912,-0.024 -0.18229,-0.0482 -0.27344,-0.0723 -0.13697,0.27852 0.57948,1.7582 0.22266,6.89648 1.41842,-0.044 2.91618,-0.0615 4.79102,-0.0625 3.28924,-8.25757 6.03333,-14.47384 4.37109,-5.29687 -0.31898,1.76104 -0.54539,3.54457 -0.79688,5.32227 3.89549,0.024 7.79013,0.0778 11.6836,0.10546 0.35507,-2.96981 0.75342,-6.38135 0.87304,-10.16992 -0.15684,0.045 -0.31406,0.0891 -0.4707,0.13477 -0.33638,0.1407 -0.66314,0.26107 -0.93945,0.28906 -0.3001,0.0302 0.57686,-0.17876 0.86523,-0.26758 0.0247,-0.007 0.0495,-0.0143 0.0742,-0.0215 0.16091,-0.0673 0.31975,-0.13378 0.48047,-0.20313 0.0434,-0.24789 0.29581,-0.30338 0.62109,-0.29687 3.41023,-1.79172 7.03026,-3.04762 10.67774,-4.23047 1.10499,-0.54463 2.24027,-1.07081 3.08203,-1.35156 1.67641,-0.55917 3.14092,-0.9238 4.58008,-1.18555 0.55851,-0.19626 1.15524,-0.41139 1.7207,-0.61328 z m 256.88866,7.67773 c -0.004,0.0201 -0.009,0.0379 -0.01,0.0606 -2e-5,0.003 9e-5,0.005 0,0.008 0.0812,-0.0233 0.16285,-0.0452 0.24415,-0.0684 -0.0528,-0.003 -0.11368,-0.002 -0.15625,-0.01 0.0745,-0.0407 0.14995,-0.079 0.2246,-0.11914 -0.0984,0.0396 -0.20135,0.0852 -0.30273,0.1289 z m 1.18555,-0.35351 c -0.12015,-0.005 -0.25841,0.0187 -0.40625,0.0586 0.11606,0.008 0.24055,0.0226 0.36328,0.0352 0.0718,-0.0203 0.14308,-0.0421 0.21484,-0.0625 -0.0529,-0.0183 -0.10927,-0.0288 -0.17187,-0.0312 z M 45.583737,377.41645 c -0.20671,0.17605 -0.40545,0.36331 -0.61523,0.53516 0.2886,-0.17458 0.57206,-0.3583 0.85938,-0.53516 z m 111.835943,59.19336 c -0.003,0.26974 -0.002,0.54271 -0.006,0.81055 0.15468,0.002 0.3103,0.002 0.46485,0.004 0.0345,4.4e-4 0.069,0.003 0.10351,0.004 -0.0518,-0.2653 -0.10347,-0.52861 -0.15429,-0.79102 -0.12762,-0.01 -0.2863,-0.0179 -0.40821,-0.0273 z m 0.5625,0.81836 c 0.0802,0.41093 0.16453,0.82169 0.24219,1.22461 -0.0265,-0.40764 -0.0548,-0.83131 -0.0801,-1.2207 -0.0541,-8.5e-4 -0.10805,-0.003 -0.16211,-0.004 z m 0.16211,0.004 c 0.013,2e-4 0.026,0.002 0.0391,0.002 -0.0181,-0.10719 -0.0457,-0.27479 -0.0645,-0.38477 0.008,0.12035 0.0175,0.26069 0.0254,0.38282 z m -0.0254,-0.38282 c -0.0132,-0.20435 -0.0124,-0.19631 -0.0254,-0.39648 -0.0132,-0.001 -0.0279,-4.9e-4 -0.041,-0.002 0.02,0.11829 0.0471,0.28456 0.0664,0.39843 z m 116.78906,46.76563 c -0.24303,-0.0373 -0.44625,0.079 -0.63867,0.24023 0.31138,-0.006 0.62227,-0.0221 0.9336,-0.0293 -0.0936,-0.0522 -0.21124,-0.19808 -0.29493,-0.21094 z m -63.95507,5.03711 c -0.0455,2.90104 -0.1427,5.8029 -0.38868,8.69336 0.0302,0.53381 0.0627,1.0675 0.0899,1.60156 0.22817,-3.4305 0.39426,-6.86144 0.45312,-10.29297 -0.0514,-10e-4 -0.10287,1.7e-4 -0.15429,-0.002 z M 8.0915463,490.84037 v 8.46484 h 6.2187497 c -0.11312,-0.96565 -0.4783,-2.19529 -1.41797,-4.02734 -0.435,-0.84811 -0.86974,-1.69662 -1.30469,-2.54492 -1.32047,-0.57283 -2.4835197,-1.20911 -3.4960897,-1.89258 z" />
    </clipPath>
    <clipPath
       clipPathUnits="userSpaceOnUse"
       id="clipPath4170">
      <path
         id="path4172"
         style="fill:#ff0000;fill-opacity:1;fill-rule:nonzero;stroke:none"
         d="M -2.4377953e-4,4.6039559 V 355.99067 C 0.79315623,355.91727 1.5863362,355.84193 2.3806163,355.77387 c 0.68384,-0.0586 2.65259,-0.24338 3.60742,-0.2207 1.6397,0.0404 3.25189,0.20558 4.8925797,0.2207 2.85291,-0.0156 5.70577,-0.0169 8.55859,-0.0273 -0.027,-0.0809 -0.0305,-0.0882 -0.0625,-0.18945 -0.27354,-0.13894 -0.57323,-0.32217 -0.74414,-0.41993 l 0.002,-0.006 c -1.19624,-0.68358 0.32631,-1.371 1.17968,-1.74023 -0.36125,-0.0821 -0.58647,-0.16823 -0.0527,-0.23438 0.86718,-0.1073 0.59411,2.1e-4 0.0527,0.23438 0.42031,0.0955 1.02659,0.18544 0.85157,0.23828 -0.12348,0.0374 -0.43631,-0.21078 -0.375,-0.0977 0.20246,0.37475 0.52673,0.6722 0.79882,1.00196 -0.003,-0.1321 0.0155,-0.29038 0.0566,-0.50977 0.34278,-0.29374 0.63418,-0.6624 1.0293,-0.88086 0.0396,-0.0222 0.0827,-0.0317 0.126961,-0.0332 0.0107,-0.16112 0.13586,-0.28003 0.46874,-0.31055 0.0809,-0.14319 0.16067,-0.25575 0.20704,-0.29882 0.23776,-0.22149 0.62377,-0.18198 0.93554,-0.27344 0.11067,-0.0437 0.16324,-0.0696 0.17578,-0.082 0.0777,-0.012 0.15426,-0.0221 0.23243,-0.0254 0.13986,-0.006 0.29023,0.003 0.48437,0.0312 0.69307,-0.068 0.78745,0.10536 1.39063,1.08007 0.002,-0.0247 0.004,-0.0495 0.006,-0.0742 -0.0315,-0.065 -0.15179,-0.23915 -0.0937,-0.19531 0.16948,0.12851 0.60238,0.81417 0.63867,0.99219 0.0518,0.25508 0.0167,0.52122 0.0254,0.78125 -0.008,0.0241 -0.0325,0.0954 -0.0586,0.16992 0.69497,0.0802 1.2571,0.27185 0.89454,0.67383 0.0787,0.0462 0.15562,0.0953 0.23242,0.14453 0.33074,6.7e-4 0.6615,-4.6e-4 0.99218,0 1.00118,-0.90566 1.13957,-0.526 1.16797,0.002 2.80725,0.002 5.6144,0.003 8.42188,0.002 4.75428,-1.5e-4 9.50939,1.9e-4 14.26367,0 4.44014,-2.3e-4 8.88017,-4e-5 13.32031,0 3.36506,0 6.73065,-4e-5 10.09571,0 h 5.48828 c 2.10815,-0.29477 4.05104,0.76115 6.05664,1.09375 0.0572,0.01 -0.0346,-0.13981 0.0137,-0.17383 0.28064,-0.18784 0.67166,-0.0811 1.00781,-0.11133 2.92638,-0.26872 5.88385,-0.13992 8.82032,-0.0957 0.46122,-0.0227 1.72043,-0.0172 2.4746,-0.0156 1.685243,0.004 3.369513,0.002 5.054693,0.002 1.72905,3e-5 3.45845,7e-5 5.1875,0 1.62116,-4e-5 3.24212,0 4.86328,0 h 3.48438 c 2.56334,-0.16848 5.0736,0.38313 7.58984,0.79492 0.70863,-0.0512 1.41724,-0.10392 2.12695,-0.13281 0.64441,-0.0287 2.32476,0.008 2.91797,0.0156 0.33183,0.008 0.66724,-0.0235 0.9961,0.0215 1.24612,0.17046 2.49129,0.36679 3.72265,0.62304 0.15789,0.0329 0.31135,0.0824 0.4668,0.125 2.18058,-0.15171 4.37429,-0.0467 6.55859,-0.0371 2.04781,-0.11603 3.9516,0.20113 5.77344,0.84375 0.48254,-0.0456 0.97018,-0.0378 1.45508,-0.0605 3.86744,-0.27047 7.77472,0.40855 11.46875,1.52343 0.61631,0.18603 1.17978,0.5799 1.82031,0.64453 0.43262,0.0436 -0.78019,-0.38732 -1.16992,-0.58007 3.88247,-0.43578 7.80199,-0.37045 11.70313,-0.29297 2.52454,0.0484 5.00223,0.59904 7.50586,0.86718 0.25512,-0.11159 0.56593,-0.0332 0.84765,-0.0547 3.47914,-0.26495 6.97245,-0.10314 10.45703,-0.0918 3.28503,-7.6e-4 2.21406,-0.0539 6.91602,0.38281 1.0958,0.10167 2.19823,0.17097 3.2793,0.37696 1.23596,0.23554 2.5947,0.26669 3.65429,0.94531 0.27985,0.17923 0.50946,0.44631 0.76367,0.66992 0.013,2.9e-4 0.026,0.002 0.0391,0.002 -0.005,0.003 -0.0181,0.008 -0.0254,0.0117 0.008,0.007 0.0171,0.0141 0.0254,0.0215 0.0789,-0.0345 0.15687,-0.0708 0.24023,-0.0898 0.1444,-0.0338 0.29157,-0.0492 0.4375,-0.0488 0.22378,5.5e-4 0.44723,0.037 0.66797,0.0938 -0.0777,-0.0795 -0.25127,-0.21284 -0.31641,-0.28516 6.08831,0.48 12.22911,0.23776 18.33008,0.14062 1.71281,-0.0272 3.42621,-0.0655 5.13867,-0.10937 0.45391,-0.0117 0.90805,-0.0851 1.36133,-0.0586 1.52436,0.0896 3.04155,0.27251 4.5625,0.4082 0.896,0.15745 1.78136,0.39177 2.6875,0.47265 0.99477,0.0881 1.99739,0.0256 2.9961,0.0332 3.85186,0.0261 6.42704,-0.0233 10.71484,-0.0781 8.5596,-0.1096 3.73028,-0.20714 12.5332,0.22071 11.44762,1.68124 23.01312,1.36701 34.53905,1.1289 3.86065,-0.0996 5.19845,-0.009 7.63282,0.37891 1.13324,0.023 2.26333,0.0993 3.40039,0.17969 0.77015,0.0544 1.53681,0.1531 2.30859,0.17578 1.28497,0.0363 2.57201,-0.002 3.85742,-0.004 2.36323,-0.0737 2.80366,-0.0462 5.03321,-0.25781 0.27276,-0.0257 0.53886,-0.10598 0.8125,-0.1211 0.67093,-0.0397 1.34268,-0.0547 2.01367,-0.0566 1.11831,-0.003 2.23729,0.0323 3.35547,0.0645 0.25254,0.0113 0.50301,0.0314 0.75586,0.0352 0.46877,0.0112 0.93935,0.011 1.4082,0.0117 0.35879,0.004 0.71825,-0.0301 1.07617,-0.004 2.9658,0.21369 1.71147,0.22252 4.25195,0.52148 0.72677,0.0854 1.45705,0.13787 2.18555,0.20703 2.77448,0.23509 5.55809,0.16771 8.33789,0.125 2.01615,-0.0703 3.97412,0.44222 5.94922,0.7461 0.67582,0.0794 1.35541,0.13395 2.03516,0.16796 0.0979,0.005 0.38638,-0.0304 0.29492,0.004 -0.18996,0.0737 -0.8049,0.13035 -0.60156,0.11523 0.37356,-0.0249 0.74213,-0.1005 1.11328,-0.15039 0.7107,-0.0147 0.61454,-0.0358 1.46289,0.0859 0.18742,0.0268 0.3688,0.0906 0.55664,0.11328 0.44715,0.0565 0.92709,0.0172 1.375,-0.002 0.61213,-0.0529 1.22834,-0.035 1.8418,-0.0312 0.23569,0.004 0.47194,-0.0117 0.70703,0.008 0.26298,0.0204 0.52203,0.0716 0.7832,0.10938 0.18365,0.0627 0.3671,0.12671 0.55078,0.18945 -0.0665,-0.0903 -0.0772,-0.065 0.0312,-0.0801 0.67251,-0.0949 1.18532,0.0209 1.55078,0.2461 1.03115,-0.0289 2.06366,-0.0483 3.09375,-0.0723 2.13653,0.0125 4.27363,0.0355 6.41016,0.0469 0.59928,0.004 1.21528,-0.14108 1.79687,0.004 1.7663,0.43908 3.52154,0.92188 5.28125,1.38672 0.0573,-0.11656 0.27616,-0.034 0.7793,0.0801 0.005,-0.0292 0.0146,-0.058 0.0371,-0.0859 0.42368,-0.52614 1.2859,0.0548 1.99414,0.21094 -0.74773,-0.0359 -1.65875,-0.0406 -2.03125,-0.125 -0.0879,0.48115 2.012,1.10468 1.42578,1.18945 -0.74955,0.10847 -1.28795,-0.79818 -1.93164,-1.19726 -0.0912,-0.024 -0.18229,-0.0482 -0.27344,-0.0723 -0.13762,0.27983 0.58361,1.78123 0.21485,6.97852 1.3789,-0.0407 2.95428,-0.1298 4.79492,-0.13086 3.29169,-8.26455 6.03818,-14.49271 4.375,-5.31055 -0.31886,1.76041 -0.54547,3.54325 -0.79688,5.32031 3.89549,0.0215 7.79013,0.07 11.6836,0.0977 0.35477,-2.96748 0.75357,-6.37596 0.87304,-10.16016 -0.15682,0.045 -0.31406,0.0891 -0.4707,0.13477 -0.33638,0.1407 -0.66314,0.26107 -0.93945,0.28906 -0.3001,0.0302 0.57686,-0.17876 0.86523,-0.26758 0.0247,-0.007 0.0495,-0.0143 0.0742,-0.0215 0.16091,-0.0673 0.31975,-0.13378 0.48047,-0.20313 0.0434,-0.24789 0.29581,-0.30338 0.62109,-0.29687 3.41023,-1.79172 7.03026,-3.04762 10.67774,-4.23047 1.10499,-0.54463 2.24027,-1.07081 3.08203,-1.35156 1.67641,-0.55917 3.14092,-0.9238 4.58008,-1.18555 1.24696,-0.43819 2.47798,-0.88187 3.84179,-1.36914 2.79966,-1.23763 5.80339,-1.5233 8.78321,-1.91406 -0.9592,-0.0562 -2.0957,-0.40717 -3.5,-1.2168 -3.25194,-0.22573 -6.28888,-0.88824 -9.4375,-1.85352 -0.86691,-0.26577 -1.6829,-0.69201 -2.56055,-0.91992 -1.008,-0.26192 -2.07314,-0.20113 -3.10937,-0.30469 -0.20213,0.0374 -0.80283,0.0471 -0.60743,0.11133 0.28627,0.093 1.15148,-0.18841 0.9043,-0.0156 -0.32402,0.22488 -0.778,0.1361 -1.16797,0.19922 -0.23459,0.0382 -0.46772,0.11279 -0.70508,0.10547 -5.39281,-0.19253 -4.49715,-0.14499 -8.57617,-0.76563 -0.32055,-0.0349 -0.64039,-0.0704 -0.96094,-0.10547 -0.054,-0.002 -0.1081,-0.003 -0.1621,-0.006 -0.11301,-0.004 -0.44643,-0.0602 -0.33399,-0.0488 0.16569,0.0163 0.33083,0.0366 0.49609,0.0547 0.2807,0.0118 0.56165,0.0188 0.8418,0.002 0.25414,-0.0159 1.01022,-0.10207 0.75586,-0.11718 -7.09498,-0.42839 -4.68699,0.18892 -7.48437,-0.55664 0.28135,0.10987 0.14737,0.19621 -1.24219,0.13867 -4.15174,-0.17174 -4.19565,-0.24733 -7.69141,-0.73633 -1.08389,-0.24661 -2.16806,-0.49343 -3.25195,-0.74023 -0.0957,-0.0313 -0.19003,-0.0664 -0.28516,-0.0996 -0.36103,-0.0156 -0.79746,-0.1204 -1.17773,-0.2461 -0.50365,0.18017 -1.00827,0.35546 -1.51758,0.51953 -0.45022,0.14514 -4.09483,-0.0857 -5.0625,-0.0781 -1.93213,0.0189 -3.86467,0.0193 -5.79687,0.0117 -0.58538,-1.9e-4 -1.17045,0.002 -1.75586,0.002 -0.99697,-3.8e-4 -1.99523,-7e-5 -2.99219,0 h -1.92969 c -5.19651,0.008 -4.51758,-0.19161 -11.4414,-9.23047 -0.93306,-1.21788 -0.80304,-3.38853 0.13867,-4.59961 5.22001,-6.71311 6.27169,-8.11654 9.08007,-8.51172 -0.0153,-2.96496 -0.0891,-5.93543 -0.0449,-8.89453 -0.10307,-0.0194 -0.1972,-0.0447 -0.26367,-0.0898 -9.56175,-6.49138 -11.36916,-5.87258 -10.91992,-12.74414 0.0317,-0.23834 -0.10669,-0.85929 0.0859,-0.7168 0.15798,0.1172 -0.0854,0.42096 0.0137,0.5918 1.63404,2.81817 3.21212,5.68741 5.14648,8.30859 0.72457,0.98182 3.51564,1.11251 6.09571,0.59571 0.0266,-0.38583 0.0572,-0.77122 0.0918,-1.15626 0.006,-1.14883 0.002,-2.29756 -0.0273,-3.44335 0.15295,0.002 0.30603,-4.7e-4 0.45898,0.002 2.2e-4,-0.001 -2.1e-4,-0.003 0,-0.004 0.16147,-0.96786 1.96212,-0.002 2.94336,-0.002 0.24935,-4e-5 0.4987,2e-5 0.74805,0 -1.51342,-1.82617 -6.05747,-4.05046 -15.89258,-6.48047 0.47751,-2.29927 0.87682,-4.34652 1.90625,-6.45508 0.0546,-0.11206 -0.0132,0.24946 0.002,0.37305 0.0635,0.47335 0.21182,1.891 0.23828,1.41406 0.0537,-1.03691 -0.1005,-2.07426 -0.15039,-3.11133 0.21962,-1.67115 0.34525,-3.35748 0.6582,-5.01367 0.14727,-0.77944 1.46116,-4.13782 1.77539,-4.91601 -0.0398,-0.17135 -0.0779,-0.34138 0.0449,-0.42774 0.0571,-0.0401 0.11471,-0.0791 0.17188,-0.11914 0.36879,-0.8319 0.68418,-1.72805 1.3164,-2.37695 0.60334,-0.61927 1.26798,-1.17469 1.94922,-1.71094 0.28017,-0.48007 0.5192,-0.87148 0.94922,-1.58594 -0.081,0.0141 -0.16085,0.0305 -0.24609,0.0332 -0.73693,0.0237 -0.33634,-0.52668 0.38476,-1.23438 0.47577,-1.86992 0.86,-3.76641 1.44922,-5.60351 0.20882,-0.6511 0.63086,-1.21317 0.94531,-1.82032 0.68931,-1.33073 1.32947,-2.41483 1.73633,-3.84765 0.85451,-1.48018 1.8324,-2.89503 2.56445,-4.43946 0.34349,-0.72461 -0.98532,1.2698 -1.38867,1.96289 -0.0116,0.0199 -0.0284,0.0619 -0.041,0.0859 0.18292,-0.49408 0.37633,-0.98368 0.64648,-1.43359 1.76712,-2.94267 2.00131,-2.97578 3.98242,-4.73828 0.28973,-0.17914 0.58202,-0.35417 0.87305,-0.53125 0.32702,-0.34382 0.67222,-0.67596 1.00391,-1.00782 0.5845,-0.5848 1.28858,-1.03351 1.93359,-1.55078 1.01461,-0.58994 2.00404,-1.2272 3.04492,-1.76953 2.95767,-1.54106 6.32469,-2.12839 9.42969,-3.27929 0.73946,-0.27156 1.48348,-0.53175 2.21875,-0.81446 0.49822,-0.19158 1.27644,-1.10173 1.48242,-0.60937 0.24612,0.58783 -1.61507,1.91916 -1.07422,1.58203 0.89182,-0.55571 1.36385,-1.61607 2.1836,-2.27344 2.38272,-1.91078 2.72084,-1.97264 4.74414,-2.83789 5.02076,-2.1577 10.2503,-4.21077 15.79101,-4.1543 0.36938,0.004 0.74111,0.0179 1.11328,0.041 1.44155,0.0816 2.88411,0.1402 4.32422,0.24414 0.20096,0.0147 0.7884,0.0572 0.59375,0.10937 -0.5187,0.1372 -2.10899,-0.0213 -1.60351,0.16016 5.86202,2.10181 10.99589,0.96159 12.53906,7.49024 17.66978,2.3539 16.42867,21.45703 -3.72461,21.45703 h -5.23437 c -0.0128,0.007 -0.0259,0.0177 -0.0352,0.0195 -0.14264,0.0361 -0.28528,0.074 -0.42774,0.11133 -0.38315,0.41643 -0.79315,0.80576 -1.24414,1.15429 -0.66663,0.51522 -1.48531,0.69049 -2.3457,0.7793 -4.05364,4.9068 -1.55569,0.30812 -2.32031,1.73437 -2.61842,2.48074 -3.04281,2.96181 -7.8125,5.00782 -0.71888,0.30837 -1.36788,0.41455 -1.91016,0.44726 -1.21214,0.74192 -1.88414,0.98754 -3.38867,1.42774 -0.1152,0.27381 -0.59345,1.16817 -0.80664,1.52734 -0.11137,0.18759 -0.37323,0.43724 -0.66406,0.69141 -0.39515,0.65241 -0.78315,1.30876 -1.1875,1.95508 -1.29423,1.28613 -1.10611,1.16238 -2.28321,2.15039 -0.0713,0.0598 -0.19971,0.17209 -0.3164,0.27343 -0.54083,0.69494 -1.08057,1.38966 -1.62696,2.08008 -0.92772,0.53926 -1.88295,1.03513 -2.7832,1.61914 -0.27481,0.17821 1.19482,-0.53078 0.91211,-0.36523 -1.1901,0.69736 -2.22852,1.81954 -3.58594,2.06445 -0.066,0.0119 -0.13851,0.0266 -0.20508,0.0391 -0.026,0.0217 -0.0493,0.0465 -0.0781,0.0645 -0.26622,0.16576 -0.53831,0.32157 -0.80859,0.48046 -0.61513,0.68038 -1.24237,1.33985 -1.87696,1.98829 2.35755,0.009 4.71489,-0.0652 7.07227,-0.0664 3.52293,0.27209 6.27188,1.14732 9.4375,2.66016 0.68024,0.32507 1.25184,0.88222 1.9707,1.10937 0.70303,0.22337 1.47516,0.0809 2.20117,0.20899 1.27711,0.22567 2.53146,0.56772 3.79688,0.85156 4.62905,1.19229 9.44465,1.8093 12.55078,6.24609 0.30779,0.43964 0.54562,0.91247 0.74023,1.40625 0.888,0.56817 1.59883,1.02666 1.68164,1.09961 0.71942,0.63256 1.30081,1.56569 1.78907,2.61719 1.01512,0.19153 2.01383,0.43372 2.93359,0.88476 1.76073,0.86348 2.69676,3.51709 4.65625,3.59571 1.82468,0.0732 -3.28699,-1.96704 -4.15039,-3.57617 -0.34896,-0.65016 1.47551,-0.0672 2.21289,-0.0332 1.08166,0.048 2.15746,0.18355 3.23633,0.27539 3.31268,0.67756 6.34565,1.91781 8.84766,4.25586 1.76575,1.65014 2.05011,3.1525 1.83203,2.07813 2.25596,2.12224 2.59888,2.88185 4.73828,6 0.19461,0.51035 0.36175,1.03227 0.58398,1.53125 0.39805,0.89373 0.84522,1.76475 1.30469,2.6289 0.14637,0.24348 0.29307,0.46979 0.43945,0.63282 0.0397,0.0442 -0.12595,-0.0373 -0.15429,-0.0899 -0.0973,-0.17977 -0.18917,-0.36242 -0.28516,-0.54297 -0.68938,-1.14674 -1.38087,-2.8559 -2.10742,-2.12304 -1.36861,1.38046 -2.59595,2.87971 -3.74219,4.44531 -1.29246,2.34227 -2.5555,4.70965 -3.95703,6.96484 1.67474,2.17942 1.45196,2.49405 1.41992,6.74024 1.85946,0.10084 3.6918,0.0597 5.42578,-0.48047 0.65512,-1.76311 1.69335,-4.72416 4.66406,-9.85938 0.15383,-0.2657 0.1291,0.60762 0.11133,0.91407 -0.0601,1.03358 0.10828,2.15454 -0.34375,3.08593 -1.00501,2.07039 -1.76011,4.87683 -3.91406,5.6875 -0.1711,0.0644 -0.34442,0.11794 -0.51758,0.17188 -1.16907,3.14628 -1.13414,2.42469 -8.51562,3.01953 0.63771,0.034 1.79227,0.0108 -0.27539,0.0527 -0.0213,-0.005 -0.076,-0.0168 -0.10352,-0.0234 -0.0136,10e-4 -0.0235,-3e-4 -0.0371,0.002 0.19608,0.0415 0.14964,0.0282 0.12891,0.0215 -0.46162,0.009 -0.008,7.8e-4 -0.96875,0.0215 -0.56674,0.0113 -1.1324,0.0178 -1.69922,0.0254 -0.27961,10e-4 -0.16975,-9.2e-4 -0.375,0 -0.0755,3.87789 -0.7553,7.02932 -2.85156,7.86328 1.00377,-0.15331 2.00201,-0.3347 2.98242,-0.59375 2.67972,-0.70806 5.28372,-1.68117 7.9043,-2.58398 4.00868,-1.38104 8.07863,-2.88434 12.01757,-4.47461 4.40487,-0.63827 6.61338,-0.97075 7.9961,-1.1836 -1.48799,0.266 -2.53616,0.55467 3.48242,0.0195 0.82692,-0.0735 1.63564,-0.29275 2.44336,-0.48437 0.11838,-0.0281 0.23347,-0.065 0.34961,-0.10156 0.7227,-0.45481 1.57589,-1.38653 2.16797,-1.36719 0.15389,0.005 0.29113,0.0744 0.40234,0.23437 0.39264,0.56466 0.72976,1.19709 1.0293,1.875 2.26529,-0.0165 4.29954,0.0233 6.13281,0.10938 -0.176,-0.56579 -0.3314,-1.11079 -0.43555,-1.60156 -0.0739,-0.34836 -2.519,-0.39178 -0.66015,-0.47266 0.29197,-0.065 2.5585,-0.0543 3.87109,-0.043 4.59696,-0.0212 6.781,-0.11714 11.45117,5.64649 0.46096,0.56884 0.72967,1.22552 0.89063,1.92968 1.06164,0.75573 1.68596,1.38619 2.16211,2.45899 0.42826,0.40702 0.57223,0.67188 1.58008,2.14648 3.45318,-0.15503 6.71902,0.35453 10.07226,1.45508 V 4.6039559 Z M 400.22241,282.54536 c 0.45208,-0.74642 0.91481,-1.48599 1.41406,-2.20118 -0.57808,0.16887 -1.22675,0.35289 -2.15234,0.63086 -0.0296,-0.003 -0.0759,-0.003 -0.10743,-0.006 -0.72746,0.94647 -1.46246,1.88685 -2.21289,2.81055 0.54572,-0.007 1.08585,-0.0372 1.61133,-0.14062 0.0609,-0.012 0.83792,-0.56124 1.44727,-1.09375 z m 1.41406,-2.20118 c 0.0153,-0.004 0.0415,-0.0132 0.0566,-0.0176 0.0419,-0.0996 0.0422,-0.12562 -0.0449,-0.002 -0.004,0.006 -0.007,0.0133 -0.0117,0.0195 z m -16.15039,67.92969 c 0.0775,-0.0277 0.15499,-0.0559 0.23242,-0.084 -0.29422,-0.10069 -0.58974,-0.19596 -0.89258,-0.26563 -0.39891,-0.0919 0.0429,0.14559 0.66016,0.34961 z m 0.23242,-0.084 c 0.31598,0.10813 0.62989,0.21993 0.94531,0.33008 0.19041,0.008 0.3649,-0.002 0.48438,-0.0606 0.86296,-0.42203 1.70945,-0.87776 2.55078,-1.3418 -0.58539,0.0791 -1.1717,0.15401 -1.75781,0.22656 -0.73742,0.29055 -1.47795,0.57589 -2.22266,0.84571 z m 17.4375,17.55273 c -0.004,0.0201 -0.009,0.0379 -0.01,0.0606 0,0.003 9e-5,0.005 0,0.008 0.0812,-0.0233 0.16285,-0.0452 0.24415,-0.0684 -0.0528,-0.003 -0.11368,-0.002 -0.15625,-0.01 0.0745,-0.0407 0.14997,-0.079 0.2246,-0.11914 -0.0984,0.0396 -0.20135,0.0852 -0.30273,0.1289 z M 27.609137,355.57856 c -0.22689,-0.13308 -0.46062,-0.25464 -0.70118,-0.35938 -0.0617,-0.0455 -0.12014,-0.0956 -0.18359,-0.13867 0.003,0.0996 10e-4,0.19901 -0.002,0.29883 0.0631,0.0696 0.12311,0.14218 0.17968,0.21875 0.0162,0.0315 0.0401,0.0741 0.0645,0.12109 0.19075,-0.0362 0.38256,-0.0623 0.57617,-0.0742 0.025,-0.0229 0.0469,-0.0448 0.0664,-0.0664 z m -0.88477,-0.49805 c -0.002,-0.0555 -0.005,-0.11064 -0.0117,-0.16601 -0.01,0.0285 -0.0215,0.0544 -0.0312,0.082 0.007,-0.0307 0.0106,-0.0625 0.0137,-0.0937 -0.11505,-0.0129 -0.23327,-0.0219 -0.35156,-0.0293 -9.9e-4,0.002 -0.003,0.004 -0.004,0.006 0.043,-0.002 0.14654,0.0529 0.32618,0.16406 0.0101,0.006 0.0187,0.0109 0.0293,0.0176 0.01,0.006 0.0196,0.0129 0.0293,0.0195 z m -0.38477,-0.20117 c -0.0136,5.4e-4 -0.0208,0.006 -0.0234,0.0176 0.002,0.003 0.004,0.005 0.006,0.008 0.008,-0.008 0.0129,-0.0169 0.0176,-0.0254 z m -0.0234,0.0176 c -0.007,-0.01 -0.014,-0.0188 -0.0215,-0.0273 -0.0387,-0.002 -0.0767,-0.004 -0.11523,-0.006 0.0295,0.026 0.0585,0.052 0.0879,0.0781 0.0185,-0.0104 0.0349,-0.0207 0.0469,-0.0312 -2.5e-4,-0.005 8e-4,-0.01 0.002,-0.0137 z m -0.0215,-0.0273 c 0.0164,9.2e-4 0.0324,0.003 0.0488,0.004 0.0462,-0.10074 -0.12294,-0.22061 -0.35547,-0.32617 0.001,0.004 0.003,0.008 0.004,0.0117 0.009,0.0494 0.0182,0.0991 0.0273,0.14844 0.0713,0.0299 0.14092,0.0636 0.20703,0.10351 0.0234,0.0141 0.0469,0.0342 0.0684,0.0586 z m 0.41797,0.0449 c 0.001,-0.004 2.7e-4,-0.006 0.002,-0.01 -10e-4,-1.5e-4 -0.003,1.5e-4 -0.004,0 4.2e-4,0.003 0.002,0.007 0.002,0.01 z m -3.94141,-2.11524 c -0.0605,0.10713 -0.11998,0.23192 -0.16796,0.36133 0.0276,0.006 0.0553,0.009 0.082,0.0117 0.0105,8e-4 0.0241,0.005 0.0391,0.008 0.0157,0.003 0.0312,0.007 0.0488,0.0117 0.25949,-0.0113 0.0994,-0.073 -0.0332,-0.0195 0.27209,-0.16475 0.40922,-0.26659 0.51171,-0.32227 0.007,-0.0141 0.0131,-0.0287 0.0195,-0.043 -0.20247,-0.0179 -0.36802,-0.0189 -0.5,-0.008 z m -0.16796,0.36133 c -0.10067,-0.0201 -0.20472,-0.054 -0.30078,-0.0508 -0.0103,0.15492 0.0861,0.34932 0.20898,0.54687 -0.0132,-0.15083 0.0287,-0.32598 0.0918,-0.49609 z m 26.79296,-133.38281 c 2.45078,0.19 4.74012,0.49081 7.14844,0.98437 0.59638,0.12208 1.20476,0.21123 1.77735,0.41797 0.47371,0.17107 0.93917,0.3644 1.40234,0.5625 0.21842,0.0561 0.43829,0.10819 0.65625,0.16602 l 2.58203,1.09375 c 0.49211,0.13671 0.98483,0.25866 1.37695,0.40039 1.44587,0.52271 2.9687,0.8825 4.32032,1.61523 0.36013,0.19524 0.68682,0.38407 0.99414,0.56836 1.08513,0.26528 2.21452,0.51351 3.16797,0.72852 1.28929,0.25304 5.24233,0.27948 6.02148,1.04101 0.49967,0.48838 0.94723,1.02468 1.36719,1.58789 0.22832,0.0635 0.43641,0.12985 0.58398,0.19336 1.06381,0.45996 1.97391,1.20362 2.91016,1.89844 0.003,0.05 0.0704,0.19412 0.14648,0.35547 0.2373,0.081 0.43196,0.13689 0.6211,0.19141 l 0.002,0.002 c 2.31197,0.66588 1.37576,-0.36583 3.41602,1.59375 0.0871,0.0537 0.17919,0.1225 0.27929,0.20508 0.69064,0.24009 1.37759,0.48749 2.05469,0.76367 1.7218,0.70231 5.42291,3.75224 6.32422,4.48437 2.63976,2.14428 3.722803,3.31319 5.765623,6.49805 0.6888,1.07384 1.10443,2.29896 1.65625,3.44922 0.88332,2.94746 0.62943,1.78606 0.7461,3.5957 0.0732,0.1155 0.15032,0.23756 0.23047,0.36719 0.0198,-0.0136 0.0408,-0.0259 0.0664,-0.0352 0.38928,-0.14116 0.47104,0.68329 0.68946,1.03516 0.0875,0.1409 0.17172,0.28402 0.25781,0.42578 5.19174,-0.26596 10.88044,4.25632 12.39258,14.3086 0.48488,3.2234 0.25286,1.3861 0.61914,5.52343 -0.27721,1.87983 0.72911,4.55542 -0.83203,5.63868 -2.38186,1.65246 -5.04703,2.82312 -7.81446,3.77148 -0.041,0.15668 -0.0854,0.31282 -0.13086,0.46875 -3.91573,2.8236 -7.87276,5.59142 -11.751953,8.46484 1.21284,-0.21023 2.425853,-0.46867 3.638673,-0.67968 0.53799,-0.34956 1.43563,-0.83242 3.11328,-1.5293 0.65399,-0.27164 -1.11587,0.87247 -1.67383,1.30859 -0.4803,0.06 -0.95933,0.13717 -1.43945,0.22071 -1.33206,0.86549 -0.38927,0.89271 -3.117193,1.18164 -0.26502,0.0264 -0.5324,0.01 -0.79882,0.004 -0.12197,-0.003 -0.46305,0.0401 -0.36524,-0.0332 0.21318,-0.15897 0.4289,-0.31438 0.64258,-0.47266 -1.55363,0.26931 -3.10889,0.45191 -4.66992,0.31446 -0.70338,-0.0619 -1.32339,-0.39045 -1.91211,-0.81055 -3.91107,-0.15306 -5.50691,-2.11042 -9.19727,-5.91016 -0.37861,-0.38982 -0.5866,-0.93356 -0.73242,-1.45703 -0.47123,-1.69174 -0.71628,-3.43964 -1.12109,-5.14844 -0.0281,-0.0125 -0.056,-0.0245 -0.084,-0.0371 0.0118,0.17463 0.0284,0.37912 0.0312,0.48829 0.0793,0.46639 0.17554,0.92955 0.23828,1.39843 0.0688,0.5141 -0.31531,-1.00477 -0.31445,-1.52343 2.1e-4,-0.12843 -0.005,-0.25872 -0.01,-0.38868 -7.52323,-3.44098 -8.64733,-11.09952 -3.3711,-15.85546 -0.098,-1.56157 0.1151,-2.15102 -0.375,-0.26954 -0.87085,-1.66884 -1.87411,-3.25779 -2.88086,-4.8457 -3.14933,-2.08983 -5.91007,-4.72222 -8.84765,-7.09375 -0.33986,-0.26848 -0.67283,-0.54948 -1.01368,-0.8164 -0.0839,-0.0321 -0.18525,-0.0754 -0.25781,-0.0996 -0.0575,-0.0748 -0.24845,-0.27979 -0.17187,-0.22461 0.1456,0.10485 0.28846,0.21352 0.42968,0.32422 1.55546,0.59429 4.88232,2.42027 3.99415,1.3164 -1.97981,-2.45992 -4.9609,-3.94138 -7.42383,-5.92773 -0.3271,-0.10344 -0.65995,-0.20957 -1.03516,-0.33203 -0.94722,-0.30917 -1.9187,-0.59052 -2.7832,-1.08594 -0.38942,-0.22316 -0.77077,-0.46437 -1.14649,-0.71094 -0.97395,-0.3671 -1.79586,-0.69334 -2.44726,-0.95703 -1.78491,-0.44083 -3.58004,-0.75847 -5.4043,-0.85742 -0.8696,0.062 -1.72389,0.0658 -2.61719,0.0156 -0.043,0.003 -0.0858,0.005 -0.1289,0.008 -6.27733,-0.0368 -3.14045,0.098 -1.65625,-11.20117 -1.09016,-4.67758 -1.72561,-9.26366 0.63086,-10.28125 2e-4,-0.0727 0.002,-0.13966 0.002,-0.21289 1.1e-4,-0.1508 0.29797,-0.0134 0.44727,-0.0156 0.2645,-0.003 0.53016,-0.007 0.79492,-0.004 0.0717,7.1e-4 0.13295,0.006 0.20117,0.008 0.41225,-0.0159 0.82309,-0.0255 1.23437,-0.0273 0.53572,-0.10857 0.57487,-0.0835 2.55078,-0.14453 z m 38.77344,13.60547 c -0.0344,-0.012 -0.0691,-0.0233 -0.10351,-0.0352 0.30026,0.28911 0.56421,0.54355 1.00195,0.96485 0.338,0.32509 -0.33357,-0.46374 -0.89844,-0.92969 z m -0.10351,-0.0352 c -0.0528,-0.0508 -0.12666,-0.12274 -0.17578,-0.16992 -0.043,-0.0266 -0.0894,-0.0596 -0.12696,-0.0762 -1.15355,-0.50844 -2.39445,-0.77921 -3.61719,-1.09961 0.009,0.0191 0.0176,0.0388 0.0273,0.0586 1.29755,0.42867 2.60159,0.84095 3.89258,1.28711 z m -3.89258,-1.28711 c -0.28954,-0.0956 -0.58084,-0.18817 -0.86914,-0.28711 0.27789,0.0829 0.56077,0.15482 0.84179,0.22852 -0.12557,-0.2556 -0.22365,-0.4601 -0.29492,-0.61133 -0.66547,-0.22701 -1.56393,-0.58544 -2.71289,-1.09961 1.5741,2.44794 2.87462,5.14266 5.17188,6.85742 -0.89645,-2.51735 -1.66804,-4.13386 -2.13672,-5.08789 z m -3.03516,-1.76953 c -0.29634,-0.46085 -0.60335,-0.91262 -0.92773,-1.34766 -1.1842,-0.32924 -3.11414,-0.60105 -2.36914,-0.22656 1.31457,0.66084 2.37925,1.16358 3.29687,1.57422 z m -19.82617,-7.96875 c 0.26257,0.19301 0.59935,0.3419 0.96289,0.46875 -0.27876,-0.13718 -0.74118,-0.35672 -0.96289,-0.46875 z m -7.67773,20.23828 c 0.47727,0.23555 0.87414,0.36377 1.08398,0.28906 -0.36077,-0.10103 -0.72259,-0.19705 -1.08398,-0.28906 z m 347.207023,5.9707 c -0.15926,-0.0364 -3.72348,1.62586 -1.94922,1.07618 1.49877,-0.76507 2.0111,-1.06203 1.94922,-1.07618 z m -7.76758,3.7129 c -0.0999,0.0824 -0.29341,0.2258 -0.46094,0.35156 0.37778,-0.17726 0.27889,0.0301 0.46094,-0.35156 z m -288.27733,0.93554 c 0.0243,0.26673 0.0537,0.56767 0.0898,0.91211 0.0196,-0.004 0.039,-0.008 0.0586,-0.0117 0.003,-0.0991 0.007,-0.20819 0.01,-0.26757 0.006,-0.12228 -0.0188,-0.26751 -0.0488,-0.41602 -0.0351,-0.0696 -0.0763,-0.15062 -0.10937,-0.2168 z m 270.50194,1.83985 c -0.18183,0.043 -0.82047,0.32539 -0.9707,0.55273 -0.0361,0.0545 -0.0703,0.11084 -0.10547,0.16602 0.35758,-0.22228 0.71752,-0.4401 1.07031,-0.66993 0.0761,-0.0496 0.0643,-0.0632 0.006,-0.0488 z m -277.099603,3.76171 c 0.0342,0.11603 0.0693,0.23165 0.10352,0.34766 0.006,0.009 0.0132,0.0181 0.0195,0.0273 0.009,-0.0173 0.0199,-0.0335 0.0293,-0.0508 -0.035,-0.0877 -0.0703,-0.17649 -0.10351,-0.24023 -0.015,-0.0288 -0.0329,-0.0556 -0.0488,-0.084 z m 329.339833,2.00586 c -2.40256,1.44435 -3.87626,2.4895 -4.94336,3.2793 1.45079,-0.67544 3.06638,-1.55695 3.91602,-2.125 0.43606,-0.29153 0.75076,-0.70278 1.02734,-1.1543 z m -1.38476,1.97266 c -0.0314,-0.006 -0.0959,0.0368 -0.20117,0.13672 -1.21877,1.15687 -2.14362,2.59673 -3.08789,4.01367 0.5719,-0.26527 1.14155,-0.53498 1.70312,-0.81836 0.40399,-0.93227 1.80587,-3.29212 1.58594,-3.33203 z m -317.24218,1.55859 c -0.13101,0.49665 -0.28819,1.00193 -0.46289,1.50977 0.19637,0.0289 0.39221,0.0572 0.58789,0.0879 0.0953,-0.51636 0.0837,-1.03811 -0.041,-1.56055 -0.028,-0.0121 -0.0559,-0.025 -0.084,-0.0371 z m 312.0664,1.45899 c -0.0235,-0.003 -0.0699,0.0397 -0.14454,0.14258 -0.61279,0.84449 -1.11282,1.7689 -1.62304,2.68359 0.15549,-0.0757 0.31245,-0.14838 0.46875,-0.22266 0.6876,-0.76414 1.44441,-2.58389 1.29883,-2.60351 z m -5.625,0.31445 c -0.002,-0.002 -0.01,-10e-4 -0.0234,0.006 -0.0514,0.0167 -0.3178,0.11487 -0.43945,0.1582 0.0326,-9.4e-4 0.0945,-0.005 0.125,-0.006 0.10185,-0.002 0.3516,-0.14732 0.33789,-0.15821 z m -302.22851,0.38672 c 0.2825,0.26572 0.55972,0.52929 0.73828,0.71289 0.009,6e-4 0.0166,0.003 0.0254,0.004 -0.18126,-0.24649 -0.39568,-0.46724 -0.66211,-0.65039 -0.0316,-0.0218 -0.0686,-0.0444 -0.10156,-0.0664 z m 0.76367,0.7168 c 0.01,0.013 0.0199,0.0259 0.0293,0.0391 -6e-5,-0.0119 -0.002,-0.0236 -0.002,-0.0352 -0.009,-0.001 -0.0179,-0.003 -0.0273,-0.004 z m 0.0293,0.0391 c 3e-5,0.006 -5e-5,0.0115 0,0.0176 0.0176,0.0187 0.0321,0.0364 0.0488,0.0547 -0.0161,-0.0241 -0.0321,-0.0487 -0.0488,-0.0723 z m 0,0.0176 c -0.0196,-0.0208 -0.0339,-0.0392 -0.0547,-0.0605 -0.10374,-0.007 -0.2173,0.002 -0.33594,0.0215 0.14592,0.0786 0.28742,0.16359 0.42774,0.25195 -0.0126,-0.0195 -0.0246,-0.0462 -0.0371,-0.0644 -0.002,-0.0572 4.2e-4,-0.0975 0,-0.14844 z m 0.89062,0.58203 c 0.12649,0.31386 0.25929,0.67296 0.39454,1.05859 -0.10141,-0.41203 -0.22619,-0.7768 -0.39454,-1.05859 z m 0.66211,3.70898 c 0.0507,0.64273 0.12115,1.27687 0.3086,1.83399 0.34879,1.03663 0.1356,-0.19137 -0.3086,-1.83399 z m 272.49804,0.42774 c -0.24132,0.0892 -0.47553,0.19058 -0.70508,0.30273 -0.064,0.0803 -0.13026,0.159 -0.19531,0.23828 0.0321,-0.006 0.0739,-0.015 0.0957,-0.0176 0.27946,-0.17535 0.54693,-0.34469 0.80469,-0.52344 z m -295.115223,0.85156 c -0.1738,0.0233 -0.34771,0.0423 -0.52149,0.0625 0.01,0.0655 0.0193,0.13502 0.0293,0.19727 0.17811,-0.0878 0.34365,-0.17159 0.49805,-0.25196 -0.002,-0.003 -0.004,-0.005 -0.006,-0.008 z m 313.724603,0.11328 c -0.0583,-0.0153 -0.14223,0.0206 -0.25586,0.11914 -2.14802,1.86223 -3.95586,4.06091 -5.70899,6.31446 1.14424,-0.0696 2.2912,-0.12395 3.41602,-0.2461 0.0299,-0.039 0.0594,-0.0784 0.0898,-0.11719 -0.0444,0.009 -0.0888,0.0172 -0.13281,0.0273 -0.50795,-0.27686 -0.33864,-0.18712 0.2168,-0.13672 0.58133,-0.72638 1.22382,-1.41916 1.56445,-2.27539 0.38924,-0.97824 1.21828,-3.57874 0.81055,-3.68555 z m -2.375,5.96094 c -0.0288,0.036 -0.0556,0.0732 -0.084,0.10937 0.13484,-0.027 0.26907,-0.0548 0.40039,-0.0937 -0.11643,-0.004 -0.22202,-0.007 -0.3164,-0.0156 z M 91.562277,273.15479 c -0.004,0.003 -0.006,0.005 -0.01,0.008 0.0233,0.0314 0.12459,0.15739 0.17382,0.22071 0.007,-0.003 0.0141,-0.006 0.0215,-0.01 -0.006,-0.009 -0.0115,-0.0149 -0.0176,-0.0234 -0.0574,-0.0671 -0.13906,-0.16309 -0.16797,-0.19531 z m 2.47266,1.59961 c 0.01,0.0458 0.0299,0.13229 0.0391,0.17578 0.005,-0.003 0.0104,-0.005 0.0156,-0.008 -0.005,-0.0338 -0.0101,-0.0679 -0.0156,-0.10156 -0.0128,-0.0223 -0.0262,-0.0442 -0.0391,-0.0664 z m 0.0547,0.16797 c 0.0166,0.10331 0.0327,0.2069 0.0488,0.31055 0.0924,0.44198 0.16891,0.79156 0.22461,0.98437 0.0858,0.11248 0.16695,0.22782 0.23828,0.34766 0.0294,0.0493 0.0329,0.0662 0.0391,0.0859 0.0778,0.0379 0.17583,0.0702 0.31445,0.1289 -0.0813,-0.28095 -0.1488,-0.53932 -0.20703,-0.77539 -0.2076,-0.36693 -0.41527,-0.73413 -0.625,-1.09961 -0.0111,0.006 -0.0221,0.0118 -0.0332,0.0176 z m 0.65821,1.08203 c 0.17898,0.31636 0.35755,0.63269 0.53906,0.94727 0.18686,0.10762 0.41537,0.25933 0.70508,0.49609 -0.28241,-0.62884 -0.64807,-1.3972 -1.10742,-2.32226 -0.0145,-0.02 -0.0284,-0.0406 -0.043,-0.0606 -0.35628,-0.48833 -0.3196,0.0285 -0.0937,0.93945 z m 0.53906,0.94727 c -0.12893,-0.0743 -0.24089,-0.13325 -0.33203,-0.17188 0.18976,0.65568 0.42961,1.39267 0.68555,2.10938 0.009,0.006 0.018,0.0154 0.0273,0.0215 0.34902,0.2269 0.7285,0.41031 1.12891,0.56445 -0.0175,-0.0599 -0.0378,-0.12666 -0.0606,-0.19531 -0.51683,-0.75258 -0.99125,-1.53442 -1.44922,-2.32812 z m -1.14844,-1.71875 c -0.0239,-0.11412 -0.0361,-0.167 -0.0644,-0.30274 -0.0489,0.0253 -0.0976,0.0509 -0.14648,0.0762 0.0609,0.30626 0.13487,0.62913 0.2246,0.95899 0.0449,0.052 0.0921,0.10308 0.13477,0.15625 -0.0499,-0.29538 -0.10208,-0.59057 -0.14844,-0.88867 z m -0.89453,0.12695 c -0.0458,0.0236 -0.0909,0.0486 -0.13672,0.0723 0.68927,1.75232 1.48193,3.56928 1.92774,4.26953 0.118,0.0837 0.23704,0.16773 0.33398,0.24023 0.0335,-0.11533 0.007,-0.40712 -0.0898,-0.9043 -0.40807,-0.57033 -0.65128,-1.26812 -0.82227,-2.02148 -0.50352,-0.6916 -0.95787,-1.31113 -1.21289,-1.65625 z m 0.99805,0.92383 c 0.0509,0.17064 0.10629,0.3388 0.16406,0.50586 -0.0282,-0.13592 -0.0512,-0.27591 -0.0762,-0.41406 -0.0324,-0.0348 -0.0513,-0.0515 -0.0879,-0.0918 z m 270.611323,0.0312 c -0.21148,0.0653 -1.28565,0.85065 -2.22461,1.52539 -0.17394,0.15388 -0.35585,0.2822 -0.54883,0.38476 -0.0715,0.0502 -0.14155,0.0993 -0.20703,0.14454 -0.12896,0.20565 -0.23765,0.40511 -0.28516,0.58007 -0.003,0.0126 -0.005,0.0334 -0.008,0.0469 -10e-4,0.0756 -0.003,0.15101 -0.004,0.22656 1.10597,-0.84172 2.21023,-1.68315 3.15625,-2.69336 0.16465,-0.17581 0.19273,-0.23696 0.1211,-0.21484 z m -3.27735,2.9082 c -0.0141,0.0107 -0.0289,0.0205 -0.043,0.0312 -0.078,0.62833 -0.0444,1.61261 -0.0137,1.98242 0.01,-0.006 0.0195,-0.0131 0.0293,-0.0195 0.006,-0.66499 0.0176,-1.32918 0.0273,-1.99414 z m -0.043,0.0312 c 0.0121,-0.0973 0.0291,-0.18328 0.0469,-0.25781 l 0.006,-0.42578 c -0.0223,0.0148 -0.0631,0.045 -0.084,0.0586 -0.37596,0.5967 -0.61074,0.9628 -0.81054,1.27344 0.27907,-0.21786 0.55977,-0.43378 0.84179,-0.64844 z M 94.527107,277.11172 c 0.17659,0.46093 0.37532,0.88943 0.59961,1.22266 -0.0432,-0.18445 -0.089,-0.37812 -0.14453,-0.59766 -0.204,-0.28392 -0.28339,-0.38879 -0.45508,-0.625 z m 270.947263,0.85742 c -0.13173,0.0888 -0.26138,0.17995 -0.38867,0.27344 -0.18264,0.13418 -0.23999,0.45714 -0.23828,0.82227 0.20624,-0.13295 0.41276,-0.2657 0.61914,-0.39844 0.006,-0.23196 0.006,-0.46486 0.008,-0.69727 z m -269.517573,1.77149 c 0.63956,1.64834 1.25067,2.77902 1.20313,1.43945 -0.60466,-0.79705 -0.88159,-1.15295 -0.97657,-1.28515 -0.035,-0.0232 -0.0795,-0.0494 -0.11328,-0.0723 -0.0389,-0.0263 -0.0761,-0.0544 -0.11328,-0.082 z m 0.38086,0.25195 c 0.12026,0.10327 0.26385,0.21374 0.38281,0.24414 -0.13654,-0.0842 -0.25898,-0.16385 -0.38281,-0.24414 z m 2.875,3.1211 c -0.42915,0.33017 -0.8476,0.65241 -1.32031,1.01757 0.58705,-0.15398 0.93661,-0.31365 1.47656,-0.74804 -0.0526,-0.0896 -0.10479,-0.17927 -0.15625,-0.26953 z m 299.783193,0.61328 c -0.006,-2.2e-4 -0.0181,0.01 -0.0391,0.0352 -0.64538,0.77451 -1.27083,1.5657 -1.89258,2.35938 0.51983,-0.54551 1.0485,-1.08416 1.53125,-1.66211 0.14684,-0.17584 0.44118,-0.73087 0.40039,-0.73242 z m -16.25195,2.69726 c -0.0159,-0.004 -0.21832,0.2592 -0.49805,0.61328 0.0646,-0.009 0.13939,-0.0245 0.20118,-0.0312 0.20946,-0.39437 0.31211,-0.57823 0.29687,-0.58203 z m 5.67188,6.31446 c -0.0213,0.0238 -0.0431,0.0465 -0.0645,0.0703 -0.0235,0.031 0.007,-0.009 -0.0273,0.0371 0.0299,-0.0359 0.12203,-0.14144 0.0918,-0.10742 z m -31,8.06836 c -0.0221,0.002 -0.0443,0.004 -0.0664,0.006 -0.13455,0.0121 0.12853,0.52089 0.11719,0.38671 -0.012,-0.13034 -0.0313,-0.26188 -0.0508,-0.39257 z m 61.92773,3.4414 c -0.2559,-0.15058 1.63271,1.04351 3.43359,2.1875 -0.0252,-0.0362 -0.0533,-0.071 -0.0781,-0.10742 -2.24851,-1.39835 -3.1992,-1.98812 -3.35547,-2.08008 z m 5.30664,4.7168 c 0.12528,0.52871 0.23484,1.06541 0.34375,1.60351 0.0608,0.003 0.12163,0.005 0.18164,0.0176 0.11404,0.0235 0.23117,0.0407 0.3457,0.0625 -0.0405,-0.12507 -0.0808,-0.25616 -0.12109,-0.34961 -0.2028,-0.47054 -0.46425,-0.90897 -0.75,-1.33398 z m -11.76562,22.81445 c -0.19135,0.0575 -0.37747,0.11242 -0.57227,0.17188 0.20507,0.1405 0.44468,0.2802 0.69922,0.33593 -0.0444,-0.16802 -0.0844,-0.33856 -0.12695,-0.50781 z m -46.32422,0.7461 c -0.0201,7.7e-4 -0.01,0.0428 -0.0274,0.0469 10e-4,10e-4 0.003,8.8e-4 0.004,0.002 0.016,-0.0165 0.0345,-0.0323 0.0508,-0.0488 -0.009,3.4e-4 -0.0182,-3.5e-4 -0.0273,0 z m 41.21679,0.90429 c -0.0527,0.0183 -0.10531,0.0363 -0.1582,0.0547 0.0443,0.0981 0.0849,0.18745 0.12891,0.28516 0.14333,0.19747 0.2832,0.39679 0.42383,0.5957 -0.10173,-0.24007 -0.28814,-0.68437 -0.39454,-0.93555 z m 33.03907,0.44922 c 0.71482,0.9336 1.26365,1.62871 1.77734,2.27344 -0.18419,-0.44458 -0.41081,-0.86949 -0.70508,-1.26367 -0.30182,-0.40429 -0.6669,-0.73046 -1.07226,-1.00977 z m 3.02929,4.33984 c -0.18834,0.29942 -0.37824,0.59771 -0.57226,0.89258 0.0561,0.49606 0.0997,0.99786 0.14258,1.5 0.9306,-0.6138 0.88214,-1.01337 0.37695,2.89453 -0.20505,-0.92844 -0.29303,-1.91063 -0.37695,-2.89453 -0.36697,0.24204 -0.87951,0.50971 -1.58985,0.56836 -0.59571,0.79459 -1.22938,1.56103 -1.89843,2.29688 -0.19976,0.29727 -0.39941,0.59503 -0.60352,0.88867 2.00208,-0.0535 4.06739,0.2175 6.10156,0.32812 -0.0255,-0.12841 -0.52732,-3.17068 -1.58008,-6.47461 z m -2.01953,2.96094 c 0.5044,-0.67278 0.98334,-1.36326 1.44727,-2.06836 -0.0286,-0.25274 -0.0694,-0.4996 -0.10742,-0.74804 -0.58014,0.94577 -1.16465,1.88766 -1.75586,2.82422 0.14515,0.006 0.28409,0.003 0.41601,-0.008 z m -30.32226,1.0293 c -0.004,0.002 -0.008,0.004 -0.0117,0.006 0.48668,1.11772 0.52167,1.19241 0.0117,-0.006 z m 62.98242,3.0918 c -0.003,-5.6e-4 -0.0129,-6.8e-4 -0.0332,0.01 -0.31945,0.13416 -0.63209,0.28332 -0.94532,0.43164 0.16154,-0.0557 0.32197,-0.11662 0.48047,-0.17968 0.14326,-0.0572 0.51585,-0.25786 0.49805,-0.26172 z m -76.38867,4.41211 c 0.1393,0.0233 0.29491,0.0578 0.44726,0.0898 -0.0346,-0.009 -0.0307,-0.008 -0.0664,-0.0176 -0.12669,-0.0242 -0.50823,-0.0949 -0.38086,-0.0723 z m 30.48047,0.91992 c 0.25396,0.30172 0.51119,0.60796 0.79492,0.95508 0.0312,0.0381 6.67336,2.92193 3.69336,0.90234 -1.30893,-0.88709 -2.94828,-1.31727 -4.48828,-1.85742 z m 68.94335,0.4414 c -0.0152,-0.006 -0.007,0.0537 0.0293,0.18946 0.0454,0.16874 0.0952,0.33693 0.14649,0.5039 0.0634,0.0429 0.1307,0.0872 0.1914,0.12891 -0.17458,-0.42373 -0.33748,-0.81121 -0.36719,-0.82227 z m -70.05859,0.38868 c 0.68966,0.90273 1.65156,1.61646 2.84766,2.14257 -0.86309,-0.56616 -1.81389,-1.28098 -2.84766,-2.14257 z m 70.35156,0.66992 c 0.0181,0.055 0.0381,0.10921 0.0566,0.16406 0.10995,0.10373 0.1965,0.18539 0.29688,0.2793 -0.0428,-0.11016 -0.0598,-0.14345 -0.0996,-0.24414 -0.0936,-0.0756 -0.17834,-0.14195 -0.25391,-0.19922 z m 0.44922,0.35937 c 0.0116,0.0673 0.0213,0.13508 0.0312,0.20313 0.67244,0.62679 1.1504,1.05892 1.47461,1.3457 -0.28328,-0.45837 -0.96008,-1.09128 -1.50586,-1.54883 z m 0.0742,0.54297 c 0.0263,0.2401 0.0456,0.48437 0.0586,0.73047 0.28009,0.75681 0.55618,1.51436 0.75586,2.29492 0.0534,0.20731 0.12125,0.54114 0.18164,0.88477 0.12436,-0.0168 0.24736,-0.0297 0.3711,-0.0449 -0.42398,-1.32015 -0.93656,-2.73492 -1.36719,-3.86524 z m -475.548823,0.16016 c 0.0714,0.019 0.13948,0.0389 0.0996,0.0195 -0.0292,-0.0152 -0.0648,-0.0178 -0.0996,-0.0195 z m 1.77735,0.0234 c 0.0676,0.0294 0.11371,0.15093 0.17187,0.21876 0.006,-0.0174 0.0128,-0.0345 0.0195,-0.0527 -0.0242,-0.0355 -0.0507,-0.0795 -0.0781,-0.12891 -0.0299,-0.0165 -0.0699,-0.0283 -0.11328,-0.0371 z m 0,0.082 c 0.0111,0.0435 0.0218,0.0844 0.0332,0.12109 0.039,0.0172 0.0761,0.0326 0.11133,0.0469 4.2e-4,-0.002 0.002,-0.004 0.002,-0.006 0.0117,-0.0564 -0.078,-0.11511 -0.14648,-0.16211 z m -1.32032,2.11914 c -0.0182,0.004 -0.0363,0.008 -0.0547,0.0117 -0.0117,0.0687 -0.0244,0.14181 -0.0352,0.2207 0.0326,-0.0867 0.0623,-0.1634 0.0898,-0.23242 z m 3.52344,0.15429 c 0.013,0.0239 0.0254,0.0473 0.0371,0.0703 0.009,0.006 0.0205,0.0111 0.0312,0.0195 0.0266,0.004 0.047,0.008 0.0606,0.0117 -0.0206,-0.0449 -0.0722,-0.0741 -0.11719,-0.0977 -0.004,-0.002 -0.008,-0.002 -0.0117,-0.004 z m 471.710933,1.23047 c 0.005,0.0893 0.0105,0.17904 0.0176,0.26758 0.0462,-0.008 0.0926,-0.0162 0.13867,-0.0234 -0.0508,-0.08 -0.10714,-0.16603 -0.15625,-0.24414 z m -371.57226,0.45117 c -0.16497,-0.0204 -0.33357,-0.0115 -0.50195,0.006 0.32178,0.0512 0.6427,0.11086 0.96484,0.1543 -0.15087,-0.093 -0.30494,-0.14061 -0.46289,-0.16016 z m 277.43359,8.13282 c -0.12015,-0.005 -0.25841,0.0187 -0.40625,0.0586 0.11606,0.008 0.24055,0.0226 0.36328,0.0352 0.0718,-0.0203 0.14308,-0.0421 0.21484,-0.0625 -0.0529,-0.0183 -0.10927,-0.0288 -0.17187,-0.0312 z M 45.581777,377.41634 c -0.20632,0.17568 -0.40394,0.36367 -0.61328,0.53516 0.29442,-0.1781 0.58973,-0.35469 0.88281,-0.53516 z M 157.41967,436.6097 c -0.003,0.26974 -0.002,0.54271 -0.006,0.81055 0.15468,0.002 0.3103,0.002 0.46485,0.004 0.0345,4.4e-4 0.069,0.003 0.10351,0.004 -0.0518,-0.2653 -0.10347,-0.52861 -0.15429,-0.79102 -0.12762,-0.01 -0.2863,-0.0179 -0.40821,-0.0273 z m 0.5625,0.81836 c 0.0802,0.41093 0.16453,0.82169 0.24219,1.22461 -0.0265,-0.40764 -0.0548,-0.83131 -0.0801,-1.2207 -0.0541,-8.5e-4 -0.10805,-0.003 -0.16211,-0.004 z m 0.16211,0.004 c 0.013,2e-4 0.026,0.002 0.0391,0.002 -0.0181,-0.10719 -0.0457,-0.27479 -0.0645,-0.38477 0.008,0.12035 0.0175,0.26069 0.0254,0.38282 z m -0.0254,-0.38282 c -0.0132,-0.20435 -0.0124,-0.19631 -0.0254,-0.39648 -0.0132,-10e-4 -0.0279,-3.9e-4 -0.041,-0.002 0.02,0.11829 0.0471,0.28456 0.0664,0.39843 z m 116.78906,46.76563 c -0.24303,-0.0373 -0.44625,0.079 -0.63867,0.24023 0.31138,-0.006 0.62227,-0.0221 0.9336,-0.0293 -0.0936,-0.0522 -0.21124,-0.19808 -0.29493,-0.21094 z M 1.3669262,484.4926 c -0.36203,-0.004 -0.88018997,0.13993 -1.36718997953,0.25391 V 496.7719 C 8.3475263,500.40203 18.382446,505.98169 12.892316,495.27776 c -0.435,-0.84811 -0.86974,-1.69662 -1.30469,-2.54492 -2.7900297,-1.21033 -4.8810297,-2.70232 -6.3281197,-4.32422 -0.095,-0.0129 -0.15585,-0.0487 -0.25586,-0.0586 -0.5185,0.0419 -1.03793,0.0904 -1.55078,0.0703 -0.50383,-0.0189 1.00974,-0.12278 1.51171,-0.0762 0.0142,0.001 0.025,0.004 0.0391,0.006 0.0694,-0.006 0.13591,0.01 0.20507,0.008 -1.08779,-1.23324 -1.79418,-2.53969 -2.16992,-3.84961 -0.55028,-0.006 -1.1357901,-0.01 -1.6718701,-0.0156 z m 209.4882838,4.35938 c -0.0455,2.9004 -0.0451,5.80353 -0.29102,8.69336 0.0302,0.53381 0.0627,1.0675 0.0899,1.60156 0.22817,-3.4305 0.39426,-6.86144 0.45312,-10.29297 -0.084,-0.002 -0.16799,0.001 -0.25195,-0.002 z m 301.14452,4.41211 c -1.96419,1.12805 -4.43874,1.95401 -7.4707,2.27343 0.40827,0.53324 0.74639,1.11024 0.90234,1.79883 0.0862,0.38054 0.14595,0.72204 0.2168,1.08008 0.88401,-0.14627 1.58304,-0.26209 3.03125,-0.49023 1.10721,-0.17749 2.2154,-0.34784 3.32031,-0.54102 z m -258.8496,12.42187 c 1.29356,0.0818 2.58714,0.15665 3.88086,0.23438 -0.0105,-0.0527 -0.0169,-0.1247 -0.0273,-0.17774 -1.28431,-0.0306 -2.56927,-0.0217 -3.85352,-0.0566 z" />
    </clipPath>
    <clipPath
       clipPathUnits="userSpaceOnUse"
       id="clipPath4539">
      <path
         id="path4541"
         style="fill:#ff0000;fill-opacity:1;fill-rule:nonzero;stroke:none"
         d="M -2.5133859e-4,4.6039559 V 505.92036 H 511.99975 V 4.6039559 Z M 99.61303,263.83833 c 0.51715,0.0521 1.65205,0.36442 7.10156,0.93554 1.21509,1.97972 2.77506,3.78547 3.64454,5.93946 0.38229,0.94726 0.0582,2.04537 -0.0117,3.06445 -0.0412,0.59981 -0.20829,1.18469 -0.32032,1.77539 -0.11042,0.58213 -0.2339,1.13299 -0.36523,1.67187 4.02844,1.09071 8.25622,1.89191 11.00195,4.8379 0.77837,0.83509 -2.31929,11.20739 -3.16015,13.10546 -0.5099,1.15095 -0.74861,3.42978 -1.98828,3.21094 -0.46404,-0.0819 -0.77917,-0.13701 -1.21289,-0.21289 -0.2917,1.03783 -0.56669,2.04418 -0.82618,3.02149 3.23152,1.24121 5.78337,3.96199 8.17578,6.47656 0.007,0.007 0.011,0.0163 0.0176,0.0234 0.60572,-0.5914 0.43211,-0.3863 1.19141,0.53906 2.39775,0.56753 4.7859,1.20979 7.19531,1.67187 0.0528,-0.0174 0.15373,0.008 0.16016,-0.0469 0.0201,-0.17579 0.062,-0.43796 -0.0937,-0.52149 -3.02587,-1.62448 -6.24181,-2.8792 -9.26758,-4.5039 -0.26126,-0.14026 1.72373,-1.96719 0.49609,-0.69141 3.67841,1.74494 7.35676,3.48946 11.03516,5.23438 -0.33085,-1.18824 -0.55566,-2.50905 -0.78906,-4.03125 -0.78882,-0.83437 -1.69063,-1.82451 -2.80664,-3.11133 -0.56903,-0.65613 2.02938,0.11893 2.45312,0.87695 0.005,0.009 0.009,0.0184 0.0137,0.0273 -0.0701,-0.45443 -0.1113,-0.74317 -0.19531,-1.25976 3.38127,-9.28536 1.40132,-10.84609 15.85352,-3.43164 0.72769,0.37331 0.9788,1.16911 1.1289,2.05078 0.40653,-0.41741 0.8044,-0.83956 1.16992,-1.28125 1.45183,-1.75434 2.43486,-2.51669 3.07032,-2.55078 1.84452,-0.099 0.77907,5.91777 -0.17578,11.62304 0.97475,1.22719 2.00121,2.41409 2.91601,3.68555 0.47178,0.65572 0.86308,1.36477 1.27149,2.0625 1.18716,-1.27717 2.45659,-2.50749 3.37109,-3.93945 -0.25583,-0.0979 -0.48559,-0.21957 -0.61133,-0.42188 -0.19642,-0.31604 0.21228,-0.0481 0.69727,0.28907 0.27917,-0.45228 0.52218,-0.92451 0.71484,-1.42579 0.57465,-1.49517 -0.85264,-3.10841 -0.98047,-4.70507 -0.0436,-0.54501 0.50624,0.97054 0.72266,1.47265 0.92813,2.15338 1.22292,3.21047 1.94531,5.42774 0.81487,-0.36497 1.6487,-0.63822 2.51172,-0.82617 9.24134,-7.81224 17.97704,-1.96666 15.29883,6.61328 1.54713,0.31034 3.07834,0.692 4.5664,1.20898 1.19691,0.41579 2.3512,0.94272 3.52735,1.41406 1.13205,0.66703 2.33788,1.16389 3.56836,1.59571 1.57914,0.3117 2.54522,0.5126 4.08007,0.98437 0.23326,-0.0715 0.4648,-0.14899 0.70118,-0.20898 0.71358,-0.18123 1.47172,0.12698 2.18945,0.29101 2.22351,0.50765 4.17678,1.25747 6.18164,2.20703 -0.0212,-0.10855 0.75593,0.1032 1.70899,0.48438 0.1619,0.0435 0.29029,0.0948 0.38476,0.1543 1.15958,0.50156 2.43726,1.2181 2.84766,1.96289 0.0276,0.0501 0.0632,0.12829 0.0918,0.18164 0.0996,-8.3e-4 0.19928,10e-4 0.29883,0 0.38191,-0.004 0.76276,-0.0219 1.14453,-0.0332 0.0884,-0.003 3.80493,-0.11498 3.89258,-0.10742 1.55117,0.11471 3.08338,0.42524 4.63477,0.53711 0.47284,0.034 -0.95144,-0.11943 -1.38868,-0.30273 -1.1995,-0.50268 9.09061,2.27512 3.88282,0.38086 1.45711,0.1689 2.91874,0.30183 4.37109,0.50781 1.19098,0.16891 5.40326,1.04949 6.23242,1.23242 0.0159,0.003 -0.0131,0.0298 -0.0195,0.0449 0.31478,0.0696 0.63052,0.13944 0.94531,0.20899 0.60098,0.0741 1.2066,0.0874 1.81055,0.13086 1.15942,0.0866 4.10746,0.27349 4.78125,0.55468 0.51853,0.21654 1.00007,0.50382 1.47266,0.8086 1.15091,0.20556 2.30781,0.38585 3.44336,0.66211 0.36184,0.0883 1.07427,0.0928 1.01757,0.46094 -0.10563,0.68577 -0.23194,1.36725 -0.37304,2.04687 0.25172,0.006 0.29644,0.007 0.5664,0.0137 3.08325,0.0469 6.1664,0.13307 9.25,0.14063 1.43071,0.003 2.86039,-0.1 4.29102,-0.11133 2.09737,-0.0189 4.19425,-0.0361 6.29102,0.0176 4.16025,0.10628 8.31459,0.65196 12.44335,1.1289 1.33086,0.15409 2.65975,0.3211 3.99218,0.46094 2.12372,0.22288 1.89501,0.05 4.39063,0.42383 0.97863,0.14653 2.18062,-0.10916 2.91797,0.55078 1.45953,1.30627 2.57716,2.26439 3.55664,3.09961 0.33334,0.25669 0.67233,0.53367 0.88476,0.74414 0.50463,-0.0658 1.00788,-0.14091 1.51563,-0.14258 1.45402,-0.005 2.90676,0.11154 4.35742,0.21094 8.07031,0.55204 10.42187,0.91828 19.44141,1.89453 7.32823,1.11757 12.98535,1.89203 20.37304,3.44141 0.77231,0.16199 1.4982,0.49507 2.23438,0.77929 1.16885,0.45135 2.32678,0.93241 3.47851,1.42579 0.0654,0.0283 0.13956,0.0713 0.16602,0.13671 0.0185,0.0431 -0.0357,0.087 -0.0508,0.13086 0.25417,0.0608 0.7066,-0.0715 0.76367,0.1836 0.007,0.0301 0.003,0.053 -0.008,0.0703 1.27298,-0.0302 1.9028,0.10845 2.10351,0.65039 1.9156,0.66524 3.88701,1.70961 4.38477,3.20508 0.15393,0.02 0.61653,0.0806 0.75781,0.0957 0.59453,-0.004 1.32277,-0.0127 1.71875,-0.008 1.89936,0.0234 3.79823,0.10354 5.69336,0.23242 0.89898,0.0611 2.00662,-0.25748 2.68555,0.32813 0.67689,0.0864 1.35163,0.19667 2.02734,0.29296 -0.0691,0.51188 -0.1238,1.02628 -0.1875,1.53907 0.32067,0.35086 0.63377,0.70865 0.94141,1.07226 0.0286,-6.4e-4 0.0573,6.7e-4 0.0859,0 0.56467,0.004 1.12878,-0.004 1.69336,0.008 0.50151,0.01 1.4544,-0.4445 1.50391,0.0547 0.17525,1.76512 0.35888,3.30447 0.54102,4.73633 0.28466,0.35185 0.57209,0.69941 0.86523,1.04297 -0.21948,0.20206 -0.4324,0.41272 -0.64844,0.61914 1.54647,11.36454 2.37771,11.31902 -5.52539,10.875 -2.04098,0.0234 -4.08128,0.0106 -6.12109,-0.043 -3.36392,0.86883 -3.89304,0.88809 -7.45117,1.50195 -1.95973,0.25467 -3.91208,0.5713 -5.87891,0.76368 -0.62872,0.0616 -1.26286,0.009 -1.89453,-0.002 -0.63636,-0.011 -1.30155,-0.25487 -1.9082,-0.0625 -2.06718,0.65568 -3.85661,2.12415 -5.98047,2.5625 -10.09021,2.08267 -19.4621,0.95665 -29.72461,0.57813 -37.58403,-3.05874 -27.28411,-1.81717 -57.91406,-5.96875 -1.56021,0.0462 -3.12092,0.10025 -4.67968,0.18164 -5.2064,-1.67373 -9.90251,1.28099 -14.88282,1.56445 -4.81658,0.2739 -9.64609,0.25784 -14.46874,0.38672 -3.73979,-0.0306 -7.47915,-0.0438 -11.21876,-0.0918 -18.04099,-0.23176 -8.66712,-0.16064 -22.58593,-0.41992 -1.71434,-0.0306 -3.42801,-0.0532 -5.14258,-0.0684 -0.21593,0 -0.86172,0.0555 -0.64844,0.0215 0.29839,-0.0469 0.60292,-0.0416 0.9043,-0.0605 -9.74541,-0.10068 -4.31112,0.01 -10.03906,-0.23633 -1.15223,0.77211 -2.46574,1.27853 -3.69532,1.92383 -4.81193,2.52545 -5.49403,0.92496 -4.66406,-2.16797 -1.1486,0.0182 -2.57788,0.24482 -2.75391,-0.70508 -0.029,-0.15661 -0.0508,-0.31378 -0.0762,-0.4707 -0.34931,-0.15506 -0.83537,-0.45761 -1.36133,-0.80078 -0.038,-0.0126 -0.10313,-0.0326 -0.14648,-0.0469 0.13334,0.0963 0.27038,0.18702 0.39453,0.29493 0.0877,0.0763 -0.22933,-0.0403 -0.33984,-0.0781 -0.47796,-0.15553 -0.95369,-0.31808 -1.42383,-0.49609 -0.0497,-0.0188 -0.0736,-0.0356 -0.14648,-0.0625 -1.1781,0.21325 -2.56589,0.0715 -4.52344,-0.0879 -3.87976,-0.39077 -4.21166,-0.29727 -8.58203,-1.47852 -0.6216,-0.168 -1.27598,-0.35576 -1.77735,-0.75976 -0.14729,-0.11868 0.66647,-0.18532 0.49805,-0.27149 -3.076,-1.57282 -4.14934,-1.77117 -4.7168,-1.92578 -1.13232,0.3506 -2.35105,0.69968 -3.73437,1.04687 -0.97134,0.2438 -1.88985,0.188 -2.75586,-0.0996 -0.0397,-0.009 -0.0811,-0.0254 -0.13086,-0.0508 -0.0343,-0.0124 -0.0675,-0.0279 -0.10156,-0.041 -0.77776,3.84768 -1.70393,8.18996 -2.16211,10.12109 -0.16566,0.69823 0.10177,2.12493 -0.61328,2.06445 -5.16701,-0.43779 -10.11969,-2.26825 -15.17969,-3.40234 -0.0224,-1.19603 0.18778,-2.41899 -0.0664,-3.58789 -0.0658,-0.30236 -1.78083,-4.96577 -2.83203,-7.82031 0.60176,4.76633 1.17839,10.27958 1.89453,18.33594 0.35085,3.94688 0.62953,7.91755 0.47461,11.87695 -0.0771,1.97098 0.70413,5.17364 -1.16601,5.80078 -13.91197,4.66514 -14.48807,2.96931 -16.26563,-3.38672 -1.6783,-0.70554 -3.30725,-1.53318 -4.9414,-2.34765 -4.42581,0.86742 -5.12163,0.85685 -5.17774,-1.97266 -0.27938,-0.0823 -0.0956,-0.57094 -0.008,-0.97656 1.1e-4,-0.0215 -1.3e-4,-0.0525 0,-0.0742 -2.35405,-1.59136 -5.02312,-3.62025 -5.82617,-5.69336 -2.1,-5.42124 -1.42086,-5.49835 -0.85743,-8.54102 0.0223,-0.11943 0.0702,-0.24076 0.0547,-0.36133 -0.0857,-0.66206 -0.23833,-1.31378 -0.35742,-1.9707 -0.10137,-1.09326 -0.50165,-2.19948 -0.30273,-3.2793 0.2558,-1.38872 0.55153,-2.76928 0.86523,-4.14648 -0.65378,0.084 -1.32546,0.13084 -2.02148,0.13086 -3.95724,1.2e-4 -7.020401,-1.73097 -9.900401,-3.86523 -2.26596,1.21121 -3.48703,0.007 -5.56054,-3.40821 -0.22407,-0.36907 -0.33147,-0.79778 -0.5,-1.19531 -0.0207,-0.0488 -0.016,-0.0387 -0.0352,-0.084 -0.54284,1.29668 -1.05705,2.10963 -1.84375,2.43945 0.007,1.26091 -0.0743,2.64668 -1.10742,2.85156 -2.69953,0.53518 -5.32426,-1.39575 -7.98633,-2.09375 -0.203,-0.46814 -0.40642,-0.93612 -0.60937,-1.4043 -2.69336,4.37804 -3.45281,6.24468 -7.46289,2.88672 -0.598,2.07988 -1.30182,4.49613 -1.8418,6.03321 -0.36425,1.03685 -0.75743,2.0634 -1.15039,3.08984 -0.009,0.18934 -0.0104,0.37926 -0.0234,0.56836 -0.0676,0.9815 -0.48795,2.71271 -0.69726,3.61719 -0.22609,0.97693 0.24629,2.70663 -0.73438,2.91601 -0.0824,0.0176 -0.16548,0.0322 -0.24805,0.0488 -0.077,0.27394 -0.16129,0.54559 -0.26172,0.8125 -0.14776,0.39282 -0.0928,-0.10645 -0.002,-0.76367 -4.90893,0.93124 -10.01364,0.27719 -15.01562,0.45508 0.11618,-4.61277 -0.15114,-2.56291 1.23633,-8.11133 0.77436,-3.0968 1.55988,-6.19038 2.39453,-9.27149 1.22323,-4.51552 2.42955,-8.41191 3.56054,-12.59375 -1.09989,0.25072 -1.59724,0.23181 -1.61914,-0.98632 -0.002,-1.9e-4 -0.004,1.9e-4 -0.006,0 -0.14456,-0.0138 -0.004,-0.28846 -0.004,-0.4336 -4e-5,-0.0306 3e-5,-0.0612 0,-0.0918 -0.002,-0.12478 -0.002,-0.20232 -0.006,-0.34374 -0.017,-0.73283 -0.0302,-1.44185 0.006,-2.16407 -10e-6,-0.22259 10e-6,-0.44538 0,-0.66797 -0.34055,-0.78867 -1.01899,-2.02176 -0.8086,-2.89257 0.59661,0.0658 -0.18977,0.0192 -0.35547,-1.17383 -0.0727,-0.52396 -0.22632,-1.08145 -0.3164,-1.62891 -0.81092,-1.03871 -1.1549,-2.01453 -0.32617,-2.45703 -0.49107,-2.10542 -0.6027,-2.74838 -1.14844,-5.56055 -0.25102,-1.29346 -0.94986,-2.57851 -0.75,-3.88086 0.30306,-1.97484 1.46757,-3.71582 2.20117,-5.57421 0.51752,0.04 1.04082,0.0487 1.56445,0.0547 0.10576,-1.52189 0.31492,-3.15413 0.71875,-5.27344 0.50691,-2.66021 2.7566,-6.40027 3.77344,-8.39257 1.34113,-2.43901 0.51934,-1.03571 0.82617,-1.58203 -0.0496,-3.7568 0.19869,-7.52633 0.21094,-11.28516 0.45288,-2.73396 0.20621,-5.68129 1.35938,-8.20117 1.10454,-2.41368 2.53533,-6.39762 5.16796,-6.0586 3.28242,0.42272 5.92741,2.70446 8.42188,5.12696 0.86674,-1.59909 1.88633,0.58297 11.33984,3.42773 3.63129,1.09272 6.18134,2.78607 8.35157,5.02539 0.79836,-0.12599 1.81842,-0.28004 3.36914,-0.60156 0.17375,-0.0128 1.245671,-0.0888 2.458981,-0.15234 -1.27439,-0.59754 0.0418,-1.39319 2.32813,-3.63672 0.22791,-0.21083 0.4563,-0.42131 0.68359,-0.63282 -0.78328,-7.55126 7.02104,-11.11581 13.53125,-4.10937 0.28402,-0.16777 0.5822,-0.33612 0.88086,-0.50391 -1.85595,-1.22544 -3.7874,-2.59564 -5.46094,-3.99218 -0.13808,-0.11523 0.48981,-1.11271 1.09766,-2.11133 0.0266,-0.0702 0.0671,-0.1392 0.12109,-0.20703 0.50299,-0.83301 0.96497,-1.63408 0.87305,-1.83594 0.30424,-0.82825 0.62993,-1.64834 0.91211,-2.48438 0.30475,-0.90293 0.51112,-1.83891 0.84765,-2.73047 0.59588,-1.57856 1.27994,-3.12211 1.94727,-4.67187 0.0311,-0.0722 0.0706,-0.16104 0.14453,-0.1875 3.25028,-1.19029 6.59261,-2.13449 9.79297,-3.45313 0.25317,-0.10466 -0.51769,-0.17283 -0.77734,-0.25976 -0.15163,-0.0218 -0.30375,-0.0402 -0.45508,-0.0644 -0.15621,0.009 -0.3138,0.0152 -0.46875,-0.004 -0.0215,-0.003 -0.0276,-0.0663 -0.006,-0.0645 0.15936,0.0116 0.31672,0.0429 0.47461,0.0684 0.0306,-0.002 0.0613,0.002 0.0918,0 0.57545,-0.0431 1.15275,-0.0851 1.72266,-0.17579 2.97772,-0.47348 2.87738,-0.68299 3.39453,-0.63085 z m -79.541011,74.61523 c 0.0908,0.38935 0.17082,0.73902 0.29492,1.25977 0.036,-0.20057 0.0988,-0.3942 0.19922,-0.57813 0.16501,-0.30231 0.35657,-0.61661 0.57031,-0.92383 -0.47079,0.0249 -0.81831,0.11076 -1.06445,0.24219 z m 0.29492,1.25977 c -0.0683,0.38032 -0.0362,0.78604 0.0312,1.19726 0.11666,0.14944 0.24095,0.30055 0.375,0.45117 -0.0597,-0.21855 -0.16931,-0.65648 -0.39649,-1.60937 -0.004,-0.0164 -0.006,-0.0229 -0.01,-0.0391 z M 153.12475,371.6059 c -0.008,-0.006 -0.0155,-0.0119 -0.0234,-0.0176 0.0643,0.0216 -0.9828,-0.34124 -1.09375,-0.37891 -0.0475,0.0127 -0.10411,0.0122 -0.15234,0.0234 0.46833,0.14022 0.9103,0.25507 1.26953,0.37304 z m -0.0234,-0.0176 c -0.009,-0.003 0.16295,0.0569 0.15039,0.0527 -0.27051,-0.17659 -0.54943,-0.35596 -0.90234,-0.58203 -0.002,8.9e-4 -0.005,9.5e-4 -0.008,0.002 0.25353,0.17541 0.50921,0.3479 0.75976,0.52735 z M 131.2576,303.13126 c 0.12272,0.79601 0.24066,1.56015 0.33985,2.20704 0.32173,0.3403 0.62031,0.64967 0.89453,0.92578 -0.31573,-1.08681 -0.68762,-2.14761 -1.23438,-3.13282 z M 95.2537,270.98869 c -0.0353,-0.0219 -0.29535,0.7078 -0.18555,0.94922 0.006,0.0125 0.0119,0.0246 0.0176,0.0371 0.053,-0.29116 0.15614,-0.85226 0.16797,-0.92773 0.006,-0.0374 0.005,-0.0555 0,-0.0586 z m -16.64844,16.00976 c -0.78572,-0.0187 -1.3128,-0.004 -0.80664,0.14453 0.3964,0.11648 0.81359,0.16431 1.23633,0.18946 0.009,-0.10874 0.0165,-0.21081 0.0254,-0.32032 -0.15222,-0.005 -0.31491,-0.0103 -0.45508,-0.0137 z m 16.2168,0.27735 c -0.17704,0.33911 -0.34151,0.63869 -0.52539,0.96289 0.0249,0.0174 0.0492,0.0396 0.0742,0.0566 -0.14885,0.53915 -0.40894,1.05917 -0.44726,1.61718 -0.0146,0.21279 -0.0197,0.42575 -0.0312,0.63868 0.20993,0.32067 0.40407,0.61924 0.60742,0.93554 0.67559,0.10045 1.11367,0.16899 1.64648,0.25391 0.10445,-0.25996 0.20858,-0.51993 0.31446,-0.7793 -0.54223,-1.4761 -1.09287,-2.69165 -1.63867,-3.68554 z m 1.32421,4.46484 c -0.19096,0.47536 -0.37754,0.95264 -0.56445,1.42969 1.68059,2.64068 2.81516,4.3837 2.2793,2.31445 -0.35135,-1.35676 -0.71397,-2.56388 -1.08203,-3.64648 -0.18643,-0.029 -0.42802,-0.065 -0.63282,-0.0977 z m -0.56445,1.42969 c -0.33914,-0.53288 -0.70648,-1.09943 -1.08203,-1.6836 -0.19536,-0.029 -0.43971,-0.0602 -0.64844,-0.0898 -0.0784,2.04867 -0.0575,4.1026 -0.11718,6.15234 -0.005,0.17327 -0.014,0.34808 -0.0195,0.52149 0.6127,-1.63718 1.22953,-3.2729 1.86719,-4.90039 z m -1.42383,-4.67969 c -0.20512,0.35092 -0.39976,0.66208 -0.56445,0.87891 -0.20178,0.26565 0.62407,-0.55247 0.56445,-0.87891 z m -29.714881,8.97269 c -0.12132,0.0144 -0.29754,0.17433 -0.50195,0.42382 0.0116,0.005 0.0237,0.009 0.0351,0.0137 0.17502,-0.1451 0.37007,-0.27496 0.53516,-0.42774 -0.0202,-0.01 -0.0433,-0.0123 -0.0684,-0.01 z m 55.402341,9.49218 c -0.0647,-0.01 -0.0922,0.29789 -0.12109,0.60352 0.14712,0.0275 0.29444,0.0532 0.44141,0.082 -0.0905,-0.20987 -0.17454,-0.42328 -0.27344,-0.62891 -0.0179,-0.0371 -0.033,-0.0545 -0.0469,-0.0566 z m 40.38086,3.33008 c 0.19829,0.13566 0.3847,0.25748 0.51953,0.32813 0.0452,0.0237 0.0546,0.0281 0.0977,0.0508 -0.1178,-0.18171 -0.35477,-0.28626 -0.61719,-0.37891 z m -105.027341,0.58008 c 0.0553,0.13651 0.10838,0.27384 0.16406,0.41016 0.0354,0.0248 0.0692,0.0501 0.10547,0.0742 0.1272,-0.13927 0.22402,-0.23483 0.36133,-0.39648 -0.21032,-0.0295 -0.42045,-0.0577 -0.63086,-0.0879 z m 139.917971,10.99414 c 0.0202,0.006 0.0404,0.0131 0.0605,0.0195 0.004,-0.002 0.009,-0.002 0.0137,-0.004 -0.0276,-0.007 -0.0478,-0.0101 -0.0742,-0.0156 z m 7.06055,3.92187 c -0.0367,0.001 -0.0388,0.008 0.0156,0.0195 0.2229,0.0483 0.44949,0.0789 0.67578,0.11328 -0.004,-0.002 -0.0137,-0.007 -0.0176,-0.01 -0.14363,-0.0845 -0.56386,-0.12652 -0.67382,-0.12305 z m 40.01171,5.18165 c 0.073,0.0492 0.14813,0.0946 0.22071,0.14453 0.0663,-0.003 0.14884,-0.0127 0.21093,-0.0137 -0.003,-9.9e-4 -0.008,-0.005 -0.0117,-0.006 -0.13694,-0.0546 -0.27703,-0.0928 -0.41993,-0.125 z m 1.97852,1.07617 c -8.1e-4,0.0777 -0.005,0.15848 -0.0176,0.24609 0.24969,0.15679 0.50238,0.30803 0.76367,0.44336 0.47063,0.24375 -0.0537,-0.19671 -0.74609,-0.68945 z m -222.289061,9.44726 c -0.27704,0.0549 -0.54336,0.12235 -0.80274,0.19922 0.25333,0.26341 0.52269,0.52266 0.80274,0.77149 4e-5,-0.24512 -4e-5,-0.76239 0,-0.97071 z m 121.748041,6.66602 c 0.0329,0.15493 0.0134,0.0843 0.0547,0.27539 0.005,0.0227 0.0708,0.0539 0.0625,0.0312 -0.0267,-0.0681 -0.0806,-0.21054 -0.11719,-0.30664 z m 205.14257,3.17187 c -0.0242,0.12059 -0.0547,0.27163 -0.082,0.40235 0.52431,0.0725 0.41617,0.0586 0.83008,0.11718 -0.25123,-0.17309 -0.4782,-0.34254 -0.74805,-0.51953 z m -216.02733,0.45899 c -0.001,0.0352 -0.003,0.0703 -0.004,0.10547 0.27034,0.6008 0.23956,0.40982 0.004,-0.10547 z m 13.59375,0.24804 c -0.0945,0.18073 0.048,0.58602 0.18164,0.87891 0.0254,-0.006 0.0507,-0.0133 0.0762,-0.0195 -0.0909,-0.2849 -0.17618,-0.57157 -0.25781,-0.85938 z m 216.91796,0.73829 c -0.41631,-0.0299 -0.86576,0.0541 -1.18946,0.22461 0.1147,0.002 0.20785,-4.6e-4 0.3086,-0.004 0.53967,-0.0338 1.04192,-0.0547 1.2832,-0.0312 0.1124,0.0109 0.22383,0.0316 0.33594,0.0449 -0.18881,-0.1327 -0.44874,-0.21357 -0.73828,-0.23437 z m -203.32226,8.49609 c 0.17835,1.67896 0.30622,3.36512 0.39258,5.05469 0.24359,-0.56456 0.47965,-1.12077 0.70703,-1.66797 -0.0473,-1.10346 -0.0953,-2.20709 -0.14258,-3.31055 -0.3198,-0.0321 -0.63835,-0.0578 -0.95703,-0.0762 z m -16.64258,1.99023 c -0.11821,0.16614 -0.23258,0.33417 -0.34179,0.50782 -0.65088,1.03487 1.30121,4.70386 1.09961,3.49804 -0.31077,-1.85885 -0.5484,-3.05142 -0.75782,-4.00586 z m 11.07618,6.97852 c 0.007,0.0126 0.0125,0.0264 0.0195,0.0391 -8e-4,-0.0117 -9.6e-4,-0.0236 -0.002,-0.0351 -0.006,-9e-4 -0.0117,-0.003 -0.0176,-0.004 z m 6.13671,1.44336 c 0.009,0.41712 0.0236,0.8353 0.0312,1.25195 0.42817,-0.13662 0.80095,-0.26693 0.83985,-0.27929 -0.0108,-0.2526 -0.0224,-0.50522 -0.0332,-0.75782 -0.27948,-0.0695 -0.55831,-0.14174 -0.83789,-0.21484 z m -3.95117,1.19922 c 0.32199,0.20771 0.65121,0.36637 0.99219,0.47851 0.0337,-0.11716 0.066,-0.23261 0.10351,-0.35351 -0.33181,-0.0365 -0.84052,-0.0949 -1.0957,-0.125 z m 2.19727,0.25195 c 0.003,0.0156 0.005,0.0313 0.008,0.0469 0.0274,0.14049 0.34407,0.12082 0.74023,0.0391 -0.0116,-0.001 -0.0281,-0.005 -0.0391,-0.006 -0.32269,-0.0389 -0.43244,-0.0484 -0.70898,-0.0801 z" />
    </clipPath>
  </defs>
  <g
     inkscape:label="Calque 1"
     inkscape:groupmode="layer"
     id="layer1"
     transform="translate(-33.947865,-83.466223)">
    <g
       id="g3457"
       transform="matrix(0.26458333,0,0,0.26458333,33.947865,82.248093)"
       clip-path="url(#clipPath4539)">
      <path
         style="fill:#7c6755"
         d="m 343.622,377.649 c 1.643,-8.748 -4.17,-17.249 -12.917,-18.893 L 52.423,306.485 c -8.748,-1.643 -17.249,4.17 -18.892,12.919 l -3.309,17.616 c -1.643,8.748 4.17,17.249 12.917,18.892 l 278.282,52.271 c 8.748,1.643 17.249,-4.169 18.892,-12.917 z"
         id="path3386"
         clip-path="url(#clipPath4104)" />
      <path
         style="fill:#61b4e4"
         d="m 298.845,12.709 c 11.166,-0.092 19.544,0.323 30.672,1.254 37.282,3.122 74.267,12.64 107.575,29.881 17.15,8.878 33.38,19.298 47.435,32.634 9.888,9.382 23.42,20.501 18.213,35.855 -4.488,13.235 -18.139,17.024 -30.38,13.032 -24.902,-8.121 -48.956,-17.334 -74.788,-22.279 -32.772,-6.272 -65.406,-8.383 -98.725,-8.48 -33.319,0.098 -65.953,2.21 -98.725,8.48 -25.832,4.945 -49.886,14.158 -74.788,22.279 -12.241,3.992 -25.892,0.203 -30.38,-13.032 -5.208,-15.354 8.325,-26.473 18.213,-35.855 14.056,-13.336 30.285,-23.757 47.435,-32.634 33.307,-17.241 70.292,-26.76 107.574,-29.881 11.125,-0.931 19.504,-1.346 30.669,-1.254 z"
         id="path3388" />
      <path
         style="opacity:0.2;enable-background:new"
         d="m 329.517,13.963 c -11.128,-0.931 -19.505,-1.345 -30.672,-1.254 -11.166,-0.092 -19.544,0.323 -30.672,1.254 -19.339,1.619 -38.593,4.977 -57.301,10.223 l 11.548,75.256 c 25.319,-3.474 50.667,-4.762 76.424,-4.838 25.743,0.076 51.076,1.364 76.381,4.832 L 386.774,24.172 C 368.081,18.935 348.842,15.581 329.517,13.963 Z"
         id="path3390" />
      <path
         style="fill:#ffce00"
         d="m 329.517,13.963 c -11.128,-0.931 -19.505,-1.345 -30.672,-1.254 -11.166,-0.092 -19.544,0.323 -30.672,1.254 -13.946,1.167 -27.85,3.231 -41.537,6.26 l 11.862,77.299 c 19.985,-2.042 40.037,-2.856 60.346,-2.916 20.294,0.06 40.332,0.874 60.303,2.912 L 371.01,20.214 c -13.672,-3.023 -27.562,-5.085 -41.493,-6.251 z"
         id="path3392" />
      <path
         style="fill:#009bde"
         d="m 435.779,499.305 c 33.723,0 61.061,-27.339 61.061,-61.062 0,0 0,-44.846 0,-53.819 0,-8.973 -4.201,-13.833 -6.478,-15.736 -19.236,-16.065 -46.174,-13.907 -63.342,6.47 -19.202,22.789 -50.621,22.789 -69.823,0 -19.201,-22.789 -50.62,-22.789 -69.821,0 -19.201,22.789 -50.62,22.789 -69.822,0 -19.201,-22.789 -50.62,-22.789 -69.821,0 -19.201,22.789 -50.621,22.789 -69.822,0 -17.169,-20.377 -44.107,-22.535 -63.343,-6.47 -2.275,1.902 -6.477,6.762 -6.477,15.736 0,8.972 0,53.819 0,53.819 0,33.723 27.339,61.061 61.062,61.061 z"
         id="path3394"
         clip-path="url(#clipPath4136)" />
      <path
         style="opacity:0.2;enable-background:new"
         d="m 252.467,455.116 c -15.654,0 -30.25,-7.091 -41.1,-19.971 -7.723,-9.165 -17.922,-14.213 -28.722,-14.213 -10.8,0 -20.999,5.048 -28.722,14.214 -2.88,3.416 -7.984,3.853 -11.402,0.973 -3.417,-2.88 -3.854,-7.984 -0.974,-11.402 10.85,-12.878 25.445,-19.969 41.098,-19.969 15.653,0 30.249,7.091 41.098,19.969 7.724,9.167 17.925,14.215 28.724,14.215 10.799,0 20.999,-5.048 28.722,-14.214 10.85,-12.878 25.447,-19.97 41.099,-19.97 15.652,0 30.249,7.091 41.098,19.969 2.88,3.418 2.444,8.522 -0.974,11.402 -3.418,2.88 -8.522,2.444 -11.402,-0.973 -7.723,-9.166 -17.923,-14.214 -28.722,-14.214 -10.8,0 -20.999,5.048 -28.723,14.214 -10.85,12.876 -25.445,19.97 -41.098,19.97 z"
         id="path3396"
         clip-path="url(#clipPath3878)" />
      <path
         style="fill:#1e252b"
         d="m 51.838,241.266 c 18.674,0 33.867,15.193 33.867,33.867 0,4.47 3.623,8.092 8.092,8.092 4.469,0 8.092,-3.622 8.092,-8.092 0,-27.598 -22.453,-50.05 -50.05,-50.05 -4.469,0 -8.092,3.622 -8.092,8.092 0,4.47 3.622,8.091 8.091,8.091 z m 327.264,54.846 c 0,-18.674 15.192,-33.867 33.867,-33.867 4.469,0 8.092,-3.622 8.092,-8.092 0,-4.47 -3.623,-8.092 -8.092,-8.092 -27.598,0 -50.05,22.453 -50.05,50.05 0,4.47 3.623,8.092 8.092,8.092 4.468,0.001 8.091,-3.622 8.091,-8.091 z M 492.226,72.613 C 491.503,71.935 490.79,71.268 490.095,70.61 476.926,58.114 460.805,47.009 440.811,36.66 407.939,19.643 370.72,9.294 330.191,5.9 317.903,4.871 309.544,4.531 298.845,4.617 288.15,4.526 279.789,4.871 267.498,5.899 226.969,9.293 189.752,19.641 156.879,36.658 c -19.995,10.35 -36.116,21.455 -49.284,33.95 -0.695,0.658 -1.408,1.326 -2.131,2.003 -9.831,9.208 -24.686,23.125 -18.176,42.319 4.19,12.358 15.213,20.034 28.769,20.034 1.704,0 3.411,-0.143 5.115,-0.382 L 239.855,321.62 c 1.262,1.989 3.328,3.329 5.66,3.67 0.391,0.057 0.783,0.085 1.173,0.085 1.934,0 3.821,-0.694 5.303,-1.98 L 470.999,133.383 c 3.515,1.03 7.085,1.581 10.636,1.581 13.555,-0.001 24.579,-7.677 28.768,-20.033 6.51,-19.194 -8.346,-33.11 -18.177,-42.318 z M 268.849,22.026 c 10.644,-0.89 18.222,-1.237 27.029,-1.237 0.948,0 1.912,0.004 2.901,0.013 h 0.133 c 10.178,-0.087 18.141,0.24 29.929,1.226 11.293,0.946 22.297,2.473 33.008,4.544 l -9.54,62.163 c -16.607,-1.439 -34.234,-2.163 -53.488,-2.22 -19.244,0.057 -36.871,0.782 -53.483,2.224 L 235.8,26.58 c 10.723,-2.077 21.741,-3.607 33.049,-4.554 z m -152.791,96.757 c -3.875,0 -10.774,-1.175 -13.444,-9.049 -2.94,-8.669 3.6,-15.649 13.913,-25.311 0.749,-0.701 1.488,-1.393 2.206,-2.076 12.05,-11.433 26.961,-21.677 45.585,-31.318 17.294,-8.953 35.902,-15.944 55.648,-20.937 l 9.255,60.31 c -10.501,1.26 -20.657,2.829 -30.623,4.736 -20.677,3.957 -40.397,10.63 -59.469,17.083 -5.336,1.806 -10.854,3.671 -16.306,5.451 -2.259,0.737 -4.535,1.111 -6.765,1.111 z M 248.484,305.014 137.366,129.896 c 2.338,-0.786 4.663,-1.571 6.95,-2.345 19.408,-6.567 37.739,-12.77 57.324,-16.519 29.15,-5.578 60.045,-8.226 97.181,-8.337 37.183,0.11 68.079,2.759 97.228,8.337 19.501,3.733 37.76,9.899 57.074,16.434 z M 495.077,109.735 c -2.67,7.872 -9.57,9.048 -13.444,9.048 -2.229,0 -4.505,-0.373 -6.765,-1.11 -5.453,-1.778 -10.97,-3.644 -16.306,-5.451 -19.071,-6.453 -38.792,-13.126 -59.469,-17.083 -9.978,-1.91 -20.148,-3.48 -30.665,-4.741 l 9.257,-60.316 c 19.76,4.993 38.381,11.989 55.689,20.948 18.625,9.642 33.535,19.886 45.585,31.318 0.72,0.683 1.458,1.373 2.206,2.076 10.311,9.661 16.852,16.641 13.912,25.311 z m 0.472,252.743 c -9.794,-8.179 -21.419,-12.502 -33.618,-12.502 -15.652,0 -30.249,7.091 -41.098,19.969 -7.724,9.166 -17.925,14.214 -28.724,14.214 -10.8,0 -21,-5.048 -28.723,-14.213 -8.526,-10.12 -19.37,-16.647 -31.217,-18.987 l 0.029,-0.156 -278.282,-52.27 C 40.763,296.057 28.05,304.756 25.578,317.91 l -3.309,17.616 c -1.145,6.095 0.085,12.269 3.42,17.497 -5.802,2.103 -11.295,5.271 -16.307,9.457 C 6.562,364.835 0,371.69 0,384.424 v 53.819 c 0,38.131 31.022,69.153 69.153,69.153 h 366.626 c 38.131,0 69.153,-31.022 69.153,-69.153 v -53.819 c 0,-12.734 -6.561,-19.589 -9.383,-21.946 z M 38.174,338.513 41.483,320.897 c 0.823,-4.387 5.061,-7.287 9.446,-6.459 l 241.252,45.315 c -3.965,2.828 -7.658,6.235 -10.994,10.193 -7.723,9.165 -17.922,14.213 -28.722,14.213 -10.8,0 -21,-5.048 -28.723,-14.213 -10.85,-12.879 -25.445,-19.97 -41.099,-19.97 -14.282,0 -27.674,5.921 -38.155,16.739 L 44.63,347.959 c -2.106,-0.395 -3.942,-1.601 -5.169,-3.395 -1.225,-1.795 -1.683,-3.945 -1.287,-6.051 z m 90.641,41.723 c -5,2.566 -10.414,3.923 -15.992,3.923 -9.862,0 -19.218,-4.221 -26.651,-11.932 z m 359.934,58.007 c 0,29.207 -23.762,52.97 -52.97,52.97 H 69.153 c -29.208,0 -52.97,-23.762 -52.97,-52.97 v -53.819 c 0,-6.069 2.735,-8.825 3.572,-9.524 6.848,-5.719 14.885,-8.741 23.246,-8.741 10.8,0 21,5.048 28.723,14.213 10.85,12.878 25.445,19.97 41.099,19.97 15.654,0 30.249,-7.091 41.099,-19.97 7.723,-9.165 17.922,-14.213 28.722,-14.213 10.8,0 20.999,5.048 28.723,14.214 10.85,12.876 25.447,19.969 41.099,19.969 15.652,0 30.249,-7.091 41.099,-19.97 7.723,-9.165 17.922,-14.213 28.722,-14.213 10.8,0 20.999,5.048 28.722,14.214 10.85,12.876 25.447,19.969 41.099,19.969 15.652,0 30.249,-7.091 41.099,-19.97 7.723,-9.165 17.923,-14.213 28.723,-14.213 8.36,0 16.398,3.022 23.245,8.74 0.837,0.7 3.572,3.457 3.572,9.525 v 53.819 z m -123.46,-92.939 c 1.579,1.579 3.651,2.369 5.721,2.369 2.07,0 4.142,-0.79 5.721,-2.369 13.206,-13.203 34.691,-13.204 47.895,0 3.16,3.159 8.284,3.159 11.443,0 3.16,-3.161 3.16,-8.284 0,-11.444 -19.515,-19.514 -51.266,-19.512 -70.781,0 -3.159,3.161 -3.159,8.284 10e-4,11.444 z"
         id="path3398"
         clip-path="url(#clipPath4170)" />
      <g
         id="g3400">
</g>
      <g
         id="g3402">
</g>
      <g
         id="g3404">
</g>
      <g
         id="g3406">
</g>
      <g
         id="g3408">
</g>
      <g
         id="g3410">
</g>
      <g
         id="g3412">
</g>
      <g
         id="g3414">
</g>
      <g
         id="g3416">
</g>
      <g
         id="g3418">
</g>
      <g
         id="g3420">
</g>
      <g
         id="g3422">
</g>
      <g
         id="g3424">
</g>
      <g
         id="g3426">
</g>
      <g
         id="g3428">
</g>
    </g>
    <g
       id="g4385"
       transform="matrix(0.10655541,0.10543936,-0.10543936,0.10655541,107.59654,132.50912)">
      <path
         style="fill:#009bde"
         d="m 351.189,34.181 c 34.976,-34.974 91.677,-34.976 126.652,0.001 34.973,34.974 34.973,91.674 10e-4,126.651 L 160.857,477.819 c -34.973,34.975 -91.677,34.975 -126.65,-0.001 -34.974,-34.974 -34.975,-91.676 0,-126.65 z"
         id="path4254" />
      <g
         id="g4260">
	<path
   style="fill:#61b4e4"
   d="m 351.189,34.181 -5.439,5.438 126.654,126.653 5.439,-5.439 C 512.815,125.856 512.815,69.156 477.842,34.182 442.868,-0.794 386.165,-0.793 351.189,34.181 Z"
   id="path4256" />

	<path
   style="fill:#61b4e4"
   d="m 34.205,351.165 5.438,-5.438 126.653,126.653 -5.439,5.438 C 125.88,512.791 69.18,512.792 34.207,477.816 -0.77,442.842 -0.768,386.141 34.205,351.165 Z"
   id="path4258" />

</g>
      <path
         style="opacity:0.2;enable-background:new"
         d="m 142.672,406.234 c 15.929,15.929 41.757,15.929 57.684,0.001 15.928,-15.929 15.927,-41.756 -0.002,-57.684 l -28.839,-28.843 -57.683,57.684 z"
         id="path4262" />
      <path
         style="fill:#333e48"
         d="m 116.234,386.083 c -11.233,11.231 -18.621,0.85 -21.399,-4.552 -11.606,-22.569 -7.951,-50.954 10.955,-69.863 18.908,-18.909 47.295,-22.561 69.864,-10.956 5.402,2.778 15.783,10.167 4.553,21.397 z"
         id="path4264" />
      <path
         style="opacity:0.2;enable-background:new"
         d="m 406.259,142.65 c 15.928,15.928 15.928,41.755 0,57.684 -15.928,15.928 -41.756,15.927 -57.684,-0.002 l -28.842,-28.841 57.684,-57.684 z"
         id="path4266" />
      <path
         style="fill:#333e48"
         d="m 386.107,116.209 c 11.232,-11.232 0.851,-18.62 -4.552,-21.397 -22.57,-11.606 -50.954,-7.952 -69.863,10.954 -18.91,18.909 -22.561,47.296 -10.956,69.865 2.777,5.403 10.168,15.782 21.398,4.552 z"
         id="path4268" />
      <g
         id="g4304">
	<path
   style="fill:#ffffff"
   d="m 238.952,246.875 c -2.034,0 -4.069,-0.776 -5.621,-2.329 l -29.695,-29.695 c -3.105,-3.105 -3.105,-8.139 0,-11.243 3.105,-3.105 8.139,-3.105 11.243,0 l 29.695,29.695 c 3.105,3.105 3.105,8.139 0,11.242 -1.554,1.555 -3.588,2.33 -5.622,2.33 z"
   id="path4270" />

	<path
   style="fill:#ffffff"
   d="m 202.225,231.016 c -4.391,0 -7.95,-3.559 -7.95,-7.95 0,-4.391 3.559,-7.95 7.95,-7.95 h 12.916 V 202.2 c 0,-4.391 3.559,-7.95 7.95,-7.95 4.391,0 7.95,3.559 7.95,7.95 v 20.866 c 0,4.391 -3.559,7.95 -7.95,7.95 z"
   id="path4272" />

	<path
   style="fill:#ffffff"
   d="m 209.257,310.714 c -2.034,0 -4.069,-0.776 -5.621,-2.329 -3.105,-3.105 -3.105,-8.139 0,-11.242 l 29.695,-29.695 c 3.105,-3.105 8.139,-3.105 11.243,0 3.105,3.105 3.105,8.139 0,11.242 l -29.695,29.695 c -1.552,1.553 -3.588,2.329 -5.622,2.329 z"
   id="path4274" />

	<path
   style="fill:#ffffff"
   d="m 223.092,317.747 c -4.391,0 -7.95,-3.559 -7.95,-7.95 V 296.88 h -12.916 c -4.391,0 -7.95,-3.56 -7.95,-7.95 0,-4.391 3.559,-7.95 7.95,-7.95 h 20.866 c 4.391,0 7.95,3.559 7.95,7.95 v 20.867 c 0,4.391 -3.559,7.95 -7.95,7.95 z"
   id="path4276" />

	<path
   style="fill:#ffffff"
   d="m 302.791,310.714 c -2.034,0 -4.069,-0.776 -5.621,-2.329 L 267.475,278.69 c -3.105,-3.105 -3.105,-8.139 0,-11.242 3.105,-3.105 8.139,-3.105 11.242,0 l 29.695,29.695 c 3.105,3.105 3.105,8.139 0,11.242 -1.552,1.553 -3.586,2.329 -5.621,2.329 z"
   id="path4278" />

	<path
   style="fill:#ffffff"
   d="m 288.957,317.746 c -4.391,0 -7.95,-3.559 -7.95,-7.95 V 288.93 c 0,-4.391 3.559,-7.95 7.95,-7.95 h 20.867 c 4.391,0 7.95,3.559 7.95,7.95 0,4.391 -3.559,7.95 -7.95,7.95 h -12.917 v 12.916 c 0,4.391 -3.56,7.95 -7.95,7.95 z"
   id="path4280" />

	<path
   style="fill:#ffffff"
   d="m 273.096,246.875 c -2.034,0 -4.069,-0.776 -5.621,-2.329 -3.105,-3.105 -3.105,-8.139 0,-11.242 l 29.695,-29.695 c 3.105,-3.105 8.139,-3.105 11.242,0 3.105,3.105 3.105,8.139 0,11.243 l -29.695,29.695 c -1.552,1.553 -3.586,2.328 -5.621,2.328 z"
   id="path4282" />

	<path
   style="fill:#ffffff"
   d="m 309.823,231.016 h -20.866 c -4.391,0 -7.95,-3.559 -7.95,-7.95 v -20.867 c 0,-4.391 3.559,-7.95 7.95,-7.95 4.391,0 7.95,3.559 7.95,7.95 v 12.917 h 12.916 c 4.391,0 7.95,3.559 7.95,7.95 0,4.39 -3.56,7.95 -7.95,7.95 z"
   id="path4284" />

	<path
   style="fill:#ffffff"
   d="m 231.88,263.948 h -41.993 c -4.391,0 -7.95,-3.559 -7.95,-7.95 0,-4.391 3.559,-7.95 7.95,-7.95 h 41.993 c 4.391,0 7.95,3.559 7.95,7.95 0,4.39 -3.56,7.95 -7.95,7.95 z"
   id="path4286" />

	<path
   style="fill:#ffffff"
   d="m 194.696,278.703 c -2.035,0 -4.068,-0.776 -5.621,-2.328 -3.105,-3.105 -3.105,-8.139 -10e-4,-11.243 l 9.133,-9.134 -9.133,-9.133 c -3.105,-3.105 -3.105,-8.139 0,-11.242 3.105,-3.105 8.139,-3.105 11.242,0 l 14.754,14.754 c 3.105,3.105 3.105,8.138 0.001,11.243 l -14.754,14.755 c -1.553,1.551 -3.587,2.328 -5.621,2.328 z"
   id="path4288" />

	<path
   style="fill:#ffffff"
   d="m 256.025,330.086 c -4.391,0 -7.95,-3.559 -7.95,-7.95 v -41.994 c 0,-4.391 3.559,-7.95 7.95,-7.95 4.391,0 7.95,3.56 7.95,7.95 v 41.994 c 0,4.39 -3.56,7.95 -7.95,7.95 z"
   id="path4290" />

	<path
   style="fill:#ffffff"
   d="m 270.779,325.276 c -2.034,0 -4.069,-0.776 -5.622,-2.329 l -9.132,-9.133 -9.134,9.133 c -3.105,3.105 -8.139,3.105 -11.243,0 -3.104,-3.105 -3.105,-8.139 0,-11.242 l 14.755,-14.755 c 1.49,-1.491 3.513,-2.329 5.621,-2.329 v 0 c 2.108,0 4.131,0.837 5.622,2.329 l 14.754,14.755 c 3.105,3.105 3.104,8.139 0,11.243 -1.552,1.551 -3.587,2.328 -5.621,2.328 z"
   id="path4292" />

	<path
   style="fill:#ffffff"
   d="m 322.162,263.948 c -10e-4,0 0,0 0,0 h -41.994 c -4.391,0 -7.95,-3.559 -7.95,-7.95 0,-4.391 3.56,-7.95 7.95,-7.95 v 0 h 41.994 c 4.391,0 7.95,3.559 7.95,7.95 0,4.39 -3.56,7.95 -7.95,7.95 z"
   id="path4294" />

	<path
   style="fill:#ffffff"
   d="m 317.352,278.702 c -2.034,0 -4.068,-0.776 -5.621,-2.328 L 296.975,261.62 c -1.491,-1.491 -2.329,-3.513 -2.329,-5.622 0,-2.108 0.837,-4.131 2.329,-5.622 l 14.756,-14.754 c 3.105,-3.104 8.139,-3.104 11.243,0 3.105,3.105 3.104,8.139 0,11.243 l -9.134,9.133 9.134,9.133 c 3.105,3.105 3.105,8.139 0,11.243 -1.552,1.552 -3.587,2.328 -5.622,2.328 z"
   id="path4296" />

	<path
   style="fill:#ffffff"
   d="m 256.024,239.804 v 0 c -4.391,0 -7.95,-3.559 -7.95,-7.95 l 10e-4,-41.993 c 0,-4.391 3.559,-7.95 7.95,-7.95 v 0 c 4.391,0 7.95,3.559 7.95,7.95 l -0.001,41.993 c 0,4.391 -3.56,7.95 -7.95,7.95 z"
   id="path4298" />

	<path
   style="fill:#ffffff"
   d="m 256.026,217.375 c -2.108,0 -4.131,-0.837 -5.622,-2.329 l -14.755,-14.754 c -3.105,-3.105 -3.105,-8.138 0,-11.242 3.105,-3.105 8.139,-3.106 11.243,0 l 9.133,9.133 9.132,-9.133 c 3.105,-3.105 8.138,-3.105 11.243,-0.001 3.105,3.105 3.105,8.139 0.001,11.243 l -14.753,14.754 c -1.493,1.49 -3.515,2.329 -5.622,2.329 z"
   id="path4300" />

	<path
   style="fill:#ffffff"
   d="m 256.025,287.422 c -17.328,0 -31.425,-14.097 -31.425,-31.424 0,-17.327 14.097,-31.424 31.425,-31.424 17.327,0 31.423,14.097 31.423,31.424 0,17.327 -14.097,31.424 -31.423,31.424 z m 0,-46.948 c -8.561,0 -15.525,6.964 -15.525,15.524 0,8.56 6.964,15.524 15.525,15.524 8.56,0 15.523,-6.964 15.523,-15.524 0,-8.56 -6.964,-15.524 -15.523,-15.524 z"
   id="path4302" />

</g>
      <path
         style="fill:#1e252b"
         d="M 483.464,28.561 C 465.047,10.143 440.561,0 414.517,0 388.473,0 363.987,10.142 345.569,28.56 L 28.584,345.546 c -18.416,18.416 -28.56,42.903 -28.56,68.947 0.001,26.044 10.143,50.53 28.559,68.947 C 47,501.857 71.486,512 97.531,512 c 26.044,0 50.53,-10.142 68.946,-28.559 L 483.464,166.454 c 38.016,-38.019 38.015,-99.877 0,-137.893 z M 472.221,155.212 155.235,472.198 C 139.823,487.611 119.33,496.1 97.533,496.1 75.734,496.1 55.241,487.612 39.828,472.197 24.415,456.783 15.926,436.291 15.926,414.493 c 0,-21.798 8.488,-42.291 23.902,-57.704 L 356.812,39.802 C 372.226,24.389 392.719,15.9 414.517,15.9 c 21.798,0 42.291,8.49 57.704,23.904 31.815,31.816 31.816,83.589 0,115.408 z M 188.176,325.128 c 4.908,-6.08 5.376,-11.56 4.795,-15.27 -1.007,-6.436 -5.866,-12.194 -13.682,-16.214 -9.543,-4.907 -20.286,-7.501 -31.07,-7.501 -18.151,0 -35.216,7.069 -48.052,19.905 -20.97,20.973 -25.954,52.769 -12.403,79.12 4.603,8.952 11.268,13.882 18.769,13.882 4.356,0 8.614,-1.7 12.702,-5.007 l 17.814,17.815 c 9.503,9.503 21.982,14.253 34.465,14.253 12.479,0 24.962,-4.752 34.463,-14.252 19.003,-19.004 19.002,-49.924 -0.002,-68.927 z m -77.564,55.333 c -2.121,2.121 -3.562,2.687 -4.079,2.687 -0.778,0 -2.787,-1.67 -4.629,-5.253 -10.38,-20.182 -6.558,-44.538 9.506,-60.606 9.833,-9.833 22.905,-15.248 36.809,-15.248 8.266,0 16.495,1.985 23.798,5.741 3.594,1.848 5.125,3.761 5.245,4.531 0.07,0.447 -0.4,1.895 -2.678,4.174 z m 84.123,20.153 c -12.803,12.803 -33.636,12.804 -46.442,-10e-4 l -17.673,-17.673 46.44,-46.44 17.672,17.673 c 12.806,12.804 12.807,33.637 0.003,46.441 z M 394.076,119.227 c 4.909,-6.081 5.377,-11.562 4.797,-15.272 -1.008,-6.436 -5.867,-12.194 -13.682,-16.212 -9.542,-4.907 -20.286,-7.501 -31.069,-7.501 -18.15,0 -35.215,7.068 -48.051,19.903 -20.972,20.97 -25.956,52.767 -12.405,79.121 4.601,8.952 11.268,13.882 18.771,13.882 v 0 c 4.356,0 8.614,-1.7 12.702,-5.009 l 17.815,17.815 c 9.205,9.205 21.444,14.275 34.464,14.275 0,0 0,0 10e-4,0 13.018,0 25.258,-5.07 34.463,-14.274 19.003,-19.004 19.002,-49.924 -0.002,-68.927 z m -77.563,55.334 c -2.12,2.121 -3.559,2.686 -4.077,2.686 -0.778,-0.001 -2.788,-1.669 -4.63,-5.252 -10.38,-20.186 -6.559,-44.542 9.507,-60.607 9.833,-9.832 22.905,-15.246 36.809,-15.246 8.265,0 16.495,1.985 23.798,5.741 3.593,1.847 5.123,3.759 5.244,4.53 0.07,0.447 -0.4,1.895 -2.679,4.174 z m 84.123,20.152 c -6.202,6.202 -14.449,9.617 -23.22,9.617 -8.771,0 -17.018,-3.416 -23.22,-9.618 l -17.673,-17.674 46.44,-46.44 17.673,17.673 c 12.803,12.805 12.804,33.638 0,46.442 z"
         id="path4306" />
      <g
         id="g4308">
</g>
      <g
         id="g4310">
</g>
      <g
         id="g4312">
</g>
      <g
         id="g4314">
</g>
      <g
         id="g4316">
</g>
      <g
         id="g4318">
</g>
      <g
         id="g4320">
</g>
      <g
         id="g4322">
</g>
      <g
         id="g4324">
</g>
      <g
         id="g4326">
</g>
      <g
         id="g4328">
</g>
      <g
         id="g4330">
</g>
      <g
         id="g4332">
</g>
      <g
         id="g4334">
</g>
      <g
         id="g4336">
</g>
    </g>
    <g
       style="fill:none"
       id="g4680-5-6-3-3"
       transform="matrix(0.54749641,0,0,0.54749641,28.683606,124.46921)">
      <path
         fill-rule="evenodd"
         clip-rule="evenodd"
         d="m 83.3112,59.9662 c 0.1569,0.8134 -0.3754,1.6 -1.1889,1.7569 l -6.7616,1.3038 1.62,6.0459 c 0.2144,0.8002 -0.2604,1.6227 -1.0606,1.8372 -0.8002,0.2144 -1.6227,-0.2605 -1.8372,-1.0607 l -2.0369,-7.602 c -0.1078,-0.4022 -0.0435,-0.8311 0.1774,-1.184 0.2209,-0.353 0.5786,-0.5982 0.9875,-0.6771 l 8.3434,-1.6088 c 0.8135,-0.1569 1.6,0.3754 1.7569,1.1888 z"
         fill="#75c4fe"
         id="path4623-82-4-9-6" />
      <path
         fill-rule="evenodd"
         clip-rule="evenodd"
         d="m 23.4124,31.7192 c 0.195,0.7277 -0.1801,1.4872 -0.8765,1.7747 l -6.4898,2.6791 c -0.7657,0.3161 -1.6427,-0.0484 -1.9589,-0.8142 -0.3161,-0.7657 0.0484,-1.6427 0.8142,-1.9588 l 5.2724,-2.1766 -1.5394,-5.745 c -0.2144,-0.8002 0.2605,-1.6227 1.0607,-1.8371 0.8002,-0.2144 1.6227,0.2604 1.8371,1.0606 z"
         fill="#75c4fe"
         id="path4625-0-8-4-8" />
      <path
         fill-rule="evenodd"
         clip-rule="evenodd"
         d="m 76.639,23.6217 c 0.7818,0.2738 1.1937,1.1295 0.9199,1.9114 l -2.2759,6.4992 6.0399,1.6426 c 0.7994,0.2173 1.2712,1.0416 1.0538,1.841 -0.2174,0.7994 -1.0417,1.2712 -1.8411,1.0538 l -7.5943,-2.0652 c -0.4018,-0.1093 -0.7401,-0.3807 -0.9339,-0.7492 -0.1939,-0.3685 -0.2258,-0.801 -0.0882,-1.194 l 2.8083,-8.0197 c 0.2738,-0.7819 1.1296,-1.1937 1.9115,-0.9199 z"
         fill="#75c4fe"
         id="path4627-8-6-6-4" />
      <path
         fill-rule="evenodd"
         clip-rule="evenodd"
         d="m 22.0868,61.1692 c 0.7271,0.1977 1.1946,0.904 1.0926,1.6505 l -0.9507,6.9564 c -0.1122,0.8208 -0.8685,1.3952 -1.6893,1.2831 -0.8208,-0.1122 -1.3952,-0.8685 -1.2831,-1.6893 l 0.7724,-5.6515 -5.7393,-1.5608 c -0.7994,-0.2174 -1.2712,-1.0416 -1.0538,-1.841 0.2174,-0.7994 1.0417,-1.2712 1.8411,-1.0538 z"
         fill="#75c4fe"
         id="path4629-9-4-0-0" />
      <path
         fill-rule="evenodd"
         clip-rule="evenodd"
         d="m 41.6019,11.1473 c 0.626,-0.5426 1.5733,-0.4749 2.1159,0.1511 l 4.51,5.2038 4.4259,-4.4259 c 0.5858,-0.5858 1.5355,-0.5858 2.1213,0 0.5858,0.5858 0.5858,1.5355 0,2.1213 l -5.565,5.565 c -0.2945,0.2945 -0.698,0.4533 -1.1142,0.4384 -0.4161,-0.0148 -0.8073,-0.202 -1.08,-0.5166 l -5.5651,-6.4212 c -0.5425,-0.6261 -0.4749,-1.5734 0.1512,-2.1159 z"
         fill="#75c4fe"
         id="path4631-0-9-4-0" />
      <path
         fill-rule="evenodd"
         clip-rule="evenodd"
         d="m 47.0886,77.1444 c 0.5328,-0.5327 1.3781,-0.5876 1.9753,-0.1282 l 5.565,4.2808 c 0.6566,0.5051 0.7795,1.4468 0.2744,2.1035 -0.5051,0.6566 -1.4469,0.7794 -2.1035,0.2743 L 48.2787,80.197 44.073,84.4027 c -0.5858,0.5858 -1.5355,0.5858 -2.1213,0 -0.5858,-0.5858 -0.5858,-1.5355 0,-2.1213 z"
         fill="#75c4fe"
         id="path4633-4-7-7-0" />
      <path
         fill-rule="evenodd"
         clip-rule="evenodd"
         d="m 84.4948,68.2102 c -0.5523,0.9566 -1.7755,1.2843 -2.7321,0.7321 L 13.178,29.3448 c -0.9566,-0.5523 -1.2844,-1.7754 -0.7321,-2.732 0.5523,-0.9566 1.7755,-1.2844 2.7321,-0.7321 l 68.5847,39.5974 c 0.9566,0.5523 1.2843,1.7755 0.7321,2.7321 z"
         fill="#43aefc"
         id="path4635-0-2-5-3" />
      <path
         fill-rule="evenodd"
         clip-rule="evenodd"
         d="m 81.0503,53.1089 c 0.3595,1.0445 -0.1958,2.1826 -1.2403,2.542 l -10.8094,3.7201 1.3429,11.1457 c 0.1321,1.0966 -0.6498,2.0927 -1.7464,2.2249 -1.0967,0.1321 -2.0928,-0.6498 -2.2249,-1.7464 L 64.836,58.2449 c -0.1127,-0.9359 0.4434,-1.8235 1.3349,-2.1303 l 12.3374,-4.246 c 1.0445,-0.3594 2.1826,0.1959 2.542,1.2403 z"
         fill="#43aefc"
         id="path4637-0-4-3-4" />
      <path
         fill-rule="evenodd"
         clip-rule="evenodd"
         d="m 32.1,36.5355 c 0.1273,0.9009 -0.3693,1.7741 -1.2086,2.1251 l -10.4265,4.3607 c -1.0191,0.4262 -2.1907,-0.0544 -2.6169,-1.0734 -0.4261,-1.0191 0.0545,-2.1907 1.0735,-2.6169 l 9.0017,-3.7647 -1.534,-10.8503 c -0.1546,-1.0937 0.6066,-2.1056 1.7003,-2.2603 1.0937,-0.1546 2.1057,0.6067 2.2603,1.7004 z"
         fill="#43aefc"
         id="path4639-6-4-5-0" />
      <path
         fill-rule="evenodd"
         clip-rule="evenodd"
         d="m 84.3593,26.7465 c 0.5487,0.9586 0.2164,2.1806 -0.7422,2.7293 L 14.8853,68.8174 c -0.9587,0.5487 -2.1806,0.2164 -2.7293,-0.7422 -0.5487,-0.9586 -0.2164,-2.1806 0.7422,-2.7293 L 81.63,26.0043 c 0.9586,-0.5487 2.1806,-0.2164 2.7293,0.7422 z"
         fill="#43aefc"
         id="path4641-1-0-2-0" />
      <path
         fill-rule="evenodd"
         clip-rule="evenodd"
         d="m 69.5767,22.1244 c 1.0835,0.215 1.7875,1.2675 1.5726,2.351 l -2.2249,11.213 10.3074,4.4484 c 1.0142,0.4377 1.4815,1.6146 1.0438,2.6287 -0.4376,1.0142 -1.6146,1.4815 -2.6287,1.0439 L 65.8557,38.7206 c -0.8656,-0.3735 -1.3528,-1.3008 -1.1693,-2.2255 l 2.5393,-12.7982 c 0.215,-1.0834 1.2676,-1.7875 2.351,-1.5725 z"
         fill="#43aefc"
         id="path4643-4-4-6-9" />
      <path
         fill-rule="evenodd"
         clip-rule="evenodd"
         d="m 30.6219,56.0852 c 0.8425,0.3432 1.3473,1.2119 1.2282,2.1138 l -1.4785,11.2045 c -0.1445,1.0951 -1.1494,1.8657 -2.2445,1.7212 -1.0951,-0.1445 -1.8657,-1.1494 -1.7212,-2.2445 l 1.2766,-9.6733 -10.1483,-4.1345 c -1.0229,-0.4168 -1.5144,-1.5839 -1.0976,-2.6068 0.4168,-1.023 1.5838,-1.5144 2.6068,-1.0976 z"
         fill="#43aefc"
         id="path4645-4-2-0-9" />
      <path
         fill-rule="evenodd"
         clip-rule="evenodd"
         d="m 48.1493,6 c 1.1046,0 2,0.89543 2,2 v 79.1948 c 0,1.1046 -0.8954,2 -2,2 -1.1046,0 -2,-0.8954 -2,-2 V 8 c 0,-1.10457 0.8954,-2 2,-2 z"
         fill="#43aefc"
         id="path4647-5-9-6-7" />
      <path
         fill-rule="evenodd"
         clip-rule="evenodd"
         d="m 36.7941,16.5336 c 0.7248,-0.8335 1.9881,-0.9216 2.8216,-0.1968 l 8.6263,7.5011 8.9811,-6.7358 c 0.8837,-0.6627 2.1373,-0.4836 2.8,0.4 0.6628,0.8837 0.4837,2.1373 -0.4,2.8 l -10.2739,7.7055 c -0.7542,0.5656 -1.801,0.5278 -2.5124,-0.0908 L 36.991,19.3552 c -0.8335,-0.7248 -0.9217,-1.9881 -0.1969,-2.8216 z"
         fill="#43aefc"
         id="path4649-7-2-9-4" />
      <path
         fill-rule="evenodd"
         clip-rule="evenodd"
         d="m 46.9166,67.2123 c 0.7164,-0.5607 1.721,-0.5672 2.4447,-0.0158 l 8.9897,6.8493 c 0.8786,0.6694 1.0481,1.9243 0.3787,2.8029 -0.6694,0.8786 -1.9243,1.0482 -2.8029,0.3788 l -7.7612,-5.9133 -8.6296,6.7536 c -0.8699,0.6808 -2.1269,0.5275 -2.8077,-0.3424 -0.6807,-0.8698 -0.5274,-2.1269 0.3424,-2.8076 z"
         fill="#43aefc"
         id="path4651-9-4-3-8" />
      <path
         fill-rule="evenodd"
         clip-rule="evenodd"
         d="m 36.3904,27.7061 c 0.5404,-0.3364 1.2086,-0.3954 1.7996,-0.159 l 10.0571,4.0228 10.8921,-3.2273 c 0.5472,-0.1621 1.1376,-0.0828 1.6225,0.2181 0.485,0.3009 0.8183,0.7946 0.9161,1.3568 l 1.5984,9.191 7.2222,6.8209 c 0.4069,0.3843 0.6341,0.9214 0.6266,1.481 -0.0076,0.5595 -0.2492,1.0904 -0.6663,1.4635 l -7.6757,6.8678 -2.8476,11.3904 c -0.1426,0.5704 -0.5289,1.0491 -1.0563,1.3089 -0.5274,0.2599 -1.1423,0.2746 -1.6815,0.0402 l -9.1556,-3.9807 -9.9852,3.1952 c -0.5826,0.1864 -1.2184,0.096 -1.7259,-0.2454 C 35.8234,67.1089 35.5,66.5541 35.4531,65.9443 L 34.6744,55.8214 25.2571,49.9356 c -0.5592,-0.3495 -0.9102,-0.9523 -0.9382,-1.6111 -0.0279,-0.6589 0.2707,-1.2892 0.7982,-1.6849 l 9.5493,-7.162 0.7867,-10.2269 c 0.0488,-0.6347 0.3969,-1.2082 0.9373,-1.5446 z m 2.8421,4.5661 -0.6473,8.4153 c -0.0442,0.5741 -0.3336,1.1012 -0.7941,1.4466 l -7.9405,5.9554 7.8005,4.8753 c 0.5386,0.3367 0.8854,0.9092 0.9341,1.5426 l 0.6621,8.6075 8.2924,-2.6535 c 0.462,-0.1479 0.9621,-0.1228 1.407,0.0707 l 7.6807,3.3394 2.4239,-9.6958 c 0.0971,-0.3883 0.3085,-0.7385 0.6067,-1.0054 l 6.5122,-5.8267 -6.1237,-5.7835 c -0.3138,-0.2963 -0.5233,-0.6862 -0.5972,-1.1114 l -1.3275,-7.6327 -9.4044,2.7865 c -0.4314,0.1278 -0.8932,0.1064 -1.311,-0.0607 z"
         fill="#43aefc"
         id="path4653-9-0-0-4" />
      <path
         fill-rule="evenodd"
         clip-rule="evenodd"
         d="m 48.1141,32.1852 c 0.5681,-0.0133 1.095,0.2955 1.3609,0.7978 l 3.3834,6.3908 7.9912,-0.761 c 0.5544,-0.0528 1.0925,0.2059 1.3974,0.672 0.3049,0.4661 0.3265,1.0628 0.056,1.5497 l -3.8366,6.9059 3.7734,5.6602 c 0.3069,0.4603 0.3355,1.0521 0.0745,1.5399 -0.2611,0.4877 -0.7693,0.7922 -1.3225,0.7922 h -8.0405 l -3.4463,7.2756 c -0.2485,0.5245 -0.7772,0.8586 -1.3575,0.8579 -0.5804,-8e-4 -1.1083,-0.3362 -1.3554,-0.8613 L 43.7249,56.487 36.8536,55.7235 c -0.5203,-0.0578 -0.9728,-0.3827 -1.194,-0.8573 -0.2211,-0.4745 -0.1788,-1.03 0.1116,-1.4656 l 3.7261,-5.5891 -4.5823,-6.8734 c -0.3217,-0.4827 -0.3364,-1.1077 -0.0375,-1.6049 0.2989,-0.4972 0.8576,-0.7775 1.4349,-0.7197 l 7.5066,0.7506 2.9731,-6.318 c 0.242,-0.5142 0.7538,-0.8475 1.322,-0.8609 z m 0.1142,4.8546 -2.1464,4.5611 c -0.2705,0.575 -0.8741,0.9171 -1.5064,0.8538 l -5.4041,-0.5404 3.3768,5.0651 c 0.3359,0.5039 0.3359,1.1603 0,1.6641 l -2.9137,4.3705 5.2559,0.584 c 0.5183,0.0576 0.9695,0.3803 1.1915,0.8521 l 2.0719,4.4027 2.4927,-5.2623 c 0.2481,-0.5238 0.7759,-0.8578 1.3556,-0.8578 H 58.189 L 55.4629,48.6435 C 55.1513,48.1762 55.127,47.574 55.3997,47.083 l 2.8964,-5.2135 -6.1518,0.5859 C 51.5399,42.513 50.9605,42.2006 50.6764,41.664 Z"
         fill="#75c4fe"
         id="path4655-09-3-4-0" />
    </g>
  </g>
</svg>
