<svg xmlns="http://www.w3.org/2000/svg" viewBox="0 0 64 64"><defs><style>.cls-1{isolation:isolate;}.cls-2{fill:#f2c373;}.cls-3{fill:#f7130d;}.cls-4{fill:#00613b;}.cls-5{fill:#faf180;}.cls-6{fill:#ffd45d;}.cls-10,.cls-7,.cls-8,.cls-9{fill:none;}.cls-8{opacity:0.16;}.cls-10,.cls-13,.cls-9{stroke:#000;}.cls-13,.cls-9{stroke-miterlimit:10;}.cls-10,.cls-9{stroke-width:2px;}.cls-10{stroke-linecap:round;stroke-linejoin:round;}.cls-11,.cls-12{mix-blend-mode:multiply;}.cls-12{opacity:0.25;}</style></defs><title>Icon Color</title><g class="cls-1"><g id="Layer_1" data-name="Layer 1"><g id="Vector"><path class="cls-2" d="M34.32,21.18V34.61H31c-.24,0-.46,0-.67,0V21.18Z"/><path class="cls-3" d="M30.37,21.18v13.4c-5.61-.4-7.8-5.86-7.8-5.86a10.59,10.59,0,0,0-2-3.12v-4a1.93,1.93,0,0,1,.1-.6,2.1,2.1,0,0,0,.91.21Z"/><path class="cls-3" d="M44.13,21.57v9.54a22.83,22.83,0,0,0-1.83,2.44,2.37,2.37,0,0,1-2,1.06h-6V21.18h8.79A2.22,2.22,0,0,0,44,21,1.93,1.93,0,0,1,44.13,21.57Z"/><rect class="cls-2" x="30.37" y="13.84" width="3.96" height="7.33"/><path class="cls-4" d="M21.59,13.84h8.78v7.34H21.59a2.22,2.22,0,0,1-.93-.21,2.19,2.19,0,0,1-1.26-2V16A2.18,2.18,0,0,1,21.59,13.84Z"/><path class="cls-4" d="M45.3,16v3a2.2,2.2,0,0,1-2.19,2.18H34.33V13.84h8.78A2.18,2.18,0,0,1,45.3,16Z"/><path class="cls-3" d="M30.8,10.53s-6.06-5.3-7.35-.59,5.37,3.58,7.71,2.78Z"/><path class="cls-3" d="M33.9,10.53s6.06-5.3,7.35-.59-5.37,3.58-7.71,2.78Z"/><path class="cls-2" d="M32,13s-3.27,2.56-3.88,9.7l-1.84-2.21L24.48,22.1s1-7.68,3.59-8.72Z"/><path class="cls-2" d="M39.93,22l-1.76-1.56-1.85,2.21c-.6-7.14-3.87-9.71-3.87-9.71l3.9.34C38.91,14.31,39.93,22,39.93,22Z"/><rect class="cls-3" x="30.8" y="9.94" width="3.1" height="3.1" rx="0.24"/><path class="cls-5" d="M30,15.7A8.74,8.74,0,0,1,32,13l-3.9.34-.14.07-1.47,2-.29.22H30Z"/><rect class="cls-5" x="30.37" y="13.84" width="3.96" height="1.86"/><path class="cls-5" d="M36.35,13.26l-3.9-.34a8.84,8.84,0,0,1,2,2.78h3.8A4.49,4.49,0,0,0,36.35,13.26Z"/><path class="cls-3" d="M63.61,37.59V49.18h0a5,5,0,0,1-5,4.83H8.5A8.14,8.14,0,0,1,.39,45.9v-.7a3.09,3.09,0,0,1,3.1-3.09H7.3V45.9A3.09,3.09,0,0,0,10.39,49H53.61a3.08,3.08,0,0,0,3.08-3.09V40.68a3.09,3.09,0,0,1,3.1-3.09Z"/><polygon class="cls-3" points="20.02 42.42 17.23 48.99 12.09 48.99 15.14 41.79 18.55 41.79 20.02 42.42"/><polygon class="cls-3" points="50.52 48.99 45.38 48.99 42.58 42.42 44.05 41.79 47.45 41.79 50.52 48.99"/><path class="cls-6" d="M55.7,28.5,52.27,38.58a4.93,4.93,0,0,1-4.72,3.21h-33A4.92,4.92,0,0,1,9.8,38.58L3.55,20.22a2.37,2.37,0,0,1,3.09-3c4.29,1.64,10.5,4.52,13.93,8.36a10.59,10.59,0,0,1,2,3.12s2.19,5.46,7.8,5.86c.21,0,.43,0,.67,0h9.27a2.37,2.37,0,0,0,2-1.06,22.83,22.83,0,0,1,1.83-2.44A16.44,16.44,0,0,1,53,25.4,2.37,2.37,0,0,1,55.7,28.5Z"/><path class="cls-7" d="M34.32,21.18V34.61H31c-.24,0-.46,0-.67,0V21.18Z"/><path class="cls-7" d="M30.37,34.58V21.18H21.58a2.18,2.18,0,0,1-.92-.21,1.93,1.93,0,0,0-.09.6v4"/><path class="cls-7" d="M44.13,21.57v9.54a22.83,22.83,0,0,0-1.83,2.44,2.37,2.37,0,0,1-2,1.06h-6V21.18h8.79A2.22,2.22,0,0,0,44,21,1.93,1.93,0,0,1,44.13,21.57Z"/><rect class="cls-7" x="30.37" y="13.84" width="3.96" height="7.33"/><path class="cls-7" d="M21.59,13.84h8.78v7.34H21.59a2.22,2.22,0,0,1-.93-.21,2.19,2.19,0,0,1-1.26-2V16A2.18,2.18,0,0,1,21.59,13.84Z"/><path class="cls-7" d="M45.3,16v3a2.2,2.2,0,0,1-2.19,2.18H34.33V13.84h8.78A2.18,2.18,0,0,1,45.3,16Z"/><path class="cls-7" d="M30.8,10.53s-6.06-5.3-7.35-.59,5.37,3.58,7.71,2.78"/><path class="cls-7" d="M33.9,10.53s6.06-5.3,7.35-.59-5.37,3.58-7.71,2.78"/><path class="cls-7" d="M32,13s-3.27,2.56-3.88,9.7l-1.84-2.21L24.48,22.1s1-7.68,3.59-8.72Z"/><path class="cls-7" d="M39.93,22l-1.76-1.56-1.85,2.21c-.6-7.14-3.87-9.71-3.87-9.71l3.9.34C38.91,14.31,39.93,22,39.93,22Z"/><rect class="cls-7" x="30.8" y="9.94" width="3.1" height="3.1" rx="0.24"/><path class="cls-8" d="M35.8,9.4a3.94,3.94,0,0,1,.78,3.9l-2.66-.58.37-2.19A14.17,14.17,0,0,1,35.8,9.4Z"/><path class="cls-8" d="M19.4,17.62v1.66A1.87,1.87,0,0,0,20.63,21h0l4.05-.23a0,0,0,0,0,0,0l.17-5a0,0,0,0,0,0,0l-3.6,0a2.15,2.15,0,0,0-1.85,1.92Z"/></g><g id="Line"><path class="cls-9" d="M27,54H8.5A8.14,8.14,0,0,1,.39,45.9v-.7a3.09,3.09,0,0,1,3.1-3.09H7.3V45.9A3.09,3.09,0,0,0,10.39,49H53.61a3.08,3.08,0,0,0,3.08-3.09V40.68a3.09,3.09,0,0,1,3.1-3.09h3.82V49.18h0a5,5,0,0,1-5,4.83H33"/><polygon class="cls-9" points="20.02 42.42 17.23 48.99 12.09 48.99 15.14 41.79 18.55 41.79 20.02 42.42"/><polygon class="cls-9" points="50.52 48.99 45.38 48.99 42.58 42.42 44.05 41.79 47.45 41.79 50.52 48.99"/><path class="cls-9" d="M6,27.41,3.55,20.22a2.37,2.37,0,0,1,3.09-3c4.29,1.64,10.5,4.52,13.93,8.36a10.59,10.59,0,0,1,2,3.12s2.19,5.46,7.8,5.86c.21,0,.43,0,.67,0h9.27a2.37,2.37,0,0,0,2-1.06,22.83,22.83,0,0,1,1.83-2.44A16.44,16.44,0,0,1,53,25.4a2.37,2.37,0,0,1,2.71,3.1L52.27,38.58a4.93,4.93,0,0,1-4.72,3.21h-33A4.92,4.92,0,0,1,9.8,38.58L7.22,31"/><path class="cls-10" d="M34.32,21.18V34.61H31c-.24,0-.46,0-.67,0V21.18Z"/><path class="cls-10" d="M30.37,34.58V21.18H21.58a2.18,2.18,0,0,1-.92-.21,1.93,1.93,0,0,0-.09.6v4"/><path class="cls-10" d="M44.13,21.57v9.54a22.83,22.83,0,0,0-1.83,2.44,2.37,2.37,0,0,1-2,1.06h-6V21.18h8.79A2.22,2.22,0,0,0,44,21,1.93,1.93,0,0,1,44.13,21.57Z"/><rect class="cls-10" x="30.37" y="13.84" width="3.96" height="7.33"/><path class="cls-10" d="M21.59,13.84h8.78v7.34H21.59a2.22,2.22,0,0,1-.93-.21,2.19,2.19,0,0,1-1.26-2V16A2.18,2.18,0,0,1,21.59,13.84Z"/><path class="cls-10" d="M45.3,16v3a2.2,2.2,0,0,1-2.19,2.18H34.33V13.84h8.78A2.18,2.18,0,0,1,45.3,16Z"/><path class="cls-10" d="M30.8,10.53s-6.06-5.3-7.35-.59,5.37,3.58,7.71,2.78"/><path class="cls-10" d="M33.9,10.53s6.06-5.3,7.35-.59-5.37,3.58-7.71,2.78"/><path class="cls-10" d="M32,13s-3.27,2.56-3.88,9.7l-1.84-2.21L24.48,22.1s1-7.68,3.59-8.72Z"/><path class="cls-10" d="M39.93,22l-1.76-1.56-1.85,2.21c-.6-7.14-3.87-9.71-3.87-9.71l3.9.34C38.91,14.31,39.93,22,39.93,22Z"/><rect class="cls-10" x="30.8" y="9.94" width="3.1" height="3.1" rx="0.24"/></g><g id="Shadow" class="cls-11"><g class="cls-12"><path class="cls-13" d="M36.93,13.41c2.55.21,5.17-.35,4.32-3.47-.77-2.82-3.25-2-5.11-1C36.44,10.43,36.71,11.92,36.93,13.41Z"/><path class="cls-13" d="M63.6,49.18h0V37.59H59.79a3.09,3.09,0,0,0-3.09,3.09V45.9A3.09,3.09,0,0,1,53.61,49H50.52l-3.06-7.2h.09a4.93,4.93,0,0,0,4.73-3.21L55.71,28.5A2.38,2.38,0,0,0,53,25.4a16.37,16.37,0,0,0-8.85,5.71V21.57A1.93,1.93,0,0,0,44,21a2.16,2.16,0,0,1-.93.21h0A2.2,2.2,0,0,0,45.3,19V16a2.18,2.18,0,0,0-2.19-2.18h-6c0-.06-.11-.1-.17-.16.36,2.49.62,5,.75,7.5h0c.07,1.54.11,3.09.1,4.63,0,4.64-.49,9.37-2.3,13.64a19.79,19.79,0,0,1-1.19,2.34h9.72l-1.47.63L45.38,49H26.24l-.21.09c-4.34,1.53-9.32.77-13.44,2.82A10.25,10.25,0,0,0,9.73,54H58.6A5,5,0,0,0,63.6,49.18Z"/></g></g></g></g></svg>