<?xml version="1.0" encoding="utf-8"?>
<!-- Generator: Adobe Illustrator 16.0.0, SVG Export Plug-In . SVG Version: 6.00 Build 0)  -->
<!DOCTYPE svg PUBLIC "-//W3C//DTD SVG 1.1//EN" "http://www.w3.org/Graphics/SVG/1.1/DTD/svg11.dtd">
<svg version="1.1" id="icons" xmlns="http://www.w3.org/2000/svg" xmlns:xlink="http://www.w3.org/1999/xlink" x="0px" y="0px"
	 width="64px" height="64px" viewBox="0 0 64 64" enable-background="new 0 0 64 64" xml:space="preserve">
<g>
	<g>
		<polygon fill="#E6E9ED" points="30,33.01 30,41 27,41 24,41 24,33.01 27,30 		"/>
	</g>
	<g>
		<polygon fill="#5D9CEC" points="40,41 40,63 34,63 34,41 37,41 		"/>
	</g>
	<g>
		<polygon fill="#E6E9ED" points="40,33.01 40,41 37,41 34,41 34,33.01 37,30 		"/>
	</g>
	<g>
		<path fill="#5D9CEC" d="M40,6.19V33.01L37,30l-3,3.01V6.19C34,3.97,35.21,2.04,37,1C38.79,2.04,40,3.97,40,6.19z"/>
	</g>
	<g>
		<path fill="#5D9CEC" d="M30,6.19V33.01L27,30l-3,3.01V6.19C24,3.97,25.21,2.04,27,1C28.79,2.04,30,3.97,30,6.19z"/>
	</g>
	<g>
		<polygon fill="#5D9CEC" points="30,41 30,63 24,63 24,41 27,41 		"/>
	</g>
	<g>
		<polygon fill="#656D78" points="47.5,4 47.5,17.01 46,17.01 44.5,17.01 44.5,4 		"/>
	</g>
	<g>
		<polygon fill="#656D78" points="19.5,4 19.5,17.01 18,17.01 16.5,17.01 16.5,4 		"/>
	</g>
</g>
<g>
	<g>
		<g>
			<g>
				<path d="M30.002,7.19c-0.553,0-1-0.447-1-1c0-1.573-0.754-3.055-2-3.993c-1.246,0.938-2,2.42-2,3.993c0,0.553-0.447,1-1,1
					s-1-0.447-1-1c0-2.485,1.341-4.806,3.499-6.056c0.309-0.18,0.693-0.18,1.002,0c2.158,1.25,3.499,3.57,3.499,6.056
					C31.002,6.743,30.555,7.19,30.002,7.19z"/>
			</g>
			<g>
				<path d="M24.002,64c-0.553,0-1-0.447-1-1V6.19c0-0.553,0.447-1,1-1s1,0.447,1,1V63C25.002,63.553,24.555,64,24.002,64z"/>
			</g>
			<g>
				<path d="M30.002,64c-0.553,0-1-0.447-1-1V6.19c0-0.553,0.447-1,1-1s1,0.447,1,1V63C31.002,63.553,30.555,64,30.002,64z"/>
			</g>
			<g>
				<path d="M30.002,64h-6c-0.553,0-1-0.447-1-1s0.447-1,1-1h6c0.553,0,1,0.447,1,1S30.555,64,30.002,64z"/>
			</g>
			<g>
				<g>
					<path d="M30.002,34.008c-0.256,0-0.512-0.098-0.707-0.293l-2.293-2.295l-2.293,2.295c-0.391,0.391-1.023,0.391-1.414,0
						c-0.391-0.39-0.391-1.023,0-1.414l3-3.003c0.375-0.375,1.039-0.375,1.414,0l3,3.003c0.391,0.391,0.391,1.024,0,1.414
						C30.514,33.91,30.258,34.008,30.002,34.008z"/>
				</g>
				<g>
					<path d="M30.002,42.004h-6c-0.553,0-1-0.447-1-1s0.447-1,1-1h6c0.553,0,1,0.447,1,1S30.555,42.004,30.002,42.004z"/>
				</g>
				<g>
					<path d="M27.002,42.004c-0.553,0-1-0.447-1-1v-4c0-0.553,0.447-1,1-1s1,0.447,1,1v4C28.002,41.557,27.555,42.004,27.002,42.004
						z"/>
				</g>
			</g>
		</g>
		<g>
			<g>
				<path d="M39.999,7.19c-0.553,0-1-0.447-1-1c0-1.573-0.754-3.055-2-3.993c-1.246,0.938-2,2.42-2,3.993c0,0.553-0.447,1-1,1
					s-1-0.447-1-1c0-2.485,1.341-4.806,3.499-6.056c0.309-0.18,0.693-0.18,1.002,0c2.158,1.25,3.499,3.57,3.499,6.056
					C40.999,6.743,40.552,7.19,39.999,7.19z"/>
			</g>
			<g>
				<path d="M33.999,64c-0.553,0-1-0.447-1-1V6.19c0-0.553,0.447-1,1-1s1,0.447,1,1V63C34.999,63.553,34.552,64,33.999,64z"/>
			</g>
			<g>
				<path d="M39.999,64c-0.553,0-1-0.447-1-1V6.19c0-0.553,0.447-1,1-1s1,0.447,1,1V63C40.999,63.553,40.552,64,39.999,64z"/>
			</g>
			<g>
				<path d="M39.999,64h-6c-0.553,0-1-0.447-1-1s0.447-1,1-1h6c0.553,0,1,0.447,1,1S40.552,64,39.999,64z"/>
			</g>
			<g>
				<g>
					<path d="M39.999,34.008c-0.256,0-0.512-0.098-0.707-0.293l-2.293-2.295l-2.293,2.295c-0.391,0.391-1.023,0.391-1.414,0
						c-0.391-0.39-0.391-1.023,0-1.414l3-3.003c0.375-0.375,1.039-0.375,1.414,0l3,3.003c0.391,0.391,0.391,1.024,0,1.414
						C40.511,33.91,40.255,34.008,39.999,34.008z"/>
				</g>
				<g>
					<path d="M39.999,42.004h-6c-0.553,0-1-0.447-1-1s0.447-1,1-1h6c0.553,0,1,0.447,1,1S40.552,42.004,39.999,42.004z"/>
				</g>
				<g>
					<path d="M36.999,42.004c-0.553,0-1-0.447-1-1v-4c0-0.553,0.447-1,1-1s1,0.447,1,1v4C37.999,41.557,37.552,42.004,36.999,42.004
						z"/>
				</g>
			</g>
		</g>
	</g>
	<g>
		<g>
			<path d="M45.999,64c-0.553,0-1-0.447-1-1V17.007c0-0.553,0.447-1,1-1s1,0.447,1,1V63C46.999,63.553,46.552,64,45.999,64z"/>
		</g>
		<g>
			<path d="M47.999,61.999h-4c-0.553,0-1-0.447-1-1s0.447-1,1-1h4c0.553,0,1,0.447,1,1S48.552,61.999,47.999,61.999z"/>
		</g>
		<g>
			<path d="M47.499,18.007h-3c-0.553,0-1-0.447-1-1V4.003c0-0.553,0.447-1,1-1h3c0.553,0,1,0.447,1,1v13.004
				C48.499,17.56,48.052,18.007,47.499,18.007z M45.499,16.007h1V5.003h-1V16.007z"/>
		</g>
		<g>
			<path d="M50.496,8c-2.204,0-3.997-1.793-3.997-3.997c0-0.553,0.447-1,1-1s1,0.447,1,1C48.499,5.104,49.395,6,50.496,6
				c0.553,0,1,0.447,1,1S51.049,8,50.496,8z"/>
		</g>
		<g>
			<path d="M50.496,18c-0.553,0-1-0.447-1-1V7c0-0.553,0.447-1,1-1s1,0.447,1,1v10C51.496,17.553,51.049,18,50.496,18z"/>
		</g>
	</g>
	<g>
		<g>
			<path d="M18.001,64c-0.553,0-1-0.447-1-1V17.007c0-0.553,0.447-1,1-1s1,0.447,1,1V63C19.001,63.553,18.554,64,18.001,64z"/>
		</g>
		<g>
			<path d="M20.001,61.999h-4c-0.553,0-1-0.447-1-1s0.447-1,1-1h4c0.553,0,1,0.447,1,1S20.554,61.999,20.001,61.999z"/>
		</g>
		<g>
			<path d="M19.501,18.007h-3c-0.553,0-1-0.447-1-1V4.003c0-0.553,0.447-1,1-1h3c0.553,0,1,0.447,1,1v13.004
				C20.501,17.56,20.054,18.007,19.501,18.007z M17.501,16.007h1V5.003h-1V16.007z"/>
		</g>
		<g>
			<path d="M13.504,8c-0.553,0-1-0.447-1-1s0.447-1,1-1c1.102,0,1.997-0.896,1.997-1.997c0-0.553,0.447-1,1-1s1,0.447,1,1
				C17.501,6.207,15.708,8,13.504,8z"/>
		</g>
		<g>
			<path d="M13.504,18c-0.553,0-1-0.447-1-1V7c0-0.553,0.447-1,1-1s1,0.447,1,1v10C14.504,17.553,14.057,18,13.504,18z"/>
		</g>
	</g>
</g>
</svg>
