<?xml version="1.0" encoding="utf-8"?>
<!-- Generator: Adobe Illustrator 16.0.0, SVG Export Plug-In . SVG Version: 6.00 Build 0)  -->
<!DOCTYPE svg PUBLIC "-//W3C//DTD SVG 1.1//EN" "http://www.w3.org/Graphics/SVG/1.1/DTD/svg11.dtd">
<svg version="1.1" id="icons" xmlns="http://www.w3.org/2000/svg" xmlns:xlink="http://www.w3.org/1999/xlink" x="0px" y="0px"
	 width="64px" height="64px" viewBox="0 0 64 64" enable-background="new 0 0 64 64" xml:space="preserve">
<g>
	<g>
		<polygon fill="#FFCE54" points="61.5,30.99 62.5,30.99 62.5,41 61.5,41 57.5,41 56.5,41 56.5,30.99 57.5,30.99 		"/>
	</g>
	<g>
		<rect x="57.5" y="26.99" fill="#F6BB42" width="4" height="4"/>
	</g>
	<g>
		<path fill="#E6E9ED" d="M49.5,14.99c6.62,0,12,5.38,12,12h-4c0-4.41-3.59-8-8-8c-4.42,0-8,3.59-8,8V45.02c0,4.42,3.58,8,8,8
			c4.41,0,8-3.58,8-8h4c0,6.62-5.38,12-12,12c-6.63,0-12-5.38-12-12V26.99C37.5,20.37,42.87,14.99,49.5,14.99z"/>
	</g>
	<g>
		<polygon fill="#F6BB42" points="61.5,45.01 61.5,45.02 57.5,45.02 57.5,45.01 57.5,41.01 57.5,41 61.5,41 61.5,41.01 		"/>
	</g>
	<g>
		<g>
			<path fill="#965353" d="M29.76,31.76c1.08,1.09,1.75,2.58,1.75,4.24s-0.67,3.149-1.75,4.24l-2.83-2.82
				c0.36-0.37,0.58-0.87,0.58-1.42s-0.22-1.05-0.58-1.41L29.76,31.76z"/>
		</g>
		<g>
			<path fill="#965353" d="M12.51,30.01l-4,4H7.5c-1.66,0-3.16-0.67-4.24-1.76l2.83-2.83c0.36,0.37,0.85,0.59,1.41,0.59H12.51z"/>
		</g>
		<g>
			<path fill="#965353" d="M8.55,22.01l3.939,3.93v0.07H7.5c-0.55,0-1.05,0.22-1.41,0.58l-2.83-2.82c1.08-1.09,2.58-1.76,4.24-1.76
				H8.55z"/>
		</g>
		<g>
			<polygon fill="#965353" points="22.51,30.01 22.52,30 24.52,30 24.52,30.01 20.52,34.01 14.52,34.01 18.52,30.01 			"/>
		</g>
		<g>
			<polygon fill="#965353" points="19.52,6.93 19.52,12.939 19.489,12.939 15.52,8.979 15.52,2.96 19.489,6.93 			"/>
		</g>
		<g>
			<path fill="#965353" d="M19.489,18.96h0.03v1.03V20c0,1.66-0.67,3.16-1.76,4.25l-2.83-2.83c0.37-0.37,0.59-0.87,0.59-1.42v-0.01
				v-5L19.489,18.96z"/>
		</g>
		<g>
			<polygon fill="#965353" points="17.479,61 17.52,61 17.52,63 13.52,63 13.52,57.03 			"/>
		</g>
		<g>
			<path fill="#965353" d="M20.52,38l3.99,3.99V42h-4.99c-0.56,0-1.06,0.229-1.42,0.59l-2.83-2.83c1.08-1.09,2.59-1.76,4.25-1.76
				H20.52z"/>
		</g>
		<g>
			<polygon fill="#965353" points="17.52,48.97 17.52,54.979 17.479,54.979 13.52,51.02 13.52,45 17.479,48.97 			"/>
		</g>
	</g>
	<g>
		<g>
			<path fill="#844747" d="M6.09,29.42l-2.83,2.83c-1.09-1.08-1.76-2.58-1.76-4.24s0.67-3.16,1.76-4.24l2.83,2.82
				c-0.37,0.36-0.59,0.86-0.59,1.42C5.5,28.56,5.729,29.07,6.09,29.42z"/>
		</g>
		<g>
			<polygon fill="#844747" points="19.52,1 19.52,6.93 19.489,6.93 15.52,2.96 15.52,1 			"/>
		</g>
		<g>
			<path fill="#844747" d="M12.489,25.939L8.55,22.01h4.95L13.52,22c0.55,0,1.05-0.22,1.41-0.58l2.83,2.83
				C16.68,25.33,15.18,26,13.52,26l-0.02,0.01h-1.011V25.939z"/>
		</g>
		<g>
			<path fill="#844747" d="M25.51,30c1.66,0,3.17,0.67,4.25,1.76l-2.83,2.83c-0.37-0.36-0.87-0.59-1.42-0.59h-5l3.99-3.99V30H25.51z
				"/>
		</g>
		<g>
			<polygon fill="#844747" points="16.5,30.01 16.51,30 18.51,30 18.51,30.01 14.51,34.01 8.51,34.01 12.51,30.01 			"/>
		</g>
		<g>
			<path fill="#844747" d="M15.27,39.76l2.83,2.83c-0.36,0.36-0.58,0.86-0.58,1.41v0.01v4.96h-0.04L13.52,45v-0.99V44
				C13.52,42.34,14.189,40.85,15.27,39.76z"/>
		</g>
		<g>
			<path fill="#844747" d="M25.51,42h-1v-0.01L20.52,38h4.99c0.55,0,1.05-0.22,1.42-0.58l2.83,2.82C28.68,41.33,27.17,42,25.51,42z"
				/>
		</g>
		<g>
			<polygon fill="#844747" points="19.52,12.939 19.52,18.96 19.489,18.96 15.52,14.99 15.52,8.979 19.489,12.939 			"/>
		</g>
		<g>
			<polygon fill="#844747" points="17.52,54.979 17.52,61 17.479,61 13.52,57.03 13.52,51.02 17.479,54.979 			"/>
		</g>
	</g>
</g>
<g>
	<g>
		<g>
			<path d="M13.52,63.999c-0.553,0-1-0.447-1-1V44.011c0-0.553,0.447-1,1-1s1,0.447,1,1v18.988
				C14.52,63.552,14.072,63.999,13.52,63.999z"/>
		</g>
		<g>
			<path d="M17.52,63.999c-0.553,0-1-0.447-1-1V44.011c0-0.553,0.447-1,1-1s1,0.447,1,1v18.988
				C18.52,63.552,18.072,63.999,17.52,63.999z"/>
		</g>
		<g>
			<path d="M13.52,44.999c-0.553,0-1-0.447-1-1c0-3.859,3.141-7,7-7c0.553,0,1,0.447,1,1s-0.447,1-1,1c-2.757,0-5,2.243-5,5
				C14.52,44.552,14.072,44.999,13.52,44.999z"/>
		</g>
		<g>
			<path d="M17.52,44.999c-0.553,0-1-0.447-1-1c0-1.654,1.346-3,3-3c0.553,0,1,0.447,1,1s-0.447,1-1,1c-0.552,0-1,0.448-1,1
				C18.52,44.552,18.072,44.999,17.52,44.999z"/>
		</g>
		<g>
			<path d="M18.105,43.585c-0.256,0-0.512-0.098-0.707-0.293l-2.83-2.829c-0.391-0.391-0.391-1.023,0-1.414s1.023-0.391,1.414,0
				l2.83,2.829c0.391,0.391,0.391,1.023,0,1.414C18.617,43.487,18.361,43.585,18.105,43.585z"/>
		</g>
		<g>
			<path d="M19.52,20.99c-0.553,0-1-0.447-1-1V1.001c0-0.553,0.447-1,1-1s1,0.447,1,1V19.99C20.52,20.543,20.072,20.99,19.52,20.99z
				"/>
		</g>
		<g>
			<path d="M15.52,20.99c-0.553,0-1-0.447-1-1V1.001c0-0.553,0.447-1,1-1s1,0.447,1,1V19.99C16.52,20.543,16.072,20.99,15.52,20.99z
				"/>
		</g>
		<g>
			<path d="M13.52,27.002c-0.553,0-1-0.447-1-1s0.447-1,1-1c2.757,0,5-2.243,5-5c0-0.553,0.447-1,1-1s1,0.447,1,1
				C20.52,23.861,17.379,27.002,13.52,27.002z"/>
		</g>
		<g>
			<path d="M13.52,23.002c-0.553,0-1-0.447-1-1s0.447-1,1-1c0.552,0,1-0.448,1-1c0-0.553,0.447-1,1-1s1,0.447,1,1
				C16.52,21.656,15.174,23.002,13.52,23.002z"/>
		</g>
		<g>
			<path d="M17.762,25.245c-0.256,0-0.512-0.098-0.707-0.293l-2.828-2.829c-0.391-0.391-0.391-1.023,0-1.414s1.023-0.391,1.414,0
				l2.828,2.829c0.391,0.391,0.391,1.023,0,1.414C18.273,25.147,18.018,25.245,17.762,25.245z"/>
		</g>
		<g>
			<g>
				<path d="M25.516,42.999c-0.553,0-1-0.447-1-1s0.447-1,1-1c2.757,0,5-2.243,5-5c0-0.553,0.447-1,1-1s1,0.447,1,1
					C32.516,39.858,29.375,42.999,25.516,42.999z"/>
			</g>
			<g>
				<path d="M25.516,38.999c-0.553,0-1-0.447-1-1s0.447-1,1-1c0.552,0,1-0.448,1-1c0-0.553,0.447-1,1-1s1,0.447,1,1
					C28.516,37.653,27.17,38.999,25.516,38.999z"/>
			</g>
			<g>
				<path d="M29.76,41.242c-0.256,0-0.512-0.098-0.707-0.293l-2.83-2.829c-0.391-0.391-0.391-1.023,0-1.414s1.023-0.391,1.414,0
					l2.83,2.829c0.391,0.391,0.391,1.023,0,1.414C30.271,41.145,30.016,41.242,29.76,41.242z"/>
			</g>
			<g>
				<path d="M31.518,36.999c-0.553,0-1-0.447-1-1c0-2.757-2.243-5-5-5c-0.553,0-1-0.447-1-1s0.447-1,1-1c3.859,0,7,3.141,7,7
					C32.518,36.552,32.07,36.999,31.518,36.999z"/>
			</g>
			<g>
				<path d="M27.518,36.999c-0.553,0-1-0.447-1-1c0-0.552-0.448-1-1-1c-0.553,0-1-0.447-1-1s0.447-1,1-1c1.654,0,3,1.346,3,3
					C28.518,36.552,28.07,36.999,27.518,36.999z"/>
			</g>
			<g>
				<path d="M26.932,35.585c-0.256,0-0.512-0.098-0.707-0.293c-0.391-0.391-0.391-1.023,0-1.414l2.83-2.829
					c0.391-0.391,1.023-0.391,1.414,0s0.391,1.023,0,1.414l-2.83,2.829C27.443,35.487,27.188,35.585,26.932,35.585z"/>
			</g>
			<g>
				<path d="M25.516,42.999H19.52c-0.553,0-1-0.447-1-1s0.447-1,1-1h5.996c0.553,0,1,0.447,1,1S26.068,42.999,25.516,42.999z"/>
			</g>
			<g>
				<path d="M25.516,38.999H19.52c-0.553,0-1-0.447-1-1s0.447-1,1-1h5.996c0.553,0,1,0.447,1,1S26.068,38.999,25.516,38.999z"/>
			</g>
			<g>
				<path d="M25.516,34.999h-9c-0.553,0-1-0.447-1-1s0.447-1,1-1h9c0.553,0,1,0.447,1,1S26.068,34.999,25.516,34.999z"/>
			</g>
			<g>
				<path d="M25.516,30.999h-9c-0.553,0-1-0.447-1-1s0.447-1,1-1h9c0.553,0,1,0.447,1,1S26.068,30.999,25.516,30.999z"/>
			</g>
		</g>
		<g>
			<g>
				<path d="M1.504,29.007c-0.553,0-1-0.447-1-1c0-3.859,3.141-7,7-7c0.553,0,1,0.447,1,1s-0.447,1-1,1c-2.757,0-5,2.243-5,5
					C2.504,28.56,2.057,29.007,1.504,29.007z"/>
			</g>
			<g>
				<path d="M5.504,29.007c-0.553,0-1-0.447-1-1c0-1.654,1.346-3,3-3c0.553,0,1,0.447,1,1s-0.447,1-1,1c-0.552,0-1,0.448-1,1
					C6.504,28.56,6.057,29.007,5.504,29.007z"/>
			</g>
			<g>
				<path d="M6.09,27.593c-0.256,0-0.512-0.098-0.707-0.293l-2.83-2.829c-0.391-0.391-0.391-1.023,0-1.414s1.023-0.391,1.414,0
					l2.83,2.829c0.391,0.391,0.391,1.023,0,1.414C6.602,27.495,6.346,27.593,6.09,27.593z"/>
			</g>
			<g>
				<path d="M7.502,35.007c-3.859,0-7-3.141-7-7c0-0.553,0.447-1,1-1s1,0.447,1,1c0,2.757,2.243,5,5,5c0.553,0,1,0.447,1,1
					S8.055,35.007,7.502,35.007z"/>
			</g>
			<g>
				<path d="M7.502,31.007c-1.654,0-3-1.346-3-3c0-0.553,0.447-1,1-1s1,0.447,1,1c0,0.552,0.448,1,1,1c0.553,0,1,0.447,1,1
					S8.055,31.007,7.502,31.007z"/>
			</g>
			<g>
				<path d="M3.258,33.25c-0.256,0-0.512-0.098-0.707-0.293c-0.391-0.391-0.391-1.023,0-1.414l2.83-2.829
					c0.391-0.391,1.023-0.391,1.414,0s0.391,1.023,0,1.414l-2.83,2.829C3.77,33.152,3.514,33.25,3.258,33.25z"/>
			</g>
			<g>
				<path d="M13.5,23.007H7.504c-0.553,0-1-0.447-1-1s0.447-1,1-1H13.5c0.553,0,1,0.447,1,1S14.053,23.007,13.5,23.007z"/>
			</g>
			<g>
				<path d="M13.5,27.007H7.504c-0.553,0-1-0.447-1-1s0.447-1,1-1H13.5c0.553,0,1,0.447,1,1S14.053,27.007,13.5,27.007z"/>
			</g>
			<g>
				<path d="M16.504,31.007h-9c-0.553,0-1-0.447-1-1s0.447-1,1-1h9c0.553,0,1,0.447,1,1S17.057,31.007,16.504,31.007z"/>
			</g>
			<g>
				<path d="M16.504,35.007h-9c-0.553,0-1-0.447-1-1s0.447-1,1-1h9c0.553,0,1,0.447,1,1S17.057,35.007,16.504,35.007z"/>
			</g>
		</g>
		<g>
			<path d="M8.516,35.007c-0.256,0-0.512-0.098-0.707-0.293c-0.391-0.391-0.391-1.023,0-1.414l4-4c0.391-0.391,1.023-0.391,1.414,0
				s0.391,1.023,0,1.414l-4,4C9.027,34.909,8.771,35.007,8.516,35.007z"/>
		</g>
		<g>
			<path d="M14.51,35.007c-0.256,0-0.512-0.098-0.707-0.293c-0.391-0.391-0.391-1.023,0-1.414l4-4c0.391-0.391,1.023-0.391,1.414,0
				s0.391,1.023,0,1.414l-4,4C15.021,34.909,14.766,35.007,14.51,35.007z"/>
		</g>
		<g>
			<path d="M20.502,35.007c-0.256,0-0.512-0.098-0.707-0.293c-0.391-0.391-0.391-1.023,0-1.414l4-4c0.391-0.391,1.023-0.391,1.414,0
				s0.391,1.023,0,1.414l-4,4C21.014,34.909,20.758,35.007,20.502,35.007z"/>
		</g>
		<g>
			<path d="M12.488,26.941c-0.256,0-0.512-0.098-0.707-0.293l-3.936-3.935c-0.391-0.391-0.391-1.023,0-1.414s1.023-0.391,1.414,0
				l3.936,3.935c0.391,0.391,0.391,1.023,0,1.414C13,26.844,12.744,26.941,12.488,26.941z"/>
		</g>
		<g>
			<path d="M24.512,42.99c-0.256,0-0.512-0.098-0.707-0.293l-3.99-3.991c-0.391-0.391-0.391-1.023,0-1.414s1.023-0.391,1.414,0
				l3.99,3.991c0.391,0.391,0.391,1.023,0,1.414C25.023,42.893,24.768,42.99,24.512,42.99z"/>
		</g>
		<g>
			<g>
				<path d="M17.486,49.966c-0.256,0-0.512-0.098-0.707-0.293l-3.967-3.967c-0.391-0.391-0.391-1.023,0-1.414s1.023-0.391,1.414,0
					l3.967,3.967c0.391,0.391,0.391,1.023,0,1.414C17.998,49.868,17.742,49.966,17.486,49.966z"/>
			</g>
			<g>
				<path d="M17.486,55.982c-0.256,0-0.512-0.098-0.707-0.293l-3.967-3.967c-0.391-0.391-0.391-1.023,0-1.414s1.023-0.391,1.414,0
					l3.967,3.967c0.391,0.391,0.391,1.023,0,1.414C17.998,55.885,17.742,55.982,17.486,55.982z"/>
			</g>
			<g>
				<path d="M17.486,61.999c-0.256,0-0.512-0.098-0.707-0.293l-3.967-3.967c-0.391-0.391-0.391-1.023,0-1.414s1.023-0.391,1.414,0
					l3.967,3.967c0.391,0.391,0.391,1.023,0,1.414C17.998,61.901,17.742,61.999,17.486,61.999z"/>
			</g>
		</g>
		<g>
			<g>
				<path d="M19.488,7.925c-0.256,0-0.512-0.098-0.707-0.293l-3.967-3.967c-0.391-0.391-0.391-1.023,0-1.414s1.023-0.391,1.414,0
					l3.967,3.967c0.391,0.391,0.391,1.023,0,1.414C20,7.827,19.744,7.925,19.488,7.925z"/>
			</g>
			<g>
				<path d="M19.488,13.941c-0.256,0-0.512-0.098-0.707-0.293l-3.967-3.967c-0.391-0.391-0.391-1.023,0-1.414s1.023-0.391,1.414,0
					l3.967,3.967c0.391,0.391,0.391,1.023,0,1.414C20,13.844,19.744,13.941,19.488,13.941z"/>
			</g>
			<g>
				<path d="M19.488,19.958c-0.256,0-0.512-0.098-0.707-0.293l-3.967-3.967c-0.391-0.391-0.391-1.023,0-1.414s1.023-0.391,1.414,0
					l3.967,3.967c0.391,0.391,0.391,1.023,0,1.414C20,19.86,19.744,19.958,19.488,19.958z"/>
			</g>
		</g>
	</g>
	<g>
		<g>
			<path d="M61.498,27.992c-0.553,0-1-0.447-1-1c0-6.065-4.935-11-11-11s-11,4.935-11,11c0,0.553-0.447,1-1,1s-1-0.447-1-1
				c0-7.168,5.832-13,13-13s13,5.832,13,13C62.498,27.545,62.051,27.992,61.498,27.992z"/>
		</g>
		<g>
			<path d="M57.498,27.992c-0.553,0-1-0.447-1-1c0-3.859-3.141-7-7-7s-7,3.141-7,7c0,0.553-0.447,1-1,1s-1-0.447-1-1
				c0-4.963,4.037-9,9-9s9,4.037,9,9C58.498,27.545,58.051,27.992,57.498,27.992z"/>
		</g>
		<g>
			<path d="M49.498,58.016c-7.168,0-13-5.832-13-13c0-0.553,0.447-1,1-1s1,0.447,1,1c0,6.065,4.935,11,11,11s11-4.935,11-11
				c0-0.553,0.447-1,1-1s1,0.447,1,1C62.498,52.184,56.666,58.016,49.498,58.016z"/>
		</g>
		<g>
			<path d="M49.498,54.016c-4.963,0-9-4.037-9-9c0-0.553,0.447-1,1-1s1,0.447,1,1c0,3.859,3.141,7,7,7s7-3.141,7-7
				c0-0.553,0.447-1,1-1s1,0.447,1,1C58.498,49.979,54.461,54.016,49.498,54.016z"/>
		</g>
		<g>
			<path d="M37.498,46.016c-0.553,0-1-0.447-1-1V26.992c0-0.553,0.447-1,1-1s1,0.447,1,1v18.023
				C38.498,45.568,38.051,46.016,37.498,46.016z"/>
		</g>
		<g>
			<path d="M41.498,46.016c-0.553,0-1-0.447-1-1V26.992c0-0.553,0.447-1,1-1s1,0.447,1,1v18.023
				C42.498,45.568,42.051,46.016,41.498,46.016z"/>
		</g>
		<g>
			<path d="M61.498,46.016h-4c-0.553,0-1-0.447-1-1s0.447-1,1-1h4c0.553,0,1,0.447,1,1S62.051,46.016,61.498,46.016z"/>
		</g>
		<g>
			<path d="M61.498,27.992h-4c-0.553,0-1-0.447-1-1s0.447-1,1-1h4c0.553,0,1,0.447,1,1S62.051,27.992,61.498,27.992z"/>
		</g>
		<g>
			<path d="M62.498,41.998h-6c-0.553,0-1-0.447-1-1V30.992c0-0.553,0.447-1,1-1h6c0.553,0,1,0.447,1,1v10.006
				C63.498,41.551,63.051,41.998,62.498,41.998z M57.498,39.998h4v-8.006h-4V39.998z"/>
		</g>
		<g>
			<path d="M61.498,31.998c-0.553,0-1-0.447-1-1v-4.006c0-0.553,0.447-1,1-1s1,0.447,1,1v4.006
				C62.498,31.551,62.051,31.998,61.498,31.998z"/>
		</g>
		<g>
			<path d="M57.498,31.998c-0.553,0-1-0.447-1-1v-4.006c0-0.553,0.447-1,1-1s1,0.447,1,1v4.006
				C58.498,31.551,58.051,31.998,57.498,31.998z"/>
		</g>
		<g>
			<path d="M61.498,46.012c-0.553,0-1-0.447-1-1v-4.006c0-0.553,0.447-1,1-1s1,0.447,1,1v4.006
				C62.498,45.564,62.051,46.012,61.498,46.012z"/>
		</g>
		<g>
			<path d="M57.498,46.012c-0.553,0-1-0.447-1-1v-4.006c0-0.553,0.447-1,1-1s1,0.447,1,1v4.006
				C58.498,45.564,58.051,46.012,57.498,46.012z"/>
		</g>
	</g>
</g>
</svg>
