<?xml version="1.0" encoding="utf-8"?>
<!-- Generator: Adobe Illustrator 16.0.0, SVG Export Plug-In . SVG Version: 6.00 Build 0)  -->
<!DOCTYPE svg PUBLIC "-//W3C//DTD SVG 1.1//EN" "http://www.w3.org/Graphics/SVG/1.1/DTD/svg11.dtd">
<svg version="1.1" id="icons" xmlns="http://www.w3.org/2000/svg" xmlns:xlink="http://www.w3.org/1999/xlink" x="0px" y="0px"
	 width="64px" height="64px" viewBox="0 0 64 64" enable-background="new 0 0 64 64" xml:space="preserve">
<g>
	<g>
		<path fill="#E6E9ED" d="M31.99,26.018c9.939,0,18,8.061,18,18c0,1.021-0.08,2.021-0.25,2.99h-35.5c-0.16-0.97-0.25-1.97-0.25-2.99
			C13.99,34.078,22.05,26.018,31.99,26.018z"/>
	</g>
	<g>
		<path fill="#CCD1D9" d="M31.99,26.018c-0.678,0-1.344,0.045-2.002,0.117c8.996,0.998,15.998,8.621,15.998,17.883
			c0,1.021-0.08,2.021-0.25,2.99h4.004c0.17-0.97,0.25-1.97,0.25-2.99C49.99,34.078,41.93,26.018,31.99,26.018z"/>
	</g>
	<g>
		<path fill="#FFD2A6" d="M63,47.008v17H1v-17h6c0-2.77,2.24-5,5-5v0.021c1.1,0,1.99,0.89,1.99,1.989c0,1.021,0.09,2.021,0.25,2.99
			h35.5c0.17-0.97,0.25-1.97,0.25-2.99H50c0-1.1,0.89-1.989,1.99-1.989v-0.021c2.76,0,5,2.23,5,5H63z"/>
	</g>
</g>
<g>
	<g>
		<path d="M7.002,48.006H1c-0.553,0-1-0.447-1-1s0.447-1,1-1h6.002c0.553,0,1,0.447,1,1S7.555,48.006,7.002,48.006z"/>
	</g>
	<g>
		<path d="M49.745,48.006c-0.055,0-0.111-0.005-0.168-0.014c-0.544-0.093-0.911-0.608-0.819-1.153
			c0.155-0.919,0.234-1.868,0.234-2.821c0-9.374-7.626-17-17-17c-9.373,0-16.998,7.626-16.998,17c0,0.948,0.078,1.898,0.232,2.824
			c0.091,0.544-0.277,1.06-0.822,1.15c-0.545,0.096-1.06-0.277-1.15-0.822c-0.173-1.033-0.26-2.095-0.26-3.152
			c0-10.477,8.522-19,18.998-19c10.477,0,19,8.523,19,19c0,1.064-0.088,2.126-0.262,3.155
			C50.647,47.661,50.225,48.006,49.745,48.006z"/>
	</g>
	<g>
		<path d="M13.994,45.018c-0.553,0-1-0.447-1-1c0-0.548-0.446-0.994-0.994-0.994c-0.553,0-1-0.447-1-1s0.447-1,1-1
			c1.651,0,2.994,1.343,2.994,2.994C14.994,44.57,14.547,45.018,13.994,45.018z"/>
	</g>
	<g>
		<path d="M7.002,48.006c-0.553,0-1-0.447-1-1c0-3.309,2.691-6,6-6c0.553,0,1,0.447,1,1s-0.447,1-1,1c-2.206,0-4,1.794-4,4
			C8.002,47.559,7.555,48.006,7.002,48.006z"/>
	</g>
	<g>
		<path d="M50,45.018c-0.553,0-1-0.447-1-1c0-1.651,1.343-2.994,2.994-2.994c0.553,0,1,0.447,1,1s-0.447,1-1,1
			c-0.548,0-0.994,0.446-0.994,0.994C51,44.57,50.553,45.018,50,45.018z"/>
	</g>
	<g>
		<path d="M56.992,48.006c-0.553,0-1-0.447-1-1c0-2.206-1.794-4-4-4c-0.553,0-1-0.447-1-1s0.447-1,1-1c3.309,0,6,2.691,6,6
			C57.992,47.559,57.545,48.006,56.992,48.006z"/>
	</g>
	<g>
		<path d="M49.744,48.006H14.24c-0.553,0-1-0.447-1-1s0.447-1,1-1h35.504c0.553,0,1,0.447,1,1S50.297,48.006,49.744,48.006z"/>
	</g>
	<g>
		<path d="M63,48.006h-6.008c-0.553,0-1-0.447-1-1s0.447-1,1-1H63c0.553,0,1,0.447,1,1S63.553,48.006,63,48.006z"/>
	</g>
	<g>
		<g>
			<path d="M2.03,63.004c-0.553,0-1.005-0.447-1.005-1s0.442-1,0.994-1H2.03c0.552,0,1,0.447,1,1S2.582,63.004,2.03,63.004z"/>
		</g>
		<g>
			<path d="M2.03,57.004c-0.553,0-1.005-0.447-1.005-1s0.442-1,0.994-1H2.03c0.552,0,1,0.447,1,1S2.582,57.004,2.03,57.004z"/>
		</g>
		<g>
			<path d="M5.03,60.004c-0.553,0-1.005-0.447-1.005-1s0.442-1,0.994-1H5.03c0.552,0,1,0.447,1,1S5.582,60.004,5.03,60.004z"/>
		</g>
		<g>
			<path d="M8.03,63.004c-0.553,0-1.005-0.447-1.005-1s0.442-1,0.994-1H8.03c0.552,0,1,0.447,1,1S8.582,63.004,8.03,63.004z"/>
		</g>
		<g>
			<path d="M2.03,51.004c-0.553,0-1.005-0.447-1.005-1s0.442-1,0.994-1H2.03c0.552,0,1,0.447,1,1S2.582,51.004,2.03,51.004z"/>
		</g>
		<g>
			<path d="M5.03,54.004c-0.553,0-1.005-0.447-1.005-1s0.442-1,0.994-1H5.03c0.552,0,1,0.447,1,1S5.582,54.004,5.03,54.004z"/>
		</g>
		<g>
			<path d="M8.03,57.004c-0.553,0-1.005-0.447-1.005-1s0.442-1,0.994-1H8.03c0.552,0,1,0.447,1,1S8.582,57.004,8.03,57.004z"/>
		</g>
		<g>
			<path d="M11.03,60.004c-0.553,0-1.005-0.447-1.005-1s0.442-1,0.994-1h0.011c0.552,0,1,0.447,1,1S11.582,60.004,11.03,60.004z"/>
		</g>
		<g>
			<path d="M14.03,63.004c-0.553,0-1.005-0.447-1.005-1s0.442-1,0.994-1h0.011c0.552,0,1,0.447,1,1S14.582,63.004,14.03,63.004z"/>
		</g>
		<g>
			<path d="M8.03,51.004c-0.553,0-1.005-0.447-1.005-1s0.442-1,0.994-1H8.03c0.552,0,1,0.447,1,1S8.582,51.004,8.03,51.004z"/>
		</g>
		<g>
			<path d="M11.03,54.004c-0.553,0-1.005-0.447-1.005-1s0.442-1,0.994-1h0.011c0.552,0,1,0.447,1,1S11.582,54.004,11.03,54.004z"/>
		</g>
		<g>
			<path d="M14.03,57.004c-0.553,0-1.005-0.447-1.005-1s0.442-1,0.994-1h0.011c0.552,0,1,0.447,1,1S14.582,57.004,14.03,57.004z"/>
		</g>
		<g>
			<path d="M17.03,60.004c-0.553,0-1.005-0.447-1.005-1s0.442-1,0.994-1h0.011c0.552,0,1,0.447,1,1S17.582,60.004,17.03,60.004z"/>
		</g>
		<g>
			<path d="M20.03,63.004c-0.553,0-1.005-0.447-1.005-1s0.442-1,0.994-1h0.011c0.552,0,1,0.447,1,1S20.582,63.004,20.03,63.004z"/>
		</g>
		<g>
			<path d="M11.03,48.004c-0.553,0-1.005-0.447-1.005-1s0.442-1,0.994-1h0.011c0.552,0,1,0.447,1,1S11.582,48.004,11.03,48.004z"/>
		</g>
		<g>
			<path d="M14.03,51.004c-0.553,0-1.005-0.447-1.005-1s0.442-1,0.994-1h0.011c0.552,0,1,0.447,1,1S14.582,51.004,14.03,51.004z"/>
		</g>
		<g>
			<path d="M17.03,54.004c-0.553,0-1.005-0.447-1.005-1s0.442-1,0.994-1h0.011c0.552,0,1,0.447,1,1S17.582,54.004,17.03,54.004z"/>
		</g>
		<g>
			<path d="M20.03,57.004c-0.553,0-1.005-0.447-1.005-1s0.442-1,0.994-1h0.011c0.552,0,1,0.447,1,1S20.582,57.004,20.03,57.004z"/>
		</g>
		<g>
			<path d="M23.03,60.004c-0.553,0-1.005-0.447-1.005-1s0.442-1,0.994-1h0.011c0.552,0,1,0.447,1,1S23.582,60.004,23.03,60.004z"/>
		</g>
		<g>
			<path d="M26.03,63.004c-0.553,0-1.005-0.447-1.005-1s0.442-1,0.994-1h0.011c0.552,0,1,0.447,1,1S26.582,63.004,26.03,63.004z"/>
		</g>
		<g>
			<path d="M20.03,51.004c-0.553,0-1.005-0.447-1.005-1s0.442-1,0.994-1h0.011c0.552,0,1,0.447,1,1S20.582,51.004,20.03,51.004z"/>
		</g>
		<g>
			<path d="M23.03,54.004c-0.553,0-1.005-0.447-1.005-1s0.442-1,0.994-1h0.011c0.552,0,1,0.447,1,1S23.582,54.004,23.03,54.004z"/>
		</g>
		<g>
			<path d="M26.03,57.004c-0.553,0-1.005-0.447-1.005-1s0.442-1,0.994-1h0.011c0.552,0,1,0.447,1,1S26.582,57.004,26.03,57.004z"/>
		</g>
		<g>
			<path d="M29.03,60.004c-0.553,0-1.005-0.447-1.005-1s0.442-1,0.994-1h0.011c0.552,0,1,0.447,1,1S29.582,60.004,29.03,60.004z"/>
		</g>
		<g>
			<path d="M32.03,63.004c-0.553,0-1.005-0.447-1.005-1s0.442-1,0.994-1h0.011c0.552,0,1,0.447,1,1S32.582,63.004,32.03,63.004z"/>
		</g>
		<g>
			<path d="M26.03,51.004c-0.553,0-1.005-0.447-1.005-1s0.442-1,0.994-1h0.011c0.552,0,1,0.447,1,1S26.582,51.004,26.03,51.004z"/>
		</g>
		<g>
			<path d="M29.03,54.004c-0.553,0-1.005-0.447-1.005-1s0.442-1,0.994-1h0.011c0.552,0,1,0.447,1,1S29.582,54.004,29.03,54.004z"/>
		</g>
		<g>
			<path d="M32.03,57.004c-0.553,0-1.005-0.447-1.005-1s0.442-1,0.994-1h0.011c0.552,0,1,0.447,1,1S32.582,57.004,32.03,57.004z"/>
		</g>
		<g>
			<path d="M35.03,60.004c-0.553,0-1.005-0.447-1.005-1s0.442-1,0.994-1h0.011c0.552,0,1,0.447,1,1S35.582,60.004,35.03,60.004z"/>
		</g>
		<g>
			<path d="M38.03,63.004c-0.553,0-1.005-0.447-1.005-1s0.442-1,0.994-1h0.011c0.552,0,1,0.447,1,1S38.582,63.004,38.03,63.004z"/>
		</g>
		<g>
			<path d="M32.03,51.004c-0.553,0-1.005-0.447-1.005-1s0.442-1,0.994-1h0.011c0.552,0,1,0.447,1,1S32.582,51.004,32.03,51.004z"/>
		</g>
		<g>
			<path d="M35.03,54.004c-0.553,0-1.005-0.447-1.005-1s0.442-1,0.994-1h0.011c0.552,0,1,0.447,1,1S35.582,54.004,35.03,54.004z"/>
		</g>
		<g>
			<path d="M38.03,57.004c-0.553,0-1.005-0.447-1.005-1s0.442-1,0.994-1h0.011c0.552,0,1,0.447,1,1S38.582,57.004,38.03,57.004z"/>
		</g>
		<g>
			<path d="M41.03,60.004c-0.553,0-1.005-0.447-1.005-1s0.442-1,0.994-1h0.011c0.552,0,1,0.447,1,1S41.582,60.004,41.03,60.004z"/>
		</g>
		<g>
			<path d="M44.03,63.004c-0.553,0-1.005-0.447-1.005-1s0.442-1,0.994-1h0.011c0.552,0,1,0.447,1,1S44.582,63.004,44.03,63.004z"/>
		</g>
		<g>
			<path d="M38.03,51.004c-0.553,0-1.005-0.447-1.005-1s0.442-1,0.994-1h0.011c0.552,0,1,0.447,1,1S38.582,51.004,38.03,51.004z"/>
		</g>
		<g>
			<path d="M41.03,54.004c-0.553,0-1.005-0.447-1.005-1s0.442-1,0.994-1h0.011c0.552,0,1,0.447,1,1S41.582,54.004,41.03,54.004z"/>
		</g>
		<g>
			<path d="M44.03,57.004c-0.553,0-1.005-0.447-1.005-1s0.442-1,0.994-1h0.011c0.552,0,1,0.447,1,1S44.582,57.004,44.03,57.004z"/>
		</g>
		<g>
			<path d="M47.03,60.004c-0.553,0-1.005-0.447-1.005-1s0.442-1,0.994-1h0.011c0.552,0,1,0.447,1,1S47.582,60.004,47.03,60.004z"/>
		</g>
		<g>
			<path d="M50.03,63.004c-0.553,0-1.005-0.447-1.005-1s0.442-1,0.994-1h0.011c0.552,0,1,0.447,1,1S50.582,63.004,50.03,63.004z"/>
		</g>
		<g>
			<path d="M44.03,51.004c-0.553,0-1.005-0.447-1.005-1s0.442-1,0.994-1h0.011c0.552,0,1,0.447,1,1S44.582,51.004,44.03,51.004z"/>
		</g>
		<g>
			<path d="M47.03,54.004c-0.553,0-1.005-0.447-1.005-1s0.442-1,0.994-1h0.011c0.552,0,1,0.447,1,1S47.582,54.004,47.03,54.004z"/>
		</g>
		<g>
			<path d="M50.03,57.004c-0.553,0-1.005-0.447-1.005-1s0.442-1,0.994-1h0.011c0.552,0,1,0.447,1,1S50.582,57.004,50.03,57.004z"/>
		</g>
		<g>
			<path d="M53.03,60.004c-0.553,0-1.005-0.447-1.005-1s0.442-1,0.994-1h0.011c0.552,0,1,0.447,1,1S53.582,60.004,53.03,60.004z"/>
		</g>
		<g>
			<path d="M56.03,63.004c-0.553,0-1.005-0.447-1.005-1s0.442-1,0.994-1h0.011c0.552,0,1,0.447,1,1S56.582,63.004,56.03,63.004z"/>
		</g>
		<g>
			<path d="M50.03,51.004c-0.553,0-1.005-0.447-1.005-1s0.442-1,0.994-1h0.011c0.552,0,1,0.447,1,1S50.582,51.004,50.03,51.004z"/>
		</g>
		<g>
			<path d="M53.03,54.004c-0.553,0-1.005-0.447-1.005-1s0.442-1,0.994-1h0.011c0.552,0,1,0.447,1,1S53.582,54.004,53.03,54.004z"/>
		</g>
		<g>
			<path d="M56.03,57.004c-0.553,0-1.005-0.447-1.005-1s0.442-1,0.994-1h0.011c0.552,0,1,0.447,1,1S56.582,57.004,56.03,57.004z"/>
		</g>
		<g>
			<path d="M59.03,60.004c-0.553,0-1.005-0.447-1.005-1s0.442-1,0.994-1h0.011c0.552,0,1,0.447,1,1S59.582,60.004,59.03,60.004z"/>
		</g>
		<g>
			<path d="M62.03,63.004c-0.553,0-1.005-0.447-1.005-1s0.442-1,0.994-1h0.011c0.552,0,1,0.447,1,1S62.582,63.004,62.03,63.004z"/>
		</g>
		<g>
			<path d="M53.03,48.004c-0.553,0-1.005-0.447-1.005-1s0.442-1,0.994-1h0.011c0.552,0,1,0.447,1,1S53.582,48.004,53.03,48.004z"/>
		</g>
		<g>
			<path d="M56.03,51.004c-0.553,0-1.005-0.447-1.005-1s0.442-1,0.994-1h0.011c0.552,0,1,0.447,1,1S56.582,51.004,56.03,51.004z"/>
		</g>
		<g>
			<path d="M59.03,54.004c-0.553,0-1.005-0.447-1.005-1s0.442-1,0.994-1h0.011c0.552,0,1,0.447,1,1S59.582,54.004,59.03,54.004z"/>
		</g>
		<g>
			<path d="M62.03,57.004c-0.553,0-1.005-0.447-1.005-1s0.442-1,0.994-1h0.011c0.552,0,1,0.447,1,1S62.582,57.004,62.03,57.004z"/>
		</g>
		<g>
			<path d="M62.03,51.004c-0.553,0-1.005-0.447-1.005-1s0.442-1,0.994-1h0.011c0.552,0,1,0.447,1,1S62.582,51.004,62.03,51.004z"/>
		</g>
	</g>
	<g>
		<path d="M27.002,22.998c-0.553,0-1-0.447-1-1V1.996c0-0.553,0.447-1,1-1s1,0.447,1,1v20.002
			C28.002,22.551,27.555,22.998,27.002,22.998z"/>
	</g>
	<g>
		<path d="M21.998,25c-0.553,0-1-0.447-1-1V9.994c0-0.553,0.447-1,1-1s1,0.447,1,1V24C22.998,24.553,22.551,25,21.998,25z"/>
	</g>
	<g>
		<path d="M41.994,25c-0.553,0-1-0.447-1-1V13.998c0-0.553,0.447-1,1-1s1,0.447,1,1V24C42.994,24.553,42.547,25,41.994,25z"/>
	</g>
	<g>
		<path d="M31.996,20.998c-0.553,0-1-0.447-1-1V10c0-0.553,0.447-1,1-1s1,0.447,1,1v9.998
			C32.996,20.551,32.549,20.998,31.996,20.998z"/>
	</g>
	<g>
		<path d="M36.992,22.998c-0.553,0-1-0.447-1-1V3.992c0-0.553,0.447-1,1-1s1,0.447,1,1v18.006
			C37.992,22.551,37.545,22.998,36.992,22.998z"/>
	</g>
	<g>
		<path d="M53.03,34.008c-0.553,0-1.005-0.447-1.005-1s0.442-1,0.994-1h0.011c0.552,0,1,0.447,1,1S53.582,34.008,53.03,34.008z"/>
	</g>
	<g>
		<path d="M57.034,38.012c-0.553,0-1.005-0.447-1.005-1s0.442-1,0.994-1h0.011c0.552,0,1,0.447,1,1S57.586,38.012,57.034,38.012z"/>
	</g>
	<g>
		<path d="M58.034,31.006c-0.553,0-1.005-0.447-1.005-1s0.442-1,0.994-1h0.011c0.552,0,1,0.447,1,1S58.586,31.006,58.034,31.006z"/>
	</g>
	<g>
		<path d="M10.987,34.008c-0.553,0-1.005-0.447-1.005-1s0.442-1,0.994-1h0.011c0.552,0,1,0.447,1,1S11.539,34.008,10.987,34.008z"/>
	</g>
	<g>
		<path d="M5.983,40.014c-0.553,0-1.005-0.447-1.005-1s0.442-1,0.994-1h0.011c0.552,0,1,0.447,1,1S6.535,40.014,5.983,40.014z"/>
	</g>
	<g>
		<path d="M4.981,33.008c-0.553,0-1.005-0.447-1.005-1s0.442-1,0.994-1h0.011c0.552,0,1,0.447,1,1S5.533,33.008,4.981,33.008z"/>
	</g>
</g>
</svg>
