<?xml version="1.0" encoding="utf-8"?>
<!-- Generator: Adobe Illustrator 16.0.0, SVG Export Plug-In . SVG Version: 6.00 Build 0)  -->
<!DOCTYPE svg PUBLIC "-//W3C//DTD SVG 1.1//EN" "http://www.w3.org/Graphics/SVG/1.1/DTD/svg11.dtd">
<svg version="1.1" id="icons" xmlns="http://www.w3.org/2000/svg" xmlns:xlink="http://www.w3.org/1999/xlink" x="0px" y="0px"
	 width="64px" height="64px" viewBox="0 0 64 64" enable-background="new 0 0 64 64" xml:space="preserve">
<g>
	<g>
		<polygon fill="#656D78" points="36.21,10.04 34.6,14.98 29.4,14.98 27.79,10.04 32,6.98 		"/>
	</g>
	<g>
		<path fill="#656D78" d="M32,23c-1.5,0-2.92-0.3-4.22-0.84v-0.01L32,19.94l4.22,2.21v0.01C34.92,22.7,33.5,23,32,23z"/>
	</g>
	<g>
		<path fill="#E6E9ED" d="M29.35,1.33C30.2,1.11,31.09,1,32,1s1.8,0.11,2.65,0.33c4.52,1.11,7.949,5.04,8.31,9.811l-3.37,3.27
			l0.811,4.69c-1.12,1.319-2.551,2.38-4.181,3.06v-0.01L32,19.94l-4.22,2.21v0.01c-1.63-0.68-3.061-1.74-4.181-3.06l0.811-4.69
			l-3.37-3.27C21.4,6.37,24.83,2.44,29.35,1.33z M34.6,14.98l1.61-4.94L32,6.98l-4.21,3.06l1.61,4.94H34.6z"/>
	</g>
	<g>
		<path fill="#EAC6BB" d="M57,43.99V44c-0.01,1.11-1.35,2-3,2s-2.99-0.89-3-2v-0.01v-3.68c0.91,0.439,1.92,0.68,3,0.68
			s2.09-0.24,3-0.68V43.99z"/>
	</g>
	<g>
		<path fill="#656D78" d="M61,29v2l-2-1.979l-0.03-0.011c-0.27,0.11-2.489,1-5.029,1c-2.591,0-4.73-0.93-4.931-1.01L49,29.01
			l-2,2.011V29c0-3.87,3.13-7,7-7S61,25.13,61,29z"/>
	</g>
	<g>
		<g>
			<path fill="#545C66" d="M54,22c-0.516,0-1.018,0.06-1.502,0.165c3.146,0.687,5.499,3.48,5.499,6.835v0.353
				c0.521-0.162,0.876-0.304,0.973-0.343L59,29.021L61,31v-2C61,25.13,57.87,22,54,22z"/>
		</g>
	</g>
	<g>
		<path fill="#5D9CEC" d="M55.5,50.99h-3H45v-4c0-1.66,1.34-3,3-3V44h3c0.01,1.11,1.35,2,3,2s2.99-0.89,3-2h3v-0.01
			c1.66,0,3,1.34,3,3v4H55.5z"/>
	</g>
	<g>
		<path fill="#EAC6BB" d="M61,33.99V34c0,2.79-1.64,5.2-4,6.311c-0.91,0.439-1.92,0.68-3,0.68s-2.09-0.24-3-0.68
			C48.64,39.2,47,36.79,47,34v-0.01v-2.97l2-2.011L49.01,29c0.2,0.08,2.34,1.01,4.931,1.01c2.54,0,4.76-0.89,5.029-1L59,29.021
			L61,31V33.99z"/>
	</g>
	<g>
		<path fill="#D3B1A9" d="M59,29.021l-0.03-0.011c-0.097,0.039-0.451,0.181-0.973,0.343v4.638V34c0,2.79-1.64,5.2-4,6.311
			c-0.474,0.229-0.976,0.4-1.499,0.516c0.483,0.105,0.983,0.164,1.502,0.164c1.08,0,2.09-0.24,3-0.68c2.36-1.11,4-3.521,4-6.311
			v-0.01V31L59,29.021z"/>
	</g>
	<g>
		<path fill="#EAC6BB" d="M36,49.061v3.93c0,1.66-1.79,3.01-4,3.01s-4-1.35-4-3.01v-3.93V49.05c1.2,0.601,2.57,0.94,4,0.94
			s2.8-0.34,4-0.94V49.061z"/>
	</g>
	<g>
		<path fill="#965353" d="M26,35.99l-3,2.03v-3.03c0-4.42,3.58-8,8-8h6v4c2.21,0,4,1.79,4,4v3.03l-3-2.03c0,0-2.01,1-5.5,1
			S26,35.99,26,35.99z"/>
	</g>
	<g>
		<path fill="#844747" d="M41,38.021v-3.03c0-2.21-1.79-4-4-4v-4h-3v4c0,1.657,1.343,3,3,3c0.552,0,1,0.448,1,1v1L41,38.021z"/>
	</g>
	<g>
		<path fill="#EAC6BB" d="M41,38.021V41c0,3.53-2.04,6.58-5,8.05c-1.2,0.601-2.57,0.94-4,0.94s-2.8-0.34-4-0.94
			c-2.95-1.46-4.98-4.489-5-8.01V41v-2.979l3-2.03c0,0,3.01,1,6.5,1s5.5-1,5.5-1L41,38.021z"/>
	</g>
	<g>
		<path fill="#D3B1A9" d="M38,35.99l-0.003,0.001V41c0,3.53-2.04,6.58-5,8.05c-0.771,0.386-1.616,0.649-2.499,0.8
			c0.491,0.083,0.99,0.141,1.502,0.141c1.43,0,2.8-0.34,4-0.94c2.96-1.47,5-4.52,5-8.05v-2.979L38,35.99z"/>
	</g>
	<g>
		<path fill="#5D9CEC" d="M29,63h-8c-0.55,0-1-0.45-1-1v-4.01c0-2.76,2.24-5,5-5h3c0,1.66,1.79,3.01,4,3.01s4-1.35,4-3.01h3
			c2.76,0,5,2.24,5,5V62c0,0.55-0.45,1-1,1h-8h-3H29z"/>
	</g>
	<g>
		<g>
			<path fill="#4A89DC" d="M39,52.99h-3l0,0c2.759,0.002,4.997,2.241,4.997,5V62c0,0.55-0.45,1-1,1H43c0.55,0,1-0.45,1-1v-4.01
				C44,55.23,41.76,52.99,39,52.99z"/>
		</g>
	</g>
	<g>
		<path fill="#F6BB42" d="M17,29.49v1.37c-1.72-2.24-2.76-2.65-4-2.391l1.99-4.069C16.24,25.73,17,27.53,17,29.49z"/>
	</g>
	<g>
		<path fill="#FFCE54" d="M3,30.13c-0.32-0.04-0.65-0.08-1-0.14v-0.5c0-4.14,3.36-7.5,7.5-7.5c2.18,0,4.14,0.93,5.49,2.41L13,28.47
			C11.13,28.86,8.81,30.8,3,30.13z"/>
	</g>
	<g>
		<path fill="#EAC6BB" d="M13,43.99V44c-0.01,1.11-1.35,2-3,2s-2.99-0.89-3-2v-0.01v-3.68c0.91,0.439,1.92,0.68,3,0.68
			s2.09-0.24,3-0.68V43.99z"/>
	</g>
	<g>
		<path fill="#EAC6BB" d="M17,30.86v3.13c0,2.79-1.63,5.2-4,6.32c-0.91,0.439-1.92,0.68-3,0.68s-2.09-0.24-3-0.68
			c-2.37-1.12-4-3.53-4-6.32v-3.86c5.81,0.67,8.13-1.27,10-1.66C14.24,28.21,15.28,28.62,17,30.86z"/>
	</g>
	<g>
		<path fill="#D3B1A9" d="M13.997,28.439v5.551c0,2.79-1.63,5.2-4,6.32c-0.474,0.229-0.976,0.4-1.499,0.516
			C8.981,40.932,9.481,40.99,10,40.99c1.08,0,2.09-0.24,3-0.68c2.37-1.12,4-3.53,4-6.32v-3.13
			C15.754,29.236,14.864,28.582,13.997,28.439z"/>
	</g>
	<g>
		<path fill="#5D9CEC" d="M10,46c1.65,0,2.99-0.89,3-2h3v-0.01c1.66,0,3,1.34,3,3v4h-9H1v-4c0-1.66,1.34-3,3-3V44h3
			C7.01,45.11,8.35,46,10,46z"/>
	</g>
	<g>
		<g>
			<path fill="#4A89DC" d="M16,43.99V44h-2.905c1.613,0.053,2.902,1.363,2.902,2.99v4H19v-4C19,45.33,17.66,43.99,16,43.99z"/>
		</g>
	</g>
	<g>
		<g>
			<path fill="#4A89DC" d="M60,43.99V44h-2.905c1.613,0.053,2.902,1.363,2.902,2.99v4H63v-4C63,45.33,61.66,43.99,60,43.99z"/>
		</g>
	</g>
	<g>
		<path fill="#656D78" d="M42.462,15.399c-0.464,1.427-1.188,2.685-2.103,3.754l-0.009-0.003l-0.798-4.696l3.405-3.331l0.009,0.003
			C43.079,12.529,42.926,13.973,42.462,15.399z"/>
	</g>
	<g>
		<path fill="#656D78" d="M38.466,3.101c1.215,0.882,2.188,1.959,2.921,3.16l-0.005,0.008l-4.713-0.692l-2.117-4.269l0.006-0.007
			C35.928,1.627,37.253,2.219,38.466,3.101z"/>
	</g>
	<g>
		<path fill="#656D78" d="M25.535,3.101c1.214-0.883,2.538-1.475,3.907-1.802l0.007,0.008l-2.116,4.268L22.62,6.27l-0.005-0.008
			C23.349,5.06,24.321,3.981,25.535,3.101z"/>
	</g>
	<g>
		<path fill="#656D78" d="M21.539,15.398c-0.464-1.427-0.618-2.869-0.506-4.272l0.009-0.005l3.405,3.332l-0.795,4.697l-0.01,0.002
			C22.726,18.083,22.001,16.825,21.539,15.398z"/>
	</g>
</g>
<g>
	<g>
		<path d="M3,34.994c-0.553,0-1-0.447-1-1v-3.867c0-0.553,0.447-1,1-1s1,0.447,1,1v3.867C4,34.547,3.553,34.994,3,34.994z"/>
	</g>
	<g>
		<path d="M17,34.994c-0.553,0-1-0.447-1-1v-4.5c0-0.553,0.447-1,1-1s1,0.447,1,1v4.5C18,34.547,17.553,34.994,17,34.994z"/>
	</g>
	<g>
		<path d="M17,30.494c-0.553,0-1-0.447-1-1c0-3.584-2.916-6.5-6.501-6.5C5.915,22.994,3,25.91,3,29.494c0,0.553-0.447,1-1,1
			s-1-0.447-1-1c0-4.687,3.813-8.5,8.499-8.5c4.688,0,8.501,3.813,8.501,8.5C18,30.047,17.553,30.494,17,30.494z"/>
	</g>
	<g>
		<path d="M17.001,31.865c-0.301,0-0.598-0.135-0.795-0.392c-1.931-2.522-2.456-2.313-4.414-1.538
			c-1.879,0.743-4.715,1.87-9.948,1.042c-0.545-0.086-0.918-0.598-0.831-1.144c0.086-0.545,0.601-0.919,1.144-0.831
			c4.693,0.742,7.123-0.223,8.899-0.927c2.408-0.954,4.024-1.362,6.738,2.181c0.336,0.438,0.253,1.066-0.186,1.402
			C17.427,31.798,17.213,31.865,17.001,31.865z"/>
	</g>
	<g>
		<path d="M12.999,29.471c-0.147,0-0.298-0.033-0.439-0.103c-0.496-0.243-0.7-0.843-0.457-1.338l2-4.072
			c0.243-0.497,0.842-0.701,1.338-0.457c0.496,0.243,0.7,0.843,0.457,1.338l-2,4.072C13.724,29.266,13.368,29.471,12.999,29.471z"/>
	</g>
	<g>
		<path d="M1,47.994c-0.553,0-1-0.447-1-1c0-2.206,1.794-4,4-4c0.553,0,1,0.447,1,1s-0.447,1-1,1c-1.103,0-2,0.897-2,2
			C2,47.547,1.553,47.994,1,47.994z"/>
	</g>
	<g>
		<path d="M7,45H4c-0.553,0-1-0.447-1-1s0.447-1,1-1h3c0.553,0,1,0.447,1,1S7.553,45,7,45z"/>
	</g>
	<g>
		<path d="M1,51.998c-0.553,0-1-0.447-1-1v-4.004c0-0.553,0.447-1,1-1s1,0.447,1,1v4.004C2,51.551,1.553,51.998,1,51.998z"/>
	</g>
	<g>
		<path d="M19,47.994c-0.553,0-1-0.447-1-1c0-1.103-0.897-2-2-2c-0.553,0-1-0.447-1-1s0.447-1,1-1c2.206,0,4,1.794,4,4
			C20,47.547,19.553,47.994,19,47.994z"/>
	</g>
	<g>
		<path d="M16,45h-3c-0.553,0-1-0.447-1-1s0.447-1,1-1h3c0.553,0,1,0.447,1,1S16.553,45,16,45z"/>
	</g>
	<g>
		<path d="M19,51.998c-0.553,0-1-0.447-1-1v-4.004c0-0.553,0.447-1,1-1s1,0.447,1,1v4.004C20,51.551,19.553,51.998,19,51.998z"/>
	</g>
	<g>
		<path d="M19,51.998H1c-0.553,0-1-0.447-1-1s0.447-1,1-1h18c0.553,0,1,0.447,1,1S19.553,51.998,19,51.998z"/>
	</g>
	<g>
		<path d="M7,45c-0.553,0-1-0.447-1-1v-3.684c0-0.553,0.447-1,1-1s1,0.447,1,1V44C8,44.553,7.553,45,7,45z"/>
	</g>
	<g>
		<path d="M13,44.994c-0.553,0-1-0.447-1-1v-3.678c0-0.553,0.447-1,1-1s1,0.447,1,1v3.678C14,44.547,13.553,44.994,13,44.994z"/>
	</g>
	<g>
		<path d="M10,41.99c-4.411,0-8-3.589-8-8c0-0.553,0.447-1,1-1s1,0.447,1,1c0,3.309,2.691,6,6,6s6-2.691,6-6c0-0.553,0.447-1,1-1
			s1,0.447,1,1C18,38.401,14.411,41.99,10,41.99z"/>
	</g>
	<g>
		<path d="M45,47.994c-0.553,0-1-0.447-1-1c0-2.206,1.794-4,4-4c0.553,0,1,0.447,1,1s-0.447,1-1,1c-1.103,0-2,0.897-2,2
			C46,47.547,45.553,47.994,45,47.994z"/>
	</g>
	<g>
		<path d="M51,45h-3c-0.553,0-1-0.447-1-1s0.447-1,1-1h3c0.553,0,1,0.447,1,1S51.553,45,51,45z"/>
	</g>
	<g>
		<path d="M45,51.998c-0.553,0-1-0.447-1-1v-4.004c0-0.553,0.447-1,1-1s1,0.447,1,1v4.004C46,51.551,45.553,51.998,45,51.998z"/>
	</g>
	<g>
		<path d="M63,47.994c-0.553,0-1-0.447-1-1c0-1.103-0.897-2-2-2c-0.553,0-1-0.447-1-1s0.447-1,1-1c2.206,0,4,1.794,4,4
			C64,47.547,63.553,47.994,63,47.994z"/>
	</g>
	<g>
		<path d="M60,45h-3c-0.553,0-1-0.447-1-1s0.447-1,1-1h3c0.553,0,1,0.447,1,1S60.553,45,60,45z"/>
	</g>
	<g>
		<path d="M63,51.998c-0.553,0-1-0.447-1-1v-4.004c0-0.553,0.447-1,1-1s1,0.447,1,1v4.004C64,51.551,63.553,51.998,63,51.998z"/>
	</g>
	<g>
		<path d="M63,51.998H45c-0.553,0-1-0.447-1-1s0.447-1,1-1h18c0.553,0,1,0.447,1,1S63.553,51.998,63,51.998z"/>
	</g>
	<g>
		<path d="M51,45c-0.553,0-1-0.447-1-1v-3.684c0-0.553,0.447-1,1-1s1,0.447,1,1V44C52,44.553,51.553,45,51,45z"/>
	</g>
	<g>
		<path d="M57,44.994c-0.553,0-1-0.447-1-1v-3.678c0-0.553,0.447-1,1-1s1,0.447,1,1v3.678C58,44.547,57.553,44.994,57,44.994z"/>
	</g>
	<g>
		<path d="M20,58.998c-0.553,0-1-0.447-1-1c0-3.309,2.691-6,6-6c0.553,0,1,0.447,1,1s-0.447,1-1,1c-2.206,0-4,1.794-4,4
			C21,58.551,20.553,58.998,20,58.998z"/>
	</g>
	<g>
		<path d="M28,53.998h-3c-0.553,0-1-0.447-1-1s0.447-1,1-1h3c0.553,0,1,0.447,1,1S28.553,53.998,28,53.998z"/>
	</g>
	<g>
		<path d="M20,63c-0.553,0-1-0.447-1-1v-4.002c0-0.553,0.447-1,1-1s1,0.447,1,1V62C21,62.553,20.553,63,20,63z"/>
	</g>
	<g>
		<path d="M21,64c-1.103,0-2-0.897-2-2c0-0.531,0.418-0.914,0.948-0.943c0.57-0.038,0.992,0.416,1.052,0.942c0.552,0,1,0.448,1,1
			C22,63.552,21.553,64,21,64z"/>
	</g>
	<g>
		<path d="M44,58.998c-0.553,0-1-0.447-1-1c0-2.206-1.794-4-4-4c-0.553,0-1-0.447-1-1s0.447-1,1-1c3.309,0,6,2.691,6,6
			C45,58.551,44.553,58.998,44,58.998z"/>
	</g>
	<g>
		<path d="M39,53.998h-3c-0.553,0-1-0.447-1-1s0.447-1,1-1h3c0.553,0,1,0.447,1,1S39.553,53.998,39,53.998z"/>
	</g>
	<g>
		<path d="M44,63c-0.553,0-1-0.447-1-1v-4.002c0-0.553,0.447-1,1-1s1,0.447,1,1V62C45,62.553,44.553,63,44,63z"/>
	</g>
	<g>
		<path d="M43,64c-0.553,0-1-0.447-1-1s0.447-1,1-1c0-0.553,0.447-1,1-1s1,0.447,1,1C45,63.103,44.103,64,43,64z"/>
	</g>
	<g>
		<path d="M43,64H21c-0.553,0-1-0.447-1-1s0.447-1,1-1h22c0.553,0,1,0.447,1,1S43.553,64,43,64z"/>
	</g>
	<g>
		<path d="M28,53.998c-0.553,0-1-0.447-1-1v-3.936c0-0.553,0.447-1,1-1s1,0.447,1,1v3.936C29,53.551,28.553,53.998,28,53.998z"/>
	</g>
	<g>
		<path d="M36,53.998c-0.553,0-1-0.447-1-1v-3.936c0-0.553,0.447-1,1-1s1,0.447,1,1v3.936C37,53.551,36.553,53.998,36,53.998z"/>
	</g>
	<g>
		<path d="M31.999,50.998C26.485,50.998,22,46.513,22,41c0-0.553,0.447-1,1-1s1,0.447,1,1c0,4.41,3.588,7.998,7.999,7.998
			C36.411,48.998,40,45.41,40,41c0-0.553,0.447-1,1-1s1,0.447,1,1C42,46.513,37.514,50.998,31.999,50.998z"/>
	</g>
	<g>
		<path d="M23,42.049c-0.553,0-1-0.447-1-1v-6.055c0-0.553,0.447-1,1-1s1,0.447,1,1v6.055C24,41.602,23.553,42.049,23,42.049z"/>
	</g>
	<g>
		<path d="M41,42c-0.553,0-1-0.447-1-1v-6.006c0-0.553,0.447-1,1-1s1,0.447,1,1V41C42,41.553,41.553,42,41,42z"/>
	</g>
	<g>
		<path d="M41,35.994c-0.553,0-1-0.447-1-1c0-1.654-1.346-3-3-3c-0.553,0-1-0.447-1-1s0.447-1,1-1c2.757,0,5,2.243,5,5
			C42,35.547,41.553,35.994,41,35.994z"/>
	</g>
	<g>
		<path d="M37,31.994c-0.553,0-1-0.447-1-1v-4c0-0.553,0.447-1,1-1s1,0.447,1,1v4C38,31.547,37.553,31.994,37,31.994z"/>
	</g>
	<g>
		<path d="M37,27.994h-6c-0.553,0-1-0.447-1-1s0.447-1,1-1h6c0.553,0,1,0.447,1,1S37.553,27.994,37,27.994z"/>
	</g>
	<g>
		<path d="M23,35.994c-0.553,0-1-0.447-1-1c0-4.963,4.037-9,9-9c0.553,0,1,0.447,1,1s-0.447,1-1,1c-3.859,0-7,3.141-7,7
			C24,35.547,23.553,35.994,23,35.994z"/>
	</g>
	<g>
		<g>
			<path d="M40.999,39.021c-0.192,0-0.387-0.056-0.559-0.171l-3-2.025c-0.458-0.31-0.578-0.931-0.27-1.389
				c0.31-0.457,0.931-0.577,1.389-0.27l3,2.025c0.458,0.31,0.578,0.931,0.27,1.389C41.636,38.867,41.32,39.021,40.999,39.021z"/>
		</g>
		<g>
			<path d="M32.5,37.996c-3.612,0-6.687-1.008-6.815-1.051c-0.523-0.175-0.807-0.74-0.634-1.264c0.174-0.523,0.74-0.808,1.264-0.635
				c0.029,0.01,2.908,0.949,6.186,0.949c3.178,0,5.04-0.888,5.059-0.897c0.493-0.239,1.094-0.037,1.337,0.457
				s0.043,1.09-0.449,1.336C38.355,36.937,36.186,37.996,32.5,37.996z"/>
		</g>
		<g>
			<path d="M23.001,39.021c-0.321,0-0.637-0.154-0.83-0.44c-0.309-0.458-0.188-1.079,0.27-1.389l3-2.025
				c0.459-0.308,1.08-0.188,1.389,0.27c0.309,0.458,0.188,1.079-0.27,1.389l-3,2.025C23.388,38.966,23.193,39.021,23.001,39.021z"/>
		</g>
	</g>
	<g>
		<path d="M2,30.99c-0.553,0-1-0.447-1-1v-0.496c0-0.553,0.447-1,1-1s1,0.447,1,1v0.496C3,30.543,2.553,30.99,2,30.99z"/>
	</g>
	<g>
		<g>
			<path d="M47,35.002c-0.553,0-1-0.447-1-1V29c0-0.553,0.447-1,1-1s1,0.447,1,1v5.002C48,34.555,47.553,35.002,47,35.002z"/>
		</g>
		<g>
			<path d="M61,35.002c-0.553,0-1-0.447-1-1V29c0-0.553,0.447-1,1-1s1,0.447,1,1v5.002C62,34.555,61.553,35.002,61,35.002z"/>
		</g>
		<g>
			<path d="M54,41.994c-4.411,0-8-3.588-8-7.998c0-0.553,0.447-1,1-1s1,0.447,1,1c0,3.308,2.691,5.998,6,5.998s6-2.69,6-5.998
				c0-0.553,0.447-1,1-1s1,0.447,1,1C62,38.406,58.411,41.994,54,41.994z"/>
		</g>
		<g>
			<g>
				<path d="M61,30c-0.553,0-1-0.447-1-1c0-3.307-2.691-5.996-6-5.996S48,25.693,48,29c0,0.553-0.447,1-1,1s-1-0.447-1-1
					c0-4.409,3.589-7.996,8-7.996s8,3.587,8,7.996C62,29.553,61.553,30,61,30z"/>
			</g>
			<g>
				<path d="M53.937,31.018c-2.9,0-5.256-1.069-5.354-1.115c-0.501-0.23-0.72-0.823-0.49-1.324s0.823-0.723,1.325-0.493
					c0.021,0.01,2.072,0.933,4.52,0.933c2.481,0,4.646-0.923,4.667-0.932c0.507-0.221,1.096,0.015,1.314,0.521
					s-0.015,1.096-0.521,1.314C59.293,29.967,56.827,31.018,53.937,31.018z"/>
			</g>
			<g>
				<g>
					<path d="M61,32.004c-0.254,0-0.509-0.097-0.704-0.289l-2-1.98c-0.392-0.389-0.396-1.022-0.007-1.415
						c0.39-0.392,1.021-0.395,1.415-0.007l2,1.98c0.392,0.389,0.396,1.022,0.007,1.415C61.515,31.905,61.258,32.004,61,32.004z"/>
				</g>
				<g>
					<path d="M47,32.023c-0.255,0-0.511-0.097-0.705-0.291c-0.392-0.39-0.394-1.022-0.004-1.414l2-2.01
						c0.39-0.391,1.024-0.394,1.414-0.004c0.392,0.39,0.394,1.022,0.004,1.414l-2,2.01C47.514,31.925,47.257,32.023,47,32.023z"/>
				</g>
			</g>
		</g>
	</g>
	<g>
		<path d="M10,47c-2.243,0-4-1.318-4-3.002c0-0.553,0.447-1,1-1s1,0.447,1,1C8,44.406,8.779,45,10,45s2-0.594,2-1.002
			c0-0.553,0.447-1,1-1s1,0.447,1,1C14,45.682,12.243,47,10,47z"/>
	</g>
	<g>
		<path d="M54,47c-2.243,0-4-1.318-4-3.002c0-0.553,0.447-1,1-1s1,0.447,1,1C52,44.406,52.779,45,54,45s2-0.594,2-1.002
			c0-0.553,0.447-1,1-1s1,0.447,1,1C58,45.682,56.243,47,54,47z"/>
	</g>
	<g>
		<path d="M32,57c-2.757,0-5-1.797-5-4.006c0-0.553,0.447-1,1-1s1,0.447,1,1C29,54.081,30.374,55,32,55s3-0.919,3-2.006
			c0-0.553,0.447-1,1-1s1,0.447,1,1C37,55.203,34.757,57,32,57z"/>
	</g>
	<g>
		<path d="M10,51.998c-0.553,0-1-0.447-1-1v-2c0-0.553,0.447-1,1-1s1,0.447,1,1v2C11,51.551,10.553,51.998,10,51.998z"/>
	</g>
	<g>
		<path d="M52.5,51.998c-0.553,0-1-0.447-1-1v-2c0-0.553,0.447-1,1-1s1,0.447,1,1v2C53.5,51.551,53.053,51.998,52.5,51.998z"/>
	</g>
	<g>
		<path d="M55.5,51.998c-0.553,0-1-0.447-1-1v-2c0-0.553,0.447-1,1-1s1,0.447,1,1v2C56.5,51.551,56.053,51.998,55.5,51.998z"/>
	</g>
	<g>
		<path d="M32,64c-0.553,0-1-0.447-1-1v-3c0-0.553,0.447-1,1-1s1,0.447,1,1v3C33,63.553,32.553,64,32,64z"/>
	</g>
	<g>
		<path d="M35,64c-0.553,0-1-0.447-1-1v-3c0-0.553,0.447-1,1-1s1,0.447,1,1v3C36,63.553,35.553,64,35,64z"/>
	</g>
	<g>
		<path d="M29,64c-0.553,0-1-0.447-1-1v-3c0-0.553,0.447-1,1-1s1,0.447,1,1v3C30,63.553,29.553,64,29,64z"/>
	</g>
	<g>
		<g>
			<path d="M32,24c-6.617,0-12-5.383-12-12S25.383,0,32,0s12,5.383,12,12S38.617,24,32,24z M32,2c-5.514,0-10,4.486-10,10
				s4.486,10,10,10s10-4.486,10-10S37.514,2,32,2z"/>
		</g>
		<g>
			<path d="M41.313,7.162c-0.048,0-0.097-0.003-0.146-0.011l-4.616-0.678c-0.325-0.048-0.606-0.252-0.751-0.547l-2.048-4.154
				c-0.245-0.496-0.041-1.095,0.454-1.339c0.498-0.245,1.095-0.041,1.339,0.454l1.816,3.684l4.097,0.602
				c0.546,0.08,0.924,0.588,0.844,1.135C42.229,6.805,41.802,7.162,41.313,7.162z"/>
		</g>
		<g>
			<path d="M40.396,20.1c-0.479,0-0.901-0.344-0.984-0.831l-0.803-4.684c-0.056-0.324,0.052-0.656,0.288-0.886l3.361-3.271
				c0.396-0.386,1.029-0.375,1.414,0.02c0.385,0.396,0.376,1.028-0.02,1.414l-2.984,2.904l0.714,4.165
				c0.094,0.544-0.272,1.062-0.816,1.154C40.508,20.095,40.451,20.1,40.396,20.1z"/>
		</g>
		<g>
			<path d="M27.778,23.152c-0.36,0-0.708-0.194-0.887-0.536c-0.257-0.489-0.067-1.093,0.422-1.35l4.223-2.213
				c0.291-0.152,0.637-0.152,0.928,0l4.224,2.213c0.489,0.256,0.679,0.86,0.422,1.35c-0.256,0.488-0.861,0.681-1.35,0.422L32,21.068
				l-3.759,1.97C28.094,23.116,27.935,23.152,27.778,23.152z"/>
		</g>
		<g>
			<path d="M23.604,20.1c-0.056,0-0.113-0.005-0.17-0.015c-0.545-0.093-0.91-0.61-0.816-1.154l0.715-4.165l-2.987-2.904
				c-0.396-0.385-0.404-1.018-0.02-1.414c0.386-0.395,1.018-0.405,1.414-0.02l3.364,3.271c0.236,0.229,0.344,0.562,0.288,0.886
				l-0.804,4.684C24.506,19.756,24.083,20.1,23.604,20.1z"/>
		</g>
		<g>
			<path d="M22.688,7.162c-0.488,0-0.915-0.357-0.988-0.854c-0.08-0.547,0.298-1.055,0.844-1.135l4.097-0.602l1.814-3.684
				c0.246-0.494,0.844-0.696,1.34-0.455c0.495,0.244,0.699,0.844,0.455,1.34l-2.047,4.154c-0.146,0.295-0.427,0.499-0.752,0.547
				l-4.616,0.678C22.784,7.159,22.735,7.162,22.688,7.162z"/>
		</g>
		<g>
			<path d="M34.6,15.984H29.4c-0.434,0-0.817-0.279-0.951-0.69l-1.606-4.941c-0.134-0.412,0.013-0.863,0.363-1.118l4.206-3.059
				c0.35-0.256,0.826-0.256,1.176,0l4.206,3.059c0.351,0.255,0.497,0.706,0.363,1.118l-1.606,4.941
				C35.417,15.705,35.033,15.984,34.6,15.984z M30.127,13.984h3.746l1.157-3.56L32,8.221l-3.03,2.204L30.127,13.984z"/>
		</g>
	</g>
</g>
</svg>
