<?xml version="1.0" encoding="iso-8859-1"?>
<!-- Generator: Adobe Illustrator 19.0.0, SVG Export Plug-In . SVG Version: 6.00 Build 0)  -->
<svg xmlns="http://www.w3.org/2000/svg" xmlns:xlink="http://www.w3.org/1999/xlink" version="1.1" id="Layer_1" x="0px" y="0px" viewBox="0 0 512.003 512.003" style="enable-background:new 0 0 512.003 512.003;" xml:space="preserve">
<path style="fill:#CE8451;" d="M467.246,12.529c-60.545-9.109-123.306-4.108-181.494,14.457  c-60.185,19.204-115.753,53.119-160.701,98.067c-44.948,44.95-78.859,100.516-98.063,160.698  C8.421,343.942,3.42,406.701,12.528,467.248c2.504,16.649,15.573,29.718,32.223,32.224c60.547,9.109,123.309,4.108,181.497-14.458  c60.186-19.202,115.756-53.112,160.703-98.059c44.948-44.951,78.859-100.522,98.061-160.704  c18.57-58.191,23.566-120.952,14.461-181.501C496.968,28.1,483.897,15.029,467.246,12.529z"/>
<path style="fill:#AF7146;" d="M135.078,278.422c0-116.451,71.466-216.196,172.924-257.815c-7.481,1.911-14.902,4.036-22.25,6.381  c-60.185,19.204-115.753,53.119-160.701,98.067c-44.948,44.95-78.859,100.516-98.063,160.698  C8.421,343.942,3.42,406.701,12.528,467.248c2.504,16.649,15.573,29.718,32.223,32.224c60.547,9.109,123.309,4.108,181.497-14.458  c0.13-0.042,0.26-0.086,0.391-0.129C170.402,433.917,135.078,360.296,135.078,278.422z"/>
<path style="fill:#8C552C;" d="M461.309,197.464c10.23,4.163,20.138,7.127,29.476,8.812c13.727-52.432,16.763-107.845,8.688-161.523  c-2.504-16.651-15.574-29.721-32.225-32.224c-53.677-8.076-109.088-5.035-161.518,8.694c6.327,35.07,30.701,78.156,68.8,116.256  c19.904,19.904,41.17,36.063,61.943,47.859"/>
<path style="fill:#7C4825;" d="M97.334,459.54c-7.977-6.527-15.858-13.648-23.537-21.327  c-29.016-29.017-50.065-60.922-61.252-89.981c-5.854,39.369-5.934,79.658-0.015,119.018c2.504,16.649,15.573,29.72,32.224,32.224  c39.359,5.923,79.646,5.843,119.013-0.011c-14.213-5.472-29.109-13.306-44.013-23.276"/>
<g>
	<path style="fill:#231F20;" d="M510.058,64.405c-0.027-0.277-0.055-0.554-0.082-0.831c-0.137-1.383-0.281-2.764-0.432-4.144   c-0.064-0.581-0.132-1.162-0.198-1.743c-0.132-1.149-0.262-2.297-0.404-3.446c-0.107-0.871-0.223-1.739-0.335-2.608   c-0.118-0.907-0.231-1.815-0.355-2.721c-0.2-1.461-0.41-2.92-0.626-4.378c-0.049-0.331-0.092-0.661-0.142-0.99   c-2.661-17.692-14.925-31.875-31.469-37.242c-0.062-0.021-0.122-0.043-0.183-0.063c-0.281-0.09-0.567-0.168-0.85-0.254   c-0.316-0.095-0.631-0.194-0.951-0.283c-0.018-0.005-0.037-0.009-0.055-0.014c-1.797-0.495-3.64-0.887-5.523-1.17   c-2.216-0.334-4.439-0.642-6.663-0.938c-0.593-0.079-1.187-0.156-1.78-0.232c-1.871-0.241-3.745-0.469-5.62-0.684   c-0.414-0.048-0.826-0.099-1.241-0.146c-2.022-0.225-4.047-0.429-6.073-0.623c-1.008-0.097-2.016-0.187-3.024-0.277   c-1.019-0.09-2.038-0.174-3.059-0.256C429.957,0.468,418.856,0,407.78,0C365.25,0,323.367,6.483,283.29,19.269   c-61.407,19.595-118.105,54.194-163.969,100.057c-45.86,45.862-80.458,102.56-100.052,163.964   C6.486,323.355,0.016,365.542,0.01,407.725c0,0.125,0,0.251,0,0.376c0.003,4.893,0.091,9.785,0.269,14.674   c0.015,0.436,0.037,0.872,0.054,1.308c0.075,1.872,0.161,3.744,0.26,5.614c0.036,0.67,0.072,1.34,0.112,2.01   c0.105,1.802,0.223,3.601,0.352,5.402c0.038,0.534,0.071,1.068,0.112,1.602c0.174,2.304,0.366,4.606,0.58,6.906   c0.037,0.399,0.08,0.796,0.118,1.195c0.184,1.914,0.379,3.827,0.59,5.739c0.072,0.659,0.148,1.318,0.225,1.977   c0.203,1.763,0.417,3.524,0.644,5.285c0.073,0.569,0.144,1.138,0.219,1.708c0.307,2.315,0.628,4.626,0.975,6.934   c1.239,8.244,4.565,15.729,9.438,21.914c7.12,9.039,17.544,15.305,29.593,17.118c20.004,3.011,40.207,4.516,60.481,4.516   c0.015,0,0.029,0,0.044,0c0.05,0,0.099,0.001,0.15,0.001c0,0-0.001,0,0.004,0c42.523,0,84.409-6.484,124.483-19.269   c61.409-19.594,118.108-54.189,163.969-100.05c45.86-45.864,80.458-102.563,100.052-163.97   C509.549,176.012,515.447,119.629,510.058,64.405z M381.224,381.225c-44.039,44.039-98.482,77.259-157.439,96.069   c-19.259,6.145-38.956,10.773-58.949,13.864c-13.275-5.285-26.912-12.566-40.579-21.706c-3.718-2.49-8.75-1.489-11.236,2.228   c-2.489,3.718-1.489,8.75,2.228,11.236c6.395,4.279,12.8,8.186,19.183,11.706c-5.545,0.428-11.092,0.737-16.634,0.931   c-0.193,0.007-0.387,0.011-0.581,0.016c-2.509,0.084-5.017,0.137-7.524,0.174c-1.438,0.019-2.875,0.037-4.314,0.041   c-0.811,0.003-1.622,0.001-2.433-0.001c-1.672-0.005-3.343-0.021-5.016-0.046c-0.477-0.008-0.956-0.012-1.433-0.021   c-4.669-0.092-9.338-0.266-13.999-0.523c-0.19-0.011-0.38-0.022-0.569-0.032c-2.311-0.131-4.622-0.28-6.929-0.451   c-0.029-0.002-0.058-0.004-0.087-0.007c-4.721-0.352-9.429-0.792-14.119-1.312c-0.351-0.039-0.701-0.08-1.052-0.12   c-1.905-0.217-3.807-0.449-5.705-0.693c-0.468-0.06-0.935-0.119-1.403-0.18c-2.23-0.295-4.455-0.606-6.674-0.939   c-9.085-1.367-16.751-6.622-21.302-14.066c-2.068-3.384-3.493-7.221-4.114-11.351c-0.809-5.376-1.501-10.768-2.084-16.173   c-0.011-0.104-0.024-0.206-0.036-0.31c-0.16-1.495-0.305-2.992-0.447-4.489c-0.033-0.356-0.072-0.712-0.106-1.068   c-0.132-1.427-0.25-2.855-0.366-4.284c-0.035-0.42-0.073-0.839-0.107-1.259c-0.114-1.471-0.216-2.943-0.314-4.417   c-0.025-0.37-0.054-0.74-0.078-1.11c-0.103-1.616-0.193-3.234-0.277-4.852c-0.011-0.216-0.025-0.432-0.036-0.647   c-0.823-16.58-0.593-33.239,0.692-49.894c12.603,22.836,30.012,45.724,50.685,66.399c7.736,7.737,15.857,15.095,24.134,21.868   c3.462,2.833,8.567,2.322,11.401-1.139c2.833-3.463,2.322-8.566-1.14-11.401c-7.862-6.433-15.582-13.428-22.939-20.785   c-26.542-26.544-47.294-56.754-58.665-85.298c3.091-19.996,7.708-39.741,13.845-58.973c18.813-58.951,52.035-113.39,96.075-157.433   c44.042-44.043,98.482-77.266,157.435-96.077c3.784-1.208,7.588-2.338,11.404-3.428c8.98,36.246,33.791,76.536,69.184,111.93   c19.708,19.709,41.726,36.713,63.669,49.173c3.891,2.209,8.836,0.847,11.046-3.044c2.209-3.891,0.846-8.835-3.044-11.044   c-20.699-11.754-41.521-27.847-60.216-46.543c-32.935-32.936-56.76-71.44-64.969-104.575c42.703-10.266,87.556-13.338,131.21-9.051   c0.66,0.065,1.32,0.135,1.98,0.203c2.246,0.232,4.487,0.487,6.725,0.758c0.772,0.094,1.546,0.184,2.317,0.282   c2.831,0.361,5.659,0.744,8.476,1.168c0.016,0.002,0.032,0.004,0.049,0.006c1.184,0.178,2.333,0.444,3.465,0.75   c11.505,3.111,20.145,12.633,21.955,24.668c0.432,2.873,0.823,5.755,1.19,8.642c0.049,0.38,0.099,0.759,0.146,1.14   c0.362,2.918,0.693,5.842,0.989,8.774c0.014,0.136,0.027,0.273,0.041,0.409c4.373,43.841,1.316,88.904-8.996,131.794   c-6.579-1.632-13.436-3.893-20.471-6.756c-4.143-1.681-8.87,0.307-10.556,4.451c-1.686,4.143,0.307,8.87,4.451,10.556   c7.68,3.125,15.206,5.598,22.48,7.413c-1.09,3.82-2.235,7.625-3.441,11.407C458.484,282.742,425.263,337.183,381.224,381.225z"/>
	<path style="fill:#231F20;" d="M318.476,204.985l13.635-13.635c3.164-3.165,3.164-8.293,0-11.457   c-3.165-3.163-8.293-3.163-11.457,0l-13.635,13.635l-19.053-19.054c-3.165-3.161-8.293-3.164-11.457,0   c-3.164,3.165-3.164,8.293,0,11.457l19.054,19.054l-20.359,20.359l-19.052-19.053c-3.163-3.165-8.292-3.164-11.455-0.001   c-3.165,3.164-3.165,8.293,0,11.456l19.052,19.053l-20.358,20.358l-19.052-19.052c-3.165-3.163-8.293-3.163-11.457,0   c-3.164,3.165-3.164,8.293,0,11.457l19.052,19.052l-20.358,20.358l-19.051-19.052c-3.165-3.165-8.293-3.164-11.457-0.001   c-3.163,3.164-3.164,8.293,0,11.456l19.052,19.053l-20.357,20.357l-19.053-19.053c-3.165-3.163-8.293-3.163-11.457,0   c-3.164,3.165-3.164,8.293,0,11.457l19.053,19.053l-20.358,20.358l-18.04-18.041c-3.164-3.164-8.293-3.165-11.457-0.001   c-3.164,3.164-3.164,8.293,0,11.456l18.041,18.042l-14.942,14.942c-3.165,3.165-3.165,8.293,0,11.457   c1.581,1.581,3.654,2.372,5.728,2.372s4.147-0.791,5.728-2.372l14.943-14.943l20.065,20.066c1.582,1.582,3.656,2.373,5.729,2.373   s4.147-0.791,5.729-2.372c3.164-3.164,3.164-8.293,0-11.456l-20.066-20.067l20.358-20.358l19.055,19.055   c1.582,1.581,3.656,2.372,5.729,2.372s4.147-0.791,5.729-2.372c3.164-3.165,3.164-8.293,0-11.457l-19.055-19.055l20.357-20.357   l19.054,19.055c1.581,1.582,3.654,2.373,5.728,2.373c2.073,0,4.147-0.791,5.728-2.372c3.165-3.164,3.165-8.293,0-11.456   l-19.053-19.055l20.359-20.359l19.054,19.054c1.582,1.581,3.656,2.372,5.729,2.372c2.073,0,4.147-0.791,5.729-2.372   c3.164-3.165,3.164-8.293,0-11.457l-19.054-19.054l20.358-20.358l19.054,19.054c1.581,1.582,3.654,2.373,5.728,2.373   c2.073,0,4.147-0.791,5.728-2.372c3.165-3.164,3.165-8.293,0-11.456l-19.054-19.054l20.36-20.359l19.054,19.054   c1.581,1.581,3.654,2.372,5.728,2.372c2.073,0,4.147-0.791,5.728-2.372c3.165-3.165,3.165-8.293,0-11.457L318.476,204.985z"/>
</g>
<g>
</g>
<g>
</g>
<g>
</g>
<g>
</g>
<g>
</g>
<g>
</g>
<g>
</g>
<g>
</g>
<g>
</g>
<g>
</g>
<g>
</g>
<g>
</g>
<g>
</g>
<g>
</g>
<g>
</g>
</svg>
