<?xml version="1.0" encoding="utf-8"?>
<!-- Generator: Adobe Illustrator 16.0.0, SVG Export Plug-In . SVG Version: 6.00 Build 0)  -->
<!DOCTYPE svg PUBLIC "-//W3C//DTD SVG 1.1//EN" "http://www.w3.org/Graphics/SVG/1.1/DTD/svg11.dtd">
<svg version="1.1" id="icons" xmlns="http://www.w3.org/2000/svg" xmlns:xlink="http://www.w3.org/1999/xlink" x="0px" y="0px"
	 width="64px" height="64px" viewBox="0 0 64 64" enable-background="new 0 0 64 64" xml:space="preserve">
<g>
	<g>
		<path fill="#8CC152" d="M63,54.505H47c0-5.22-1.729-10.029-4.66-13.89c1.74-0.72,3.66-1.11,5.66-1.11
			C56.29,39.505,63,46.226,63,54.505z"/>
	</g>
	<g>
		<polygon fill="#ED5565" points="36,14.495 24,19.495 24,9.495 		"/>
	</g>
	<g>
		<path fill="#656D78" d="M27.99,31.855c-0.189,2.04-1.89,3.64-3.99,3.64c-2.09,0-3.8-1.61-3.979-3.65
			c1.29-0.229,2.62-0.35,3.979-0.35C25.36,31.495,26.7,31.615,27.99,31.855z"/>
	</g>
	<g>
		<path fill="#A0D468" d="M47,54.505H1c0-11.34,8.221-20.779,19.021-22.66c0.18,2.04,1.89,3.65,3.979,3.65
			c2.101,0,3.801-1.6,3.99-3.64c5.84,1.01,10.91,4.229,14.35,8.76C45.271,44.476,47,49.285,47,54.505z"/>
	</g>
</g>
<g>
	<g>
		<path d="M47,55.506c-0.553,0-1-0.447-1-1C46,42.371,36.131,32.5,24,32.5S2,42.371,2,54.506c0,0.553-0.447,1-1,1s-1-0.447-1-1
			C0,41.269,10.767,30.5,24,30.5s24,10.769,24,24.006C48,55.059,47.553,55.506,47,55.506z"/>
	</g>
	<g>
		<path d="M63,55.506c-0.553,0-1-0.447-1-1c0-7.721-6.28-14.002-14-14.002c-1.834,0-3.613,0.348-5.289,1.033
			c-0.513,0.209-1.097-0.037-1.305-0.547c-0.209-0.512,0.036-1.096,0.547-1.305c1.918-0.784,3.952-1.182,6.047-1.182
			c8.822,0,16,7.179,16,16.002C64,55.059,63.553,55.506,63,55.506z"/>
	</g>
	<g>
		<path d="M24,36.492c-2.572,0-4.76-2.004-4.98-4.563c-0.048-0.55,0.359-1.035,0.91-1.082c0.559-0.056,1.034,0.36,1.082,0.91
			c0.133,1.534,1.445,2.735,2.988,2.735s2.855-1.201,2.989-2.735c0.048-0.55,0.524-0.961,1.083-0.91
			c0.55,0.048,0.957,0.532,0.909,1.083C28.76,34.488,26.571,36.492,24,36.492z"/>
	</g>
	<g>
		<path d="M24,32.5c-0.553,0-1-0.448-1-1V9.495c0-0.552,0.447-1,1-1s1,0.448,1,1V31.5C25,32.052,24.553,32.5,24,32.5z"/>
	</g>
	<g>
		<path d="M35.996,15.493c-0.129,0-0.259-0.025-0.385-0.078l-11.996-4.998c-0.51-0.212-0.751-0.798-0.538-1.308
			c0.213-0.51,0.801-0.75,1.308-0.538l11.996,4.998c0.51,0.212,0.751,0.798,0.538,1.308C36.759,15.261,36.388,15.493,35.996,15.493z
			"/>
	</g>
	<g>
		<path d="M24,20.492c-0.392,0-0.763-0.232-0.923-0.616c-0.213-0.51,0.028-1.095,0.538-1.308l11.996-4.999
			c0.51-0.212,1.095,0.028,1.308,0.538c0.213,0.51-0.028,1.095-0.538,1.308l-11.996,4.999C24.259,20.467,24.129,20.492,24,20.492z"
			/>
	</g>
</g>
</svg>
