<?xml version="1.0" encoding="utf-8"?>
<!-- Generator: Adobe Illustrator 24.0.0, SVG Export Plug-In . SVG Version: 6.00 Build 0)  -->
<svg version="1.1" xmlns="http://www.w3.org/2000/svg" xmlns:xlink="http://www.w3.org/1999/xlink" x="0px" y="0px"
	 viewBox="0 0 64 64" enable-background="new 0 0 64 64" xml:space="preserve">
<g id="Captions">
</g>
<g id="Icons">
	<g>
		<g>
			<path fill="#C80A50" d="M42,4h-4c-4.418,0-8,3.582-8,8l0,0h20l0,0C50,7.582,46.418,4,42,4z"/>
		</g>
		<g>
			<rect x="28" y="32" fill="#C80A50" width="24" height="28"/>
		</g>
		<g>
			<rect x="39" y="32" fill="#A00028" width="2" height="28"/>
		</g>
		<g>
			<path fill="#00A0C8" d="M20,40v20h8V32C23.582,32,20,35.582,20,40z"/>
		</g>
		<g>
			<path fill="#00A0C8" d="M52,32v28h8V40C60,35.582,56.418,32,52,32z"/>
		</g>
		<g>
			<path fill="#00A0C8" d="M44,32L44,32c0,2.209-1.791,4-4,4h0c-2.209,0-4-1.791-4-4v0H44z"/>
		</g>
		<g>
			<path fill="#0A5078" d="M52,12H28v0c0-2.209,1.791-4,4-4h16C50.209,8,52,9.791,52,12L52,12z"/>
		</g>
		<g>
			<path fill="#0A5078" d="M44,32h-8c-4.418,0-8-3.582-8-8v-8h24v8C52,28.418,48.418,32,44,32z"/>
		</g>
		<g>
			<path fill="#00A0C8" d="M50,20h-5c-0.63,0-1.222-0.296-1.6-0.8l-1.8-2.4C41.222,16.296,40.63,16,40,16h0
				c-0.63,0-1.222,0.296-1.6,0.8l-1.8,2.4C36.222,19.704,35.63,20,35,20h-5c-1.105,0-2-0.895-2-2v-6h24v6C52,19.105,51.105,20,50,20
				z"/>
		</g>
		<g>
			<g>
				<path fill="#00325A" d="M42,22.5h-4c-0.276,0-0.5-0.224-0.5-0.5s0.224-0.5,0.5-0.5h4c0.276,0,0.5,0.224,0.5,0.5
					S42.276,22.5,42,22.5z"/>
			</g>
			<g>
				<path fill="#00325A" d="M44,24.5h-8c-0.276,0-0.5-0.224-0.5-0.5s0.224-0.5,0.5-0.5h8c0.276,0,0.5,0.224,0.5,0.5
					S44.276,24.5,44,24.5z"/>
			</g>
			<g>
				<path fill="#00325A" d="M44,26.5h-8c-0.276,0-0.5-0.224-0.5-0.5s0.224-0.5,0.5-0.5h8c0.276,0,0.5,0.224,0.5,0.5
					S44.276,26.5,44,26.5z"/>
			</g>
			<g>
				<path fill="#00325A" d="M42,28.5h-4c-0.276,0-0.5-0.224-0.5-0.5s0.224-0.5,0.5-0.5h4c0.276,0,0.5,0.224,0.5,0.5
					S42.276,28.5,42,28.5z"/>
			</g>
		</g>
		<g>
			<rect x="28" y="12" fill="#0082AA" width="24" height="1"/>
		</g>
		<g>
			<path fill="#0A5078" d="M20,46h-6V20c0-1.105,0.895-2,2-2h2c1.105,0,2,0.895,2,2V46z"/>
		</g>
		<g>
			<path fill="#0A5078" d="M14,46L14,46l0-4h0c-1.105,0-2,0.895-2,2v0C12,45.105,12.895,46,14,46z"/>
		</g>
		<g>
			<path fill="#0A5078" d="M18,18h-2V5c0-0.552,0.448-1,1-1h0c0.552,0,1,0.448,1,1V18z"/>
		</g>
		<g>
			<path fill="#0A5078" d="M27,32H14v-4h13c0.552,0,1,0.448,1,1v2C28,31.552,27.552,32,27,32z"/>
		</g>
		<g>
			<rect x="12" y="28" transform="matrix(-1 -1.224647e-16 1.224647e-16 -1 26 62)" fill="#00325A" width="2" height="6"/>
		</g>
		<g>
			<path fill="#FAB400" d="M8,40L8,40c2.209,0,4-1.791,4-4V26c0-2.209-1.791-4-4-4h0c-2.209,0-4,1.791-4,4v10
				C4,38.209,5.791,40,8,40z"/>
		</g>
		<g>
			<rect x="20" y="38" fill="#0A5078" width="8" height="4"/>
		</g>
		<g>
			<rect x="20" y="44" fill="#00A0C8" width="8" height="16"/>
		</g>
		<g>
			<path fill="#F0C8A0" d="M28,44h-8v-6c0-1.105,0.895-2,2-2h4c1.105,0,2,0.895,2,2V44z"/>
		</g>
		<g>
			<rect x="12" y="28" fill="#00143C" width="1" height="6"/>
		</g>
		<g>
			<rect x="20" y="28" fill="#00325A" width="1" height="4"/>
		</g>
		<g>
			<rect x="16" y="17" fill="#00325A" width="2" height="1"/>
		</g>
		<g>
			<path fill="#00325A" d="M17,40L17,40c-0.552,0-1-0.448-1-1v-4c0-0.552,0.448-1,1-1h0c0.552,0,1,0.448,1,1v4
				C18,39.552,17.552,40,17,40z"/>
		</g>
		<g>
			<path fill="#FAB400" d="M14,20c0-1.105,0.895-2,2-2h2c1.105,0,2,0.895,2,2H14z"/>
		</g>
		<g>
			<rect x="4" y="35" fill="#DC9600" width="8" height="1"/>
		</g>
		<g>
			<rect x="14" y="20" fill="#00325A" width="6" height="1"/>
		</g>
	</g>
</g>
</svg>
