<svg xmlns="http://www.w3.org/2000/svg" viewBox="0 0 64 64"><g id="_07-tree" data-name="07-tree"><path d="M29,33s2,7,5,7c2.42,0,4.19-4.54,4.78-6.31a4.952,4.952,0,0,0,3.24,2.21L42,36s-4,5-4,8c0,2.74,3.34,13.82,3.91,15.72a1.9,1.9,0,0,1,.09.58V61a2.006,2.006,0,0,1-2,2H28a2.006,2.006,0,0,1-2-2v-.7a1.9,1.9,0,0,1,.09-.58C26.66,57.82,30,46.74,30,44c0-2.45-2-4.9-2.73-5.71a3.953,3.953,0,0,0,1.15-5.33,3.807,3.807,0,0,0,.51-.12Z" style="fill:#bf9259"/><path d="M38.78,33.69a6.305,6.305,0,0,1-.38-.73A2.581,2.581,0,0,1,38,33a3,3,0,0,1-2.96-2.58,3.878,3.878,0,0,1-4.08,0,2.986,2.986,0,0,1-2.03,2.42,3.807,3.807,0,0,1-.51.12A3.989,3.989,0,0,1,25,39a4,4,0,0,1-4-4,4,4,0,0,1-4-4,4.078,4.078,0,0,1,.22-1.27A2.907,2.907,0,0,1,16,30a3,3,0,0,1-2.82-2.02A1.1,1.1,0,0,1,13,28a2.993,2.993,0,0,1-.2-5.98,2.962,2.962,0,0,1,.13-4.18A3.992,3.992,0,0,1,14,10a3.871,3.871,0,0,1,1.13.18A3,3,0,0,1,18,8c.06,0,.13.02.19.02A2.887,2.887,0,0,1,18,7a2.986,2.986,0,0,1,5.02-2.2A3.992,3.992,0,0,1,31,5a3,3,0,0,1,3,3,3.989,3.989,0,0,1,3.58,2.24A2.973,2.973,0,0,1,40,9c.06,0,.13.02.19.02A2.887,2.887,0,0,1,40,8a3,3,0,1,1,5.79,1.08,3.982,3.982,0,0,1,1.76,6.98,2.977,2.977,0,0,1,1.65,4.96,4.99,4.99,0,0,1,1.76,9.58A2.581,2.581,0,0,1,51,31a3,3,0,0,1-3,3,3.031,3.031,0,0,1-.9-.15A4.976,4.976,0,0,1,43,36a4.463,4.463,0,0,1-.98-.1A4.952,4.952,0,0,1,38.78,33.69Z" style="fill:#5cb34f"/><path d="M14.591,20.447a.9.9,0,0,0,.155-.017,2.588,2.588,0,0,0,2.436,1.754,2.5,2.5,0,0,0,1.053-.234,3.565,3.565,0,0,0-.19,1.1A3.463,3.463,0,0,0,21.5,26.526,3.464,3.464,0,0,0,24.955,30a3.412,3.412,0,0,0,1.96-.617,3.444,3.444,0,0,0,.993-4.628,3.349,3.349,0,0,0,.441-.1,2.59,2.59,0,0,0,1.753-2.1,3.33,3.33,0,0,0,3.523,0,2.593,2.593,0,0,0,2.557,2.24,2.253,2.253,0,0,0,.345-.034,5.664,5.664,0,0,0,.328.634,4.279,4.279,0,0,0,2.8,1.919,3.811,3.811,0,0,0,.846.087,4.29,4.29,0,0,0,3.541-1.867,2.562,2.562,0,0,0,3.368-2.475,2.293,2.293,0,0,0-.034-.348,4.323,4.323,0,0,0,1.948-1.668c-.042,0-.081-.015-.123-.017a2.977,2.977,0,0,0-1.65-4.96,3.982,3.982,0,0,0-1.76-6.98A3,3,0,0,0,40.5,6.344a2.131,2.131,0,0,1,1.546,1.972,2.019,2.019,0,0,1-.856,1.61,1.639,1.639,0,0,1,1.447,1.548,1.481,1.481,0,0,1-.472,1.063A2.788,2.788,0,0,1,45,15.158a2.64,2.64,0,0,1-1.8,2.421,1.3,1.3,0,0,1,.023.21,1.682,1.682,0,0,1-1.772,1.579,1.961,1.961,0,0,1-.532-.079A3.055,3.055,0,0,1,38.5,20.421,3.16,3.16,0,0,1,36.006,19.2a3.261,3.261,0,0,1-.224-.384,1.645,1.645,0,0,1-.237.021A1.715,1.715,0,0,1,33.8,17.484a2.535,2.535,0,0,1-2.411,0,1.633,1.633,0,0,1-1.2,1.274,2.619,2.619,0,0,1-.3.063,1.916,1.916,0,0,1,.342,1.074,2.036,2.036,0,0,1-1.022,1.731A2.548,2.548,0,0,1,27.864,22,2.245,2.245,0,0,1,25.5,19.9a2.245,2.245,0,0,1-2.364-2.106,1.959,1.959,0,0,1,.13-.668,1.884,1.884,0,0,1-.721.142A1.765,1.765,0,0,1,20.879,16.2a.762.762,0,0,1-.106.011A1.683,1.683,0,0,1,19,14.632a1.668,1.668,0,0,1,1.655-1.569A1.476,1.476,0,0,1,20.182,12a1.493,1.493,0,0,1,.549-1.137A2.152,2.152,0,0,1,19,8.842a2.245,2.245,0,0,1,2.364-2.105,2.534,2.534,0,0,1,.667.095,1.753,1.753,0,0,1,1.7-1.148c.036,0,.077.011.113.011a1.378,1.378,0,0,1-.113-.537A1.682,1.682,0,0,1,25.5,3.579,1.882,1.882,0,0,1,26.694,4a2.254,2.254,0,0,1,2.351-2,2.621,2.621,0,0,1,.7.1A3.981,3.981,0,0,0,23.02,4.8,2.986,2.986,0,0,0,18,7a2.887,2.887,0,0,0,.19,1.02c-.06,0-.13-.02-.19-.02a3,3,0,0,0-2.87,2.18A3.871,3.871,0,0,0,14,10a3.992,3.992,0,0,0-1.07,7.84,2.988,2.988,0,0,0-.708,1.053A2.586,2.586,0,0,0,14.591,20.447Z" style="fill:#5cb34f"/><path d="M42.02,35.9a4.952,4.952,0,0,1-3.24-2.21C38.19,35.46,36.42,40,34,40c-3,0-5-7-5-7l-.07-.16a3.807,3.807,0,0,1-.51.12,3.953,3.953,0,0,1-1.15,5.33c.2.227.511.592.843,1.041l.03-.045a1,1,0,0,1,1.638-.034C30.629,40.425,32.118,42,34,42c2.135,0,3.763-2.532,4.525-3.992a.994.994,0,0,1,1.438-.366l.58.387C41.332,36.839,42,36,42,36Z" style="fill:#9a6948"/><path d="M40,60H30c-2,0,1-13,2-15a5.463,5.463,0,0,0-.1-3.67,8.107,8.107,0,0,1-2.116-2.078,1,1,0,0,0-1.638.034l-.03.045A8.464,8.464,0,0,1,30,44c0,2.74-3.34,13.82-3.91,15.72a1.9,1.9,0,0,0-.09.58V61a2.006,2.006,0,0,0,2,2H40a2.006,2.006,0,0,0,2-2v-.7a1.9,1.9,0,0,0-.09-.58l-.206-.686A1.99,1.99,0,0,1,40,60Z" style="fill:#ab7e4e"/><path d="M38.139,49.054a36.022,36.022,0,0,1-.813-4.481,12.194,12.194,0,0,1,.3-4.5.25.25,0,0,0-.171-.309c-.009,0-.016,0-.025,0q-.165.222-.345.438a12.919,12.919,0,0,0-.26,4.42,36.5,36.5,0,0,0,.824,4.544l1.279,5.661a27.429,27.429,0,0,1,.8,5.174H40a2.041,2.041,0,0,0,.235-.031,27.824,27.824,0,0,0-.817-5.252Z" style="fill:#e6b269"/><path d="M35.659,48.123a61.906,61.906,0,0,1-.262-6.491,3.378,3.378,0,0,1-.5.215c-.044,2.118.107,4.247.267,6.315.118,1.528.24,3.109.276,4.665A63.9,63.9,0,0,1,35.13,60h.5a64.6,64.6,0,0,0,.3-7.185C35.9,51.246,35.777,49.659,35.659,48.123Z" style="fill:#e6b269"/><path d="M32.6,52.305c.152-.781.357-1.565.555-2.324.071-.273.145-.545.218-.818a19.467,19.467,0,0,0,.874-4.874c.006-.759.01-1.531-.008-2.306C34.157,41.99,34.08,42,34,42s-.176-.016-.265-.023c.019.775.015,1.548.009,2.308a19.1,19.1,0,0,1-.857,4.748q-.111.411-.219.822c-.2.766-.407,1.558-.562,2.354A19.469,19.469,0,0,0,32.187,60h.529A18.963,18.963,0,0,1,32.6,52.305Z" style="fill:#e6b269"/><path d="M54,26a4.984,4.984,0,0,0-4.677-4.963,4.323,4.323,0,0,1-1.948,1.668,2.293,2.293,0,0,1,.034.348,2.562,2.562,0,0,1-3.368,2.475A4.29,4.29,0,0,1,40.5,27.4a3.811,3.811,0,0,1-.846-.087,4.279,4.279,0,0,1-2.8-1.919,5.664,5.664,0,0,1-.328-.634,2.253,2.253,0,0,1-.345.034,2.593,2.593,0,0,1-2.557-2.24,3.33,3.33,0,0,1-3.523,0,2.59,2.59,0,0,1-1.753,2.1,3.349,3.349,0,0,1-.441.1A3.454,3.454,0,1,1,21.5,26.526a3.463,3.463,0,0,1-3.455-3.473,3.565,3.565,0,0,1,.19-1.1,2.5,2.5,0,0,1-1.053.234,2.588,2.588,0,0,1-2.436-1.754.9.9,0,0,1-.155.017,2.586,2.586,0,0,1-2.369-1.554A2.924,2.924,0,0,0,12.8,22.02,2.993,2.993,0,0,0,13,28a1.1,1.1,0,0,0,.18-.02A3,3,0,0,0,16,30a2.907,2.907,0,0,0,1.22-.27A4.078,4.078,0,0,0,17,31a4,4,0,0,0,4,4,4,4,0,0,0,8,0,3.943,3.943,0,0,0-.58-2.04,3.807,3.807,0,0,0,.51-.12,2.986,2.986,0,0,0,2.03-2.42,3.878,3.878,0,0,0,4.08,0A3,3,0,0,0,38,33a2.581,2.581,0,0,0,.4-.04,6.305,6.305,0,0,0,.38.73,4.952,4.952,0,0,0,3.24,2.21A4.463,4.463,0,0,0,43,36a4.976,4.976,0,0,0,4.1-2.15A3.031,3.031,0,0,0,48,34a3,3,0,0,0,3-3,2.581,2.581,0,0,0-.04-.4A4.988,4.988,0,0,0,54,26Z" style="fill:#44853b"/><path d="M50.96,25.6A2.581,2.581,0,0,1,51,26a3,3,0,0,1-3,3,3.031,3.031,0,0,1-.9-.15A4.976,4.976,0,0,1,43,31a4.463,4.463,0,0,1-.98-.1,4.952,4.952,0,0,1-3.24-2.21,6.305,6.305,0,0,1-.38-.73A2.581,2.581,0,0,1,38,28a3,3,0,0,1-2.96-2.58,3.878,3.878,0,0,1-4.08,0,2.986,2.986,0,0,1-2.03,2.42,3.807,3.807,0,0,1-.51.12A3.989,3.989,0,0,1,25,34a4,4,0,0,1-4-4,4,4,0,0,1-4-4,4.078,4.078,0,0,1,.22-1.27A2.907,2.907,0,0,1,16,25a3,3,0,0,1-2.82-2.02A1.1,1.1,0,0,1,13,23a2.982,2.982,0,0,1-1.636-.489A2.962,2.962,0,0,0,10,25a3,3,0,0,0,3,3,1.1,1.1,0,0,0,.18-.02A3,3,0,0,0,16,30a2.907,2.907,0,0,0,1.22-.27A4.078,4.078,0,0,0,17,31a4,4,0,0,0,4,4,4,4,0,0,0,8,0,3.943,3.943,0,0,0-.58-2.04,3.807,3.807,0,0,0,.51-.12,2.986,2.986,0,0,0,2.03-2.42,3.878,3.878,0,0,0,4.08,0A3,3,0,0,0,38,33a2.581,2.581,0,0,0,.4-.04,6.305,6.305,0,0,0,.38.73,4.952,4.952,0,0,0,3.24,2.21A4.463,4.463,0,0,0,43,36a4.976,4.976,0,0,0,4.1-2.15A3.031,3.031,0,0,0,48,34a3,3,0,0,0,3-3,2.581,2.581,0,0,0-.04-.4A4.988,4.988,0,0,0,54,26a4.918,4.918,0,0,0-.688-2.489A4.991,4.991,0,0,1,50.96,25.6Z" style="fill:#406e31"/><path d="M26.694,4A1.882,1.882,0,0,0,25.5,3.579a1.682,1.682,0,0,0-1.773,1.579,1.378,1.378,0,0,0,.113.537c-.036,0-.077-.011-.113-.011a1.753,1.753,0,0,0-1.7,1.148,2.534,2.534,0,0,0-.667-.095A2.245,2.245,0,0,0,19,8.842a2.152,2.152,0,0,0,1.731,2.021A1.493,1.493,0,0,0,20.182,12a1.476,1.476,0,0,0,.473,1.063A1.668,1.668,0,0,0,19,14.632a1.683,1.683,0,0,0,1.773,1.579.762.762,0,0,0,.106-.011,1.765,1.765,0,0,0,1.666,1.063,1.884,1.884,0,0,0,.721-.142,1.959,1.959,0,0,0-.13.668A2.245,2.245,0,0,0,25.5,19.9,2.245,2.245,0,0,0,27.864,22a2.548,2.548,0,0,0,1.341-.374A2.036,2.036,0,0,0,30.227,19.9a1.916,1.916,0,0,0-.342-1.074,2.619,2.619,0,0,0,.3-.063,1.633,1.633,0,0,0,1.2-1.274,2.535,2.535,0,0,0,2.411,0,1.715,1.715,0,0,0,1.749,1.358,1.645,1.645,0,0,0,.237-.021,3.261,3.261,0,0,0,.224.384A3.16,3.16,0,0,0,38.5,20.421a3.055,3.055,0,0,0,2.423-1.132,1.961,1.961,0,0,0,.532.079,1.682,1.682,0,0,0,1.772-1.579,1.3,1.3,0,0,0-.023-.21A2.64,2.64,0,0,0,45,15.158a2.788,2.788,0,0,0-2.836-2.621,1.481,1.481,0,0,0,.472-1.063,1.639,1.639,0,0,0-1.447-1.548,2.019,2.019,0,0,0,.856-1.61A2.131,2.131,0,0,0,40.5,6.344,2.992,2.992,0,0,0,40,8a2.887,2.887,0,0,0,.19,1.02c-.06,0-.13-.02-.19-.02a2.973,2.973,0,0,0-2.42,1.24A3.989,3.989,0,0,0,34,8a3,3,0,0,0-3-3,3.982,3.982,0,0,0-1.251-2.895,2.621,2.621,0,0,0-.7-.1A2.254,2.254,0,0,0,26.694,4Z" style="fill:#7bc24f"/><path d="M14.091,15a4.048,4.048,0,0,1,1.156.18A3.054,3.054,0,0,1,18.182,13c.061,0,.133.02.194.02A2.824,2.824,0,0,1,18.182,12,3.03,3.03,0,0,1,21.25,9a3.08,3.08,0,0,1,2.066.8,4.086,4.086,0,0,1,8.161.2,3.03,3.03,0,0,1,3.068,3,4.089,4.089,0,0,1,3.662,2.24A3.062,3.062,0,0,1,40.682,14c.061,0,.133.02.194.02A2.824,2.824,0,0,1,40.682,13a3.069,3.069,0,0,1,6.136,0,2.949,2.949,0,0,1-.215,1.08,4.145,4.145,0,0,1,1.847.881A3.882,3.882,0,0,0,49,13a4,4,0,0,0-3.21-3.92A3,3,0,1,0,40,8a2.887,2.887,0,0,0,.19,1.02c-.06,0-.13-.02-.19-.02a2.973,2.973,0,0,0-2.42,1.24A3.989,3.989,0,0,0,34,8a3,3,0,0,0-3-3,3.992,3.992,0,0,0-7.98-.2A2.986,2.986,0,0,0,18,7a2.887,2.887,0,0,0,.19,1.02c-.06,0-.13-.02-.19-.02a3,3,0,0,0-2.87,2.18A3.871,3.871,0,0,0,14,10a4,4,0,0,0-4,4,3.938,3.938,0,0,0,.907,2.516A4.1,4.1,0,0,1,14.091,15Z" style="fill:#8ee05b"/></g></svg>