<?xml version="1.0" encoding="utf-8"?>
<!-- Generator: Adobe Illustrator 16.0.0, SVG Export Plug-In . SVG Version: 6.00 Build 0)  -->
<!DOCTYPE svg PUBLIC "-//W3C//DTD SVG 1.1//EN" "http://www.w3.org/Graphics/SVG/1.1/DTD/svg11.dtd">
<svg version="1.1" id="icons" xmlns="http://www.w3.org/2000/svg" xmlns:xlink="http://www.w3.org/1999/xlink" x="0px" y="0px"
	 width="64px" height="64px" viewBox="0 0 64 64" enable-background="new 0 0 64 64" xml:space="preserve">
<g>
	<g>
		<path fill="#E6E9ED" d="M19,16v1.99h-6.01V16L13,13c0-1.66,1.34-3,3-3c1.65,0,3,1.34,3,3h-0.01L19,16z"/>
	</g>
	<g>
		<polygon fill="#CCD1D9" points="19,13 25,13 25,16 19,16 18.99,13 		"/>
	</g>
	<g>
		<polygon fill="#CCD1D9" points="13,13 12.99,16 7,16 7,13 12.99,13 		"/>
	</g>
	<g>
		<polygon fill="#E6E9ED" points="7,16 7,18 6,18 3,18 3,11 6,11 7,11 7,13 		"/>
	</g>
	<g>
		<polygon fill="#E6E9ED" points="26,11 29,11 29,18 26,18 25,18 25,16 25,13 25,11 		"/>
	</g>
	<g>
		<path fill="#5D9CEC" d="M26,11h-1v2h-6c0-1.66-1.35-3-3-3c-1.66,0-3,1.34-3,3h-0.01H7v-2H6C6,5.48,10.47,1,16,1
			C21.52,1,26,5.48,26,11z"/>
	</g>
	<g>
		<rect x="35" y="11" fill="#E6E9ED" width="3" height="7"/>
	</g>
	<g>
		<path fill="#E6E9ED" d="M38,53.01c0,0.01,0,0.01,0,0.021h-3v-7h3V53V53.01z"/>
	</g>
	<g>
		<path fill="#E6E9ED" d="M61,46.03v7h-3c0-0.011,0-0.011,0-0.021V53v-6.97H61z"/>
	</g>
	<g>
		<path fill="#656D78" d="M58,53.01c0,0.01,0,0.01,0,0.021C57.98,58.54,53.51,63,48,63s-9.98-4.46-10-9.97c0-0.011,0-0.011,0-0.021
			V53v-6.97V18v-7v-0.01C38.01,5.47,42.48,1,48,1s9.99,4.47,10,9.99V11v7v28.03V53V53.01z"/>
	</g>
	<g>
		<rect x="58" y="11" fill="#E6E9ED" width="3" height="7"/>
	</g>
	<g>
		<polygon fill="#E6E9ED" points="7,51 7,53 6,53 3,53 3,46 6,46 7,46 7,48 		"/>
	</g>
	<g>
		<rect x="7" y="48" fill="#CCD1D9" width="6" height="3"/>
	</g>
	<g>
		<path fill="#E6E9ED" d="M19,48v3c0,1.66-1.34,3-3,3s-3-1.34-3-3v-3v-2h6V48z"/>
	</g>
	<g>
		<polygon fill="#E6E9ED" points="26,46 29,46 29,53 26,53 25,53 25,51 25,48 25,46 		"/>
	</g>
	<g>
		<polygon fill="#5D9CEC" points="19,46 13,46 13,48 7,48 7,46 6,46 6,18 7,18 7,16 12.99,16 12.99,17.99 19,17.99 19,16 25,16 
			25,18 26,18 26,46 25,46 25,48 19.01,48 19,48 		"/>
	</g>
	<g>
		<polygon fill="#CCD1D9" points="25,48 25,51 19.01,51 19,51 19,48 19.01,48 		"/>
	</g>
	<g>
		<path fill="#5D9CEC" d="M16,54c1.66,0,3-1.34,3-3h0.01H25v2h1c0,5.52-4.48,10-10,10c-5.53,0-10-4.48-10-10h1v-2h6
			C13,52.66,14.34,54,16,54z"/>
	</g>
</g>
<g>
	<g>
		<path d="M6,47.001c-0.553,0-1-0.447-1-1V17.994c0-0.553,0.447-1,1-1s1,0.447,1,1v28.007C7,46.554,6.553,47.001,6,47.001z"/>
	</g>
	<g>
		<path d="M26,47.001c-0.553,0-1-0.447-1-1V17.994c0-0.553,0.447-1,1-1s1,0.447,1,1v28.007C27,46.554,26.553,47.001,26,47.001z"/>
	</g>
	<g>
		<g>
			<path d="M16,64C9.935,64,5,59.065,5,53c0-0.553,0.447-1,1-1s1,0.447,1,1c0,4.963,4.037,9,9,9s9-4.037,9-9c0-0.553,0.447-1,1-1
				s1,0.447,1,1C27,59.065,22.065,64,16,64z"/>
		</g>
		<g>
			<g>
				<path d="M19,52.002c-0.553,0-1-0.447-1-1v-3.997h-4v3.997c0,0.553-0.447,1-1,1s-1-0.447-1-1v-4.997c0-0.553,0.447-1,1-1h6
					c0.553,0,1,0.447,1,1v4.997C20,51.555,19.553,52.002,19,52.002z"/>
			</g>
			<g>
				<path d="M16,54.999c-2.206,0-4-1.794-4-4c0-0.553,0.447-1,1-1s1,0.447,1,1c0,1.103,0.897,2,2,2s2-0.897,2-2c0-0.553,0.447-1,1-1
					s1,0.447,1,1C20,53.205,18.206,54.999,16,54.999z"/>
			</g>
			<g>
				<path d="M16.03,52.002c-0.553,0-1.005-0.447-1.005-1s0.442-1,0.994-1h0.011c0.552,0,1,0.447,1,1S16.582,52.002,16.03,52.002z"/>
			</g>
			<g>
				<path d="M6.998,54.002h-4c-0.553,0-1-0.447-1-1v-7.001c0-0.553,0.447-1,1-1h4c0.553,0,1,0.447,1,1v7.001
					C7.998,53.555,7.551,54.002,6.998,54.002z M3.998,52.002h2v-5.001h-2V52.002z"/>
			</g>
			<g>
				<path d="M29,54.002h-4c-0.553,0-1-0.447-1-1v-7.001c0-0.553,0.447-1,1-1h4c0.553,0,1,0.447,1,1v7.001
					C30,53.555,29.553,54.002,29,54.002z M26,52.002h2v-5.001h-2V52.002z"/>
			</g>
			<g>
				<path d="M13,49.003H6.998c-0.553,0-1-0.447-1-1s0.447-1,1-1H13c0.553,0,1,0.447,1,1S13.553,49.003,13,49.003z"/>
			</g>
			<g>
				<path d="M13,52.003H6.998c-0.553,0-1-0.447-1-1s0.447-1,1-1H13c0.553,0,1,0.447,1,1S13.553,52.003,13,52.003z"/>
			</g>
			<g>
				<path d="M25.012,49.003H19.01c-0.553,0-1-0.447-1-1s0.447-1,1-1h6.002c0.553,0,1,0.447,1,1S25.564,49.003,25.012,49.003z"/>
			</g>
			<g>
				<path d="M25.012,52.003H19.01c-0.553,0-1-0.447-1-1s0.447-1,1-1h6.002c0.553,0,1,0.447,1,1S25.564,52.003,25.012,52.003z"/>
			</g>
		</g>
	</g>
	<g>
		<g>
			<path d="M5.998,12c-0.553,0-1-0.447-1-1c0-6.065,4.935-11,11-11C15.999,0,15.999,0,16,0c2.938,0,5.699,1.144,7.777,3.221
				c2.078,2.078,3.222,4.841,3.221,7.778c0,0.553-0.448,1-1,1l0,0c-0.553,0-1-0.448-1-1c0.001-2.404-0.935-4.664-2.635-6.363
				C20.663,2.936,18.403,2,16,2c-0.001,0-0.001,0-0.002,0c-4.963,0-9,4.037-9,9C6.998,11.553,6.551,12,5.998,12z"/>
		</g>
		<g>
			<path d="M12.996,18.995c-0.266,0-0.52-0.105-0.707-0.293s-0.293-0.442-0.293-0.707l0.002-4.998c0-0.553,0.448-1,1-1l0,0
				c0.553,0,1,0.448,1,1l-0.002,3.998l4.002-0.001l-0.002-3.997c0-0.552,0.447-1,1-1l0,0c0.552,0,1,0.447,1,1l0.002,4.997
				c0,0.265-0.105,0.52-0.293,0.707s-0.441,0.293-0.707,0.293L12.996,18.995z"/>
		</g>
		<g>
			<path d="M18.998,14.001c-0.553,0-1-0.447-1-1c0-1.104-0.897-2.001-2-2.001s-2,0.897-2,2c0,0.553-0.447,1-1,1s-1-0.447-1-1
				c0-2.206,1.794-4,4-4s4,1.795,4,4.001C19.998,13.554,19.551,14.001,18.998,14.001z"/>
		</g>
		<g>
			<path d="M16.028,13.997c-0.553,0-1.005-0.447-1.005-1s0.442-1,0.994-1h0.011c0.552,0,1,0.447,1,1S16.58,13.997,16.028,13.997z"/>
		</g>
		<g>
			<path d="M29,18.999L29,18.999l-4-0.001c-0.553,0-1-0.448-1-1v-7.001c0-0.553,0.447-1,1-1h4c0.553,0,1,0.447,1,1v7.002
				c0,0.266-0.105,0.52-0.293,0.707S29.266,18.999,29,18.999z M26,16.998l2,0.001v-5.002h-2V16.998z"/>
		</g>
		<g>
			<path d="M6.998,18.998h-4c-0.553,0-1-0.447-1-1v-7.001c0-0.553,0.447-1,1-1h4c0.553,0,1,0.447,1,1v7.001
				C7.998,18.551,7.551,18.998,6.998,18.998z M3.998,16.998h2v-5.001h-2V16.998z"/>
		</g>
		<g>
			<path d="M25,16.996h-6.002c-0.553,0-1-0.447-1-1s0.447-1,1-1H25c0.553,0,1,0.447,1,1S25.553,16.996,25,16.996z"/>
		</g>
		<g>
			<path d="M25,13.996h-6.002c-0.553,0-1-0.447-1-1s0.447-1,1-1H25c0.553,0,1,0.447,1,1S25.553,13.996,25,13.996z"/>
		</g>
		<g>
			<path d="M12.988,16.996H6.986c-0.553,0-1-0.447-1-1s0.447-1,1-1h6.002c0.553,0,1,0.447,1,1S13.541,16.996,12.988,16.996z"/>
		</g>
		<g>
			<path d="M12.988,13.996H6.986c-0.553,0-1-0.447-1-1s0.447-1,1-1h6.002c0.553,0,1,0.447,1,1S13.541,13.996,12.988,13.996z"/>
		</g>
	</g>
	<g>
		<path d="M38.002,54.008c-0.553,0-1-0.447-1-1V10.987c0-0.553,0.447-1,1-1s1,0.447,1,1v42.021
			C39.002,53.561,38.555,54.008,38.002,54.008z"/>
	</g>
	<g>
		<path d="M58.002,54.008c-0.553,0-1-0.447-1-1V10.987c0-0.553,0.447-1,1-1s1,0.447,1,1v42.021
			C59.002,53.561,58.555,54.008,58.002,54.008z"/>
	</g>
	<g>
		<g>
			<path d="M48.002,64c-6.065,0-11-4.935-11-11c0-0.553,0.447-1,1-1s1,0.447,1,1c0,4.963,4.037,9,9,9s9-4.037,9-9
				c0-0.553,0.447-1,1-1s1,0.447,1,1C59.002,59.065,54.067,64,48.002,64z"/>
		</g>
	</g>
	<g>
		<path d="M38,12c-0.553,0-1-0.447-1-1c0-6.065,4.935-11,11-11c0.001,0,0.001,0,0.002,0c2.938,0,5.699,1.144,7.777,3.221
			c2.078,2.078,3.222,4.841,3.221,7.778c0,0.553-0.448,1-1,1l0,0c-0.553,0-1-0.448-1-1c0.001-2.404-0.935-4.664-2.635-6.363
			C52.665,2.936,50.405,2,48.002,2C48.001,2,48.001,2,48,2c-4.963,0-9,4.037-9,9C39,11.553,38.553,12,38,12z"/>
	</g>
	<g>
		<path d="M61.002,18.999L61.002,18.999l-2.998-0.001c-0.553,0-1-0.448-1-1c0-0.553,0.448-1,1-1l0,0l1.998,0.001v-5.002h-1.998
			c-0.553,0-1-0.447-1-1s0.447-1,1-1h2.998c0.553,0,1,0.447,1,1v7.002c0,0.266-0.105,0.52-0.293,0.707S61.267,18.999,61.002,18.999z
			"/>
	</g>
	<g>
		<path d="M37.998,18.998H35c-0.553,0-1-0.447-1-1v-7.001c0-0.553,0.447-1,1-1h2.998c0.553,0,1,0.447,1,1s-0.447,1-1,1H36v5.001
			h1.998c0.553,0,1,0.447,1,1S38.551,18.998,37.998,18.998z"/>
	</g>
	<g>
		<path d="M61.002,54.033L61.002,54.033l-2.998-0.001c-0.553,0-1-0.448-1-1c0-0.553,0.448-1,1-1l0,0l1.998,0.001v-5.002h-1.998
			c-0.553,0-1-0.447-1-1s0.447-1,1-1h2.998c0.553,0,1,0.447,1,1v7.002c0,0.266-0.105,0.52-0.293,0.707S61.267,54.033,61.002,54.033z
			"/>
	</g>
	<g>
		<path d="M37.998,54.032H35c-0.553,0-1-0.447-1-1v-7.001c0-0.553,0.447-1,1-1h2.998c0.553,0,1,0.447,1,1s-0.447,1-1,1H36v5.001
			h1.998c0.553,0,1,0.447,1,1S38.551,54.032,37.998,54.032z"/>
	</g>
	<g>
		<g>
			<g>
				<path d="M46.032,13.001c-0.553,0-1.005-0.447-1.005-1s0.442-1,0.994-1h0.011c0.552,0,1,0.447,1,1S46.584,13.001,46.032,13.001z"
					/>
			</g>
		</g>
		<g>
			<g>
				<path d="M46.032,18.001c-0.553,0-1.005-0.447-1.005-1s0.442-1,0.994-1h0.011c0.552,0,1,0.447,1,1S46.584,18.001,46.032,18.001z"
					/>
			</g>
		</g>
		<g>
			<g>
				<path d="M50.036,13.001c-0.553,0-1.005-0.447-1.005-1s0.442-1,0.994-1h0.011c0.552,0,1,0.447,1,1S50.588,13.001,50.036,13.001z"
					/>
			</g>
		</g>
		<g>
			<g>
				<path d="M50.036,18.001c-0.553,0-1.005-0.447-1.005-1s0.442-1,0.994-1h0.011c0.552,0,1,0.447,1,1S50.588,18.001,50.036,18.001z"
					/>
			</g>
		</g>
	</g>
	<g>
		<g>
			<g>
				<path d="M46.032,48.001c-0.553,0-1.005-0.447-1.005-1s0.442-1,0.994-1h0.011c0.552,0,1,0.447,1,1S46.584,48.001,46.032,48.001z"
					/>
			</g>
		</g>
		<g>
			<g>
				<path d="M46.032,53.001c-0.553,0-1.005-0.447-1.005-1s0.442-1,0.994-1h0.011c0.552,0,1,0.447,1,1S46.584,53.001,46.032,53.001z"
					/>
			</g>
		</g>
		<g>
			<g>
				<path d="M50.036,48.001c-0.553,0-1.005-0.447-1.005-1s0.442-1,0.994-1h0.011c0.552,0,1,0.447,1,1S50.588,48.001,50.036,48.001z"
					/>
			</g>
		</g>
		<g>
			<g>
				<path d="M50.036,53.001c-0.553,0-1.005-0.447-1.005-1s0.442-1,0.994-1h0.011c0.552,0,1,0.447,1,1S50.588,53.001,50.036,53.001z"
					/>
			</g>
		</g>
	</g>
</g>
</svg>
