<?xml version="1.0" encoding="iso-8859-1"?>
<!-- Generator: Adobe Illustrator 19.0.0, SVG Export Plug-In . SVG Version: 6.00 Build 0)  -->
<svg xmlns="http://www.w3.org/2000/svg" xmlns:xlink="http://www.w3.org/1999/xlink" version="1.1" id="Layer_1" x="0px" y="0px" viewBox="0 0 512 512" style="enable-background:new 0 0 512 512;" xml:space="preserve">
<g>
	<path style="fill:#48449E;" d="M305.021,93.698h-98.043c-9.024,0-16.34,7.316-16.34,16.34s7.316,16.34,16.34,16.34h98.043   c9.024,0,16.34-7.316,16.34-16.34S314.046,93.698,305.021,93.698z"/>
	<path style="fill:#48449E;" d="M125.456,8.17c0,12.621-10.268,22.89-22.89,22.89h-21.92c-4.512,0-8.17,3.657-8.17,8.17   s3.658,8.17,8.17,8.17h21.92c21.631,0,39.23-17.598,39.23-39.23H125.456z"/>
	<path style="fill:#48449E;" d="M431.353,31.06h-21.919c-12.621,0-22.89-10.268-22.89-22.89h-16.34   c0,21.631,17.598,39.23,39.23,39.23h21.919c4.513,0,8.17-3.657,8.17-8.17S435.866,31.06,431.353,31.06z"/>
</g>
<path style="fill:#1F1A78;" d="M306.618,47.4H205.381c-18.831,0-34.606-13.335-38.374-31.06H80.646c-4.512,0-8.17-3.657-8.17-8.17  S76.134,0,80.646,0h93.676c4.512,0,8.17,3.657,8.17,8.17c0,12.621,10.268,22.89,22.89,22.89h101.237  c12.621,0,22.89-10.268,22.89-22.89c0-4.513,3.657-8.17,8.17-8.17h93.675c4.513,0,8.17,3.657,8.17,8.17s-3.657,8.17-8.17,8.17  h-86.36C341.223,34.065,325.448,47.4,306.618,47.4z"/>
<path style="fill:#48449E;" d="M255.999,20.166c-4.512,0-8.17,3.657-8.17,8.17v76.255h16.34V28.336  C264.17,23.823,260.513,20.166,255.999,20.166z"/>
<rect x="239.659" y="93.696" style="fill:#DB412C;" width="32.681" height="62.758"/>
<path style="fill:#48449E;" d="M255.999,186.33c-9.024,0-16.34,7.316-16.34,16.34v284.819c0,9.024,7.316,16.34,16.34,16.34  c9.024,0,16.34-7.316,16.34-16.34V202.67C272.34,193.645,265.025,186.33,255.999,186.33z"/>
<path id="SVGCleanerId_0" style="fill:#1F1A78;" d="M348.595,336.909h-35.404l-5.447,8.17l5.447,8.17h35.404  c4.513,0,8.17-3.657,8.17-8.17C356.765,340.567,353.108,336.909,348.595,336.909z"/>
<g>
	<path id="SVGCleanerId_0_1_" style="fill:#1F1A78;" d="M348.595,336.909h-35.404l-5.447,8.17l5.447,8.17h35.404   c4.513,0,8.17-3.657,8.17-8.17C356.765,340.567,353.108,336.909,348.595,336.909z"/>
</g>
<path style="fill:#1F1A78;" d="M163.404,336.909h35.404l5.447,8.17l-5.447,8.17h-35.404c-4.513,0-8.17-3.657-8.17-8.17  C155.233,340.567,158.892,336.909,163.404,336.909z"/>
<path style="fill:#DB412C;" d="M255.999,145.479c-31.536,0-57.191,25.657-57.191,57.191v150.58h8.17c4.512,0,8.17-3.657,8.17-8.17  V202.67c0-22.526,18.325-40.851,40.851-40.851s40.851,18.325,40.851,40.851v142.41c0,4.513,3.658,8.17,8.17,8.17h8.17V202.67  C313.191,171.135,287.535,145.479,255.999,145.479z"/>
<path d="M431.353,31.06h-21.919c-9.74,0-18.056-6.127-21.356-14.719h43.275c4.513,0,8.17-3.657,8.17-8.17S435.866,0,431.353,0  h-93.675c-4.512,0-8.17,3.657-8.17,8.17c0,12.621-10.268,22.89-22.89,22.89H264.17v-2.723c0-4.513-3.657-8.17-8.17-8.17  c-4.512,0-8.17,3.657-8.17,8.17v2.723h-42.448c-12.621,0-22.89-10.268-22.89-22.89c0-4.513-3.658-8.17-8.17-8.17H80.646  c-4.512,0-8.17,3.657-8.17,8.17s3.658,8.17,8.17,8.17h43.276c-3.3,8.593-11.616,14.719-21.356,14.719h-21.92  c-4.512,0-8.17,3.657-8.17,8.17s3.658,8.17,8.17,8.17h21.919c18.831,0,34.598-13.337,38.368-31.06h26.074  c3.769,17.725,19.543,31.06,38.374,31.06h42.448v38.128h-40.851c-13.516,0-24.511,10.996-24.511,24.511s10.995,24.511,24.511,24.511  c4.512,0,8.17-3.657,8.17-8.17s-3.658-8.17-8.17-8.17c-4.506,0-8.17-3.665-8.17-8.17s3.665-8.17,8.17-8.17h24.511v49.14  c-19.305,9.196-32.681,28.894-32.681,51.662v134.24h-35.404c-4.512,0-8.17,3.657-8.17,8.17c0,4.513,3.658,8.17,8.17,8.17h43.574  c4.512,0,8.17-3.657,8.17-8.17V202.67c0-17.637,11.235-32.696,26.922-38.403c0.024-0.008,0.047-0.016,0.07-0.024  c4.329-1.566,8.995-2.424,13.858-2.424c4.862,0,9.526,0.857,13.856,2.423c0.025,0.008,0.049,0.017,0.074,0.025  c15.688,5.707,26.922,20.767,26.922,38.403v142.41c0,4.513,3.657,8.17,8.17,8.17h43.574c4.513,0,8.17-3.657,8.17-8.17  c0-4.513-3.657-8.17-8.17-8.17h-35.404V202.67c0-22.768-13.376-42.465-32.681-51.662v-49.14h24.511c4.506,0,8.17,3.665,8.17,8.17  s-3.665,8.17-8.17,8.17c-4.513,0-8.17,3.657-8.17,8.17c0,4.513,3.657,8.17,8.17,8.17c13.515,0,24.511-10.996,24.511-24.511  s-10.996-24.511-24.511-24.511H264.17V47.4h42.448c18.831,0,34.606-13.335,38.375-31.06h26.074  c3.77,17.723,19.538,31.06,38.368,31.06h21.919c4.513,0,8.17-3.657,8.17-8.17S435.865,31.06,431.353,31.06z M264.17,146.071  c-2.67-0.383-5.396-0.593-8.17-0.593s-5.5,0.209-8.17,0.593v-44.203h16.34V146.071z"/>
<path d="M255.999,178.16c-13.516,0-24.511,10.996-24.511,24.511v284.819c0,13.515,10.995,24.511,24.511,24.511  c13.515,0,24.511-10.996,24.511-24.511V202.67C280.51,189.156,269.514,178.16,255.999,178.16z M264.17,487.489  c0,4.506-3.665,8.17-8.17,8.17c-4.506,0-8.17-3.665-8.17-8.17V202.67c0-4.506,3.665-8.17,8.17-8.17c4.506,0,8.17,3.665,8.17,8.17  V487.489z"/>
<g>
</g>
<g>
</g>
<g>
</g>
<g>
</g>
<g>
</g>
<g>
</g>
<g>
</g>
<g>
</g>
<g>
</g>
<g>
</g>
<g>
</g>
<g>
</g>
<g>
</g>
<g>
</g>
<g>
</g>
</svg>
