<?xml version="1.0" encoding="utf-8"?>
<!-- Generator: Adobe Illustrator 24.0.0, SVG Export Plug-In . SVG Version: 6.00 Build 0)  -->
<svg version="1.1" xmlns="http://www.w3.org/2000/svg" xmlns:xlink="http://www.w3.org/1999/xlink" x="0px" y="0px"
	 viewBox="0 0 256 256" enable-background="new 0 0 256 256" xml:space="preserve">
<g id="Layer_1">
</g>
<g id="Layer_2">
</g>
<g id="Layer_3">
</g>
<g id="Layer_4">
</g>
<g id="Layer_5">
</g>
<g id="Layer_6">
</g>
<g id="Layer_7">
</g>
<g id="Layer_8">
</g>
<g id="Layer_9">
</g>
<g id="Layer_10">
</g>
<g id="Layer_11">
</g>
<g id="Layer_12">
</g>
<g id="Layer_13">
</g>
<g id="Layer_14">
</g>
<g id="Layer_15">
</g>
<g id="Layer_16">
</g>
<g id="Layer_17">
</g>
<g id="Layer_18">
</g>
<g id="Layer_19">
</g>
<g id="Layer_20">
</g>
<g id="Layer_21">
</g>
<g id="Layer_22">
</g>
<g id="Layer_23">
</g>
<g id="Layer_24">
</g>
<g id="Layer_25">
</g>
<g id="Layer_26">
</g>
<g id="Layer_27">
	<g>
		<g>
			<g>
				<path fill="#FC657E" d="M128,2.5L128,2.5c-52.829,0-95.656,42.826-95.656,95.655v59.689c0,52.829,42.826,95.655,95.655,95.655h0
					c52.829,0,95.655-42.826,95.655-95.655V98.155C223.655,45.326,180.829,2.5,128,2.5z"/>
			</g>
		</g>
		<g>
			<g>
				<path fill="#B2E26D" d="M128,47.5c-27.932,0-50.655,22.724-50.655,50.655v59.689c0,27.932,22.724,50.655,50.655,50.655
					s50.655-22.724,50.655-50.655V98.155C178.655,70.224,155.932,47.5,128,47.5z"/>
			</g>
		</g>
		<g>
			<g>
				<path fill="#87D147" d="M158.122,83.5H97.878c-2.97,0-5.378,2.408-5.378,5.378v78.244c0,2.97,2.408,5.378,5.378,5.378h60.244
					c2.97,0,5.378-2.408,5.378-5.378V88.878C163.5,85.908,161.092,83.5,158.122,83.5z"/>
			</g>
		</g>
		<g>
			<g>
				<path fill="#B2E26D" d="M219.906,28.325c-2.809-0.5-4.995-2.685-5.557-5.432c0-0.125-0.25-0.125-0.25,0
					c-0.562,2.747-2.747,4.932-5.556,5.432c-0.125,0-0.125,0.187,0,0.25c2.809,0.5,4.995,2.685,5.556,5.432
					c0,0.125,0.25,0.125,0.25,0c0.562-2.747,2.747-4.932,5.557-5.432C220.031,28.512,220.031,28.325,219.906,28.325z"/>
			</g>
		</g>
		<g>
			<g>
				<path fill="#F5C84C" d="M226.8,237.85c-4.5-0.8-8-4.3-8.9-8.7c0-0.2-0.4-0.2-0.4,0c-0.9,4.4-4.4,7.9-8.9,8.7
					c-0.2,0-0.2,0.3,0,0.4c4.5,0.8,8,4.3,8.9,8.7c0,0.2,0.4,0.2,0.4,0c0.9-4.4,4.4-7.9,8.9-8.7C227,238.15,227,237.85,226.8,237.85z
					"/>
			</g>
		</g>
		<g>
			<g>
				<path fill="#70D6F9" d="M43.2,27.9h-2.3v-2.3c0-1.7-1.4-3.2-3.2-3.2s-3.2,1.4-3.2,3.2v2.3h-2.3c-1.7,0-3.2,1.4-3.2,3.2
					s1.4,3.2,3.2,3.2h2.3v2.3c0,1.7,1.4,3.2,3.2,3.2s3.2-1.4,3.2-3.2v-2.3h2.3c1.7,0,3.2-1.4,3.2-3.2S45,27.9,43.2,27.9z"/>
			</g>
		</g>
		<g>
			<g>
				<path fill="#F5C84C" d="M54.8,5.5c-1.878,0-3.4,1.522-3.4,3.4c0,1.878,1.522,3.4,3.4,3.4c1.878,0,3.4-1.522,3.4-3.4
					C58.2,7.022,56.678,5.5,54.8,5.5z"/>
			</g>
		</g>
		<g>
			<g>
				<path fill="#FC657E" d="M226.8,205.5c-1.878,0-3.4,1.522-3.4,3.4c0,1.878,1.522,3.4,3.4,3.4c1.878,0,3.4-1.522,3.4-3.4
					C230.2,207.022,228.678,205.5,226.8,205.5z"/>
			</g>
		</g>
		<g>
			<g>
				<g>
					<g>
						<path d="M128,0C73.877,0,29.845,44.032,29.845,98.155v59.689C29.845,211.968,73.877,256,128,256s98.155-44.032,98.155-98.155
							V98.155C226.155,44.032,182.123,0,128,0z M221.155,157.845C221.155,209.211,179.366,251,128,251s-93.155-41.789-93.155-93.155
							V98.155C34.845,46.789,76.634,5,128,5s93.155,41.789,93.155,93.155V157.845z"/>
					</g>
				</g>
			</g>
		</g>
		<g>
			<g>
				<g>
					<g>
						<path d="M128,15c-45.852,0-83.155,37.303-83.155,83.155v59.689C44.845,203.697,82.148,241,128,241
							s83.155-37.303,83.155-83.155V98.155C211.155,52.303,173.852,15,128,15z M206.155,157.845C206.155,200.94,171.095,236,128,236
							s-78.155-35.06-78.155-78.155V98.155C49.845,55.06,84.905,20,128,20s78.155,35.06,78.155,78.155V157.845z"/>
					</g>
				</g>
			</g>
		</g>
		<g>
			<g>
				<g>
					<g>
						<path d="M128,30c-37.581,0-68.155,30.574-68.155,68.155v59.689C59.845,195.426,90.419,226,128,226
							s68.155-30.574,68.155-68.155V98.155C196.155,60.574,165.581,30,128,30z M191.155,157.845
							C191.155,192.668,162.824,221,128,221s-63.155-28.332-63.155-63.155V98.155C64.845,63.332,93.176,35,128,35
							s63.155,28.332,63.155,63.155V157.845z"/>
					</g>
				</g>
			</g>
		</g>
		<g>
			<g>
				<path d="M76.345,150.5h-43c-1.381,0-2.5,1.119-2.5,2.5s1.119,2.5,2.5,2.5h43c1.381,0,2.5-1.119,2.5-2.5
					S77.726,150.5,76.345,150.5z"/>
			</g>
		</g>
		<g>
			<g>
				<path d="M222.655,150.5h-43c-1.381,0-2.5,1.119-2.5,2.5s1.119,2.5,2.5,2.5h43c1.381,0,2.5-1.119,2.5-2.5
					S224.036,150.5,222.655,150.5z"/>
			</g>
		</g>
		<g>
			<g>
				<path d="M222.655,100.5h-43c-1.381,0-2.5,1.119-2.5,2.5s1.119,2.5,2.5,2.5h43c1.381,0,2.5-1.119,2.5-2.5
					S224.036,100.5,222.655,100.5z"/>
			</g>
		</g>
		<g>
			<g>
				<path d="M76.345,100.5h-43c-1.381,0-2.5,1.119-2.5,2.5s1.119,2.5,2.5,2.5h43c1.381,0,2.5-1.119,2.5-2.5
					S77.726,100.5,76.345,100.5z"/>
			</g>
		</g>
		<g>
			<g>
				<g>
					<g>
						<path d="M128,45c-29.31,0-53.155,23.845-53.155,53.155v59.689C74.845,187.155,98.69,211,128,211s53.155-23.845,53.155-53.155
							V98.155C181.155,68.845,157.31,45,128,45z M176.155,157.845C176.155,184.397,154.553,206,128,206
							s-48.155-21.603-48.155-48.155V98.155C79.845,71.603,101.447,50,128,50s48.155,21.603,48.155,48.155V157.845z"/>
					</g>
				</g>
			</g>
		</g>
		<g>
			<g>
				<g>
					<g>
						<path d="M158.122,81H97.878C93.534,81,90,84.534,90,88.878v78.243c0,4.344,3.534,7.878,7.878,7.878h60.243
							c4.344,0,7.878-3.534,7.878-7.878V88.878C166,84.534,162.466,81,158.122,81z M161,167.122c0,1.587-1.291,2.878-2.878,2.878
							H97.878c-1.587,0-2.878-1.291-2.878-2.878V88.878C95,87.291,96.291,86,97.878,86h60.243c1.587,0,2.878,1.291,2.878,2.878
							V167.122z"/>
					</g>
				</g>
			</g>
		</g>
	</g>
</g>
<g id="Layer_28">
</g>
<g id="Layer_29">
</g>
<g id="Layer_30">
</g>
<g id="Layer_31">
</g>
<g id="Layer_32">
</g>
<g id="Layer_33">
</g>
<g id="Layer_34">
</g>
<g id="Layer_35">
</g>
<g id="Layer_36">
</g>
<g id="Layer_37">
</g>
<g id="Layer_38">
</g>
<g id="Layer_39">
</g>
<g id="Layer_40">
</g>
<g id="Layer_41">
</g>
<g id="Layer_42">
</g>
<g id="Layer_43">
</g>
<g id="Layer_44">
</g>
<g id="Layer_45">
</g>
<g id="Layer_46">
</g>
<g id="Layer_47">
</g>
<g id="Layer_48">
</g>
<g id="Layer_49">
</g>
<g id="Layer_50">
</g>
<g id="Layer_51">
</g>
<g id="Layer_52">
</g>
<g id="Layer_53">
</g>
<g id="Layer_54">
</g>
<g id="Layer_55">
</g>
<g id="Layer_56">
</g>
<g id="Layer_57">
</g>
<g id="Layer_58">
</g>
<g id="Layer_59">
</g>
<g id="Layer_60">
</g>
<g id="Layer_61">
</g>
<g id="Layer_62">
</g>
<g id="Layer_63">
</g>
<g id="Layer_64">
</g>
<g id="Layer_65">
</g>
<g id="Layer_66">
</g>
<g id="Layer_67">
</g>
<g id="Layer_68">
</g>
<g id="Layer_69">
</g>
<g id="Layer_70">
</g>
<g id="Layer_71">
</g>
<g id="Layer_72">
</g>
<g id="Layer_73">
</g>
<g id="Layer_74">
</g>
<g id="Layer_75">
</g>
</svg>
