<?xml version="1.0" encoding="iso-8859-1"?>
<!-- Generator: Adobe Illustrator 19.0.0, SVG Export Plug-In . SVG Version: 6.00 Build 0)  -->
<svg version="1.1" id="Layer_1" xmlns="http://www.w3.org/2000/svg" xmlns:xlink="http://www.w3.org/1999/xlink" x="0px" y="0px"
	 viewBox="0 0 512 512" style="enable-background:new 0 0 512 512;" xml:space="preserve">
<path style="fill:#7C6755;" d="M293.627,44.361c48.043-48.043,125.937-48.043,173.98,0c48.045,48.044,48.044,125.937,0,173.981
	L218.312,467.638c-48.044,48.043-125.936,48.044-173.981,0c-48.043-48.044-48.043-125.937,0-173.982L293.627,44.361z"/>
<path style="fill:#FFCE00;" d="M274.193,63.787c-19.234,48.207-9.374,105.422,29.592,144.388
	c33.424,33.424,51.252,76.626,53.498,120.484L237.736,448.214c19.235-48.207,9.375-105.422-29.591-144.389
	c-33.426-33.424-51.252-76.626-53.498-120.484L274.193,63.787z"/>
<path style="fill:#61B4E4;" d="M184.802,153.187c2.244,43.858,20.072,87.06,53.498,120.484
	c38.966,38.966,48.826,96.182,29.59,144.389l59.245-59.244c-2.246-43.857-20.073-87.059-53.498-120.482
	c-38.967-38.967-48.827-96.183-29.591-144.391L184.802,153.187z"/>
<path style="fill:#493728;" d="M148.023,336.138l-28.522,28.521l27.809,27.807l28.521-28.52c7.678-7.68,7.678-20.129,0-27.807
	C168.153,328.457,155.703,328.458,148.023,336.138z"/>
<rect x="130.223" y="351.213" transform="matrix(-0.7071 0.7071 -0.7071 -0.7071 503.1077 533.3588)" style="opacity:0.2;enable-background:new    ;" width="21.738" height="39.327"/>
<g>
	<circle style="fill:#7D868C;" cx="161.931" cy="350.036" r="5.575"/>
	
		<rect x="116.774" y="338.005" transform="matrix(-0.7071 0.7071 -0.7071 -0.7071 493.3273 556.9461)" style="fill:#7D868C;" width="29.085" height="85.279"/>
</g>
<path style="opacity:0.2;enable-background:new    ;" d="M90.888,360.784l11.622,11.622l20.57-20.57l-11.622-11.622L90.888,360.784z
	 M160.134,388.89l-20.569,20.571l11.621,11.621l20.569-20.571L160.134,388.89z"/>
<g>
	<path style="fill:#333E48;" d="M98.185,302.774c8.042-8.044,21.082-8.044,29.124-0.001c8.044,8.044,8.044,21.084,0.002,29.127
		l-44.737,44.737c-8.043,8.044-21.082,8.044-29.127-0.001c-8.043-8.043-8.043-21.083,0-29.127L98.185,302.774z"/>
	<path style="fill:#333E48;" d="M209.194,413.785c8.045-8.043,8.045-21.082,0-29.127c-8.043-8.043-21.083-8.043-29.124-0.001
		l-44.733,44.738c-8.045,8.044-8.045,21.083-0.002,29.125c8.043,8.044,21.083,8.044,29.127,0.001L209.194,413.785z"/>
</g>
<path style="fill:#493728;" d="M336.109,148.054l28.521-28.522l27.807,27.808l-28.521,28.521c-7.678,7.679-20.129,7.679-27.807,0
	C328.428,168.183,328.428,155.732,336.109,148.054z"/>
<rect x="359.974" y="121.449" transform="matrix(0.7071 -0.7071 0.7071 0.7071 8.8361 303.5565)" style="opacity:0.2;enable-background:new    ;" width="21.738" height="39.327"/>
<g>
	<circle style="fill:#7D868C;" cx="350.015" cy="161.964" r="5.575"/>
	
		<rect x="366.085" y="88.713" transform="matrix(0.7071 -0.7071 0.7071 0.7071 18.6027 307.6164)" style="fill:#7D868C;" width="29.085" height="85.279"/>
</g>
<path style="opacity:0.2;enable-background:new    ;" d="M340.185,111.488l11.622,11.622l20.57-20.57l-11.623-11.622
	L340.185,111.488z M400.482,171.784l20.571-20.568l-11.622-11.621l-20.57,20.569L400.482,171.784z"/>
<g>
	<path style="fill:#333E48;" d="M302.744,98.215c-8.043,8.042-8.043,21.082,0,29.123c8.043,8.045,21.083,8.045,29.127,0.002
		l44.737-44.737c8.043-8.043,8.043-21.083-0.001-29.128c-8.043-8.043-21.083-8.043-29.127,0L302.744,98.215z"/>
	<path style="fill:#333E48;" d="M413.755,209.224c-8.042,8.044-21.082,8.044-29.127,0c-8.042-8.044-8.043-21.083-0.001-29.125
		l44.738-44.734c8.044-8.044,21.082-8.045,29.125-0.002c8.044,8.045,8.044,21.085,0.001,29.128L413.755,209.224z"/>
</g>
<path style="fill:#1E252B;" d="M464.38,129.473c-5.463-5.462-12.725-8.47-20.45-8.47c-7.726,0-14.99,3.008-20.454,8.472
	l-6.192,6.192l-40.981-40.981l6.194-6.194c11.278-11.278,11.277-29.629-0.001-40.906c-5.463-5.463-12.727-8.471-20.453-8.471
	c-7.726,0-14.99,3.008-20.452,8.471l-44.735,44.738c-5.463,5.463-8.472,12.726-8.472,20.452s3.01,14.989,8.471,20.451
	c5.463,5.464,12.727,8.474,20.453,8.474c0.001,0,0.001,0,0.002,0c7.724,0,14.987-3.008,20.45-8.471l6.195-6.196l0.696,0.696
	l-14.432,14.432c-5.288,5.287-8.2,12.317-8.2,19.795c0,7.477,2.913,14.507,8.199,19.793c5.287,5.287,12.316,8.199,19.793,8.199
	s14.507-2.912,19.793-8.199l14.432-14.432l0.696,0.695l-6.195,6.195c-11.275,11.277-11.275,29.626,0.001,40.905
	c5.463,5.464,12.727,8.472,20.453,8.472c7.726,0,14.99-3.01,20.452-8.472l44.737-44.734
	C475.659,159.103,475.659,140.752,464.38,129.473z M325.981,121.452c-2.317,2.317-5.396,3.592-8.671,3.592h-0.001
	c-3.277,0-6.358-1.276-8.676-3.595c-2.315-2.316-3.592-5.395-3.592-8.672c0-3.276,1.276-6.356,3.593-8.672l44.735-44.739
	c2.317-2.317,5.397-3.593,8.673-3.593s6.357,1.276,8.673,3.593c4.783,4.783,4.784,12.566,0.001,17.349L325.981,121.452z
	 M358.025,169.972c-2.14,2.141-4.986,3.319-8.014,3.319c-3.027,0-5.874-1.179-8.015-3.321c-2.141-2.14-3.321-4.986-3.321-8.014
	s1.179-5.873,3.321-8.014l14.432-14.433l16.029,16.029L358.025,169.972z M355.733,115.257l8.791-8.79l40.98,40.98l-8.791,8.79
	L355.733,115.257z M452.603,158.601l-44.738,44.735c-2.315,2.317-5.395,3.593-8.671,3.593c-3.277,0-6.358-1.276-8.675-3.593
	c-4.782-4.783-4.783-12.565-0.001-17.347l44.738-44.734c2.318-2.318,5.398-3.594,8.675-3.594c3.275,0,6.355,1.275,8.671,3.59
	C457.384,146.036,457.385,153.818,452.603,158.601z M194.632,370.299c-7.725,0-14.988,3.007-20.451,8.471l-6.195,6.195l-0.696-0.695
	l14.432-14.432c5.288-5.287,8.2-12.317,8.2-19.795s-2.912-14.507-8.199-19.792c-5.287-5.287-12.316-8.199-19.793-8.199
	c-7.477,0-14.507,2.912-19.793,8.199l-14.432,14.433l-0.696-0.696l6.195-6.195c11.275-11.277,11.275-29.626-0.001-40.905
	c-5.463-5.464-12.727-8.472-20.454-8.472c-7.726,0-14.989,3.01-20.451,8.472L47.56,341.622
	c-11.278,11.278-11.277,29.629,0.001,40.907c5.462,5.462,12.725,8.47,20.45,8.47c7.726,0,14.99-3.01,20.454-8.472l6.192-6.192
	l40.981,40.981l-6.194,6.194c-11.278,11.278-11.277,29.629,0.001,40.907c5.463,5.463,12.727,8.471,20.453,8.471
	c7.726,0,14.99-3.009,20.452-8.471l44.735-44.738c5.463-5.463,8.472-12.726,8.472-20.452s-3.008-14.989-8.471-20.451
	C209.624,373.308,202.36,370.299,194.632,370.299z M153.915,342.028c2.14-2.141,4.986-3.319,8.014-3.319s5.874,1.178,8.015,3.321
	c2.141,2.14,3.321,4.986,3.321,8.013c0,3.027-1.178,5.874-3.321,8.015l-14.432,14.433l-16.029-16.029L153.915,342.028z
	 M76.686,370.745c-2.318,2.318-5.398,3.594-8.675,3.594c-3.275,0-6.355-1.276-8.67-3.592c-4.783-4.783-4.784-12.566-0.001-17.349
	l44.738-44.735c2.317-2.317,5.395-3.593,8.671-3.593c3.277,0,6.358,1.276,8.675,3.593c4.782,4.783,4.783,12.566,0.002,17.347
	L76.686,370.745z M106.436,364.554l8.791-8.79l40.98,40.98l-8.79,8.791L106.436,364.554z M203.307,407.895l-44.735,44.739
	c-2.317,2.317-5.397,3.593-8.673,3.593s-6.357-1.276-8.673-3.593c-4.783-4.783-4.783-12.566-0.001-17.349l44.737-44.737
	c2.317-2.316,5.396-3.592,8.672-3.592c3.276,0,6.357,1.276,8.676,3.595c2.316,2.316,3.592,5.395,3.592,8.671
	C206.9,402.499,205.624,405.579,203.307,407.895z M473.497,38.473C448.688,13.663,415.703,0,380.617,0s-68.07,13.663-92.879,38.472
	L38.442,287.766c-51.213,51.216-51.213,134.547,0,185.762C63.25,498.337,96.236,512,131.321,512
	c35.086,0,68.072-13.663,92.88-38.473l249.296-249.294c24.809-24.809,38.472-57.794,38.472-92.879
	C511.97,96.268,498.306,63.282,473.497,38.473z M461.718,212.453L212.422,461.748c-21.664,21.663-50.466,33.593-81.102,33.593
	c-30.635,0-59.438-11.931-81.101-33.593c-44.718-44.719-44.718-117.484,0-162.203L299.517,50.252
	c21.663-21.663,50.464-33.593,81.101-33.593c30.636,0,59.438,11.931,81.101,33.593s33.593,50.465,33.593,81.101
	S483.381,190.79,461.718,212.453z"/>
<g>
</g>
<g>
</g>
<g>
</g>
<g>
</g>
<g>
</g>
<g>
</g>
<g>
</g>
<g>
</g>
<g>
</g>
<g>
</g>
<g>
</g>
<g>
</g>
<g>
</g>
<g>
</g>
<g>
</g>
</svg>
