<?xml version="1.0" encoding="utf-8"?>
<!-- Generator: Adobe Illustrator 16.0.0, SVG Export Plug-In . SVG Version: 6.00 Build 0)  -->
<!DOCTYPE svg PUBLIC "-//W3C//DTD SVG 1.1//EN" "http://www.w3.org/Graphics/SVG/1.1/DTD/svg11.dtd">
<svg version="1.1" id="icons" xmlns="http://www.w3.org/2000/svg" xmlns:xlink="http://www.w3.org/1999/xlink" x="0px" y="0px"
	 width="64px" height="64px" viewBox="0 0 64 64" enable-background="new 0 0 64 64" xml:space="preserve">
<g>
	<g>
		<path fill="#965353" d="M40,12v2.97L37,13c0,0-2,1-5,1s-5-1-5-1l-3,1.97V12c0-4.42,3.58-8,8-8h4v4C38.21,8,40,9.79,40,12z"/>
	</g>
	<g>
		<path fill="#EAC6BB" d="M40,14.97V17c0,2.96-1.609,5.55-4,6.93C34.83,24.61,33.46,25,32,25s-2.83-0.39-4.01-1.07
			C25.6,22.54,24,19.96,24,17v-2.03L27,13c0,0,2,1,5,1s5-1,5-1L40,14.97z"/>
	</g>
	<g>
		<path fill="#D3B1A9" d="M32,25c1.46,0,2.83-0.39,4-1.07V26c0,2.21-1.79,4.01-4,4.01s-4.01-1.8-4.01-4.01v-2.07
			C29.17,24.61,30.54,25,32,25z"/>
	</g>
	<g>
		<g>
			<path fill="#D3B1A9" d="M11.51,26c-1.38,0-2.5,1.12-2.5,2.5c0,1.29,0.971,2.35,2.221,2.49c0.01,0,0.02,0,0.02,0
				C11.34,31,11.42,31,11.51,31H25v-5h-8.99H11.51z"/>
		</g>
		<g>
			<path fill="#D3B1A9" d="M52.49,26H48h-9v0.13V31h13.49c0.09,0,0.17,0,0.26-0.01c0,0,0.01,0,0.02,0
				c1.25-0.141,2.221-1.2,2.221-2.49C54.99,27.12,53.87,26,52.49,26z"/>
		</g>
	</g>
	<g>
		<path fill="#E6E9ED" d="M39,62v1h-7v-1c0-1.94,1.57-3.5,3.5-3.5S39,60.06,39,62z"/>
	</g>
	<g>
		<path fill="#E6E9ED" d="M32,62v1h-7v-1c0-1.94,1.57-3.5,3.5-3.5S32,60.06,32,62z"/>
	</g>
	<g>
		<path fill="#656D78" d="M32,62c0-1.94-1.57-3.5-3.5-3.5S25,60.06,25,62V44h7h7v18c0-1.94-1.57-3.5-3.5-3.5S32,60.06,32,62z"/>
	</g>
	<g>
		<path fill="#5D9CEC" d="M27.99,26c0,2.21,1.8,4.01,4.01,4.01s4-1.8,4-4.01h3v0.13V31v13h-7h-7V31v-5H27.99z"/>
	</g>
</g>
<g>
	<g>
		<path d="M35.996,27.004c-0.553,0-1-0.447-1-1v-2.07c0-0.553,0.447-1,1-1s1,0.447,1,1v2.07
			C36.996,26.557,36.549,27.004,35.996,27.004z"/>
	</g>
	<g>
		<path d="M27.988,27.004c-0.553,0-1-0.447-1-1V23.93c0-0.553,0.447-1,1-1s1,0.447,1,1v2.074
			C28.988,26.557,28.541,27.004,27.988,27.004z"/>
	</g>
	<g>
		<path d="M31.992,31.008c-2.759,0-5.004-2.245-5.004-5.004c0-0.553,0.447-1,1-1s1,0.447,1,1c0,1.656,1.348,3.004,3.004,3.004
			s3.004-1.348,3.004-3.004c0-0.553,0.447-1,1-1s1,0.447,1,1C36.996,28.763,34.751,31.008,31.992,31.008z"/>
	</g>
	<g>
		<g>
			<path d="M24.996,62.998c-0.553,0-1-0.447-1-1V44.002c0-0.553,0.447-1,1-1h7c0.553,0,1,0.447,1,1s-0.447,1-1,1h-6v16.996
				C25.996,62.551,25.549,62.998,24.996,62.998z"/>
		</g>
		<g>
			<path d="M38.998,62.998c-0.553,0-1-0.447-1-1V45.002h-6.002c-0.553,0-1-0.447-1-1s0.447-1,1-1h7.002c0.553,0,1,0.447,1,1v17.996
				C39.998,62.551,39.551,62.998,38.998,62.998z"/>
		</g>
	</g>
	<g>
		<path d="M24.996,45.002c-0.553,0-1-0.447-1-1V25.994c0-0.553,0.447-1,1-1s1,0.447,1,1v18.008
			C25.996,44.555,25.549,45.002,24.996,45.002z"/>
	</g>
	<g>
		<path d="M38.998,45.002c-0.553,0-1-0.447-1-1V26.131c0-0.553,0.447-1,1-1s1,0.447,1,1v17.871
			C39.998,44.555,39.551,45.002,38.998,45.002z"/>
	</g>
	<g>
		<path d="M31.996,64c-0.553,0-1-0.447-1-1V49.002c0-0.553,0.447-1,1-1s1,0.447,1,1V63C32.996,63.553,32.549,64,31.996,64z"/>
	</g>
	<g>
		<path d="M27.993,27.002h-16.49c-0.553,0-1-0.447-1-1s0.447-1,1-1h16.49c0.553,0,1,0.447,1,1S28.546,27.002,27.993,27.002z"/>
	</g>
	<g>
		<path d="M11.503,32.002c-1.93,0-3.5-1.57-3.5-3.5s1.57-3.5,3.5-3.5c0.553,0,1,0.447,1,1s-0.447,1-1,1c-0.827,0-1.5,0.673-1.5,1.5
			s0.673,1.5,1.5,1.5c0.553,0,1,0.447,1,1S12.056,32.002,11.503,32.002z"/>
	</g>
	<g>
		<path d="M31.996,62.998c-0.553,0-1-0.447-1-1c0-1.379-1.121-2.5-2.5-2.5s-2.5,1.121-2.5,2.5c0,0.553-0.447,1-1,1s-1-0.447-1-1
			c0-2.481,2.019-4.5,4.5-4.5s4.5,2.019,4.5,4.5C32.996,62.551,32.549,62.998,31.996,62.998z"/>
	</g>
	<g>
		<path d="M24.996,64c-0.553,0-1-0.447-1-1v-1.002c0-0.553,0.447-1,1-1s1,0.447,1,1V63C25.996,63.553,25.549,64,24.996,64z"/>
	</g>
	<g>
		<path d="M31.996,64h-7c-0.553,0-1-0.447-1-1s0.447-1,1-1h7c0.553,0,1,0.447,1,1S32.549,64,31.996,64z"/>
	</g>
	<g>
		<path d="M38.998,62.998c-0.553,0-1-0.447-1-1c0-1.379-1.121-2.5-2.5-2.5c-1.38,0-2.502,1.121-2.502,2.5c0,0.553-0.447,1-1,1
			s-1-0.447-1-1c0-2.481,2.02-4.5,4.502-4.5c2.481,0,4.5,2.019,4.5,4.5C39.998,62.551,39.551,62.998,38.998,62.998z"/>
	</g>
	<g>
		<path d="M38.998,64h-7.002c-0.553,0-1-0.447-1-1s0.447-1,1-1h7.002c0.553,0,1,0.447,1,1S39.551,64,38.998,64z"/>
	</g>
	<g>
		<path d="M38.998,64c-0.553,0-1-0.447-1-1v-1.002c0-0.553,0.447-1,1-1s1,0.447,1,1V63C39.998,63.553,39.551,64,38.998,64z"/>
	</g>
	<g>
		<path d="M31.996,26.004c-4.965,0-9.004-4.039-9.004-9.004c0-0.553,0.447-1,1-1s1,0.447,1,1c0,3.862,3.142,7.004,7.004,7.004
			S39,20.862,39,17c0-0.553,0.447-1,1-1s1,0.447,1,1C41,21.965,36.961,26.004,31.996,26.004z"/>
	</g>
	<g>
		<path d="M23.992,13.004c-0.553,0-1-0.447-1-1C22.992,7.039,27.031,3,31.996,3c0.553,0,1,0.447,1,1s-0.447,1-1,1
			c-3.862,0-7.004,3.142-7.004,7.004C24.992,12.557,24.545,13.004,23.992,13.004z"/>
	</g>
	<g>
		<path d="M40,18c-0.553,0-1-0.447-1-1v-4.996c0-0.553,0.447-1,1-1s1,0.447,1,1V17C41,17.553,40.553,18,40,18z"/>
	</g>
	<g>
		<path d="M23.992,18c-0.553,0-1-0.447-1-1v-4.996c0-0.553,0.447-1,1-1s1,0.447,1,1V17C24.992,17.553,24.545,18,23.992,18z"/>
	</g>
	<g>
		<path d="M40,13.004c-0.553,0-1-0.447-1-1C39,10.348,37.653,9,35.997,9c-0.553,0-1-0.447-1-1s0.447-1,1-1
			C38.756,7,41,9.245,41,12.004C41,12.557,40.553,13.004,40,13.004z"/>
	</g>
	<g>
		<path d="M35.996,5h-4c-0.553,0-1-0.447-1-1s0.447-1,1-1h4c0.553,0,1,0.447,1,1S36.549,5,35.996,5z"/>
	</g>
	<g>
		<path d="M35.996,9c-0.553,0-1-0.447-1-1V4c0-0.553,0.447-1,1-1s1,0.447,1,1v4C36.996,8.553,36.549,9,35.996,9z"/>
	</g>
	<g>
		<path d="M23.993,15.971c-0.326,0-0.646-0.159-0.838-0.452c-0.302-0.462-0.173-1.082,0.289-1.385l3.005-1.969
			c0.463-0.302,1.082-0.173,1.385,0.289c0.302,0.462,0.173,1.082-0.289,1.385l-3.005,1.969
			C24.371,15.918,24.181,15.971,23.993,15.971z"/>
	</g>
	<g>
		<path d="M39.995,15.971c-0.188,0-0.379-0.053-0.548-0.164l-3-1.969c-0.462-0.303-0.59-0.923-0.287-1.385
			c0.305-0.461,0.925-0.59,1.385-0.287l3,1.969c0.462,0.303,0.59,0.923,0.287,1.385C40.64,15.812,40.32,15.971,39.995,15.971z"/>
	</g>
	<g>
		<path d="M31.996,15.002c-3.199,0-5.356-1.061-5.446-1.105c-0.494-0.247-0.694-0.848-0.447-1.342s0.848-0.692,1.342-0.447
			c0.016,0.008,1.851,0.895,4.552,0.895c2.732,0,4.535-0.886,4.553-0.895c0.494-0.245,1.095-0.047,1.342,0.447
			s0.047,1.095-0.447,1.342C37.353,13.941,35.195,15.002,31.996,15.002z"/>
	</g>
	<g>
		<path d="M24.996,32.002H11.503c-0.553,0-1-0.447-1-1s0.447-1,1-1h13.493c0.553,0,1,0.447,1,1S25.549,32.002,24.996,32.002z"/>
	</g>
	<g>
		<path d="M52.487,27.002h-16.49c-0.553,0-1-0.447-1-1s0.447-1,1-1h16.49c0.553,0,1,0.447,1,1S53.04,27.002,52.487,27.002z"/>
	</g>
	<g>
		<path d="M52.487,32.002c-0.553,0-1-0.447-1-1s0.447-1,1-1c0.827,0,1.5-0.673,1.5-1.5s-0.673-1.5-1.5-1.5c-0.553,0-1-0.447-1-1
			s0.447-1,1-1c1.93,0,3.5,1.57,3.5,3.5S54.417,32.002,52.487,32.002z"/>
	</g>
	<g>
		<path d="M52.487,32.002H38.994c-0.553,0-1-0.447-1-1s0.447-1,1-1h13.493c0.553,0,1,0.447,1,1S53.04,32.002,52.487,32.002z"/>
	</g>
	<g>
		<path d="M11.004,32.002c-3.309,0-6.001-2.692-6.001-6.002c0-3.309,2.692-6,6.001-6s6.001,2.691,6.001,6
			C17.005,29.31,14.313,32.002,11.004,32.002z M11.004,22c-2.206,0-4.001,1.794-4.001,4c0,2.207,1.795,4.002,4.001,4.002
			s4.001-1.795,4.001-4.002C15.005,23.794,13.21,22,11.004,22z"/>
	</g>
	<g>
		<path d="M11.004,22c-0.553,0-1-0.447-1-1V1c0-0.553,0.447-1,1-1s1,0.447,1,1v20C12.004,21.553,11.557,22,11.004,22z"/>
	</g>
	<g>
		<path d="M52.996,32.002c-3.309,0-6.001-2.692-6.001-6.002c0-3.309,2.692-6,6.001-6s6.001,2.691,6.001,6
			C58.997,29.31,56.305,32.002,52.996,32.002z M52.996,22c-2.206,0-4.001,1.794-4.001,4c0,2.207,1.795,4.002,4.001,4.002
			s4.001-1.795,4.001-4.002C56.997,23.794,55.202,22,52.996,22z"/>
	</g>
	<g>
		<path d="M52.996,22c-0.553,0-1-0.447-1-1V1c0-0.553,0.447-1,1-1s1,0.447,1,1v20C53.996,21.553,53.549,22,52.996,22z"/>
	</g>
</g>
</svg>
