<?xml version="1.0" encoding="utf-8"?>
<!-- Generator: Adobe Illustrator 16.0.0, SVG Export Plug-In . SVG Version: 6.00 Build 0)  -->
<!DOCTYPE svg PUBLIC "-//W3C//DTD SVG 1.1//EN" "http://www.w3.org/Graphics/SVG/1.1/DTD/svg11.dtd">
<svg version="1.1" id="icons" xmlns="http://www.w3.org/2000/svg" xmlns:xlink="http://www.w3.org/1999/xlink" x="0px" y="0px"
	 width="64px" height="64px" viewBox="0 0 64 64" enable-background="new 0 0 64 64" xml:space="preserve">
<g>
	<g>
		<path fill="#656D78" d="M38.5,12c0.62,0,1.16,0.38,1.38,0.92C39.96,13.1,40,13.29,40,13.5c0,0.83-0.67,1.5-1.5,1.5
			c-0.59,0-1.1-0.34-1.33-0.83C37.06,13.97,37,13.74,37,13.5C37,12.67,37.67,12,38.5,12z"/>
	</g>
	<g>
		<circle fill="#E6E9ED" cx="35.5" cy="31.5" r="1.5"/>
	</g>
	<g>
		<polygon fill="#ED5565" points="58,26 46.55,26 46.54,26 44.51,22 49.22,23.4 		"/>
	</g>
	<g>
		<path fill="#656D78" d="M53,32c5.52,0,10,4.48,10,10s-4.48,10-10,10s-10-4.48-10-10c0-3.35,1.65-6.32,4.18-8.13l1.38,2.71
			C47,37.87,46,39.82,46,42c0,3.86,3.14,7,7,7s7-3.14,7-7c0-3.87-3.14-7-7-7c-0.61,0-1.2,0.08-1.76,0.22L49.85,32.5
			C50.84,32.18,51.9,32,53,32z"/>
	</g>
	<g>
		<path fill="#CCD1D9" d="M60,42c0,3.86-3.14,7-7,7s-7-3.14-7-7c0-2.18,1-4.13,2.56-5.42l3.101,6.1c0.27,0.521,0.8,0.82,1.34,0.82
			c0.23,0,0.46-0.05,0.68-0.17c0.74-0.37,1.03-1.271,0.66-2.01l-3.1-6.101C51.8,35.08,52.39,35,53,35C56.86,35,60,38.13,60,42z"/>
	</g>
	<g>
		<path fill="#E6E9ED" d="M29,33c1.66,0,3,1.34,3,3s-1.34,3-3,3s-3-1.34-3-3S27.34,33,29,33z"/>
	</g>
	<g>
		<polygon fill="#CCD1D9" points="26.54,27 19.54,31.76 19,30.75 17,27 		"/>
	</g>
	<g>
		<path fill="#E6E9ED" d="M46.54,26h0.01l3.3,6.5l1.391,2.72l3.1,6.101c0.37,0.739,0.08,1.64-0.66,2.01
			C53.46,43.45,53.23,43.5,53,43.5c-0.54,0-1.07-0.3-1.34-0.82l-3.101-6.1l-1.38-2.71l-4.04-7.94l-2-3.93l-1.529-3l-2.45-4.82
			l0.01-0.01C37.4,14.66,37.91,15,38.5,15c0.83,0,1.5-0.67,1.5-1.5c0-0.21-0.04-0.4-0.12-0.58h0.01l1.36,2.67L44.51,22L46.54,26z"/>
	</g>
	<g>
		<polygon fill="#E6E9ED" points="46,17.07 49.22,23.4 44.51,22 41.25,15.59 46,17 		"/>
	</g>
	<g>
		<path fill="#656D78" d="M11,49c3.86,0,7-3.14,7-7c0-0.34-0.02-0.67-0.07-1l2.86-1.07C20.93,40.6,21,41.29,21,42
			c0,5.52-4.48,10-10,10S1,47.52,1,42s4.48-10,10-10c3.75,0,7.02,2.06,8.73,5.12l-2.851,1.07C15.63,36.27,13.46,35,11,35
			c-3.86,0-7,3.13-7,7C4,45.86,7.14,49,11,49z"/>
	</g>
	<g>
		<polygon fill="#AAB2BD" points="17,27 19,30.75 4,27 5,24 		"/>
	</g>
	<g>
		<path fill="#E6E9ED" d="M19.73,37.12l2.22-0.83l1.43,2.67l-2.59,0.97L17.93,41l-6.399,2.4c-0.181,0.069-0.36,0.1-0.53,0.1
			c-0.61,0-1.18-0.37-1.4-0.98c-0.3-0.77,0.101-1.64,0.87-1.93l6.41-2.399L19.73,37.12z"/>
	</g>
	<g>
		<path fill="#656D78" d="M35,19h4.61l1.529,3H32C32,20.34,33.34,19,35,19z"/>
	</g>
	<g>
		<path fill="#ED5565" d="M32,22h9.14c0,2.76-2.229,5-5,5H31h-4.46H17L5,24l-4-1l1-2l19,1H32z"/>
	</g>
	<g>
		<path fill="#CCD1D9" d="M29,39c1.66,0,3-1.34,3-3s-1.34-3-3-3s-3,1.34-3,3S27.34,39,29,39z M35.5,30c-0.83,0-1.5,0.67-1.5,1.5
			s0.67,1.5,1.5,1.5s1.5-0.67,1.5-1.5S36.33,30,35.5,30z M36.14,27c2.771,0,5-2.24,5-5l2,3.93L43,26l-4.29,13.49
			C38.12,40.96,36.68,42,35,42H25l-1.62-3.04l-1.43-2.67L20.73,34L31,27H36.14z"/>
	</g>
	<g>
		<polygon fill="#E6E9ED" points="26.54,27 31,27 20.73,34 19.54,31.76 		"/>
	</g>
	<g>
		<path fill="#CCD1D9" d="M17.93,41C17.98,41.33,18,41.66,18,42c0,3.86-3.14,7-7,7s-7-3.14-7-7c0-3.87,3.14-7,7-7
			c2.46,0,4.63,1.27,5.88,3.19l-6.41,2.399C9.7,40.88,9.3,41.75,9.6,42.52c0.221,0.61,0.79,0.98,1.4,0.98c0.17,0,0.35-0.03,0.53-0.1
			L17.93,41z"/>
	</g>
</g>
<g>
	<g>
		<path d="M11,53.001c-6.065,0-11-4.935-11-11s4.935-11,11-11c3.978,0,7.657,2.158,9.603,5.633c0.271,0.481,0.099,1.091-0.384,1.36
			c-0.481,0.272-1.092,0.098-1.36-0.384c-1.593-2.843-4.604-4.609-7.858-4.609c-4.963,0-9,4.037-9,9s4.037,9,9,9s9-4.037,9-9
			c0-0.627-0.065-1.254-0.193-1.862c-0.114-0.54,0.231-1.07,0.772-1.185c0.54-0.113,1.07,0.231,1.185,0.772
			C21.921,40.47,22,41.235,22,42.001C22,48.066,17.065,53.001,11,53.001z"/>
	</g>
	<g>
		<path d="M11,50.001c-4.411,0-8-3.589-8-8s3.589-8,8-8c2.72,0,5.23,1.365,6.716,3.651c0.301,0.463,0.169,1.083-0.294,1.384
			c-0.462,0.301-1.084,0.17-1.384-0.294c-1.114-1.717-2.998-2.741-5.038-2.741c-3.309,0-6,2.691-6,6s2.691,6,6,6s6-2.691,6-6
			c0-0.29-0.021-0.578-0.061-0.854c-0.078-0.547,0.301-1.054,0.848-1.133c0.546-0.078,1.054,0.302,1.133,0.848
			c0.053,0.371,0.08,0.754,0.08,1.14C19,46.412,15.411,50.001,11,50.001z"/>
	</g>
	<g>
		<path d="M53,53.001c-6.065,0-11-4.935-11-11c0-3.538,1.718-6.882,4.596-8.945c0.451-0.323,1.074-0.22,1.396,0.229
			c0.322,0.449,0.219,1.074-0.229,1.396C45.406,36.37,44,39.106,44,42.001c0,4.963,4.037,9,9,9s9-4.037,9-9s-4.037-9-9-9
			c-0.97,0-1.923,0.153-2.833,0.455c-0.523,0.17-1.089-0.11-1.264-0.635c-0.174-0.523,0.11-1.09,0.635-1.264
			c1.113-0.369,2.278-0.557,3.462-0.557c6.065,0,11,4.935,11,11S59.065,53.001,53,53.001z"/>
	</g>
	<g>
		<path d="M53,50.001c-4.411,0-8-3.589-8-8c0-2.404,1.067-4.658,2.928-6.186c0.429-0.352,1.058-0.287,1.408,0.138
			c0.35,0.427,0.288,1.058-0.139,1.407C47.801,38.507,47,40.198,47,42.001c0,3.309,2.691,6,6,6s6-2.691,6-6s-2.691-6-6-6
			c-0.513,0-1.021,0.064-1.513,0.192c-0.533,0.141-1.081-0.181-1.22-0.716s0.182-1.081,0.716-1.22
			c0.656-0.171,1.334-0.257,2.017-0.257c4.411,0,8,3.589,8,8S57.411,50.001,53,50.001z"/>
	</g>
	<g>
		<path d="M58,26.999c-0.094,0-0.189-0.013-0.284-0.041L44.224,22.96c-0.529-0.157-0.831-0.714-0.675-1.243
			c0.157-0.528,0.714-0.832,1.243-0.675l13.492,3.998c0.529,0.157,0.831,0.714,0.675,1.243C58.83,26.718,58.432,26.999,58,26.999z"
			/>
	</g>
	<g>
		<path d="M38.708,40.497c-0.101,0-0.202-0.015-0.303-0.047c-0.526-0.168-0.817-0.729-0.65-1.256l4.292-13.498
			c0.168-0.527,0.732-0.819,1.256-0.65c0.526,0.168,0.817,0.729,0.65,1.256L39.661,39.8C39.525,40.226,39.132,40.497,38.708,40.497z
			"/>
	</g>
	<g>
		<path d="M34.998,43.001h-10c-0.369,0-0.709-0.203-0.883-0.529l-7.789-14.609L0.758,23.972c-0.295-0.073-0.54-0.276-0.666-0.552
			c-0.127-0.276-0.122-0.595,0.014-0.866l1.002-2c0.247-0.492,0.846-0.691,1.343-0.446c0.493,0.248,0.693,0.849,0.446,1.343
			l-0.443,0.884l14.789,3.696c0.274,0.068,0.507,0.25,0.641,0.499l7.715,14.472h9.4c0.553,0,1,0.447,1,1
			S35.551,43.001,34.998,43.001z"/>
	</g>
	<g>
		<path d="M41.143,23.001H21l-19.051-1c-0.552-0.029-0.975-0.5-0.946-1.052c0.029-0.551,0.474-0.981,1.052-0.946l18.998,0.999
			l20.09-0.001c0.553,0,1,0.447,1,1S41.695,23.001,41.143,23.001z"/>
	</g>
	<g>
		<g>
			<path d="M11,44.501c-1.037,0-1.978-0.652-2.341-1.623c-0.234-0.624-0.212-1.304,0.064-1.911C9,40.358,9.497,39.895,10.123,39.66
				l11.479-4.305c0.518-0.19,1.094,0.067,1.288,0.585c0.193,0.518-0.068,1.094-0.585,1.288l-11.48,4.305
				c-0.17,0.063-0.248,0.19-0.28,0.261s-0.076,0.214-0.013,0.382c0.113,0.303,0.434,0.374,0.64,0.294l11.854-4.445
				c0.518-0.191,1.094,0.067,1.288,0.585c0.193,0.518-0.068,1.094-0.585,1.288l-11.851,4.444C11.599,44.447,11.303,44.501,11,44.501
				z"/>
		</g>
	</g>
	<g>
		<g>
			<path d="M53.001,44.501c-0.946,0-1.801-0.523-2.229-1.367l-14.5-28.501c-0.25-0.492-0.054-1.094,0.438-1.345
				c0.489-0.25,1.094-0.056,1.345,0.438l14.5,28.501c0.158,0.309,0.471,0.325,0.67,0.22c0.121-0.062,0.21-0.165,0.251-0.292
				c0.024-0.073,0.052-0.22-0.029-0.38L38.945,13.273c-0.25-0.492-0.054-1.094,0.438-1.345c0.489-0.25,1.094-0.055,1.345,0.438
				l14.5,28.501c0.303,0.595,0.355,1.272,0.148,1.907c-0.206,0.635-0.648,1.151-1.244,1.454
				C53.781,44.409,53.399,44.501,53.001,44.501z"/>
		</g>
	</g>
	<g>
		<path d="M38.5,16.002c-1.379,0-2.501-1.122-2.501-2.501s1.122-2.5,2.501-2.5s2.5,1.121,2.5,2.5S39.879,16.002,38.5,16.002z
			 M38.5,13.001c-0.276,0-0.501,0.225-0.501,0.5c0,0.276,0.225,0.501,0.501,0.501c0.275,0,0.5-0.225,0.5-0.501
			C39,13.226,38.775,13.001,38.5,13.001z"/>
	</g>
	<g>
		<path d="M46.543,27.001c-0.552,0-1-0.447-1-1c0-0.552,0.447-1,1-1L58,24.999c0.552,0,1,0.447,1,1c0,0.552-0.447,1-1,1
			L46.543,27.001z"/>
	</g>
	<g>
		<path d="M49.229,24.409c-0.364,0-0.716-0.199-0.893-0.547l-3.225-6.337c-0.25-0.492-0.054-1.094,0.438-1.345
			c0.49-0.25,1.093-0.055,1.345,0.438l3.225,6.337c0.25,0.492,0.054,1.094-0.438,1.345C49.537,24.374,49.382,24.409,49.229,24.409z"
			/>
	</g>
	<g>
		<path d="M45.997,18.001c-0.094,0-0.189-0.013-0.284-0.041l-4.749-1.407c-0.529-0.157-0.831-0.714-0.675-1.243
			c0.157-0.529,0.712-0.833,1.243-0.675l4.749,1.407c0.529,0.157,0.831,0.714,0.675,1.243C46.827,17.72,46.429,18.001,45.997,18.001
			z"/>
	</g>
	<g>
		<path d="M34.998,43.001c-0.553,0-1-0.447-1-1s0.447-1,1-1c1.229,0,2.322-0.737,2.783-1.878c0.207-0.513,0.792-0.759,1.301-0.553
			c0.513,0.206,0.76,0.789,0.553,1.301C38.867,41.772,37.047,43.001,34.998,43.001z"/>
	</g>
	<g>
		<path d="M32,23.001c-0.553,0-1-0.447-1-1c0-2.206,1.794-4,4-4c0.553,0,1,0.447,1,1s-0.447,1-1,1c-1.103,0-2,0.897-2,2
			C33,22.554,32.553,23.001,32,23.001z"/>
	</g>
	<g>
		<path d="M39.616,20.001H35c-0.553,0-1-0.447-1-1s0.447-1,1-1h4.616c0.553,0,1,0.447,1,1S40.169,20.001,39.616,20.001z"/>
	</g>
	<g>
		<path d="M19.007,31.755c-0.08,0-0.162-0.01-0.243-0.03L3.761,27.976c-0.536-0.134-0.862-0.677-0.728-1.212
			c0.133-0.536,0.677-0.863,1.212-0.728l15.003,3.749c0.536,0.134,0.862,0.677,0.728,1.212
			C19.862,31.452,19.455,31.755,19.007,31.755z"/>
	</g>
	<g>
		<path d="M4.003,28.006c-0.104,0-0.21-0.017-0.314-0.051c-0.524-0.174-0.809-0.739-0.635-1.264l0.995-3.005
			c0.174-0.524,0.738-0.806,1.264-0.635c0.524,0.174,0.809,0.739,0.635,1.264L4.952,27.32C4.813,27.74,4.423,28.006,4.003,28.006z"
			/>
	</g>
	<g>
		<path d="M29,40.001c-2.206,0-4-1.794-4-4s1.794-4,4-4s4,1.794,4,4S31.206,40.001,29,40.001z M29,34.001c-1.103,0-2,0.897-2,2
			s0.897,2,2,2s2-0.897,2-2S30.103,34.001,29,34.001z"/>
	</g>
	<g>
		<path d="M35.5,34c-1.379,0-2.5-1.121-2.5-2.5s1.121-2.5,2.5-2.5s2.5,1.121,2.5,2.5S36.879,34,35.5,34z M35.5,31
			c-0.275,0-0.5,0.225-0.5,0.5s0.225,0.5,0.5,0.5s0.5-0.225,0.5-0.5S35.775,31,35.5,31z"/>
	</g>
	<g>
		<path d="M36.143,28.001c-0.553,0-1-0.447-1-1s0.447-1,1-1c2.206,0,4-1.794,4-4c0-0.553,0.447-1,1-1s1,0.447,1,1
			C42.143,25.31,39.451,28.001,36.143,28.001z"/>
	</g>
	<g>
		<path d="M36.143,28.001H17c-0.553,0-1-0.447-1-1s0.447-1,1-1h19.143c0.553,0,1,0.447,1,1S36.695,28.001,36.143,28.001z"/>
	</g>
	<g>
		<path d="M20.733,35.001c-0.319,0-0.634-0.153-0.827-0.437c-0.312-0.457-0.193-1.079,0.263-1.39l10.268-6.995
			c0.458-0.312,1.078-0.192,1.39,0.263c0.312,0.457,0.193,1.079-0.263,1.39l-10.268,6.995
			C21.123,34.944,20.927,35.001,20.733,35.001z"/>
	</g>
	<g>
		<path d="M19.542,32.767c-0.319,0-0.634-0.152-0.827-0.437c-0.312-0.457-0.193-1.079,0.263-1.39l6.994-4.766
			c0.457-0.312,1.079-0.193,1.39,0.263c0.312,0.457,0.193,1.079-0.263,1.39l-6.994,4.766C19.932,32.71,19.735,32.767,19.542,32.767z
			"/>
	</g>
</g>
</svg>
