<?xml version="1.0" encoding="iso-8859-1"?>
<!-- Generator: Adobe Illustrator 19.0.0, SVG Export Plug-In . SVG Version: 6.00 Build 0)  -->
<svg version="1.1" id="Layer_1" xmlns="http://www.w3.org/2000/svg" xmlns:xlink="http://www.w3.org/1999/xlink" x="0px" y="0px"
	 viewBox="0 0 512 512" style="enable-background:new 0 0 512 512;" xml:space="preserve">
<rect x="362.14" y="112.416" style="fill:#7D868C;" width="30.902" height="55.935"/>
<rect x="362.14" y="142.634" style="opacity:0.2;enable-background:new    ;" width="30.902" height="25.721"/>
<path style="fill:#333E48;" d="M336.984,126.745c-7.912,0-14.327-6.417-14.327-14.327c0-7.912,6.415-14.327,14.327-14.327h41.727
	c7.912,0,14.327,6.415,14.327,14.327c0,7.91-6.415,14.327-14.327,14.327H336.984z"/>
<path style="fill:#FFCE00;" d="M393.038,156.913h-26.969c-17.253,0-43.391,5.753-60.37,13.094
	c-1.087,0.299-15.032,7.213-15.032,7.213c-51.422,20.223-156.252,9.503-172.176,9.503l6.864,29.747H97.177v132h304.165v-97.835
	c14.559-3.725,25.406-16.991,25.406-32.669v-27.344C426.75,172.083,411.579,156.913,393.038,156.913z"/>
<path style="fill:#333E48;" d="M295.755,174.715c-2.798,1.371-5.089,2.506-5.089,2.506c-51.422,20.223-156.252,9.503-172.176,9.503
	l6.864,29.747h134.478c20.064,0,36.328-16.266,36.328-36.328C296.16,178.3,296.019,176.486,295.755,174.715z"/>
<rect x="97.173" y="270.412" style="fill:#7D868C;" width="304.168" height="78.06"/>
<path style="opacity:0.2;enable-background:new    ;" d="M194.267,189.563c-35.869-0.002-67.586-2.839-75.777-2.839l6.864,29.747
	H97.177v35.77h54.677c25.199,0,45.698-20.501,45.698-45.698C197.552,200.545,196.379,194.816,194.267,189.563z"/>
<path style="fill:#FFCE00;" d="M151.855,172.083c19.032,0,34.46,15.429,34.46,34.461c0,19.032-15.429,34.46-34.46,34.46H42.5
	c-19.032,0-34.46-15.429-34.46-34.46c0-19.033,15.429-34.461,34.46-34.461H151.855z"/>
<path style="opacity:0.2;enable-background:new    ;" d="M424.86,179.548c-7.756-1.073-15.611-1.627-23.518-1.627
	c-52.779,0-101.734,23.849-134.312,65.432c-7.126,9.098-10.284,20.425-8.891,31.897c1.394,11.471,7.17,21.715,16.267,28.839
	c7.688,6.024,16.907,9.21,26.659,9.21c13.401,0,25.822-6.046,34.08-16.585c16.065-20.507,40.194-32.267,66.198-32.267v-13.812
	c14.559-3.725,25.406-16.991,25.406-32.669v-27.344C426.75,186.748,426.078,183.023,424.86,179.548z"/>
<path style="fill:#FFCE00;" d="M301.065,302.063c-6.909,0-13.869-2.225-19.728-6.817c-13.924-10.908-16.368-31.038-5.459-44.96
	c30.434-38.847,76.164-61.125,125.465-61.125c30.258,0,59.71,8.526,85.171,24.659c1.082,0.686,2.135,1.371,3.179,2.069
	c14.715,9.816,18.685,29.701,8.868,44.416c-9.815,14.715-29.702,18.683-44.414,8.869c-0.64-0.427-1.285-0.848-1.935-1.26
	c-15.172-9.614-32.77-14.701-50.871-14.701c-29.482,0-56.834,13.331-75.045,36.574C319.981,297.85,310.572,302.063,301.065,302.063z
	"/>
<circle style="fill:#333E48;" cx="97.173" cy="325.211" r="84.202"/>
<circle style="fill:#7D868C;" cx="97.173" cy="325.211" r="39.205"/>
<circle style="fill:#333E48;" cx="401.342" cy="329.702" r="84.202"/>
<circle style="fill:#7D868C;" cx="401.342" cy="329.702" r="39.205"/>
<rect x="60.244" y="172.081" style="opacity:0.2;enable-background:new    ;" width="16.079" height="34.463"/>
<rect x="95.072" y="172.081" style="opacity:0.2;enable-background:new    ;" width="16.079" height="34.463"/>
<path style="opacity:0.2;enable-background:new    ;" d="M249.104,305.119h-40.94c-4.44,0-8.04-3.599-8.04-8.04s3.6-8.04,8.04-8.04
	h40.94c4.44,0,8.04,3.599,8.04,8.04S253.544,305.119,249.104,305.119z"/>
<path style="opacity:0.2;enable-background:new    ;" d="M249.104,329.766h-40.94c-4.44,0-8.04-3.6-8.04-8.04
	c0-4.441,3.6-8.04,8.04-8.04h40.94c4.44,0,8.04,3.599,8.04,8.04C257.144,326.167,253.544,329.766,249.104,329.766z"/>
<path style="fill:#1E252B;" d="M511.212,234.683c-2.096-10.494-8.152-19.544-17.054-25.482c-1.097-0.732-2.203-1.452-3.341-2.173
	c-17.368-11.006-36.508-18.617-56.493-22.62c-2.616-17.441-16.059-31.382-33.247-34.75v-37.24c0-12.333-10.034-22.366-22.366-22.366
	h-41.727c-12.333,0-22.366,10.034-22.366,22.366s10.034,22.366,22.366,22.366h17.111v14.793c-16.741,1.77-36.94,6.751-51.396,12.969
	c-1.307,0.511-4.577,2.008-15.288,7.316c-21.187,8.241-55.238,12.147-101.266,11.614c-7.741-10.559-20.225-17.432-34.29-17.432H42.5
	c-23.434,0-42.5,19.066-42.5,42.5s19.066,42.5,42.5,42.5h2.711c-24.297,16.63-40.278,44.563-40.278,76.166
	c0,50.863,41.381,92.244,92.244,92.244c39.879,0,73.921-25.441,86.767-60.943h129.14c11.513,37.828,46.717,65.438,88.259,65.438
	c50.863,0,92.243-41.381,92.243-92.245c0-17.558-4.935-33.982-13.484-47.968c10.068-2.114,19.203-8.058,25.148-16.971
	C511.191,255.861,513.308,245.178,511.212,234.683z M336.984,118.705c-3.467,0-6.287-2.82-6.287-6.287
	c0-3.467,2.82-6.287,6.287-6.287h41.727c3.467,0,6.287,2.82,6.287,6.287c0,3.467-2.82,6.287-6.287,6.287H336.984z M384.999,133.869
	v15.004h-14.823v-14.089h8.536C380.896,134.784,383.001,134.455,384.999,133.869z M308.274,177.623
	c-0.191,0.069-0.341,0.108-0.44,0.135C307.983,177.718,308.129,177.673,308.274,177.623z M42.5,232.965
	c-14.568,0-26.421-11.853-26.421-26.422s11.853-26.422,26.421-26.422h109.354c14.568,0,26.421,11.853,26.421,26.422
	c0,14.569-11.853,26.421-26.421,26.421H42.5V232.965z M97.177,401.373c-41.997,0-76.165-34.168-76.165-76.165
	s34.168-76.165,76.165-76.165s76.165,34.168,76.165,76.165S139.175,401.373,97.177,401.373z M309.743,340.431h-121.6
	c0.826-4.956,1.278-10.036,1.278-15.222c0-31.601-15.981-59.534-40.278-76.165h2.711c23.434,0,42.5-19.066,42.5-42.5
	c0-3.068-0.334-6.06-0.956-8.947c0.218,0.001,0.442,0.003,0.659,0.003c44.314,0,77.766-4.331,99.552-12.898
	c0.213-0.084,0.423-0.177,0.628-0.279c5.768-2.86,12.691-6.228,14.116-6.828c0.181-0.063,0.36-0.133,0.536-0.209
	c16.128-6.972,41.244-12.434,57.179-12.434h26.969c11.089,0,20.557,7.067,24.138,16.935c-5.245-0.496-10.526-0.769-15.834-0.769
	c-51.79,0-99.827,23.403-131.794,64.207c-6.6,8.423-9.524,18.915-8.235,29.538c1.291,10.624,6.64,20.11,15.064,26.709
	c7.121,5.58,15.658,8.529,24.687,8.529c3.592,0,7.102-0.482,10.47-1.386c-1.577,6.748-2.437,13.767-2.437,20.987
	C309.098,333.334,309.332,336.909,309.743,340.431z M401.343,405.869c-41.997,0-76.165-34.168-76.165-76.166
	c0-41.997,34.168-76.165,76.165-76.165s76.164,34.168,76.164,76.165C477.508,371.701,443.34,405.869,401.343,405.869z
	 M491.875,255.841c-5.218,7.824-14.54,11.826-23.703,10.38c-16.817-17.695-40.548-28.761-66.828-28.761
	c-33.126,0-62.219,17.56-78.489,43.852c-0.983,1.149-1.952,2.328-2.885,3.517c-4.577,5.843-11.468,9.194-18.904,9.194
	c-5.399,0-10.507-1.766-14.771-5.107c-5.044-3.95-8.247-9.629-9.019-15.989c-0.772-6.361,0.979-12.641,4.93-17.684
	c28.899-36.887,72.323-58.043,119.138-58.043c28.733,0,56.697,8.095,80.866,23.409c1.027,0.651,2.029,1.302,3.023,1.967
	c5.33,3.556,8.956,8.974,10.21,15.256C496.698,244.115,495.431,250.51,491.875,255.841z M401.343,282.459
	c-26.051,0-47.246,21.194-47.246,47.244c0,26.052,21.194,47.246,47.246,47.246c26.051,0,47.243-21.195,47.243-47.246
	C448.587,303.652,427.393,282.459,401.343,282.459z M401.343,360.869c-17.185,0-31.166-13.982-31.166-31.166
	c0-17.185,13.98-31.165,31.166-31.165c17.184,0,31.164,13.98,31.164,31.165C432.508,346.888,418.527,360.869,401.343,360.869z
	 M97.177,277.963c-26.051,0-47.243,21.194-47.243,47.246c0,26.051,21.193,47.244,47.243,47.244s47.244-21.194,47.244-47.244
	C144.422,299.158,123.228,277.963,97.177,277.963z M97.177,356.375c-17.184,0-31.164-13.98-31.164-31.165
	c0-17.185,13.98-31.166,31.164-31.166c17.185,0,31.165,13.982,31.165,31.166C128.342,342.394,114.362,356.375,97.177,356.375z"/>
<g>
</g>
<g>
</g>
<g>
</g>
<g>
</g>
<g>
</g>
<g>
</g>
<g>
</g>
<g>
</g>
<g>
</g>
<g>
</g>
<g>
</g>
<g>
</g>
<g>
</g>
<g>
</g>
<g>
</g>
</svg>
