<?xml version="1.0" encoding="utf-8"?>
<!-- Generator: Adobe Illustrator 16.0.0, SVG Export Plug-In . SVG Version: 6.00 Build 0)  -->
<!DOCTYPE svg PUBLIC "-//W3C//DTD SVG 1.1//EN" "http://www.w3.org/Graphics/SVG/1.1/DTD/svg11.dtd">
<svg version="1.1" id="icons" xmlns="http://www.w3.org/2000/svg" xmlns:xlink="http://www.w3.org/1999/xlink" x="0px" y="0px"
	 width="64px" height="64px" viewBox="0 0 64 64" enable-background="new 0 0 64 64" xml:space="preserve">
<g>
	<g>
		<path fill="#E6E9ED" d="M4,8v8v19v16.02H1V5.5C1,4.68,1.67,4,2.5,4S4,4.68,4,5.5V8z"/>
	</g>
	<g>
		<g>
			<rect x="44" y="12.01" fill="#E6E9ED" width="6" height="6"/>
		</g>
		<g>
			<polygon fill="#E6E9ED" points="14,12.01 14,18.01 8,18.01 8,16 8,12.01 			"/>
		</g>
		<g>
			<rect x="26" y="6" fill="#E6E9ED" width="6" height="6.01"/>
		</g>
		<g>
			<rect x="32" y="12.01" fill="#E6E9ED" width="6" height="6"/>
		</g>
		<g>
			<rect x="14" y="6" fill="#E6E9ED" width="6" height="6.01"/>
		</g>
		<g>
			<polygon fill="#E6E9ED" points="56,8 56,12.01 50,12.01 50,6 56,6 			"/>
		</g>
		<g>
			<rect x="20" y="12.01" fill="#E6E9ED" width="6" height="6"/>
		</g>
		<g>
			<rect x="38" y="6" fill="#E6E9ED" width="6" height="6.01"/>
		</g>
	</g>
	<g>
		<g>
			<polygon fill="#656D78" points="56,18.01 50,18.01 50,12.01 56,12.01 56,16 			"/>
		</g>
		<g>
			<rect x="14" y="12.01" fill="#656D78" width="6" height="6"/>
		</g>
		<g>
			<rect x="44" y="6" fill="#656D78" width="6" height="6.01"/>
		</g>
		<g>
			<polygon fill="#656D78" points="14,6 14,12.01 8,12.01 8,8 8,6 			"/>
		</g>
		<g>
			<rect x="38" y="12.01" fill="#656D78" width="6" height="6"/>
		</g>
		<g>
			<rect x="26" y="12.01" fill="#656D78" width="6" height="6"/>
		</g>
		<g>
			<rect x="32" y="6" fill="#656D78" width="6" height="6.01"/>
		</g>
		<g>
			<rect x="20" y="6" fill="#656D78" width="6" height="6.01"/>
		</g>
	</g>
	<g>
		<rect x="42" y="36" fill="#CCD1D9" width="3" height="2.99"/>
	</g>
	<g>
		<rect x="18" y="41.99" fill="#ED5565" width="6" height="3"/>
	</g>
	<g>
		<polygon fill="#A0D468" points="63,51.02 63,60 57.02,60 53.01,35 60,35 60,51.02 		"/>
	</g>
	<g>
		<path fill="#E6E9ED" d="M63,5.5v45.52h-3V35V16V8V5.5C60,4.68,60.67,4,61.5,4S63,4.68,63,5.5z"/>
	</g>
	<g>
		<path fill="#F5F7FA" d="M50,44.99V49c0,2.2-1.8,4-4,4h-4v-3.01h-4h-4h-4h-4h-4V53h-4c-2.2,0-4-1.8-4-4v-4.01h4h6h16h6H50z"/>
	</g>
	<g>
		<polygon fill="#656D78" points="48,35 48,36 45,36 42,36 22,36 19,36 16,36 16,35 16,33 19,33 45,33 48,33 		"/>
	</g>
	<g>
		<rect x="38" y="49.99" fill="#CCD1D9" width="4" height="3.01"/>
	</g>
	<g>
		<rect x="26" y="49.99" fill="#CCD1D9" width="4" height="3.01"/>
	</g>
	<g>
		<rect x="22" y="49.99" fill="#CCD1D9" width="4" height="3.01"/>
	</g>
	<g>
		<rect x="19" y="36" fill="#CCD1D9" width="3" height="2.99"/>
	</g>
	<g>
		<path fill="#656D78" d="M46,53c2.2,0,4-1.8,4-4v6.99h-8V53H46z"/>
	</g>
	<g>
		<rect x="22" y="36" fill="#5D9CEC" width="20" height="2.99"/>
	</g>
	<g>
		<rect x="30" y="49.99" fill="#CCD1D9" width="4" height="3.01"/>
	</g>
	<g>
		<path fill="#E6E9ED" d="M46,38.99c2.2,0,4,1.8,4,4v2h-4v-3h-6v3H24v-3h-6v3h-4v-2c0-2.2,1.8-4,4-4h1h3h20h3H46z"/>
	</g>
	<g>
		<rect x="34" y="49.99" fill="#CCD1D9" width="4" height="3.01"/>
	</g>
	<g>
		<rect x="40" y="41.99" fill="#ED5565" width="6" height="3"/>
	</g>
	<g>
		<path fill="#CCD1D9" d="M22,30h20v-0.01c1.66,0,3,1.35,3,3.01H19C19,31.34,20.34,30,22,30z"/>
	</g>
	<g>
		<path fill="#656D78" d="M22,53v2.99h-8V49c0,2.2,1.8,4,4,4H22z"/>
	</g>
	<g>
		<path fill="#545C66" d="M45,36h3v-1h5.01l4.01,25H6.98l4.01-25H16v1h3v2.99h-1c-2.2,0-4,1.8-4,4v2V49v6.99h8V53h4h4h4h4h4v2.99h8
			V49v-4.01v-2c0-2.2-1.8-4-4-4h-1V36z"/>
	</g>
	<g>
		<polygon fill="#A0D468" points="10.99,35 6.98,60 1,60 1,51.02 4,51.02 4,35 		"/>
	</g>
</g>
<g>
	<g>
		<g>
			<path d="M46,53.996H18c-2.757,0-5-2.243-5-5V42.99c0-2.757,2.243-5,5-5h28c2.757,0,5,2.243,5,5v6.006
				C51,51.753,48.757,53.996,46,53.996z M18,39.99c-1.654,0-3,1.346-3,3v6.006c0,1.654,1.346,3,3,3h28c1.654,0,3-1.346,3-3V42.99
				c0-1.654-1.346-3-3-3H18z"/>
		</g>
		<g>
			<path d="M14,56.992c-0.553,0-1-0.447-1-1v-6.996c0-0.553,0.447-1,1-1s1,0.447,1,1v6.996C15,56.545,14.553,56.992,14,56.992z"/>
		</g>
		<g>
			<path d="M22.002,56.992H14c-0.553,0-1-0.447-1-1s0.447-1,1-1h8.002c0.553,0,1,0.447,1,1S22.555,56.992,22.002,56.992z"/>
		</g>
		<g>
			<path d="M22.002,56.992c-0.553,0-1-0.447-1-1v-2.996c0-0.553,0.447-1,1-1s1,0.447,1,1v2.996
				C23.002,56.545,22.555,56.992,22.002,56.992z"/>
		</g>
		<g>
			<path d="M50.001,56.992c-0.553,0-1-0.447-1-1v-6.996c0-0.553,0.447-1,1-1s1,0.447,1,1v6.996
				C51.001,56.545,50.554,56.992,50.001,56.992z"/>
		</g>
		<g>
			<path d="M50.001,56.992h-8.002c-0.553,0-1-0.447-1-1s0.447-1,1-1h8.002c0.553,0,1,0.447,1,1S50.554,56.992,50.001,56.992z"/>
		</g>
		<g>
			<path d="M41.999,56.992c-0.553,0-1-0.447-1-1v-2.996c0-0.553,0.447-1,1-1s1,0.447,1,1v2.996
				C42.999,56.545,42.552,56.992,41.999,56.992z"/>
		</g>
		<g>
			<path d="M50,45.992H14c-0.553,0-1-0.447-1-1s0.447-1,1-1h36c0.553,0,1,0.447,1,1S50.553,45.992,50,45.992z"/>
		</g>
		<g>
			<path d="M24.001,45.992h-6c-0.553,0-1-0.447-1-1v-3c0-0.553,0.447-1,1-1h6c0.553,0,1,0.447,1,1v3
				C25.001,45.545,24.554,45.992,24.001,45.992z M19.001,43.992h4v-1h-4V43.992z"/>
		</g>
		<g>
			<path d="M46,45.992h-6c-0.553,0-1-0.447-1-1v-3c0-0.553,0.447-1,1-1h6c0.553,0,1,0.447,1,1v3C47,45.545,46.553,45.992,46,45.992z
				 M41,43.992h4v-1h-4V43.992z"/>
		</g>
		<g>
			<path d="M22.002,53.996c-0.553,0-1-0.447-1-1v-3.002c0-0.553,0.447-1,1-1s1,0.447,1,1v3.002
				C23.002,53.549,22.555,53.996,22.002,53.996z"/>
		</g>
		<g>
			<path d="M41.999,50.994H22.002c-0.553,0-1-0.447-1-1s0.447-1,1-1h19.997c0.553,0,1,0.447,1,1S42.552,50.994,41.999,50.994z"/>
		</g>
		<g>
			<path d="M41.999,53.996c-0.553,0-1-0.447-1-1v-3.002c0-0.553,0.447-1,1-1s1,0.447,1,1v3.002
				C42.999,53.549,42.552,53.996,41.999,53.996z"/>
		</g>
		<g>
			<path d="M38,53.996c-0.553,0-1-0.447-1-1v-3.002c0-0.553,0.447-1,1-1s1,0.447,1,1v3.002C39,53.549,38.553,53.996,38,53.996z"/>
		</g>
		<g>
			<path d="M34.001,53.996c-0.553,0-1-0.447-1-1v-3.002c0-0.553,0.447-1,1-1s1,0.447,1,1v3.002
				C35.001,53.549,34.554,53.996,34.001,53.996z"/>
		</g>
		<g>
			<path d="M30.002,53.996c-0.553,0-1-0.447-1-1v-3.002c0-0.553,0.447-1,1-1s1,0.447,1,1v3.002
				C31.002,53.549,30.555,53.996,30.002,53.996z"/>
		</g>
		<g>
			<path d="M26.003,53.996c-0.553,0-1-0.447-1-1v-3.002c0-0.553,0.447-1,1-1s1,0.447,1,1v3.002
				C27.003,53.549,26.556,53.996,26.003,53.996z"/>
		</g>
		<g>
			<path d="M48,36.996H16c-0.553,0-1-0.447-1-1v-3c0-0.553,0.447-1,1-1h32c0.553,0,1,0.447,1,1v3C49,36.549,48.553,36.996,48,36.996
				z M17,34.996h30v-1H17V34.996z"/>
		</g>
		<g>
			<g>
				<path d="M18.999,39.994c-0.553,0-1-0.447-1-1v-2.998c0-0.553,0.447-1,1-1s1,0.447,1,1v2.998
					C19.999,39.547,19.552,39.994,18.999,39.994z"/>
			</g>
			<g>
				<path d="M45,39.992c-0.553,0-1-0.447-1-1v-2.996c0-0.553,0.447-1,1-1s1,0.447,1,1v2.996C46,39.545,45.553,39.992,45,39.992z"/>
			</g>
			<g>
				<path d="M21.999,39.99c-0.553,0-1-0.447-1-1v-2.994c0-0.553,0.447-1,1-1s1,0.447,1,1v2.994
					C22.999,39.543,22.552,39.99,21.999,39.99z"/>
			</g>
			<g>
				<path d="M42.001,39.99c-0.553,0-1-0.447-1-1v-2.994c0-0.553,0.447-1,1-1s1,0.447,1,1v2.994
					C43.001,39.543,42.554,39.99,42.001,39.99z"/>
			</g>
			<g>
				<path d="M18.999,33.996c-0.553,0-1-0.447-1-1c0-2.206,1.794-4,4-4c0.553,0,1,0.447,1,1s-0.447,1-1,1c-1.103,0-2,0.897-2,2
					C19.999,33.549,19.552,33.996,18.999,33.996z"/>
			</g>
			<g>
				<path d="M45,33.996c-0.553,0-1-0.447-1-1c0-1.104-0.898-2.002-2.002-2.002c-0.553,0-1-0.447-1-1s0.447-1,1-1
					c2.207,0,4.002,1.795,4.002,4.002C46,33.549,45.553,33.996,45,33.996z"/>
			</g>
			<g>
				<path d="M41.998,30.996H21.999c-0.553,0-1-0.447-1-1s0.447-1,1-1h19.999c0.553,0,1,0.447,1,1S42.551,30.996,41.998,30.996z"/>
			</g>
		</g>
	</g>
	<g>
		<g>
			<path d="M4,6.504c-0.553,0-1-0.447-1-1c0-0.275-0.225-0.5-0.5-0.5S2,5.229,2,5.504c0,0.553-0.447,1-1,1s-1-0.447-1-1
				c0-1.379,1.121-2.5,2.5-2.5S5,4.125,5,5.504C5,6.057,4.553,6.504,4,6.504z"/>
		</g>
		<g>
			<path d="M63,6.504c-0.553,0-1-0.447-1-1c0-0.275-0.225-0.5-0.5-0.5S61,5.229,61,5.504c0,0.553-0.447,1-1,1s-1-0.447-1-1
				c0-1.379,1.121-2.5,2.5-2.5s2.5,1.121,2.5,2.5C64,6.057,63.553,6.504,63,6.504z"/>
		</g>
		<g>
			<path d="M1,52.02c-0.553,0-1-0.447-1-1V5.496c0-0.553,0.447-1,1-1s1,0.447,1,1V51.02C2,51.572,1.553,52.02,1,52.02z"/>
		</g>
		<g>
			<path d="M3.998,52.02c-0.553,0-1-0.447-1-1V5.496c0-0.553,0.447-1,1-1s1,0.447,1,1V51.02C4.998,51.572,4.551,52.02,3.998,52.02z"
				/>
		</g>
		<g>
			<path d="M60,52.02c-0.553,0-1-0.447-1-1V5.496c0-0.553,0.447-1,1-1s1,0.447,1,1V51.02C61,51.572,60.553,52.02,60,52.02z"/>
		</g>
		<g>
			<path d="M63,52.02c-0.553,0-1-0.447-1-1V5.496c0-0.553,0.447-1,1-1s1,0.447,1,1V51.02C64,51.572,63.553,52.02,63,52.02z"/>
		</g>
		<g>
			<path d="M56,19.006H7.998c-0.553,0-1-0.447-1-1V6.004c0-0.553,0.447-1,1-1H56c0.553,0,1,0.447,1,1v12.002
				C57,18.559,56.553,19.006,56,19.006z M8.998,17.006H55V7.004H8.998V17.006z"/>
		</g>
		<g>
			<path d="M7.998,9.004H4c-0.553,0-1-0.447-1-1s0.447-1,1-1h3.998c0.553,0,1,0.447,1,1S8.551,9.004,7.998,9.004z"/>
		</g>
		<g>
			<path d="M7.998,17.004H4c-0.553,0-1-0.447-1-1s0.447-1,1-1h3.998c0.553,0,1,0.447,1,1S8.551,17.004,7.998,17.004z"/>
		</g>
		<g>
			<path d="M60.002,9.004H56c-0.553,0-1-0.447-1-1s0.447-1,1-1h4.002c0.553,0,1,0.447,1,1S60.555,9.004,60.002,9.004z"/>
		</g>
		<g>
			<path d="M60.002,17.004H56c-0.553,0-1-0.447-1-1s0.447-1,1-1h4.002c0.553,0,1,0.447,1,1S60.555,17.004,60.002,17.004z"/>
		</g>
		<g>
			<path d="M6.985,60.996c-0.053,0-0.105-0.004-0.159-0.013c-0.545-0.087-0.917-0.601-0.829-1.146l4.004-24.996
				c0.088-0.546,0.601-0.92,1.146-0.829c0.545,0.087,0.917,0.601,0.829,1.146L7.972,60.154C7.893,60.646,7.468,60.996,6.985,60.996z
				"/>
		</g>
		<g>
			<path d="M57.015,60.996c-0.482,0-0.907-0.35-0.986-0.842l-4.004-24.996c-0.088-0.545,0.284-1.059,0.829-1.146
				c0.546-0.091,1.058,0.283,1.146,0.829l4.004,24.996c0.088,0.545-0.284,1.059-0.829,1.146
				C57.12,60.992,57.067,60.996,57.015,60.996z"/>
		</g>
		<g>
			<path d="M16,36H3.998c-0.553,0-1-0.447-1-1s0.447-1,1-1H16c0.553,0,1,0.447,1,1S16.553,36,16,36z"/>
		</g>
		<g>
			<path d="M14.002,19.006c-0.553,0-1-0.447-1-1V6.004c0-0.553,0.447-1,1-1s1,0.447,1,1v12.002
				C15.002,18.559,14.555,19.006,14.002,19.006z"/>
		</g>
		<g>
			<path d="M20.002,19.006c-0.553,0-1-0.447-1-1V6.004c0-0.553,0.447-1,1-1s1,0.447,1,1v12.002
				C21.002,18.559,20.555,19.006,20.002,19.006z"/>
		</g>
		<g>
			<path d="M26.002,19.006c-0.553,0-1-0.447-1-1V6.004c0-0.553,0.447-1,1-1s1,0.447,1,1v12.002
				C27.002,18.559,26.555,19.006,26.002,19.006z"/>
		</g>
		<g>
			<path d="M32.002,19.006c-0.553,0-1-0.447-1-1V6.004c0-0.553,0.447-1,1-1s1,0.447,1,1v12.002
				C33.002,18.559,32.555,19.006,32.002,19.006z"/>
		</g>
		<g>
			<path d="M38.002,19.006c-0.553,0-1-0.447-1-1V6.004c0-0.553,0.447-1,1-1s1,0.447,1,1v12.002
				C39.002,18.559,38.555,19.006,38.002,19.006z"/>
		</g>
		<g>
			<path d="M44.002,19.006c-0.553,0-1-0.447-1-1V6.004c0-0.553,0.447-1,1-1s1,0.447,1,1v12.002
				C45.002,18.559,44.555,19.006,44.002,19.006z"/>
		</g>
		<g>
			<path d="M50.002,19.006c-0.553,0-1-0.447-1-1V6.004c0-0.553,0.447-1,1-1s1,0.447,1,1v12.002
				C51.002,18.559,50.555,19.006,50.002,19.006z"/>
		</g>
		<g>
			<path d="M56,13.006H8c-0.553,0-1-0.447-1-1s0.447-1,1-1h48c0.553,0,1,0.447,1,1S56.553,13.006,56,13.006z"/>
		</g>
		<g>
			<path d="M3.998,52.02H1c-0.553,0-1-0.447-1-1s0.447-1,1-1h2.998c0.553,0,1,0.447,1,1S4.551,52.02,3.998,52.02z"/>
		</g>
		<g>
			<path d="M63,52.02h-3c-0.553,0-1-0.447-1-1s0.447-1,1-1h3c0.553,0,1,0.447,1,1S63.553,52.02,63,52.02z"/>
		</g>
	</g>
	<g>
		<path d="M60,35.996H48c-0.553,0-1-0.447-1-1s0.447-1,1-1h12c0.553,0,1,0.447,1,1S60.553,35.996,60,35.996z"/>
	</g>
</g>
</svg>
