<?xml version="1.0" encoding="iso-8859-1"?>
<!-- Generator: Adobe Illustrator 19.0.0, SVG Export Plug-In . SVG Version: 6.00 Build 0)  -->
<svg xmlns="http://www.w3.org/2000/svg" xmlns:xlink="http://www.w3.org/1999/xlink" version="1.1" id="Layer_1" x="0px" y="0px" viewBox="0 0 512 512" style="enable-background:new 0 0 512 512;" xml:space="preserve">
<polygon style="fill:#6DB4F5;" points="82.731,40.209 82.731,199.502 277.442,199.502 255.997,29.487 "/>
<polygon style="fill:#5D8AE1;" points="429.264,40.209 255.997,29.487 255.997,199.502 429.264,199.502 "/>
<polygon style="fill:#495DD9;" points="255.997,173.768 12.06,199.502 17.746,263.237 266.72,263.237 "/>
<polygon style="fill:#FF7945;" points="17.746,263.237 33.749,442.619 266.72,442.619 255.997,238.103 "/>
<polygon style="fill:#48449E;" points="499.935,199.502 255.997,173.768 255.997,238.103 375.123,272.87 494.249,263.237 "/>
<polygon style="fill:#DB412C;" points="255.997,238.103 255.997,442.619 478.247,442.619 494.249,263.237 "/>
<path style="fill:#6DB4F5;" d="M499.935,431.803c-16.689,0-31.462-8.148-40.667-20.605c-9.17,12.457-23.979,20.605-40.632,20.605  c-16.689,0-31.463-8.148-40.667-20.605c-9.205,12.457-23.98,20.605-40.667,20.605c-16.693,0-31.423-8.148-40.632-20.605  c-9.206,12.457-23.98,20.605-40.667,20.605c-16.693,0-31.463-8.148-40.633-20.605c-9.244,12.457-23.979,20.605-40.667,20.605  c-16.692,0-31.462-8.148-40.632-20.605c-9.205,12.457-24.018,20.605-40.707,20.605c-16.653,0-31.422-8.148-40.632-20.605  c-9.205,12.457-23.974,20.605-40.667,20.605v69.697h487.874v-69.697H499.935z"/>
<path style="fill:#5D8AE1;" d="M459.267,482.618c-9.17,6.965-23.979,11.52-40.632,11.52c-16.689,0-31.463-4.555-40.667-11.52  c-9.205,6.965-23.98,11.52-40.667,11.52c-16.693,0-31.423-4.555-40.632-11.52c-9.206,6.965-23.98,11.52-40.667,11.52  c-16.693,0-31.463-4.555-40.633-11.52c-9.244,6.965-23.979,11.52-40.667,11.52c-16.692,0-31.462-4.555-40.632-11.52  c-9.205,6.965-24.018,11.52-40.707,11.52c-16.653,0-31.422-4.555-40.632-11.52c-9.205,6.965-23.974,11.52-40.667,11.52V512h487.874  v-17.862C483.246,494.138,468.473,489.584,459.267,482.618z"/>
<path style="fill:#FF7945;" d="M397.096,8.042H114.899c-17.692,0-32.168,14.475-32.168,32.168h346.532  C429.264,22.517,414.788,8.042,397.096,8.042z"/>
<path d="M20.956,389.719c0.396,4.425,4.309,7.685,8.725,7.297c4.424-0.395,7.691-4.302,7.297-8.725L26.461,270.405l221.496-23.367  v152.375c0,4.442,3.6,8.042,8.042,8.042c4.442,0,8.042-3.6,8.042-8.042V238.102c0-0.013,0-0.026,0-0.039v-55.36l69.667,7.349  c0.006,0.001,0.013,0.001,0.019,0.002l139.428,14.709c0.008,0.001,0.015,0.001,0.023,0.002l18.047,1.903l-4.256,47.712  l-197.956-20.883c-4.422-0.461-8.376,2.737-8.842,7.154c-0.466,4.417,2.737,8.376,7.154,8.842l198.215,20.91l-10.517,117.888  c-0.394,4.423,2.873,8.33,7.297,8.725c0.243,0.021,0.484,0.032,0.724,0.032c4.119,0,7.627-3.147,8.001-7.329l16.905-189.504  c0.389-4.373-2.8-8.251-7.167-8.712l-18.749-1.978v-40.782c0-15.817-12.797-30.034-28.525-31.693l-16.198-1.709V40.209  C437.311,18.037,419.273,0,397.101,0H114.899C92.727,0,74.689,18.037,74.689,40.209v75.132l-16.199,1.709  c-15.729,1.659-28.526,15.876-28.526,31.693v40.783l-18.748,1.978c-4.366,0.461-7.556,4.339-7.167,8.712L20.956,389.719z   M342.581,174.814v-40.783c0-3.395,1.279-6.416,3.603-8.507c2.322-2.092,5.46-3.053,8.837-2.69l41.2,4.346v53.293L342.581,174.814z   M465.945,148.743v39.087l-53.639-5.658v-53.292l39.512,4.168C459.475,133.853,465.945,141.041,465.945,148.743z M114.899,16.084  h282.197c10.483,0,19.423,6.724,22.742,16.084H92.156C95.477,22.808,104.415,16.084,114.899,16.084z M90.773,48.251h157.182V141.6  c0,4.442,3.6,8.042,8.042,8.042s8.042-3.6,8.042-8.042V48.251h157.182v65.393l-16.13-1.702c-0.003,0-0.006-0.001-0.01-0.001  l-48.371-5.103c-7.972-0.837-15.529,1.55-21.286,6.731c-5.756,5.181-8.927,12.448-8.927,20.462v39.087l-69.656-7.348  c-0.002,0-0.005,0-0.009,0c-0.275-0.028-0.553-0.044-0.835-0.044c-0.282,0-0.561,0.015-0.835,0.044c-0.003,0-0.005,0-0.009,0  l-69.656,7.348v-39.087c0-8.014-3.171-15.281-8.926-20.462c-5.757-5.18-13.319-7.57-21.286-6.731l-48.37,5.103  c-0.004,0-0.009,0.001-0.012,0.001l-16.129,1.702V48.251H90.773z M115.774,180.474v-53.292l41.2-4.347  c3.368-0.357,6.514,0.598,8.837,2.69c2.324,2.09,3.603,5.112,3.603,8.507v40.783L115.774,180.474z M46.049,148.743  c0-7.702,6.47-14.889,14.129-15.697l39.511-4.168v53.292l-53.639,5.658v-39.086H46.049z M38.82,204.766  c0.008-0.001,0.015-0.001,0.023-0.002l139.428-14.709c0.006-0.001,0.013-0.001,0.019-0.002l69.667-7.349v48.161L25.03,254.381  l-4.257-47.712L38.82,204.766z"/>
<path d="M499.935,423.539c-13.59,0-26.056-6.322-34.202-17.343c-1.516-2.052-3.915-3.263-6.467-3.263c-0.002,0-0.005,0-0.008,0  c-2.554,0.002-4.955,1.218-6.469,3.275c-7.987,10.852-20.756,17.331-34.154,17.331c-13.39,0-26.176-6.483-34.201-17.343  c-1.516-2.052-3.916-3.263-6.468-3.263s-4.952,1.211-6.468,3.263c-8.025,10.86-20.808,17.343-34.199,17.343  c-13.565,0-26.018-6.322-34.165-17.344c-1.516-2.051-3.916-3.262-6.467-3.262c-2.552,0-4.951,1.211-6.467,3.263  c-8.027,10.859-20.812,17.343-34.202,17.343c-13.4,0-26.168-6.479-34.155-17.331c-1.512-2.054-3.909-3.269-6.46-3.275  c-0.005,0-0.011,0-0.016,0c-2.546,0-4.94,1.205-6.457,3.249c-8.187,11.031-20.656,17.357-34.211,17.357  c-13.399,0-26.167-6.479-34.155-17.331c-1.514-2.057-3.915-3.272-6.469-3.275c-0.002,0-0.005,0-0.008,0  c-2.551,0-4.952,1.211-6.468,3.263c-8.024,10.86-20.824,17.343-34.24,17.343c-13.365,0-26.136-6.484-34.164-17.344  c-1.517-2.052-3.916-3.262-6.468-3.262c-2.551,0-4.951,1.212-6.467,3.263c-8.144,11.021-20.61,17.343-34.201,17.343  c-4.442,0-8.042,3.6-8.042,8.042c0,4.442,3.6,8.042,8.042,8.042c15.194,0,29.813-6.038,40.668-16.498  c10.854,10.46,25.461,16.498,40.631,16.498c15.212,0,29.84-6.034,40.698-16.49c10.832,10.456,25.439,16.49,40.642,16.49  c15.414,0,29.794-5.909,40.673-16.476c10.83,10.447,25.432,16.476,40.628,16.476c15.183,0,29.791-6.029,40.645-16.476  c10.854,10.567,25.228,16.476,40.656,16.476c15.194,0,29.812-6.037,40.667-16.498c10.855,10.461,25.475,16.498,40.668,16.498  c15.202,0,29.81-6.034,40.64-16.489c10.855,10.456,25.469,16.489,40.659,16.489c4.442,0,8.042-3.6,8.042-8.042  C507.976,427.139,504.377,423.539,499.935,423.539z"/>
<path d="M499.935,487.874c-13.59,0-26.056-6.322-34.202-17.343c-1.516-2.052-3.915-3.263-6.467-3.263c-0.002,0-0.005,0-0.008,0  c-2.554,0.002-4.955,1.218-6.469,3.275c-7.987,10.852-20.756,17.331-34.154,17.331c-13.39,0-26.176-6.483-34.201-17.343  c-1.516-2.052-3.916-3.263-6.468-3.263s-4.952,1.211-6.468,3.263c-8.025,10.86-20.808,17.343-34.199,17.343  c-13.565,0-26.018-6.322-34.165-17.344c-1.516-2.051-3.916-3.262-6.467-3.262c-2.552,0-4.951,1.211-6.467,3.263  c-8.027,10.859-20.812,17.343-34.202,17.343c-13.4,0-26.168-6.479-34.155-17.331c-1.512-2.054-3.909-3.269-6.46-3.275  c-0.005,0-0.011,0-0.016,0c-2.546,0-4.94,1.205-6.457,3.249c-8.187,11.031-20.656,17.357-34.211,17.357  c-13.399,0-26.167-6.479-34.155-17.331c-1.514-2.057-3.915-3.272-6.469-3.275c-0.002,0-0.005,0-0.008,0  c-2.551,0-4.952,1.211-6.468,3.263c-8.024,10.86-20.824,17.343-34.24,17.343c-13.365,0-26.136-6.484-34.164-17.344  c-1.517-2.052-3.916-3.262-6.468-3.262c-2.551,0-4.951,1.212-6.467,3.263c-8.144,11.021-20.61,17.343-34.201,17.343  c-4.442,0-8.042,3.6-8.042,8.042c0,4.442,3.6,8.042,8.042,8.042c15.194,0,29.813-6.038,40.668-16.498  c10.854,10.46,25.461,16.498,40.631,16.498c15.212,0,29.84-6.034,40.698-16.49c10.832,10.456,25.439,16.49,40.642,16.49  c15.414,0,29.794-5.909,40.673-16.476c10.83,10.447,25.432,16.476,40.628,16.476c15.183,0,29.791-6.029,40.645-16.476  c10.854,10.567,25.228,16.476,40.656,16.476c15.194,0,29.812-6.037,40.667-16.498c10.855,10.461,25.475,16.498,40.668,16.498  c15.202,0,29.81-6.034,40.64-16.489c10.855,10.456,25.469,16.489,40.659,16.489c4.442,0,8.042-3.6,8.042-8.042  C507.976,491.474,504.377,487.874,499.935,487.874z"/>
<g>
</g>
<g>
</g>
<g>
</g>
<g>
</g>
<g>
</g>
<g>
</g>
<g>
</g>
<g>
</g>
<g>
</g>
<g>
</g>
<g>
</g>
<g>
</g>
<g>
</g>
<g>
</g>
<g>
</g>
</svg>
