<?xml version="1.0" encoding="iso-8859-1"?>
<!-- Generator: Adobe Illustrator 19.0.0, SVG Export Plug-In . SVG Version: 6.00 Build 0)  -->
<svg version="1.1" id="Layer_1" xmlns="http://www.w3.org/2000/svg" xmlns:xlink="http://www.w3.org/1999/xlink" x="0px" y="0px"
	 viewBox="0 0 512 512" style="enable-background:new 0 0 512 512;" xml:space="preserve">
<path style="fill:#333E48;" d="M70.228,269.641c0,8.575-7.016,15.591-15.591,15.591H23.52c-8.575,0-15.592-7.016-15.592-15.591
	V210.03c0-8.575,7.016-15.591,15.592-15.591h31.117c8.575,0,15.591,7.016,15.591,15.591V269.641z"/>
<path style="fill:#FFCE00;" d="M452.845,222.575h-97.673v-63.431c0-14.549-11.904-26.452-26.453-26.452H65.568
	c-14.55,0-26.453,11.905-26.453,26.452v166.522c0,14.549,11.904,26.452,26.453,26.452h387.277c14.55,0,26.453-11.905,26.453-26.452
	v-76.637C479.298,234.48,467.394,222.575,452.845,222.575z"/>
<path style="opacity:0.2;enable-background:new    ;" d="M371.588,237.4c0,4.379,3.55,7.928,7.928,7.928s7.928-3.549,7.928-7.928
	v-14.823h-15.856V237.4z M400.171,222.575v14.823c0,4.379,3.55,7.928,7.928,7.928c4.378,0,7.928-3.549,7.928-7.928v-14.823H400.171z
	"/>
<path style="opacity:0.2;enable-background:new    ;" d="M214.066,352.119c0-38.648-31.331-69.98-69.98-69.98
	s-69.98,31.332-69.98,69.98H214.066z"/>
<circle style="fill:#333E48;" cx="144.091" cy="352.124" r="57.537"/>
<circle style="fill:#7D868C;" cx="144.091" cy="352.124" r="28.43"/>
<path style="fill:#333E48;" d="M355.172,222.575h-34.293c-2.907,0-5.285-2.378-5.285-5.285v-46.324c0-2.907,2.378-5.285,5.285-5.285
	h34.293V222.575z"/>
<path style="opacity:0.2;enable-background:new    ;" d="M320.879,165.68c-2.907,0-5.285,2.378-5.285,5.285v7.4
	c0-2.907,2.378-5.285,5.285-5.285h34.293v-7.4H320.879z"/>
<path style="opacity:0.2;fill:#FFFFFF;enable-background:new    ;" d="M334.134,165.68c-1.421,3.008-2.218,6.368-2.218,9.916
	c0,12.844,10.412,23.256,23.256,23.256V165.68H334.134z"/>
<path style="fill:#333E48;" d="M197.795,170.965c0-2.907,2.378-5.285,5.285-5.285h82.365c2.907,0,5.285,2.378,5.285,5.285v46.324
	c0,2.907-2.378,5.285-5.285,5.285H203.08c-2.907,0-5.285-2.378-5.285-5.285L197.795,170.965L197.795,170.965z"/>
<path style="opacity:0.2;enable-background:new    ;" d="M285.443,165.68h-82.365c-2.907,0-5.285,2.378-5.285,5.285v7.4
	c0-2.907,2.378-5.285,5.285-5.285h82.365c2.907,0,5.285,2.378,5.285,5.285v-7.4C290.729,168.058,288.35,165.68,285.443,165.68z"/>
<rect x="445.676" y="249.026" style="fill:#009BDE;" width="33.625" height="28.753"/>
<path style="fill:#FFFFFF;" d="M454.144,249.03h-9.665c-2.858,0-5.198,2.338-5.198,5.197v18.363c0,2.858,2.338,5.197,5.198,5.197
	h9.665V249.03z"/>
<g>
	<path style="fill:#7D868C;" d="M491.944,309.83c6.698,0,12.127,5.429,12.127,12.127c0,6.698-5.429,12.127-12.127,12.127h-53.356
		c-6.697,0-12.127-5.429-12.127-12.127s5.429-12.127,12.127-12.127L491.944,309.83L491.944,309.83z"/>
	<path style="fill:#7D868C;" d="M491.944,265.041c6.698,0,12.127,5.43,12.127,12.127c0,6.698-5.429,12.127-12.127,12.127h-53.356
		c-6.697,0-12.127-5.429-12.127-12.127c0-6.697,5.429-12.127,12.127-12.127L491.944,265.041L491.944,265.041z"/>
</g>
<path style="opacity:0.2;enable-background:new    ;" d="M280.424,256.958h-31.523c-4.378,0-7.928-3.549-7.928-7.928
	c0-4.379,3.55-7.928,7.928-7.928h31.523c4.378,0,7.928,3.549,7.928,7.928C288.352,253.408,284.803,256.958,280.424,256.958z"/>
<path style="fill:#333E48;" d="M72.306,170.965c0-2.907,2.378-5.285,5.285-5.285h82.363c2.907,0,5.285,2.378,5.285,5.285v46.324
	c0,2.907-2.378,5.285-5.285,5.285H77.592c-2.907,0-5.285-2.378-5.285-5.285V170.965z"/>
<path style="opacity:0.2;enable-background:new    ;" d="M159.955,165.68H77.592c-2.907,0-5.285,2.378-5.285,5.285v7.4
	c0-2.907,2.378-5.285,5.285-5.285h82.363c2.907,0,5.285,2.378,5.285,5.285v-7.4C165.241,168.058,162.862,165.68,159.955,165.68z"/>
<path style="opacity:0.2;fill:#FFFFFF;enable-background:new    ;" d="M104.832,165.68h-27.24c-2.907,0-5.285,2.378-5.285,5.285
	v20.97c2.994,1.404,6.334,2.192,9.859,2.192c12.844,0,23.256-10.412,23.256-23.256C105.422,169.087,105.213,167.35,104.832,165.68z"
	/>
<path style="opacity:0.2;enable-background:new    ;" d="M154.936,256.958h-31.523c-4.378,0-7.928-3.549-7.928-7.928
	c0-4.379,3.55-7.928,7.928-7.928h31.523c4.378,0,7.928,3.549,7.928,7.928C162.864,253.408,159.315,256.958,154.936,256.958z"/>
<path style="fill:#7D868C;" d="M55.737,309.83c6.697,0,12.127,5.429,12.127,12.127c0,6.698-5.429,12.127-12.127,12.127H33.561
	c-6.697,0-12.126-5.429-12.126-12.127s5.429-12.127,12.126-12.127L55.737,309.83L55.737,309.83z"/>
<path style="opacity:0.2;enable-background:new    ;" d="M418.118,352.119c0-38.648-31.331-69.98-69.98-69.98
	s-69.98,31.332-69.98,69.98H418.118z"/>
<circle style="fill:#333E48;" cx="348.139" cy="352.124" r="57.537"/>
<circle style="fill:#7D868C;" cx="348.139" cy="352.124" r="28.43"/>
<path style="fill:#FFFFFF;" d="M39.114,271.18h9.665c2.858,0,5.198,2.338,5.198,5.197v18.363c0,2.857-2.338,5.197-5.198,5.197
	h-9.665V271.18z"/>
<path style="fill:#1E252B;" d="M144.087,315.76c-20.048,0-36.358,16.311-36.358,36.359c0,20.048,16.311,36.358,36.358,36.358
	s36.358-16.311,36.358-36.358C180.446,332.071,164.135,315.76,144.087,315.76z M144.087,372.62
	c-11.304,0-20.502-9.197-20.502-20.502s9.198-20.503,20.502-20.503s20.502,9.198,20.502,20.503S155.392,372.62,144.087,372.62z
	 M491.944,301.902h-4.718v-4.68h4.718c11.058,0,20.055-8.997,20.055-20.055s-8.997-20.055-20.055-20.055h-4.718v-8.083
	c0-18.959-15.424-34.382-34.382-34.382H363.1v-55.503c0-18.958-15.424-34.38-34.382-34.38h-17.323v-14.489h13.9
	c4.378,0,7.928-3.549,7.928-7.928s-3.55-7.928-7.928-7.928H70.295c-4.378,0-7.928,3.549-7.928,7.928s3.55,7.928,7.928,7.928h13.9
	v14.489H65.568c-18.958,0-34.382,15.424-34.382,34.38v27.367H23.52C10.551,186.511,0,197.06,0,210.03v59.611
	c0,12.969,10.551,23.519,23.52,23.519h7.666v8.896c-9.941,1.181-17.679,9.648-17.679,19.901c0,11.058,8.996,20.055,20.054,20.055
	h1.786c5.942,10.979,17.456,18.037,30.22,18.037h13.555c3.928,32.368,31.554,57.534,64.965,57.534
	c33.41,0,61.036-25.166,64.964-57.534h74.122c3.928,32.368,31.554,57.534,64.965,57.534c33.41,0,61.036-25.166,64.964-57.534h39.743
	c12.764,0,24.278-7.059,30.22-18.037h8.879c11.058,0,20.055-8.997,20.055-20.055S503.003,301.902,491.944,301.902z M491.944,272.969
	c2.315,0,4.199,1.883,4.199,4.199s-1.884,4.199-4.199,4.199h-53.356c-2.315,0-4.199-1.883-4.199-4.199s1.884-4.199,4.199-4.199
	H491.944z M471.37,297.222v4.68h-11.947v-4.68H471.37z M100.051,110.274h195.488v14.489H100.051V110.274z M23.52,277.303
	c-4.226,0-7.664-3.438-7.664-7.663V210.03c0-4.225,3.438-7.663,7.664-7.663h7.666v74.936L23.52,277.303L23.52,277.303z
	 M33.561,326.154c-2.315,0-4.198-1.883-4.198-4.199s1.883-4.199,4.198-4.199h22.174c2.315,0,4.199,1.883,4.199,4.199
	s-1.884,4.199-4.199,4.199H33.561z M144.087,401.725c-27.353,0-49.606-22.253-49.606-49.606c0-27.353,22.253-49.606,49.606-49.606
	c27.352,0,49.605,22.253,49.605,49.606C193.692,379.472,171.439,401.725,144.087,401.725z M348.138,401.725
	c-27.352,0-49.606-22.253-49.606-49.606c0-27.353,22.253-49.606,49.606-49.606c27.353,0,49.605,22.253,49.605,49.606
	C397.742,379.472,375.491,401.725,348.138,401.725z M452.845,344.191h-39.743c-3.928-32.368-31.554-57.534-64.964-57.534
	c-33.411,0-61.037,25.166-64.965,57.534H209.05c-3.928-32.368-31.554-57.534-64.964-57.534c-33.411,0-61.037,25.166-64.965,57.534
	H65.568c-3.142,0-6.138-0.805-8.779-2.234c10.568-0.553,19.002-9.298,19.002-20.001c0-11.058-8.997-20.055-20.055-20.055h-8.694
	V159.144c0-10.215,8.311-18.524,18.525-18.524h263.151c9.744,0,17.738,7.568,18.454,17.132h-26.294
	c-7.286,0-13.214,5.927-13.214,13.214v46.324c0,7.286,5.927,13.214,13.214,13.214h131.966c10.215,0,18.525,8.311,18.525,18.525
	v8.083h-32.781c-11.058,0-20.055,8.997-20.055,20.055c0,11.058,8.997,20.055,20.055,20.055h4.978v4.68h-4.978
	c-11.058,0-20.055,8.997-20.055,20.055c0,11.058,8.997,20.055,20.055,20.055h22.94C458.911,343.407,455.948,344.191,452.845,344.191
	z M347.243,173.608v41.039h-23.722v-41.039H347.243z M491.944,326.154h-53.356c-2.315,0-4.199-1.883-4.199-4.199
	s1.884-4.199,4.199-4.199h53.356c2.315,0,4.199,1.883,4.199,4.199S494.26,326.154,491.944,326.154z M285.443,157.752h-82.365
	c-7.286,0-13.214,5.927-13.214,13.214v46.324c0,7.286,5.927,13.214,13.214,13.214h82.365c7.286,0,13.214-5.927,13.214-13.214
	v-46.324C298.657,163.679,292.73,157.752,285.443,157.752z M282.801,214.647h-77.079v-41.039h77.079V214.647z M159.955,157.752
	H77.592c-7.286,0-13.214,5.927-13.214,13.214v46.324c0,7.286,5.927,13.214,13.214,13.214h82.363c7.286,0,13.214-5.927,13.214-13.214
	v-46.324C173.169,163.679,167.242,157.752,159.955,157.752z M157.313,214.647H80.235v-41.039h77.078V214.647z M348.138,315.76
	c-20.049,0-36.359,16.311-36.359,36.359c0,20.048,16.311,36.358,36.359,36.358c20.048,0,36.358-16.311,36.358-36.358
	C384.496,332.071,368.186,315.76,348.138,315.76z M348.138,372.62c-11.305,0-20.503-9.197-20.503-20.502s9.198-20.503,20.503-20.503
	c11.304,0,20.502,9.198,20.502,20.503S359.443,372.62,348.138,372.62z"/>
<g>
</g>
<g>
</g>
<g>
</g>
<g>
</g>
<g>
</g>
<g>
</g>
<g>
</g>
<g>
</g>
<g>
</g>
<g>
</g>
<g>
</g>
<g>
</g>
<g>
</g>
<g>
</g>
<g>
</g>
</svg>
