<?xml version="1.0" encoding="iso-8859-1"?>
<!-- Generator: Adobe Illustrator 19.0.0, SVG Export Plug-In . SVG Version: 6.00 Build 0)  -->
<svg version="1.1" id="Layer_1" xmlns="http://www.w3.org/2000/svg" xmlns:xlink="http://www.w3.org/1999/xlink" x="0px" y="0px"
	 viewBox="0 0 512 512" style="enable-background:new 0 0 512 512;" xml:space="preserve">
<path style="fill:#7C6755;" d="M343.622,377.649c1.643-8.748-4.17-17.249-12.917-18.893L52.423,306.485
	c-8.748-1.643-17.249,4.17-18.892,12.919l-3.309,17.616c-1.643,8.748,4.17,17.249,12.917,18.892l278.282,52.271
	c8.748,1.643,17.249-4.169,18.892-12.917L343.622,377.649z"/>
<path style="fill:#61B4E4;" d="M298.845,12.709c11.166-0.092,19.544,0.323,30.672,1.254c37.282,3.122,74.267,12.64,107.575,29.881
	c17.15,8.878,33.38,19.298,47.435,32.634c9.888,9.382,23.42,20.501,18.213,35.855c-4.488,13.235-18.139,17.024-30.38,13.032
	c-24.902-8.121-48.956-17.334-74.788-22.279c-32.772-6.272-65.406-8.383-98.725-8.48c-33.319,0.098-65.953,2.21-98.725,8.48
	c-25.832,4.945-49.886,14.158-74.788,22.279c-12.241,3.992-25.892,0.203-30.38-13.032c-5.208-15.354,8.325-26.473,18.213-35.855
	c14.056-13.336,30.285-23.757,47.435-32.634c33.307-17.241,70.292-26.76,107.574-29.881
	C279.301,13.032,287.68,12.617,298.845,12.709z"/>
<path style="opacity:0.2;enable-background:new    ;" d="M329.517,13.963c-11.128-0.931-19.505-1.345-30.672-1.254
	c-11.166-0.092-19.544,0.323-30.672,1.254c-19.339,1.619-38.593,4.977-57.301,10.223l11.548,75.256
	c25.319-3.474,50.667-4.762,76.424-4.838c25.743,0.076,51.076,1.364,76.381,4.832l11.549-75.264
	C368.081,18.935,348.842,15.581,329.517,13.963z"/>
<path style="fill:#FFCE00;" d="M329.517,13.963c-11.128-0.931-19.505-1.345-30.672-1.254c-11.166-0.092-19.544,0.323-30.672,1.254
	c-13.946,1.167-27.85,3.231-41.537,6.26l11.862,77.299c19.985-2.042,40.037-2.856,60.346-2.916
	c20.294,0.06,40.332,0.874,60.303,2.912l11.863-77.304C357.338,17.191,343.448,15.129,329.517,13.963z"/>
<path style="fill:#009BDE;" d="M435.779,499.305c33.723,0,61.061-27.339,61.061-61.062c0,0,0-44.846,0-53.819
	s-4.201-13.833-6.478-15.736c-19.236-16.065-46.174-13.907-63.342,6.47c-19.202,22.789-50.621,22.789-69.823,0
	c-19.201-22.789-50.62-22.789-69.821,0c-19.201,22.789-50.62,22.789-69.822,0c-19.201-22.789-50.62-22.789-69.821,0
	c-19.201,22.789-50.621,22.789-69.822,0c-17.169-20.377-44.107-22.535-63.343-6.47c-2.275,1.902-6.477,6.762-6.477,15.736
	c0,8.972,0,53.819,0,53.819c0,33.723,27.339,61.061,61.062,61.061L435.779,499.305L435.779,499.305z"/>
<path style="opacity:0.2;enable-background:new    ;" d="M252.467,455.116c-15.654,0-30.25-7.091-41.1-19.971
	c-7.723-9.165-17.922-14.213-28.722-14.213c-10.8,0-20.999,5.048-28.722,14.214c-2.88,3.416-7.984,3.853-11.402,0.973
	c-3.417-2.88-3.854-7.984-0.974-11.402c10.85-12.878,25.445-19.969,41.098-19.969s30.249,7.091,41.098,19.969
	c7.724,9.167,17.925,14.215,28.724,14.215c10.799,0,20.999-5.048,28.722-14.214c10.85-12.878,25.447-19.97,41.099-19.97
	c15.652,0,30.249,7.091,41.098,19.969c2.88,3.418,2.444,8.522-0.974,11.402c-3.418,2.88-8.522,2.444-11.402-0.973
	c-7.723-9.166-17.923-14.214-28.722-14.214c-10.8,0-20.999,5.048-28.723,14.214C282.715,448.022,268.12,455.116,252.467,455.116z"/>
<path style="fill:#1E252B;" d="M51.838,241.266c18.674,0,33.867,15.193,33.867,33.867c0,4.47,3.623,8.092,8.092,8.092
	c4.469,0,8.092-3.622,8.092-8.092c0-27.598-22.453-50.05-50.05-50.05c-4.469,0-8.092,3.622-8.092,8.092
	S47.369,241.266,51.838,241.266z M379.102,296.112c0-18.674,15.192-33.867,33.867-33.867c4.469,0,8.092-3.622,8.092-8.092
	s-3.623-8.092-8.092-8.092c-27.598,0-50.05,22.453-50.05,50.05c0,4.47,3.623,8.092,8.092,8.092
	C375.479,304.204,379.102,300.581,379.102,296.112z M492.226,72.613c-0.723-0.678-1.436-1.345-2.131-2.003
	c-13.169-12.496-29.29-23.601-49.284-33.95C407.939,19.643,370.72,9.294,330.191,5.9c-12.288-1.029-20.647-1.369-31.346-1.283
	c-10.695-0.091-19.056,0.254-31.347,1.282c-40.529,3.394-77.746,13.742-110.619,30.759c-19.995,10.35-36.116,21.455-49.284,33.95
	c-0.695,0.658-1.408,1.326-2.131,2.003c-9.831,9.208-24.686,23.125-18.176,42.319c4.19,12.358,15.213,20.034,28.769,20.034
	c1.704,0,3.411-0.143,5.115-0.382L239.855,321.62c1.262,1.989,3.328,3.329,5.66,3.67c0.391,0.057,0.783,0.085,1.173,0.085
	c1.934,0,3.821-0.694,5.303-1.98l219.008-190.012c3.515,1.03,7.085,1.581,10.636,1.581c13.555-0.001,24.579-7.677,28.768-20.033
	C516.913,95.737,502.057,81.821,492.226,72.613z M268.849,22.026c10.644-0.89,18.222-1.237,27.029-1.237
	c0.948,0,1.912,0.004,2.901,0.013h0.133c10.178-0.087,18.141,0.24,29.929,1.226c11.293,0.946,22.297,2.473,33.008,4.544
	l-9.54,62.163c-16.607-1.439-34.234-2.163-53.488-2.22c-19.244,0.057-36.871,0.782-53.483,2.224l-9.538-62.159
	C246.523,24.503,257.541,22.973,268.849,22.026z M116.058,118.783c-3.875,0-10.774-1.175-13.444-9.049
	c-2.94-8.669,3.6-15.649,13.913-25.311c0.749-0.701,1.488-1.393,2.206-2.076c12.05-11.433,26.961-21.677,45.585-31.318
	c17.294-8.953,35.902-15.944,55.648-20.937l9.255,60.31c-10.501,1.26-20.657,2.829-30.623,4.736
	c-20.677,3.957-40.397,10.63-59.469,17.083c-5.336,1.806-10.854,3.671-16.306,5.451
	C120.564,118.409,118.288,118.783,116.058,118.783z M248.484,305.014L137.366,129.896c2.338-0.786,4.663-1.571,6.95-2.345
	c19.408-6.567,37.739-12.77,57.324-16.519c29.15-5.578,60.045-8.226,97.181-8.337c37.183,0.11,68.079,2.759,97.228,8.337
	c19.501,3.733,37.76,9.899,57.074,16.434L248.484,305.014z M495.077,109.735c-2.67,7.872-9.57,9.048-13.444,9.048
	c-2.229,0-4.505-0.373-6.765-1.11c-5.453-1.778-10.97-3.644-16.306-5.451c-19.071-6.453-38.792-13.126-59.469-17.083
	c-9.978-1.91-20.148-3.48-30.665-4.741l9.257-60.316c19.76,4.993,38.381,11.989,55.689,20.948
	c18.625,9.642,33.535,19.886,45.585,31.318c0.72,0.683,1.458,1.373,2.206,2.076C491.476,94.085,498.017,101.065,495.077,109.735z
	 M495.549,362.478c-9.794-8.179-21.419-12.502-33.618-12.502c-15.652,0-30.249,7.091-41.098,19.969
	c-7.724,9.166-17.925,14.214-28.724,14.214c-10.8,0-21-5.048-28.723-14.213c-8.526-10.12-19.37-16.647-31.217-18.987l0.029-0.156
	l-278.282-52.27c-13.153-2.476-25.866,6.223-28.338,19.377l-3.309,17.616c-1.145,6.095,0.085,12.269,3.42,17.497
	c-5.802,2.103-11.295,5.271-16.307,9.457C6.562,364.835,0,371.69,0,384.424v53.819c0,38.131,31.022,69.153,69.153,69.153h366.626
	c38.131,0,69.153-31.022,69.153-69.153v-53.819C504.932,371.69,498.371,364.835,495.549,362.478z M38.174,338.513l3.309-17.616
	c0.823-4.387,5.061-7.287,9.446-6.459l241.252,45.315c-3.965,2.828-7.658,6.235-10.994,10.193
	c-7.723,9.165-17.922,14.213-28.722,14.213s-21-5.048-28.723-14.213c-10.85-12.879-25.445-19.97-41.099-19.97
	c-14.282,0-27.674,5.921-38.155,16.739L44.63,347.959c-2.106-0.395-3.942-1.601-5.169-3.395
	C38.236,342.769,37.778,340.619,38.174,338.513z M128.815,380.236c-5,2.566-10.414,3.923-15.992,3.923
	c-9.862,0-19.218-4.221-26.651-11.932L128.815,380.236z M488.749,438.243c0,29.207-23.762,52.97-52.97,52.97H69.153
	c-29.208,0-52.97-23.762-52.97-52.97v-53.819c0-6.069,2.735-8.825,3.572-9.524c6.848-5.719,14.885-8.741,23.246-8.741
	c10.8,0,21,5.048,28.723,14.213c10.85,12.878,25.445,19.97,41.099,19.97s30.249-7.091,41.099-19.97
	c7.723-9.165,17.922-14.213,28.722-14.213c10.8,0,20.999,5.048,28.723,14.214c10.85,12.876,25.447,19.969,41.099,19.969
	c15.652,0,30.249-7.091,41.099-19.97c7.723-9.165,17.922-14.213,28.722-14.213s20.999,5.048,28.722,14.214
	c10.85,12.876,25.447,19.969,41.099,19.969c15.652,0,30.249-7.091,41.099-19.97c7.723-9.165,17.923-14.213,28.723-14.213
	c8.36,0,16.398,3.022,23.245,8.74c0.837,0.7,3.572,3.457,3.572,9.525v53.819H488.749z M365.289,345.304
	c1.579,1.579,3.651,2.369,5.721,2.369c2.07,0,4.142-0.79,5.721-2.369c13.206-13.203,34.691-13.204,47.895,0
	c3.16,3.159,8.284,3.159,11.443,0c3.16-3.161,3.16-8.284,0-11.444c-19.515-19.514-51.266-19.512-70.781,0
	C362.129,337.021,362.129,342.144,365.289,345.304z"/>
<g>
</g>
<g>
</g>
<g>
</g>
<g>
</g>
<g>
</g>
<g>
</g>
<g>
</g>
<g>
</g>
<g>
</g>
<g>
</g>
<g>
</g>
<g>
</g>
<g>
</g>
<g>
</g>
<g>
</g>
</svg>
