<?xml version="1.0" encoding="iso-8859-1"?>
<!-- Generator: Adobe Illustrator 19.0.0, SVG Export Plug-In . SVG Version: 6.00 Build 0)  -->
<svg xmlns="http://www.w3.org/2000/svg" xmlns:xlink="http://www.w3.org/1999/xlink" version="1.1" id="Layer_1" x="0px" y="0px" viewBox="0 0 512 512" style="enable-background:new 0 0 512 512;" xml:space="preserve">
<path style="fill:#72CDED;" d="M503.561,186.641v36.132c0,46.676-110.838,84.507-247.557,84.507  c-47.914,0-92.643-4.647-130.53-12.693C55.212,279.688,8.435,253.099,8.435,222.773v-36.132H503.561z"/>
<g>
	<path style="fill:#5A6572;" d="M170.484,302.102v93.7c0,7.764-6.301,14.066-14.066,14.066c-7.776,0-14.066-6.301-14.066-14.066   V297.86L170.484,302.102z"/>
	<path style="fill:#5A6572;" d="M52.894,271.102v59.436c0,7.764-6.301,14.066-14.066,14.066c-7.776,0-14.066-6.301-14.066-14.066   v-77.519L52.894,271.102z"/>
	<path style="fill:#5A6572;" d="M487.244,253.008v77.53c0,7.764-6.301,14.066-14.066,14.066c-7.776,0-14.066-6.301-14.066-14.066   v-59.436L487.244,253.008z"/>
	<path style="fill:#5A6572;" d="M369.655,297.86v97.943c0,7.764-6.301,14.066-14.066,14.066c-7.776,0-14.066-6.301-14.066-14.066   v-93.712L369.655,297.86z"/>
</g>
<g>
	<path style="fill:#475059;" d="M24.762,253.019l28.131,18.083v28.132c-11.41-5.57-20.896-11.635-28.131-18.083V253.019z"/>
	<path style="fill:#475059;" d="M142.352,297.86l28.131,4.242v28.12c-9.677-1.215-19.062-2.633-28.131-4.242V297.86z"/>
	<path style="fill:#475059;" d="M341.523,302.091l28.132-4.231v28.132c-9.058,1.609-18.454,3.027-28.132,4.231V302.091z"/>
	<path style="fill:#475059;" d="M487.244,253.008v28.132c-7.235,6.448-16.721,12.513-28.132,18.094v-28.132L487.244,253.008z"/>
</g>
<path style="fill:#5FBAD3;" d="M125.473,186.641v107.946C55.212,279.688,8.435,253.099,8.435,222.773v-36.132H125.473z"/>
<ellipse style="fill:#72CDED;" cx="255.997" cy="186.635" rx="247.557" ry="84.507"/>
<path style="fill:#FEC95B;" d="M461.577,186.641c0,32.047-92.035,58.041-205.574,58.041c-22.967,0-45.044-1.069-65.67-3.027  c-81.334-7.731-139.915-29.448-139.915-55.014c0-32.059,92.046-58.041,205.585-58.041c13.897,0,27.479,0.394,40.599,1.137  C390.697,135.046,461.577,158.509,461.577,186.641z"/>
<path style="fill:#E2AD50;" d="M461.577,186.641c0,32.047-92.035,58.041-205.574,58.041c-22.967,0-45.044-1.069-65.67-3.027  c247.726-58.784,108.61-111.052,106.27-111.918C390.697,135.046,461.577,158.509,461.577,186.641z"/>
<path d="M433.779,118.894C386.166,102.642,323.029,93.691,256,93.691c-67.028,0-130.166,8.951-177.778,25.204  C27.78,136.113,0,160.171,0,186.636v36.138c0,11.871,5.606,23.255,16.323,33.758v74.008c0,12.409,10.096,22.505,22.505,22.505  s22.505-10.096,22.505-22.505v-46.401c5.312,2.215,10.936,4.345,16.888,6.377c16.799,5.734,35.538,10.555,55.691,14.399v90.889  c0,12.409,10.096,22.505,22.505,22.505c12.409,0,22.505-10.096,22.505-22.505v-84.2c24.602,2.705,50.531,4.114,77.077,4.114  c26.548,0,52.48-1.41,77.084-4.115v84.201c0,12.409,10.096,22.505,22.505,22.505c12.409,0,22.505-10.096,22.505-22.505v-90.891  c20.15-3.844,38.887-8.663,55.683-14.398c17.967-6.133,33.041-13.137,45.027-20.806v60.829c0,3.102-2.524,5.626-5.626,5.626  s-5.626-2.524-5.626-5.626v-31.305c0-4.661-3.779-8.439-8.439-8.439s-8.439,3.779-8.439,8.439v31.305  c0,12.409,10.096,22.505,22.505,22.505c12.409,0,22.505-10.096,22.505-22.505v-74.015C506.396,246.023,512,234.642,512,222.774  v-36.138C512,160.171,484.221,136.113,433.779,118.894z M44.455,330.538c0,3.102-2.524,5.626-5.626,5.626  c-3.102,0-5.626-2.524-5.626-5.626v-60.825c3.493,2.235,7.238,4.415,11.253,6.531V330.538z M162.044,395.803  c0,3.102-2.524,5.626-5.626,5.626c-3.102,0-5.626-2.524-5.626-5.626V307.85c3.711,0.586,7.463,1.141,11.253,1.664V395.803z   M361.215,395.803c0,3.102-2.524,5.626-5.626,5.626s-5.626-2.524-5.626-5.626v-86.289c3.79-0.523,7.541-1.078,11.253-1.664V395.803z   M428.326,274.54C382.423,290.21,321.222,298.839,256,298.839s-126.423-8.63-172.326-24.299  c-41.825-14.277-66.795-33.63-66.795-51.768v-1.768c7.187,6.907,15.712,12.586,23.596,16.991c4.067,2.274,9.21,0.817,11.484-3.251  c2.274-4.069,0.818-9.21-3.251-11.484c-26.307-14.698-31.829-28.03-31.829-36.625c0-18.138,24.971-37.49,66.795-51.768  C129.577,119.199,190.778,110.57,256,110.57s126.423,8.63,172.326,24.299c41.825,14.277,66.795,33.63,66.795,51.768  s-24.971,37.49-66.795,51.768C382.423,254.073,321.222,262.703,256,262.703c-69.493,0-135.748-10.101-181.778-27.714  c-4.353-1.664-9.233,0.513-10.898,4.867c-1.665,4.354,0.513,9.233,4.867,10.898c47.881,18.321,116.336,28.829,187.81,28.829  c67.029,0,130.166-8.951,177.779-25.204c27.429-9.363,48.139-20.751,61.344-33.446v1.842  C495.121,240.911,470.15,260.263,428.326,274.54z"/>
<path d="M256,253.117c55.665,0,108.105-6.15,147.66-17.318c43.413-12.256,66.359-29.257,66.359-49.163  c0-19.747-22.611-36.652-65.388-48.887c-4.484-1.283-9.153,1.313-10.435,5.793c-1.282,4.481,1.312,9.153,5.793,10.435  c24.519,7.013,53.151,19.774,53.151,32.658c0,20.712-74.999,49.601-197.14,49.601c-122.14,0-197.139-28.89-197.139-49.601  S133.86,137.034,256,137.034c41.919,0,82.108,3.568,116.22,10.319c4.573,0.906,9.012-2.068,9.917-6.64  c0.905-4.572-2.068-9.012-6.64-9.917c-35.175-6.961-76.495-10.639-119.497-10.639c-55.665,0-108.105,6.15-147.659,17.317  c-43.413,12.257-66.359,29.257-66.359,49.163s22.946,36.906,66.359,49.163C147.895,246.966,200.335,253.117,256,253.117z"/>
<g>
</g>
<g>
</g>
<g>
</g>
<g>
</g>
<g>
</g>
<g>
</g>
<g>
</g>
<g>
</g>
<g>
</g>
<g>
</g>
<g>
</g>
<g>
</g>
<g>
</g>
<g>
</g>
<g>
</g>
</svg>
