<?xml version="1.0" encoding="iso-8859-1"?>
<!-- Generator: Adobe Illustrator 19.0.0, SVG Export Plug-In . SVG Version: 6.00 Build 0)  -->
<svg version="1.1" id="Layer_1" xmlns="http://www.w3.org/2000/svg" xmlns:xlink="http://www.w3.org/1999/xlink" x="0px" y="0px"
	 viewBox="0 0 512.001 512.001" style="enable-background:new 0 0 512.001 512.001;" xml:space="preserve">
<path style="fill:#009BDE;" d="M386.703,32.821c13.975,44.062,21.514,90.979,21.514,139.666c0,64.28-13.13,125.478-36.873,181.086
	c-68.803,9.721-159.606,39.908-185.9,72.64h-31.158c-0.146-5.716-0.212-11.443-0.212-17.194
	c0-149.557,47.559-287.999,128.404-401.033C322.556,15.447,360.778,24.629,386.703,32.821z"/>
<path style="fill:#FFCE00;" d="M395.011,62.523c-63.628,50.184-104.477,127.966-104.477,215.292c0,31.39,5.293,61.541,15.01,89.625
	c22.353-6.152,45.073-10.939,65.799-13.867c23.742-55.608,36.873-116.805,36.873-181.086
	C408.216,134.586,403.629,97.766,395.011,62.523z"/>
<path style="fill:#7C6755;" d="M405.846,125.568c-51.376,49.811-83.319,119.55-83.319,196.761c0,13.596,1.005,26.952,2.917,40.017
	c15.738-3.729,31.313-6.714,45.898-8.773c23.742-55.608,36.873-116.805,36.873-181.086
	C408.216,156.646,407.404,140.997,405.846,125.568z"/>
<path style="opacity:0.2;enable-background:new    ;" d="M322.527,16.136c-12.855-2.845-26.342-5.598-40.049-8.149
	C201.633,121.021,154.074,259.463,154.074,409.02c0,5.75,0.067,11.477,0.212,17.194h31.158c3.646-4.539,8.537-9.028,14.432-13.421
	c-0.006-1.258-0.022-2.512-0.022-3.773C199.853,263.035,245.173,127.647,322.527,16.136z"/>
<path style="fill:#333E48;" d="M304.801,12.355c-7.329-1.505-14.793-2.967-22.323-4.369
	C201.633,121.02,154.074,259.462,154.074,409.019c0,5.75,0.067,11.477,0.212,17.194h25.417c-0.147-5.716-0.213-11.443-0.213-17.194
	C179.49,261.382,225.84,124.581,304.801,12.355z"/>
<path style="fill:#61B4E4;" d="M470.032,449.476c9.196,0,16.651-7.455,16.651-16.65c0-9.196-7.455-16.652-16.651-16.652H41.968
	c-9.195,0-16.65,7.456-16.65,16.652c0,9.195,7.455,16.65,16.65,16.65H470.032z"/>
<path style="fill:#493728;" d="M358.881,449.476h67.998c0.002,15.401,7.076,29.306,18.449,39.223
	c4.462,3.891,3.442,8.721-2.212,10.912c-7.304,2.836-15.357,4.403-23.812,4.402C385.933,504.014,358.88,479.596,358.881,449.476z"/>
<path style="opacity:0.2;enable-background:new    ;" d="M426.878,449.476h-67.998c0,5.94,1.066,11.651,3.011,17.005h67.997
	C427.941,461.128,426.88,455.416,426.878,449.476z"/>
<path style="fill:#1E252B;" d="M470.032,408.189H221.856c39.849-22.223,102.909-39.969,150.605-46.708
	c2.769-0.392,5.13-2.201,6.228-4.771c24.892-58.302,37.514-120.284,37.514-184.223c0-48.486-7.364-96.289-21.888-142.081
	c-0.786-2.477-2.729-4.417-5.207-5.201c-26.889-8.496-65.222-17.635-105.17-25.07c-3.044-0.57-6.152,0.681-7.957,3.205
	c-84.817,118.589-129.72,258.565-129.89,404.848H41.968c-13.584,0-24.636,11.053-24.636,24.638
	c0,13.584,11.052,24.636,24.636,24.636h309.493c1.91,13.816,8.749,26.562,19.764,36.505c12.883,11.629,29.958,18.033,48.077,18.032
	h0.01c9.264,0,18.246-1.663,26.69-4.942c5.435-2.106,9.046-6.123,9.905-11.019c0.843-4.801-1.1-9.671-5.331-13.36
	c-7.95-6.931-13.081-15.689-14.93-25.217h34.385c13.585,0,24.637-11.052,24.637-24.636
	C494.669,419.241,483.617,408.189,470.032,408.189z M365.731,346.324c-30.814,4.671-64.36,12.96-95,23.499
	c-23.881,8.214-56.398,21.437-77.984,38.366h-5.267c0.049-41.416,3.776-82.335,11.066-122.387h187.441
	C380.694,306.359,373.943,326.558,365.731,346.324z M389.787,269.829H201.655c4.184-20.22,9.277-40.207,15.274-59.907h181.784
	C397.071,230.159,394.091,250.148,389.787,269.829z M400.23,172.487c0,7.181-0.169,14.336-0.499,21.463H222.013
	c6.738-20.308,14.443-40.295,23.097-59.907h153.492C399.673,146.79,400.23,159.612,400.23,172.487z M380.328,39.204
	c7.899,25.728,13.449,52.102,16.65,78.865H252.404c15.85-33.53,34.524-65.894,55.929-96.814
	C335.436,26.952,360.961,33.296,380.328,39.204z M286.029,16.781c1.771,0.338,3.538,0.681,5.305,1.026
	c-78.281,115.444-119.663,250.131-119.826,390.382h-9.444C162.232,266.962,205.07,131.753,286.029,16.781z M438.116,492.937
	c-5.98,2.052-12.294,3.089-18.804,3.089h-0.007c-14.16,0-27.433-4.942-37.377-13.915c-7.573-6.836-12.479-15.392-14.278-24.649
	h51.806C421.299,470.83,427.74,483.153,438.116,492.937z M470.032,441.49H41.968c-4.777,0-8.663-3.886-8.663-8.663
	c0-4.778,3.886-8.666,8.663-8.666h428.064c4.777,0,8.665,3.887,8.665,8.666C478.696,437.604,474.81,441.49,470.032,441.49z"/>
<g>
</g>
<g>
</g>
<g>
</g>
<g>
</g>
<g>
</g>
<g>
</g>
<g>
</g>
<g>
</g>
<g>
</g>
<g>
</g>
<g>
</g>
<g>
</g>
<g>
</g>
<g>
</g>
<g>
</g>
</svg>
