<?xml version="1.0" encoding="utf-8"?>
<!-- Generator: Adobe Illustrator 24.3.0, SVG Export Plug-In . SVG Version: 6.00 Build 0)  -->
<svg version="1.1" id="Layer_1" xmlns="http://www.w3.org/2000/svg" xmlns:xlink="http://www.w3.org/1999/xlink" x="0px" y="0px"
	 viewBox="0 0 100 100" enable-background="new 0 0 100 100" xml:space="preserve">
<g>
	<g>
		<path fill="#3B96D2" d="M5.95,41.049c0,0,25.612-8.652,40.494,30.457c0,0,13.844,4.499,21.458,0c7.614-4.499,23.535,2,23.535,2
			S68.305,22.098,22.564,29.627C22.564,29.627,7.681,33.78,5.95,41.049z"/>
		<g>
			<g>
				<path fill="#A7B4DC" d="M25.372,36.511c0.176-0.145,0.357-0.281,0.548-0.406c0.094-0.061,0.007-0.009-0.012,0.002
					c0.039-0.023,0.079-0.044,0.119-0.063c0.09-0.044,0.18-0.085,0.272-0.124c-0.18,0.077-0.001,0.008,0.087-0.019
					c0.192-0.059-0.017-0.006,0.027-0.007c0.035-0.001,0.255-0.017,0.122-0.015c-0.127,0.002,0.144,0.016,0.184,0.019
					c0.042,0.004-0.116-0.041,0.044,0.01c0.064,0.021,0.129,0.039,0.194,0.06c0.038,0.012,0.239,0.102,0.1,0.036
					c0.074,0.035,0.145,0.074,0.216,0.115c0.254,0.147,0.546,0.368,0.731,0.531c1.018,0.895,1.887,2.149,3.094,2.895
					c0.764,0.472,1.655,0.689,2.55,0.574c0.399-0.051,1.016-0.271,1.074-0.744c0.057-0.46-0.525-0.614-0.876-0.569
					c-0.09,0.012-0.179,0.019-0.27,0.024c-0.049,0.003,0.129,0.018-0.051-0.007c-0.06-0.008-0.269-0.038-0.103-0.004
					c-0.094-0.019-0.187-0.045-0.279-0.075c-0.226-0.074-0.124-0.03-0.317-0.132c-0.154-0.082-0.302-0.175-0.445-0.275
					c-0.568-0.398-1.029-0.901-1.535-1.436c-0.996-1.054-2.114-2.279-3.672-2.336c-1.139-0.042-2.194,0.441-3.06,1.156
					c-0.29,0.239-0.531,0.661-0.123,0.927C24.367,36.89,25.038,36.786,25.372,36.511L25.372,36.511z"/>
			</g>
		</g>
		<g>
			<g>
				<path fill="#A7B4DC" d="M66.696,55.263c0.268-0.141,0.541-0.276,0.825-0.38c0.025-0.009,0.074-0.028,0.207-0.062
					c0.065-0.017,0.13-0.034,0.195-0.05c0.182-0.045-0.038,0.001,0.068-0.014c0.105-0.014,0.21-0.026,0.316-0.032
					c0.188-0.011,0.052,0,0.013-0.001c0.056,0.001,0.112,0.004,0.168,0.009c0.055,0.004,0.109,0.01,0.163,0.018
					c-0.015-0.002-0.119-0.024-0.021-0.005c0.116,0.023,0.23,0.056,0.343,0.093c0.198,0.065,0.609,0.306,0.826,0.485
					c0.334,0.277,0.621,0.619,0.885,0.962c1.144,1.492,1.874,3.314,3.241,4.633c0.817,0.789,1.8,1.287,2.942,1.375
					c0.431,0.033,1.058-0.143,1.265-0.564c0.206-0.417-0.18-0.677-0.561-0.706c-0.71-0.055-1.446-0.464-2.051-1.1
					c-0.679-0.714-1.201-1.563-1.714-2.398c-0.953-1.551-2.003-3.467-3.914-3.946c-1.37-0.343-2.792,0.053-4.011,0.694
					c-0.311,0.164-0.758,0.513-0.482,0.899C65.652,55.529,66.375,55.432,66.696,55.263L66.696,55.263z"/>
			</g>
		</g>
		<g>
			<g>
				<path fill="#A7B4DC" d="M41.875,36.498c0.178-0.147,0.361-0.281,0.553-0.41c0.04-0.027,0.081-0.052,0.123-0.076
					c-0.016,0.009-0.109,0.058-0.014,0.01c0.09-0.046,0.182-0.085,0.274-0.125c-0.178,0.078,0.003,0.005,0.09-0.021
					c0.191-0.058-0.014-0.007,0.03-0.007c0.034,0,0.255-0.014,0.125-0.014c-0.125,0,0.148,0.016,0.186,0.02
					c0.04,0.004-0.108-0.038,0.047,0.014c0.064,0.022,0.131,0.038,0.195,0.06c0.16,0.053-0.01-0.014,0.104,0.042
					c0.074,0.036,0.146,0.075,0.217,0.116c0.255,0.147,0.531,0.357,0.701,0.507c1.074,0.952,1.92,2.182,3.157,2.946
					c0.768,0.474,1.665,0.681,2.562,0.566c0.388-0.05,1.018-0.263,1.079-0.726c0.06-0.455-0.533-0.581-0.867-0.538
					c-0.041,0.005-0.302,0.028-0.187,0.023c0.113-0.004-0.104-0.005-0.14-0.008c-0.06-0.005-0.267-0.043-0.107-0.009
					c-0.095-0.021-0.189-0.046-0.281-0.076c-0.22-0.072-0.134-0.04-0.322-0.139c-0.156-0.082-0.305-0.176-0.449-0.277
					c-0.556-0.39-1.054-0.93-1.55-1.455c-1.002-1.06-2.126-2.285-3.694-2.336c-1.143-0.037-2.209,0.447-3.078,1.164
					c-0.286,0.236-0.536,0.625-0.132,0.892C40.86,36.882,41.554,36.763,41.875,36.498L41.875,36.498z"/>
			</g>
		</g>
		<g>
			<g>
				<path fill="#A7B4DC" d="M42.278,52.5c0.474-0.123,0.911-0.163,1.351-0.065c0.489,0.109,0.916,0.342,1.316,0.659
					c0.902,0.715,1.541,1.763,2.101,2.75c1.302,2.296,2.235,4.934,4.091,6.867c1.029,1.072,2.294,1.755,3.777,1.929
					c0.425,0.05,1.063-0.154,1.265-0.564c0.211-0.428-0.185-0.662-0.561-0.706c-2.561-0.3-4.024-3.033-5.092-5.074
					c-1.155-2.207-2.162-4.953-4.308-6.41c-1.263-0.858-2.81-0.927-4.253-0.554c-0.338,0.087-0.927,0.405-0.809,0.843
					C41.274,52.616,41.951,52.584,42.278,52.5L42.278,52.5z"/>
			</g>
		</g>
	</g>
	<path fill="#59402D" d="M5.95,41.049c0,0,24.747-9.43,40.494,30.457c0,0-5.712,1.763-8.249,1.097
		C35.657,71.936,25.16,44.94,4.337,46.441C4.337,46.441,2.318,44.08,5.95,41.049z"/>
	<path fill="#6A4B35" d="M21.756,29.627c0,0,44.359-8.312,68.874,43.878c0,0,5.593,0.37,5.593-2.791
		c0-3.162-7.756-41.002-62.758-44.232C22.947,26.44,21.506,30.103,21.756,29.627z"/>
</g>
</svg>
