<?xml version="1.0" encoding="iso-8859-1"?>
<!-- Generator: Adobe Illustrator 19.0.0, SVG Export Plug-In . SVG Version: 6.00 Build 0)  -->
<svg xmlns="http://www.w3.org/2000/svg" xmlns:xlink="http://www.w3.org/1999/xlink" version="1.1" id="Layer_1" x="0px" y="0px" viewBox="0 0 512 512" style="enable-background:new 0 0 512 512;" xml:space="preserve">
<path style="fill:#85C8EB;" d="M125.507,264.843c-7.189,60.663-30.248,81.821-57.579,81.821c-25.712,0-47.638-18.724-56.133-71.44  V502.09h492.181V264.843H125.507z"/>
<path style="fill:#FFA233;" d="M261.515,143.472c8.038,8.038,19.143,13.01,31.408,13.01c24.53,0,44.418-19.886,44.418-44.416  c0-24.532-19.888-44.417-44.418-44.417c-24.532,0-44.416,19.885-44.416,44.417C248.507,124.33,253.478,135.434,261.515,143.472"/>
<path style="fill:#B8E5F4;" d="M474.56,146.066h-78.883c-9.287,0-16.817,7.528-16.817,16.818c0,3.119,0.863,6.029,2.343,8.533  h-35.033c-9.289,0-16.819,7.529-16.819,16.818s7.529,16.818,16.819,16.818h78.883c9.289,0,16.817-7.529,16.817-16.818  c0-3.119-0.863-6.029-2.342-8.533h35.033c9.292,0,16.819-7.53,16.819-16.818C491.379,153.594,483.852,146.066,474.56,146.066z"/>
<path style="fill:#36CC6B;" d="M204.502,502.091c127.507-139.256,299.474-130.853,299.474-130.853v130.853H204.502z"/>
<g style="opacity:0.1;">
	<path style="fill:#231F20;" d="M503.975,372.102v-0.866c0,0-171.967-8.403-299.474,130.853h28.889   C329.005,397.665,449.621,376.272,503.975,372.102z"/>
</g>
<path style="fill:#2DA555;" d="M98.274,335.018c-8.9,8.167-19.272,11.647-30.345,11.647c-13.832,0-26.569-5.424-36.711-18.639  c-12.423-0.425-19.422-0.087-19.422-0.087v174.152h192.707c34.307-37.47,71.836-64.245,108.364-83.373  C234.929,367.129,155.832,344.697,98.274,335.018z"/>
<g style="opacity:0.1;">
	<path style="fill:#231F20;" d="M31.217,328.025c-12.423-0.425-19.422-0.087-19.422-0.087v174.152h25.153V334.416   C34.96,332.527,33.046,330.407,31.217,328.025z"/>
</g>
<path style="fill:#B0E046;" d="M127.831,221.152c0,94.526-26.822,125.512-59.903,125.512c-33.083,0-59.903-30.986-59.903-125.512  c0-94.521,26.82-171.15,59.903-171.15C101.008,50.003,127.831,126.632,127.831,221.152z"/>
<g style="opacity:0.1;">
	<path style="fill:#231F20;" d="M33.279,221.152c0-82.144,20.258-150.762,47.276-167.328c-4.071-2.496-8.294-3.822-12.627-3.822   c-33.083,0-59.903,76.628-59.903,171.15c0,94.526,26.82,125.512,59.903,125.512c4.332,0,8.555-0.537,12.627-1.673   C53.535,337.454,33.279,303.3,33.279,221.152z"/>
</g>
<g>
	<path style="fill:#231F20;" d="M292.923,164.507c-14.007,0-27.176-5.456-37.082-15.359c-9.905-9.907-15.359-23.075-15.359-37.08   c0-28.916,23.524-52.442,52.441-52.442s52.443,23.525,52.443,52.442S321.839,164.507,292.923,164.507z M292.923,75.674   c-20.066,0-36.391,16.325-36.391,36.393c0,9.72,3.785,18.858,10.659,25.733c6.873,6.873,16.012,10.659,25.732,10.659   c20.067,0,36.394-16.325,36.394-36.391C329.315,91.999,312.989,75.674,292.923,75.674z"/>
	<path style="fill:#231F20;" d="M395.078,120.091h-28.867c-4.433,0-8.025-3.592-8.025-8.025s3.592-8.025,8.025-8.025h28.867   c4.433,0,8.025,3.592,8.025,8.025C403.103,116.499,399.511,120.091,395.078,120.091z"/>
	<path style="fill:#231F20;" d="M219.636,120.091h-28.872c-4.433,0-8.025-3.592-8.025-8.025s3.592-8.025,8.025-8.025h28.872   c4.433,0,8.025,3.592,8.025,8.025C227.661,116.499,224.069,120.091,219.636,120.091z"/>
	<path style="fill:#231F20;" d="M344.744,68.269c-2.053,0-4.108-0.783-5.674-2.35c-3.135-3.134-3.135-8.215-0.001-11.349   l20.415-20.416c3.135-3.135,8.216-3.134,11.348-0.001c3.135,3.134,3.135,8.215,0.001,11.349l-20.415,20.416   C348.852,67.485,346.797,68.269,344.744,68.269z"/>
	<path style="fill:#231F20;" d="M220.685,192.328c-2.053,0-4.108-0.783-5.674-2.35c-3.135-3.134-3.135-8.215-0.001-11.348   l20.415-20.417c3.135-3.135,8.216-3.134,11.348-0.001c3.135,3.134,3.135,8.215,0.001,11.348l-20.415,20.417   C224.793,191.545,222.739,192.328,220.685,192.328z"/>
	<path style="fill:#231F20;" d="M292.923,46.803c-4.433,0-8.025-3.592-8.025-8.025V9.909c0-4.432,3.592-8.025,8.025-8.025   c4.433,0,8.025,3.592,8.025,8.025v28.87C300.947,43.211,297.354,46.803,292.923,46.803z"/>
	<path style="fill:#231F20;" d="M292.923,222.248c-4.433,0-8.025-3.592-8.025-8.025v-28.872c0-4.433,3.592-8.025,8.025-8.025   c4.433,0,8.025,3.592,8.025,8.025v28.872C300.947,218.655,297.354,222.248,292.923,222.248z"/>
	<path style="fill:#231F20;" d="M241.1,68.27c-2.054,0-4.108-0.784-5.675-2.351L215.01,45.504   c-3.134-3.134-3.134-8.215,0.001-11.348c3.133-3.134,8.214-3.133,11.348,0.001l20.415,20.416c3.134,3.134,3.134,8.215-0.001,11.348   C245.208,67.486,243.154,68.27,241.1,68.27z"/>
	<path style="fill:#231F20;" d="M425.054,213.075h-78.883c-13.699,0-24.843-11.144-24.843-24.842   c0-13.699,11.145-24.842,24.843-24.842h24.671c-0.003-0.169-0.005-0.338-0.005-0.508c0-13.699,11.144-24.842,24.841-24.842h78.883   c13.699,0,24.843,11.144,24.843,24.842c0,13.699-11.145,24.842-24.843,24.842H449.89c0.003,0.169,0.005,0.338,0.005,0.508   C449.895,201.932,438.751,213.075,425.054,213.075z M346.171,179.44c-4.849,0-8.794,3.944-8.794,8.793   c0,4.848,3.945,8.793,8.794,8.793h78.883c4.848,0,8.792-3.945,8.792-8.793c0-1.576-0.413-3.073-1.226-4.45   c-1.466-2.48-1.489-5.556-0.061-8.059c1.427-2.503,4.087-4.048,6.97-4.048h35.033c4.849,0,8.794-3.944,8.794-8.793   c0-4.848-3.945-8.793-8.794-8.793h-78.883c-4.848,0-8.792,3.945-8.792,8.793c0,1.576,0.413,3.073,1.227,4.45   c1.466,2.48,1.489,5.556,0.061,8.059c-1.427,2.503-4.087,4.048-6.97,4.048H346.171z"/>
	<path style="fill:#231F20;" d="M456.908,310.652H229.331c-4.433,0-8.025-3.592-8.025-8.025c0-4.432,3.592-8.025,8.025-8.025   h227.577c4.433,0,8.025,3.593,8.025,8.025C464.932,307.06,461.341,310.652,456.908,310.652z"/>
	<path style="fill:#231F20;" d="M205.706,310.652h-43.375c-4.433,0-8.025-3.592-8.025-8.025c0-4.432,3.592-8.025,8.025-8.025h43.375   c4.433,0,8.025,3.593,8.025,8.025S210.138,310.652,205.706,310.652z"/>
	<path style="fill:#231F20;" d="M423.206,344.564H319.567c-4.432,0-8.025-3.593-8.025-8.025c0-4.433,3.593-8.025,8.025-8.025   h103.639c4.433,0,8.025,3.592,8.025,8.025C431.231,340.972,427.639,344.564,423.206,344.564z"/>
	<path style="fill:#231F20;" d="M295.315,344.564h-54.318c-4.433,0-8.025-3.593-8.025-8.025c0-4.433,3.592-8.025,8.025-8.025h54.318   c4.433,0,8.025,3.592,8.025,8.025C303.34,340.972,299.747,344.564,295.315,344.564z"/>
	<path style="fill:#231F20;" d="M335.311,378.475h-39.179c-4.433,0-8.025-3.592-8.025-8.025c0-4.433,3.592-8.025,8.025-8.025h39.179   c4.433,0,8.025,3.592,8.025,8.025C343.336,374.882,339.743,378.475,335.311,378.475z"/>
	<path style="fill:#231F20;" d="M503.975,256.819H134.385c0.979-10.995,1.471-22.89,1.471-35.666   c0-46.594-6.392-90.514-17.997-123.671c-12.71-36.31-29.975-55.503-49.932-55.503S30.705,61.171,17.996,97.481   C6.392,130.638,0,174.558,0,221.152c0,20.461,1.265,38.655,3.769,54.514v52.272v174.152c0,4.433,3.592,8.025,8.025,8.025h192.707   h299.474c4.433,0,8.025-3.592,8.025-8.025V371.238V264.844C512,260.411,508.408,256.819,503.975,256.819z M132.54,272.868h363.41   v90.26c-18.466,0.174-62.32,2.596-115.843,19.228c-23.398,7.271-45.689,16.311-66.829,27.06   c-73.038-47.393-146.708-69.509-199.898-79.813c1.372-2.006,2.682-4.121,3.922-6.359c4.263-7.693,7.797-16.842,10.597-27.406   C129.737,288.968,131.302,281.337,132.54,272.868z M33.145,102.783c9.808-28.024,22.812-44.755,34.783-44.755   s24.974,16.731,34.783,44.755c11.024,31.497,17.096,73.535,17.096,118.37c0,48.547-7.385,105.538-40.641,115.846   c-0.076,0.024-0.153,0.044-0.23,0.067c-0.909,0.275-1.84,0.509-2.788,0.714c-0.065,0.014-0.129,0.03-0.195,0.043v-35.588   l20.231-15.246c3.54-2.666,4.247-7.698,1.579-11.238c-2.665-3.539-7.698-4.246-11.238-1.579l-10.572,7.967V247.41   c0-4.433-3.592-8.025-8.025-8.025s-8.025,3.592-8.025,8.025v90.406c-0.102-0.021-0.204-0.041-0.305-0.063   c-0.316-0.07-0.633-0.136-0.945-0.213c-0.324-0.08-0.643-0.172-0.964-0.261c-0.823-0.229-1.633-0.479-2.425-0.763   c-0.077-0.028-0.156-0.05-0.232-0.079c-0.43-0.157-0.853-0.331-1.274-0.504c-0.166-0.068-0.332-0.134-0.496-0.204   c-0.433-0.186-0.86-0.383-1.284-0.585c-0.128-0.061-0.256-0.124-0.384-0.187c-0.46-0.228-0.917-0.462-1.365-0.709   c-0.017-0.01-0.033-0.019-0.05-0.029c-15.892-8.794-24.779-29.803-29.47-54.646c-0.01-0.049-0.018-0.097-0.028-0.147   c-3.471-18.46-4.632-39.029-4.632-58.273C16.049,176.318,22.12,134.28,33.145,102.783z M19.819,335.836   c2.392,0.004,4.9,0.039,7.494,0.103c8.273,9.586,18.275,15.511,29.844,17.737c0.23,0.045,0.459,0.085,0.689,0.125   c0.66,0.118,1.324,0.228,1.993,0.322c0.021,0.003,0.043,0.006,0.063,0.01v85.933H47.668c-4.433,0-8.025,3.592-8.025,8.025   c0,4.433,3.592,8.025,8.025,8.025h80.163c4.433,0,8.025-3.592,8.025-8.025c0-4.433-3.592-8.025-8.025-8.025H75.952v-85.927   c0.27-0.037,0.539-0.08,0.809-0.122c0.101-0.016,0.201-0.03,0.302-0.046c0.631-0.102,1.266-0.217,1.9-0.345   c0.098-0.019,0.197-0.04,0.295-0.059c0.64-0.132,1.282-0.275,1.924-0.432c0.061-0.015,0.121-0.03,0.181-0.045   c6.472-1.609,13.034-4.579,19.255-9.526c50.487,8.845,123.458,28.942,196.469,74.547c-31.219,17.692-59.722,39.336-85.297,64.801   c-0.119,0.119-0.236,0.24-0.356,0.358c-1.534,1.532-3.06,3.077-4.573,4.636c-0.545,0.56-1.084,1.126-1.625,1.689   c-1.097,1.143-2.19,2.292-3.275,3.45c-0.322,0.342-0.649,0.678-0.97,1.022H19.819V335.836z M495.951,494.066H223.354   c1.358-1.347,2.72-2.689,4.097-4.014c0.247-0.239,0.493-0.485,0.741-0.722c1.892-1.813,3.803-3.604,5.729-5.375   c0.496-0.457,0.996-0.901,1.494-1.354c1.41-1.284,2.826-2.559,4.254-3.821c0.702-0.621,1.406-1.233,2.109-1.845   c1.236-1.076,2.478-2.144,3.727-3.205c0.784-0.666,1.567-1.33,2.353-1.986c1.189-0.993,2.387-1.973,3.588-2.951   c0.82-0.668,1.638-1.345,2.46-2.003c1.463-1.173,2.939-2.326,4.419-3.477c1.581-1.228,3.166-2.437,4.753-3.63   c0.621-0.468,1.24-0.937,1.864-1.402c1.426-1.059,2.855-2.104,4.284-3.135c0.363-0.262,0.728-0.523,1.091-0.784   c96.107-68.839,198.134-74.883,225.637-75.182v114.886H495.951z"/>
</g>
<g>
</g>
<g>
</g>
<g>
</g>
<g>
</g>
<g>
</g>
<g>
</g>
<g>
</g>
<g>
</g>
<g>
</g>
<g>
</g>
<g>
</g>
<g>
</g>
<g>
</g>
<g>
</g>
<g>
</g>
</svg>
