<svg id="icon" xmlns="http://www.w3.org/2000/svg" viewBox="0 0 512 512"><rect x="205.477" y="74.494" width="25.429" height="163.19" style="fill:#53737f"/><rect x="328.725" y="178.702" width="25.429" height="168.351" style="fill:#53737f"/><rect x="445.02" y="271.608" width="25.429" height="193.545" style="fill:#53737f"/><path d="M354.154,401.738V347.053H292.586V292.368H231.018l-.113-54.685H169.45V183H23.57V465.153H415.722V401.738Z" style="fill:#ffb14a"/><rect x="77.712" y="74.494" width="30.403" height="108.505" style="fill:#53737f"/><path d="M488.43,270.526H443.812a33.689,33.689,0,0,1-21.839-8.036L213.859,85.342a45.477,45.477,0,0,0-29.48-10.848H23.57V48.3h163.9a63.275,63.275,0,0,1,41.013,15.091L431.906,236.55c11.2,9.849,24.048,7.568,37.633,7.785a18.891,18.891,0,0,1,18.891,18.891Z" style="fill:#ff7b69"/><path d="M469.539,238.515H453.062a26.841,26.841,0,0,1-17.383-6.4L232.255,58.963a69.157,69.157,0,0,0-44.786-16.481H23.57A5.821,5.821,0,0,0,17.75,48.3V74.494a5.82,5.82,0,0,0,5.82,5.82H71.892v96.864H23.57A5.82,5.82,0,0,0,17.75,183V463.7a5.821,5.821,0,0,0,5.82,5.821H415.722a5.821,5.821,0,0,0,5.82-5.821V401.738a5.82,5.82,0,0,0-5.82-5.82H359.973V217.36L418.2,266.923a39.532,39.532,0,0,0,21,9.119V463.7a5.821,5.821,0,0,0,5.82,5.821h25.43a5.821,5.821,0,0,0,5.82-5.821V276.347H488.43a5.821,5.821,0,0,0,5.82-5.821v-7.3A24.739,24.739,0,0,0,469.539,238.515ZM409.9,407.558v50.319H29.391V188.818H163.629v48.866a5.821,5.821,0,0,0,5.821,5.82c12.676,0,43.417,0,55.748,0v48.864a5.82,5.82,0,0,0,5.82,5.82h55.748v48.864a5.82,5.82,0,0,0,5.82,5.82h55.747v48.866a5.82,5.82,0,0,0,5.82,5.82ZM83.533,177.178V80.314H102.3v96.864Zm85.917,0H113.936V80.314h70.443a39.639,39.639,0,0,1,15.277,3.1V231.864H175.27V183A5.82,5.82,0,0,0,169.45,177.178Zm123.136,109.37H236.838V237.684a5.826,5.826,0,0,0-.112-1.113V112.45L322.9,185.806V341.232h-24.5V292.368A5.82,5.82,0,0,0,292.586,286.548Zm41.959,54.684V195.715l13.788,11.736V341.232ZM464.628,457.877H450.839V276.347h13.789Zm17.981-193.171h-38.8a27.9,27.9,0,0,1-18.066-6.647L333.1,179.2a5.8,5.8,0,0,0-1.356-1.155L234.678,95.42c-3.912-3.486-10.356.074-9.522,5.191-.206.49,0,130.652-.071,131.253H211.3V90.8l15.836,13.48c5.957,4.826,13.271-3.736,7.545-8.864-9.908-9.352-23.155-26.746-50.3-26.746H29.391V54.123H187.469a57.5,57.5,0,0,1,37.24,13.7L428.134,240.982c12.533,10.933,26.121,9.134,41.4,9.173A13.251,13.251,0,0,1,482.609,264.706Z" style="fill:#333"/></svg>