<?xml version="1.0" encoding="iso-8859-1"?>
<!-- Generator: Adobe Illustrator 19.0.0, SVG Export Plug-In . SVG Version: 6.00 Build 0)  -->
<svg xmlns="http://www.w3.org/2000/svg" xmlns:xlink="http://www.w3.org/1999/xlink" version="1.1" id="Layer_1" x="0px" y="0px" viewBox="0 0 512 512" style="enable-background:new 0 0 512 512;" xml:space="preserve">
<polyline style="fill:#36CC6B;" points="9.851,349.329 9.851,503.915 503.916,503.915 503.916,349.329 "/>
<path style="fill:#BCAE8A;" d="M320.439,333.869c23.572,0,46.105,0.814,66.81,2.294L310.029,234.32l-21.394-28.763  c-3.543-4.691-9.288-4.691-12.831,0l-108.24,143.3C200.438,339.823,256.629,333.869,320.439,333.869z"/>
<path style="fill:#B2A17D;" d="M229.41,170.72l-33.221-44.668c-5.503-7.284-14.428-7.284-19.928,0L88.983,241.6L8.084,349.329  h42.016H75.97h13.566h77.672l98.625-130.572L229.41,170.72z"/>
<g>
	<path style="fill:#EDE1CA;" d="M185.278,170.965c13.268,0,25.379-4.912,34.645-13.003l-23.733-31.911   c-5.503-7.284-14.428-7.284-19.928,0l-24.708,32.709C160.695,166.378,172.449,170.965,185.278,170.965z"/>
	<path style="fill:#EDE1CA;" d="M281.573,252.415c12.659,0,24.368-4.026,33.954-10.847l-5.497-7.249l-21.394-28.763   c-3.543-4.691-9.288-4.691-12.831,0l-27.552,36.475C257.72,248.575,269.196,252.415,281.573,252.415z"/>
</g>
<path style="fill:#B8E5F4;" d="M27.373,232.885h68.193l32.79-43.411c-4.322-3.718-9.939-5.969-16.089-5.969  c-6.748,0-12.859,2.709-17.317,7.096c-2.598-14.402-15.188-25.329-30.335-25.329c-16.798,0-30.448,13.431-30.821,30.138  c-2.008-0.709-4.168-1.099-6.421-1.099c-10.653,0-19.289,8.636-19.289,19.288C8.084,224.249,16.72,232.885,27.373,232.885z"/>
<path style="fill:#85C8EB;" d="M503.916,367.404c0-18.521-82.145-33.535-183.478-33.535s-183.48,15.015-183.48,33.535  c0,6.865,11.296,13.248,30.663,18.565c-29.876,4.926-49.278,12.877-49.278,21.849c0,14.953,53.87,27.073,120.324,27.073  c66.452,0,120.324-12.121,120.324-27.073c0-2.584-1.613-5.084-4.619-7.451C439.491,397.457,503.916,383.807,503.916,367.404z"/>
<path style="fill:#2DA555;" d="M473.189,252.232c-0.826,0-1.642,0.042-2.45,0.107c-2.929-11.158-13.08-19.39-25.158-19.39  c-12.217,0-22.461,8.424-25.253,19.779c-1.776-0.319-3.604-0.496-5.474-0.496c-0.826,0-1.639,0.042-2.45,0.107  c-2.929-11.158-13.08-19.39-25.156-19.39c-12.217,0-22.461,8.424-25.253,19.779c-1.779-0.319-3.604-0.496-5.474-0.496  c-9.76,0-18.45,4.555-24.078,11.649l54.804,72.281c-0.011-0.001-0.022-0.001-0.029-0.002c68.309,4.881,116.697,17.03,116.697,31.244  V282.96C503.916,265.989,490.161,252.232,473.189,252.232z"/>
<g style="opacity:0.1;">
	<path style="fill:#231F20;" d="M415.579,336.16c0.011,0.001,0.022,0.001,0.029,0.002l-54.802-72.281   c0.004-0.006,0.01-0.012,0.015-0.018l-8.584-11.322c-7.995,1.118-15.004,5.304-19.792,11.339l54.804,72.281   c-0.011-0.001-0.022-0.001-0.029-0.002c68.309,4.881,116.697,17.03,116.697,31.244v-17.917   C483.133,343.49,452.225,338.78,415.579,336.16z"/>
</g>
<path style="fill:#FFA233;" d="M341.648,106.738c5.937,5.937,14.139,9.609,23.197,9.609c18.121,0,32.809-14.688,32.809-32.807  c0-18.12-14.688-32.808-32.809-32.808c-18.118,0-32.807,14.687-32.807,32.808C332.04,92.599,335.711,100.801,341.648,106.738"/>
<circle style="fill:#B8E5F4;" cx="101.451" cy="120.584" r="16.893"/>
<g>
	<path style="fill:#231F20;" d="M337.485,376.566H237.335c-4.466,0-8.084-3.618-8.084-8.084c0-4.466,3.618-8.084,8.084-8.084   h100.149c4.466,0,8.084,3.618,8.084,8.084C345.569,372.948,341.95,376.566,337.485,376.566z"/>
	<path style="fill:#231F20;" d="M260.727,404.696h-46.783c-4.466,0-8.084-3.618-8.084-8.084s3.618-8.084,8.084-8.084h46.783   c4.466,0,8.084,3.618,8.084,8.084S265.192,404.696,260.727,404.696z"/>
	<path style="fill:#231F20;" d="M387.249,376.566h-22.402c-4.466,0-8.084-3.618-8.084-8.084c0-4.466,3.618-8.084,8.084-8.084h22.402   c4.466,0,8.084,3.618,8.084,8.084C395.333,372.948,391.714,376.566,387.249,376.566z"/>
	<path style="fill:#231F20;" d="M476.362,244.276c-5.569-11.682-17.462-19.412-30.78-19.412c-12.204,0-23.131,6.415-29.172,16.415   c-6.06-9.99-17.017-16.415-29.16-16.415c-13.335,0-25.143,7.656-30.722,19.284c-0.001,0-0.003,0-0.004,0   c-8.461,0-16.498,2.717-23.107,7.636l-11.431-15.075c-0.005-0.008-0.011-0.016-0.016-0.024l-5.453-7.188l-21.43-28.811   c-3.23-4.277-7.92-6.729-12.867-6.729c-0.619,0-1.233,0.039-1.841,0.114c-4.256,0.528-8.198,2.874-11.026,6.616l-3.532,4.677   l-29.925-39.465l-33.257-44.716c-3.83-5.069-9.198-8.142-14.909-8.606c-0.112-0.009-0.223-0.025-0.336-0.031   c-0.181-0.012-0.363-0.011-0.545-0.017c-0.208-0.008-0.416-0.019-0.625-0.019l0,0l0,0c-0.103,0-0.206,0.008-0.308,0.01   c-1.852,0.031-3.678,0.331-5.437,0.893c-0.239,0.077-0.475,0.165-0.711,0.251c-0.13,0.047-0.263,0.088-0.392,0.139   c-3.649,1.411-6.962,3.939-9.563,7.384l-24.707,32.709c-0.005,0.006-0.009,0.013-0.014,0.019L126.41,178.64   c-4.385-2.1-9.216-3.216-14.144-3.216c-4.582,0-9.028,0.939-13.114,2.723c-6.543-12.606-19.691-20.956-34.539-20.956   c-17.883,0-33.201,12.395-37.626,29.042C12.07,186.433,0,198.632,0,213.596c0,15.093,12.279,27.372,27.373,27.372h51.975   L1.62,344.474c-1.84,2.449-2.136,5.728-0.767,8.468c0.253,0.507,0.57,0.966,0.914,1.399v149.574c0,4.466,3.618,8.084,8.084,8.084   h494.065c4.466,0,8.084-3.618,8.084-8.084V367.404v-18.076V282.96C512,262.626,496.284,245.894,476.362,244.276z M349.372,406.718   c0.595,0.469,0.983,0.848,1.231,1.126c-1.957,2.283-10.296,7.538-32.796,12.123c-21.641,4.411-49.746,6.84-79.139,6.84   c-29.394,0-57.499-2.43-79.14-6.84c-22.577-4.602-30.895-9.876-32.814-12.147c2.219-2.593,12.91-9.042,42.224-13.876   c3.748-0.618,6.559-3.762,6.758-7.555c0.198-3.793-2.271-7.212-5.934-8.218c-18.201-4.996-23.214-9.357-24.444-10.798   c1.58-1.957,7.503-5.795,21.744-9.962h0.148c1.533,0,3.008-0.441,4.276-1.232c6.858-1.818,15.333-3.669,25.748-5.43   c18.833-3.184,40.878-5.564,64.709-7.041c0.133-0.009,0.265-0.016,0.398-0.025c5.063-0.312,10.208-0.581,15.417-0.81   c0.395-0.017,0.789-0.035,1.185-0.051c5.004-0.213,10.068-0.388,15.18-0.523c0.55-0.014,1.099-0.028,1.65-0.042   c2.487-0.061,4.981-0.118,7.488-0.16c0.036-0.001,0.071-0.001,0.107-0.002c2.515-0.043,5.043-0.073,7.577-0.097   c0.622-0.005,1.244-0.011,1.867-0.016c2.537-0.019,5.079-0.032,7.63-0.032c20.017,0,39.624,0.595,58.16,1.736   c2.704,0.167,5.392,0.345,8.059,0.536c0.008,0,0.014,0.001,0.022,0.002c0.001,0,0.002,0,0.003,0   c0.337,0.024,0.667,0.051,1.004,0.075c1.914,0.139,3.815,0.285,5.702,0.435c0.897,0.072,1.785,0.147,2.674,0.221   c1.449,0.121,2.89,0.246,4.321,0.374c0.841,0.075,1.685,0.15,2.519,0.227c2.143,0.199,4.272,0.404,6.371,0.62   c0.33,0.033,0.651,0.07,0.979,0.105c1.898,0.197,3.778,0.401,5.638,0.612c0.607,0.068,1.207,0.138,1.809,0.208   c1.761,0.205,3.507,0.414,5.233,0.629c0.383,0.047,0.771,0.095,1.152,0.143c2.199,0.28,4.371,0.567,6.506,0.866   c0.01,0.001,0.021,0.003,0.03,0.004c2.096,0.293,4.155,0.597,6.188,0.908c0.279,0.043,0.558,0.085,0.835,0.128   c2.032,0.315,4.037,0.636,6,0.968c0.805,0.136,1.583,0.274,2.366,0.411c0.522,0.092,1.043,0.183,1.559,0.276   c0.743,0.134,1.476,0.267,2.198,0.402c0.55,0.102,1.091,0.206,1.633,0.309c1.259,0.24,2.483,0.482,3.677,0.724   c0.462,0.094,0.929,0.186,1.386,0.281c0.739,0.154,1.457,0.307,2.172,0.461c0.366,0.079,0.732,0.158,1.095,0.238   c14.725,3.239,23.922,6.539,29.368,9.205c4.064,2.02,5.771,3.576,6.435,4.346c-1.595,1.849-9.161,8.237-40.797,14.608   c-26.371,5.31-62.11,8.958-100.638,10.275c-3.392,0.116-6.351,2.339-7.407,5.564C345.633,401.077,346.705,404.618,349.372,406.718z    M250.307,252.727c9.592,5.102,20.263,7.772,31.267,7.772c11.287,0,22.199-2.804,31.971-8.163l56.623,74.679   c-7.933-0.402-16.039-0.706-24.27-0.912c-0.189-0.004-0.376-0.01-0.565-0.014c-3.966-0.097-7.959-0.171-11.979-0.222   c-0.211-0.003-0.423-0.004-0.633-0.008c-4.072-0.049-8.166-0.075-12.284-0.075c-1.578,0-3.154,0.004-4.725,0.011   c-0.037,0-0.073,0.001-0.111,0.001c-47.674,0.223-92.384,3.733-126.357,9.944c-0.645,0.117-1.277,0.237-1.909,0.356l0.495-0.654   L250.307,252.727z M360.567,260.686c4.199,0.756,8.261-1.884,9.28-6.028c1.973-8.023,9.129-13.626,17.403-13.626   c8.143,0,15.273,5.493,17.337,13.357c0.993,3.787,4.561,6.311,8.457,6.007c0.69-0.055,1.282-0.081,1.813-0.081   c1.325,0,2.684,0.123,4.043,0.368c4.193,0.763,8.262-1.882,9.281-6.027c1.973-8.023,9.129-13.626,17.403-13.626   c8.145,0,15.275,5.493,17.339,13.357c0.993,3.787,4.569,6.329,8.459,6.006c0.687-0.054,1.278-0.08,1.811-0.08   c12.485,0,22.642,10.158,22.642,22.643v65.417c-4.041-1.978-8.881-3.835-14.506-5.593c-0.258-0.081-0.512-0.162-0.774-0.243   c-0.423-0.129-0.848-0.26-1.281-0.388c-0.767-0.23-1.554-0.459-2.358-0.687c-0.207-0.058-0.415-0.117-0.624-0.176   c-0.985-0.276-1.995-0.552-3.034-0.826c-0.003-0.001-0.006-0.002-0.011-0.003c-0.005-0.001-0.011-0.003-0.016-0.004   c-2.509-0.661-5.178-1.314-8.016-1.957c-0.057-0.013-0.115-0.026-0.172-0.039c-1.287-0.291-2.605-0.581-3.962-0.868   c-0.259-0.055-0.523-0.109-0.783-0.163c-1.01-0.211-2.037-0.42-3.086-0.63c-0.672-0.134-1.352-0.266-2.033-0.398   c-0.645-0.124-1.296-0.248-1.954-0.371c-1.462-0.274-2.949-0.543-4.457-0.807c-0.185-0.032-0.369-0.066-0.555-0.098   c-0.954-0.166-1.919-0.329-2.891-0.492c-0.366-0.061-0.736-0.122-1.106-0.182c-1.6-0.262-3.222-0.52-4.868-0.772   c-0.515-0.079-1.025-0.158-1.544-0.237c-0.747-0.112-1.503-0.221-2.258-0.331c-0.875-0.127-1.756-0.252-2.641-0.376   c-0.565-0.079-1.125-0.158-1.696-0.236c-1.554-0.212-3.124-0.42-4.708-0.623c-0.129-0.016-0.26-0.032-0.39-0.049   c-10.893-1.388-22.492-2.551-34.633-3.473L343.18,264.66C348.05,261.097,354.189,259.538,360.567,260.686z M303.588,239.205   l0.039,0.051l0.008,0.01c-6.837,3.332-14.333,5.066-22.061,5.066c-7.457,0-14.711-1.616-21.358-4.721l22.006-29.133   L303.588,239.205z M182.713,130.924c1.096-1.452,2.343-2.251,3.512-2.251c0.147,0,0.293,0.013,0.442,0.037   c1.037,0.172,2.108,0.938,3.036,2.167l18.901,25.414c-6.979,4.286-15.044,6.591-23.326,6.591c-7.829,0-15.501-2.073-22.224-5.932   L182.713,130.924z M16.168,213.596c0-6.177,5.026-11.204,11.205-11.204c1.276,0,2.531,0.215,3.728,0.638   c2.445,0.864,5.156,0.502,7.288-0.971c2.133-1.473,3.43-3.879,3.487-6.471c0.274-12.261,10.474-22.235,22.739-22.235   c11.015,0,20.426,7.856,22.379,18.68c0.531,2.949,2.653,5.363,5.508,6.269c2.857,0.908,5.981,0.16,8.117-1.942   c3.129-3.078,7.266-4.774,11.649-4.774c1.355,0,2.694,0.166,3.991,0.488l-24.718,32.724H27.373   C21.195,224.801,16.168,219.774,16.168,213.596z M17.935,495.831V357.413h32.167c4.466,0,8.084-3.618,8.084-8.084   s-3.618-8.084-8.084-8.084H24.266l71.168-94.772l6.582-8.714l0.001-0.001l3.034-4.017l48.207-63.821   c9.566,5.924,20.671,9.131,32.02,9.131c11.771,0,23.215-3.426,32.997-9.756l4.693,6.311l32.727,43.162l-13.893,18.393   c-0.002,0.002-0.003,0.005-0.005,0.008L190.1,305.61l-26.917,35.636H75.97c-4.466,0-8.084,3.618-8.084,8.084   c0,4.466,3.618,8.084,8.084,8.084h56.569c-2.961,3.608-3.666,7.028-3.666,9.992c0,6.245,3.664,11.624,11.293,16.353   c-20.075,5.97-29.907,13.918-29.907,24.061c0,11.898,13.591,20.74,41.552,27.031c23.29,5.24,54.137,8.126,86.857,8.126   c32.718,0,63.566-2.887,86.857-8.126c27.867-6.27,41.46-15.073,41.552-26.912c37.089-1.767,70.716-5.649,95.708-11.094   c14.147-3.082,25.097-6.528,33.047-10.437v109.423H17.935z"/>
	<path style="fill:#231F20;" d="M364.847,124.431c-10.922,0-21.19-4.253-28.915-11.976c-7.722-7.723-11.975-17.991-11.975-28.915   c0-22.547,18.344-40.892,40.891-40.892c22.548,0,40.893,18.344,40.893,40.892C405.739,106.087,387.395,124.431,364.847,124.431z    M364.847,58.817c-13.631,0-24.723,11.09-24.723,24.724c0,6.603,2.572,12.812,7.241,17.481s10.878,7.241,17.481,7.241   c13.632,0,24.725-11.09,24.725-24.723C389.571,69.907,378.479,58.817,364.847,58.817z"/>
	<path style="fill:#231F20;" d="M101.45,145.566c-13.772,0-24.977-11.205-24.977-24.977c0-13.772,11.204-24.977,24.977-24.977   c13.772,0,24.977,11.205,24.977,24.977S115.224,145.566,101.45,145.566z M101.45,111.78c-4.857,0-8.809,3.952-8.809,8.809   c0,4.857,3.952,8.809,8.809,8.809c4.857,0,8.809-3.952,8.809-8.809C110.259,115.732,106.307,111.78,101.45,111.78z"/>
	<path style="fill:#231F20;" d="M440.304,91.624H418.98c-4.466,0-8.084-3.62-8.084-8.084s3.618-8.084,8.084-8.084h21.324   c4.466,0,8.084,3.62,8.084,8.084S444.768,91.624,440.304,91.624z"/>
	<path style="fill:#231F20;" d="M310.716,91.624h-21.324c-4.466,0-8.084-3.62-8.084-8.084s3.618-8.084,8.084-8.084h21.324   c4.466,0,8.084,3.62,8.084,8.084S315.182,91.624,310.716,91.624z"/>
	<path style="fill:#231F20;" d="M403.124,53.347c-2.068,0-4.138-0.789-5.717-2.368c-3.157-3.157-3.157-8.276,0-11.432l15.078-15.078   c3.158-3.157,8.276-3.157,11.433,0c3.157,3.157,3.157,8.276,0,11.432L408.84,50.978C407.262,52.558,405.192,53.347,403.124,53.347z   "/>
	<path style="fill:#231F20;" d="M311.493,144.98c-2.069,0-4.138-0.789-5.716-2.367c-3.158-3.157-3.158-8.276-0.001-11.433   l15.078-15.079c3.158-3.157,8.277-3.157,11.432-0.001c3.158,3.157,3.158,8.276,0.001,11.433l-15.078,15.079   C315.631,144.189,313.562,144.98,311.493,144.98z"/>
	<path style="fill:#231F20;" d="M364.847,37.493L364.847,37.493c-4.466-0.001-8.084-3.62-8.084-8.085l0.002-21.324   c0-4.465,3.62-8.083,8.084-8.083c0,0,0,0,0.001,0c4.465,0,8.083,3.62,8.083,8.085l-0.002,21.324   C372.931,33.873,369.31,37.493,364.847,37.493z"/>
	<path style="fill:#231F20;" d="M364.847,167.081c-4.466,0-8.084-3.62-8.084-8.084v-21.325c0-4.465,3.618-8.084,8.084-8.084   s8.084,3.62,8.084,8.084v21.325C372.931,163.461,369.311,167.081,364.847,167.081z"/>
	<path style="fill:#231F20;" d="M326.571,53.348c-2.07,0-4.138-0.789-5.717-2.368l-15.078-15.079   c-3.157-3.157-3.157-8.276,0.001-11.432c3.157-3.157,8.276-3.157,11.432,0l15.078,15.079c3.157,3.157,3.157,8.276-0.001,11.432   C330.709,52.559,328.639,53.348,326.571,53.348z"/>
	<path style="fill:#231F20;" d="M418.203,144.981c-2.07,0-4.138-0.789-5.717-2.368l-15.078-15.079   c-3.157-3.157-3.157-8.276,0.001-11.433c3.157-3.157,8.276-3.155,11.432,0.001l15.078,15.079c3.157,3.157,3.157,8.276-0.001,11.433   C422.341,144.191,420.271,144.981,418.203,144.981z"/>
</g>
<g style="opacity:0.1;">
	<rect x="9.851" y="349.324" style="fill:#231F20;" width="25.522" height="154.581"/>
</g>
<g style="opacity:0.1;">
	<path style="fill:#231F20;" d="M200.207,131.453l-4.017-5.401c-5.503-7.284-14.428-7.284-19.928,0L88.983,241.6L8.084,349.329   h28.025L117.009,241.6L200.207,131.453z"/>
</g>
<g style="opacity:0.1;">
	<path style="fill:#231F20;" d="M295.284,214.494l-6.647-8.937c-3.543-4.691-9.288-4.691-12.831,0l-108.241,143.3   c8.812-2.421,19.312-4.619,31.171-6.542L295.284,214.494z"/>
</g>
<g>
</g>
<g>
</g>
<g>
</g>
<g>
</g>
<g>
</g>
<g>
</g>
<g>
</g>
<g>
</g>
<g>
</g>
<g>
</g>
<g>
</g>
<g>
</g>
<g>
</g>
<g>
</g>
<g>
</g>
</svg>
