<?xml version="1.0" encoding="iso-8859-1"?>
<!-- Generator: Adobe Illustrator 19.0.0, SVG Export Plug-In . SVG Version: 6.00 Build 0)  -->
<svg xmlns="http://www.w3.org/2000/svg" xmlns:xlink="http://www.w3.org/1999/xlink" version="1.1" id="Layer_1" x="0px" y="0px" viewBox="0 0 512 512" style="enable-background:new 0 0 512 512;" xml:space="preserve">
<rect x="9.262" y="365.051" style="fill:#85C8EB;" width="493.482" height="138.865"/>
<g style="opacity:0.1;">
	<rect x="9.262" y="365.051" style="fill:#231F20;" width="25.352" height="138.865"/>
</g>
<g>
	<rect x="9.262" y="312.04" style="fill:#B7B3AC;" width="41.57" height="53.011"/>
	<rect x="461.168" y="312.04" style="fill:#B7B3AC;" width="41.57" height="53.011"/>
</g>
<g>
	<rect x="16.828" y="92.85" style="fill:#F25D4E;" width="26.438" height="219.19"/>
	<rect x="468.734" y="92.85" style="fill:#F25D4E;" width="26.438" height="219.19"/>
	<rect x="43.268" y="249.845" style="fill:#F25D4E;" width="425.467" height="26.438"/>
</g>
<g>
	<path style="fill:#231F20;" d="M368.033,410.983c0,4.466,3.618,8.084,8.084,8.084h89.551c4.466,0,8.084-3.618,8.084-8.084   s-3.618-8.084-8.084-8.084h-89.552C371.652,402.899,368.033,406.518,368.033,410.983z"/>
	<path style="fill:#231F20;" d="M355.816,410.983c0-4.466-3.618-8.084-8.084-8.084H46.927c-4.466,0-8.084,3.618-8.084,8.084   s3.618,8.084,8.084,8.084h300.804C352.197,419.067,355.816,415.449,355.816,410.983z"/>
	<path style="fill:#231F20;" d="M465.669,448.829H131.435c-4.466,0-8.084,3.618-8.084,8.084c0,4.466,3.618,8.084,8.084,8.084   h334.234c4.466,0,8.084-3.618,8.084-8.084C473.753,452.447,470.133,448.829,465.669,448.829z"/>
	<path style="fill:#231F20;" d="M503.258,303.985V92.855c0-4.466-3.618-8.084-8.084-8.084h-5.135V52.849   c0-4.466-3.618-8.084-8.084-8.084c-4.466,0-8.084,3.618-8.084,8.084V84.77h-5.135c-4.466,0-8.084,3.618-8.084,8.084v34.98   c-40.434,41.098-118.401,66.531-204.65,66.531c-86.25,0-164.218-25.433-204.65-66.53v-34.98c0-4.466-3.618-8.084-8.084-8.084   h-5.135V52.849c0-4.466-3.618-8.084-8.084-8.084s-8.084,3.618-8.084,8.084V84.77h-5.135c-4.466,0-8.084,3.618-8.084,8.084v211.13   c-4.222,0.268-7.567,3.767-7.567,8.058v53.012v138.861c0,4.466,3.618,8.084,8.084,8.084h493.477c4.466,0,8.084-3.618,8.084-8.084   V365.055v-53.012C510.824,307.753,507.48,304.253,503.258,303.985z M58.917,356.971v-41.883l26.962-30.722h340.244l26.962,30.722   v41.884H58.917V356.971z M24.912,100.939h10.269v148.905v26.438v27.678H24.912V100.939z M391.727,241.759v-53.865   c9.218-3.389,18.031-7.125,26.379-11.191v65.055H391.727z M375.559,241.759H349.18V200.38c9.048-2.054,17.859-4.398,26.379-7.03   V241.759z M333.011,241.759h-26.379v-34.128c8.958-1.041,17.756-2.367,26.379-3.942V241.759z M290.465,241.759h-26.379v-31.303   c8.89-0.161,17.694-0.583,26.379-1.26V241.759z M247.917,241.759H221.54v-32.562c8.685,0.677,17.487,1.099,26.377,1.26V241.759z    M205.371,241.759h-26.379V203.69c8.623,1.575,17.421,2.902,26.379,3.942L205.371,241.759L205.371,241.759z M162.825,241.759   h-26.379v-48.408c8.521,2.632,17.33,4.976,26.379,7.029V241.759z M120.277,241.759H93.898v-65.054   c8.348,4.065,17.161,7.802,26.379,11.19V241.759z M460.651,257.927v10.269h-409.3v-10.269H460.651z M487.09,100.939v203.02h-10.269   v-27.678v-26.438V100.939H487.09z M460.651,299.198l-13.017-14.832h13.017V299.198z M51.351,299.198v-14.832h13.017L51.351,299.198   z M17.347,320.127h25.402v36.844H17.347V320.127z M469.254,320.127h25.402v36.844h-25.402V320.127z M460.651,149.749v92.011   h-26.377v-73.688C443.908,162.44,452.741,156.32,460.651,149.749z M77.729,168.072v73.687H51.351v-92.011   C59.262,156.32,68.095,162.441,77.729,168.072z M494.656,495.832H17.347v-30.834h84.986c4.466,0,8.084-3.618,8.084-8.084   c0-4.466-3.618-8.084-8.084-8.084H17.347v-75.69h33.486H461.17h33.486V495.832z"/>
</g>
<path style="fill:#B8E5F4;" d="M402.696,28.838c-7.68,0-14.638,3.082-19.711,8.076c-2.958-16.392-17.286-28.829-34.529-28.829  c-19.118,0-34.656,15.287-35.08,34.303c-2.286-0.806-4.745-1.25-7.309-1.25c-12.124,0-21.953,9.829-21.953,21.953  s9.829,21.953,21.953,21.953h96.629c15.522,0,28.103-12.583,28.103-28.103C430.799,41.419,418.218,28.838,402.696,28.838z"/>
<g>
	<path style="fill:#231F20;" d="M402.696,93.128h-96.629c-16.563,0-30.038-13.475-30.038-30.038   c0-16.706,13.703-30.277,30.469-30.034C311.111,14.169,328.317,0,348.455,0c16.843,0,31.714,9.684,38.798,24.198   c4.771-2.255,10.02-3.444,15.442-3.444c19.954,0,36.187,16.234,36.187,36.187S422.65,93.128,402.696,93.128z M306.066,49.221   c-7.648,0-13.869,6.222-13.869,13.869s6.222,13.869,13.869,13.869h96.629c11.039,0,20.019-8.98,20.019-20.019   s-8.98-20.019-20.019-20.019c-5.285,0-10.271,2.044-14.041,5.754c-2.134,2.102-5.26,2.85-8.117,1.943   c-2.856-0.908-4.977-3.32-5.509-6.269c-2.32-12.854-13.495-22.182-26.573-22.182c-14.563,0-26.674,11.842-26.998,26.399   c-0.058,2.59-1.354,4.997-3.485,6.471c-2.133,1.473-4.841,1.835-7.285,0.973C309.201,49.487,307.645,49.221,306.066,49.221z"/>
	<path style="fill:#231F20;" d="M195.085,93.128H83.502c-4.466,0-8.084-3.618-8.084-8.084s3.618-8.084,8.084-8.084h111.584   c4.466,0,8.084,3.618,8.084,8.084C203.169,89.509,199.551,93.128,195.085,93.128z"/>
	<path style="fill:#231F20;" d="M307.753,132.662H196.167c-4.466,0-8.084-3.618-8.084-8.084c0-4.466,3.618-8.084,8.084-8.084   h111.585c4.466,0,8.084,3.618,8.084,8.084C315.837,129.043,312.218,132.662,307.753,132.662z"/>
	<path style="fill:#231F20;" d="M249.854,93.128h-28.551c-4.466,0-8.084-3.618-8.084-8.084s3.618-8.084,8.084-8.084h28.551   c4.466,0,8.084,3.618,8.084,8.084S254.318,93.128,249.854,93.128z"/>
</g>
<g>
</g>
<g>
</g>
<g>
</g>
<g>
</g>
<g>
</g>
<g>
</g>
<g>
</g>
<g>
</g>
<g>
</g>
<g>
</g>
<g>
</g>
<g>
</g>
<g>
</g>
<g>
</g>
<g>
</g>
</svg>
