<svg xmlns="http://www.w3.org/2000/svg" viewBox="0 0 48 48"><defs><style>.cls-1{fill:#df8761;}.cls-2{fill:#f29b75;}</style></defs><title>30. Coral</title><g id="_30._Coral" data-name="30. Coral"><path class="cls-1" d="M43.11,35.6c-3.67,3-8.52,3.68-13.17,3a1,1,0,0,0-1.1,1.28l1.36,4.51A2,2,0,0,1,28.28,47H19.66a2,2,0,0,1-1.92-2.57c.72-2.39,2-5.09-.61-7C12.38,33.9,9,32.9,7.85,32.1.17,27.64,1,18.15,1,13,1,11.36.73,9.61,2.34,9.1A2,2,0,0,1,5,11c0,4.52-1.27,12.67,3.62,16.79A4.73,4.73,0,0,0,10,25.06,2,2,0,1,1,14,25a7.91,7.91,0,0,1-1.83,4.8,44.78,44.78,0,0,1,10.08,6.61c-.13-12.8-6.91-13.57-8.89-17.53C10.94,15.64,6.64,7.5,10.74,7A2,2,0,0,1,13,8.75a17.31,17.31,0,0,0,2.29,5.79C19.54,9,16.45,4.56,19.63,4A2,2,0,0,1,22,6a17.55,17.55,0,0,1-4.29,11.87c2.47,2.87,3.61,2.94,5.5,6.06A13.8,13.8,0,0,0,24,21.61a2,2,0,1,1,3.91.85,16.65,16.65,0,0,1-2.76,6,28.43,28.43,0,0,1,1,5.38,27.9,27.9,0,0,1,8.06-6.72c.25-1.76.41-6-3.33-8.48-7.14-4.77-3.94-15.76-3.8-16.22a2,2,0,0,1,3.83,1.14c0,.08-2,7,1,10.68A19.94,19.94,0,0,0,36,6.57a2,2,0,1,1,3.88,1,23.93,23.93,0,0,1-5,9.33,11.87,11.87,0,0,1,3.34,8C43.57,20.48,43,11.24,43,11.14c-.2-2.74,3.89-2.82,4-.3,0,.15,1,14.44-9.17,19a23.17,23.17,0,0,0-7,4.9c2.8.35,6.89.27,9.93-2.27A2,2,0,1,1,43.11,35.6Z"/><path class="cls-2" d="M39.48,5.7a2,2,0,0,0-.87-.59A1.78,1.78,0,0,1,39.48,5.7Z"/><path class="cls-2" d="M46.86,14.42c-.32,5.36-2.71,11.84-7.81,14.72a26.14,26.14,0,0,0-8.31,5.56C38.89,35.76,40,32,42,32c1.58,0,2.9,1.89,1.16,3.63-3.79,3-8.42,3.72-13.17,3a1,1,0,0,0-1.1,1.28C31.09,47.39,31.48,46,24.45,46a4.08,4.08,0,0,1-3.91-5.25,4,4,0,0,0-1.41-4.34C14.5,33,11,31.87,9.85,31.1,2.17,26.64,3,17.15,3,12c0-1.7-.1-2.34.27-3a2,2,0,0,1,1.56,1.2c.77,1.55-2,12.68,3.78,17.56A4.8,4.8,0,0,0,10,25.06,2,2,0,0,1,13.69,24c.93,1.49-.39,4.35-1.54,5.83a44.78,44.78,0,0,1,10.08,6.61c0-.54,2.18-3.66,1.22-7.32a12.72,12.72,0,0,0-3.77-6.57C11.82,15.76,10.22,7,11.27,7a2.27,2.27,0,0,1,.9.37c1.46,1.22.13,2.16,3.09,7.15C19.57,9,16.49,4.55,19.63,4a2,2,0,0,1,1.84.65c1.62,1.62-.25,9.21-3.79,13.19,2.47,2.87,3.61,2.94,5.5,6.06.84-1.85.71-2.37,1.09-2.94a2,2,0,0,1,3.64,1.47,16.65,16.65,0,0,1-2.76,6C27,34.87,24.81,35,28,31.78a27.25,27.25,0,0,1,6.17-4.65c.25-1.76.41-6-3.33-8.48-6.76-4.51-4.5-16-3.3-17a2,2,0,0,1,3.33,2c0,.08-2,7,1,10.68A20.22,20.22,0,0,0,36,6.57,2,2,0,0,1,40,7c0,1-1.79,6.21-5,9.88a11.87,11.87,0,0,1,3.34,8c3.62-2.95,5.15-9.55,4.69-13.69a2,2,0,0,1,2.9-1.92,1.93,1.93,0,0,1,1.08,1.62A26,26,0,0,1,46.86,14.42Z"/></g></svg>