<?xml version="1.0" encoding="UTF-8" standalone="no"?> <svg width="64" height="64" viewBox="0 0 64 64" fill="none" xmlns="http://www.w3.org/2000/svg">
<path d="M32 3C32.1283 3.51218 32.3911 3.98075 32.7614 4.35717C33.1316 4.73358 33.5958 5.00415 34.1058 5.14083C34.6158 5.2775 35.1531 5.27533 35.662 5.13452C36.1708 4.99372 36.6328 4.7194 37 4.34V4.34C36.8551 4.84765 36.8486 5.3848 36.981 5.89583C37.1135 6.40685 37.3802 6.87317 37.7535 7.24646C38.1268 7.61976 38.5931 7.88647 39.1042 8.01896C39.6152 8.15145 40.1524 8.1449 40.66 8V8C40.2806 8.3672 40.0063 8.82917 39.8655 9.33804C39.7247 9.84691 39.7225 10.3842 39.8592 10.8942C39.9959 11.4042 40.2664 11.8684 40.6428 12.2386C41.0192 12.6089 41.4878 12.8717 42 13V13C41.4878 13.1283 41.0192 13.3911 40.6428 13.7614C40.2664 14.1316 39.9959 14.5958 39.8592 15.1058C39.7225 15.6158 39.7247 16.1531 39.8655 16.662C40.0063 17.1708 40.2806 17.6328 40.66 18V18C40.1524 17.8551 39.6152 17.8486 39.1042 17.981C38.5931 18.1135 38.1268 18.3802 37.7535 18.7535C37.3802 19.1268 37.1135 19.5931 36.981 20.1042C36.8486 20.6152 36.8551 21.1524 37 21.66C36.6328 21.2806 36.1708 21.0063 35.662 20.8655C35.1531 20.7247 34.6158 20.7225 34.1058 20.8592C33.5958 20.9959 33.1316 21.2664 32.7614 21.6428C32.3911 22.0192 32.1283 22.4878 32 23V23C31.8717 22.4878 31.6089 22.0192 31.2386 21.6428C30.8684 21.2664 30.4042 20.9959 29.8942 20.8592C29.3842 20.7225 28.8469 20.7247 28.338 20.8655C27.8292 21.0063 27.3672 21.2806 27 21.66V21.66C27.1449 21.1524 27.1514 20.6152 27.019 20.1042C26.8865 19.5931 26.6198 19.1268 26.2465 18.7535C25.8732 18.3802 25.4069 18.1135 24.8958 17.981C24.3848 17.8486 23.8476 17.8551 23.34 18V18C23.7194 17.6328 23.9937 17.1708 24.1345 16.662C24.2753 16.1531 24.2775 15.6158 24.1408 15.1058C24.0041 14.5958 23.7336 14.1316 23.3572 13.7614C22.9808 13.3911 22.5122 13.1283 22 13C22.5122 12.8717 22.9808 12.6089 23.3572 12.2386C23.7336 11.8684 24.0041 11.4042 24.1408 10.8942C24.2775 10.3842 24.2753 9.84691 24.1345 9.33804C23.9937 8.82917 23.7194 8.3672 23.34 8V8C23.8476 8.1449 24.3848 8.15145 24.8958 8.01896C25.4069 7.88647 25.8732 7.61976 26.2465 7.24646C26.6198 6.87317 26.8865 6.40685 27.019 5.89583C27.1514 5.3848 27.1449 4.84765 27 4.34V4.34C27.3672 4.7194 27.8292 4.99372 28.338 5.13452C28.8469 5.27533 29.3842 5.2775 29.8942 5.14083C30.4042 5.00415 30.8684 4.73358 31.2386 4.35717C31.6089 3.98075 31.8717 3.51218 32 3V3Z" fill="#FFFA48"/>
<path d="M32 6C32.0899 6.35847 32.2739 6.6864 32.5331 6.94982C32.7923 7.21325 33.1172 7.40261 33.4742 7.49827C33.8311 7.59394 34.2072 7.59244 34.5634 7.49393C34.9195 7.39542 35.2429 7.20349 35.5 6.938V6.938C35.3983 7.29338 35.3936 7.66948 35.4862 8.02731C35.5789 8.38515 35.7656 8.71168 36.027 8.97305C36.2883 9.23442 36.6149 9.42111 36.9727 9.51377C37.3305 9.60642 37.7066 9.60167 38.062 9.5V9.5C37.7965 9.75708 37.6046 10.0805 37.5061 10.4366C37.4076 10.7928 37.4061 11.1689 37.5017 11.5258C37.5974 11.8828 37.7867 12.2077 38.0502 12.4669C38.3136 12.7261 38.6415 12.9101 39 13C38.6415 13.0899 38.3136 13.2739 38.0502 13.5331C37.7867 13.7923 37.5974 14.1172 37.5017 14.4742C37.4061 14.8311 37.4076 15.2072 37.5061 15.5634C37.6046 15.9195 37.7965 16.2429 38.062 16.5C37.7066 16.3983 37.3305 16.3936 36.9727 16.4862C36.6149 16.5789 36.2883 16.7656 36.027 17.027C35.7656 17.2883 35.5789 17.6149 35.4862 17.9727C35.3936 18.3305 35.3983 18.7066 35.5 19.062V19.062C35.2429 18.7965 34.9195 18.6046 34.5634 18.5061C34.2072 18.4076 33.8311 18.4061 33.4742 18.5017C33.1172 18.5974 32.7923 18.7867 32.5331 19.0502C32.2739 19.3136 32.0899 19.6415 32 20V20C31.9101 19.6415 31.7261 19.3136 31.4669 19.0502C31.2077 18.7867 30.8828 18.5974 30.5258 18.5017C30.1689 18.4061 29.7928 18.4076 29.4366 18.5061C29.0805 18.6046 28.7571 18.7965 28.5 19.062V19.062C28.6017 18.7066 28.6064 18.3305 28.5138 17.9727C28.4211 17.6149 28.2344 17.2883 27.973 17.027C27.7117 16.7656 27.3851 16.5789 27.0273 16.4862C26.6695 16.3936 26.2934 16.3983 25.938 16.5C26.2035 16.2429 26.3954 15.9195 26.4939 15.5634C26.5924 15.2072 26.5939 14.8311 26.4983 14.4742C26.4026 14.1172 26.2133 13.7923 25.9498 13.5331C25.6864 13.2739 25.3585 13.0899 25 13V13C25.3585 12.9101 25.6864 12.7261 25.9498 12.4669C26.2133 12.2077 26.4026 11.8828 26.4983 11.5258C26.5939 11.1689 26.5924 10.7928 26.4939 10.4366C26.3954 10.0805 26.2035 9.75708 25.938 9.5C26.2934 9.60167 26.6695 9.60642 27.0273 9.51377C27.3851 9.42111 27.7117 9.23442 27.973 8.97305C28.2344 8.71168 28.4211 8.38515 28.5138 8.02731C28.6064 7.66948 28.6017 7.29338 28.5 6.938V6.938C28.7571 7.20349 29.0805 7.39542 29.4366 7.49393C29.7928 7.59244 30.1689 7.59394 30.5258 7.49827C30.8828 7.40261 31.2077 7.21325 31.4669 6.94982C31.7261 6.6864 31.9101 6.35847 32 6Z" fill="#FDC741"/>
<path d="M61 28.89V41.39H3V28.89L5 29.89C5.93113 30.3569 6.95838 30.6 8 30.6C9.04162 30.6 10.0689 30.3569 11 29.89C11.9311 29.4231 12.9584 29.18 14 29.18C15.0416 29.18 16.0689 29.4231 17 29.89C17.9311 30.3569 18.9584 30.6 20 30.6C21.0416 30.6 22.0689 30.3569 23 29.89C23.9311 29.4231 24.9584 29.18 26 29.18C27.0416 29.18 28.0689 29.4231 29 29.89C29.9311 30.3569 30.9584 30.6 32 30.6C33.0416 30.6 34.0689 30.3569 35 29.89C35.9311 29.4231 36.9584 29.18 38 29.18C39.0416 29.18 40.0689 29.4231 41 29.89C41.9311 30.3569 42.9584 30.6 44 30.6C45.0416 30.6 46.0689 30.3569 47 29.89C47.9321 29.4263 48.9589 29.185 50 29.185C51.0411 29.185 52.0679 29.4263 53 29.89C53.9321 30.3537 54.9589 30.5951 56 30.5951C57.0411 30.5951 58.0679 30.3537 59 29.89L61 28.89Z" fill="#ADE8F4"/>
<path d="M61 30.5V43H3V30.5L5 31.5C5.93113 31.9669 6.95838 32.21 8 32.21C9.04162 32.21 10.0689 31.9669 11 31.5C11.9311 31.0331 12.9584 30.79 14 30.79C15.0416 30.79 16.0689 31.0331 17 31.5C17.9311 31.9669 18.9584 32.21 20 32.21C21.0416 32.21 22.0689 31.9669 23 31.5C23.9311 31.0331 24.9584 30.79 26 30.79C27.0416 30.79 28.0689 31.0331 29 31.5C29.9311 31.9669 30.9584 32.21 32 32.21C33.0416 32.21 34.0689 31.9669 35 31.5C35.9311 31.0331 36.9584 30.79 38 30.79C39.0416 30.79 40.0689 31.0331 41 31.5C41.9311 31.9669 42.9584 32.21 44 32.21C45.0416 32.21 46.0689 31.9669 47 31.5C47.9321 31.0363 48.9589 30.7949 50 30.7949C51.0411 30.7949 52.0679 31.0363 53 31.5C53.9321 31.9637 54.9589 32.2051 56 32.2051C57.0411 32.2051 58.0679 31.9637 59 31.5L61 30.5Z" fill="#48CAE4"/>
<path d="M61 32.5V45H3V32.5L5 33.5C5.93303 33.9605 6.95954 34.2 8 34.2C9.04046 34.2 10.067 33.9605 11 33.5C11.933 33.0395 12.9595 32.8 14 32.8C15.0405 32.8 16.067 33.0395 17 33.5C17.933 33.9605 18.9595 34.2 20 34.2C21.0405 34.2 22.067 33.9605 23 33.5C23.933 33.0395 24.9595 32.8 26 32.8C27.0405 32.8 28.067 33.0395 29 33.5C29.933 33.9605 30.9595 34.2 32 34.2C33.0405 34.2 34.067 33.9605 35 33.5C35.933 33.0395 36.9595 32.8 38 32.8C39.0405 32.8 40.067 33.0395 41 33.5C41.933 33.9605 42.9595 34.2 44 34.2C45.0405 34.2 46.067 33.9605 47 33.5C47.9321 33.0363 48.9589 32.7949 50 32.7949C51.0411 32.7949 52.0679 33.0363 53 33.5C53.9321 33.9637 54.9589 34.2051 56 34.2051C57.0411 34.2051 58.0679 33.9637 59 33.5L61 32.5Z" fill="#00B4D8"/>
<path d="M61 34.5V47H3V34.5L5 35.5C5.93303 35.9605 6.95954 36.2 8 36.2C9.04046 36.2 10.067 35.9605 11 35.5C11.933 35.0395 12.9595 34.8 14 34.8C15.0405 34.8 16.067 35.0395 17 35.5C17.933 35.9605 18.9595 36.2 20 36.2C21.0405 36.2 22.067 35.9605 23 35.5C23.933 35.0395 24.9595 34.8 26 34.8C27.0405 34.8 28.067 35.0395 29 35.5C29.933 35.9605 30.9595 36.2 32 36.2C33.0405 36.2 34.067 35.9605 35 35.5C35.933 35.0395 36.9595 34.8 38 34.8C39.0405 34.8 40.067 35.0395 41 35.5C41.933 35.9605 42.9595 36.2 44 36.2C45.0405 36.2 46.067 35.9605 47 35.5C47.9321 35.0363 48.9589 34.7949 50 34.7949C51.0411 34.7949 52.0679 35.0363 53 35.5C53.9321 35.9637 54.9589 36.2051 56 36.2051C57.0411 36.2051 58.0679 35.9637 59 35.5L61 34.5Z" fill="#0096C7"/>
<path d="M61 37.193C60.3343 37.4233 59.7712 37.8812 59.41 38.486C59.1702 38.9318 58.817 39.3066 58.3862 39.5724C57.9553 39.8382 57.462 39.9857 56.956 40H56.932C56.671 40.0148 56.4117 39.949 56.1893 39.8117C55.9669 39.6743 55.792 39.4719 55.6884 39.2319C55.5848 38.9919 55.5573 38.7258 55.6098 38.4697C55.6624 38.2136 55.7923 37.9799 55.982 37.8L56 37.779C55.6709 37.4789 55.2787 37.2563 54.8523 37.1275C54.426 36.9988 53.9761 36.9671 53.5359 37.035C53.0957 37.1028 52.6763 37.2683 52.3084 37.5194C51.9405 37.7705 51.6335 38.1008 51.41 38.486C51.1702 38.9318 50.817 39.3066 50.3862 39.5724C49.9553 39.8382 49.462 39.9857 48.956 40H48.932C48.671 40.0148 48.4117 39.949 48.1893 39.8117C47.9669 39.6743 47.792 39.4719 47.6884 39.2319C47.5848 38.9919 47.5573 38.7258 47.6098 38.4697C47.6624 38.2136 47.7923 37.9799 47.982 37.8L48 37.779C47.6709 37.4789 47.2787 37.2563 46.8523 37.1275C46.426 36.9988 45.9761 36.9671 45.5359 37.035C45.0957 37.1028 44.6763 37.2683 44.3084 37.5194C43.9405 37.7705 43.6335 38.1008 43.41 38.486C43.1702 38.9318 42.817 39.3066 42.3862 39.5724C41.9553 39.8382 41.462 39.9857 40.956 40H40.932C40.671 40.0148 40.4117 39.949 40.1893 39.8117C39.9669 39.6743 39.792 39.4719 39.6884 39.2319C39.5848 38.9919 39.5573 38.7258 39.6098 38.4697C39.6624 38.2136 39.7923 37.9799 39.982 37.8L40 37.779C39.6709 37.4789 39.2787 37.2563 38.8523 37.1275C38.426 36.9988 37.9761 36.9671 37.5359 37.035C37.0957 37.1028 36.6763 37.2683 36.3084 37.5194C35.9405 37.7705 35.6335 38.1008 35.41 38.486C35.1702 38.9318 34.817 39.3066 34.3862 39.5724C33.9553 39.8382 33.462 39.9857 32.956 40H32.932C32.671 40.0148 32.4117 39.949 32.1893 39.8117C31.9669 39.6743 31.792 39.4719 31.6884 39.2319C31.5848 38.9919 31.5573 38.7258 31.6098 38.4697C31.6624 38.2136 31.7923 37.9799 31.982 37.8L32 37.779C31.6709 37.4789 31.2787 37.2563 30.8523 37.1275C30.426 36.9988 29.9761 36.9671 29.5359 37.035C29.0957 37.1028 28.6763 37.2683 28.3084 37.5194C27.9405 37.7705 27.6335 38.1008 27.41 38.486C27.1702 38.9318 26.817 39.3066 26.3862 39.5724C25.9553 39.8382 25.462 39.9857 24.956 40V40C24.692 40.0161 24.4295 39.9503 24.2043 39.8117C23.9791 39.6731 23.8021 39.4683 23.6976 39.2254C23.593 38.9825 23.5659 38.7133 23.6201 38.4544C23.6742 38.1955 23.8069 37.9597 24 37.779C23.6709 37.4789 23.2787 37.2563 22.8523 37.1275C22.426 36.9988 21.9761 36.9671 21.5359 37.035C21.0957 37.1028 20.6763 37.2683 20.3084 37.5194C19.9405 37.7705 19.6335 38.1008 19.41 38.486C19.1702 38.9318 18.817 39.3066 18.3862 39.5724C17.9553 39.8382 17.462 39.9857 16.956 40H16.932C16.671 40.0148 16.4117 39.949 16.1893 39.8117C15.9669 39.6743 15.792 39.4719 15.6884 39.2319C15.5848 38.9919 15.5573 38.7258 15.6098 38.4697C15.6624 38.2136 15.7923 37.9799 15.982 37.8L16 37.779C15.6709 37.4789 15.2787 37.2563 14.8523 37.1275C14.426 36.9988 13.9761 36.9671 13.5359 37.035C13.0957 37.1028 12.6763 37.2683 12.3084 37.5194C11.9405 37.7705 11.6335 38.1008 11.41 38.486C11.1702 38.9318 10.817 39.3066 10.3862 39.5724C9.95534 39.8382 9.46203 39.9857 8.95599 40H8.93199C8.67098 40.0148 8.41173 39.949 8.18931 39.8117C7.96689 39.6743 7.79203 39.4719 7.68839 39.2319C7.58475 38.9919 7.55733 38.7258 7.60984 38.4697C7.66235 38.2136 7.79226 37.9799 7.98199 37.8L7.99999 37.779C7.48922 37.3113 6.83162 37.0359 6.13999 37C5.72336 36.9998 5.31086 37.0826 4.92654 37.2434C4.54222 37.4043 4.19377 37.6401 3.9015 37.937C3.60924 38.2339 3.379 38.586 3.22422 38.9729C3.06944 39.3597 2.99322 39.7734 2.99999 40.19V56H61V37.193Z" fill="#ADE8F4"/>
<path d="M3 41V54H61V40L59.516 41.127C58.7725 41.6912 57.8653 41.9977 56.932 42V42C56.2546 42.0086 55.5907 41.8104 55.0289 41.432C54.467 41.0536 54.0338 40.5129 53.787 39.882C53.6869 39.6249 53.6197 39.3561 53.587 39.082C53.396 39.168 53.2369 39.3118 53.132 39.493C52.7147 40.2432 52.1064 40.8697 51.3687 41.3088C50.6311 41.7478 49.7904 41.9839 48.932 41.993C48.2546 42.0016 47.5907 41.8034 47.0289 41.425C46.467 41.0466 46.0338 40.5059 45.787 39.875C45.6869 39.6179 45.6197 39.3491 45.587 39.075C45.396 39.161 45.2369 39.3048 45.132 39.486C44.7147 40.2362 44.1064 40.8627 43.3687 41.3018C42.6311 41.7408 41.7904 41.9769 40.932 41.986C40.2546 41.9946 39.5907 41.7964 39.0289 41.418C38.467 41.0396 38.0338 40.4989 37.787 39.868C37.6869 39.6109 37.6197 39.3421 37.587 39.068C37.396 39.154 37.2369 39.2978 37.132 39.479C36.7147 40.2292 36.1064 40.8557 35.3687 41.2948C34.6311 41.7338 33.7904 41.9699 32.932 41.979C32.2546 41.9876 31.5907 41.7894 31.0289 41.411C30.467 41.0326 30.0338 40.4919 29.787 39.861C29.6869 39.6039 29.6197 39.3351 29.587 39.061C29.396 39.147 29.2369 39.2908 29.132 39.472C28.7207 40.2247 28.1175 40.855 27.3836 41.299C26.6498 41.743 25.8116 41.9849 24.954 42C24.2745 42.0094 23.6084 41.811 23.0448 41.4314C22.4811 41.0518 22.0468 40.5092 21.8 39.876C21.6999 39.6188 21.6327 39.3501 21.6 39.076C21.4026 39.1609 21.2378 39.3071 21.13 39.493C20.7127 40.2432 20.1044 40.8697 19.3667 41.3088C18.6291 41.7478 17.7884 41.9839 16.93 41.993C16.2526 42.0016 15.5887 41.8034 15.0269 41.425C14.465 41.0466 14.0318 40.5059 13.785 39.875C13.6849 39.6179 13.6177 39.3491 13.585 39.075C13.394 39.161 13.2349 39.3048 13.13 39.486C12.7127 40.2362 12.1044 40.8627 11.3667 41.3018C10.6291 41.7408 9.78839 41.9769 8.93 41.986C8.11713 42.0005 7.32741 41.715 6.71168 41.1842C6.09594 40.6533 5.69734 39.9142 5.592 39.108C5.20755 39.7993 4.59812 40.3381 3.865 40.635L3 41Z" fill="#48CAE4"/>
<path d="M61 42.193C60.3343 42.4233 59.7712 42.8812 59.41 43.486C59.1702 43.9318 58.817 44.3066 58.3862 44.5724C57.9553 44.8382 57.462 44.9857 56.956 45H56.932C56.671 45.0148 56.4117 44.949 56.1893 44.8117C55.9669 44.6743 55.792 44.4719 55.6884 44.2319C55.5848 43.9919 55.5573 43.7258 55.6098 43.4697C55.6624 43.2136 55.7923 42.9799 55.982 42.8L56 42.779C55.6709 42.4789 55.2787 42.2563 54.8523 42.1275C54.426 41.9988 53.9761 41.9671 53.5359 42.035C53.0957 42.1028 52.6763 42.2683 52.3084 42.5194C51.9405 42.7705 51.6335 43.1008 51.41 43.486C51.1702 43.9318 50.817 44.3066 50.3862 44.5724C49.9553 44.8382 49.462 44.9857 48.956 45H48.932C48.671 45.0148 48.4117 44.949 48.1893 44.8117C47.9669 44.6743 47.792 44.4719 47.6884 44.2319C47.5848 43.9919 47.5573 43.7258 47.6098 43.4697C47.6624 43.2136 47.7923 42.9799 47.982 42.8L48 42.779C47.6709 42.4789 47.2787 42.2563 46.8523 42.1275C46.426 41.9988 45.9761 41.9671 45.5359 42.035C45.0957 42.1028 44.6763 42.2683 44.3084 42.5194C43.9405 42.7705 43.6335 43.1008 43.41 43.486C43.1702 43.9318 42.817 44.3066 42.3862 44.5724C41.9553 44.8382 41.462 44.9857 40.956 45H40.932C40.671 45.0148 40.4117 44.949 40.1893 44.8117C39.9669 44.6743 39.792 44.4719 39.6884 44.2319C39.5848 43.9919 39.5573 43.7258 39.6098 43.4697C39.6624 43.2136 39.7923 42.9799 39.982 42.8L40 42.779C39.6709 42.4789 39.2787 42.2563 38.8523 42.1275C38.426 41.9988 37.9761 41.9671 37.5359 42.035C37.0957 42.1028 36.6763 42.2683 36.3084 42.5194C35.9405 42.7705 35.6335 43.1008 35.41 43.486C35.1702 43.9318 34.817 44.3066 34.3862 44.5724C33.9553 44.8382 33.462 44.9857 32.956 45H32.932C32.671 45.0148 32.4117 44.949 32.1893 44.8117C31.9669 44.6743 31.792 44.4719 31.6884 44.2319C31.5848 43.9919 31.5573 43.7258 31.6098 43.4697C31.6624 43.2136 31.7923 42.9799 31.982 42.8L32 42.779C31.6709 42.4789 31.2787 42.2563 30.8523 42.1275C30.426 41.9988 29.9761 41.9671 29.5359 42.035C29.0957 42.1028 28.6763 42.2683 28.3084 42.5194C27.9405 42.7705 27.6335 43.1008 27.41 43.486C27.1702 43.9318 26.817 44.3066 26.3862 44.5724C25.9553 44.8382 25.462 44.9857 24.956 45V45C24.692 45.0161 24.4295 44.9503 24.2043 44.8117C23.9791 44.6731 23.8021 44.4683 23.6976 44.2254C23.593 43.9825 23.5659 43.7133 23.6201 43.4544C23.6742 43.1955 23.8069 42.9597 24 42.779C23.6709 42.4789 23.2787 42.2563 22.8523 42.1275C22.426 41.9988 21.9761 41.9671 21.5359 42.035C21.0957 42.1028 20.6763 42.2683 20.3084 42.5194C19.9405 42.7705 19.6335 43.1008 19.41 43.486C19.1702 43.9318 18.817 44.3066 18.3862 44.5724C17.9553 44.8382 17.462 44.9857 16.956 45H16.932C16.671 45.0148 16.4117 44.949 16.1893 44.8117C15.9669 44.6743 15.792 44.4719 15.6884 44.2319C15.5848 43.9919 15.5573 43.7258 15.6098 43.4697C15.6624 43.2136 15.7923 42.9799 15.982 42.8L16 42.779C15.6709 42.4789 15.2787 42.2563 14.8523 42.1275C14.426 41.9988 13.9761 41.9671 13.5359 42.035C13.0957 42.1028 12.6763 42.2683 12.3084 42.5194C11.9405 42.7705 11.6335 43.1008 11.41 43.486C11.1702 43.9318 10.817 44.3066 10.3862 44.5724C9.95534 44.8382 9.46203 44.9857 8.95599 45H8.93199C8.67098 45.0148 8.41173 44.949 8.18931 44.8117C7.96689 44.6743 7.79203 44.4719 7.68839 44.2319C7.58475 43.9919 7.55733 43.7258 7.60984 43.4697C7.66235 43.2136 7.79226 42.9799 7.98199 42.8L7.99999 42.779C7.48922 42.3113 6.83162 42.0359 6.13999 42C5.72336 41.9998 5.31086 42.0826 4.92654 42.2434C4.54222 42.4043 4.19377 42.6401 3.9015 42.937C3.60924 43.2339 3.379 43.586 3.22422 43.9729C3.06944 44.3597 2.99322 44.7734 2.99999 45.19V61H61V42.193Z" fill="#00B4D8"/>
<path d="M3 46V59H61V45L59.516 46.127C58.7725 46.6912 57.8653 46.9977 56.932 47V47C56.2546 47.0086 55.5907 46.8104 55.0289 46.432C54.467 46.0536 54.0338 45.5129 53.787 44.882C53.6869 44.6249 53.6197 44.3561 53.587 44.082C53.396 44.168 53.2369 44.3118 53.132 44.493C52.7147 45.2432 52.1064 45.8697 51.3687 46.3088C50.6311 46.7478 49.7904 46.9839 48.932 46.993C48.2546 47.0016 47.5907 46.8034 47.0289 46.425C46.467 46.0466 46.0338 45.5059 45.787 44.875C45.6869 44.6179 45.6197 44.3491 45.587 44.075C45.396 44.161 45.2369 44.3048 45.132 44.486C44.7147 45.2362 44.1064 45.8627 43.3687 46.3018C42.6311 46.7408 41.7904 46.9769 40.932 46.986C40.2546 46.9946 39.5907 46.7964 39.0289 46.418C38.467 46.0396 38.0338 45.4989 37.787 44.868C37.6869 44.6109 37.6197 44.3421 37.587 44.068C37.396 44.154 37.2369 44.2978 37.132 44.479C36.7147 45.2292 36.1064 45.8557 35.3687 46.2948C34.6311 46.7338 33.7904 46.9699 32.932 46.979C32.2546 46.9876 31.5907 46.7894 31.0289 46.411C30.467 46.0326 30.0338 45.4919 29.787 44.861C29.6869 44.6039 29.6197 44.3351 29.587 44.061C29.396 44.147 29.2369 44.2908 29.132 44.472C28.7207 45.2247 28.1175 45.855 27.3836 46.299C26.6498 46.743 25.8116 46.9849 24.954 47C24.2745 47.0094 23.6084 46.811 23.0448 46.4314C22.4811 46.0518 22.0468 45.5092 21.8 44.876C21.6999 44.6188 21.6327 44.3501 21.6 44.076C21.4026 44.1609 21.2378 44.3071 21.13 44.493C20.7127 45.2432 20.1044 45.8697 19.3667 46.3088C18.6291 46.7478 17.7884 46.9839 16.93 46.993C16.2526 47.0016 15.5887 46.8034 15.0269 46.425C14.465 46.0466 14.0318 45.5059 13.785 44.875C13.6849 44.6179 13.6177 44.3491 13.585 44.075C13.394 44.161 13.2349 44.3048 13.13 44.486C12.7127 45.2362 12.1044 45.8627 11.3667 46.3018C10.6291 46.7408 9.78839 46.9769 8.93 46.986C8.11713 47.0005 7.32741 46.715 6.71168 46.1842C6.09594 45.6533 5.69734 44.9142 5.592 44.108V44.108C5.20755 44.7993 4.59812 45.3381 3.865 45.635L3 46Z" fill="#0096C7"/>
<path d="M61 47V61H2.99997V51.25C2.97774 50.2077 3.34604 49.1948 4.03251 48.4103C4.71898 47.6258 5.67401 47.1263 6.70997 47.01C7.51 46.9585 8.30723 47.1465 8.99997 47.55L8.95997 47.58C8.623 47.7996 8.36625 48.1225 8.22821 48.5003C8.09016 48.8781 8.07825 49.2905 8.19424 49.6757C8.31024 50.0608 8.54791 50.398 8.87164 50.6368C9.19537 50.8755 9.58774 51.0029 9.98997 51H10.44C10.8407 50.9906 11.2285 50.8565 11.5493 50.6163C11.8702 50.3761 12.1081 50.0418 12.23 49.66C12.4244 49.1056 12.7392 48.6012 13.1519 48.183C13.5645 47.7649 14.0647 47.4434 14.6164 47.2416C15.1682 47.0398 15.7577 46.9628 16.3428 47.0162C16.9278 47.0695 17.4938 47.2518 18 47.55C17.9886 47.5623 17.975 47.5725 17.96 47.58C17.623 47.7996 17.3663 48.1225 17.2282 48.5003C17.0902 48.8781 17.0782 49.2905 17.1942 49.6757C17.3102 50.0608 17.5479 50.398 17.8716 50.6368C18.1954 50.8755 18.5877 51.0029 18.99 51H19.44C19.8407 50.9906 20.2285 50.8565 20.5493 50.6163C20.8702 50.3761 21.1081 50.0418 21.23 49.66C21.4244 49.1056 21.7392 48.6012 22.1519 48.183C22.5645 47.7649 23.0647 47.4434 23.6164 47.2416C24.1682 47.0398 24.7577 46.9628 25.3428 47.0162C25.9278 47.0695 26.4938 47.2518 27 47.55C26.9886 47.5623 26.975 47.5725 26.96 47.58C26.623 47.7996 26.3663 48.1225 26.2282 48.5003C26.0902 48.8781 26.0782 49.2905 26.1942 49.6757C26.3102 50.0608 26.5479 50.398 26.8716 50.6368C27.1954 50.8755 27.5877 51.0029 27.99 51H28.44C28.8407 50.9906 29.2285 50.8565 29.5493 50.6163C29.8702 50.3761 30.1081 50.0418 30.23 49.66C30.4244 49.1056 30.7392 48.6012 31.1519 48.183C31.5645 47.7649 32.0647 47.4434 32.6164 47.2416C33.1682 47.0398 33.7577 46.9628 34.3428 47.0162C34.9278 47.0695 35.4938 47.2518 36 47.55C35.9886 47.5623 35.975 47.5725 35.96 47.58C35.623 47.7996 35.3663 48.1225 35.2282 48.5003C35.0902 48.8781 35.0782 49.2905 35.1942 49.6757C35.3102 50.0608 35.5479 50.398 35.8716 50.6368C36.1954 50.8755 36.5877 51.0029 36.99 51H37.44C37.8407 50.9906 38.2285 50.8565 38.5493 50.6163C38.8702 50.3761 39.1081 50.0418 39.23 49.66C39.4244 49.1056 39.7392 48.6012 40.1519 48.183C40.5645 47.7649 41.0647 47.4434 41.6164 47.2416C42.1682 47.0398 42.7577 46.9628 43.3428 47.0162C43.9278 47.0695 44.4938 47.2518 45 47.55C44.9886 47.5623 44.975 47.5725 44.96 47.58C44.623 47.7996 44.3663 48.1225 44.2282 48.5003C44.0902 48.8781 44.0782 49.2905 44.1942 49.6757C44.3102 50.0608 44.5479 50.398 44.8716 50.6368C45.1954 50.8755 45.5877 51.0029 45.99 51H46.44C46.8407 50.9906 47.2285 50.8565 47.5493 50.6163C47.8702 50.3761 48.1081 50.0418 48.23 49.66C48.4244 49.1056 48.7392 48.6012 49.1519 48.183C49.5645 47.7649 50.0647 47.4434 50.6164 47.2416C51.1682 47.0398 51.7577 46.9628 52.3428 47.0162C52.9278 47.0695 53.4938 47.2518 54 47.55C53.9886 47.5623 53.975 47.5725 53.96 47.58C53.623 47.7996 53.3663 48.1225 53.2282 48.5003C53.0902 48.8781 53.0782 49.2905 53.1942 49.6757C53.3102 50.0608 53.5479 50.398 53.8716 50.6368C54.1954 50.8755 54.5877 51.0029 54.99 51H55.44C55.8407 50.9906 56.2285 50.8565 56.5493 50.6163C56.8702 50.3761 57.1081 50.0418 57.23 49.66C57.5067 48.8815 58.0177 48.2079 58.6928 47.7316C59.3678 47.2553 60.1738 46.9997 61 47V47Z" fill="#ADE8F4"/>
<path d="M3 51V59H61V49H60.618C60.4055 48.9999 60.195 49.0416 59.9987 49.1229C59.8023 49.2042 59.6239 49.3233 59.4736 49.4736C59.3233 49.6239 59.2042 49.8023 59.1229 49.9987C59.0416 50.195 58.9999 50.4055 59 50.618V50.618C58.7057 51.3205 58.2113 51.9209 57.5783 52.3444C56.9453 52.768 56.2016 52.996 55.44 53H54.99C54.1333 53.0033 53.2998 52.7215 52.6209 52.199C51.942 51.6765 51.4562 50.943 51.24 50.114C51.1592 49.8204 51.1129 49.5183 51.102 49.214C50.64 49.4468 50.2855 49.8486 50.112 50.336C49.8542 51.1075 49.3616 51.7792 48.7032 52.2568C48.0448 52.7345 47.2534 52.9944 46.44 53H45.99C45.1333 53.0033 44.2998 52.7215 43.6209 52.199C42.942 51.6765 42.4562 50.943 42.24 50.114C42.1592 49.8204 42.1129 49.5183 42.102 49.214C41.64 49.4468 41.2855 49.8486 41.112 50.336C40.8542 51.1075 40.3616 51.7792 39.7032 52.2568C39.0448 52.7345 38.2534 52.9944 37.44 53H36.99C36.1333 53.0033 35.2998 52.7215 34.6209 52.199C33.942 51.6765 33.4562 50.943 33.24 50.114C33.1592 49.8204 33.1129 49.5183 33.102 49.214C32.64 49.4468 32.2855 49.8486 32.112 50.336C31.8542 51.1075 31.3616 51.7792 30.7032 52.2568C30.0448 52.7345 29.2534 52.9944 28.44 53H27.99C27.1333 53.0033 26.2998 52.7215 25.6209 52.199C24.942 51.6765 24.4562 50.943 24.24 50.114C24.1592 49.8204 24.1129 49.5183 24.102 49.214C23.64 49.4468 23.2855 49.8486 23.112 50.336C22.8542 51.1075 22.3616 51.7792 21.7032 52.2568C21.0448 52.7345 20.2534 52.9944 19.44 53H18.99C18.1333 53.0033 17.2998 52.7215 16.6209 52.199C15.942 51.6765 15.4562 50.943 15.24 50.114C15.1592 49.8204 15.1129 49.5183 15.102 49.214C14.64 49.4468 14.2855 49.8486 14.112 50.336C13.8542 51.1075 13.3616 51.7792 12.7032 52.2568C12.0448 52.7345 11.2534 52.9944 10.44 53H9.99C8.98377 52.9912 8.01929 52.5966 7.29549 51.8975C6.57169 51.1985 6.14377 50.2483 6.1 49.243C5.81517 49.4118 5.57321 49.6442 5.393 49.922C5.16915 50.2923 4.84538 50.592 4.45887 50.7866C4.07236 50.9812 3.6388 51.0628 3.208 51.022L3 51Z" fill="#48CAE4"/>
<path d="M61 53V61H2.99997V57.25C2.97774 56.2077 3.34604 55.1948 4.03251 54.4103C4.71898 53.6258 5.67401 53.1263 6.70997 53.01C7.51 52.9585 8.30723 53.1465 8.99997 53.55L8.95997 53.58C8.623 53.7996 8.36625 54.1225 8.22821 54.5003C8.09016 54.8781 8.07825 55.2905 8.19424 55.6757C8.31024 56.0608 8.54791 56.398 8.87164 56.6368C9.19537 56.8755 9.58774 57.0029 9.98997 57H10.44C10.8407 56.9906 11.2285 56.8565 11.5493 56.6163C11.8702 56.3761 12.1081 56.0418 12.23 55.66C12.4244 55.1056 12.7392 54.6012 13.1519 54.183C13.5645 53.7649 14.0647 53.4434 14.6164 53.2416C15.1682 53.0398 15.7577 52.9628 16.3428 53.0162C16.9278 53.0695 17.4938 53.2518 18 53.55C17.9886 53.5623 17.975 53.5725 17.96 53.58C17.623 53.7996 17.3663 54.1225 17.2282 54.5003C17.0902 54.8781 17.0782 55.2905 17.1942 55.6757C17.3102 56.0608 17.5479 56.398 17.8716 56.6368C18.1954 56.8755 18.5877 57.0029 18.99 57H19.44C19.8407 56.9906 20.2285 56.8565 20.5493 56.6163C20.8702 56.3761 21.1081 56.0418 21.23 55.66C21.4244 55.1056 21.7392 54.6012 22.1519 54.183C22.5645 53.7649 23.0647 53.4434 23.6164 53.2416C24.1682 53.0398 24.7577 52.9628 25.3428 53.0162C25.9278 53.0695 26.4938 53.2518 27 53.55C26.9886 53.5623 26.975 53.5725 26.96 53.58C26.623 53.7996 26.3663 54.1225 26.2282 54.5003C26.0902 54.8781 26.0782 55.2905 26.1942 55.6757C26.3102 56.0608 26.5479 56.398 26.8716 56.6368C27.1954 56.8755 27.5877 57.0029 27.99 57H28.44C28.8407 56.9906 29.2285 56.8565 29.5493 56.6163C29.8702 56.3761 30.1081 56.0418 30.23 55.66C30.4244 55.1056 30.7392 54.6012 31.1519 54.183C31.5645 53.7649 32.0647 53.4434 32.6164 53.2416C33.1682 53.0398 33.7577 52.9628 34.3428 53.0162C34.9278 53.0695 35.4938 53.2518 36 53.55C35.9886 53.5623 35.975 53.5725 35.96 53.58C35.623 53.7996 35.3663 54.1225 35.2282 54.5003C35.0902 54.8781 35.0782 55.2905 35.1942 55.6757C35.3102 56.0608 35.5479 56.398 35.8716 56.6368C36.1954 56.8755 36.5877 57.0029 36.99 57H37.44C37.8407 56.9906 38.2285 56.8565 38.5493 56.6163C38.8702 56.3761 39.1081 56.0418 39.23 55.66C39.4244 55.1056 39.7392 54.6012 40.1519 54.183C40.5645 53.7649 41.0647 53.4434 41.6164 53.2416C42.1682 53.0398 42.7577 52.9628 43.3428 53.0162C43.9278 53.0695 44.4938 53.2518 45 53.55C44.9886 53.5623 44.975 53.5725 44.96 53.58C44.623 53.7996 44.3663 54.1225 44.2282 54.5003C44.0902 54.8781 44.0782 55.2905 44.1942 55.6757C44.3102 56.0608 44.5479 56.398 44.8716 56.6368C45.1954 56.8755 45.5877 57.0029 45.99 57H46.44C46.8407 56.9906 47.2285 56.8565 47.5493 56.6163C47.8702 56.3761 48.1081 56.0418 48.23 55.66C48.4244 55.1056 48.7392 54.6012 49.1519 54.183C49.5645 53.7649 50.0647 53.4434 50.6164 53.2416C51.1682 53.0398 51.7577 52.9628 52.3428 53.0162C52.9278 53.0695 53.4938 53.2518 54 53.55C53.9886 53.5623 53.975 53.5725 53.96 53.58C53.623 53.7996 53.3663 54.1225 53.2282 54.5003C53.0902 54.8781 53.0782 55.2905 53.1942 55.6757C53.3102 56.0608 53.5479 56.398 53.8716 56.6368C54.1954 56.8755 54.5877 57.0029 54.99 57H55.44C55.8407 56.9906 56.2285 56.8565 56.5493 56.6163C56.8702 56.3761 57.1081 56.0418 57.23 55.66C57.5067 54.8815 58.0177 54.2079 58.6928 53.7316C59.3678 53.2553 60.1738 52.9997 61 53V53Z" fill="#00B4D8"/>
<path d="M3 57V61H61V55H60.618C60.4055 54.9999 60.195 55.0416 59.9987 55.1229C59.8023 55.2042 59.6239 55.3233 59.4736 55.4736C59.3233 55.6239 59.2042 55.8023 59.1229 55.9987C59.0416 56.195 58.9999 56.4055 59 56.618V56.618C58.7057 57.3205 58.2113 57.9209 57.5783 58.3444C56.9453 58.768 56.2016 58.996 55.44 59H54.99C54.1333 59.0033 53.2998 58.7215 52.6209 58.199C51.942 57.6765 51.4562 56.943 51.24 56.114C51.1592 55.8204 51.1129 55.5183 51.102 55.214C50.64 55.4468 50.2855 55.8486 50.112 56.336C49.8542 57.1075 49.3616 57.7792 48.7032 58.2568C48.0448 58.7345 47.2534 58.9944 46.44 59H45.99C45.1333 59.0033 44.2998 58.7215 43.6209 58.199C42.942 57.6765 42.4562 56.943 42.24 56.114C42.1592 55.8204 42.1129 55.5183 42.102 55.214C41.64 55.4468 41.2855 55.8486 41.112 56.336C40.8542 57.1075 40.3616 57.7792 39.7032 58.2568C39.0448 58.7345 38.2534 58.9944 37.44 59H36.99C36.1333 59.0033 35.2998 58.7215 34.6209 58.199C33.942 57.6765 33.4562 56.943 33.24 56.114C33.1592 55.8204 33.1129 55.5183 33.102 55.214C32.64 55.4468 32.2855 55.8486 32.112 56.336C31.8542 57.1075 31.3616 57.7792 30.7032 58.2568C30.0448 58.7345 29.2534 58.9944 28.44 59H27.99C27.1333 59.0033 26.2998 58.7215 25.6209 58.199C24.942 57.6765 24.4562 56.943 24.24 56.114C24.1592 55.8204 24.1129 55.5183 24.102 55.214C23.64 55.4468 23.2855 55.8486 23.112 56.336C22.8542 57.1075 22.3616 57.7792 21.7032 58.2568C21.0448 58.7345 20.2534 58.9944 19.44 59H18.99C18.1333 59.0033 17.2998 58.7215 16.6209 58.199C15.942 57.6765 15.4562 56.943 15.24 56.114C15.1592 55.8204 15.1129 55.5183 15.102 55.214C14.64 55.4468 14.2855 55.8486 14.112 56.336C13.8542 57.1075 13.3616 57.7792 12.7032 58.2568C12.0448 58.7345 11.2534 58.9944 10.44 59H9.99C8.98377 58.9912 8.01929 58.5966 7.29549 57.8975C6.57169 57.1985 6.14377 56.2483 6.1 55.243C5.81517 55.4118 5.57321 55.6442 5.393 55.922C5.16915 56.2923 4.84538 56.592 4.45887 56.7866C4.07236 56.9812 3.6388 57.0628 3.208 57.022L3 57Z" fill="#0096C7"/>
<path d="M32 17C34.2091 17 36 15.2091 36 13C36 10.7909 34.2091 9 32 9C29.7909 9 28 10.7909 28 13C28 15.2091 29.7909 17 32 17Z" fill="#EF5350"/>
<path d="M58 16C57.523 16.0033 57.0538 16.1213 56.632 16.344C56.255 15.5119 55.6042 14.8342 54.7881 14.4239C53.9719 14.0136 53.0398 13.8954 52.1471 14.0891C51.2544 14.2828 50.455 14.7767 49.8824 15.4884C49.3097 16.2 48.9982 17.0865 49 18H47C45.9391 18 44.9217 18.4214 44.1716 19.1716C43.4214 19.9217 43 20.9391 43 22H53C54.009 21.9984 54.9797 21.613 55.715 20.922C56.0392 21.3072 56.4553 21.6044 56.9248 21.7861C57.3944 21.9678 57.9021 22.0282 58.4012 21.9617C58.9002 21.8952 59.3744 21.7039 59.78 21.4055C60.1855 21.1072 60.5092 20.7113 60.7212 20.2547C60.9332 19.798 61.0266 19.2953 60.9928 18.793C60.959 18.2906 60.7991 17.8049 60.5278 17.3808C60.2566 16.9567 59.8827 16.6078 59.4409 16.3664C58.999 16.1251 58.5035 15.999 58 16Z" fill="#ADE8F4"/>
<path d="M55.715 20.922C56.1758 21.47 56.8177 21.8347 57.5244 21.9499C58.2311 22.0651 58.9556 21.9231 59.5665 21.5498C60.1775 21.1765 60.6344 20.5965 60.8543 19.9151C61.0741 19.2337 61.0425 18.496 60.765 17.836C60.614 17.8408 60.4655 17.8756 60.3281 17.9384C60.1908 18.0013 60.0673 18.0909 59.965 18.202C59.7893 18.3977 59.5516 18.5272 59.2919 18.5687C59.0321 18.6102 58.766 18.5612 58.538 18.43C58.0748 18.1476 57.5425 17.9988 57 18C56.914 18 56.828 18 56.744 18.012C56.3936 18.031 56.0434 17.9704 55.7197 17.8348C55.396 17.6992 55.1072 17.4921 54.875 17.229C54.5041 16.84 54.0579 16.5305 53.5637 16.3192C53.0695 16.108 52.5375 15.9994 52 16C51.502 15.9993 51.0084 16.094 50.546 16.279C50.1538 16.4323 49.7311 16.4908 49.312 16.45C49.1059 16.9408 48.9998 17.4677 49 18H47C45.9391 18 44.9217 18.4214 44.1716 19.1716C43.4214 19.9217 43 20.9391 43 22H53C54.009 21.9984 54.9797 21.613 55.715 20.922V20.922Z" fill="#48CAE4"/>
<path d="M17 17C16.523 17.0033 16.0538 17.1213 15.632 17.344C15.255 16.5119 14.6042 15.8342 13.7881 15.4239C12.9719 15.0136 12.0398 14.8954 11.1471 15.0891C10.2544 15.2828 9.45504 15.7767 8.88235 16.4884C8.30967 17.2 7.99824 18.0865 8 19H7C5.93913 19 4.92172 19.4214 4.17157 20.1716C3.42143 20.9217 3 21.9391 3 23H12C13.009 22.9984 13.9797 22.613 14.715 21.922C15.0392 22.3072 15.4553 22.6044 15.9248 22.7861C16.3944 22.9678 16.9021 23.0282 17.4012 22.9617C17.9002 22.8952 18.3744 22.7039 18.78 22.4055C19.1855 22.1072 19.5092 21.7113 19.7212 21.2547C19.9332 20.798 20.0266 20.2953 19.9928 19.793C19.959 19.2906 19.7991 18.8049 19.5278 18.3808C19.2566 17.9567 18.8827 17.6078 18.4409 17.3664C17.999 17.1251 17.5035 16.999 17 17Z" fill="#ADE8F4"/>
<path d="M14.715 21.922C15.1758 22.47 15.8177 22.8347 16.5244 22.9499C17.2311 23.0651 17.9556 22.9231 18.5665 22.5498C19.1775 22.1765 19.6344 21.5965 19.8543 20.9151C20.0741 20.2337 20.0425 19.496 19.765 18.836C19.614 18.8408 19.4655 18.8756 19.3281 18.9384C19.1908 19.0013 19.0673 19.0909 18.965 19.202C18.7893 19.3977 18.5516 19.5272 18.2919 19.5687C18.0321 19.6102 17.766 19.5612 17.538 19.43C17.0748 19.1476 16.5425 18.9988 16 19C15.914 19 15.828 19 15.744 19.012C15.3936 19.031 15.0434 18.9704 14.7197 18.8348C14.396 18.6992 14.1072 18.4921 13.875 18.229C13.5041 17.84 13.0579 17.5305 12.5637 17.3192C12.0695 17.108 11.5375 16.9994 11 17C10.502 16.9993 10.0084 17.094 9.546 17.279C9.15384 17.4323 8.73106 17.4908 8.312 17.45C8.10591 17.9408 7.99983 18.4677 8 19H7C5.93913 19 4.92172 19.4214 4.17157 20.1716C3.42143 20.9217 3 21.9391 3 23H12C13.009 22.9984 13.9797 22.613 14.715 21.922V21.922Z" fill="#48CAE4"/>
<path d="M44 31.6C42.8035 31.5978 41.6238 31.3188 40.553 30.785C39.7585 30.3947 38.8852 30.1917 38 30.1917C37.1149 30.1917 36.2415 30.3947 35.447 30.785C34.3742 31.3115 33.195 31.5852 32 31.5852C30.805 31.5852 29.6258 31.3115 28.553 30.785C27.7585 30.3947 26.8852 30.1917 26 30.1917C25.1149 30.1917 24.2415 30.3947 23.447 30.785C23.329 30.8533 23.1982 30.8967 23.0627 30.9127C22.9272 30.9286 22.7899 30.9166 22.6593 30.8775C22.5286 30.8383 22.4073 30.7729 22.3029 30.6852C22.1984 30.5974 22.1131 30.4892 22.052 30.3673C21.9909 30.2453 21.9554 30.1122 21.9477 29.976C21.94 29.8398 21.9602 29.7035 22.0072 29.5754C22.0541 29.4473 22.1267 29.3302 22.2206 29.2313C22.3145 29.1323 22.4276 29.0536 22.553 29C23.6258 28.4735 24.805 28.1997 26 28.1997C27.195 28.1997 28.3742 28.4735 29.447 29C30.2415 29.3903 31.1149 29.5932 32 29.5932C32.8852 29.5932 33.7585 29.3903 34.553 29C35.6258 28.4735 36.805 28.1997 38 28.1997C39.195 28.1997 40.3742 28.4735 41.447 29C42.2415 29.3903 43.1149 29.5932 44 29.5932C44.8852 29.5932 45.7585 29.3903 46.553 29C47.6245 28.4701 48.8037 28.1945 49.999 28.1945C51.1943 28.1945 52.3735 28.4701 53.445 29C54.2395 29.3927 55.1138 29.597 56 29.597C56.8862 29.597 57.7605 29.3927 58.555 29L60.555 28C60.6726 27.9401 60.8009 27.904 60.9325 27.8939C61.0641 27.8838 61.1964 27.8999 61.3217 27.9412C61.4471 27.9824 61.563 28.0481 61.6629 28.1344C61.7627 28.2207 61.8445 28.3259 61.9035 28.444C61.9625 28.562 61.9975 28.6906 62.0066 28.8223C62.0157 28.9539 61.9986 29.0861 61.9564 29.2111C61.9141 29.3362 61.8475 29.4516 61.7604 29.5508C61.6734 29.6499 61.5675 29.7309 61.449 29.789L59.449 30.789C58.3773 31.3181 57.1982 31.5933 56.003 31.5933C54.8078 31.5933 53.6287 31.3181 52.557 30.789C51.7625 30.3963 50.8882 30.192 50.002 30.192C49.1158 30.192 48.2415 30.3963 47.447 30.789C46.3759 31.3214 45.1962 31.599 44 31.6V31.6Z" fill="#39519D"/>
<path d="M8.00001 31.6C6.80353 31.5978 5.62378 31.3188 4.55301 30.785L2.55301 29.785C2.42759 29.7314 2.31447 29.6526 2.2206 29.5537C2.12672 29.4547 2.05409 29.3376 2.00716 29.2095C1.96023 29.0815 1.94 28.9452 1.9477 28.809C1.95541 28.6728 1.9909 28.5396 2.05198 28.4177C2.11306 28.2957 2.19845 28.1875 2.30289 28.0998C2.40732 28.0121 2.52861 27.9466 2.65928 27.9075C2.78994 27.8684 2.92724 27.8564 3.0627 27.8723C3.19817 27.8882 3.32896 27.9317 3.44701 28L5.44701 29C6.24148 29.3903 7.11485 29.5932 8.00001 29.5932C8.88517 29.5932 9.75855 29.3903 10.553 29C11.6258 28.4735 12.805 28.1997 14 28.1997C15.195 28.1997 16.3742 28.4735 17.447 29C18.0426 29.2977 18.6856 29.4892 19.347 29.566C19.4796 29.5785 19.6084 29.6174 19.7258 29.6803C19.8431 29.7433 19.9468 29.829 20.0305 29.9326C20.1143 30.0361 20.1766 30.1554 20.2136 30.2833C20.2507 30.4112 20.2618 30.5453 20.2464 30.6776C20.2309 30.8099 20.1892 30.9378 20.1236 31.0537C20.0581 31.1697 19.97 31.2713 19.8646 31.3528C19.7592 31.4342 19.6386 31.4938 19.5099 31.528C19.3812 31.5622 19.2469 31.5704 19.115 31.552C18.2237 31.4491 17.3572 31.1909 16.555 30.789C15.7605 30.3987 14.8872 30.1957 14.002 30.1957C13.1169 30.1957 12.2435 30.3987 11.449 30.789C10.3773 31.3216 9.19683 31.5992 8.00001 31.6V31.6Z" fill="#39519D"/>
<path d="M44 35.2001C42.8047 35.2023 41.6251 34.9285 40.553 34.4001C39.7569 34.0155 38.8841 33.8158 38 33.8158C37.1158 33.8158 36.2431 34.0155 35.447 34.4001C34.3722 34.9199 33.1938 35.1898 32 35.1898C30.8061 35.1898 29.6277 34.9199 28.553 34.4001C27.7569 34.0155 26.8841 33.8158 26 33.8158C25.1158 33.8158 24.2431 34.0155 23.447 34.4001C22.3722 34.9199 21.1938 35.1898 20 35.1898C18.8061 35.1898 17.6277 34.9199 16.553 34.4001C15.7569 34.0155 14.8841 33.8158 14 33.8158C13.1158 33.8158 12.2431 34.0155 11.447 34.4001C10.3722 34.9199 9.19384 35.1898 7.99999 35.1898C6.80614 35.1898 5.62774 34.9199 4.55299 34.4001L2.55299 33.4001C2.31562 33.2815 2.13507 33.0735 2.05105 32.8218C1.96704 32.5702 1.98644 32.2954 2.10499 32.0581C2.22354 31.8207 2.43153 31.6401 2.68321 31.5561C2.93488 31.4721 3.20962 31.4915 3.44699 31.6101L5.44699 32.6101C6.24313 32.9946 7.11585 33.1943 7.99999 33.1943C8.88413 33.1943 9.75685 32.9946 10.553 32.6101C11.6277 32.0903 12.8061 31.8203 14 31.8203C15.1938 31.8203 16.3722 32.0903 17.447 32.6101C18.2431 32.9946 19.1158 33.1943 20 33.1943C20.8841 33.1943 21.7569 32.9946 22.553 32.6101C23.6277 32.0903 24.8061 31.8203 26 31.8203C27.1938 31.8203 28.3722 32.0903 29.447 32.6101C30.2431 32.9946 31.1158 33.1943 32 33.1943C32.8841 33.1943 33.7569 32.9946 34.553 32.6101C35.6277 32.0903 36.8061 31.8203 38 31.8203C39.1938 31.8203 40.3722 32.0903 41.447 32.6101C42.2431 32.9946 43.1158 33.1943 44 33.1943C44.8841 33.1943 45.7569 32.9946 46.553 32.6101C47.6246 32.0806 48.8038 31.8053 49.999 31.8053C51.1942 31.8053 52.3734 32.0806 53.445 32.6101C54.2395 33.0028 55.1138 33.207 56 33.207C56.8862 33.207 57.7605 33.0028 58.555 32.6101L60.555 31.6101C60.7924 31.4915 61.0671 31.4721 61.3188 31.5561C61.5704 31.6401 61.7784 31.8207 61.897 32.0581C62.0155 32.2954 62.0349 32.5702 61.9509 32.8218C61.8669 33.0735 61.6864 33.2815 61.449 33.4001L59.449 34.4001C58.3773 34.9292 57.1982 35.2044 56.003 35.2044C54.8078 35.2044 53.6287 34.9292 52.557 34.4001C51.7625 34.0074 50.8882 33.8031 50.002 33.8031C49.1158 33.8031 48.2415 34.0074 47.447 34.4001C46.3749 34.9286 45.1953 35.2024 44 35.2001V35.2001Z" fill="#39519D"/>
<path d="M3 41.19C2.73478 41.19 2.48043 41.0847 2.29289 40.8971C2.10536 40.7096 2 40.4552 2 40.19C2.00204 39.612 2.12081 39.0404 2.34918 38.5094C2.57756 37.9784 2.91083 37.499 3.329 37.1C3.70391 36.7297 4.1513 36.4408 4.64311 36.2515C5.13492 36.0622 5.66054 35.9766 6.187 36C7.10828 36.048 7.98485 36.4122 8.669 37.031C8.77263 37.1242 8.85564 37.238 8.91271 37.3651C8.96978 37.4923 8.99965 37.6299 9.0004 37.7693C9.00115 37.9086 8.97277 38.0466 8.91708 38.1743C8.86139 38.3021 8.77961 38.4167 8.677 38.511C8.63158 38.5413 8.59782 38.5861 8.58128 38.638C8.56474 38.69 8.5664 38.7461 8.586 38.797C8.61413 38.8634 8.66311 38.9188 8.72554 38.9549C8.78796 38.991 8.86043 39.0058 8.932 38.997C9.26728 38.9847 9.59333 38.8839 9.877 38.7047C10.1607 38.5256 10.3918 38.2745 10.547 37.977C10.8457 37.4638 11.2553 37.0239 11.7459 36.6894C12.2365 36.3549 12.7957 36.1343 13.3825 36.0437C13.9693 35.9531 14.569 35.9948 15.1376 36.1658C15.7063 36.3368 16.2295 36.6328 16.669 37.032C16.7726 37.1252 16.8556 37.239 16.9127 37.3661C16.9698 37.4933 16.9996 37.6309 17.0004 37.7703C17.0012 37.9096 16.9728 38.0476 16.9171 38.1753C16.8614 38.3031 16.7796 38.4177 16.677 38.512C16.6316 38.5423 16.5978 38.5871 16.5813 38.639C16.5647 38.691 16.5664 38.7471 16.586 38.798C16.6141 38.8644 16.6631 38.9198 16.7255 38.9559C16.788 38.992 16.8604 39.0068 16.932 38.998C17.2673 38.9857 17.5933 38.8849 17.877 38.7057C18.1607 38.5266 18.3918 38.2755 18.547 37.978C18.8457 37.4648 19.2553 37.0249 19.7459 36.6904C20.2365 36.3559 20.7957 36.1353 21.3825 36.0447C21.9693 35.9541 22.569 35.9958 23.1376 36.1668C23.7063 36.3378 24.2295 36.6338 24.669 37.033C24.7728 37.1268 24.8557 37.2413 24.9125 37.3691C24.9693 37.4969 24.9986 37.6352 24.9986 37.775C24.9986 37.9149 24.9693 38.0532 24.9125 38.181C24.8557 38.3088 24.7728 38.4233 24.669 38.517C24.6283 38.5487 24.5994 38.593 24.5867 38.643C24.574 38.693 24.5783 38.7458 24.599 38.793C24.6281 38.86 24.6781 38.9157 24.7416 38.9518C24.8051 38.9878 24.8786 39.0023 24.951 38.993C25.2825 38.9769 25.604 38.8743 25.8835 38.6954C26.1629 38.5164 26.3907 38.2674 26.544 37.973C26.8427 37.4598 27.2523 37.0199 27.7429 36.6854C28.2335 36.3509 28.7927 36.1303 29.3795 36.0397C29.9663 35.9491 30.566 35.9908 31.1346 36.1618C31.7033 36.3328 32.2265 36.6288 32.666 37.028C32.7696 37.1212 32.8526 37.235 32.9097 37.3621C32.9668 37.4892 32.9966 37.6269 32.9974 37.7663C32.9982 37.9056 32.9698 38.0436 32.9141 38.1713C32.8584 38.2991 32.7766 38.4137 32.674 38.508C32.6286 38.5383 32.5948 38.5831 32.5783 38.635C32.5617 38.687 32.5634 38.7431 32.583 38.794C32.6111 38.8604 32.6601 38.9158 32.7225 38.9519C32.785 38.988 32.8574 39.0028 32.929 38.994C33.2643 38.9817 33.5903 38.8809 33.874 38.7017C34.1577 38.5226 34.3888 38.2715 34.544 37.974C34.8427 37.4608 35.2523 37.0209 35.7429 36.6864C36.2335 36.3519 36.7927 36.1313 37.3795 36.0407C37.9663 35.9501 38.566 35.9918 39.1346 36.1628C39.7033 36.3338 40.2265 36.6298 40.666 37.029C40.7696 37.1222 40.8526 37.236 40.9097 37.3631C40.9668 37.4903 40.9966 37.6279 40.9974 37.7673C40.9982 37.9066 40.9698 38.0446 40.9141 38.1723C40.8584 38.3001 40.7766 38.4147 40.674 38.509C40.6286 38.5393 40.5948 38.5841 40.5783 38.636C40.5617 38.688 40.5634 38.7441 40.583 38.795C40.6111 38.8614 40.6601 38.9168 40.7225 38.9529C40.785 38.989 40.8574 39.0038 40.929 38.995C41.1954 38.9947 41.4512 39.0996 41.6407 39.2869C41.8302 39.4741 41.9381 39.7286 41.941 39.995C41.9423 40.1257 41.9178 40.2554 41.8687 40.3765C41.8197 40.4976 41.7471 40.6079 41.6553 40.7008C41.5635 40.7938 41.4541 40.8676 41.3336 40.9181C41.213 40.9686 41.0837 40.9948 40.953 40.995H40.929C40.4537 41.0025 39.9874 40.8649 39.5922 40.6007C39.197 40.3365 38.8917 39.9581 38.717 39.516C38.5417 39.0663 38.5175 38.5717 38.648 38.107C38.4398 38.0342 38.2206 37.998 38 38C37.6507 38.0008 37.3076 38.0926 37.0046 38.2664C36.7016 38.4402 36.4491 38.6899 36.272 38.991C35.9451 39.5882 35.4663 40.0885 34.884 40.4413C34.3018 40.794 33.6367 40.9868 32.956 41C32.4769 41.0111 32.0059 40.8754 31.6062 40.611C31.2065 40.3466 30.8972 39.9663 30.72 39.521C30.5447 39.0713 30.5205 38.5767 30.651 38.112C30.4421 38.0372 30.2219 37.9993 30 38C29.6507 38.0008 29.3076 38.0926 29.0046 38.2664C28.7016 38.4402 28.4491 38.6899 28.272 38.991C27.9451 39.5882 27.4663 40.0885 26.884 40.4413C26.3018 40.794 25.6367 40.9868 24.956 41C24.479 41.0076 24.011 40.8696 23.6144 40.6045C23.2178 40.3394 22.9114 39.9597 22.736 39.516C22.5619 39.0693 22.5363 38.5784 22.663 38.116C22.4505 38.0389 22.2261 37.9996 22 38C21.6507 38.0008 21.3076 38.0926 21.0046 38.2664C20.7016 38.4402 20.4491 38.6899 20.272 38.991C19.9451 39.5882 19.4663 40.0885 18.884 40.4413C18.3018 40.794 17.6367 40.9868 16.956 41C16.4769 41.0111 16.0059 40.8754 15.6062 40.611C15.2065 40.3466 14.8972 39.9663 14.72 39.521C14.5447 39.0713 14.5205 38.5767 14.651 38.112C14.4421 38.0372 14.2219 37.9993 14 38C13.6507 38.0008 13.3076 38.0926 13.0046 38.2664C12.7016 38.4402 12.4491 38.6899 12.272 38.991C11.9451 39.5882 11.4663 40.0885 10.884 40.4413C10.3018 40.794 9.63667 40.9868 8.956 41C8.4769 41.0111 8.00587 40.8754 7.60617 40.611C7.20647 40.3466 6.89723 39.9663 6.72 39.521C6.54471 39.0713 6.52049 38.5767 6.651 38.112C6.47157 38.0473 6.28352 38.0095 6.093 38C5.83746 37.9919 5.58294 38.036 5.34499 38.1295C5.10704 38.2231 4.89064 38.3641 4.709 38.544C4.48627 38.7567 4.30869 39.012 4.18687 39.2948C4.06505 39.5776 4.00149 39.8821 4 40.19C4 40.4552 3.89464 40.7096 3.70711 40.8971C3.51957 41.0847 3.26522 41.19 3 41.19Z" fill="#39519D"/>
<path d="M56.956 41C56.4769 41.0111 56.0059 40.8754 55.6062 40.611C55.2065 40.3466 54.8972 39.9663 54.72 39.521C54.5447 39.0713 54.5205 38.5767 54.651 38.112C54.4421 38.0372 54.2219 37.9993 54 38C53.6507 38.0008 53.3076 38.0926 53.0046 38.2664C52.7016 38.4402 52.4491 38.6899 52.272 38.991C51.9451 39.5882 51.4663 40.0885 50.884 40.4412C50.3018 40.794 49.6367 40.9868 48.956 41C48.4769 41.0111 48.0059 40.8754 47.6062 40.611C47.2065 40.3466 46.8972 39.9663 46.72 39.521C46.5447 39.0713 46.5205 38.5767 46.651 38.112C46.4421 38.0372 46.2219 37.9993 46 38C45.7183 38 45.4398 38.0595 45.1826 38.1746C44.9255 38.2897 44.6956 38.4579 44.508 38.668C44.4205 38.766 44.3146 38.8457 44.1963 38.9028C44.0781 38.9598 43.9497 38.993 43.8186 39.0004C43.6875 39.0079 43.5562 38.9894 43.4322 38.9461C43.3082 38.9028 43.194 38.8355 43.096 38.748C42.998 38.6605 42.9183 38.5546 42.8612 38.4363C42.8042 38.3181 42.771 38.1897 42.7636 38.0586C42.7561 37.9275 42.7746 37.7962 42.8179 37.6722C42.8612 37.5482 42.9285 37.434 43.016 37.336C43.3659 36.9426 43.7903 36.6225 44.2647 36.3942C44.7391 36.1659 45.2541 36.034 45.7799 36.0061C46.3056 35.9782 46.8317 36.0548 47.3276 36.2316C47.8235 36.4084 48.2795 36.6818 48.669 37.036C48.7726 37.1292 48.8556 37.243 48.9127 37.3701C48.9698 37.4972 48.9996 37.6349 49.0004 37.7742C49.0012 37.9136 48.9728 38.0515 48.9171 38.1793C48.8614 38.307 48.7796 38.4217 48.677 38.516C48.6316 38.5462 48.5978 38.591 48.5813 38.643C48.5647 38.695 48.5664 38.7511 48.586 38.802C48.6141 38.8684 48.6631 38.9238 48.7255 38.9599C48.788 38.996 48.8604 39.0108 48.932 39.002C49.2673 38.9897 49.5933 38.8889 49.877 38.7097C50.1607 38.5305 50.3918 38.2795 50.547 37.982C50.8457 37.4688 51.2553 37.0289 51.7459 36.6944C52.2365 36.3599 52.7957 36.1392 53.3825 36.0487C53.9693 35.9581 54.569 35.9998 55.1376 36.1708C55.7063 36.3418 56.2295 36.6378 56.669 37.037C56.7726 37.1302 56.8556 37.244 56.9127 37.3711C56.9698 37.4982 56.9996 37.6359 57.0004 37.7752C57.0012 37.9146 56.9728 38.0525 56.9171 38.1803C56.8614 38.308 56.7796 38.4227 56.677 38.517C56.6316 38.5472 56.5978 38.592 56.5813 38.644C56.5647 38.696 56.5664 38.7521 56.586 38.803C56.6141 38.8694 56.6631 38.9248 56.7255 38.9609C56.788 38.997 56.8604 39.0118 56.932 39.003C57.2673 38.9907 57.5933 38.8899 57.877 38.7107C58.1607 38.5315 58.3918 38.2805 58.547 37.983C59.0282 37.1767 59.777 36.5648 60.663 36.254C60.9125 36.1655 61.1869 36.1796 61.426 36.2931C61.6651 36.4066 61.8495 36.6103 61.9387 36.8595C62.0279 37.1087 62.0147 37.3831 61.9019 37.6226C61.7891 37.8621 61.586 38.0471 61.337 38.137C60.8927 38.2889 60.5161 38.5923 60.273 38.994C59.9454 39.5906 59.4662 40.0902 58.8838 40.4424C58.3015 40.7946 57.6365 40.9869 56.956 41V41Z" fill="#39519D"/>
<path d="M3 46.19C2.73478 46.19 2.48043 46.0847 2.29289 45.8971C2.10536 45.7096 2 45.4552 2 45.19C2.00204 44.612 2.12081 44.0404 2.34918 43.5094C2.57756 42.9784 2.91083 42.499 3.329 42.1C3.70472 41.7308 4.15225 41.4427 4.64386 41.2535C5.13547 41.0643 5.66069 40.978 6.187 41C7.10828 41.048 7.98485 41.4122 8.669 42.031C8.77263 42.1242 8.85564 42.238 8.91271 42.3651C8.96978 42.4923 8.99965 42.6299 9.0004 42.7693C9.00115 42.9086 8.97277 43.0466 8.91708 43.1743C8.86139 43.3021 8.77961 43.4167 8.677 43.511C8.63158 43.5413 8.59782 43.5861 8.58128 43.638C8.56474 43.69 8.5664 43.7461 8.586 43.797C8.61413 43.8634 8.66311 43.9188 8.72554 43.9549C8.78796 43.991 8.86043 44.0058 8.932 43.997C9.26728 43.9847 9.59333 43.8839 9.877 43.7047C10.1607 43.5256 10.3918 43.2745 10.547 42.977C10.8457 42.4638 11.2553 42.0239 11.7459 41.6894C12.2365 41.3549 12.7957 41.1343 13.3825 41.0437C13.9693 40.9531 14.569 40.9948 15.1376 41.1658C15.7063 41.3368 16.2295 41.6328 16.669 42.032C16.7726 42.1252 16.8556 42.239 16.9127 42.3661C16.9698 42.4933 16.9996 42.6309 17.0004 42.7703C17.0012 42.9096 16.9728 43.0476 16.9171 43.1753C16.8614 43.3031 16.7796 43.4177 16.677 43.512C16.6316 43.5423 16.5978 43.5871 16.5813 43.639C16.5647 43.691 16.5664 43.7471 16.586 43.798C16.6141 43.8644 16.6631 43.9198 16.7255 43.9559C16.788 43.992 16.8604 44.0068 16.932 43.998C17.2673 43.9857 17.5933 43.8849 17.877 43.7057C18.1607 43.5266 18.3918 43.2755 18.547 42.978C18.8457 42.4648 19.2553 42.0249 19.7459 41.6904C20.2365 41.3559 20.7957 41.1353 21.3825 41.0447C21.9693 40.9541 22.569 40.9958 23.1376 41.1668C23.7063 41.3378 24.2295 41.6338 24.669 42.033C24.7728 42.1268 24.8557 42.2413 24.9125 42.3691C24.9693 42.4969 24.9986 42.6352 24.9986 42.775C24.9986 42.9149 24.9693 43.0532 24.9125 43.181C24.8557 43.3088 24.7728 43.4233 24.669 43.517C24.6283 43.5487 24.5994 43.593 24.5867 43.643C24.574 43.693 24.5783 43.7458 24.599 43.793C24.6281 43.86 24.6781 43.9157 24.7416 43.9518C24.8051 43.9878 24.8786 44.0023 24.951 43.993C25.2825 43.9769 25.604 43.8743 25.8835 43.6954C26.1629 43.5164 26.3907 43.2674 26.544 42.973C26.8427 42.4598 27.2523 42.0199 27.7429 41.6854C28.2335 41.3509 28.7927 41.1303 29.3795 41.0397C29.9663 40.9491 30.566 40.9908 31.1346 41.1618C31.7033 41.3328 32.2265 41.6288 32.666 42.028C32.7696 42.1212 32.8526 42.235 32.9097 42.3621C32.9668 42.4892 32.9966 42.6269 32.9974 42.7663C32.9982 42.9056 32.9698 43.0436 32.9141 43.1713C32.8584 43.2991 32.7766 43.4137 32.674 43.508C32.6286 43.5383 32.5948 43.5831 32.5783 43.635C32.5617 43.687 32.5634 43.7431 32.583 43.794C32.6111 43.8604 32.6601 43.9158 32.7225 43.9519C32.785 43.988 32.8574 44.0028 32.929 43.994C33.2643 43.9817 33.5903 43.8809 33.874 43.7017C34.1577 43.5226 34.3888 43.2715 34.544 42.974C34.8427 42.4608 35.2523 42.0209 35.7429 41.6864C36.2335 41.3519 36.7927 41.1313 37.3795 41.0407C37.9663 40.9501 38.566 40.9918 39.1346 41.1628C39.7033 41.3338 40.2265 41.6298 40.666 42.029C40.7696 42.1222 40.8526 42.236 40.9097 42.3631C40.9668 42.4903 40.9966 42.6279 40.9974 42.7673C40.9982 42.9066 40.9698 43.0446 40.9141 43.1723C40.8584 43.3001 40.7766 43.4147 40.674 43.509C40.6286 43.5393 40.5948 43.5841 40.5783 43.636C40.5617 43.688 40.5634 43.7441 40.583 43.795C40.6111 43.8614 40.6601 43.9168 40.7225 43.9529C40.785 43.989 40.8574 44.0038 40.929 43.995C41.2643 43.9827 41.5903 43.8819 41.874 43.7027C42.1577 43.5236 42.3888 43.2725 42.544 42.975C42.8427 42.4618 43.2523 42.0219 43.7429 41.6874C44.2335 41.3529 44.7927 41.1323 45.3795 41.0417C45.9663 40.9511 46.566 40.9928 47.1346 41.1638C47.7033 41.3348 48.2265 41.6308 48.666 42.03C48.7696 42.1232 48.8526 42.237 48.9097 42.3641C48.9668 42.4913 48.9966 42.6289 48.9974 42.7683C48.9982 42.9076 48.9698 43.0456 48.9141 43.1733C48.8584 43.3011 48.7766 43.4157 48.674 43.51C48.6286 43.5403 48.5948 43.5851 48.5783 43.637C48.5617 43.689 48.5634 43.7451 48.583 43.796C48.6111 43.8624 48.6601 43.9178 48.7225 43.9539C48.785 43.99 48.8574 44.0048 48.929 43.996C49.2643 43.9837 49.5903 43.8829 49.874 43.7037C50.1577 43.5246 50.3888 43.2735 50.544 42.976C50.8427 42.4628 51.2523 42.0229 51.7429 41.6884C52.2335 41.3539 52.7927 41.1333 53.3795 41.0427C53.9663 40.9521 54.566 40.9938 55.1346 41.1648C55.7033 41.3358 56.2265 41.6318 56.666 42.031C56.7696 42.1242 56.8526 42.238 56.9097 42.3651C56.9668 42.4923 56.9966 42.6299 56.9974 42.7693C56.9982 42.9086 56.9698 43.0466 56.9141 43.1743C56.8584 43.3021 56.7766 43.4167 56.674 43.511C56.6286 43.5413 56.5948 43.5861 56.5783 43.638C56.5617 43.69 56.5634 43.7461 56.583 43.797C56.6111 43.8634 56.6601 43.9188 56.7225 43.9549C56.785 43.991 56.8574 44.0058 56.929 43.997C57.2643 43.9847 57.5903 43.8839 57.874 43.7047C58.1577 43.5256 58.3888 43.2745 58.544 42.977C59.0252 42.1707 59.774 41.5589 60.66 41.248C60.9095 41.1596 61.1839 41.1736 61.423 41.2871C61.6621 41.4006 61.8465 41.6043 61.9357 41.8535C62.0249 42.1027 62.0117 42.3772 61.8989 42.6166C61.7861 42.8561 61.583 43.0411 61.334 43.131C60.8897 43.2829 60.5131 43.5863 60.27 43.988C59.9434 44.5853 59.4651 45.0858 58.8832 45.4391C58.3013 45.7923 57.6366 45.9858 56.956 46C56.4769 46.0111 56.0059 45.8754 55.6062 45.611C55.2065 45.3466 54.8972 44.9663 54.72 44.521C54.5447 44.0713 54.5205 43.5767 54.651 43.112C54.4421 43.0372 54.2219 42.9993 54 43C53.6507 43.0008 53.3076 43.0926 53.0046 43.2664C52.7016 43.4402 52.4491 43.6899 52.272 43.991C51.9451 44.5882 51.4663 45.0885 50.884 45.4413C50.3018 45.794 49.6367 45.9868 48.956 46C48.4769 46.0111 48.0059 45.8754 47.6062 45.611C47.2065 45.3466 46.8972 44.9663 46.72 44.521C46.5447 44.0713 46.5205 43.5767 46.651 43.112C46.4421 43.0372 46.2219 42.9993 46 43C45.6507 43.0008 45.3076 43.0926 45.0046 43.2664C44.7016 43.4402 44.4491 43.6899 44.272 43.991C43.9451 44.5882 43.4663 45.0885 42.884 45.4413C42.3018 45.794 41.6367 45.9868 40.956 46C40.4769 46.0111 40.0059 45.8754 39.6062 45.611C39.2065 45.3466 38.8972 44.9663 38.72 44.521C38.5447 44.0713 38.5205 43.5767 38.651 43.112C38.4421 43.0372 38.2219 42.9993 38 43C37.6507 43.0008 37.3076 43.0926 37.0046 43.2664C36.7016 43.4402 36.4491 43.6899 36.272 43.991C35.9451 44.5882 35.4663 45.0885 34.884 45.4413C34.3018 45.794 33.6367 45.9868 32.956 46C32.4769 46.0111 32.0059 45.8754 31.6062 45.611C31.2065 45.3466 30.8972 44.9663 30.72 44.521C30.5447 44.0713 30.5205 43.5767 30.651 43.112C30.4421 43.0372 30.2219 42.9993 30 43C29.6507 43.0008 29.3076 43.0926 29.0046 43.2664C28.7016 43.4402 28.4491 43.6899 28.272 43.991C27.9451 44.5882 27.4663 45.0885 26.884 45.4413C26.3018 45.794 25.6367 45.9868 24.956 46C24.479 46.0076 24.011 45.8696 23.6144 45.6045C23.2178 45.3394 22.9114 44.9597 22.736 44.516C22.5619 44.0693 22.5363 43.5784 22.663 43.116C22.4505 43.0389 22.2261 42.9996 22 43C21.6507 43.0008 21.3076 43.0926 21.0046 43.2664C20.7016 43.4402 20.4491 43.6899 20.272 43.991C19.9451 44.5882 19.4663 45.0885 18.884 45.4413C18.3018 45.794 17.6367 45.9868 16.956 46C16.4769 46.0111 16.0059 45.8754 15.6062 45.611C15.2065 45.3466 14.8972 44.9663 14.72 44.521C14.5447 44.0713 14.5205 43.5767 14.651 43.112C14.4421 43.0372 14.2219 42.9993 14 43C13.6507 43.0008 13.3076 43.0926 13.0046 43.2664C12.7016 43.4402 12.4491 43.6899 12.272 43.991C11.9451 44.5882 11.4663 45.0885 10.884 45.4413C10.3018 45.794 9.63667 45.9868 8.956 46C8.4769 46.0111 8.00587 45.8754 7.60617 45.611C7.20647 45.3466 6.89723 44.9663 6.72 44.521C6.54471 44.0713 6.52049 43.5767 6.651 43.112C6.47157 43.0473 6.28352 43.0095 6.093 43C5.83751 42.9924 5.58313 43.0367 5.34525 43.1302C5.10736 43.2237 4.89092 43.3645 4.709 43.544C4.48627 43.7567 4.30869 44.012 4.18687 44.2948C4.06505 44.5776 4.00149 44.8821 4 45.19C4 45.4552 3.89464 45.7096 3.70711 45.8971C3.51957 46.0847 3.26522 46.19 3 46.19Z" fill="#39519D"/>
<path d="M55.44 52H54.99C54.3523 52.0023 53.7319 51.7922 53.2267 51.4029C52.7216 51.0136 52.3603 50.4673 52.2 49.85C52.0271 49.2447 52.0623 48.5989 52.3 48.016C51.6325 47.9536 50.9632 48.1146 50.3971 48.4737C49.831 48.8328 49.4001 49.3696 49.172 50C48.9815 50.5763 48.6159 51.0788 48.1262 51.4373C47.6364 51.7958 47.0469 51.9926 46.44 52H45.99C45.3523 52.0023 44.7319 51.7922 44.2267 51.4029C43.7216 51.0136 43.3603 50.4673 43.2 49.85C43.0271 49.2447 43.0623 48.5989 43.3 48.016C42.6325 47.9531 41.9629 48.1139 41.3967 48.473C40.8305 48.8322 40.3997 49.3693 40.172 50C39.9815 50.5763 39.6159 51.0788 39.1262 51.4373C38.6364 51.7958 38.0469 51.9926 37.44 52H36.99C36.3523 52.0023 35.7319 51.7922 35.2267 51.4029C34.7216 51.0136 34.3603 50.4673 34.2 49.85C34.0271 49.2447 34.0623 48.5989 34.3 48.016C33.6325 47.9535 32.9631 48.1144 32.397 48.4735C31.8308 48.8326 31.4 49.3695 31.172 50C30.9815 50.5763 30.6159 51.0788 30.1262 51.4373C29.6364 51.7958 29.0469 51.9926 28.44 52H27.99C27.3523 52.0023 26.7319 51.7922 26.2267 51.4029C25.7216 51.0136 25.3603 50.4673 25.2 49.85C25.0279 49.2742 25.0515 48.6576 25.2672 48.0967C25.4829 47.5357 25.8785 47.0621 26.392 46.75C26.5923 46.5979 26.8425 46.5269 27.0928 46.551C27.3431 46.5752 27.5751 46.6928 27.7426 46.8803C27.9101 47.0679 28.0008 47.3116 27.9966 47.5631C27.9924 47.8145 27.8937 48.0551 27.72 48.237C27.6293 48.3288 27.5255 48.4066 27.412 48.468C27.2766 48.5584 27.1752 48.6913 27.1239 48.8459C27.0727 49.0004 27.0745 49.1676 27.129 49.321C27.1737 49.5153 27.2834 49.6886 27.44 49.8121C27.5965 49.9356 27.7906 50.0019 27.99 50H28.44C28.6344 49.9891 28.8205 49.9179 28.9727 49.7964C29.1248 49.675 29.2354 49.5091 29.289 49.322C29.533 48.6301 29.9269 48.0006 30.4427 47.4788C30.9584 46.9569 31.5831 46.5555 32.2721 46.3033C32.9611 46.0511 33.6973 45.9544 34.428 46.02C35.1588 46.0857 35.866 46.3121 36.499 46.683C36.6302 46.7586 36.7425 46.863 36.8274 46.9883C36.9124 47.1136 36.9678 47.2565 36.9895 47.4063C37.0111 47.5562 36.9985 47.709 36.9525 47.8532C36.9065 47.9974 36.8284 48.1294 36.724 48.239C36.6333 48.3308 36.5295 48.4086 36.416 48.47C36.2806 48.5604 36.1792 48.6934 36.1279 48.8479C36.0767 49.0024 36.0785 49.1696 36.133 49.323C36.1779 49.5163 36.2872 49.6886 36.4429 49.8116C36.5986 49.9346 36.7916 50.0011 36.99 50H37.44C37.6344 49.9891 37.8205 49.9179 37.9727 49.7964C38.1248 49.675 38.2354 49.5091 38.289 49.322C38.533 48.6301 38.927 48.0006 39.4427 47.4788C39.9584 46.9569 40.5831 46.5555 41.2721 46.3033C41.9611 46.0511 42.6973 45.9544 43.428 46.02C44.1588 46.0857 44.866 46.3121 45.499 46.683C45.6302 46.7586 45.7425 46.863 45.8274 46.9883C45.9124 47.1136 45.9678 47.2565 45.9895 47.4063C46.0111 47.5562 45.9985 47.709 45.9525 47.8532C45.9065 47.9974 45.8284 48.1294 45.724 48.239C45.6333 48.3308 45.5295 48.4086 45.416 48.47C45.2806 48.5604 45.1792 48.6934 45.1279 48.8479C45.0767 49.0024 45.0785 49.1696 45.133 49.323C45.1779 49.5163 45.2872 49.6886 45.4429 49.8116C45.5986 49.9346 45.7916 50.0011 45.99 50H46.44C46.6344 49.9891 46.8205 49.9179 46.9727 49.7964C47.1248 49.675 47.2354 49.5091 47.289 49.322C47.533 48.6301 47.927 48.0006 48.4427 47.4788C48.9584 46.9569 49.5831 46.5555 50.2721 46.3033C50.9611 46.0511 51.6973 45.9544 52.428 46.02C53.1588 46.0857 53.866 46.3121 54.499 46.683C54.6302 46.7586 54.7425 46.863 54.8274 46.9883C54.9124 47.1136 54.9678 47.2565 54.9895 47.4063C55.0111 47.5562 54.9985 47.709 54.9525 47.8532C54.9065 47.9974 54.8284 48.1294 54.724 48.239C54.6333 48.3308 54.5295 48.4086 54.416 48.47C54.2806 48.5604 54.1792 48.6934 54.1279 48.8479C54.0767 49.0024 54.0785 49.1696 54.133 49.323C54.1779 49.5163 54.2872 49.6886 54.4429 49.8116C54.5986 49.9346 54.7916 50.0011 54.99 50H55.44C55.6344 49.9891 55.8205 49.9179 55.9727 49.7964C56.1248 49.675 56.2354 49.5091 56.289 49.322C56.6361 48.3503 57.2751 47.5095 58.1184 46.9149C58.9617 46.3202 59.9681 46.0007 61 46C61.2652 46 61.5196 46.1054 61.7071 46.2929C61.8947 46.4804 62 46.7348 62 47C62 47.2652 61.8947 47.5196 61.7071 47.7071C61.5196 47.8946 61.2652 48 61 48C60.3799 48.001 59.7753 48.1937 59.269 48.5517C58.7627 48.9098 58.3795 49.4157 58.172 50C57.9815 50.5763 57.6159 51.0788 57.1262 51.4373C56.6364 51.7958 56.0469 51.9926 55.44 52V52Z" fill="#39519D"/>
<path d="M3.00004 52.2501C2.73482 52.2501 2.48047 52.1447 2.29293 51.9572C2.10539 51.7696 2.00004 51.5153 2.00004 51.2501C1.97517 49.9549 2.43785 48.6978 3.29635 47.7278C4.15485 46.7577 5.3465 46.1457 6.63504 46.0131C7.6327 45.9479 8.62729 46.18 9.49304 46.6801C9.63729 46.7618 9.75896 46.878 9.84712 47.0184C9.93527 47.1588 9.98713 47.319 9.99804 47.4844C10.009 47.6498 9.97856 47.8153 9.90961 47.9661C9.84066 48.1169 9.73531 48.2481 9.60304 48.3481C9.57304 48.3701 9.50304 48.4221 9.46904 48.4411C9.3198 48.5267 9.2048 48.6613 9.14355 48.8221C9.0823 48.9828 9.07859 49.1599 9.13304 49.3231C9.17794 49.5164 9.28722 49.6887 9.44295 49.8117C9.59867 49.9347 9.79159 50.0011 9.99004 50.0001H10.44C10.6344 49.9891 10.8206 49.918 10.9727 49.7965C11.1248 49.675 11.2354 49.5092 11.289 49.3221C11.533 48.6301 11.927 48.0007 12.4427 47.4788C12.9584 46.9569 13.5831 46.5555 14.2721 46.3034C14.9611 46.0512 15.6973 45.9544 16.4281 46.0201C17.1588 46.0857 17.866 46.3121 18.499 46.6831C18.6302 46.7586 18.7425 46.863 18.8275 46.9883C18.9124 47.1136 18.9678 47.2566 18.9895 47.4064C19.0112 47.5562 18.9985 47.709 18.9525 47.8533C18.9066 47.9975 18.8284 48.1294 18.724 48.2391C18.6333 48.3308 18.5295 48.4087 18.416 48.4701C18.2806 48.5604 18.1792 48.6934 18.128 48.8479C18.0767 49.0025 18.0785 49.1697 18.133 49.3231C18.1779 49.5164 18.2872 49.6887 18.4429 49.8117C18.5987 49.9347 18.7916 50.0011 18.99 50.0001H19.44C19.6344 49.9891 19.8206 49.918 19.9727 49.7965C20.1248 49.675 20.2354 49.5092 20.289 49.3221C20.685 48.2103 21.4615 47.2744 22.481 46.6801C22.5945 46.6096 22.7209 46.5626 22.8529 46.5418C22.9848 46.521 23.1196 46.5268 23.2492 46.559C23.3789 46.5911 23.5007 46.6489 23.6077 46.729C23.7146 46.809 23.8045 46.9096 23.8719 47.0249C23.9393 47.1402 23.9829 47.2679 24.0002 47.4003C24.0174 47.5328 24.008 47.6673 23.9724 47.7961C23.9368 47.9248 23.8758 48.0451 23.7929 48.1499C23.7101 48.2546 23.6071 48.3417 23.49 48.4061C22.8764 48.7652 22.4095 49.3298 22.172 50.0001C21.9816 50.5764 21.6159 51.0788 21.1262 51.4374C20.6364 51.7959 20.047 51.9926 19.44 52.0001H18.99C18.3523 52.0023 17.7319 51.7923 17.2267 51.403C16.7216 51.0137 16.3604 50.4673 16.2 49.8501C16.0271 49.2448 16.0623 48.5989 16.3 48.0161C15.6325 47.9533 14.963 48.1142 14.3969 48.4733C13.8307 48.8324 13.3998 49.3695 13.172 50.0001C12.9816 50.5764 12.6159 51.0788 12.1262 51.4374C11.6364 51.7959 11.047 51.9926 10.44 52.0001H9.99004C9.35228 52.0023 8.73192 51.7923 8.22675 51.403C7.72158 51.0137 7.36036 50.4673 7.20004 49.8501C7.02667 49.2455 7.0619 48.6002 7.30004 48.0181C7.12638 47.9989 6.95135 47.9952 6.77704 48.0071C5.99245 48.1024 5.27208 48.4883 4.75801 49.0886C4.24395 49.689 3.97351 50.4601 4.00004 51.2501C4.00004 51.5153 3.89468 51.7696 3.70714 51.9572C3.51961 52.1447 3.26525 52.2501 3.00004 52.2501Z" fill="#39519D"/>
<path d="M55.44 58H54.99C54.3523 58.0023 53.7319 57.7922 53.2267 57.4029C52.7216 57.0136 52.3603 56.4673 52.2 55.85C52.0271 55.2447 52.0623 54.5989 52.3 54.016C51.6326 53.9543 50.9637 54.1156 50.3977 54.4746C49.8317 54.8336 49.4007 55.37 49.172 56C48.9815 56.5763 48.6159 57.0788 48.1262 57.4373C47.6364 57.7958 47.0469 57.9926 46.44 58H45.99C45.3523 58.0023 44.7319 57.7922 44.2267 57.4029C43.7216 57.0136 43.3603 56.4673 43.2 55.85C43.0271 55.2447 43.0623 54.5989 43.3 54.016C42.7494 53.9602 42.194 54.0576 41.6951 54.2974C41.1963 54.5372 40.7734 54.9101 40.473 55.375C40.3201 55.5751 40.0973 55.7101 39.8491 55.7531C39.6009 55.796 39.3457 55.7438 39.1344 55.6067C38.9231 55.4697 38.7713 55.258 38.7093 55.0139C38.6473 54.7698 38.6797 54.5113 38.8 54.29C39.493 53.2086 40.5776 52.4374 41.8265 52.1378C43.0755 51.8383 44.3919 52.0336 45.5 52.683C45.6312 52.7586 45.7435 52.863 45.8285 52.9883C45.9134 53.1136 45.9688 53.2565 45.9905 53.4063C46.0121 53.5562 45.9995 53.709 45.9535 53.8532C45.9075 53.9974 45.8294 54.1294 45.725 54.239C45.6343 54.3308 45.5305 54.4086 45.417 54.47C45.2816 54.5604 45.1802 54.6934 45.1289 54.8479C45.0777 55.0024 45.0795 55.1696 45.134 55.323C45.1789 55.5161 45.288 55.6883 45.4435 55.8113C45.5991 55.9343 45.7917 56.0008 45.99 56H46.44C46.6344 55.9891 46.8206 55.9179 46.9727 55.7964C47.1248 55.675 47.2354 55.5091 47.289 55.322C47.533 54.6301 47.927 54.0006 48.4427 53.4788C48.9584 52.9569 49.5831 52.5555 50.2721 52.3033C50.9611 52.0511 51.6973 51.9544 52.4281 52.02C53.1588 52.0857 53.866 52.3121 54.499 52.683C54.6302 52.7586 54.7425 52.863 54.8274 52.9883C54.9124 53.1136 54.9678 53.2565 54.9895 53.4063C55.0111 53.5562 54.9985 53.709 54.9525 53.8532C54.9065 53.9974 54.8284 54.1294 54.724 54.239C54.6333 54.3308 54.5295 54.4086 54.416 54.47C54.2806 54.5604 54.1792 54.6934 54.1279 54.8479C54.0767 55.0024 54.0785 55.1696 54.133 55.323C54.1779 55.5163 54.2872 55.6886 54.4429 55.8116C54.5987 55.9346 54.7916 56.0011 54.99 56H55.44C55.6344 55.9891 55.8206 55.9179 55.9727 55.7964C56.1248 55.675 56.2354 55.5091 56.289 55.322C56.6361 54.3503 57.2751 53.5095 58.1184 52.9149C58.9617 52.3202 59.9681 52.0007 61 52C61.2652 52 61.5196 52.1054 61.7071 52.2929C61.8947 52.4804 62 52.7348 62 53C62 53.2652 61.8947 53.5196 61.7071 53.7071C61.5196 53.8946 61.2652 54 61 54C60.3799 54.001 59.7753 54.1937 59.269 54.5517C58.7627 54.9098 58.3795 55.4157 58.172 56C57.9815 56.5763 57.6159 57.0788 57.1262 57.4373C56.6364 57.7958 56.0469 57.9926 55.44 58V58Z" fill="#39519D"/>
<path d="M3.00004 58.2501C2.73482 58.2501 2.48047 58.1447 2.29293 57.9572C2.10539 57.7696 2.00004 57.5153 2.00004 57.2501C1.97517 55.9549 2.43785 54.6978 3.29635 53.7278C4.15485 52.7577 5.3465 52.1457 6.63504 52.0131C7.63274 51.9474 8.62747 52.1795 9.49304 52.6801C9.63729 52.7618 9.75896 52.878 9.84712 53.0184C9.93527 53.1588 9.98713 53.319 9.99804 53.4844C10.009 53.6498 9.97856 53.8153 9.90961 53.9661C9.84066 54.1169 9.73531 54.2481 9.60304 54.3481C9.57304 54.3701 9.50304 54.4221 9.46904 54.4411C9.3198 54.5267 9.2048 54.6613 9.14355 54.8221C9.0823 54.9828 9.07859 55.1599 9.13304 55.3231C9.17794 55.5164 9.28722 55.6887 9.44295 55.8117C9.59867 55.9347 9.79159 56.0011 9.99004 56.0001H10.44C10.6344 55.9891 10.8206 55.918 10.9727 55.7965C11.1248 55.675 11.2354 55.5092 11.289 55.3221C11.533 54.6301 11.927 54.0007 12.4427 53.4788C12.9584 52.9569 13.5831 52.5555 14.2721 52.3034C14.9611 52.0512 15.6973 51.9544 16.4281 52.0201C17.1588 52.0857 17.866 52.3121 18.499 52.6831C18.6302 52.7586 18.7425 52.863 18.8275 52.9883C18.9124 53.1136 18.9678 53.2566 18.9895 53.4064C19.0112 53.5562 18.9985 53.709 18.9525 53.8533C18.9066 53.9975 18.8284 54.1294 18.724 54.2391C18.6333 54.3308 18.5295 54.4087 18.416 54.4701C18.2806 54.5604 18.1792 54.6934 18.128 54.8479C18.0767 55.0025 18.0785 55.1697 18.133 55.3231C18.1779 55.5164 18.2872 55.6887 18.4429 55.8117C18.5987 55.9347 18.7916 56.0011 18.99 56.0001H19.44C19.6344 55.9891 19.8206 55.918 19.9727 55.7965C20.1248 55.675 20.2354 55.5092 20.289 55.3221C20.533 54.6301 20.927 54.0007 21.4427 53.4788C21.9584 52.9569 22.5831 52.5555 23.2721 52.3034C23.9611 52.0512 24.6973 51.9544 25.4281 52.0201C26.1588 52.0857 26.866 52.3121 27.499 52.6831C27.6302 52.7586 27.7425 52.863 27.8275 52.9883C27.9124 53.1136 27.9678 53.2566 27.9895 53.4064C28.0112 53.5562 27.9985 53.709 27.9525 53.8533C27.9066 53.9975 27.8284 54.1294 27.724 54.2391C27.6333 54.3308 27.5295 54.4087 27.416 54.4701C27.2806 54.5604 27.1792 54.6934 27.128 54.8479C27.0767 55.0025 27.0785 55.1697 27.133 55.3231C27.1779 55.5164 27.2872 55.6887 27.4429 55.8117C27.5987 55.9347 27.7916 56.0011 27.99 56.0001H28.44C28.6344 55.9891 28.8206 55.918 28.9727 55.7965C29.1248 55.675 29.2354 55.5092 29.289 55.3221C29.533 54.6301 29.927 54.0007 30.4427 53.4788C30.9584 52.9569 31.5831 52.5555 32.2721 52.3034C32.9611 52.0512 33.6973 51.9544 34.4281 52.0201C35.1588 52.0857 35.866 52.3121 36.499 52.6831C36.6302 52.7586 36.7425 52.863 36.8275 52.9883C36.9124 53.1136 36.9678 53.2566 36.9895 53.4064C37.0112 53.5562 36.9985 53.709 36.9525 53.8533C36.9066 53.9975 36.8284 54.1294 36.724 54.2391C36.6333 54.3308 36.5295 54.4087 36.416 54.4701C36.2806 54.5604 36.1792 54.6934 36.128 54.8479C36.0767 55.0025 36.0785 55.1697 36.133 55.3231C36.1779 55.5164 36.2872 55.6887 36.4429 55.8117C36.5987 55.9347 36.7916 56.0011 36.99 56.0001C37.2553 56.0001 37.5096 56.1054 37.6971 56.2929C37.8847 56.4805 37.99 56.7348 37.99 57.0001C37.99 57.2653 37.8847 57.5196 37.6971 57.7072C37.5096 57.8947 37.2553 58.0001 36.99 58.0001C36.3523 58.0023 35.7319 57.7923 35.2267 57.403C34.7216 57.0137 34.3604 56.4673 34.2 55.8501C34.0271 55.2448 34.0623 54.5989 34.3 54.0161C33.6326 53.9542 32.9636 54.1154 32.3976 54.4744C31.8316 54.8334 31.4006 55.37 31.172 56.0001C30.9816 56.5764 30.6159 57.0788 30.1262 57.4374C29.6364 57.7959 29.047 57.9926 28.44 58.0001H27.99C27.3523 58.0023 26.7319 57.7923 26.2267 57.403C25.7216 57.0137 25.3604 56.4673 25.2 55.8501C25.0271 55.2448 25.0623 54.5989 25.3 54.0161C24.6325 53.9535 23.9632 54.1144 23.397 54.4735C22.8308 54.8326 22.4 55.3696 22.172 56.0001C21.9816 56.5764 21.6159 57.0788 21.1262 57.4374C20.6364 57.7959 20.047 57.9926 19.44 58.0001H18.99C18.3523 58.0023 17.7319 57.7923 17.2267 57.403C16.7216 57.0137 16.3604 56.4673 16.2 55.8501C16.0271 55.2448 16.0623 54.5989 16.3 54.0161C15.6326 53.9539 14.9634 54.1149 14.3973 54.474C13.8312 54.833 13.4003 55.3698 13.172 56.0001C12.9816 56.5764 12.6159 57.0788 12.1262 57.4374C11.6364 57.7959 11.047 57.9926 10.44 58.0001H9.99004C9.35228 58.0023 8.73192 57.7923 8.22675 57.403C7.72158 57.0137 7.36036 56.4673 7.20004 55.8501C7.02667 55.2455 7.0619 54.6002 7.30004 54.0181C7.12638 53.9989 6.95135 53.9952 6.77704 54.0071C5.99245 54.1024 5.27208 54.4883 4.75801 55.0886C4.24395 55.689 3.97351 56.4601 4.00004 57.2501C4.00004 57.5153 3.89468 57.7696 3.70714 57.9572C3.51961 58.1447 3.26525 58.2501 3.00004 58.2501Z" fill="#39519D"/>
<path d="M32 24C31.7771 24 31.5606 23.9255 31.3848 23.7884C31.2091 23.6512 31.0842 23.4593 31.03 23.243C30.9451 22.9038 30.7711 22.5935 30.5259 22.3442C30.2808 22.095 29.9734 21.9157 29.6357 21.8252C29.298 21.7346 28.9422 21.736 28.6052 21.8291C28.2682 21.9223 27.9623 22.1039 27.719 22.355C27.564 22.5151 27.3599 22.6189 27.1391 22.6497C26.9184 22.6806 26.6937 22.6368 26.5006 22.5254C26.3076 22.4139 26.1573 22.2412 26.0737 22.0346C25.9901 21.828 25.9779 21.5994 26.039 21.385C26.135 21.0488 26.1394 20.693 26.0516 20.3546C25.9639 20.0161 25.7872 19.7073 25.54 19.46C25.2928 19.2128 24.9839 19.0362 24.6455 18.9484C24.307 18.8607 23.9512 18.865 23.615 18.961C23.4007 19.0222 23.1721 19.0099 22.9655 18.9263C22.7589 18.8427 22.5861 18.6924 22.4747 18.4994C22.3632 18.3064 22.3195 18.0817 22.3503 17.8609C22.3812 17.6402 22.4849 17.4361 22.645 17.281C22.8962 17.0378 23.0778 16.7318 23.1709 16.3948C23.2641 16.0578 23.2654 15.702 23.1749 15.3643C23.0843 15.0266 22.9051 14.7193 22.6558 14.4741C22.4065 14.229 22.0962 14.0549 21.757 13.97C21.5408 13.9158 21.3489 13.7909 21.2117 13.6152C21.0746 13.4395 21.0001 13.2229 21.0001 13C21.0001 12.7771 21.0746 12.5606 21.2117 12.3848C21.3489 12.2091 21.5408 12.0842 21.757 12.03C22.0962 11.9451 22.4065 11.7711 22.6558 11.5259C22.9051 11.2808 23.0843 10.9734 23.1749 10.6357C23.2654 10.298 23.2641 9.94222 23.1709 9.60522C23.0778 9.26822 22.8962 8.96225 22.645 8.71902C22.4849 8.56396 22.3812 8.35986 22.3503 8.13912C22.3195 7.91838 22.3632 7.69366 22.4747 7.50063C22.5861 7.30761 22.7589 7.15735 22.9655 7.07372C23.1721 6.99008 23.4007 6.97787 23.615 7.03902C23.9512 7.135 24.307 7.13935 24.6455 7.05161C24.9839 6.96387 25.2928 6.78723 25.54 6.53999C25.7872 6.29276 25.9639 5.98391 26.0516 5.64545C26.1394 5.30699 26.135 4.95123 26.039 4.61502C25.9779 4.40068 25.9901 4.17206 26.0737 3.96546C26.1573 3.75886 26.3076 3.58612 26.5006 3.47467C26.6937 3.36322 26.9184 3.31945 27.1391 3.35032C27.3599 3.38118 27.564 3.4849 27.719 3.64502C27.9623 3.89618 28.2682 4.07775 28.6052 4.17091C28.9422 4.26407 29.298 4.26544 29.6357 4.17487C29.9734 4.08429 30.2808 3.90508 30.5259 3.65579C30.7711 3.4065 30.9451 3.09619 31.03 2.75702C31.0842 2.54079 31.2091 2.34887 31.3848 2.21174C31.5606 2.0746 31.7771 2.00012 32 2.00012C32.2229 2.00012 32.4395 2.0746 32.6152 2.21174C32.7909 2.34887 32.9158 2.54079 32.97 2.75702C33.0549 3.09619 33.229 3.4065 33.4741 3.65579C33.7193 3.90508 34.0266 4.08429 34.3643 4.17487C34.702 4.26544 35.0578 4.26407 35.3948 4.17091C35.7318 4.07775 36.0378 3.89618 36.281 3.64502C36.4361 3.4849 36.6402 3.38118 36.8609 3.35032C37.0817 3.31945 37.3064 3.36322 37.4994 3.47467C37.6924 3.58612 37.8427 3.75886 37.9263 3.96546C38.0099 4.17206 38.0222 4.40068 37.961 4.61502C37.865 4.95123 37.8607 5.30699 37.9484 5.64545C38.0362 5.98391 38.2128 6.29276 38.46 6.53999C38.7073 6.78723 39.0161 6.96387 39.3546 7.05161C39.693 7.13935 40.0488 7.135 40.385 7.03902C40.5994 6.97787 40.828 6.99008 41.0346 7.07372C41.2412 7.15735 41.4139 7.30761 41.5254 7.50063C41.6368 7.69366 41.6806 7.91838 41.6497 8.13912C41.6189 8.35986 41.5151 8.56396 41.355 8.71902C41.1039 8.96225 40.9223 9.26822 40.8291 9.60522C40.736 9.94222 40.7346 10.298 40.8252 10.6357C40.9157 10.9734 41.095 11.2808 41.3442 11.5259C41.5935 11.7711 41.9038 11.9451 42.243 12.03C42.4592 12.0842 42.6512 12.2091 42.7883 12.3848C42.9254 12.5606 42.9999 12.7771 42.9999 13C42.9999 13.2229 42.9254 13.4395 42.7883 13.6152C42.6512 13.7909 42.4592 13.9158 42.243 13.97C41.9038 14.0549 41.5935 14.229 41.3442 14.4741C41.095 14.7193 40.9157 15.0266 40.8252 15.3643C40.7346 15.702 40.736 16.0578 40.8291 16.3948C40.9223 16.7318 41.1039 17.0378 41.355 17.281C41.5151 17.4361 41.6189 17.6402 41.6497 17.8609C41.6806 18.0817 41.6368 18.3064 41.5254 18.4994C41.4139 18.6924 41.2412 18.8427 41.0346 18.9263C40.828 19.0099 40.5994 19.0222 40.385 18.961C40.0488 18.865 39.693 18.8607 39.3546 18.9484C39.0161 19.0362 38.7073 19.2128 38.46 19.46C38.2128 19.7073 38.0362 20.0161 37.9484 20.3546C37.8607 20.693 37.865 21.0488 37.961 21.385C38.0222 21.5994 38.0099 21.828 37.9263 22.0346C37.8427 22.2412 37.6924 22.4139 37.4994 22.5254C37.3064 22.6368 37.0817 22.6806 36.8609 22.6497C36.6402 22.6189 36.4361 22.5151 36.281 22.355C36.0378 22.1039 35.7318 21.9223 35.3948 21.8291C35.0578 21.736 34.702 21.7346 34.3643 21.8252C34.0266 21.9157 33.7193 22.095 33.4741 22.3442C33.229 22.5935 33.0549 22.9038 32.97 23.243C32.9158 23.4593 32.791 23.6512 32.6152 23.7884C32.4395 23.9255 32.2229 24 32 24V24ZM29.105 19.754C29.4589 19.7541 29.8113 19.8008 30.153 19.893C30.8572 20.078 31.4965 20.4542 32 20.98C32.5058 20.457 33.1442 20.0813 33.847 19.893C34.5498 19.7048 35.2905 19.711 35.99 19.911C36.1665 19.2052 36.5315 18.5605 37.046 18.046C37.5605 17.5315 38.2052 17.1665 38.911 16.99C38.711 16.2905 38.7048 15.5498 38.893 14.847C39.0813 14.1442 39.457 13.5058 39.98 13C39.457 12.4942 39.0813 11.8558 38.893 11.153C38.7048 10.4503 38.711 9.70953 38.911 9.01002C38.2052 8.8335 37.5605 8.46849 37.046 7.954C36.5315 7.43951 36.1665 6.79488 35.99 6.08902C35.2905 6.28907 34.5498 6.29528 33.847 6.10699C33.1442 5.91871 32.5058 5.543 32 5.02002C31.4942 5.543 30.8558 5.91871 30.153 6.10699C29.4503 6.29528 28.7095 6.28907 28.01 6.08902C27.8335 6.79488 27.4685 7.43951 26.954 7.954C26.4395 8.46849 25.7949 8.8335 25.089 9.01002C25.2891 9.70953 25.2953 10.4503 25.107 11.153C24.9187 11.8558 24.543 12.4942 24.02 13C24.543 13.5058 24.9187 14.1442 25.107 14.847C25.2953 15.5498 25.2891 16.2905 25.089 16.99C25.7949 17.1665 26.4395 17.5315 26.954 18.046C27.4685 18.5605 27.8335 19.2052 28.01 19.911C28.3656 19.8065 28.7344 19.7536 29.105 19.754V19.754Z" fill="#39519D"/>
<path d="M32 18C31.0111 18 30.0444 17.7068 29.2222 17.1574C28.3999 16.6079 27.759 15.8271 27.3806 14.9134C27.0022 13.9998 26.9031 12.9945 27.0961 12.0246C27.289 11.0546 27.7652 10.1637 28.4645 9.46447C29.1637 8.76521 30.0546 8.289 31.0246 8.09608C31.9945 7.90315 32.9998 8.00217 33.9134 8.3806C34.8271 8.75904 35.6079 9.39991 36.1574 10.2222C36.7068 11.0444 37 12.0111 37 13C36.9984 14.3256 36.4711 15.5964 35.5338 16.5338C34.5964 17.4711 33.3256 17.9984 32 18V18ZM32 10C31.4067 10 30.8266 10.1759 30.3333 10.5056C29.8399 10.8352 29.4554 11.3038 29.2284 11.852C29.0013 12.4001 28.9419 13.0033 29.0576 13.5853C29.1734 14.1672 29.4591 14.7018 29.8787 15.1213C30.2982 15.5409 30.8328 15.8266 31.4147 15.9424C31.9967 16.0581 32.5999 15.9987 33.1481 15.7716C33.6962 15.5446 34.1648 15.1601 34.4944 14.6667C34.8241 14.1734 35 13.5933 35 13C35 12.2044 34.6839 11.4413 34.1213 10.8787C33.5587 10.3161 32.7957 10 32 10Z" fill="#39519D"/>
<path d="M58 23C57.1556 22.999 56.3336 22.7282 55.654 22.227C54.8608 22.7317 53.9402 22.9998 53 23C52.7348 23 52.4804 22.8947 52.2929 22.7071C52.1054 22.5196 52 22.2652 52 22C52 21.7348 52.1054 21.4804 52.2929 21.2929C52.4804 21.1054 52.7348 21 53 21C53.7561 20.9974 54.4831 20.7079 55.034 20.19C55.1327 20.0973 55.2494 20.0258 55.3769 19.98C55.5043 19.9343 55.6399 19.9152 55.775 19.924C55.9095 19.9328 56.0409 19.9687 56.1612 20.0295C56.2815 20.0904 56.3882 20.1749 56.475 20.278C56.7157 20.5663 57.033 20.7807 57.3903 20.8964C57.7476 21.0121 58.1303 21.0245 58.4944 20.9321C58.8584 20.8396 59.1889 20.6462 59.4477 20.374C59.7065 20.1019 59.883 19.7621 59.9571 19.3939C60.0311 19.0257 59.9995 18.644 59.8659 18.293C59.7324 17.942 59.5023 17.6359 59.2023 17.41C58.9022 17.1841 58.5444 17.0476 58.1702 17.0163C57.7959 16.985 57.4204 17.0601 57.087 17.233C56.9667 17.2951 56.8351 17.3321 56.7001 17.3418C56.5652 17.3514 56.4296 17.3336 56.3017 17.2894C56.1738 17.2452 56.0562 17.1755 55.9561 17.0845C55.8559 16.9935 55.7753 16.8831 55.719 16.76C55.435 16.1386 54.9471 15.633 54.3362 15.327C53.7252 15.0211 53.0281 14.9332 52.3604 15.078C51.6926 15.2227 51.0945 15.5915 50.6652 16.123C50.2358 16.6545 50.0011 17.3168 50 18C50 18.2652 49.8946 18.5196 49.7071 18.7071C49.5196 18.8947 49.2652 19 49 19H47C46.3797 19.0008 45.7749 19.1934 45.2684 19.5515C44.7619 19.9095 44.3786 20.4155 44.171 21H49C49.2652 21 49.5196 21.1054 49.7071 21.2929C49.8946 21.4804 50 21.7348 50 22C50 22.2652 49.8946 22.5196 49.7071 22.7071C49.5196 22.8947 49.2652 23 49 23H43C42.7348 23 42.4804 22.8947 42.2929 22.7071C42.1054 22.5196 42 22.2652 42 22C42.0016 20.6744 42.5289 19.4036 43.4662 18.4662C44.4036 17.5289 45.6744 17.0016 47 17H48.1C48.294 16.0446 48.7635 15.1669 49.4505 14.4752C50.1375 13.7835 51.0119 13.3081 51.966 13.1075C52.92 12.907 53.9119 12.9901 54.8193 13.3467C55.7266 13.7032 56.5097 14.3176 57.072 15.114C57.3755 15.0381 57.6872 14.9998 58 15C59.0609 15 60.0783 15.4214 60.8284 16.1716C61.5786 16.9217 62 17.9392 62 19C62 20.0609 61.5786 21.0783 60.8284 21.8284C60.0783 22.5786 59.0609 23 58 23Z" fill="#39519D"/>
<path d="M17 24C16.1556 23.999 15.3336 23.7282 14.654 23.227C13.8608 23.7317 12.9402 23.9998 12 24H3C2.73478 24 2.48043 23.8947 2.29289 23.7071C2.10536 23.5196 2 23.2652 2 23C2.00159 21.6744 2.52888 20.4036 3.46622 19.4662C4.40356 18.5289 5.6744 18.0016 7 18H7.1C7.29402 17.0446 7.76349 16.1669 8.45049 15.4752C9.13748 14.7835 10.0119 14.3081 10.966 14.1075C11.92 13.907 12.9119 13.9901 13.8193 14.3467C14.7266 14.7032 15.5097 15.3176 16.072 16.114C16.3755 16.0381 16.6872 15.9998 17 16C18.0609 16 19.0783 16.4214 19.8284 17.1716C20.5786 17.9217 21 18.9392 21 20C21 21.0609 20.5786 22.0783 19.8284 22.8284C19.0783 23.5786 18.0609 24 17 24ZM14.714 20.922H14.775C14.9095 20.9308 15.0409 20.9667 15.1612 21.0275C15.2815 21.0884 15.3882 21.1729 15.475 21.276C15.7157 21.5643 16.033 21.7787 16.3903 21.8944C16.7476 22.0101 17.1303 22.0225 17.4944 21.9301C17.8584 21.8376 18.1889 21.6442 18.4477 21.372C18.7065 21.0999 18.883 20.7601 18.9571 20.3919C19.0311 20.0237 18.9995 19.642 18.8659 19.291C18.7324 18.94 18.5023 18.6339 18.2023 18.408C17.9022 18.1821 17.5444 18.0456 17.1702 18.0143C16.7959 17.983 16.4204 18.0581 16.087 18.231C15.9667 18.2931 15.8351 18.3301 15.7001 18.3398C15.5652 18.3495 15.4296 18.3316 15.3017 18.2874C15.1738 18.2432 15.0562 18.1735 14.9561 18.0825C14.8559 17.9915 14.7753 17.8811 14.719 17.758C14.4349 17.1364 13.9468 16.6307 13.3357 16.3248C12.7246 16.0189 12.0272 15.9311 11.3594 16.0762C10.6915 16.2212 10.0934 16.5903 9.66421 17.1221C9.23504 17.654 9.00067 18.3166 9 19C9 19.2652 8.89464 19.5196 8.70711 19.7071C8.51957 19.8947 8.26522 20 8 20H7C6.37973 20.0008 5.77487 20.1934 5.26839 20.5515C4.7619 20.9095 4.37858 21.4155 4.171 22H12C12.7561 21.9974 13.4831 21.7079 14.034 21.19C14.2187 21.0181 14.4616 20.9224 14.714 20.922V20.922Z" fill="#39519D"/>
<path d="M16 10C15.7348 9.99996 15.4805 9.89456 15.293 9.70701C14.9498 9.36468 14.4848 9.17244 14 9.17244C13.5152 9.17244 13.0503 9.36468 12.707 9.70701C12.5195 9.89449 12.2652 9.9998 12 9.9998C11.7349 9.9998 11.4805 9.89449 11.293 9.70701C10.9498 9.36468 10.4848 9.17244 10 9.17244C9.51525 9.17244 9.05026 9.36468 8.70702 9.70701C8.61477 9.80252 8.50443 9.87871 8.38242 9.93112C8.26042 9.98353 8.1292 10.0111 7.99642 10.0123C7.86364 10.0134 7.73196 9.98812 7.60907 9.93784C7.48617 9.88756 7.37452 9.8133 7.28062 9.71941C7.18673 9.62552 7.11248 9.51387 7.0622 9.39097C7.01192 9.26807 6.98662 9.13639 6.98777 9.00361C6.98892 8.87083 7.01651 8.73961 7.06892 8.61761C7.12133 8.49561 7.19751 8.38526 7.29302 8.29302C7.90166 7.68611 8.69648 7.3012 9.55002 7.20002C10.4036 7.09883 11.2664 7.28724 12 7.73502C12.7337 7.28724 13.5965 7.09883 14.45 7.20002C15.3036 7.3012 16.0984 7.68611 16.707 8.29302C16.8468 8.43287 16.942 8.61103 16.9806 8.80498C17.0192 8.99894 16.9994 9.19997 16.9237 9.38267C16.848 9.56537 16.7199 9.72153 16.5555 9.83142C16.3911 9.9413 16.1978 9.99997 16 10V10Z" fill="#39519D"/>
<path d="M58 10C57.7348 9.99996 57.4805 9.89456 57.293 9.70701C56.9498 9.36468 56.4848 9.17244 56 9.17244C55.5153 9.17244 55.0503 9.36468 54.707 9.70701C54.5195 9.89449 54.2652 9.9998 54 9.9998C53.7349 9.9998 53.4806 9.89449 53.293 9.70701C52.9498 9.36468 52.4848 9.17244 52 9.17244C51.5153 9.17244 51.0503 9.36468 50.707 9.70701C50.5184 9.88917 50.2658 9.98997 50.0036 9.98769C49.7414 9.98541 49.4906 9.88024 49.3052 9.69483C49.1198 9.50943 49.0146 9.25861 49.0124 8.99642C49.0101 8.73422 49.1109 8.48162 49.293 8.29302C49.9017 7.68611 50.6965 7.3012 51.55 7.20002C52.4036 7.09883 53.2664 7.28724 54 7.73502C54.7337 7.28724 55.5965 7.09883 56.45 7.20002C57.3036 7.3012 58.0984 7.68611 58.707 8.29302C58.8469 8.43287 58.9421 8.61103 58.9806 8.80498C59.0192 8.99894 58.9994 9.19997 58.9237 9.38267C58.8481 9.56537 58.7199 9.72153 58.5555 9.83142C58.3911 9.9413 58.1978 9.99997 58 10V10Z" fill="#39519D"/>
</svg>
