<?xml version="1.0" encoding="UTF-8" standalone="no"?> <svg width="512" height="512" viewBox="0 0 512 512" fill="none" xmlns="http://www.w3.org/2000/svg">
<path d="M488 184V456H24V360H176C196.772 360 216.983 353.263 233.6 340.8V340.8C245.523 331.858 255.2 320.263 261.865 306.932C268.53 293.602 272 278.904 272 264V184H488Z" fill="#0296E5"/>
<path d="M264 168V264C264 278.904 260.53 293.602 253.865 306.932C247.2 320.263 237.523 331.858 225.6 340.8V340.8C208.983 353.263 188.772 360 168 360H264C284.772 360 304.983 353.263 321.6 340.8V340.8C333.523 331.858 343.2 320.263 349.865 306.932C356.53 293.602 360 278.904 360 264V168H264Z" fill="#0270AC"/>
<path d="M360 184V264C360 278.904 356.53 293.602 349.865 306.932C343.2 320.263 333.523 331.858 321.6 340.8V340.8C304.983 353.263 284.772 360 264 360H360C380.772 360 400.983 353.263 417.6 340.8V340.8C429.523 331.858 439.2 320.263 445.865 306.932C452.53 293.602 456 278.904 456 264V184H360Z" fill="#0282C7"/>
<path d="M440 136H248C235.27 136 223.061 141.057 214.059 150.059C205.057 159.061 200 171.27 200 184V184C200 196.73 205.057 208.939 214.059 217.941C223.061 226.943 235.27 232 248 232V232C254.305 232.006 260.55 230.769 266.376 228.359C272.203 225.949 277.497 222.414 281.955 217.955C286.414 213.497 289.949 208.203 292.359 202.376C294.769 196.55 296.006 190.305 296 184C296 196.73 301.057 208.939 310.059 217.941C319.061 226.943 331.27 232 344 232C356.73 232 368.939 226.943 377.941 217.941C386.943 208.939 392 196.73 392 184C392 196.73 397.057 208.939 406.059 217.941C415.061 226.943 427.27 232 440 232H488V184C488 171.27 482.943 159.061 473.941 150.059C464.939 141.057 452.73 136 440 136Z" fill="#02A7FF"/>
<path d="M96 400H56C53.8783 400 51.8434 399.157 50.3431 397.657C48.8429 396.157 48 394.122 48 392C48 389.878 48.8429 387.843 50.3431 386.343C51.8434 384.843 53.8783 384 56 384H96C98.1217 384 100.157 384.843 101.657 386.343C103.157 387.843 104 389.878 104 392C104 394.122 103.157 396.157 101.657 397.657C100.157 399.157 98.1217 400 96 400Z" fill="#0270AC"/>
<path d="M200 400H128C125.878 400 123.843 399.157 122.343 397.657C120.843 396.157 120 394.122 120 392C120 389.878 120.843 387.843 122.343 386.343C123.843 384.843 125.878 384 128 384H200C202.122 384 204.157 384.843 205.657 386.343C207.157 387.843 208 389.878 208 392C208 394.122 207.157 396.157 205.657 397.657C204.157 399.157 202.122 400 200 400Z" fill="#0282C7"/>
<path d="M368 400H232C229.878 400 227.843 399.157 226.343 397.657C224.843 396.157 224 394.122 224 392C224 389.878 224.843 387.843 226.343 386.343C227.843 384.843 229.878 384 232 384H368C370.122 384 372.157 384.843 373.657 386.343C375.157 387.843 376 389.878 376 392C376 394.122 375.157 396.157 373.657 397.657C372.157 399.157 370.122 400 368 400Z" fill="#0270AC"/>
<path d="M456 400H400C397.878 400 395.843 399.157 394.343 397.657C392.843 396.157 392 394.122 392 392C392 389.878 392.843 387.843 394.343 386.343C395.843 384.843 397.878 384 400 384H456C458.122 384 460.157 384.843 461.657 386.343C463.157 387.843 464 389.878 464 392C464 394.122 463.157 396.157 461.657 397.657C460.157 399.157 458.122 400 456 400Z" fill="#0282C7"/>
<path d="M128 432H80C77.8783 432 75.8434 431.157 74.3431 429.657C72.8429 428.157 72 426.122 72 424C72 421.878 72.8429 419.843 74.3431 418.343C75.8434 416.843 77.8783 416 80 416H128C130.122 416 132.157 416.843 133.657 418.343C135.157 419.843 136 421.878 136 424C136 426.122 135.157 428.157 133.657 429.657C132.157 431.157 130.122 432 128 432Z" fill="#0270AC"/>
<path d="M320 432H160C157.878 432 155.843 431.157 154.343 429.657C152.843 428.157 152 426.122 152 424C152 421.878 152.843 419.843 154.343 418.343C155.843 416.843 157.878 416 160 416H320C322.122 416 324.157 416.843 325.657 418.343C327.157 419.843 328 421.878 328 424C328 426.122 327.157 428.157 325.657 429.657C324.157 431.157 322.122 432 320 432Z" fill="#0282C7"/>
<path d="M424 432H352C349.878 432 347.843 431.157 346.343 429.657C344.843 428.157 344 426.122 344 424C344 421.878 344.843 419.843 346.343 418.343C347.843 416.843 349.878 416 352 416H424C426.122 416 428.157 416.843 429.657 418.343C431.157 419.843 432 421.878 432 424C432 426.122 431.157 428.157 429.657 429.657C428.157 431.157 426.122 432 424 432Z" fill="#0270AC"/>
<path d="M240 31.9997H229.842C228.372 29.4501 226.227 27.3558 223.643 25.9478C221.059 24.5398 218.137 23.8727 215.198 24.0201C212.259 24.1674 209.417 25.1236 206.987 26.7831C204.557 28.4425 202.632 30.7409 201.425 33.4247C198.618 34.6888 196.235 36.7366 194.563 39.3221C192.891 41.9076 192.001 44.9207 192 47.9997V47.9997C192 52.2432 193.686 56.3128 196.686 59.3134C199.687 62.314 203.757 63.9997 208 63.9997H240C244.243 63.9997 248.313 62.314 251.314 59.3134C254.314 56.3128 256 52.2432 256 47.9997C256 43.7562 254.314 39.6866 251.314 36.686C248.313 33.6854 244.243 31.9997 240 31.9997V31.9997Z" fill="#EAEAE8"/>
<path d="M136 240C134.949 240.001 133.909 239.795 132.938 239.393C131.967 238.991 131.085 238.401 130.343 237.657L128 235.313C126.952 234.26 125.705 233.424 124.332 232.856C122.959 232.287 121.486 231.996 120 232C117.878 232 115.843 231.157 114.343 229.657C112.843 228.157 112 226.122 112 224C112 221.878 112.843 219.844 114.343 218.343C115.843 216.843 117.878 216 120 216C125.746 215.984 131.349 217.794 136 221.169C140.651 217.794 146.254 215.984 152 216C154.122 216 156.157 216.843 157.657 218.343C159.157 219.844 160 221.878 160 224C160 226.122 159.157 228.157 157.657 229.657C156.157 231.157 154.122 232 152 232C150.514 231.996 149.041 232.287 147.668 232.856C146.295 233.424 145.048 234.26 144 235.313L141.657 237.657C140.915 238.401 140.033 238.991 139.062 239.393C138.091 239.795 137.051 240.001 136 240Z" fill="#CBCBCB"/>
<path d="M64 216C62.9492 216.001 61.9085 215.795 60.9377 215.393C59.9669 214.991 59.0851 214.401 58.343 213.657L56 211.313C54.9517 210.26 53.7049 209.424 52.3317 208.856C50.9586 208.287 49.4863 207.996 48 208C45.8783 208 43.8434 207.157 42.3431 205.657C40.8429 204.157 40 202.122 40 200C40 197.878 40.8429 195.844 42.3431 194.343C43.8434 192.843 45.8783 192 48 192C53.7463 191.984 59.3491 193.794 64 197.169C68.6509 193.794 74.2537 191.984 80 192C82.1217 192 84.1566 192.843 85.6569 194.343C87.1571 195.844 88 197.878 88 200C88 202.122 87.1571 204.157 85.6569 205.657C84.1566 207.157 82.1217 208 80 208C78.5137 207.996 77.0414 208.287 75.6683 208.856C74.2951 209.424 73.0483 210.26 72 211.313L69.657 213.657C68.9149 214.401 68.0331 214.991 67.0623 215.393C66.0915 215.795 65.0508 216.001 64 216V216Z" fill="#CBCBCB"/>
<path d="M96 272C94.9492 272.001 93.9085 271.795 92.9377 271.393C91.9669 270.991 91.0851 270.401 90.343 269.657L88 267.313C86.9517 266.26 85.7049 265.424 84.3317 264.856C82.9586 264.287 81.4863 263.996 80 264C77.8783 264 75.8434 263.157 74.3431 261.657C72.8429 260.157 72 258.122 72 256C72 253.878 72.8429 251.844 74.3431 250.343C75.8434 248.843 77.8783 248 80 248C85.7463 247.984 91.3491 249.794 96 253.169C100.651 249.794 106.254 247.984 112 248C114.122 248 116.157 248.843 117.657 250.343C119.157 251.844 120 253.878 120 256C120 258.122 119.157 260.157 117.657 261.657C116.157 263.157 114.122 264 112 264C110.514 263.996 109.041 264.287 107.668 264.856C106.295 265.424 105.048 266.26 104 267.313L101.657 269.657C100.915 270.401 100.033 270.991 99.0623 271.393C98.0915 271.795 97.0508 272.001 96 272V272Z" fill="#CBCBCB"/>
<path d="M120 104.574C133.255 104.574 144 93.829 144 80.5742C144 67.3194 133.255 56.5742 120 56.5742C106.745 56.5742 96 67.3194 96 80.5742C96 93.829 106.745 104.574 120 104.574Z" fill="#FD7422"/>
<path d="M72 88.5742H56C53.8783 88.5742 51.8434 87.7314 50.3431 86.2311C48.8429 84.7308 48 82.696 48 80.5742C48 78.4525 48.8429 76.4177 50.3431 74.9174C51.8434 73.4171 53.8783 72.5742 56 72.5742H72C74.1217 72.5742 76.1566 73.4171 77.6569 74.9174C79.1571 76.4177 80 78.4525 80 80.5742C80 82.696 79.1571 84.7308 77.6569 86.2311C76.1566 87.7314 74.1217 88.5742 72 88.5742Z" fill="#FBB540"/>
<path d="M87.9928 144C86.5891 143.998 85.2105 143.628 83.9953 142.925C82.7802 142.222 81.7713 141.212 81.07 139.996C80.3687 138.781 79.9997 137.401 80 135.998C80.0003 134.594 80.37 133.215 81.0718 132L89.0718 118.144C89.5933 117.226 90.291 116.421 91.1248 115.775C91.9586 115.129 92.9121 114.654 93.9303 114.377C94.9484 114.101 96.0112 114.028 97.0575 114.164C98.1037 114.3 99.1127 114.642 100.026 115.17C100.94 115.697 101.74 116.4 102.381 117.238C103.022 118.076 103.491 119.033 103.761 120.053C104.03 121.073 104.096 122.136 103.953 123.181C103.81 124.227 103.461 125.233 102.928 126.144L94.9278 140C94.2251 141.217 93.2141 142.227 91.9967 142.93C90.7792 143.632 89.3982 144.001 87.9928 144V144Z" fill="#FBB540"/>
<path d="M143.993 47.0074C142.589 47.0062 141.21 46.6356 139.995 45.9329C138.78 45.2303 137.771 44.2202 137.07 43.0043C136.369 41.7884 136 40.4093 136 39.0056C136 37.6019 136.37 36.2231 137.072 35.0074L145.072 21.1514C145.593 20.2343 146.291 19.4293 147.125 18.7829C147.959 18.1365 148.912 17.6614 149.93 17.3849C150.948 17.1085 152.011 17.0362 153.057 17.1722C154.104 17.3082 155.113 17.6498 156.026 18.1773C156.94 18.7048 157.74 19.4079 158.381 20.246C159.022 21.0841 159.491 22.0407 159.761 23.0607C160.03 24.0806 160.096 25.1439 159.953 26.1892C159.81 27.2345 159.461 28.2413 158.928 29.1514L150.928 43.0074C150.225 44.2246 149.214 45.2351 147.997 45.9373C146.779 46.6395 145.398 47.0086 143.993 47.0074Z" fill="#FBB540"/>
<path d="M96.0069 47.0093C94.6014 47.0105 93.2204 46.6414 92.003 45.9392C90.7855 45.237 89.7746 44.2264 89.0719 43.0093L81.0719 29.1533C80.0277 27.3168 79.7524 25.1419 80.3059 23.1032C80.8594 21.0644 82.1968 19.3274 84.0263 18.2711C85.8558 17.2148 88.0288 16.925 90.0712 17.465C92.1136 18.0049 93.8595 19.3308 94.9279 21.1533L102.928 35.0093C103.63 36.2249 103.999 37.6038 104 39.0075C104 40.4112 103.631 41.7902 102.93 43.0062C102.228 44.2221 101.219 45.2321 100.004 45.9348C98.7892 46.6374 97.4105 47.008 96.0069 47.0093V47.0093Z" fill="#FBB540"/>
<path d="M168 88.5742H184C186.122 88.5742 188.157 87.7314 189.657 86.2311C191.157 84.7308 192 82.696 192 80.5742C192 78.4525 191.157 76.4177 189.657 74.9174C188.157 73.4171 186.122 72.5742 184 72.5742H168C165.878 72.5742 163.843 73.4171 162.343 74.9174C160.843 76.4177 160 78.4525 160 80.5742C160 82.696 160.843 84.7308 162.343 86.2311C163.843 87.7314 165.878 88.5742 168 88.5742Z" fill="#FBB540"/>
<path d="M152.007 144C153.411 143.998 154.789 143.628 156.005 142.925C157.22 142.222 158.229 141.212 158.93 139.996C159.631 138.781 160 137.401 160 135.998C160 134.594 159.63 133.215 158.928 132L150.928 118.144C150.407 117.226 149.709 116.421 148.875 115.775C148.041 115.129 147.088 114.654 146.07 114.377C145.052 114.101 143.989 114.028 142.942 114.164C141.896 114.3 140.887 114.642 139.974 115.17C139.06 115.697 138.26 116.4 137.619 117.238C136.978 118.076 136.509 119.033 136.239 120.053C135.97 121.073 135.904 122.136 136.047 123.181C136.19 124.227 136.539 125.233 137.072 126.144L145.072 140C145.775 141.217 146.786 142.227 148.003 142.93C149.221 143.632 150.602 144.001 152.007 144V144Z" fill="#FBB540"/>
<path d="M164 88.5742C160.899 88.5746 157.841 89.2979 155.068 90.6866C152.295 92.0752 149.885 94.0911 148.027 96.5742H128C123.757 96.5742 119.687 98.2599 116.686 101.261C113.686 104.261 112 108.331 112 112.574C112 114.675 112.414 116.756 113.218 118.697C114.022 120.638 115.201 122.402 116.686 123.888C118.172 125.374 119.936 126.552 121.877 127.356C123.818 128.16 125.899 128.574 128 128.574H160C160.623 128.571 161.245 128.532 161.863 128.457C164.566 128.751 167.3 128.49 169.898 127.692C172.497 126.893 174.905 125.573 176.977 123.813C179.048 122.052 180.738 119.887 181.945 117.451C183.152 115.015 183.849 112.359 183.994 109.644C184.14 106.93 183.73 104.214 182.791 101.663C181.852 99.1119 180.402 96.7792 178.531 94.8073C176.659 92.8353 174.406 91.2656 171.907 90.1939C169.409 89.1222 166.718 88.5711 164 88.5742Z" fill="#EAEAE8"/>
</svg>
