<?xml version="1.0" encoding="utf-8"?>
<!-- Generator: Adobe Illustrator 16.0.0, SVG Export Plug-In . SVG Version: 6.00 Build 0)  -->
<!DOCTYPE svg PUBLIC "-//W3C//DTD SVG 1.1//EN" "http://www.w3.org/Graphics/SVG/1.1/DTD/svg11.dtd">
<svg version="1.1" id="Слой_1" xmlns="http://www.w3.org/2000/svg" xmlns:xlink="http://www.w3.org/1999/xlink" x="0px" y="0px"
	 width="512px" height="512px" viewBox="0 0 512 512" enable-background="new 0 0 512 512" xml:space="preserve">
<g id="tsunami">
	<g>
		<path fill="#5E9CEA" d="M511.965,458.646c0,0,6.844-405.416-213.305-405.291c-170.753,0.094-170.651,149.308-170.651,149.308
			s73.31-87.513,148.558-12.281c75.232,75.248-105.895,268.265-105.895,268.265H511.965z"/>
	</g>
	<g>
		<path fill="#4B89DA" d="M298.66,53.354c-71.131,0.031-112.614,25.952-136.801,56.186c25.21-20.14,61.943-34.827,115.473-34.858
			c189.541-0.109,210.822,300.404,213.072,383.964h21.561C511.965,458.646,518.809,53.229,298.66,53.354z"/>
	</g>
	<polygon fill="#46CEAD" points="21.27,351.993 21.27,447.99 149.079,447.99 149.079,351.993 85.323,298.651 	"/>
	<path fill="#646C77" d="M166.875,356.056L92.346,290.62c-4.18-3.656-10.406-3.469-14.359,0.313L3.653,356.056
		c-4.429,3.875-4.882,10.593-1.008,15.03c2.109,2.438,5.063,3.656,8.039,3.656c2.484,0,4.992-0.875,7.016-2.625l67.623-59.279
		l67.498,59.279c2.023,1.75,4.531,2.625,7.023,2.625c2.968,0,5.921-1.219,8.03-3.625C171.75,366.68,171.304,359.931,166.875,356.056
		z"/>
	<path fill="#424953" d="M85.346,394.647c-5.89,0-10.664,4.781-10.664,10.656v37.124c0,5.875,4.773,10.655,10.664,10.655
		c5.891,0,10.672-4.78,10.672-10.655v-37.124C96.018,399.429,91.237,394.647,85.346,394.647z"/>
	<g>
		<path fill="#35BB9B" d="M149.079,458.646H21.27c-5.89,0-10.664-4.781-10.664-10.655c0-5.906,4.773-10.687,10.664-10.687h127.809
			c5.891,0,10.664,4.78,10.664,10.687C159.743,453.864,154.969,458.646,149.079,458.646z"/>
	</g>
</g>
</svg>
