<?xml version="1.0" encoding="iso-8859-1"?>
<!-- Generator: Adobe Illustrator 19.0.0, SVG Export Plug-In . SVG Version: 6.00 Build 0)  -->
<svg xmlns="http://www.w3.org/2000/svg" xmlns:xlink="http://www.w3.org/1999/xlink" version="1.1" id="Layer_1" x="0px" y="0px" viewBox="0 0 512 512" style="enable-background:new 0 0 512 512;" xml:space="preserve">
<path style="fill:#FFA233;" d="M310.426,210.709c9.849-11.929,15.764-27.225,15.764-43.902c0-38.114-30.899-69.012-69.012-69.012  c-38.113,0-69.01,30.898-69.01,69.012c0,16.675,5.917,31.97,15.764,43.902H310.426z"/>
<polyline style="fill:#85C8EB;" points="502.737,458.772 502.737,210.709 9.262,210.709 9.262,468.815 "/>
<path style="fill:#B0E046;" d="M502.737,503.916v-78.192c-7.817-0.421-15.72-0.65-23.712-0.65  c-96.564,0-181.393,31.432-229.804,78.84h253.515V503.916z"/>
<path style="fill:#36CC6B;" d="M101.239,393.346c-32.576,0-63.635,4.22-91.978,11.851v98.718h239.961  c14.913-14.607,33.296-27.689,54.401-38.809C260.704,421.925,186.1,393.346,101.239,393.346z"/>
<g>
	<path style="fill:#231F20;" d="M415.9,174.892h-44.854c-4.466,0-8.084-3.62-8.084-8.084c0-4.466,3.618-8.084,8.084-8.084H415.9   c4.466,0,8.084,3.618,8.084,8.084C423.984,171.272,420.365,174.892,415.9,174.892z"/>
	<path style="fill:#231F20;" d="M143.312,174.892H98.453c-4.465,0-8.084-3.62-8.084-8.084c0-4.466,3.62-8.084,8.084-8.084h44.859   c4.465,0,8.084,3.618,8.084,8.084C151.396,171.272,147.777,174.892,143.312,174.892z"/>
	<path style="fill:#231F20;" d="M337.693,94.375c-2.07,0-4.138-0.789-5.717-2.368c-3.157-3.157-3.157-8.275,0.001-11.432   l31.72-31.719c3.157-3.156,8.276-3.157,11.433,0.001c3.157,3.157,3.157,8.275-0.001,11.433l-31.72,31.719   C341.831,93.585,339.762,94.375,337.693,94.375z"/>
	<path style="fill:#231F20;" d="M257.178,61.023c-4.465,0-8.084-3.618-8.084-8.084V8.084c0-4.465,3.62-8.084,8.084-8.084   c4.466,0,8.084,3.62,8.084,8.084v44.854C265.262,57.404,261.643,61.023,257.178,61.023z"/>
	<path style="fill:#231F20;" d="M176.662,94.377c-2.068,0-4.138-0.789-5.716-2.368l-31.719-31.72c-3.157-3.157-3.157-8.275,0-11.433   c3.157-3.157,8.276-3.156,11.432,0.001l31.719,31.72c3.157,3.157,3.157,8.275,0,11.432C180.8,93.587,178.731,94.377,176.662,94.377   z"/>
	<path style="fill:#231F20;" d="M221.691,187.272c-3.348,0-6.479-2.097-7.637-5.438c-1.665-4.803-2.51-9.835-2.51-14.956   c0-16.104,8.232-30.705,22.02-39.058c3.818-2.313,8.789-1.093,11.102,2.726c2.313,3.819,1.093,8.789-2.726,11.103   c-8.91,5.397-14.228,14.829-14.228,25.228c0,3.313,0.544,6.563,1.617,9.659c1.463,4.219-0.771,8.824-4.99,10.286   C223.463,187.128,222.57,187.272,221.691,187.272z"/>
	<path style="fill:#231F20;" d="M376.115,264.721h89.552c4.465,0,8.084-3.618,8.084-8.084c0-4.466-3.62-8.084-8.084-8.084h-89.552   c-4.466,0-8.084,3.618-8.084,8.084C368.03,261.103,371.649,264.721,376.115,264.721z"/>
	<path style="fill:#231F20;" d="M46.927,264.721h300.805c4.466,0,8.084-3.618,8.084-8.084c0-4.466-3.618-8.084-8.084-8.084H46.927   c-4.465,0-8.084,3.618-8.084,8.084C38.842,261.103,42.461,264.721,46.927,264.721z"/>
	<path style="fill:#231F20;" d="M465.666,294.482H131.433c-4.465,0-8.084,3.618-8.084,8.084s3.62,8.084,8.084,8.084h334.234   c4.465,0,8.084-3.618,8.084-8.084S470.131,294.482,465.666,294.482z"/>
	<path style="fill:#231F20;" d="M465.666,340.411H46.927c-4.465,0-8.084,3.618-8.084,8.084s3.62,8.084,8.084,8.084h418.739   c4.465,0,8.084-3.618,8.084-8.084S470.131,340.411,465.666,340.411z"/>
	<path style="fill:#231F20;" d="M406.67,386.34H238.684c-4.465,0-8.084,3.618-8.084,8.084s3.62,8.084,8.084,8.084h167.987   c4.466,0,8.084-3.618,8.084-8.084S411.135,386.34,406.67,386.34z"/>
	<path style="fill:#231F20;" d="M502.737,202.624H325.432c5.755-10.982,8.842-23.285,8.842-35.817   c0-42.511-34.585-77.096-77.096-77.096c-42.51,0-77.094,34.585-77.094,77.096c0,12.531,3.088,24.835,8.843,35.817H9.262   c-4.465,0-8.084,3.618-8.084,8.084v194.49v63.617v35.101c0,4.466,3.62,8.084,8.084,8.084h239.961h253.515   c4.466,0,8.084-3.618,8.084-8.084v-45.143v-33.048V210.708C510.821,206.243,507.203,202.624,502.737,202.624z M196.252,166.807   c0-33.596,27.331-60.928,60.926-60.928c33.596,0,60.928,27.332,60.928,60.928c0,12.879-4.11,25.458-11.638,35.817H207.89   C200.362,192.264,196.252,179.684,196.252,166.807z M203.933,218.792h106.494h184.227v167.547h-59.973   c-4.466,0-8.084,3.618-8.084,8.084c0,4.466,3.618,8.084,8.084,8.084h59.973v14.773c-5.271-0.186-10.504-0.29-15.627-0.29   c-64.313,0-125.195,13.76-173.964,38.24c-46.586-43.908-122.208-69.968-203.823-69.968c-28.864,0-57.031,3.22-83.894,9.564V310.65   h84.984c4.465,0,8.084-3.618,8.084-8.084s-3.62-8.084-8.084-8.084H17.346v-75.69L203.933,218.792L203.933,218.792z M17.346,468.815   v-57.36c26.753-6.654,54.945-10.024,83.894-10.024c75.276,0,144.836,22.984,188.752,61.922   c-10.113,5.861-19.586,12.229-28.351,19.06c-0.329,0.255-0.661,0.511-0.987,0.767c-1.273,1.005-2.527,2.02-3.769,3.044   c-0.614,0.506-1.229,1.011-1.836,1.522c-0.999,0.842-1.984,1.692-2.962,2.547c-0.793,0.693-1.581,1.387-2.358,2.088   c-0.825,0.743-1.638,1.491-2.447,2.243c-0.435,0.404-0.888,0.801-1.318,1.208H17.346V468.815z M494.653,495.832H270.725   c10.893-8.56,23.156-16.453,36.668-23.571c0.352-0.185,0.681-0.403,0.998-0.635c47.062-24.593,106.994-38.466,170.636-38.466   c5.12,0,10.352,0.098,15.627,0.292v25.322v37.058H494.653z"/>
</g>
<g style="opacity:0.1;">
	<rect x="17.227" y="209.575" style="fill:#231F20;" width="17.246" height="294.341"/>
</g>
<g>
</g>
<g>
</g>
<g>
</g>
<g>
</g>
<g>
</g>
<g>
</g>
<g>
</g>
<g>
</g>
<g>
</g>
<g>
</g>
<g>
</g>
<g>
</g>
<g>
</g>
<g>
</g>
<g>
</g>
</svg>
