<?xml version="1.0" encoding="iso-8859-1"?>
<!-- Generator: Adobe Illustrator 19.0.0, SVG Export Plug-In . SVG Version: 6.00 Build 0)  -->
<svg version="1.1" id="Layer_1" xmlns="http://www.w3.org/2000/svg" xmlns:xlink="http://www.w3.org/1999/xlink" x="0px" y="0px"
	 viewBox="0 0 511.999 511.999" style="enable-background:new 0 0 511.999 511.999;" xml:space="preserve">
<rect id="SVGCleanerId_0" x="238.885" y="180.167" style="fill:#0071CE;" width="34.216" height="294.022"/>
<g>
	<rect id="SVGCleanerId_0_1_" x="238.885" y="180.167" style="fill:#0071CE;" width="34.216" height="294.022"/>
</g>
<rect x="238.885" y="389.698" style="fill:#00B3E3;" width="34.216" height="84.501"/>
<rect x="238.885" y="180.167" style="opacity:0.2;enable-background:new    ;" width="34.216" height="35.986"/>
<path style="fill:#2B3E49;" d="M298.716,482.954v-10.026c0-5.322-4.313-9.635-9.636-9.635h-66.161c-5.322,0-9.636,4.313-9.636,9.635
	v10.026H298.716z"/>
<path style="fill:#A4A9AD;" d="M315.886,67.883c0-33.074-26.812-59.886-59.886-59.886c-33.074,0-59.886,26.811-59.886,59.886
	H315.886z"/>
<path style="opacity:0.2;enable-background:new    ;" d="M315.886,67.883c0-11.593-3.303-22.412-9.008-31.581H205.122
	c-5.703,9.169-9.008,19.987-9.008,31.581H315.886z"/>
<polygon style="fill:#F2D383;" points="315.886,60.396 196.113,60.396 215.065,180.169 296.934,180.169 "/>
<g>
	<path style="fill:#333E48;" d="M315.886,77.457H196.113c-9.422,0-17.06-7.638-17.06-17.06c0-9.422,7.639-17.06,17.06-17.06h119.771
		c9.423,0,17.06,7.639,17.06,17.06C332.946,69.818,325.308,77.457,315.886,77.457z"/>
	<path style="fill:#333E48;" d="M296.934,197.229h-81.869c-9.423,0-17.06-7.638-17.06-17.06c0-9.422,7.638-17.06,17.06-17.06h81.869
		c9.423,0,17.06,7.639,17.06,17.06S306.356,197.229,296.934,197.229z"/>
</g>
<path style="fill:#A4A9AD;" d="M313.068,504.003c2.735,0,4.954-2.219,4.954-4.954v-3.508c0-7.726-6.262-13.99-13.989-13.99h-96.063
	c-7.726,0-13.99,6.264-13.99,13.99v3.508c0,2.735,2.219,4.954,4.955,4.954H313.068z"/>
<g>
	<path style="fill:#FFB819;" d="M129.962,166.201c-3.297,0-6.384-2.055-7.543-5.341c-1.468-4.166,0.719-8.733,4.883-10.201
		l38.496-13.568c4.167-1.468,8.733,0.719,10.201,4.883c1.467,4.166-0.719,8.733-4.885,10.201l-38.496,13.568
		C131.742,166.054,130.845,166.201,129.962,166.201z"/>
	<path style="fill:#FFB819;" d="M168.469,108.834c-0.34,0-0.683-0.022-1.03-0.066l-49.901-6.417
		c-4.38-0.563-7.475-4.571-6.912-8.951c0.563-4.38,4.566-7.472,8.952-6.912l49.901,6.417c4.38,0.563,7.476,4.571,6.912,8.952
		C175.872,105.891,172.432,108.834,168.469,108.834z"/>
	<path style="fill:#FFB819;" d="M382.038,166.201c-0.882,0-1.779-0.147-2.658-0.456l-38.497-13.568
		c-4.165-1.468-6.352-6.035-4.883-10.201c1.467-4.165,6.032-6.352,10.2-4.883l38.497,13.568c4.165,1.468,6.352,6.035,4.883,10.201
		C388.422,164.146,385.334,166.201,382.038,166.201z"/>
	<path style="fill:#FFB819;" d="M343.529,108.834c-3.962,0-7.402-2.944-7.921-6.978c-0.563-4.38,2.531-8.388,6.912-8.952
		l49.902-6.417c4.374-0.554,8.387,2.531,8.951,6.912c0.563,4.38-2.531,8.388-6.913,8.951l-49.902,6.417
		C344.213,108.812,343.87,108.834,343.529,108.834z"/>
</g>
<path style="fill:#1E252B;" d="M340.943,60.396c0-13.817-11.241-25.057-25.057-25.057h-0.303C303.752,13.714,280.899,0,256,0
	c-24.909,0-47.752,13.712-59.582,35.339h-0.304c-13.817,0-25.057,11.241-25.057,25.057c0,12.389,9.041,22.701,20.869,24.701
	l11.531,72.876c-7.986,4.194-13.449,12.566-13.449,22.195c0,13.817,11.241,25.057,25.057,25.057h15.828v250.069h-7.975
	c-9.722,0-17.633,7.91-17.633,17.632v0.807c-10.861,1.33-19.305,10.592-19.305,21.806v3.508c0,7.141,5.81,12.951,12.952,12.951
	h114.134c7.141,0,12.951-5.81,12.951-12.951v-3.508c0-11.215-8.445-20.478-19.305-21.806v-0.807c0-9.722-7.911-17.632-17.633-17.632
	h-7.975V205.226h15.829c13.817,0,25.057-11.241,25.057-25.057c0-9.629-5.462-18.002-13.449-22.195l11.533-72.877
	C331.903,83.096,340.943,72.785,340.943,60.396z M256,15.994c15.894,0,30.697,7.309,40.415,19.345h-80.831
	C225.3,23.302,240.1,15.994,256,15.994z M304.031,489.548c3.304,0,5.992,2.689,5.992,5.993v0.465H201.976v-0.465
	c0-3.304,2.688-5.993,5.993-5.993H304.031z M289.08,471.289c0.904,0,1.639,0.735,1.639,1.638v0.626H221.28v-0.626
	c0-0.903,0.735-1.638,1.639-1.638H289.08z M246.888,455.295V205.226h18.225v250.069H246.888z M296.934,189.232h-81.869
	c-4.998,0-9.063-4.066-9.063-9.063s4.066-9.063,9.063-9.063h81.869c4.998,0,9.063,4.066,9.063,9.063
	S301.931,189.232,296.934,189.232z M212.421,112.285l-4.246-26.831h95.649l-4.246,26.831H212.421z M297.048,128.279l-4.247,26.833
	h-73.604l-4.246-26.833H297.048z M196.113,69.46c-4.998,0-9.063-4.066-9.063-9.063s4.066-9.063,9.063-9.063h119.771
	c4.997,0,9.063,4.066,9.063,9.063s-4.067,9.063-9.063,9.063H196.113z"/>
<g>
</g>
<g>
</g>
<g>
</g>
<g>
</g>
<g>
</g>
<g>
</g>
<g>
</g>
<g>
</g>
<g>
</g>
<g>
</g>
<g>
</g>
<g>
</g>
<g>
</g>
<g>
</g>
<g>
</g>
</svg>
