<?xml version="1.0" encoding="UTF-8"?>
<!DOCTYPE svg PUBLIC "-//W3C//DTD SVG 1.1//EN" "http://www.w3.org/Graphics/SVG/1.1/DTD/svg11.dtd">
<!-- Creator: CorelDRAW -->
<svg xmlns="http://www.w3.org/2000/svg" xml:space="preserve" width="2048px" height="2048px" style="shape-rendering:geometricPrecision; text-rendering:geometricPrecision; image-rendering:optimizeQuality; fill-rule:evenodd; clip-rule:evenodd"
viewBox="0 0 2048 2048"
 xmlns:xlink="http://www.w3.org/1999/xlink">
 <defs>
  <style type="text/css">
   <![CDATA[
    .fil3 {fill:none}
    .fil2 {fill:#565656}
    .fil1 {fill:#6A6A6A}
    .fil0 {fill:#8C8D8D}
   ]]>
  </style>
 </defs>
 <g id="Layer_x0020_1">
  <metadata id="CorelCorpID_0Corel-Layer"/>
  <g id="_308889880">
   <polygon id="_308892352" class="fil0" points="393.348,255.999 504.319,255.999 504.319,259.461 564.067,320.107 639.968,320.107 701.021,258.135 701.021,255.999 811.993,255.999 811.993,259.461 871.74,320.107 947.91,320.107 1008.96,258.135 1008.96,255.999 1119.94,255.999 1119.94,259.461 1179.68,320.107 1253.06,320.107 1314.11,258.135 1314.11,255.999 1425.08,255.999 1425.08,259.461 1484.83,320.107 1560.23,320.107 1621.28,258.135 1621.28,255.999 1732.25,255.999 1732.25,259.461 1792,320.107 1792,1792 1730.95,1730.03 1730.95,1729.82 1621.28,1729.82 1621.28,1730.03 1560.23,1792 1484.83,1792 1483.93,1792 1483.93,1791.09 1423.78,1730.03 1423.78,1729.82 1314.11,1729.82 1314.11,1730.03 1253.06,1792 1179.68,1792 1176.77,1792 1176.77,1789.04 1118.63,1730.03 1118.63,1729.82 1008.96,1729.82 1008.96,1730.03 947.91,1792 871.74,1792 871.616,1792 871.616,1791.87 810.686,1730.03 810.686,1729.82 701.021,1729.82 701.021,1730.03 639.968,1792 564.067,1792 563.674,1792 563.674,1791.6 503.012,1730.03 503.012,1729.82 393.348,1729.82 393.348,1730.03 332.293,1792 255.999,1792 255.999,320.107 332.293,320.107 393.348,258.135 "/>
   <rect id="_308892232" class="fil0" x="256" y="320.107" width="76.293" height="1471.89"/>
   <rect id="_308892112" class="fil1" transform="matrix(-0.381591 0.387329 -0 0.901895 393.347 258.135)" width="159.999" height="1632"/>
   <rect id="_308891992" class="fil1" transform="matrix(0.381591 0.387329 -0 0.901895 503.012 258.135)" width="159.999" height="1632"/>
   <rect id="_308891872" class="fil2" x="393.347" y="255.999" width="110.972" height="1473.82"/>
   <rect id="_308891752" class="fil0" x="563.674" y="320.107" width="76.293" height="1471.89"/>
   <rect id="_308891632" class="fil1" transform="matrix(-0.381591 0.387329 -0 0.901895 701.022 258.135)" width="159.999" height="1632"/>
   <rect id="_308891512" class="fil1" transform="matrix(0.381591 0.387329 -0 0.901895 810.686 258.135)" width="159.999" height="1632"/>
   <rect id="_308891392" class="fil2" x="701.022" y="255.999" width="110.972" height="1473.82"/>
   <rect id="_308891272" class="fil0" x="871.617" y="320.107" width="76.293" height="1471.89"/>
   <rect id="_308891152" class="fil1" transform="matrix(-0.381591 0.387329 -0 0.901895 1008.96 258.135)" width="159.999" height="1632"/>
   <rect id="_308891032" class="fil1" transform="matrix(0.381591 0.387329 -0 0.901895 1118.63 258.135)" width="159.999" height="1632"/>
   <rect id="_308890912" class="fil2" x="1008.96" y="255.999" width="110.972" height="1473.82"/>
   <rect id="_308890792" class="fil0" x="1176.77" y="320.107" width="76.293" height="1471.89"/>
   <rect id="_308890672" class="fil1" transform="matrix(-0.381591 0.387329 -0 0.901895 1314.11 258.135)" width="159.999" height="1632"/>
   <rect id="_308890552" class="fil1" transform="matrix(0.381591 0.387329 -0 0.901895 1423.78 258.135)" width="159.999" height="1632"/>
   <rect id="_308890432" class="fil2" x="1314.11" y="255.999" width="110.972" height="1473.82"/>
   <rect id="_308890312" class="fil0" x="1483.94" y="320.107" width="76.293" height="1471.89"/>
   <rect id="_308890192" class="fil1" transform="matrix(-0.381591 0.387329 -0 0.901895 1621.28 258.135)" width="159.999" height="1632"/>
   <rect id="_308890072" class="fil1" transform="matrix(0.381591 0.387329 -0 0.901895 1730.95 258.135)" width="159.999" height="1632"/>
   <rect id="_308889952" class="fil2" x="1621.28" y="255.999" width="110.972" height="1473.82"/>
  </g>
  <rect class="fil3" width="2048" height="2048"/>
 </g>
</svg>
