<?xml version="1.0" encoding="UTF-8" standalone="no"?> <svg xmlns="http://www.w3.org/2000/svg" viewBox="0 0 64 64"><g id="_12-timber" data-name="12-timber"><polygon points="63 20 38 15 1 52 26 57 63 20" style="fill:#94350f"/><path d="M43,41a1.032,1.032,0,0,1-.111-.006,1,1,0,0,1-.884-1.1c.729-6.56,3.19-11.817,7.316-15.625a1,1,0,1,1,1.356,1.47c-3.761,3.472-6.01,8.308-6.684,14.375A1,1,0,0,1,43,41Z" style="fill:#6f280b"/><polygon points="1 58 1 52 26 57 26 63 1 58" style="fill:#ad9990"/><path d="M22,57a.977.977,0,0,1-.275-.039,1,1,0,0,1-.686-1.236,26.318,26.318,0,0,1,3.44-7.42,1,1,0,0,1,1.663,1.113,24.333,24.333,0,0,0-3.181,6.857A1,1,0,0,1,22,57Z" style="fill:#6f280b"/><path d="M11,55a.976.976,0,0,1-.244-.03,1,1,0,0,1-.727-1.213,40.912,40.912,0,0,1,2.747-7.652,1,1,0,0,1,1.806.861,38.841,38.841,0,0,0-2.613,7.277A1,1,0,0,1,11,55Z" style="fill:#6f280b"/><polygon points="63 6 38 1 1 38 26 43 63 6" style="fill:#6e5f5c"/><polygon points="26 63 63 26 63 20 26 57 26 63" style="fill:#6e5f5c"/><polygon points="26 49 63 12 63 6 26 43 26 49" style="fill:#574d48"/><path d="M35,35l-.072,0A1,1,0,0,1,34,33.929,36.863,36.863,0,0,1,45.535,9.652l6.779-6.38a1,1,0,0,1,1.372,1.456l-6.78,6.38A34.865,34.865,0,0,0,36,34.071,1,1,0,0,1,35,35Z" style="fill:#534745"/><polygon points="1 44 1 38 26 43 26 49 1 44" style="fill:#ad9990"/><path d="M23,43a1.046,1.046,0,0,1-.207-.021,1,1,0,0,1-.773-1.185A69.494,69.494,0,0,1,39.648,8.234l5.627-5.923a1,1,0,0,1,1.45,1.378L41.1,9.612A67.475,67.475,0,0,0,23.979,42.206,1,1,0,0,1,23,43Z" style="fill:#534745"/><path d="M11,41a1,1,0,0,1-.873-1.486A147.945,147.945,0,0,1,34.853,6.733l5.44-5.44a1,1,0,0,1,1.414,1.414l-5.44,5.44A145.976,145.976,0,0,0,11.874,40.486,1,1,0,0,1,11,41Z" style="fill:#534745"/></g></svg>