<?xml version="1.0" encoding="UTF-8"?>
<!DOCTYPE svg PUBLIC "-//W3C//DTD SVG 1.1//EN" "http://www.w3.org/Graphics/SVG/1.1/DTD/svg11.dtd">
<!-- Creator: CorelDRAW -->
<svg xmlns="http://www.w3.org/2000/svg" xml:space="preserve" width="2048px" height="2048px" style="shape-rendering:geometricPrecision; text-rendering:geometricPrecision; image-rendering:optimizeQuality; fill-rule:evenodd; clip-rule:evenodd"
viewBox="0 0 2048 2048"
 xmlns:xlink="http://www.w3.org/1999/xlink">
 <defs>
  <style type="text/css">
   <![CDATA[
    .fil4 {fill:none}
    .fil2 {fill:#767676}
    .fil1 {fill:#9D9D9D}
    .fil0 {fill:#B7B7B7}
    .fil3 {fill:white}
   ]]>
  </style>
 </defs>
 <g id="Layer_x0020_1">
  <metadata id="CorelCorpID_0Corel-Layer"/>
  <g id="_310533072">
   <path id="_460103632" class="fil0" d="M517.979 288.834l107.45 0c137.838,-21.9792 271.609,-32.8796 401.355,-32.8323 129.749,0.046063 255.103,11.0386 376.114,32.8323l129.386 0 33.6792 0 0 32.7485 -0.0011811 114.443c47.2878,197.789 67.6182,392.235 65.9422,583.953 -1.6748,191.57 -25.3099,379.859 -65.9422,565.603l0.0011811 111.431 0 32.7485 -33.6792 0c-15.6366,0 -31.9323,-1.6311 -48.2256,-3.26103 -26.5075,-2.65158 -53.0197,-5.30315 -74.0788,1.47047 -134.971,43.4233 -256.066,64.3961 -379.125,64.0252 -122.942,-0.369685 -247.064,-21.9945 -388.239,-63.7701 -11.2429,-3.32717 -58.8437,-1.18701 -92.23,0.311811 -14.7992,0.66378 -27.2717,1.22362 -32.4071,1.22362l-33.8103 0 0 -32.7485 0 -116.535c-41.0823,-164.445 -65.8678,-338.362 -68.0162,-525.395 -2.14725,-187.055 18.404,-387.046 68.0162,-603.572l0 -129.928 0 -32.7485 33.8103 0z"/>
   <path id="_460103464" class="fil1" d="M1456.83 1724.14c-16.9311,-1.00039 -33.0591,-0.605906 -46.8473,3.82914 -28.8662,9.28702 -57.0945,17.5429 -84.8469,24.7878 -57.9721,-64.728 -19.2603,-86.6788 -17.452,-101.658 -18.0484,-22.6866 -67.7552,-130.85 -63.3107,-147.102l6.50552 3.94725c9.01418,5.46969 40.0607,39.7772 39.4677,59.126 38.6114,21.7925 74.2111,62.9764 84.4453,68.9504 0.884646,6.05079 34.8071,38.8748 37.3937,41.3067 10.0276,9.42875 27.5752,28.1776 44.6445,46.8118z"/>
   <path id="_460103296" class="fil1" d="M1396.19 287.639c2.23937,0.394488 4.47638,0.79252 6.71221,1.19528l129.386 0 33.6792 0 0 0.0578741c-9.74646,5.95985 -20.5559,12.3732 -32.6114,19.3099 -63.5375,36.5575 -71.2796,-29.7544 -128.908,40.2177 -19.702,23.9221 -57.391,60.2552 -98.7627,77.4119 -1.91693,3.48307 45.5918,-87.9036 43.7622,-85.4587 2.1874,-1.23662 21.724,-27.8847 46.7422,-52.7339z"/>
   <path id="_460103128" class="fil1" d="M653.481 1731.13c-2.23937,-0.394488 -4.47638,-0.79252 -6.71221,-1.19528l-129.386 0 -33.6792 0 0 -0.0578741c9.74646,-5.95985 20.5559,-12.3732 32.6114,-19.3099 63.5375,-36.5575 71.2796,29.7544 128.908,-40.2177 19.702,-23.9221 57.391,-60.2552 98.7627,-77.4119 1.91693,-3.48307 -45.5918,87.9036 -43.7622,85.4587 -2.1874,1.23662 -21.724,27.8847 -46.7422,52.7339z"/>
   <path id="_460102960" class="fil1" d="M1567.69 443.302c9.8445,41.7414 18.4902,83.3339 25.9831,124.785 -11.7508,-7.41142 -20.648,-13.3677 -24.9862,-15.0697 -0.884646,-4.06654 -34.8071,-26.1295 -37.3937,-27.7642 -23.7402,-15.0047 -89.6434,-65.1284 -91.5296,-66.1949 1.03701,2.21929 1.02756,-0.0744095 2.10118,3.31063 36.4134,9.64135 43.8981,10.565 80.8394,7.34528 11.8524,-1.03465 54.587,-13.3311 38.8075,-30.4181 1.14685,0.990946 3.42874,2.42008 6.17835,4.0063z"/>
   <path id="_310533984" class="fil1" d="M480.026 1564.78c-9.8445,-41.7414 -18.4902,-83.3339 -25.9831,-124.785 11.7508,7.41142 20.648,13.3677 24.9862,15.0697 0.884646,4.06654 34.8071,26.1295 37.3937,27.7642 23.7402,15.0047 89.6434,65.1284 91.5296,66.1949 -1.03701,-2.21929 -1.02756,0.0744095 -2.10118,-3.31063 -36.4134,-9.64135 -43.8981,-10.565 -80.8394,-7.34528 -11.8524,1.03465 -54.587,13.3311 -38.8075,30.4181 -1.14685,-0.990946 -3.42874,-2.42008 -6.17835,-4.0063z"/>
   <path id="_310533816" class="fil1" d="M575.712 288.834l49.7162 0c30.3425,-4.8378 60.4878,-9.13938 90.4371,-12.9059 67.5721,47.2973 26.041,62.7615 24.1666,73.1965 18.0484,15.248 67.7552,87.9497 63.3107,98.8737l-6.50552 -2.65276c-9.01418,-3.67677 -40.0607,-26.7366 -39.4677,-39.7418 -38.6114,-14.648 -74.2111,-42.3296 -84.4453,-46.3453 -0.884646,-4.06654 -34.8071,-26.1295 -37.3937,-27.7642 -13.0677,-8.25946 -38.9091,-27.1583 -59.8182,-42.6603z"/>
   <path id="_310533648" class="fil2" d="M1622.3 1219.74c-0.817323,9.42757 -1.68425,18.8469 -2.60197,28.2603l-1193.13 0c-0.911812,-9.38741 -1.76929,-18.8067 -2.56654,-28.2603l1198.29 0z"/>
   <path id="_310533480" class="fil2" d="M1623.99 799.999c0.767717,9.42757 1.47992,18.8469 2.13425,28.2603l-1201.59 0c0.79252,-9.38741 1.63937,-18.8079 2.54528,-28.2603l1196.91 0z"/>
   <path id="_310533312" class="fil2" d="M1628.2 861.355c2.96339,53.0894 4.16811,105.959 3.70748,158.623 -0.487796,55.8284 -2.84528,111.378 -6.94016,166.668l-1203.5 0c-2.99882,-43.1433 -4.8,-86.9788 -5.3126,-131.563 -0.724016,-63.0591 1.13622,-127.59 5.81575,-193.728l1206.23 0z"/>
   <path id="_310533144" class="fil3" d="M1327.43 930.536l40.4091 0 0 224.314 38.6551 0 0 -224.314 40.4091 0 0 -37.3855 -119.473 0 0 37.3855zm-647.62 126.737l0 37.3855c0,6.2315 -0.819686,11.1543 -2.45788,14.8925 -1.64055,3.73819 -3.92481,6.4193 -6.913,8.10001 -2.98583,1.68189 -6.55867,2.49213 -10.6583,2.42953 -4.10079,0.0625985 -7.67245,-0.747638 -10.6583,-2.42953 -2.98701,-1.68071 -5.27126,-4.36181 -6.91064,-8.10001 -1.64173,-3.73819 -2.46024,-8.66103 -2.46024,-14.8925l0 -141.318c0.0578741,-9.28465 1.87441,-15.8894 5.38701,-19.9394 3.57284,-3.98622 8.43426,-5.98111 14.6421,-5.85591 6.20788,-0.125197 11.0705,1.86969 14.6421,5.85591 3.51378,4.05 5.32796,10.6547 5.38701,19.9394l0 28.0406 36.5457 0 0 -25.4232c0,-14.0197 -2.16732,-25.9205 -6.49961,-35.7024 -4.33465,-9.78426 -10.7787,-17.198 -19.3276,-22.3689 -8.55119,-5.10945 -19.1504,-7.66418 -31.8024,-7.72796 -12.6496,0.0637796 -23.2512,2.61851 -31.8,7.72796 -8.55119,5.17087 -14.9941,12.5847 -19.3264,22.3689 -4.33465,9.7819 -6.50197,21.6827 -6.50197,35.7024l0 136.084c0,14.0197 2.16732,25.8579 6.50197,35.641 4.33229,9.78308 10.7752,17.2595 19.3264,22.4303 8.54883,5.10945 19.1504,7.66536 31.8,7.72796 12.652,-0.0625985 23.2512,-2.61851 31.8024,-7.72796 8.54883,-5.17087 14.9929,-12.6473 19.3276,-22.4303 4.33229,-9.78308 6.49961,-21.6213 6.49961,-35.641l0 -34.7693 -36.5457 0zm98.7438 -126.737l66.763 0 0 -37.3855 -105.417 0 0 261.699 105.417 0 0 -37.3855 -66.763 0 0 -76.6406 53.0599 0 0 -37.3855 -53.0599 0 0 -72.9024zm144.07 -37.3855l-53.7626 0 0 261.699 33.7335 0 0 -185.06 28.8142 185.06 36.5457 0 26.7059 -187.676 0 187.676 36.5445 0 0 -261.699 -53.7638 0 -26.354 185.806 -28.4634 -185.806zm175.347 37.3855l66.763 0 0 -37.3855 -105.417 0 0 261.699 105.417 0 0 -37.3855 -66.763 0 0 -76.6406 53.0599 0 0 -37.3855 -53.0599 0 0 -72.9024zm173.236 224.314l39.7075 0 0 -261.699 -34.4362 0 0 156.646 -39.7075 -156.646 -48.4926 0 0 261.699 34.7882 0 0 -189.546 48.1406 189.546z"/>
  </g>
  <rect class="fil4" width="2048" height="2048"/>
 </g>
</svg>
