<?xml version="1.0" encoding="iso-8859-1"?>
<!-- Generator: Adobe Illustrator 19.0.0, SVG Export Plug-In . SVG Version: 6.00 Build 0)  -->
<svg xmlns="http://www.w3.org/2000/svg" xmlns:xlink="http://www.w3.org/1999/xlink" version="1.1" id="Layer_1" x="0px" y="0px" viewBox="0 0 512 512" style="enable-background:new 0 0 512 512;" xml:space="preserve">
<path style="fill:#05668D;" d="M157.709,219.805v41.045l1.415,9.85c4.581,31.869,32.326,55.902,64.539,55.902  s59.959-24.033,64.539-55.902l1.415-9.85v-41.045H157.709z"/>
<path style="fill:#679436;" d="M170.307,77.608h-15.894h-16.575c-6.475,0-11.725,5.25-11.725,11.726v9.962  c0,6.476,5.25,11.726,11.726,11.726h16.575h15.892h139.179c6.476,0,11.726-5.25,11.726-11.726v-9.962  c0-6.476-5.25-11.726-11.726-11.726H170.307z"/>
<path style="fill:#05668D;" d="M169.229,162.762V68.109c0-6.648,5.409-12.058,12.058-12.058h84.752  c6.647,0,12.057,5.41,12.057,12.058v94.653H169.229z"/>
<path style="fill:#055F7A;" d="M223.663,95.325V56.051h-42.375c-6.66,0-12.058,5.398-12.058,12.058v94.653h108.867v-39.343h-26.339  C236.241,123.419,223.663,110.841,223.663,95.325z"/>
<path style="fill:#427AA1;" d="M264.671,142.282h-82.015c-13.346,0-24.205,10.859-24.205,24.205v40.468h130.425v-40.468  C288.876,153.141,278.017,142.282,264.671,142.282z"/>
<path style="fill:#999999;" d="M342.771,185.398h-24.848H115.874c-59.829,0-108.328,48.5-108.328,108.328v30.424  c0,7.307,5.924,13.231,13.231,13.231h50.068c7.307,0,13.231-5.924,13.231-13.231v-30.424c0-17.561,14.237-31.798,31.798-31.798  h202.049h24.848H499.46c2.758,0,4.995-2.237,4.995-4.995v-66.541c0-2.758-2.237-4.995-4.995-4.995H342.771z"/>
<path style="fill:#ACACAD;" d="M50.056,296.03c0-42.943,34.813-77.756,77.756-77.756h232.622h24.848h119.173v-27.881  c0-2.758-2.237-4.995-4.995-4.995H342.771h-24.848H115.874c-59.829,0-108.328,48.5-108.328,108.328v30.424  c0,7.307,5.924,13.231,13.231,13.231h29.28V296.03z"/>
<path style="fill:#7F7F7F;" d="M356.464,294.265c-8.146,0-14.771-6.626-14.771-14.771V167.833c0-8.146,6.626-14.771,14.771-14.771  h90.103c8.146,0,14.771,6.626,14.771,14.771v111.661c0,8.146-6.626,14.771-14.771,14.771H356.464z"/>
<path style="fill:#B1D2E5;" d="M40.421,455.949c-18.128,0-32.876-14.749-32.876-32.876c0-13.512,18.327-37.322,26.208-46.932  l2.998-3.655c1.899-2.315,5.441-2.315,7.34,0l2.998,3.655c7.88,9.609,26.208,33.419,26.208,46.932  C73.297,441.201,58.549,455.949,40.421,455.949z"/>
<path style="fill:#94C5DD;" d="M70.405,430.642c-18.128,0-32.876-14.749-32.876-32.876c0-6.173,3.829-14.494,8.735-22.629  l-2.173-2.649c-1.899-2.315-5.441-2.315-7.34,0l-2.998,3.655c-7.88,9.609-26.208,33.419-26.208,46.932  c0,18.127,14.748,32.876,32.876,32.876c15.548,0,28.599-10.851,32.003-25.376C71.755,430.615,71.084,430.642,70.405,430.642z"/>
<path style="fill:#727270;" d="M341.693,218.274v61.22c0,8.146,6.626,14.771,14.771,14.771h90.103  c8.146,0,14.771-6.626,14.771-14.771v-61.22H341.693z"/>
<path d="M503.916,177.853h-35.032v-10.02c0-12.305-10.011-22.317-22.317-22.317h-90.103c-12.305,0-22.317,10.011-22.317,22.317  v10.02h-37.726v-11.365c0-9.475-4.177-17.987-10.779-23.81v-24.109h35.032c4.466,0,8.084-3.618,8.084-8.084V78.147  c0-4.466-3.618-8.084-8.084-8.084h-35.032v-1.954c0-10.81-8.793-19.604-19.604-19.604h-84.752c-10.809,0-19.603,8.793-19.603,19.604  v1.954h-35.032c-4.465,0-8.084,3.618-8.084,8.084v32.337c0,4.466,3.62,8.084,8.084,8.084h35.032v24.109  c-6.602,5.823-10.779,14.335-10.779,23.81v11.365h-35.032C51.98,177.853,0,229.834,0,293.726v43.116c0,4.466,3.62,8.084,8.084,8.084  h75.453c4.465,0,8.084-3.618,8.084-8.084v-43.116c0-13.372,10.879-24.253,24.253-24.253h35.492  c4.036,36.327,34.913,64.674,72.298,64.674s68.262-28.346,72.298-64.674h38.187v10.02c0,12.305,10.012,22.317,22.317,22.317h90.103  c12.305,0,22.317-10.011,22.317-22.317v-10.02h35.032c4.466,0,8.084-3.618,8.084-8.084v-75.453  C512,181.471,508.382,177.853,503.916,177.853z M285.642,86.232h26.947V102.4h-26.947V86.232z M177.853,68.109  c0-1.894,1.541-3.435,3.435-3.435h84.752c1.894,0,3.435,1.541,3.435,3.435v66.628h-91.621V68.109H177.853z M167.074,166.487  c0-8.592,6.99-15.582,15.582-15.582h82.015c8.592,0,15.582,6.99,15.582,15.582v11.365H167.074V166.487z M134.737,102.4V86.232  h26.947V102.4H134.737z M334.147,253.305h-64.783c-4.465,0-8.084,3.62-8.084,8.084l0,0c0,4.465,3.62,8.084,8.084,8.084h10.301  c-3.935,27.386-27.545,48.505-56.003,48.505s-52.067-21.119-56.003-48.505h62.326c4.465,0,8.084-3.62,8.084-8.084l0,0  c0-4.465-3.62-8.084-8.084-8.084H115.874c-22.324,0-40.421,18.097-40.421,40.421v35.032H16.168v-35.032  c0-55.065,44.64-99.705,99.705-99.705h218.274V253.305z M452.716,279.494c0,3.391-2.758,6.148-6.148,6.148h-90.103  c-3.391,0-6.148-2.758-6.148-6.148V167.833c0-3.391,2.758-6.148,6.148-6.148h90.103c3.391,0,6.148,2.758,6.148,6.148V279.494z   M495.832,253.305h-26.947v-59.284h26.947V253.305z"/>
<path d="M40.421,361.095c-2.296,0-4.484,0.975-6.017,2.685C28.659,370.182,0,403.129,0,423.074  c0,22.289,18.132,40.421,40.421,40.421s40.421-18.132,40.421-40.421c0-19.944-28.659-52.891-34.404-59.294  C44.905,362.07,42.717,361.095,40.421,361.095z M40.421,447.326c-13.373,0-24.253-10.88-24.253-24.253  c0-8.616,12.721-27.401,24.253-41.463c11.531,14.062,24.253,32.848,24.253,41.463C64.674,436.446,53.794,447.326,40.421,447.326z"/>
<g>
</g>
<g>
</g>
<g>
</g>
<g>
</g>
<g>
</g>
<g>
</g>
<g>
</g>
<g>
</g>
<g>
</g>
<g>
</g>
<g>
</g>
<g>
</g>
<g>
</g>
<g>
</g>
<g>
</g>
</svg>
