<?xml version="1.0" encoding="UTF-8" standalone="no"?> <svg width="128" height="128" viewBox="0 0 128 128" fill="none" xmlns="http://www.w3.org/2000/svg">
<path d="M40 88H120V120H40" fill="#87EBFF"/>
<path d="M8 80C8 37.4167 8 14.75 8 12C8 9.25001 9.33333 7.91668 12 8.00001C20.0833 8.00001 25.4167 8.00001 28 8.00001C30.5833 8.00001 31.9167 9.33335 32 12V16H52C54.6667 16.0153 56 17.3487 56 20C56 27.688 60 26.375 60 32C60 35.75 60 54.4167 60 88H8V80Z" fill="#ACB9AC"/>
<path d="M60 99.9999C56.8547 98.3999 54.188 99.7332 52 104C53.2447 99.5419 51.9113 96.8752 48 95.9999C44.0887 95.1252 41.422 96.4585 40 99.9999C42.9273 94.9272 42.9273 90.9272 40 87.9999C36.7353 84.7352 32.7353 84.7352 28 87.9999C30.9893 83.9585 30.9893 81.2919 28 79.9999C23.516 78.0629 20 80.1099 20 83.9999C21.104 80.6889 19.311 77.1039 16 75.9999C12.689 74.8959 9.104 76.6889 8 79.9999V120H72C76.013 117.292 76.564 111.405 73.123 108C68.934 103.854 63.328 107.953 60 112C64.156 106.115 64.156 102.115 60 99.9999Z" fill="#10AC4C"/>
<path d="M92 88C92 80.6067 92 73.94 92 68C92 46.29 92 34.29 92 32C92 29.0833 93.3333 27.75 96 28H100C100 25.88 100 23.2133 100 20C100 16.7867 102.667 15.4533 108 16V12C108.042 9.33333 109.375 8 112 8C114.625 8 117.292 8 120 8V88H92Z" fill="#ACB9AC"/>
<path d="M92 88V32C92.026 29.3333 93.3593 28 96 28C96.88 28 98.2133 28 100 28V20C78.63 20 66.63 20 64 20C61.37 20 60.0367 21.3333 60 24V88" fill="#87EBFF"/>
<path d="M12.0626 5.99989C10.386 5.9475 8.73886 6.37053 7.58606 7.52333C6.43325 8.67613 6.00012 10.3017 6.00012 11.9999V79.9561C5.99996 79.9707 5.99996 79.9853 6.00012 79.9999V120C6.00017 120.53 6.2109 121.039 6.58596 121.414C6.96103 121.789 7.4697 122 8.00012 122H20.0001C20.2651 122.004 20.5283 121.955 20.7742 121.856C21.0201 121.757 21.244 121.61 21.4327 121.424C21.6215 121.238 21.7713 121.016 21.8736 120.772C21.9759 120.527 22.0286 120.265 22.0286 120C22.0286 119.735 21.9759 119.472 21.8736 119.228C21.7713 118.983 21.6215 118.762 21.4327 118.576C21.244 118.389 21.0201 118.243 20.7742 118.144C20.5283 118.045 20.2651 117.996 20.0001 118H10.0001V80.4515C10.8347 78.3004 13.1529 77.1584 15.3673 77.8968C16.6119 78.3118 17.5344 79.2217 17.997 80.3327C18.0306 80.5532 18.1008 80.7666 18.2048 80.964C18.3915 81.7292 18.3734 82.5569 18.1032 83.3671C18.0129 83.618 17.9737 83.8843 17.9879 84.1506C18.002 84.4168 18.0692 84.6776 18.1856 84.9175C18.302 85.1574 18.4651 85.3716 18.6655 85.5475C18.8658 85.7234 19.0993 85.8575 19.3523 85.9419C19.6052 86.0263 19.8724 86.0592 20.1383 86.0388C20.4041 86.0184 20.6632 85.9451 20.9003 85.8231C21.1374 85.7011 21.3477 85.533 21.5188 85.3286C21.69 85.1241 21.8186 84.8875 21.897 84.6327C22.32 83.3642 22.4073 82.0625 22.2236 80.8171C23.6181 80.0289 25.3895 80.2174 26.5861 81.414C28.0289 82.8568 28.0289 85.143 26.5861 86.5858C26.3941 86.7701 26.2409 86.9909 26.1353 87.2351C26.0298 87.4794 25.974 87.7422 25.9713 88.0083C25.9686 88.2744 26.019 88.5383 26.1196 88.7847C26.2202 89.031 26.3689 89.2548 26.557 89.443C26.7452 89.6311 26.969 89.7799 27.2153 89.8804C27.4617 89.981 27.7256 90.0314 27.9917 90.0287C28.2578 90.026 28.5206 89.9703 28.7649 89.8647C29.0092 89.7591 29.2299 89.6059 29.4142 89.414C31.9103 86.9178 35.8797 86.8767 38.4329 89.2765C38.5151 89.3757 38.6067 89.4667 38.7064 89.5483C41.1239 92.1008 41.0883 96.0836 38.5861 98.5858C38.3941 98.7701 38.2409 98.9909 38.1353 99.2351C38.0298 99.4794 37.974 99.7422 37.9713 100.008C37.9686 100.274 38.019 100.538 38.1196 100.785C38.2202 101.031 38.3689 101.255 38.557 101.443C38.7452 101.631 38.969 101.78 39.2153 101.88C39.4617 101.981 39.7256 102.031 39.9917 102.029C40.2578 102.026 40.5206 101.97 40.7649 101.865C41.0092 101.759 41.2299 101.606 41.4142 101.414C42.3645 100.464 43.0835 99.3683 43.5907 98.2015C43.6453 98.164 43.698 98.1238 43.7486 98.0811C45.552 96.6102 47.9076 96.6102 49.7111 98.0811V98.0843C50.8135 98.983 51.4106 100.158 51.4782 101.442C51.4555 101.619 51.4566 101.798 51.4814 101.975C51.4532 102.425 51.366 102.886 51.2064 103.35C51.121 103.598 51.0854 103.861 51.1017 104.123C51.1179 104.386 51.1856 104.642 51.301 104.878C51.4163 105.114 51.577 105.325 51.7739 105.499C51.9708 105.673 52.2001 105.807 52.4486 105.892C52.697 105.977 52.9599 106.013 53.2221 105.997C53.4844 105.981 53.7408 105.913 53.9769 105.797C54.213 105.682 54.424 105.521 54.598 105.325C54.7719 105.128 54.9054 104.898 54.9907 104.65C55.2273 103.961 55.3706 103.259 55.4329 102.558C56.5415 101.627 57.8989 101.391 59.347 101.891C61.3556 102.584 62.4617 104.519 62.0392 106.601C62.0276 106.661 62.0187 106.722 62.0126 106.783C60.6401 107.995 59.605 109.613 59.1704 111.564C59.1129 111.82 59.1065 112.086 59.1516 112.345C59.1967 112.604 59.2924 112.851 59.4332 113.073C59.5739 113.295 59.7571 113.487 59.9722 113.638C60.1872 113.789 60.4299 113.897 60.6865 113.954C60.943 114.011 61.2083 114.017 61.4672 113.972C61.7261 113.927 61.9736 113.831 62.1954 113.69C62.4172 113.549 62.6091 113.366 62.7601 113.15C62.911 112.935 63.0181 112.692 63.0751 112.436C63.9033 108.718 68.9298 107.042 71.822 109.519C74.4283 111.751 74.0581 116.092 71.2736 118H32.0001C31.7351 117.996 31.472 118.045 31.226 118.144C30.9801 118.243 30.7563 118.389 30.5675 118.576C30.3788 118.762 30.2289 118.983 30.1266 119.228C30.0243 119.472 29.9716 119.735 29.9716 120C29.9716 120.265 30.0243 120.527 30.1266 120.772C30.2289 121.016 30.3788 121.238 30.5675 121.424C30.7563 121.61 30.9801 121.757 31.226 121.856C31.472 121.955 31.7351 122.004 32.0001 122H72.0001H120C120.531 122 121.039 121.789 121.414 121.414C121.789 121.039 122 120.53 122 120V112.323C122.035 112.109 122.035 111.891 122 111.676V87.9999V68.3233C122.035 68.1091 122.035 67.8907 122 67.6765V48.3233C122.035 48.1091 122.035 47.8907 122 47.6765V36.3233C122.035 36.1091 122.035 35.8907 122 35.6765V7.99989C122 7.46948 121.789 6.9608 121.414 6.58574C121.039 6.21068 120.531 5.99995 120 5.99989H112C110.349 5.99989 108.748 6.45519 107.617 7.58583C106.487 8.71648 106.026 10.3073 106 11.9686C106 11.9791 106 11.9895 106 11.9999V13.9999H104C102.333 13.9999 100.724 14.4478 99.5861 15.5858C98.9169 16.255 98.4913 17.089 98.2501 17.9999H64.0001C62.3471 17.9999 60.7442 18.4542 59.6126 19.5858C58.481 20.7174 58.023 22.3098 58.0001 23.9718V19.9999C58.0003 19.9843 58.0003 19.9686 58.0001 19.953C57.9611 18.2944 57.4943 16.7128 56.3673 15.5858C55.2403 14.4588 53.6435 13.9999 52.0001 13.9999H34.0001V11.9686V11.9374C33.9484 10.2816 33.475 8.70917 32.3517 7.58583C31.2283 6.46249 29.6359 5.99989 28.0001 5.99989H12.0626ZM11.9376 9.99989H11.9689H28.0001C28.9477 9.99989 29.3136 10.204 29.5236 10.414C29.7335 10.624 29.9685 11.0515 30.0001 12.0624V13.9999H24.0001C23.7351 13.9961 23.472 14.0451 23.226 14.1439C22.9801 14.2428 22.7563 14.3895 22.5675 14.5756C22.3788 14.7617 22.2289 14.9834 22.1266 15.2279C22.0243 15.4724 21.9716 15.7348 21.9716 15.9999C21.9716 16.2649 22.0243 16.5274 22.1266 16.7719C22.2289 17.0164 22.3788 17.2381 22.5675 17.4242C22.7563 17.6103 22.9801 17.757 23.226 17.8559C23.472 17.9547 23.7351 18.0036 24.0001 17.9999H31.6767C31.8909 18.035 32.1094 18.035 32.3236 17.9999H52.0001C52.9608 17.9999 53.3328 18.2076 53.5392 18.414C53.7455 18.6203 53.9764 19.0387 54.0001 20.0468V25.9999H44.0001C43.7351 25.9961 43.472 26.0451 43.226 26.1439C42.9801 26.2428 42.7563 26.3895 42.5675 26.5756C42.3788 26.7617 42.2289 26.9834 42.1266 27.2279C42.0243 27.4724 41.9716 27.7348 41.9716 27.9999C41.9716 28.2649 42.0243 28.5274 42.1266 28.7719C42.2289 29.0164 42.3788 29.2381 42.5675 29.4242C42.7563 29.6103 42.9801 29.757 43.226 29.8559C43.472 29.9547 43.7351 30.0036 44.0001 29.9999H55.6767C55.8909 30.035 56.1094 30.035 56.3236 29.9999H58.0001V37.9999H44.0001C42.3644 37.9999 40.7719 38.4625 39.6486 39.5858C38.5252 40.7092 38.0519 42.2816 38.0001 43.9374V43.9686V45.9999H28.0001C27.7351 45.9961 27.472 46.0451 27.226 46.1439C26.9801 46.2428 26.7563 46.3895 26.5675 46.5756C26.3788 46.7617 26.2289 46.9834 26.1266 47.2279C26.0243 47.4724 25.9716 47.7348 25.9716 47.9999C25.9716 48.2649 26.0243 48.5274 26.1266 48.7719C26.2289 49.0164 26.3788 49.2381 26.5675 49.4242C26.7563 49.6103 26.9801 49.757 27.226 49.8559C27.472 49.9547 27.7351 50.0036 28.0001 49.9999H39.6767C39.8909 50.035 40.1094 50.035 40.3236 49.9999H52.0001C52.2651 50.0036 52.5283 49.9547 52.7742 49.8559C53.0201 49.757 53.244 49.6103 53.4327 49.4242C53.6215 49.2381 53.7713 49.0164 53.8736 48.7719C53.9759 48.5274 54.0286 48.2649 54.0286 47.9999C54.0286 47.7348 53.9759 47.4724 53.8736 47.2279C53.7713 46.9834 53.6215 46.7617 53.4327 46.5756C53.244 46.3895 53.0201 46.2428 52.7742 46.1439C52.5283 46.0451 52.2651 45.9961 52.0001 45.9999H42.0001V44.0624C42.0317 43.0515 42.2667 42.624 42.4767 42.414C42.6867 42.204 43.0525 41.9999 44.0001 41.9999H58.0001V77.9999H56.0001C55.7351 77.9962 55.472 78.0451 55.226 78.1439C54.9801 78.2428 54.7563 78.3895 54.5675 78.5756C54.3788 78.7617 54.2289 78.9834 54.1266 79.2279C54.0243 79.4724 53.9716 79.7349 53.9716 79.9999C53.9716 80.265 54.0243 80.5274 54.1266 80.7719C54.2289 81.0164 54.3788 81.2381 54.5675 81.4242C54.7563 81.6103 54.9801 81.757 55.226 81.8559C55.472 81.9547 55.7351 82.0036 56.0001 81.9999H58.0001V85.9999H40.7657C38.8225 84.3564 36.4136 83.528 34.0001 83.528C33.2053 83.528 32.4125 83.6278 31.6345 83.8061C31.5872 81.9075 30.8518 80.0235 29.4142 78.5858C27.9276 77.0992 25.9639 76.3561 24.0001 76.3561C22.8708 76.3561 21.7449 76.6097 20.7064 77.1015C19.7218 75.7462 18.3315 74.6694 16.6329 74.103C15.5483 73.7414 14.4386 73.6177 13.3611 73.7046C12.1754 73.8002 11.03 74.1522 10.0001 74.7171V61.9999H31.6564C32.6564 61.9999 33.047 62.2187 33.2423 62.414C33.4376 62.6092 33.6564 62.9999 33.6564 63.9999V65.9999H27.6564C27.3913 65.9961 27.1282 66.0451 26.8823 66.1439C26.6363 66.2428 26.4125 66.3895 26.2238 66.5756C26.035 66.7617 25.8852 66.9834 25.7829 67.2279C25.6806 67.4724 25.6279 67.7348 25.6279 67.9999C25.6279 68.2649 25.6806 68.5274 25.7829 68.7719C25.8852 69.0164 26.035 69.2381 26.2238 69.4242C26.4125 69.6103 26.6363 69.757 26.8823 69.8559C27.1282 69.9547 27.3913 70.0036 27.6564 69.9999H35.3329C35.5471 70.035 35.7656 70.035 35.9798 69.9999H51.6564C51.9214 70.0036 52.1845 69.9547 52.4305 69.8559C52.6764 69.757 52.9002 69.6103 53.089 69.4242C53.2777 69.2381 53.4276 69.0164 53.5299 68.7719C53.6322 68.5274 53.6849 68.2649 53.6849 67.9999C53.6849 67.7348 53.6322 67.4724 53.5299 67.2279C53.4276 66.9834 53.2777 66.7617 53.089 66.5756C52.9002 66.3895 52.6764 66.2428 52.4305 66.1439C52.1845 66.0451 51.9214 65.9961 51.6564 65.9999H37.6564V63.9999C37.6564 62.3332 37.2085 60.7239 36.0704 59.5858C34.9324 58.4478 33.323 57.9999 31.6564 57.9999H10.0001V33.9999H24.0001C24.2651 34.0036 24.5283 33.9547 24.7742 33.8559C25.0201 33.757 25.244 33.6103 25.4327 33.4242C25.6215 33.2381 25.7713 33.0164 25.8736 32.7719C25.9759 32.5274 26.0286 32.2649 26.0286 31.9999C26.0286 31.7348 25.9759 31.4724 25.8736 31.2279C25.7713 30.9834 25.6215 30.7617 25.4327 30.5756C25.244 30.3895 25.0201 30.2428 24.7742 30.1439C24.5283 30.0451 24.2651 29.9961 24.0001 29.9999H10.0001V11.9999C10.0001 10.9481 10.2337 10.532 10.4142 10.3515C10.5947 10.1709 10.9475 9.96895 11.9376 9.99989ZM112 9.99989H118V33.9999H108C107.735 33.9961 107.472 34.0451 107.226 34.1439C106.98 34.2428 106.756 34.3895 106.568 34.5756C106.379 34.7617 106.229 34.9834 106.127 35.2279C106.024 35.4724 105.972 35.7348 105.972 35.9999C105.972 36.2649 106.024 36.5274 106.127 36.7719C106.229 37.0164 106.379 37.2381 106.568 37.4242C106.756 37.6103 106.98 37.757 107.226 37.8559C107.472 37.9547 107.735 38.0036 108 37.9999H118V45.9999H108C106.333 45.9999 104.724 46.4478 103.586 47.5858C102.448 48.7239 102 50.3332 102 51.9999V53.9999H94.0001V32.0186C94.0099 31.0153 94.2346 30.6138 94.4345 30.414C94.6344 30.2141 95.0164 29.9999 96.0001 29.9999H99.6767C99.9651 30.0471 100.26 30.0306 100.542 29.9515C100.823 29.8724 101.084 29.7326 101.305 29.5419C101.526 29.3513 101.703 29.1144 101.824 28.848C101.944 28.5816 102.004 28.2921 102 27.9999V19.9999C102 18.9999 102.219 18.6092 102.414 18.414C102.609 18.2187 103 17.9999 104 17.9999H107.677C107.891 18.035 108.109 18.035 108.324 17.9999H112C112.265 18.0036 112.528 17.9547 112.774 17.8559C113.02 17.757 113.244 17.6103 113.433 17.4242C113.621 17.2381 113.771 17.0164 113.874 16.7719C113.976 16.5274 114.029 16.2649 114.029 15.9999C114.029 15.7348 113.976 15.4724 113.874 15.2279C113.771 14.9834 113.621 14.7617 113.433 14.5756C113.244 14.3895 113.02 14.2428 112.774 14.1439C112.528 14.0451 112.265 13.9961 112 13.9999H110V12.0311C110.016 11.0258 110.243 10.6166 110.445 10.414C110.648 10.2113 111.026 9.99989 112 9.99989ZM64.0001 21.9999H98.0001V25.9999H96.0001C94.3432 25.9999 92.7399 26.4524 91.6064 27.5858C90.4729 28.7193 90.0163 30.3178 90.0001 31.9811C90.0001 31.9874 90.0001 31.9936 90.0001 31.9999V55.6765C89.965 55.8907 89.965 56.1091 90.0001 56.3233V63.9999C89.9964 64.2649 90.0453 64.528 90.1442 64.774C90.243 65.0199 90.3897 65.2438 90.5758 65.4325C90.7619 65.6212 90.9836 65.7711 91.2281 65.8734C91.4727 65.9757 91.7351 66.0284 92.0001 66.0284C92.2652 66.0284 92.5276 65.9757 92.7721 65.8734C93.0166 65.7711 93.2384 65.6212 93.4244 65.4325C93.6105 65.2438 93.7573 65.0199 93.8561 64.774C93.9549 64.528 94.0039 64.2649 94.0001 63.9999V57.9999H103.677C103.891 58.035 104.109 58.035 104.324 57.9999H108C108.265 58.0036 108.528 57.9547 108.774 57.8559C109.02 57.757 109.244 57.6103 109.433 57.4242C109.621 57.2381 109.771 57.0164 109.874 56.7719C109.976 56.5274 110.029 56.2649 110.029 55.9999C110.029 55.7348 109.976 55.4724 109.874 55.2279C109.771 54.9834 109.621 54.7617 109.433 54.5756C109.244 54.3895 109.02 54.2428 108.774 54.1439C108.528 54.0451 108.265 53.9961 108 53.9999H106V51.9999C106 50.9999 106.219 50.6092 106.414 50.414C106.609 50.2187 107 49.9999 108 49.9999H118V65.9999H108C107.735 65.9961 107.472 66.0451 107.226 66.1439C106.98 66.2428 106.756 66.3895 106.568 66.5756C106.379 66.7617 106.229 66.9834 106.127 67.2279C106.024 67.4724 105.972 67.7348 105.972 67.9999C105.972 68.2649 106.024 68.5274 106.127 68.7719C106.229 69.0164 106.379 69.2381 106.568 69.4242C106.756 69.6103 106.98 69.757 107.226 69.8559C107.472 69.9547 107.735 70.0036 108 69.9999H118V85.9999H94.0001V81.9999H104C104.265 82.0036 104.528 81.9547 104.774 81.8559C105.02 81.757 105.244 81.6103 105.433 81.4242C105.621 81.2381 105.771 81.0164 105.874 80.7719C105.976 80.5274 106.029 80.265 106.029 79.9999C106.029 79.7349 105.976 79.4724 105.874 79.2279C105.771 78.9834 105.621 78.7617 105.433 78.5756C105.244 78.3895 105.02 78.2428 104.774 78.1439C104.528 78.0451 104.265 77.9962 104 77.9999H94.0001V75.9999C94.0039 75.7324 93.954 75.4668 93.8533 75.219C93.7526 74.9711 93.6032 74.746 93.4139 74.5569C93.2247 74.3677 92.9994 74.2185 92.7515 74.118C92.5035 74.0175 92.2379 73.9678 91.9704 73.9718C91.4403 73.9796 90.9349 74.1977 90.5655 74.578C90.196 74.9583 89.9927 75.4697 90.0001 75.9999V79.6765C89.965 79.8907 89.965 80.1091 90.0001 80.3233V85.9999H86.0001V67.9999C86.0039 67.7324 85.954 67.4668 85.8533 67.219C85.7526 66.9711 85.6032 66.746 85.4139 66.5569C85.2247 66.3677 84.9994 66.2185 84.7515 66.118C84.5035 66.0175 84.2379 65.9678 83.9704 65.9718C83.4403 65.9796 82.9349 66.1977 82.5655 66.578C82.196 66.9583 81.9927 67.4697 82.0001 67.9999V85.9999H70.0001V75.9999C70.0039 75.7324 69.9539 75.4668 69.8533 75.219C69.7526 74.9711 69.6032 74.746 69.4139 74.5569C69.2247 74.3677 68.9994 74.2185 68.7515 74.118C68.5035 74.0175 68.2379 73.9678 67.9704 73.9718C67.4403 73.9796 66.9349 74.1977 66.5655 74.578C66.196 74.9583 65.9927 75.4697 66.0001 75.9999V85.9999H62.0001V24.028C62.0139 23.0233 62.239 22.6157 62.4407 22.414C62.6425 22.2122 63.0231 21.9999 64.0001 21.9999ZM67.9704 29.9718C67.4403 29.9796 66.9349 30.1977 66.5655 30.578C66.196 30.9583 65.9927 31.4697 66.0001 31.9999V63.9999C65.9964 64.2649 66.0453 64.528 66.1442 64.774C66.243 65.0199 66.3897 65.2438 66.5758 65.4325C66.7619 65.6212 66.9836 65.7711 67.2281 65.8734C67.4727 65.9757 67.7351 66.0284 68.0001 66.0284C68.2652 66.0284 68.5276 65.9757 68.7721 65.8734C69.0166 65.7711 69.2384 65.6212 69.4244 65.4325C69.6105 65.2438 69.7573 65.0199 69.8561 64.774C69.9549 64.528 70.0039 64.2649 70.0001 63.9999V31.9999C70.0039 31.7324 69.9539 31.4668 69.8533 31.219C69.7526 30.9711 69.6032 30.746 69.4139 30.5569C69.2247 30.3677 68.9994 30.2185 68.7515 30.118C68.5035 30.0175 68.2379 29.9678 67.9704 29.9718V29.9718ZM75.9704 29.9718C75.4403 29.9796 74.9349 30.1977 74.5655 30.578C74.196 30.9583 73.9927 31.4697 74.0001 31.9999V35.9999C73.9964 36.2649 74.0453 36.528 74.1442 36.774C74.243 37.0199 74.3897 37.2438 74.5758 37.4325C74.7619 37.6212 74.9836 37.7711 75.2281 37.8734C75.4727 37.9757 75.7351 38.0284 76.0001 38.0284C76.2652 38.0284 76.5276 37.9757 76.7721 37.8734C77.0166 37.7711 77.2384 37.6212 77.4244 37.4325C77.6105 37.2438 77.7573 37.0199 77.8561 36.774C77.9549 36.528 78.0039 36.2649 78.0001 35.9999V31.9999C78.0039 31.7324 77.954 31.4668 77.8533 31.219C77.7526 30.9711 77.6032 30.746 77.4139 30.5569C77.2247 30.3677 76.9994 30.2185 76.7515 30.118C76.5035 30.0175 76.2379 29.9678 75.9704 29.9718V29.9718ZM83.9704 29.9718C83.4403 29.9796 82.9349 30.1977 82.5655 30.578C82.196 30.9583 81.9927 31.4697 82.0001 31.9999V55.9999C81.9964 56.2649 82.0453 56.528 82.1442 56.774C82.243 57.0199 82.3897 57.2438 82.5758 57.4325C82.7619 57.6212 82.9836 57.7711 83.2281 57.8734C83.4727 57.9757 83.7351 58.0284 84.0001 58.0284C84.2652 58.0284 84.5276 57.9757 84.7721 57.8734C85.0166 57.7711 85.2384 57.6212 85.4244 57.4325C85.6105 57.2438 85.7573 57.0199 85.8561 56.774C85.9549 56.528 86.0039 56.2649 86.0001 55.9999V31.9999C86.0039 31.7324 85.954 31.4668 85.8533 31.219C85.7526 30.9711 85.6032 30.746 85.4139 30.5569C85.2247 30.3677 84.9994 30.2185 84.7515 30.118C84.5035 30.0175 84.2379 29.9678 83.9704 29.9718V29.9718ZM75.9704 45.9718C75.4403 45.9796 74.9349 46.1977 74.5655 46.578C74.196 46.9583 73.9927 47.4697 74.0001 47.9999V75.9999C73.9964 76.2649 74.0453 76.528 74.1442 76.774C74.243 77.0199 74.3897 77.2438 74.5758 77.4325C74.7619 77.6212 74.9836 77.7711 75.2281 77.8734C75.4727 77.9757 75.7351 78.0284 76.0001 78.0284C76.2652 78.0284 76.5276 77.9757 76.7721 77.8734C77.0166 77.7711 77.2384 77.6212 77.4244 77.4325C77.6105 77.2438 77.7573 77.0199 77.8561 76.774C77.9549 76.528 78.0039 76.2649 78.0001 75.9999V47.9999C78.0039 47.7324 77.954 47.4668 77.8533 47.219C77.7526 46.9711 77.6032 46.746 77.4139 46.5569C77.2247 46.3677 76.9994 46.2185 76.7515 46.118C76.5035 46.0175 76.2379 45.9678 75.9704 45.9718V45.9718ZM43.6845 89.9999H59.6767C59.8909 90.035 60.1094 90.035 60.3236 89.9999H67.6767C67.8909 90.035 68.1094 90.035 68.3236 89.9999H83.6767C83.8909 90.035 84.1094 90.035 84.3236 89.9999H91.6767C91.8909 90.035 92.1094 90.035 92.3236 89.9999H118V110H108C107.735 109.996 107.472 110.045 107.226 110.144C106.98 110.243 106.756 110.389 106.568 110.576C106.379 110.762 106.229 110.983 106.127 111.228C106.024 111.472 105.972 111.735 105.972 112C105.972 112.265 106.024 112.527 106.127 112.772C106.229 113.016 106.379 113.238 106.568 113.424C106.756 113.61 106.98 113.757 107.226 113.856C107.472 113.955 107.735 114.004 108 114H118V118H76.5376C77.1795 116.757 77.537 115.389 77.6001 114H80.0001C80.2651 114.004 80.5283 113.955 80.7742 113.856C81.0201 113.757 81.244 113.61 81.4327 113.424C81.6215 113.238 81.7713 113.016 81.8736 112.772C81.9759 112.527 82.0286 112.265 82.0286 112C82.0286 111.735 81.9759 111.472 81.8736 111.228C81.7713 110.983 81.6215 110.762 81.4327 110.576C81.244 110.389 81.0201 110.243 80.7742 110.144C80.5283 110.045 80.2651 109.996 80.0001 110H76.9376C76.4106 108.686 75.5809 107.472 74.4236 106.481C72.4669 104.805 70.0447 104.158 67.7001 104.358C67.1383 104.406 66.5812 104.507 66.0361 104.65C65.6161 101.707 63.5977 99.1253 60.6532 98.1093C59.8857 97.8444 59.0979 97.7005 58.3142 97.6702C57.0909 97.6229 55.8801 97.8606 54.7657 98.3468C54.2202 97.066 53.3691 95.9051 52.2376 94.9827C50.6333 93.6742 48.684 93.0202 46.7314 93.0202V93.0186C45.9602 93.0186 45.1889 93.1255 44.4392 93.3296C44.3673 92.1933 44.1219 91.0675 43.6845 89.9999ZM68.0001 93.9999C67.7351 93.9962 67.472 94.0451 67.226 94.1439C66.9801 94.2428 66.7563 94.3895 66.5675 94.5756C66.3788 94.7617 66.2289 94.9834 66.1266 95.2279C66.0243 95.4724 65.9716 95.7349 65.9716 95.9999C65.9716 96.265 66.0243 96.5274 66.1266 96.7719C66.2289 97.0164 66.3788 97.2381 66.5675 97.4242C66.7563 97.6103 66.9801 97.757 67.226 97.8559C67.472 97.9547 67.7351 98.0036 68.0001 97.9999H80.0001C80.2651 98.0036 80.5283 97.9547 80.7742 97.8559C81.0201 97.757 81.244 97.6103 81.4327 97.4242C81.6215 97.2381 81.7713 97.0164 81.8736 96.7719C81.9759 96.5274 82.0286 96.265 82.0286 95.9999C82.0286 95.7349 81.9759 95.4724 81.8736 95.2279C81.7713 94.9834 81.6215 94.7617 81.4327 94.5756C81.244 94.3895 81.0201 94.2428 80.7742 94.1439C80.5283 94.0451 80.2651 93.9962 80.0001 93.9999H68.0001ZM104 93.9999C103.735 93.9962 103.472 94.0451 103.226 94.1439C102.98 94.2428 102.756 94.3895 102.568 94.5756C102.379 94.7617 102.229 94.9834 102.127 95.2279C102.024 95.4724 101.972 95.7349 101.972 95.9999C101.972 96.265 102.024 96.5274 102.127 96.7719C102.229 97.0164 102.379 97.2381 102.568 97.4242C102.756 97.6103 102.98 97.757 103.226 97.8559C103.472 97.9547 103.735 98.0036 104 97.9999H112C112.265 98.0036 112.528 97.9547 112.774 97.8559C113.02 97.757 113.244 97.6103 113.433 97.4242C113.621 97.2381 113.771 97.0164 113.874 96.7719C113.976 96.5274 114.029 96.265 114.029 95.9999C114.029 95.7349 113.976 95.4724 113.874 95.2279C113.771 94.9834 113.621 94.7617 113.433 94.5756C113.244 94.3895 113.02 94.2428 112.774 94.1439C112.528 94.0451 112.265 93.9962 112 93.9999H104ZM88.0001 102C87.7351 101.996 87.472 102.045 87.226 102.144C86.9801 102.243 86.7563 102.389 86.5675 102.576C86.3788 102.762 86.2289 102.983 86.1266 103.228C86.0243 103.472 85.9716 103.735 85.9716 104C85.9716 104.265 86.0243 104.527 86.1266 104.772C86.2289 105.016 86.3788 105.238 86.5675 105.424C86.7563 105.61 86.9801 105.757 87.226 105.856C87.472 105.955 87.7351 106.004 88.0001 106H100C100.265 106.004 100.528 105.955 100.774 105.856C101.02 105.757 101.244 105.61 101.433 105.424C101.621 105.238 101.771 105.016 101.874 104.772C101.976 104.527 102.029 104.265 102.029 104C102.029 103.735 101.976 103.472 101.874 103.228C101.771 102.983 101.621 102.762 101.433 102.576C101.244 102.389 101.02 102.243 100.774 102.144C100.528 102.045 100.265 101.996 100 102H88.0001ZM26.0001 118C25.4697 118 24.961 118.211 24.5859 118.586C24.2108 118.961 24.0001 119.469 24.0001 120C24.0001 120.53 24.2108 121.039 24.5859 121.414C24.961 121.789 25.4697 122 26.0001 122C26.5306 122 27.0393 121.789 27.4143 121.414C27.7894 121.039 28.0001 120.53 28.0001 120C28.0001 119.469 27.7894 118.961 27.4143 118.586C27.0393 118.211 26.5306 118 26.0001 118Z" fill="black"/>
</svg>
