<?xml version="1.0" encoding="iso-8859-1"?>
<!-- Generator: Adobe Illustrator 19.0.0, SVG Export Plug-In . SVG Version: 6.00 Build 0)  -->
<svg version="1.1" id="Layer_1" xmlns="http://www.w3.org/2000/svg" xmlns:xlink="http://www.w3.org/1999/xlink" x="0px" y="0px"
	 viewBox="0 0 512 512" style="enable-background:new 0 0 512 512;" xml:space="preserve">
<path style="fill:#333E48;" d="M65.387,347.36c63.87,2.821,223.107-140.119,264.6-181.613
	c34.255-34.256,13.569-76.404-25.185-115.159c-38.754-38.754-80.903-59.442-115.158-25.186
	C148.148,66.898,5.212,226.132,8.031,290.003"/>
<path style="fill:#FFFFFF;" d="M94.767,310.415l-0.505-15.993c7.045-0.222,20.364-3.297,43.795-16.692
	c16.538-9.453,35.917-22.745,57.599-39.508c41.218-31.865,78.538-66.688,94.091-82.24c32.247-32.248-1.75-66.248-12.921-77.421
	c-45.168-45.167-69.442-20.895-77.419-12.919C156.619,108.43,62.354,217.056,60.97,261.124l-15.993-0.502
	c1.672-53.248,106.52-169.699,143.117-206.295c15.514-15.515,33.027-21.251,52.049-17.046c15.36,3.394,31.51,13.475,47.999,29.964
	c16.49,16.491,26.572,32.641,29.967,48.001c4.203,19.023-1.531,36.535-17.046,52.049c-15.821,15.821-53.764,51.228-95.619,83.586
	C155.295,289.652,118.058,309.682,94.767,310.415z"/>
<path style="fill:#FFCE00;" d="M24.831,249.444l76.595-76.593c22.397-22.399,58.715-22.397,81.114,0.001
	c22.396,22.4,22.398,58.717-0.002,81.115l-76.591,76.593L24.831,249.444z"/>
<circle style="fill:#7D868C;" cx="65.393" cy="290.002" r="57.357"/>
<circle style="fill:#333E48;" cx="65.383" cy="290.002" r="34.627"/>
<path style="opacity:0.2;enable-background:new    ;" d="M200.738,162.657c-2.048,0-4.095-0.781-5.658-2.344
	c-3.125-3.125-3.125-8.191,0.001-11.314l56.715-56.713c3.125-3.126,8.191-3.125,11.314,0c3.125,3.125,3.125,8.191-0.001,11.315
	l-56.715,56.713C204.833,161.875,202.785,162.657,200.738,162.657z"/>
<path style="opacity:0.2;enable-background:new    ;" d="M237.577,182.243c-2.047,0-4.095-0.781-5.657-2.344
	c-3.126-3.125-3.126-8.19-0.001-11.314l39.459-39.461c3.126-3.125,8.192-3.126,11.314,0c3.126,3.125,3.126,8.19,0.001,11.314
	L243.234,179.9C241.673,181.462,239.625,182.243,237.577,182.243z"/>
<path style="opacity:0.2;enable-background:new    ;" d="M181.149,125.819c-2.048,0-4.095-0.781-5.658-2.344
	c-3.125-3.125-3.125-8.191,0.001-11.314l39.463-39.462c3.125-3.125,8.191-3.125,11.314,0c3.125,3.125,3.125,8.191-0.001,11.314
	l-39.463,39.462C185.244,125.037,183.196,125.819,181.149,125.819z"/>
<path style="fill:#333E48;" d="M221.98,503.955c63.87,2.819,223.107-140.119,264.6-181.614
	c34.255-34.256,13.569-76.404-25.185-115.159c-38.754-38.754-80.903-59.442-115.158-25.186
	c-41.495,41.495-184.433,200.731-181.612,264.601"/>
<path style="fill:#FFFFFF;" d="M251.36,467.01l-0.505-15.993c7.046-0.222,20.364-3.297,43.795-16.692
	c16.538-9.453,35.917-22.745,57.599-39.508c41.218-31.865,78.538-66.688,94.091-82.24c32.247-32.248-1.75-66.249-12.921-77.421
	c-45.168-45.168-69.442-20.895-77.419-12.919c-42.789,42.788-137.054,151.415-138.438,195.482l-15.993-0.502
	c1.672-53.248,106.519-169.699,143.117-206.295c15.514-15.515,33.027-21.251,52.049-17.047c15.36,3.394,31.51,13.475,47.999,29.964
	c16.49,16.491,26.572,32.641,29.967,48.001c4.204,19.023-1.531,36.535-17.045,52.049c-15.821,15.821-53.764,51.228-95.619,83.586
	C311.889,446.247,274.651,466.277,251.36,467.01z"/>
<path style="fill:#FFCE00;" d="M181.424,406.04l76.595-76.593c22.397-22.399,58.715-22.397,81.114,0
	c22.396,22.4,22.398,58.717-0.002,81.115l-76.592,76.593L181.424,406.04z"/>
<circle style="fill:#7D868C;" cx="221.984" cy="446.593" r="57.357"/>
<circle style="fill:#333E48;" cx="221.984" cy="446.593" r="34.627"/>
<path style="opacity:0.2;enable-background:new    ;" d="M357.331,319.253c-2.048,0-4.095-0.781-5.658-2.344
	c-3.125-3.125-3.125-8.191,0.001-11.314l56.715-56.713c3.125-3.125,8.191-3.125,11.314,0c3.125,3.125,3.125,8.191-0.001,11.314
	l-56.715,56.713C361.426,318.471,359.378,319.253,357.331,319.253z"/>
<path style="opacity:0.2;enable-background:new    ;" d="M394.171,338.839c-2.047,0-4.095-0.781-5.657-2.344
	c-3.126-3.125-3.126-8.19-0.001-11.315l39.459-39.461c3.126-3.125,8.192-3.126,11.315,0c3.126,3.125,3.126,8.19,0.001,11.315
	l-39.459,39.461C398.266,338.058,396.218,338.839,394.171,338.839z"/>
<path style="opacity:0.2;enable-background:new    ;" d="M337.742,282.414c-2.048,0-4.095-0.781-5.658-2.344
	c-3.125-3.125-3.125-8.191,0.001-11.314l39.463-39.462c3.125-3.126,8.191-3.125,11.314,0c3.125,3.125,3.125,8.191-0.001,11.314
	l-39.463,39.462C341.837,281.632,339.789,282.414,337.742,282.414z"/>
<path style="fill:#1E252B;" d="M65.387,247.373c-11.387,0-22.091,4.434-30.143,12.485c-16.62,16.621-16.62,43.666,0.001,60.286
	c8.05,8.05,18.754,12.484,30.14,12.485h0.004c11.383,0,22.087-4.435,30.139-12.487c16.619-16.62,16.621-43.663,0.002-60.285
	C87.479,251.807,76.774,247.373,65.387,247.373z M84.213,308.829c-5.03,5.03-11.713,7.799-18.824,7.799h-0.003
	c-7.112-0.001-13.799-2.77-18.826-7.798c-10.382-10.382-10.382-27.275-0.001-37.657c5.03-5.029,11.715-7.798,18.827-7.798
	c7.112,0,13.801,2.77,18.83,7.799C94.597,281.556,94.596,298.449,84.213,308.829z M467.052,201.526
	c-22.214-22.214-43.305-36.344-62.684-41.995c-24.135-7.037-45.598-1.383-63.79,16.809
	c-18.647,18.647-65.239,68.706-108.119,124.703c-51.386,67.105-76.889,116.052-75.836,145.507c0,0.016-0.001,0.032-0.001,0.047
	c0,0.069,0.005,0.139,0.005,0.208c0.002,0.047,0,0.097,0.002,0.145h0.001c0.092,17.325,6.873,33.601,19.134,45.861
	c12.26,12.26,28.536,19.043,45.86,19.135v0.001c0.713,0.031,1.437,0.047,2.172,0.047c29.63,0,77.965-25.513,143.736-75.877
	c55.999-42.881,106.057-89.474,124.703-108.12C534.094,286.141,501.644,236.119,467.052,201.526z M256.882,481.499
	c-9.321,9.323-21.716,14.456-34.899,14.456c-13.183,0-25.579-5.134-34.9-14.456c-9.322-9.321-14.457-21.716-14.457-34.9
	s5.134-25.578,14.457-34.9c9.32-9.321,21.714-14.455,34.897-14.455c13.184,0,25.58,5.134,34.903,14.456
	C276.126,430.943,276.126,462.255,256.882,481.499z M268.196,400.383c-12.345-12.344-28.759-19.142-46.217-19.142
	c-1.55,0-3.088,0.073-4.619,0.179l46.317-46.317c9.32-9.321,21.714-14.455,34.898-14.455c13.183,0,25.578,5.134,34.9,14.455
	c19.243,19.247,19.242,50.558-0.002,69.801l-46.347,46.348C288.416,433.002,282.12,414.308,268.196,400.383z M480.922,316.685
	c-21.368,21.37-71.79,67.427-123.116,106.73c-24.169,18.507-46.176,33.694-65.53,45.317l52.511-52.512
	c25.483-25.481,25.485-66.944,0.002-92.431c-12.344-12.344-28.757-19.141-46.215-19.142h-0.001c-17.457,0-33.87,6.799-46.212,19.142
	l-52.53,52.53c11.626-19.357,26.819-41.368,45.333-65.548c39.301-51.323,85.36-101.746,106.73-123.117
	c13.939-13.941,29.638-18.116,47.994-12.762c16.767,4.889,35.558,17.657,55.849,37.948c20.291,20.291,33.059,39.081,37.948,55.849
	C499.038,287.044,494.864,302.743,480.922,316.685z M221.98,403.968c-11.387,0-22.091,4.434-30.143,12.485
	c-16.62,16.621-16.62,43.666,0.001,60.286c8.05,8.05,18.754,12.484,30.14,12.485h0.004c11.383,0,22.087-4.435,30.139-12.487
	c16.619-16.62,16.621-43.663,0.002-60.285C244.072,408.403,233.367,403.968,221.98,403.968z M240.807,465.425
	c-5.03,5.03-11.713,7.799-18.823,7.799h-0.003c-7.112-0.001-13.799-2.77-18.826-7.799c-10.382-10.382-10.382-27.275-0.001-37.657
	c5.03-5.029,11.715-7.798,18.827-7.798s13.8,2.77,18.83,7.799C251.19,438.152,251.189,455.044,240.807,465.425z M335.645,171.404
	c41.856-41.858,9.406-91.88-25.185-126.473c-22.214-22.214-43.305-36.344-62.684-41.995c-24.135-7.039-45.597-1.383-63.79,16.809
	c-18.647,18.646-65.24,68.706-108.119,124.703C24.481,211.553-1.024,260.499,0.031,289.955c0,0.016-0.001,0.032-0.001,0.047
	c0,0.069,0.005,0.139,0.005,0.208c0.002,0.047,0,0.097,0.002,0.145h0.001c0.092,17.325,6.873,33.601,19.135,45.861
	c12.26,12.26,28.536,19.043,45.86,19.134v0.001c0.713,0.031,1.437,0.047,2.172,0.047c29.63,0,77.965-25.512,143.736-75.877
	C266.942,236.642,316.999,190.05,335.645,171.404z M100.289,324.903c-9.321,9.323-21.716,14.456-34.899,14.456
	s-25.579-5.134-34.9-14.456c-9.322-9.321-14.457-21.716-14.457-34.9s5.134-25.579,14.457-34.9
	c9.32-9.321,21.715-14.455,34.897-14.455c13.184,0,25.579,5.134,34.903,14.456C119.533,274.348,119.533,305.661,100.289,324.903z
	 M111.603,243.788c-12.345-12.344-28.759-19.142-46.217-19.142c-1.55,0-3.088,0.073-4.619,0.179l46.317-46.316
	c9.32-9.321,21.714-14.455,34.898-14.455c13.183,0.001,25.578,5.134,34.9,14.455c19.243,19.247,19.242,50.558-0.002,69.801
	l-46.347,46.348C131.824,276.407,125.527,257.713,111.603,243.788z M135.67,312.151l52.525-52.527
	c25.483-25.481,25.485-66.944,0.002-92.43c-12.344-12.344-28.757-19.141-46.215-19.142h-0.001c-17.457,0-33.87,6.799-46.212,19.142
	l-52.531,52.529c11.626-19.357,26.819-41.368,45.333-65.548c39.301-51.323,85.36-101.747,106.73-123.117
	c13.938-13.939,29.638-18.115,47.994-12.762c16.767,4.889,35.558,17.657,55.849,37.948c20.292,20.291,33.059,39.081,37.948,55.849
	c5.353,18.355,1.178,34.054-12.763,47.995c-21.368,21.37-71.79,67.427-123.116,106.73
	C177.037,285.332,155.026,300.525,135.67,312.151z"/>
<g>
</g>
<g>
</g>
<g>
</g>
<g>
</g>
<g>
</g>
<g>
</g>
<g>
</g>
<g>
</g>
<g>
</g>
<g>
</g>
<g>
</g>
<g>
</g>
<g>
</g>
<g>
</g>
<g>
</g>
</svg>
