<?xml version="1.0" encoding="iso-8859-1"?>
<!-- Generator: Adobe Illustrator 19.0.0, SVG Export Plug-In . SVG Version: 6.00 Build 0)  -->
<svg version="1.1" id="Layer_1" xmlns="http://www.w3.org/2000/svg" xmlns:xlink="http://www.w3.org/1999/xlink" x="0px" y="0px"
	 viewBox="0 0 511.999 511.999" style="enable-background:new 0 0 511.999 511.999;" xml:space="preserve">
<path style="fill:#CE3838;" d="M346.598,164.939c-8.285-31.048-20.921-61.18-37.897-89.436
	c-14.535,11.382-32.845,18.174-52.748,18.174s-38.214-6.793-52.748-18.174c-49.403,82.225-62.028,180.364-37.897,270.727
	c8.059,30.177,20.22,59.496,36.473,87.063l1.424-0.825c14.535-11.382,32.845-18.174,52.748-18.174s38.214,6.793,52.748,18.174
	l1.424,0.825c32.234-54.659,48.352-116.178,48.352-177.708C358.477,225.09,354.521,194.596,346.598,164.939z"/>
<path style="fill:#EE4948;" d="M320.617,164.939c-5.91-31.048-14.925-61.18-27.034-89.436
	c-10.369,11.382-23.431,18.174-37.629,18.174c-14.199,0-27.26-6.793-37.629-18.174c-35.243,82.225-44.249,180.364-27.034,270.727
	c5.748,30.177,14.424,59.496,26.019,87.063l1.016-0.825c10.369-11.382,23.431-18.174,37.629-18.174
	c14.199,0,27.26,6.793,37.629,18.174l1.016,0.825c22.995-54.659,34.493-116.178,34.493-177.708
	C329.091,225.09,326.269,194.596,320.617,164.939z"/>
<g>
	<path style="fill:#F2C386;" d="M101.55,409.987v28.991c0,14.49-9.076,27.408-22.695,32.336l-24.831,8.974l-22.786-22.774
		l8.985-24.831c4.917-13.619,17.847-22.695,32.325-22.695L101.55,409.987L101.55,409.987z"/>
	<path style="fill:#F2C386;" d="M480.656,53.655l-8.974,24.843c-4.928,13.608-17.858,22.684-32.336,22.684h-28.991V72.191
		c0-14.478,9.065-27.408,22.684-32.336l24.843-8.974L480.656,53.655z"/>
</g>
<g>
	<path style="fill:#666666;" d="M295.511,216.026v99.461c0,10.929-4.431,20.808-11.585,27.974
		c-7.154,7.154-17.055,11.585-27.974,11.585c-21.848,0-39.558-17.711-39.558-39.559v-20.344L295.511,216.026z"/>
	<path style="fill:#666666;" d="M295.511,195.681v20.344l-79.117,79.117v-99.461c0-21.848,17.711-39.559,39.558-39.559
		S295.511,173.834,295.511,195.681z"/>
</g>
<g>
	<path style="fill:#F2C386;" d="M255.953,414.293c19.904,0,38.214,6.793,52.748,18.174l1.424,0.825
		c-14.704,24.922-32.766,48.408-54.173,69.815c-21.407-21.407-39.468-44.893-54.173-69.815l1.424-0.825
		C217.739,421.086,236.049,414.293,255.953,414.293z"/>
	<path style="fill:#F2C386;" d="M255.953,11.452v82.225c-19.904,0-38.214-6.793-52.748-18.174
		c14.433-24.04,32.02-46.713,52.748-67.442c0.565,0.565,1.142,1.142,1.695,1.718L255.953,11.452z"/>
	<path style="fill:#F2C386;" d="M308.701,75.502c-14.535,11.382-32.845,18.174-52.748,18.174V11.452l1.695-1.673
		C277.642,30.033,294.664,52.129,308.701,75.502z"/>
</g>
<path d="M486.703,48.077L463.93,25.303c-2.325-2.325-5.785-3.095-8.875-1.979L430.208,32.3
	c-16.913,6.119-28.276,22.318-28.276,40.307v25.479l-51.131,51.131c-8.452-27.185-20.114-53.254-34.779-77.663
	C301.42,47.242,283.829,24.594,263.814,4.32c-0.592-0.616-1.208-1.233-1.813-1.838C260.409,0.893,258.254,0,256.005,0
	c-2.249,0-4.403,0.893-5.995,2.483c-20.844,20.845-39.019,44.084-54.02,69.07c-14.752,24.551-26.525,50.897-34.992,78.304
	c-1.382,4.473,1.123,9.219,5.597,10.602c4.472,1.38,9.219-1.125,10.602-5.597c7.167-23.2,16.827-45.599,28.75-66.713
	c12.589,7.952,26.705,12.728,41.581,14.039v26.659c0,4.681,3.794,8.477,8.477,8.477c4.683,0,8.477-3.795,8.477-8.477v-26.659
	c14.873-1.311,28.988-6.085,41.576-14.035c13.304,23.554,23.749,48.62,31.108,74.699l-33.129,33.127
	c-0.062-26.433-21.583-47.918-48.031-47.918c-26.487,0-48.035,21.548-48.035,48.035v95.95l-37.941,37.941
	c-10.034-45.57-10.693-93.386-1.826-139.209c0.89-4.596-2.115-9.043-6.711-9.933c-4.596-0.892-9.043,2.116-9.933,6.711
	c-9.986,51.594-8.462,105.601,4.379,156.521l-57.846,57.846H72.601c-17.993,0-34.189,11.37-40.297,28.288l-8.985,24.831
	c-1.119,3.093-0.348,6.554,1.979,8.88l22.786,22.774c1.617,1.617,3.784,2.481,5.994,2.481c0.965,0,1.941-0.165,2.88-0.504
	l24.835-8.975c16.92-6.121,28.288-22.32,28.288-40.308v-25.479l51.133-51.133c8.174,26.279,19.344,51.531,33.32,75.235
	c15.302,25.933,33.968,49.991,55.479,71.501c1.656,1.655,3.826,2.483,5.995,2.483s4.339-0.827,5.995-2.483
	c21.511-21.511,40.177-45.568,55.479-71.503c32.402-54.94,49.527-117.879,49.527-182.014c0-29.738-3.682-59.342-10.937-88.075
	l57.85-57.85h25.478c17.984,0,34.182-11.362,40.309-28.281l8.973-24.843C489.798,53.859,489.026,50.401,486.703,48.077z
	 M214.662,73.604c9.721-15.366,20.726-29.986,32.867-43.709v55.252C235.773,83.876,224.625,79.964,214.662,73.604z M264.482,29.901
	c12.13,13.708,23.137,28.33,32.866,43.704c-9.964,6.36-21.112,10.273-32.866,11.542L264.482,29.901L264.482,29.901z
	 M224.923,196.097c0-17.139,13.944-31.082,31.082-31.082c17.138,0,31.082,13.943,31.082,31.082v16.833l-62.163,62.163V196.097z
	 M93.125,439.393c0,10.873-6.873,20.664-17.099,24.363l-19.767,7.144l-15.163-15.157l7.153-19.768
	c3.693-10.226,13.478-17.097,24.352-17.097h20.524C93.125,418.879,93.125,439.393,93.125,439.393z M256.005,491.385
	c-16.165-16.984-30.496-35.525-42.772-55.26c10.321-6.91,21.975-11.141,34.295-12.471v42.005c0,4.681,3.794,8.477,8.477,8.477
	c4.683,0,8.477-3.795,8.477-8.477v-42.005c12.319,1.33,23.974,5.561,34.295,12.471C286.502,455.862,272.17,474.401,256.005,491.385z
	 M350.052,256c0,58.052-14.733,115.062-42.663,165.486c-12.918-8.462-27.51-13.515-42.907-14.873v-26.286
	c0-4.681-3.794-8.477-8.477-8.477c-4.683,0-8.477,3.795-8.477,8.477v26.286c-15.396,1.357-29.988,6.41-42.905,14.872
	c-12.665-22.865-22.662-47.136-29.779-72.336l33.129-33.129c0.064,26.433,21.585,47.918,48.032,47.918
	c12.833,0,24.896-4.996,33.973-14.073c9.068-9.083,14.062-21.145,14.062-33.963c0-4.681-3.794-8.477-8.477-8.477
	c-4.683,0-8.477,3.795-8.477,8.477c0,8.295-3.234,16.103-9.103,21.98c-5.868,5.869-13.676,9.102-21.979,9.102
	c-17.138,0-31.082-13.943-31.082-31.082V299.07l62.163-62.163v50.48c0,4.681,3.794,8.477,8.477,8.477
	c4.683,0,8.477-3.795,8.477-8.477v-67.434l37.939-37.939C347.334,206.259,350.052,231.079,350.052,256z M463.765,76.027
	c-3.703,10.224-13.494,17.094-24.367,17.094h-20.513V72.607c0-10.875,6.868-20.666,17.086-24.364l19.778-7.144l15.157,15.158
	L463.765,76.027z"/>
<g>
</g>
<g>
</g>
<g>
</g>
<g>
</g>
<g>
</g>
<g>
</g>
<g>
</g>
<g>
</g>
<g>
</g>
<g>
</g>
<g>
</g>
<g>
</g>
<g>
</g>
<g>
</g>
<g>
</g>
</svg>
