<?xml version="1.0" encoding="iso-8859-1"?>
<!-- Generator: Adobe Illustrator 19.0.0, SVG Export Plug-In . SVG Version: 6.00 Build 0)  -->
<svg version="1.1" id="Layer_1" xmlns="http://www.w3.org/2000/svg" xmlns:xlink="http://www.w3.org/1999/xlink" x="0px" y="0px"
	 viewBox="0 0 511.999 511.999" style="enable-background:new 0 0 511.999 511.999;" xml:space="preserve">
<rect x="187.74" y="403.399" style="fill:#437F82;" width="136.416" height="58.094"/>
<rect x="187.74" y="355.045" style="fill:#CC9758;" width="136.416" height="48.354"/>
<rect x="214.496" y="355.045" style="fill:#F2C386;" width="82.904" height="48.354"/>
<g>
	<path style="fill:#437F82;" d="M324.153,177.426v177.62H187.737V178.462c0-37.428,29.726-68.663,67.155-69.227
		C292.976,108.66,324.153,139.479,324.153,177.426z"/>
	<path style="fill:#437F82;" d="M255.421,26.331c83.698-0.276,151.624,67.477,151.624,151.095v284.068
		c0,22.888-18.559,41.446-41.446,41.446s-41.446-18.559-41.446-41.446V403.4v-48.354v-177.62c0-37.946-31.177-68.766-69.261-68.191
		c-37.428,0.564-67.155,31.799-67.155,69.227v176.584V403.4v58.094c0,11.444-4.64,21.805-12.146,29.3
		c-7.495,7.506-17.856,12.146-29.3,12.146c-22.888,0-41.446-18.559-41.446-41.446V179.072
		C104.845,95.558,171.907,26.619,255.421,26.331z"/>
</g>
<path style="fill:#529298;" d="M365.601,482.217c-11.427,0-20.723-9.297-20.723-20.723V177.426
	c0-49.031-39.896-88.922-88.936-88.922c-0.455,0-0.906,0.003-1.363,0.01c-48.283,0.728-87.565,41.078-87.565,89.948v283.032
	c0,5.533-2.154,10.73-6.066,14.636c-3.927,3.933-9.125,6.087-14.657,6.087c-11.427,0-20.723-9.297-20.723-20.723V179.072
	c0-72.548,58.284-131.772,129.925-132.018l0.439-0.001c71.899,0,130.392,58.485,130.392,130.373v284.068
	C386.324,472.922,377.026,482.217,365.601,482.217z"/>
<path d="M368.764,64.722c-28.239-28.145-65.124-44.433-104.654-46.398V8.635c0-4.769-3.865-8.635-8.635-8.635
	c-4.77,0-8.635,3.866-8.635,8.635v9.753c-83.787,4.82-150.577,75.346-150.577,161.109v282.422c0,27.615,22.466,50.081,50.081,50.081
	c13.384,0,25.959-5.213,35.402-14.671c7.396-7.385,12.181-16.682,13.926-26.775h120.659c4.105,23.512,24.651,41.446,49.321,41.446
	c27.615,0,50.081-22.466,50.081-50.081V177.851C415.735,135.087,399.054,94.911,368.764,64.722z M315.573,395.191h-72.735
	c-4.77,0-8.635,3.866-8.635,8.635c0,4.769,3.865,8.635,8.635,8.635h72.735v40.825H196.426V412.46h21.66
	c4.77,0,8.635-3.866,8.635-8.635c0-4.769-3.865-8.635-8.635-8.635h-21.66v-31.085h119.147V395.191z M398.465,461.919
	c0,18.092-14.719,32.812-32.812,32.812s-32.812-14.719-32.812-32.812V301.512c0-4.769-3.865-8.635-8.635-8.635
	c-4.77,0-8.635,3.866-8.635,8.635v45.325H196.426v-167.95c0-32.924,26.31-60.106,58.65-60.593
	c16.073-0.227,31.231,5.847,42.704,17.148c11.475,11.302,17.793,26.363,17.793,42.409v92.578c0,4.769,3.865,8.635,8.635,8.635
	c4.77,0,8.635-3.866,8.635-8.635v-92.578c0-20.708-8.148-40.138-22.944-54.711c-14.795-14.573-34.333-22.424-55.083-22.113
	c-41.718,0.629-75.659,35.556-75.659,77.86v283.032c0,8.765-3.414,17.001-9.621,23.2c-6.188,6.199-14.423,9.612-23.19,9.612
	c-18.092,0-32.812-14.719-32.812-32.812V179.497c0-76.247,59.045-139.001,133.307-143.801v47.773c0,4.769,3.865,8.635,8.635,8.635
	s8.635-3.866,8.635-8.635V35.625c34.94,1.948,67.487,16.432,92.463,41.328c27.015,26.925,41.892,62.758,41.892,100.898v284.068
	H398.465z"/>
<path d="M256.005,133.837c-4.77,0-8.635,3.866-8.635,8.635v188.822c0,4.769,3.865,8.635,8.635,8.635c4.77,0,8.635-3.866,8.635-8.635
	V142.472C264.64,137.703,260.774,133.837,256.005,133.837z"/>
<path d="M220.603,158.613c-4.77,0-8.635,3.866-8.635,8.635v164.047c0,4.769,3.865,8.635,8.635,8.635c4.77,0,8.635-3.866,8.635-8.635
	V167.247C229.238,162.479,225.372,158.613,220.603,158.613z"/>
<path d="M291.407,158.613c-4.77,0-8.635,3.866-8.635,8.635v164.047c0,4.769,3.865,8.635,8.635,8.635s8.635-3.866,8.635-8.635
	V167.247C300.042,162.479,296.176,158.613,291.407,158.613z"/>
<path d="M348.541,92.318l-25.133,25.133c-3.372,3.372-3.372,8.84,0,12.211c1.687,1.685,3.897,2.529,6.106,2.529
	s4.42-0.843,6.106-2.529l25.133-25.133c3.372-3.372,3.372-8.84,0-12.211C357.379,88.946,351.913,88.946,348.541,92.318z"/>
<path d="M163.457,92.318c-3.373-3.372-8.84-3.372-12.212,0c-3.372,3.372-3.372,8.84,0,12.211l25.133,25.133
	c1.687,1.685,3.897,2.529,6.106,2.529c2.209,0,4.42-0.843,6.106-2.529c3.372-3.372,3.372-8.84,0-12.211L163.457,92.318z"/>
<path d="M339.473,233.135c0,4.769,3.865,8.635,8.635,8.635h35.69c4.77,0,8.635-3.866,8.635-8.635c0-4.769-3.865-8.635-8.635-8.635
	h-35.69C343.338,224.501,339.473,228.367,339.473,233.135z"/>
<path d="M383.798,373.017h-35.69c-4.77,0-8.635,3.866-8.635,8.635c0,4.769,3.865,8.635,8.635,8.635h35.69
	c4.77,0,8.635-3.866,8.635-8.635C392.433,376.883,388.567,373.017,383.798,373.017z"/>
<path d="M163.902,224.501h-35.69c-4.77,0-8.635,3.866-8.635,8.635c0,4.769,3.865,8.635,8.635,8.635h35.69
	c4.77,0,8.635-3.866,8.635-8.635C172.537,228.367,168.671,224.501,163.902,224.501z"/>
<path d="M163.902,373.017h-35.69c-4.77,0-8.635,3.866-8.635,8.635c0,4.769,3.865,8.635,8.635,8.635h35.69
	c4.77,0,8.635-3.866,8.635-8.635C172.537,376.883,168.671,373.017,163.902,373.017z"/>
<g>
</g>
<g>
</g>
<g>
</g>
<g>
</g>
<g>
</g>
<g>
</g>
<g>
</g>
<g>
</g>
<g>
</g>
<g>
</g>
<g>
</g>
<g>
</g>
<g>
</g>
<g>
</g>
<g>
</g>
</svg>
