<?xml version="1.0" encoding="iso-8859-1"?>
<!-- Generator: Adobe Illustrator 19.0.0, SVG Export Plug-In . SVG Version: 6.00 Build 0)  -->
<svg version="1.1" id="Capa_1" xmlns="http://www.w3.org/2000/svg" xmlns:xlink="http://www.w3.org/1999/xlink" x="0px" y="0px"
	 viewBox="0 0 512 512" style="enable-background:new 0 0 512 512;" xml:space="preserve">
<path style="fill:#E4EAF8;" d="M496.117,207.904h-305.62c-4.252,0-8.33-1.689-11.337-4.696l-5.592-5.592
	c-3.611-3.611-8.727-5.286-13.774-4.509l-83.913,12.91c-8.08,1.243-15.791,4.237-22.593,8.772l-23.221,15.48
	c-7.823,5.215-9.5,16.013-3.626,23.355l45.354,56.693l320.513-2.347c92.32-26.039,108.962-71.525,111.752-90.903
	C504.758,212.217,501.016,207.904,496.117,207.904z"/>
<path style="fill:#FFC850;" d="M23.424,239.969c-1.076,4.605-0.196,9.638,3.017,13.655l45.354,56.693l320.513-2.347
	c65.01-18.336,92.422-46.286,103.967-68.001L23.424,239.969L23.424,239.969z"/>
<path style="fill:#FEA82F;" d="M455.197,281.359c-0.257,0.099-0.528,0.201-0.784,0.3c-9.265,3.585-16.559,6.407-32.782,6.407
	c-16.224,0-23.517-2.822-32.751-6.395c-11.701-4.524-24.928-9.638-50.119-9.638c-25.186,0-38.411,5.117-50.08,9.631
	c-9.245,3.58-16.53,6.401-32.735,6.401c-16.221,0-23.508-2.822-32.733-6.394c-11.703-4.524-24.93-9.638-50.113-9.638
	c-19.013,0-31.207,2.917-41.061,6.288c-5.668,1.939-11.915,0.538-16.235-3.613l-36.158-34.74H23.424
	c-1.076,4.605-0.196,9.638,3.017,13.655l45.354,56.693l320.513-2.347C419.231,300.375,439.627,291.123,455.197,281.359z"/>
<path style="fill:#ABFFDB;" d="M421.63,312.114c-41.435,0-41.435-16.032-82.871-16.032c-41.407,0-41.407,16.032-82.814,16.032
	c-41.42,0-41.42-16.032-82.841-16.032c-41.406,0-41.406,16.032-82.812,16.032c-41.395,0-41.395-16.032-82.791-16.032l25.313,24.515
	c15.278,14.796,35.59,23.498,56.859,23.581c0.205,0.001,0.411,0.001,0.618,0.001c41.406,0,41.406-16.032,82.812-16.032
	c41.42,0,41.42,16.032,82.841,16.032c41.408,0,41.408-16.032,82.814-16.032c41.436,0,41.436,16.032,82.871,16.032
	c0.219,0,0.436,0,0.653-0.001c21.261-0.087,41.566-8.774,56.849-23.556l25.37-24.54C463.066,296.081,463.066,312.114,421.63,312.114
	z"/>
<path style="fill:#FFFFFF;" d="M496.117,207.904H344.178l-49.841-35.601c-4.078-2.913-8.965-4.479-13.977-4.479h-64.439
	c-4.427,0-8.016,3.589-8.016,8.016v32.064h-17.407c-4.252,0-8.331-1.689-11.338-4.696l-5.592-5.592
	c-3.611-3.611-8.727-5.286-13.774-4.509l-24.31,3.74l17.911,23.882c9.083,12.111,23.339,19.239,38.478,19.239h304.403
	c4.85-9.122,6.959-17.169,7.785-22.902C504.758,212.217,501.016,207.904,496.117,207.904z"/>
<g>
	<path style="fill:#474D54;" d="M504.501,288.581c-22.118,0-33.315,4.332-44.142,8.522c-9.241,3.576-18.015,6.965-34.593,7.449
		c26.086-10.517,46.686-23.706,61.453-39.391c17.069-18.132,22.617-35.58,24.265-47.025c0.643-4.464-0.678-8.976-3.625-12.378
		c-2.948-3.403-7.227-5.354-11.741-5.354H346.582L298.695,166.2c-5.382-3.844-11.723-5.876-18.336-5.876H215.92
		c-8.556,0-15.516,6.96-15.516,15.516v24.564h-9.908c-2.279,0-4.422-0.887-6.033-2.499l-5.592-5.592
		c-5.28-5.28-12.837-7.755-20.218-6.619l-83.913,12.91c-9.098,1.399-17.955,4.838-25.613,9.944l-23.221,15.48
		c-5.473,3.649-9.191,9.47-10.2,15.97s0.769,13.174,4.878,18.31l31.043,38.805c-0.008-0.003-0.016-0.006-0.023-0.009
		c-10.818-4.19-22.004-8.522-44.104-8.522c-4.142,0-7.5,3.358-7.5,7.5c0,4.142,3.358,7.5,7.5,7.5c19.296,0,28.714,3.648,38.687,7.51
		c10.818,4.19,22.004,8.522,44.104,8.522c22.104,0,33.293-4.332,44.114-8.522c9.975-3.862,19.396-7.51,38.698-7.51
		c19.309,0,28.734,3.648,38.712,7.51c10.824,4.19,22.017,8.522,44.128,8.522c22.105,0,33.294-4.332,44.115-8.522
		c9.975-3.862,19.397-7.51,38.699-7.51c19.317,0,28.747,3.648,38.729,7.511c10.828,4.189,22.024,8.521,44.143,8.521
		s33.314-4.332,44.142-8.521c9.982-3.862,19.412-7.511,38.729-7.511c4.142,0,7.5-3.358,7.5-7.5
		C512,291.94,508.643,288.581,504.501,288.581z M289.977,178.406l30.798,21.999h-73.306v-25.081h32.89
		C283.828,175.324,287.154,176.39,289.977,178.406z M215.404,175.84c0-0.285,0.231-0.516,0.516-0.516h16.548v25.081h-17.064
		L215.404,175.84L215.404,175.84z M338.758,288.581c-22.105,0-33.294,4.332-44.115,8.522c-9.975,3.862-19.397,7.51-38.699,7.51
		c-19.31,0-28.735-3.648-38.713-7.51c-10.824-4.19-22.016-8.522-44.127-8.522c-22.104,0-33.293,4.332-44.114,8.522
		c-9.975,3.862-19.396,7.51-38.698,7.51c-5.387,0-10.003-0.285-14.077-0.779l-43.917-54.897c-0.371-0.464-0.687-0.956-0.95-1.47
		l-0.736-3.226c-0.668-2.926,0.554-5.96,3.063-7.607l23.773-15.607c5.853-3.901,12.622-6.529,19.574-7.599l83.914-12.91
		c2.673-0.411,5.415,0.485,7.33,2.4l5.592,5.592c4.413,4.413,10.398,6.892,16.64,6.892h305.621c0.068,0,0.25,0,0.403,0.176
		c0.151,0.174,0.126,0.345,0.116,0.418c-0.603,4.184-1.973,9.884-4.979,16.47l-9.084,15c-13.646,17.876-40.021,38.283-90.85,52.863
		c-3.065-1.002-5.922-2.106-8.824-3.229C372.073,292.914,360.876,288.581,338.758,288.581z"/>
	<path style="fill:#474D54;" d="M461.723,328.641l-1.367,0.528c-4.515,1.747-8.78,3.397-13.855,4.715
		c-4.009,1.042-6.415,5.136-5.374,9.145c0.877,3.377,3.92,5.616,7.254,5.616c0.624,0,1.259-0.079,1.891-0.243
		c5.912-1.536,10.784-3.421,15.497-5.245l1.349-0.521c3.865-1.49,5.79-5.831,4.301-9.695
		C469.929,329.076,465.587,327.151,461.723,328.641z"/>
	<path style="fill:#474D54;" d="M416.594,336.589c-16.001-0.577-24.595-3.902-33.694-7.423c-10.828-4.189-22.024-8.522-44.142-8.522
		c-22.105,0-33.294,4.333-44.115,8.522c-9.975,3.862-19.397,7.51-38.699,7.51c-19.31,0-28.734-3.648-38.713-7.51
		c-10.824-4.19-22.016-8.522-44.127-8.522c-22.104,0-33.293,4.333-44.114,8.522c-9.077,3.515-17.651,6.835-33.587,7.419
		c-4.14,0.152-7.372,3.631-7.22,7.77c0.152,4.14,3.634,7.364,7.77,7.22c18.454-0.677,28.622-4.614,38.454-8.421
		c9.975-3.862,19.396-7.51,38.698-7.51c19.309,0,28.734,3.648,38.713,7.51c10.824,4.19,22.016,8.522,44.128,8.522
		c22.105,0,33.294-4.332,44.115-8.522c9.975-3.862,19.397-7.51,38.699-7.51c19.317,0,28.747,3.648,38.729,7.511
		c9.855,3.813,20.045,7.756,38.566,8.424c4.104,0.153,7.616-3.085,7.765-7.225C423.968,340.216,420.733,336.74,416.594,336.589z"/>
	<path style="fill:#474D54;" d="M65.512,333.901c-5.105-1.323-9.384-2.981-13.914-4.736c-3.864-1.496-8.207,0.422-9.703,4.284
		c-1.496,3.863,0.422,8.207,4.284,9.703c4.73,1.832,9.621,3.727,15.569,5.269c0.631,0.164,1.264,0.242,1.887,0.242
		c3.335,0,6.379-2.242,7.255-5.62C71.93,339.034,69.522,334.94,65.512,333.901z"/>
</g>
<g>
</g>
<g>
</g>
<g>
</g>
<g>
</g>
<g>
</g>
<g>
</g>
<g>
</g>
<g>
</g>
<g>
</g>
<g>
</g>
<g>
</g>
<g>
</g>
<g>
</g>
<g>
</g>
<g>
</g>
</svg>
