<?xml version="1.0" encoding="utf-8"?>
<!-- Generator: Adobe Illustrator 16.0.0, SVG Export Plug-In . SVG Version: 6.00 Build 0)  -->
<!DOCTYPE svg PUBLIC "-//W3C//DTD SVG 1.1//EN" "http://www.w3.org/Graphics/SVG/1.1/DTD/svg11.dtd">
<svg version="1.1" id="icons" xmlns="http://www.w3.org/2000/svg" xmlns:xlink="http://www.w3.org/1999/xlink" x="0px" y="0px"
	 width="64px" height="64px" viewBox="0 0 64 64" enable-background="new 0 0 64 64" xml:space="preserve">
<g>
	<g>
		<rect x="1" y="52.491" fill="#FFCE54" width="62" height="9.02"/>
	</g>
	<g>
		<circle fill="#5D9CEC" cx="32" cy="9.491" r="5"/>
	</g>
	<g>
		<polygon fill="#E6E9ED" points="60,18.491 60,21.491 56,21.491 52,21.491 48,21.491 44,21.491 40,21.491 36,21.491 32,21.491 
			28,21.491 24,21.491 20,21.491 16,21.491 12,21.491 8,21.491 4,21.491 4,18.491 		"/>
	</g>
</g>
<g>
	<g>
		<g>
			<path d="M4.003,53.483c-0.553,0-1-0.447-1-1V21.495c0-0.553,0.447-1,1-1s1,0.447,1,1v30.988
				C5.003,53.036,4.556,53.483,4.003,53.483z"/>
		</g>
		<g>
			<path d="M59.998,53.483c-0.553,0-1-0.447-1-1V21.495c0-0.553,0.447-1,1-1s1,0.447,1,1v30.988
				C60.998,53.036,60.551,53.483,59.998,53.483z"/>
		</g>
		<g>
			<path d="M59.998,22.495H4.003c-0.553,0-1-0.447-1-1v-3c0-0.553,0.447-1,1-1h55.995c0.553,0,1,0.447,1,1v3
				C60.998,22.048,60.551,22.495,59.998,22.495z M5.003,20.495h53.995v-1H5.003V20.495z"/>
		</g>
		<g>
			<path d="M59.998,26.495H4.003c-0.553,0-1-0.447-1-1s0.447-1,1-1h55.995c0.553,0,1,0.447,1,1S60.551,26.495,59.998,26.495z"/>
		</g>
		<g>
			<path d="M59.998,30.495H4.003c-0.553,0-1-0.447-1-1s0.447-1,1-1h55.995c0.553,0,1,0.447,1,1S60.551,30.495,59.998,30.495z"/>
		</g>
		<g>
			<path d="M59.998,34.495H4.003c-0.553,0-1-0.447-1-1s0.447-1,1-1h55.995c0.553,0,1,0.447,1,1S60.551,34.495,59.998,34.495z"/>
		</g>
		<g>
			<path d="M59.998,38.495H4.003c-0.553,0-1-0.447-1-1s0.447-1,1-1h55.995c0.553,0,1,0.447,1,1S60.551,38.495,59.998,38.495z"/>
		</g>
		<g>
			<path d="M8.001,38.495c-0.553,0-1-0.447-1-1v-16c0-0.553,0.447-1,1-1s1,0.447,1,1v16C9.001,38.048,8.554,38.495,8.001,38.495z"/>
		</g>
		<g>
			<path d="M12.001,38.495c-0.553,0-1-0.447-1-1v-16c0-0.553,0.447-1,1-1s1,0.447,1,1v16C13.001,38.048,12.554,38.495,12.001,38.495
				z"/>
		</g>
		<g>
			<path d="M16.001,38.495c-0.553,0-1-0.447-1-1v-16c0-0.553,0.447-1,1-1s1,0.447,1,1v16C17.001,38.048,16.554,38.495,16.001,38.495
				z"/>
		</g>
		<g>
			<path d="M20.001,38.495c-0.553,0-1-0.447-1-1v-16c0-0.553,0.447-1,1-1s1,0.447,1,1v16C21.001,38.048,20.554,38.495,20.001,38.495
				z"/>
		</g>
		<g>
			<path d="M24.001,38.495c-0.553,0-1-0.447-1-1v-16c0-0.553,0.447-1,1-1s1,0.447,1,1v16C25.001,38.048,24.554,38.495,24.001,38.495
				z"/>
		</g>
		<g>
			<path d="M28.001,38.495c-0.553,0-1-0.447-1-1v-16c0-0.553,0.447-1,1-1s1,0.447,1,1v16C29.001,38.048,28.554,38.495,28.001,38.495
				z"/>
		</g>
		<g>
			<path d="M32.001,38.495c-0.553,0-1-0.447-1-1v-16c0-0.553,0.447-1,1-1s1,0.447,1,1v16C33.001,38.048,32.554,38.495,32.001,38.495
				z"/>
		</g>
		<g>
			<path d="M36.001,38.495c-0.553,0-1-0.447-1-1v-16c0-0.553,0.447-1,1-1s1,0.447,1,1v16C37.001,38.048,36.554,38.495,36.001,38.495
				z"/>
		</g>
		<g>
			<path d="M40.001,38.495c-0.553,0-1-0.447-1-1v-16c0-0.553,0.447-1,1-1s1,0.447,1,1v16C41.001,38.048,40.554,38.495,40.001,38.495
				z"/>
		</g>
		<g>
			<path d="M44.001,38.495c-0.553,0-1-0.447-1-1v-16c0-0.553,0.447-1,1-1s1,0.447,1,1v16C45.001,38.048,44.554,38.495,44.001,38.495
				z"/>
		</g>
		<g>
			<path d="M48.001,38.495c-0.553,0-1-0.447-1-1v-16c0-0.553,0.447-1,1-1s1,0.447,1,1v16C49.001,38.048,48.554,38.495,48.001,38.495
				z"/>
		</g>
		<g>
			<path d="M52.001,38.495c-0.553,0-1-0.447-1-1v-16c0-0.553,0.447-1,1-1s1,0.447,1,1v16C53.001,38.048,52.554,38.495,52.001,38.495
				z"/>
		</g>
		<g>
			<path d="M56.001,38.495c-0.553,0-1-0.447-1-1v-16c0-0.553,0.447-1,1-1s1,0.447,1,1v16C57.001,38.048,56.554,38.495,56.001,38.495
				z"/>
		</g>
	</g>
	<g>
		<path d="M63,53.491H1c-0.553,0-1-0.447-1-1s0.447-1,1-1h62c0.553,0,1,0.447,1,1S63.553,53.491,63,53.491z"/>
	</g>
	<g>
		<g>
			<g>
				<path d="M4.029,56.509c-0.553,0-1.005-0.447-1.005-1s0.442-1,0.994-1h0.011c0.552,0,1,0.447,1,1S4.581,56.509,4.029,56.509z"/>
			</g>
		</g>
		<g>
			<g>
				<path d="M8.029,60.509c-0.553,0-1.005-0.447-1.005-1s0.442-1,0.994-1h0.011c0.552,0,1,0.447,1,1S8.581,60.509,8.029,60.509z"/>
			</g>
		</g>
		<g>
			<g>
				<path d="M12.029,56.509c-0.553,0-1.005-0.447-1.005-1s0.442-1,0.994-1h0.011c0.552,0,1,0.447,1,1S12.581,56.509,12.029,56.509z"
					/>
			</g>
		</g>
		<g>
			<g>
				<path d="M16.029,60.509c-0.553,0-1.005-0.447-1.005-1s0.442-1,0.994-1h0.011c0.552,0,1,0.447,1,1S16.581,60.509,16.029,60.509z"
					/>
			</g>
		</g>
		<g>
			<g>
				<path d="M20.029,56.509c-0.553,0-1.005-0.447-1.005-1s0.442-1,0.994-1h0.011c0.552,0,1,0.447,1,1S20.581,56.509,20.029,56.509z"
					/>
			</g>
		</g>
		<g>
			<g>
				<path d="M24.029,60.509c-0.553,0-1.005-0.447-1.005-1s0.442-1,0.994-1h0.011c0.552,0,1,0.447,1,1S24.581,60.509,24.029,60.509z"
					/>
			</g>
		</g>
		<g>
			<g>
				<path d="M28.029,56.509c-0.553,0-1.005-0.447-1.005-1s0.442-1,0.994-1h0.011c0.552,0,1,0.447,1,1S28.581,56.509,28.029,56.509z"
					/>
			</g>
		</g>
		<g>
			<g>
				<path d="M32.029,60.509c-0.553,0-1.005-0.447-1.005-1s0.442-1,0.994-1h0.011c0.552,0,1,0.447,1,1S32.581,60.509,32.029,60.509z"
					/>
			</g>
		</g>
		<g>
			<g>
				<path d="M36.029,56.509c-0.553,0-1.005-0.447-1.005-1s0.442-1,0.994-1h0.011c0.552,0,1,0.447,1,1S36.581,56.509,36.029,56.509z"
					/>
			</g>
		</g>
		<g>
			<g>
				<path d="M40.029,60.509c-0.553,0-1.005-0.447-1.005-1s0.442-1,0.994-1h0.011c0.552,0,1,0.447,1,1S40.581,60.509,40.029,60.509z"
					/>
			</g>
		</g>
		<g>
			<g>
				<path d="M44.029,56.509c-0.553,0-1.005-0.447-1.005-1s0.442-1,0.994-1h0.011c0.552,0,1,0.447,1,1S44.581,56.509,44.029,56.509z"
					/>
			</g>
		</g>
		<g>
			<g>
				<path d="M48.029,60.509c-0.553,0-1.005-0.447-1.005-1s0.442-1,0.994-1h0.011c0.552,0,1,0.447,1,1S48.581,60.509,48.029,60.509z"
					/>
			</g>
		</g>
		<g>
			<g>
				<path d="M52.029,56.509c-0.553,0-1.005-0.447-1.005-1s0.442-1,0.994-1h0.011c0.552,0,1,0.447,1,1S52.581,56.509,52.029,56.509z"
					/>
			</g>
		</g>
		<g>
			<g>
				<path d="M56.029,60.509c-0.553,0-1.005-0.447-1.005-1s0.442-1,0.994-1h0.011c0.552,0,1,0.447,1,1S56.581,60.509,56.029,60.509z"
					/>
			</g>
		</g>
		<g>
			<g>
				<path d="M60.029,56.509c-0.553,0-1.005-0.447-1.005-1s0.442-1,0.994-1h0.011c0.552,0,1,0.447,1,1S60.581,56.509,60.029,56.509z"
					/>
			</g>
		</g>
	</g>
	<g>
		<path d="M32,15.49c-3.309,0-6-2.691-6-5.999c0-3.309,2.691-6,6-6s6,2.691,6,6C38,12.799,35.309,15.49,32,15.49z M32,5.491
			c-2.206,0-4,1.794-4,4c0,2.205,1.794,3.999,4,3.999s4-1.794,4-3.999C36,7.285,34.206,5.491,32,5.491z"/>
	</g>
</g>
</svg>
