<?xml version="1.0" encoding="utf-8"?>
<!-- Generator: Adobe Illustrator 16.0.0, SVG Export Plug-In . SVG Version: 6.00 Build 0)  -->
<!DOCTYPE svg PUBLIC "-//W3C//DTD SVG 1.1//EN" "http://www.w3.org/Graphics/SVG/1.1/DTD/svg11.dtd">
<svg version="1.1" id="icons" xmlns="http://www.w3.org/2000/svg" xmlns:xlink="http://www.w3.org/1999/xlink" x="0px" y="0px"
	 width="64px" height="64px" viewBox="0 0 64 64" enable-background="new 0 0 64 64" xml:space="preserve">
<g>
	<g>
		<path fill="#FFD2A6" d="M32,11H1v4v12v5c0-1.1,0.9-2,2-2c1.101,0,2,0.9,2,2s-0.899,2-2,2c-1.1,0-2-0.9-2-2v5v12v4h31h31v-4V37v-5
			c0,1.1-0.899,2-2,2c-1.109,0-2-0.9-2-2s0.891-2,2-2c1.101,0,2,0.9,2,2v-5V15v-4H32z"/>
	</g>
	<g>
		<path fill="#965353" d="M32,26c3.311,0,6,2.69,6,6s-2.689,6-6,6V26z"/>
	</g>
	<g>
		<path fill="#965353" d="M32,26v12c-3.31,0-6-2.69-6-6S28.69,26,32,26z"/>
	</g>
	<g>
		<path fill="#F5F7FA" d="M61,30c1.101,0,2,0.9,2,2s-0.899,2-2,2c-1.109,0-2-0.9-2-2S59.891,30,61,30z"/>
	</g>
	<g>
		<path fill="#F5F7FA" d="M3,30c1.101,0,2,0.9,2,2s-0.899,2-2,2c-1.1,0-2-0.9-2-2S1.9,30,3,30z"/>
	</g>
</g>
<g>
	<g>
		<path d="M63,54H1c-0.553,0-1-0.447-1-1V11c0-0.553,0.447-1,1-1h62c0.553,0,1,0.447,1,1v42C64,53.553,63.553,54,63,54z M2,52h60V12
			H2V52z"/>
	</g>
	<g>
		<path d="M32,54c-0.553,0-1-0.447-1-1V11c0-0.553,0.447-1,1-1s1,0.447,1,1v42C33,53.553,32.553,54,32,54z"/>
	</g>
	<g>
		<path d="M32,39c-3.859,0-7-3.141-7-7s3.141-7,7-7s7,3.141,7,7S35.859,39,32,39z M32,27c-2.757,0-5,2.243-5,5s2.243,5,5,5
			s5-2.243,5-5S34.757,27,32,27z"/>
	</g>
	<g>
		<g>
			<path d="M50.996,38.004c-3.311,0-6.004-2.693-6.004-6.004s2.693-6.004,6.004-6.004c0.553,0,1,0.447,1,1s-0.447,1-1,1
				c-2.208,0-4.004,1.796-4.004,4.004s1.796,4.004,4.004,4.004c0.553,0,1,0.447,1,1S51.549,38.004,50.996,38.004z"/>
		</g>
		<g>
			<path d="M63,50c-9.925,0-18-8.075-18-18s8.075-18,18-18c0.553,0,1,0.447,1,1s-0.447,1-1,1c-8.822,0-16,7.178-16,16
				s7.178,16,16,16c0.553,0,1,0.447,1,1S63.553,50,63,50z"/>
		</g>
		<g>
			<path d="M63,27.996H50.996c-0.553,0-1-0.447-1-1s0.447-1,1-1H63c0.553,0,1,0.447,1,1S63.553,27.996,63,27.996z"/>
		</g>
		<g>
			<path d="M63,38.004H50.996c-0.553,0-1-0.447-1-1s0.447-1,1-1H63c0.553,0,1,0.447,1,1S63.553,38.004,63,38.004z"/>
		</g>
		<g>
			<path d="M50.996,38.004c-0.553,0-1-0.447-1-1V26.996c0-0.553,0.447-1,1-1s1,0.447,1,1v10.008
				C51.996,37.557,51.549,38.004,50.996,38.004z"/>
		</g>
		<g>
			<path d="M60.998,35c-1.654,0-3-1.346-3-3s1.346-3,3-3s3,1.346,3,3S62.652,35,60.998,35z M60.998,31c-0.552,0-1,0.448-1,1
				s0.448,1,1,1s1-0.448,1-1S61.55,31,60.998,31z"/>
		</g>
	</g>
	<g>
		<g>
			<path d="M13.004,38.004c-0.553,0-1-0.447-1-1s0.447-1,1-1c2.208,0,4.004-1.796,4.004-4.004s-1.796-4.004-4.004-4.004
				c-0.553,0-1-0.447-1-1s0.447-1,1-1c3.311,0,6.004,2.693,6.004,6.004S16.314,38.004,13.004,38.004z"/>
		</g>
		<g>
			<path d="M1,50c-0.553,0-1-0.447-1-1s0.447-1,1-1c8.822,0,16-7.178,16-16S9.822,16,1,16c-0.553,0-1-0.447-1-1s0.447-1,1-1
				c9.925,0,18,8.075,18,18S10.925,50,1,50z"/>
		</g>
		<g>
			<path d="M13.004,38.004H1c-0.553,0-1-0.447-1-1s0.447-1,1-1h12.004c0.553,0,1,0.447,1,1S13.557,38.004,13.004,38.004z"/>
		</g>
		<g>
			<path d="M13.004,27.996H1c-0.553,0-1-0.447-1-1s0.447-1,1-1h12.004c0.553,0,1,0.447,1,1S13.557,27.996,13.004,27.996z"/>
		</g>
		<g>
			<path d="M13.004,38.004c-0.553,0-1-0.447-1-1V26.996c0-0.553,0.447-1,1-1s1,0.447,1,1v10.008
				C14.004,37.557,13.557,38.004,13.004,38.004z"/>
		</g>
		<g>
			<path d="M3.002,35c-1.654,0-3-1.346-3-3s1.346-3,3-3s3,1.346,3,3S4.656,35,3.002,35z M3.002,31c-0.552,0-1,0.448-1,1s0.448,1,1,1
				s1-0.448,1-1S3.554,31,3.002,31z"/>
		</g>
	</g>
</g>
</svg>
