<?xml version="1.0" encoding="utf-8"?>
<!-- Generator: Adobe Illustrator 16.0.0, SVG Export Plug-In . SVG Version: 6.00 Build 0)  -->
<!DOCTYPE svg PUBLIC "-//W3C//DTD SVG 1.1//EN" "http://www.w3.org/Graphics/SVG/1.1/DTD/svg11.dtd">
<svg version="1.1" id="icons" xmlns="http://www.w3.org/2000/svg" xmlns:xlink="http://www.w3.org/1999/xlink" x="0px" y="0px"
	 width="64px" height="64px" viewBox="0 0 64 64" enable-background="new 0 0 64 64" xml:space="preserve">
<g>
	<g>
		<circle fill="#E6E9ED" cx="27.5" cy="38" r="1.5"/>
	</g>
	<g>
		<circle fill="#E6E9ED" cx="34.5" cy="38" r="1.5"/>
	</g>
	<g>
		<polygon fill="#F7C292" points="57.003,21.5 59.999,21.5 62.999,21.5 62.999,48.5 56.993,48.5 56.993,21.5 		"/>
	</g>
	<g>
		<path fill="#F7C292" d="M10.01,21.5c0,11.05,8.94,20,20,20H24c-11.05,0-20-8.95-20-20h3.01H10.01z"/>
	</g>
	<g>
		<path fill="#FFD2A6" d="M56.993,21.5v27H1v-27h3c0,11.05,8.95,20,20,20h6.01h3.993c11.05,0,20-8.95,20-20H56.993z"/>
	</g>
</g>
<g>
	<g>
		<path d="M1,22.5c-0.553,0-1-0.447-1-1v-6c0-0.553,0.447-1,1-1s1,0.447,1,1v6C2,22.053,1.553,22.5,1,22.5z"/>
	</g>
	<g>
		<path d="M56.993,49.5H1c-0.553,0-1-0.447-1-1v-27c0-0.553,0.447-1,1-1s1,0.447,1,1v26h53.993v-26c0-0.553,0.447-1,1-1s1,0.447,1,1
			v27C57.993,49.053,57.546,49.5,56.993,49.5z"/>
	</g>
	<g>
		<path d="M24,42.5c-11.579,0-21-9.421-21-21c0-0.553,0.447-1,1-1s1,0.447,1,1c0,10.477,8.523,19,19,19c0.553,0,1,0.447,1,1
			S24.553,42.5,24,42.5z"/>
	</g>
	<g>
		<path d="M33.996,42.5c-0.553,0-1-0.447-1-1s0.447-1,1-1c10.477,0,19-8.523,19-19c0-0.553,0.447-1,1-1s1,0.447,1,1
			C54.996,33.079,45.575,42.5,33.996,42.5z"/>
	</g>
	<g>
		<path d="M7.006,22.5c-0.553,0-1-0.447-1-1v-6c0-0.553,0.447-1,1-1s1,0.447,1,1v6C8.006,22.053,7.559,22.5,7.006,22.5z"/>
	</g>
	<g>
		<path d="M30.006,42.5c-11.579,0-21-9.421-21-21c0-0.553,0.447-1,1-1s1,0.447,1,1c0,10.477,8.523,19,19,19c0.553,0,1,0.447,1,1
			S30.559,42.5,30.006,42.5z"/>
	</g>
	<g>
		<path d="M33.996,42.5H24c-0.553,0-1-0.447-1-1s0.447-1,1-1h9.996c0.553,0,1,0.447,1,1S34.549,42.5,33.996,42.5z"/>
	</g>
	<g>
		<path d="M62.999,22.5h-9.003c-0.553,0-1-0.447-1-1s0.447-1,1-1h9.003c0.553,0,1,0.447,1,1S63.552,22.5,62.999,22.5z"/>
	</g>
	<g>
		<path d="M62.999,49.5c-0.553,0-1-0.447-1-1v-27c0-0.553,0.447-1,1-1s1,0.447,1,1v27C63.999,49.053,63.552,49.5,62.999,49.5z"/>
	</g>
	<g>
		<path d="M62.999,49.5h-6.006c-0.553,0-1-0.447-1-1s0.447-1,1-1h6.006c0.553,0,1,0.447,1,1S63.552,49.5,62.999,49.5z"/>
	</g>
	<g>
		<path d="M10.006,22.5H1c-0.553,0-1-0.447-1-1s0.447-1,1-1h9.006c0.553,0,1,0.447,1,1S10.559,22.5,10.006,22.5z"/>
	</g>
	<g>
		<path d="M7.006,16.5H1c-0.553,0-1-0.447-1-1s0.447-1,1-1h6.006c0.553,0,1,0.447,1,1S7.559,16.5,7.006,16.5z"/>
	</g>
	<g>
		<path d="M7.006,19.5H1c-0.553,0-1-0.447-1-1s0.447-1,1-1h6.006c0.553,0,1,0.447,1,1S7.559,19.5,7.006,19.5z"/>
	</g>
	<g>
		<path d="M56.993,22.5c-0.553,0-1-0.447-1-1v-6c0-0.553,0.447-1,1-1s1,0.447,1,1v6C57.993,22.053,57.546,22.5,56.993,22.5z"/>
	</g>
	<g>
		<path d="M62.999,22.5c-0.553,0-1-0.447-1-1v-6c0-0.553,0.447-1,1-1s1,0.447,1,1v6C63.999,22.053,63.552,22.5,62.999,22.5z"/>
	</g>
	<g>
		<path d="M62.999,16.5h-6.006c-0.553,0-1-0.447-1-1s0.447-1,1-1h6.006c0.553,0,1,0.447,1,1S63.552,16.5,62.999,16.5z"/>
	</g>
	<g>
		<path d="M62.999,19.5h-6.006c-0.553,0-1-0.447-1-1s0.447-1,1-1h6.006c0.553,0,1,0.447,1,1S63.552,19.5,62.999,19.5z"/>
	</g>
	<g>
		<g>
			<path d="M38.003,37.5H23.998c-0.553,0-1-0.447-1-1s0.447-1,1-1h14.005c0.553,0,1,0.447,1,1S38.556,37.5,38.003,37.5z"/>
		</g>
		<g>
			<path d="M23.998,37.5c-0.256,0-0.512-0.098-0.707-0.293l-1-1c-0.391-0.391-0.391-1.023,0-1.414s1.023-0.391,1.414,0l1,1
				c0.391,0.391,0.391,1.023,0,1.414C24.51,37.402,24.254,37.5,23.998,37.5z"/>
		</g>
		<g>
			<path d="M38.003,37.5c-0.256,0-0.512-0.098-0.707-0.293c-0.391-0.391-0.391-1.023,0-1.414l1-1c0.391-0.391,1.023-0.391,1.414,0
				s0.391,1.023,0,1.414l-1,1C38.515,37.402,38.259,37.5,38.003,37.5z"/>
		</g>
		<g>
			<path d="M27.499,40.5c-1.379,0-2.5-1.121-2.5-2.5s1.121-2.5,2.5-2.5s2.5,1.121,2.5,2.5S28.878,40.5,27.499,40.5z M27.499,37.5
				c-0.275,0-0.5,0.225-0.5,0.5s0.225,0.5,0.5,0.5s0.5-0.225,0.5-0.5S27.774,37.5,27.499,37.5z"/>
		</g>
		<g>
			<path d="M34.495,40.5c-1.379,0-2.5-1.121-2.5-2.5s1.121-2.5,2.5-2.5s2.5,1.121,2.5,2.5S35.874,40.5,34.495,40.5z M34.495,37.5
				c-0.275,0-0.5,0.225-0.5,0.5s0.225,0.5,0.5,0.5s0.5-0.225,0.5-0.5S34.771,37.5,34.495,37.5z"/>
		</g>
	</g>
</g>
</svg>
