<?xml version="1.0" encoding="utf-8"?>
<!-- Generator: Adobe Illustrator 16.0.0, SVG Export Plug-In . SVG Version: 6.00 Build 0)  -->
<!DOCTYPE svg PUBLIC "-//W3C//DTD SVG 1.1//EN" "http://www.w3.org/Graphics/SVG/1.1/DTD/svg11.dtd">
<svg version="1.1" id="icons" xmlns="http://www.w3.org/2000/svg" xmlns:xlink="http://www.w3.org/1999/xlink" x="0px" y="0px"
	 width="64px" height="64px" viewBox="0 0 64 64" enable-background="new 0 0 64 64" xml:space="preserve">
<g>
	<polygon fill="#A0D468" points="59,11 32,11 5,11 1,11 1,15 1,22 1,29 1,35 1,42 1,49 1,53 5,53 32,53 59,53 63,53 63,49 63,42 
		63,34.99 63,29 63,22 63,15 63,11 	"/>
</g>
<g>
	<g>
		<path d="M63,54H1c-0.553,0-1-0.447-1-1V11c0-0.553,0.447-1,1-1h62c0.553,0,1,0.447,1,1v42C64,53.553,63.553,54,63,54z M2,52h60V12
			H2V52z"/>
	</g>
	<g>
		<path d="M1,16c-0.553,0-1-0.447-1-1s0.447-1,1-1c1.654,0,3-1.346,3-3c0-0.553,0.447-1,1-1s1,0.447,1,1C6,13.757,3.757,16,1,16z"/>
	</g>
	<g>
		<path d="M5,54c-0.553,0-1-0.447-1-1c0-1.654-1.346-3-3-3c-0.553,0-1-0.447-1-1s0.447-1,1-1c2.757,0,5,2.243,5,5
			C6,53.553,5.553,54,5,54z"/>
	</g>
	<g>
		<path d="M63,16c-2.757,0-5-2.243-5-5c0-0.553,0.447-1,1-1s1,0.447,1,1c0,1.654,1.346,3,3,3c0.553,0,1,0.447,1,1S63.553,16,63,16z"
			/>
	</g>
	<g>
		<path d="M59,54c-0.553,0-1-0.447-1-1c0-2.757,2.243-5,5-5c0.553,0,1,0.447,1,1s-0.447,1-1,1c-1.654,0-3,1.346-3,3
			C60,53.553,59.553,54,59,54z"/>
	</g>
	<g>
		<path d="M32,54c-0.553,0-1-0.447-1-1V11c0-0.553,0.447-1,1-1s1,0.447,1,1v42C33,53.553,32.553,54,32,54z"/>
	</g>
	<g>
		<path d="M32,39c-3.859,0-7-3.141-7-7s3.141-7,7-7s7,3.141,7,7S35.859,39,32,39z M32,27c-2.757,0-5,2.243-5,5s2.243,5,5,5
			s5-2.243,5-5S34.757,27,32,27z"/>
	</g>
	<g>
		<path d="M9.999,39.324c-0.374,0-0.732-0.21-0.904-0.57c-0.237-0.499-0.025-1.096,0.474-1.333c2.082-0.99,3.427-3.118,3.427-5.421
			c0-2.302-1.344-4.43-3.424-5.421c-0.499-0.237-0.711-0.834-0.473-1.332c0.236-0.499,0.833-0.713,1.332-0.473
			c2.773,1.32,4.564,4.157,4.564,7.226c0,3.069-1.793,5.906-4.567,7.228C10.289,39.293,10.143,39.324,9.999,39.324z"/>
	</g>
	<g>
		<path d="M3.999,35.999H1c-0.553,0-1-0.447-1-1v-5.998c0-0.553,0.447-1,1-1h2.999c0.553,0,1,0.447,1,1v5.998
			C4.999,35.552,4.552,35.999,3.999,35.999z M2,33.999h0.999v-3.998H2V33.999z"/>
	</g>
	<g>
		<path d="M9.998,42.998H1c-0.553,0-1-0.447-1-1V22c0-0.553,0.447-1,1-1h8.998c0.553,0,1,0.447,1,1v19.998
			C10.998,42.551,10.551,42.998,9.998,42.998z M2,40.998h6.998V23H2V40.998z"/>
	</g>
	<g>
		<path d="M53.994,39.321c-0.144,0-0.29-0.031-0.429-0.098c-2.773-1.32-4.564-4.157-4.564-7.226c0-3.069,1.793-5.906,4.567-7.228
			c0.5-0.236,1.096-0.025,1.333,0.474s0.025,1.096-0.474,1.333c-2.082,0.99-3.427,3.118-3.427,5.421c0,2.302,1.344,4.43,3.424,5.421
			c0.499,0.237,0.711,0.834,0.473,1.332C54.727,39.111,54.368,39.321,53.994,39.321z"/>
	</g>
	<g>
		<path d="M62.996,35.997h-2.999c-0.553,0-1-0.447-1-1v-5.998c0-0.553,0.447-1,1-1h2.999c0.553,0,1,0.447,1,1v5.998
			C63.996,35.55,63.549,35.997,62.996,35.997z M60.997,33.997h0.999v-3.998h-0.999V33.997z"/>
	</g>
	<g>
		<path d="M62.996,42.998h-8.998c-0.553,0-1-0.447-1-1V22c0-0.553,0.447-1,1-1h8.998c0.553,0,1,0.447,1,1v19.998
			C63.996,42.551,63.549,42.998,62.996,42.998z M54.998,40.998h6.998V23h-6.998V40.998z"/>
	</g>
</g>
</svg>
