<?xml version="1.0" encoding="utf-8"?>
<!-- Generator: Adobe Illustrator 16.0.0, SVG Export Plug-In . SVG Version: 6.00 Build 0)  -->
<!DOCTYPE svg PUBLIC "-//W3C//DTD SVG 1.1//EN" "http://www.w3.org/Graphics/SVG/1.1/DTD/svg11.dtd">
<svg version="1.1" id="icons" xmlns="http://www.w3.org/2000/svg" xmlns:xlink="http://www.w3.org/1999/xlink" x="0px" y="0px"
	 width="64px" height="64px" viewBox="0 0 64 64" enable-background="new 0 0 64 64" xml:space="preserve">
<g>
	<polygon fill="#FC6E51" points="45,1 19,1 15,1 15,32 15,63 19,63 45,63 49,63 49,32 49,1 	"/>
	<path fill="#E6E9ED" d="M49.002,0.5H14.998c-0.276,0-0.5,0.224-0.5,0.5v62c0,0.276,0.224,0.5,0.5,0.5h34.004
		c0.276,0,0.5-0.224,0.5-0.5V1C49.502,0.724,49.278,0.5,49.002,0.5z M44.502,17.5v29H32.5v-29H44.502z M31.5,46.5H19.499v-29H31.5
		V46.5z M19.499,47.5h25.003v15H19.499V47.5z M44.502,16.5H19.499v-15h25.003V16.5z M15.498,1.5h3.001v15.495
		c0,0.002-0.001,0.003-0.001,0.005s0.001,0.003,0.001,0.005v29.99c0,0.002-0.001,0.003-0.001,0.005s0.001,0.003,0.001,0.005V62.5
		h-3.001V1.5z M48.502,62.5h-3v-61h3V62.5z"/>
	<path fill="#F5F7FA" d="M49.876,33H14.124c-0.553,0-1-0.447-1-1s0.447-1,1-1h35.752c0.553,0,1,0.447,1,1S50.429,33,49.876,33z"/>
</g>
</svg>
