<?xml version="1.0" encoding="UTF-8" standalone="no"?>
<!-- Creator: CorelDRAW -->

<svg
   xml:space="preserve"
   width="2048px"
   height="2048px"
   style="shape-rendering:geometricPrecision; text-rendering:geometricPrecision; image-rendering:optimizeQuality; fill-rule:evenodd; clip-rule:evenodd"
   viewBox="0 0 2048 2048"
   version="1.1"
   id="svg18"
   sodipodi:docname="49.svg"
   inkscape:version="1.2.1 (9c6d41e410, 2022-07-14, custom)"
   xmlns:inkscape="http://www.inkscape.org/namespaces/inkscape"
   xmlns:sodipodi="http://sodipodi.sourceforge.net/DTD/sodipodi-0.dtd"
   xmlns="http://www.w3.org/2000/svg"
   xmlns:svg="http://www.w3.org/2000/svg"><sodipodi:namedview
   id="namedview20"
   pagecolor="#ffffff"
   bordercolor="#666666"
   borderopacity="1.0"
   inkscape:showpageshadow="2"
   inkscape:pageopacity="0.0"
   inkscape:pagecheckerboard="0"
   inkscape:deskcolor="#d1d1d1"
   showgrid="false"
   inkscape:zoom="0.36328125"
   inkscape:cx="1025.3763"
   inkscape:cy="1025.3763"
   inkscape:window-width="1890"
   inkscape:window-height="1013"
   inkscape:window-x="15"
   inkscape:window-y="618"
   inkscape:window-maximized="1"
   inkscape:current-layer="_309182232" />
 <defs
   id="defs4">
  <style
   type="text/css"
   id="style2">
   <![CDATA[
    .fil2 {fill:none}
    .fil0 {fill:#878787;fill-rule:nonzero}
    .fil1 {fill:#959595;fill-rule:nonzero}
   ]]>
  </style>
 </defs>
 <g
   id="Layer_x0020_1"
   inkscape:label="Layer 1">
  <metadata
   id="CorelCorpID_0Corel-Layer" />
  <g
   id="_309182232"
   transform="matrix(0.30730381,-0.87420501,1.0683304,0.2514639,-370.42089,1597.0228)">
   <path
   id="_309182736"
   class="fil0"
   d="m 952.742,1632 c -17.6728,0 -32.0008,-14.328 -32.0008,-32.0008 0,-17.6728 14.328,-32.0008 32.0008,-32.0008 h 470.376 c 17.6728,0 32.0008,14.328 32.0008,32.0008 0,17.6728 -14.328,32.0008 -32.0008,32.0008 z"
   style="fill:#000000" />
   <path
   id="_309182664"
   class="fil0"
   d="m 880.367,1376 c -17.6728,0 -32.0008,-14.328 -32.0008,-32.0008 0,-17.6728 14.328,-32.0008 32.0008,-32.0008 h 470.376 c 17.6728,0 32.0008,14.328 32.0008,32.0008 0,17.6728 -14.328,32.0008 -32.0008,32.0008 z"
   style="fill:#000000" />
   <path
   id="_309182592"
   class="fil0"
   d="m 817.242,1152 c -17.6728,0 -32.0008,-14.328 -32.0008,-32.0008 0,-17.6728 14.328,-32.0008 32.0008,-32.0008 h 470.376 c 17.6728,0 32.0008,14.328 32.0008,32.0008 0,17.6728 -14.328,32.0008 -32.0008,32.0008 z"
   style="fill:#000000" />
   <path
   id="_309182520"
   class="fil0"
   d="m 753.242,927.998 c -17.6728,0 -32.0008,-14.328 -32.0008,-32.0008 0,-17.6728 14.328,-32.0008 32.0008,-32.0008 h 470.376 c 17.6728,0 32.0008,14.328 32.0008,32.0008 0,17.6728 -14.328,32.0008 -32.0008,32.0008 z"
   style="fill:#000000" />
   <path
   id="_309182448"
   class="fil0"
   d="m 689.242,704.003 c -17.6728,0 -32.0008,-14.328 -32.0008,-32.0008 0,-17.6728 14.328,-32.0008 32.0008,-32.0008 h 470.376 c 17.6728,0 32.0008,14.328 32.0008,32.0008 0,17.6728 -14.328,32.0008 -32.0008,32.0008 z"
   style="fill:#000000" />
   <path
   id="_309182352"
   class="fil0"
   d="m 625.242,480.002 c -17.6728,0 -32.0008,-14.328 -32.0008,-32.0008 0,-17.6728 14.328,-32.0008 32.0008,-32.0008 h 470.376 c 17.6728,0 32.0008,14.328 32.0008,32.0008 0,17.6728 -14.328,32.0008 -32.0008,32.0008 z"
   style="fill:#000000" />
   <path
   id="_309182304"
   class="fil1"
   d="m 1035.85,1783.25 c 4.8319,16.9134 -4.9618,34.5425 -21.8752,39.3744 -16.9134,4.8319 -34.5425,-4.9618 -39.3744,-21.8752 l -442.458,-1536 c -4.83189,-16.9134 4.96181,-34.5425 21.8752,-39.3744 16.9134,-4.83189 34.5425,4.96181 39.3744,21.8752 z m -23.7059,-1518.5 c -4.8319,-16.9134 4.9618,-34.5425 21.8752,-39.3744 16.9134,-4.83189 34.5425,4.96181 39.3744,21.8752 l 442.458,1536 c 4.8319,16.9134 -4.9618,34.5425 -21.8752,39.3744 -16.9134,4.8319 -34.5425,-4.9618 -39.3744,-21.8752 z"
   style="fill:#501616" />
  </g>
  <rect
   class="fil2"
   width="2048"
   height="2048"
   id="rect15" />
 </g>
</svg>
