<?xml version="1.0" encoding="utf-8"?>
<!-- Generator: Adobe Illustrator 24.3.0, SVG Export Plug-In . SVG Version: 6.00 Build 0)  -->
<svg version="1.1" id="Layer_1" xmlns="http://www.w3.org/2000/svg" xmlns:xlink="http://www.w3.org/1999/xlink" x="0px" y="0px"
	 viewBox="0 0 64 64" enable-background="new 0 0 64 64" xml:space="preserve">
<rect x="7.7" y="24" fill="#BDD3F4" width="48" height="37"/>
<circle fill="#AABEDB" cx="31.7" cy="43" r="16"/>
<path fill="#523C00" d="M53.7,19L53.7,19l-22-16l-29,21h5h48h5L53.7,19L53.7,19z"/>
<polygon fill="#FFE5CF" points="35.7,50 36.7,50 36.7,47 34.4,43 36.7,47 40.7,47 36.7,39 31.7,39 26.7,39 22.7,47 26.7,47 29,43 
	26.7,47 26.7,50 27.7,50 31.7,50 "/>
<rect x="26.7" y="12" fill="#BDD3F4" width="5" height="4"/>
<rect x="31.7" y="16" fill="#BDD3F4" width="5" height="4"/>
<rect x="31.7" y="12" fill="#BDD3F4" width="5" height="4"/>
<rect x="26.7" y="16" fill="#BDD3F4" width="5" height="4"/>
<circle fill="#FFE5CF" cx="31.7" cy="35" r="4"/>
<rect x="27.7" y="50" fill="#FFE5CF" width="4" height="11"/>
<rect x="31.7" y="50" fill="#FFE5CF" width="4" height="11"/>
<polygon fill="#6E5000" points="45.7,6 45.7,13 53.7,19 53.7,6 "/>
<path d="M55,18.4V6c0-0.6-0.4-1-1-1h-8c-0.6,0-1,0.4-1,1v5.2l-12.4-9c-0.4-0.3-0.8-0.3-1.2,0l-29,21c-0.4,0.3-0.5,0.7-0.4,1.1
	C2.2,24.7,2.6,25,3,25h4v36c0,0.6,0.4,1,1,1h20h4h4h20c0.6,0,1-0.4,1-1V25h4c0.4,0,0.8-0.3,1-0.7c0.1-0.4,0-0.9-0.4-1.1L55,18.4z
	 M47,7h6v10l-6-4.3V7z M29,35c0-1.7,1.3-3,3-3s3,1.3,3,3s-1.3,3-3,3S29,36.7,29,35z M36.4,40l3,6h-1.8l-2-3.5l-1.7,1l2.2,3.8V49h-4
	h-4v-1.7l2.2-3.8l-1.7-1l-2,3.5h-1.8l3-6H36.4z M29,51h2v9h-2V51z M33,60v-9h2v9H33z M37,60v-9c0.6,0,1-0.4,1-1v-2h3
	c0.3,0,0.7-0.2,0.9-0.5c0.2-0.3,0.2-0.7,0-1l-4-8C37.7,38.2,37.4,38,37,38h-1c0.6-0.8,1-1.9,1-3c0-2.8-2.2-5-5-5s-5,2.2-5,5
	c0,1.1,0.4,2.2,1,3h-1c-0.4,0-0.7,0.2-0.9,0.6l-4,8c-0.2,0.3-0.1,0.7,0,1c0.2,0.3,0.5,0.5,0.9,0.5h3v2c0,0.6,0.4,1,1,1v9H9V25h46v35
	H37z M56,23H8H6.1L32,4.2L57.9,23H56z"/>
<path d="M26,12v8c0,0.6,0.4,1,1,1h10c0.6,0,1-0.4,1-1v-8c0-0.6-0.4-1-1-1H27C26.4,11,26,11.4,26,12z M28,17h3v2h-3V17z M33,19v-2h3
	v2H33z M36,15h-3v-2h3V15z M31,13v2h-3v-2H31z"/>
</svg>
