<svg xmlns="http://www.w3.org/2000/svg" xmlns:xlink="http://www.w3.org/1999/xlink" viewBox="0 0 64 64"><defs><style>.cls-1{fill:url(#linear-gradient);}.cls-2{fill:url(#linear-gradient-2);}.cls-3{fill:url(#linear-gradient-3);}.cls-4{fill:url(#linear-gradient-4);}.cls-5{fill:url(#linear-gradient-5);}.cls-6{fill:url(#linear-gradient-6);}.cls-7{fill:url(#linear-gradient-7);}.cls-8{fill:url(#linear-gradient-8);}.cls-9{opacity:0.48;}</style><linearGradient id="linear-gradient" x1="18.42" y1="52.08" x2="45.58" y2="52.08" gradientUnits="userSpaceOnUse"><stop offset="0" stop-color="#54595d"/><stop offset="0.39" stop-color="#646664"/><stop offset="1" stop-color="#79766d"/></linearGradient><linearGradient id="linear-gradient-2" x1="18.42" y1="43.4" x2="45.58" y2="43.4" xlink:href="#linear-gradient"/><linearGradient id="linear-gradient-3" x1="18.42" y1="34.72" x2="45.58" y2="34.72" xlink:href="#linear-gradient"/><linearGradient id="linear-gradient-4" x1="18.42" y1="26.03" x2="45.58" y2="26.03" xlink:href="#linear-gradient"/><linearGradient id="linear-gradient-5" x1="18.42" y1="17.35" x2="45.58" y2="17.35" xlink:href="#linear-gradient"/><linearGradient id="linear-gradient-6" x1="18.42" y1="8.67" x2="45.58" y2="8.67" xlink:href="#linear-gradient"/><linearGradient id="linear-gradient-7" x1="43.58" y1="32" x2="49.14" y2="32" gradientUnits="userSpaceOnUse"><stop offset="0" stop-color="#edd06d"/><stop offset="0.35" stop-color="#e0b858"/><stop offset="1" stop-color="#c2822a"/></linearGradient><linearGradient id="linear-gradient-8" x1="14.86" x2="20.42" xlink:href="#linear-gradient-7"/></defs><g id="Layer_60" data-name="Layer 60"><rect class="cls-1" x="18.42" y="49.78" width="27.17" height="4.59" rx="1"/><rect class="cls-2" x="18.42" y="41.1" width="27.17" height="4.6" rx="1"/><rect class="cls-3" x="18.42" y="32.42" width="27.17" height="4.59" rx="1"/><rect class="cls-4" x="18.42" y="23.74" width="27.17" height="4.59" rx="1"/><rect class="cls-5" x="18.42" y="15.06" width="27.17" height="4.6" rx="1"/><rect class="cls-6" x="18.42" y="6.38" width="27.17" height="4.59" rx="1"/><rect class="cls-7" x="43.58" y="3" width="5.56" height="58" rx="1"/><rect class="cls-8" x="14.86" y="3" width="5.56" height="58" rx="1"/><path class="cls-9" d="M48.14,3H44.58a1,1,0,0,0-1,1V6.38H20.42V4a1,1,0,0,0-1-1H15.86a1,1,0,0,0-1,1V60a1,1,0,0,0,1,1h3.56a1,1,0,0,0,1-1V54.38H43.58V60a1,1,0,0,0,1,1h3.56a1,1,0,0,0,1-1V4A1,1,0,0,0,48.14,3ZM43.58,35H20.42v-.59H43.58Zm0,2V41.1H20.42V37ZM20.42,32.42V28.33H43.58v4.09Zm23.16-6.09H20.42v-.59H43.58ZM20.42,23.74V19.65H43.58v4.09Zm23.16-6.09H20.42v-.59H43.58ZM20.42,43.1H43.58v.59H20.42Zm23.16-28H20.42V11H43.58ZM20.42,45.69H43.58v4.09H20.42ZM43.58,8.38V9H20.42V8.38ZM16.86,5h1.56V59H16.86Zm3.56,47.38v-.6H43.58v.6ZM47.14,59H45.58V5h1.56Z"/></g></svg>