<?xml version="1.0" encoding="utf-8"?>
<!-- Generator: Adobe Illustrator 16.0.0, SVG Export Plug-In . SVG Version: 6.00 Build 0)  -->
<!DOCTYPE svg PUBLIC "-//W3C//DTD SVG 1.1//EN" "http://www.w3.org/Graphics/SVG/1.1/DTD/svg11.dtd">
<svg version="1.1" id="icons" xmlns="http://www.w3.org/2000/svg" xmlns:xlink="http://www.w3.org/1999/xlink" x="0px" y="0px"
	 width="64px" height="64px" viewBox="0 0 64 64" enable-background="new 0 0 64 64" xml:space="preserve">
<g>
	<g>
		<rect x="55.5" y="39.01" fill="#656D78" width="3" height="7"/>
	</g>
	<g>
		<rect x="55.5" y="19.01" fill="#E6E9ED" width="3" height="20"/>
	</g>
	<g>
		<polygon fill="#E6E9ED" points="58.5,9.01 58.5,12.01 55.5,12.01 55.5,9.01 55.5,7.99 58.5,7.99 		"/>
	</g>
	<g>
		<rect x="55.5" y="46.01" fill="#E6E9ED" width="3" height="10"/>
	</g>
	<g>
		<rect x="55.5" y="12.01" fill="#656D78" width="3" height="7"/>
	</g>
	<g>
		<polygon fill="#E6E9ED" points="33.5,19.01 33.5,39.01 30.5,39.01 30.5,29.01 30.5,19.01 		"/>
	</g>
	<g>
		<rect x="30.5" y="12.01" fill="#656D78" width="3" height="7"/>
	</g>
	<g>
		<rect x="30.5" y="39.01" fill="#656D78" width="3" height="7"/>
	</g>
	<g>
		<polygon fill="#E6E9ED" points="33.5,9.01 33.5,12.01 30.5,12.01 30.5,9.01 30.5,7.99 33.5,7.99 		"/>
	</g>
	<g>
		<rect x="30.5" y="46.01" fill="#E6E9ED" width="3" height="10"/>
	</g>
	<g>
		<polygon fill="#E6E9ED" points="8.5,29.01 8.5,39.01 5.5,39.01 5.5,29.01 5.5,28.01 8.5,28.01 		"/>
	</g>
	<g>
		<rect x="5.5" y="39.01" fill="#656D78" width="3" height="7"/>
	</g>
	<g>
		<rect x="5.5" y="46.01" fill="#E6E9ED" width="3" height="10"/>
	</g>
</g>
<g>
	<g>
		<path d="M62.5,57.008h-61c-0.553,0-1-0.447-1-1s0.447-1,1-1h61c0.553,0,1,0.447,1,1S63.053,57.008,62.5,57.008z"/>
	</g>
	<g>
		<g>
			<path d="M8.5,57.008h-3c-0.553,0-1-0.447-1-1v-28c0-0.553,0.447-1,1-1h3c0.553,0,1,0.447,1,1v28
				C9.5,56.561,9.053,57.008,8.5,57.008z M6.5,55.008h1v-26h-1V55.008z"/>
		</g>
		<g>
			<path d="M33.5,57.008h-3c-0.553,0-1-0.447-1-1V7.992c0-0.553,0.447-1,1-1h3c0.553,0,1,0.447,1,1v48.016
				C34.5,56.561,34.053,57.008,33.5,57.008z M31.5,55.008h1V8.992h-1V55.008z"/>
		</g>
		<g>
			<path d="M58.5,57.008h-3c-0.553,0-1-0.447-1-1V7.992c0-0.553,0.447-1,1-1h3c0.553,0,1,0.447,1,1v48.016
				C59.5,56.561,59.053,57.008,58.5,57.008z M56.5,55.008h1V8.992h-1V55.008z"/>
		</g>
	</g>
	<g>
		<path d="M30.5,30.014h-22c-0.553,0-1-0.447-1-1s0.447-1,1-1h22c0.553,0,1,0.447,1,1S31.053,30.014,30.5,30.014z"/>
	</g>
	<g>
		<path d="M55.5,10.014h-22c-0.553,0-1-0.447-1-1s0.447-1,1-1h22c0.553,0,1,0.447,1,1S56.053,10.014,55.5,10.014z"/>
	</g>
	<g>
		<path d="M5.5,30.014h-1c-0.553,0-1-0.447-1-1s0.447-1,1-1h1c0.553,0,1,0.447,1,1S6.053,30.014,5.5,30.014z"/>
	</g>
	<g>
		<path d="M59.5,10.008h-1c-0.553,0-1-0.447-1-1s0.447-1,1-1h1c0.553,0,1,0.447,1,1S60.053,10.008,59.5,10.008z"/>
	</g>
	<g>
		<path d="M30.5,10.014h-1c-0.553,0-1-0.447-1-1s0.447-1,1-1h1c0.553,0,1,0.447,1,1S31.053,10.014,30.5,10.014z"/>
	</g>
	<g>
		<path d="M8.5,47.012h-3c-0.553,0-1-0.447-1-1v-7c0-0.553,0.447-1,1-1h3c0.553,0,1,0.447,1,1v7C9.5,46.564,9.053,47.012,8.5,47.012
			z M6.5,45.012h1v-5h-1V45.012z"/>
	</g>
	<g>
		<path d="M33.5,47.012h-3c-0.553,0-1-0.447-1-1v-7c0-0.553,0.447-1,1-1h3c0.553,0,1,0.447,1,1v7
			C34.5,46.564,34.053,47.012,33.5,47.012z M31.5,45.012h1v-5h-1V45.012z"/>
	</g>
	<g>
		<path d="M33.5,20.008h-3c-0.553,0-1-0.447-1-1v-7c0-0.553,0.447-1,1-1h3c0.553,0,1,0.447,1,1v7
			C34.5,19.561,34.053,20.008,33.5,20.008z M31.5,18.008h1v-5h-1V18.008z"/>
	</g>
	<g>
		<path d="M58.5,20.008h-3c-0.553,0-1-0.447-1-1v-7c0-0.553,0.447-1,1-1h3c0.553,0,1,0.447,1,1v7
			C59.5,19.561,59.053,20.008,58.5,20.008z M56.5,18.008h1v-5h-1V18.008z"/>
	</g>
	<g>
		<path d="M58.5,47.012h-3c-0.553,0-1-0.447-1-1v-7c0-0.553,0.447-1,1-1h3c0.553,0,1,0.447,1,1v7
			C59.5,46.564,59.053,47.012,58.5,47.012z M56.5,45.012h1v-5h-1V45.012z"/>
	</g>
</g>
</svg>
