<?xml version="1.0" encoding="utf-8"?>
<!-- Generator: Adobe Illustrator 16.0.0, SVG Export Plug-In . SVG Version: 6.00 Build 0)  -->
<!DOCTYPE svg PUBLIC "-//W3C//DTD SVG 1.1//EN" "http://www.w3.org/Graphics/SVG/1.1/DTD/svg11.dtd">
<svg version="1.1" id="icons" xmlns="http://www.w3.org/2000/svg" xmlns:xlink="http://www.w3.org/1999/xlink" x="0px" y="0px"
	 width="64px" height="64px" viewBox="0 0 64 64" enable-background="new 0 0 64 64" xml:space="preserve">
<g>
	<g>
		<rect x="48.001" y="48.5" fill="#CCD1D9" width="6.009" height="4"/>
	</g>
	<g>
		<rect x="48.001" y="52.5" fill="#CCD1D9" width="6.009" height="4"/>
	</g>
	<g>
		<rect x="1" y="40.5" fill="#CCD1D9" width="6" height="4"/>
	</g>
	<g>
		<rect x="57.01" y="52.5" fill="#CCD1D9" width="5.99" height="4"/>
	</g>
	<g>
		<polygon fill="#545C66" points="10,48.5 10,52.5 10,56.5 7,56.5 7,52.5 7,48.5 7,44.5 7,40.5 7,36.5 7,10.5 10,10.5 10,36.5 
			10,40.5 10,44.5 		"/>
	</g>
	<g>
		<rect x="1" y="52.5" fill="#CCD1D9" width="6" height="4"/>
	</g>
	<g>
		<rect x="48.001" y="44.5" fill="#CCD1D9" width="6.009" height="4"/>
	</g>
	<g>
		<rect x="10" y="44.5" fill="#CCD1D9" width="6" height="4"/>
	</g>
	<g>
		<rect x="48.001" y="40.5" fill="#CCD1D9" width="6.009" height="4"/>
	</g>
	<g>
		<rect x="10" y="36.5" fill="#CCD1D9" width="6" height="4"/>
	</g>
	<g>
		<rect x="57.01" y="40.5" fill="#CCD1D9" width="5.99" height="4"/>
	</g>
	<g>
		<rect x="48.001" y="36.5" fill="#CCD1D9" width="6.009" height="4"/>
	</g>
	<g>
		<rect x="1" y="44.5" fill="#CCD1D9" width="6" height="4"/>
	</g>
	<g>
		<rect x="1" y="48.5" fill="#CCD1D9" width="6" height="4"/>
	</g>
	<g>
		<polygon fill="#545C66" points="57,36.5 57,40.5 57,44.5 57,48.5 57,52.5 57,56.5 54.01,56.5 54.01,52.5 54.01,48.5 54.01,44.5 
			54.01,40.5 54.01,36.5 54.01,10.5 57,10.5 57.01,10.5 57.01,36.5 		"/>
	</g>
	<g>
		<polygon fill="#656D78" points="7,7.5 57,7.5 57,10.5 54.01,10.5 39,10.5 25,10.5 10,10.5 7,10.5 		"/>
	</g>
	<g>
		<rect x="10" y="40.5" fill="#CCD1D9" width="6" height="4"/>
	</g>
	<g>
		<rect x="57.01" y="48.5" fill="#CCD1D9" width="5.99" height="4"/>
	</g>
	<g>
		<rect x="10" y="48.5" fill="#CCD1D9" width="6" height="4"/>
	</g>
	<g>
		<rect x="57.01" y="44.5" fill="#CCD1D9" width="5.99" height="4"/>
	</g>
	<g>
		<rect x="57.01" y="36.5" fill="#CCD1D9" width="5.99" height="4"/>
	</g>
	<g>
		<rect x="10" y="52.5" fill="#CCD1D9" width="6" height="4"/>
	</g>
	<g>
		<rect x="1" y="36.5" fill="#CCD1D9" width="6" height="4"/>
	</g>
</g>
<g>
	<g>
		<path d="M10.001,57.498H7.002c-0.553,0-1-0.447-1-1V10.5c0-0.553,0.447-1,1-1h2.999c0.553,0,1,0.447,1,1v45.998
			C11.001,57.051,10.554,57.498,10.001,57.498z M8.002,55.498h0.999V11.5H8.002V55.498z"/>
	</g>
	<g>
		<path d="M7.002,57.498H0.998c-0.553,0-1-0.447-1-1v-4c0-0.553,0.447-1,1-1h6.004c0.553,0,1,0.447,1,1v4
			C8.002,57.051,7.555,57.498,7.002,57.498z M1.998,55.498h4.004v-2H1.998V55.498z"/>
	</g>
	<g>
		<path d="M16,57.498H9.996c-0.553,0-1-0.447-1-1v-4c0-0.553,0.447-1,1-1H16c0.553,0,1,0.447,1,1v4
			C17,57.051,16.553,57.498,16,57.498z M10.996,55.498H15v-2h-4.004V55.498z"/>
	</g>
	<g>
		<path d="M7.002,53.498H0.998c-0.553,0-1-0.447-1-1v-4c0-0.553,0.447-1,1-1h6.004c0.553,0,1,0.447,1,1v4
			C8.002,53.051,7.555,53.498,7.002,53.498z M1.998,51.498h4.004v-2H1.998V51.498z"/>
	</g>
	<g>
		<path d="M16,53.498H9.996c-0.553,0-1-0.447-1-1v-4c0-0.553,0.447-1,1-1H16c0.553,0,1,0.447,1,1v4
			C17,53.051,16.553,53.498,16,53.498z M10.996,51.498H15v-2h-4.004V51.498z"/>
	</g>
	<g>
		<path d="M7.002,49.498H0.998c-0.553,0-1-0.447-1-1v-4c0-0.553,0.447-1,1-1h6.004c0.553,0,1,0.447,1,1v4
			C8.002,49.051,7.555,49.498,7.002,49.498z M1.998,47.498h4.004v-2H1.998V47.498z"/>
	</g>
	<g>
		<path d="M16,49.498H9.996c-0.553,0-1-0.447-1-1v-4c0-0.553,0.447-1,1-1H16c0.553,0,1,0.447,1,1v4
			C17,49.051,16.553,49.498,16,49.498z M10.996,47.498H15v-2h-4.004V47.498z"/>
	</g>
	<g>
		<path d="M7.002,45.498H0.998c-0.553,0-1-0.447-1-1v-4c0-0.553,0.447-1,1-1h6.004c0.553,0,1,0.447,1,1v4
			C8.002,45.051,7.555,45.498,7.002,45.498z M1.998,43.498h4.004v-2H1.998V43.498z"/>
	</g>
	<g>
		<path d="M16,45.498H9.996c-0.553,0-1-0.447-1-1v-4c0-0.553,0.447-1,1-1H16c0.553,0,1,0.447,1,1v4
			C17,45.051,16.553,45.498,16,45.498z M10.996,43.498H15v-2h-4.004V43.498z"/>
	</g>
	<g>
		<path d="M7.002,41.498H0.998c-0.553,0-1-0.447-1-1v-4c0-0.553,0.447-1,1-1h6.004c0.553,0,1,0.447,1,1v4
			C8.002,41.051,7.555,41.498,7.002,41.498z M1.998,39.498h4.004v-2H1.998V39.498z"/>
	</g>
	<g>
		<path d="M16,41.498H9.996c-0.553,0-1-0.447-1-1v-4c0-0.553,0.447-1,1-1H16c0.553,0,1,0.447,1,1v4
			C17,41.051,16.553,41.498,16,41.498z M10.996,39.498H15v-2h-4.004V39.498z"/>
	</g>
	<g>
		<path d="M57.003,57.498h-2.999c-0.553,0-1-0.447-1-1V10.5c0-0.553,0.447-1,1-1h2.999c0.553,0,1,0.447,1,1v45.998
			C58.003,57.051,57.556,57.498,57.003,57.498z M55.004,55.498h0.999V11.5h-0.999V55.498z"/>
	</g>
	<g>
		<path d="M54.004,57.498H48c-0.553,0-1-0.447-1-1v-4c0-0.553,0.447-1,1-1h6.004c0.553,0,1,0.447,1,1v4
			C55.004,57.051,54.557,57.498,54.004,57.498z M49,55.498h4.004v-2H49V55.498z"/>
	</g>
	<g>
		<path d="M63.002,57.498h-6.004c-0.553,0-1-0.447-1-1v-4c0-0.553,0.447-1,1-1h6.004c0.553,0,1,0.447,1,1v4
			C64.002,57.051,63.555,57.498,63.002,57.498z M57.998,55.498h4.004v-2h-4.004V55.498z"/>
	</g>
	<g>
		<path d="M54.004,53.498H48c-0.553,0-1-0.447-1-1v-4c0-0.553,0.447-1,1-1h6.004c0.553,0,1,0.447,1,1v4
			C55.004,53.051,54.557,53.498,54.004,53.498z M49,51.498h4.004v-2H49V51.498z"/>
	</g>
	<g>
		<path d="M63.002,53.498h-6.004c-0.553,0-1-0.447-1-1v-4c0-0.553,0.447-1,1-1h6.004c0.553,0,1,0.447,1,1v4
			C64.002,53.051,63.555,53.498,63.002,53.498z M57.998,51.498h4.004v-2h-4.004V51.498z"/>
	</g>
	<g>
		<path d="M54.004,49.498H48c-0.553,0-1-0.447-1-1v-4c0-0.553,0.447-1,1-1h6.004c0.553,0,1,0.447,1,1v4
			C55.004,49.051,54.557,49.498,54.004,49.498z M49,47.498h4.004v-2H49V47.498z"/>
	</g>
	<g>
		<path d="M63.002,49.498h-6.004c-0.553,0-1-0.447-1-1v-4c0-0.553,0.447-1,1-1h6.004c0.553,0,1,0.447,1,1v4
			C64.002,49.051,63.555,49.498,63.002,49.498z M57.998,47.498h4.004v-2h-4.004V47.498z"/>
	</g>
	<g>
		<path d="M54.004,45.498H48c-0.553,0-1-0.447-1-1v-4c0-0.553,0.447-1,1-1h6.004c0.553,0,1,0.447,1,1v4
			C55.004,45.051,54.557,45.498,54.004,45.498z M49,43.498h4.004v-2H49V43.498z"/>
	</g>
	<g>
		<path d="M63.002,45.498h-6.004c-0.553,0-1-0.447-1-1v-4c0-0.553,0.447-1,1-1h6.004c0.553,0,1,0.447,1,1v4
			C64.002,45.051,63.555,45.498,63.002,45.498z M57.998,43.498h4.004v-2h-4.004V43.498z"/>
	</g>
	<g>
		<path d="M54.004,41.498H48c-0.553,0-1-0.447-1-1v-4c0-0.553,0.447-1,1-1h6.004c0.553,0,1,0.447,1,1v4
			C55.004,41.051,54.557,41.498,54.004,41.498z M49,39.498h4.004v-2H49V39.498z"/>
	</g>
	<g>
		<path d="M63.002,41.498h-6.004c-0.553,0-1-0.447-1-1v-4c0-0.553,0.447-1,1-1h6.004c0.553,0,1,0.447,1,1v4
			C64.002,41.051,63.555,41.498,63.002,41.498z M57.998,39.498h4.004v-2h-4.004V39.498z"/>
	</g>
	<g>
		<path d="M56.999,11.5H7.002c-0.553,0-1-0.447-1-1V7.502c0-0.553,0.447-1,1-1h49.997c0.553,0,1,0.447,1,1V10.5
			C57.999,11.053,57.552,11.5,56.999,11.5z M8.002,9.5h47.997V8.502H8.002V9.5z"/>
	</g>
	<g>
		<g>
			<path d="M24.998,20.494c-0.553,0-1-0.447-1-1V10.5c0-0.553,0.447-1,1-1s1,0.447,1,1v8.994
				C25.998,20.047,25.551,20.494,24.998,20.494z"/>
		</g>
		<g>
			<path d="M28.998,24.494c-0.553,0-1-0.447-1-1c0-1.654-1.346-3-3-3s-3,1.346-3,3c0,0.553-0.447,1-1,1s-1-0.447-1-1
				c0-2.757,2.243-5,5-5s5,2.243,5,5C29.998,24.047,29.551,24.494,28.998,24.494z"/>
		</g>
		<g>
			<path d="M20.998,26.494c-0.553,0-1-0.447-1-1v-2c0-0.553,0.447-1,1-1s1,0.447,1,1v2C21.998,26.047,21.551,26.494,20.998,26.494z"
				/>
		</g>
		<g>
			<path d="M28.998,26.494h-8c-0.553,0-1-0.447-1-1s0.447-1,1-1h8c0.553,0,1,0.447,1,1S29.551,26.494,28.998,26.494z"/>
		</g>
		<g>
			<path d="M28.998,26.494c-0.553,0-1-0.447-1-1v-2c0-0.553,0.447-1,1-1s1,0.447,1,1v2C29.998,26.047,29.551,26.494,28.998,26.494z"
				/>
		</g>
		<g>
			<path d="M38.999,20.494c-0.553,0-1-0.447-1-1V10.5c0-0.553,0.447-1,1-1s1,0.447,1,1v8.994
				C39.999,20.047,39.552,20.494,38.999,20.494z"/>
		</g>
		<g>
			<path d="M42.999,24.494c-0.553,0-1-0.447-1-1c0-1.654-1.346-3-3-3s-3,1.346-3,3c0,0.553-0.447,1-1,1s-1-0.447-1-1
				c0-2.757,2.243-5,5-5s5,2.243,5,5C43.999,24.047,43.552,24.494,42.999,24.494z"/>
		</g>
		<g>
			<path d="M34.999,26.494c-0.553,0-1-0.447-1-1v-2c0-0.553,0.447-1,1-1s1,0.447,1,1v2C35.999,26.047,35.552,26.494,34.999,26.494z"
				/>
		</g>
		<g>
			<path d="M42.999,26.494h-8c-0.553,0-1-0.447-1-1s0.447-1,1-1h8c0.553,0,1,0.447,1,1S43.552,26.494,42.999,26.494z"/>
		</g>
		<g>
			<path d="M42.999,26.494c-0.553,0-1-0.447-1-1v-2c0-0.553,0.447-1,1-1s1,0.447,1,1v2C43.999,26.047,43.552,26.494,42.999,26.494z"
				/>
		</g>
	</g>
	<g>
		<path d="M63.002,57.498H0.998c-0.553,0-1-0.447-1-1s0.447-1,1-1h62.004c0.553,0,1,0.447,1,1S63.555,57.498,63.002,57.498z"/>
	</g>
</g>
</svg>
