<?xml version="1.0" encoding="utf-8"?>
<!-- Generator: Adobe Illustrator 24.0.0, SVG Export Plug-In . SVG Version: 6.00 Build 0)  -->
<svg version="1.1" id="Layer_1" xmlns="http://www.w3.org/2000/svg" xmlns:xlink="http://www.w3.org/1999/xlink" x="0px" y="0px"
	 viewBox="0 0 256 256" enable-background="new 0 0 256 256" xml:space="preserve">
<g>
</g>
<g>
	<path fill="#72C2E9" d="M251.35,133.399v116.035H4.65V133.389c6.23-6.24,16.27-6.14,22.42,0.01c6.285,6.297,16.29,6.08,22.43,0
		v-0.01c6.3-6.25,16.31-6.1,22.43,0.01c6.19,6.18,16.25,6.18,22.42,0l0.01-0.01c5.854-5.948,16.027-6.382,22.42,0.01
		c6.19,6.2,16.24,6.19,22.43,0l0.01-0.01c5.985-5.985,15.929-6.383,22.42,0.01c6.19,6.2,16.23,6.2,22.43,0v-0.01
		c6.17-6.18,16.23-6.2,22.43,0.01c5.947,6.006,16.08,6.34,22.42,0l0.01-0.01C235.15,127.179,245.19,127.229,251.35,133.399z"/>
	<path fill="#4BA5C8" d="M228.93,179.641l-0.01,0.01c-6.34,6.341-16.473,6.005-22.42,0c-6.2-6.21-16.26-6.19-22.43-0.01v0.01
		c-6.2,6.2-16.24,6.2-22.43,0c-6.506-6.403-16.446-5.984-22.42-0.01l-0.01,0.01c-6.186,6.186-16.242,6.206-22.43,0
		c-6.376-6.376-16.545-5.976-22.42-0.01l-0.01,0.01c-6.17,6.18-16.23,6.18-22.42,0c-6.12-6.11-16.13-6.26-22.43-0.01v0.01
		c-6.228,6.166-16.227,6.215-22.43,0c-6.15-6.15-16.19-6.25-22.42-0.01v11.312c6.23-6.24,16.27-6.14,22.42,0.01
		c6.203,6.215,16.202,6.166,22.43,0v-0.01c6.3-6.25,16.31-6.1,22.43,0.01c6.19,6.18,16.25,6.18,22.42,0l0.01-0.01
		c5.875-5.965,16.044-6.366,22.42,0.01c6.188,6.206,16.244,6.186,22.43,0l0.01-0.01c5.974-5.974,15.914-6.393,22.42,0.01
		c6.19,6.2,16.23,6.2,22.43,0v-0.01c6.17-6.18,16.23-6.2,22.43,0.01c5.947,6.005,16.08,6.341,22.42,0l0.01-0.01
		c6.22-6.21,16.26-6.16,22.42,0.01v-11.312C245.19,173.481,235.15,173.431,228.93,179.641z"/>
	<path fill="#EFBF27" d="M167.168,48.245c0,21.632-17.536,39.169-39.169,39.169c-25.047,0-43.839-23.276-38.168-48.013
		c2.916,9.674,11.892,16.725,22.52,16.725c12.996,0,23.52-10.533,23.52-23.52c0-10.627-7.041-19.613-16.715-22.529
		C143.893,4.405,167.168,23.199,167.168,48.245z"/>
	<path fill="#C5E5FE" d="M241.35,242.404H27.65c-1.381,0-2.5-1.119-2.5-2.5s1.119-2.5,2.5-2.5H238.85v-44.379
		c0-1.381,1.119-2.5,2.5-2.5s2.5,1.119,2.5,2.5v46.879C243.85,241.285,242.73,242.404,241.35,242.404z M17.65,242.404h-3
		c-1.381,0-2.5-1.119-2.5-2.5s1.119-2.5,2.5-2.5h3c1.381,0,2.5,1.119,2.5,2.5S19.031,242.404,17.65,242.404z"/>
	<path d="M6.42,135.154c5.113-5.12,13.577-5.293,18.881,0.01c8.019,8.034,20.685,6.175,26.079-0.119
		c5.236-5.068,13.627-5.026,18.783,0.122c7.138,7.127,18.76,7.204,25.979-0.025c4.956-5.032,13.533-5.315,18.868,0.021
		c7.145,7.166,18.779,7.192,25.978-0.007c5.252-5.25,13.553-5.238,18.883,0.009c7.172,7.182,18.786,7.184,25.968,0.001
		c0.042-0.042,0.082-0.084,0.12-0.129c5.215-5.097,13.596-5.058,18.766,0.12c6.879,6.948,18.598,7.375,25.973,0
		c5.225-5.218,13.681-5.205,18.884,0.007c0.976,0.977,2.559,0.979,3.536,0.003c0.977-0.976,0.979-2.559,0.003-3.536
		c-7.135-7.148-18.752-7.206-25.967-0.001c-5.358,5.358-13.899,5.035-18.883,0.001c-7.177-7.187-18.808-7.181-25.969-0.01
		c-0.04,0.041-0.08,0.083-0.117,0.126c-5.217,5.092-13.572,5.095-18.79-0.131c-7.329-7.213-18.724-7.213-25.951,0.014
		c-5.211,5.211-13.678,5.231-18.895,0c-7.334-7.333-19.094-6.975-25.968,0.002c-5.198,5.207-13.666,5.207-18.884-0.003
		c-7.14-7.127-18.784-7.134-25.957-0.016c-5.372,5.308-13.823,5.105-18.901,0.017c-7.099-7.098-18.718-7.259-25.957-0.008
		c-0.976,0.977-0.974,2.56,0.003,3.535C3.86,136.132,5.443,136.131,6.42,135.154z"/>
	<path d="M50.5,216.044c1.381,0,2.5-1.119,2.5-2.5s-1.119-2.5-2.5-2.5h-2.667c-1.381,0-2.5,1.119-2.5,2.5s1.119,2.5,2.5,2.5H50.5z"
		/>
	<path d="M95.833,216.044c1.381,0,2.5-1.119,2.5-2.5s-1.119-2.5-2.5-2.5h-2.666c-1.381,0-2.5,1.119-2.5,2.5s1.119,2.5,2.5,2.5
		H95.833z"/>
	<path d="M141.167,216.044c1.381,0,2.5-1.119,2.5-2.5s-1.119-2.5-2.5-2.5H138.5c-1.381,0-2.5,1.119-2.5,2.5s1.119,2.5,2.5,2.5
		H141.167z"/>
	<path d="M186.5,216.044c1.381,0,2.5-1.119,2.5-2.5s-1.119-2.5-2.5-2.5h-2.667c-1.381,0-2.5,1.119-2.5,2.5s1.119,2.5,2.5,2.5H186.5z
		"/>
	<path d="M72.167,227.044c1.381,0,2.5-1.119,2.5-2.5s-1.119-2.5-2.5-2.5H69.5c-1.381,0-2.5,1.119-2.5,2.5s1.119,2.5,2.5,2.5H72.167z
		"/>
	<path d="M117.5,227.044c1.381,0,2.5-1.119,2.5-2.5s-1.119-2.5-2.5-2.5h-2.667c-1.381,0-2.5,1.119-2.5,2.5s1.119,2.5,2.5,2.5H117.5z
		"/>
	<path d="M162.833,227.044c1.381,0,2.5-1.119,2.5-2.5s-1.119-2.5-2.5-2.5h-2.666c-1.381,0-2.5,1.119-2.5,2.5s1.119,2.5,2.5,2.5
		H162.833z"/>
	<path d="M208.167,227.044c1.381,0,2.5-1.119,2.5-2.5s-1.119-2.5-2.5-2.5H205.5c-1.381,0-2.5,1.119-2.5,2.5s1.119,2.5,2.5,2.5
		H208.167z"/>
	<path d="M47.833,148.524c-1.381,0-2.5,1.119-2.5,2.5s1.119,2.5,2.5,2.5H50.5c1.381,0,2.5-1.119,2.5-2.5s-1.119-2.5-2.5-2.5H47.833z
		"/>
	<path d="M93.167,148.524c-1.381,0-2.5,1.119-2.5,2.5s1.119,2.5,2.5,2.5h2.666c1.381,0,2.5-1.119,2.5-2.5s-1.119-2.5-2.5-2.5H93.167
		z"/>
	<path d="M138.5,148.524c-1.381,0-2.5,1.119-2.5,2.5s1.119,2.5,2.5,2.5h2.667c1.381,0,2.5-1.119,2.5-2.5s-1.119-2.5-2.5-2.5H138.5z"
		/>
	<path d="M183.833,148.524c-1.381,0-2.5,1.119-2.5,2.5s1.119,2.5,2.5,2.5h2.667c1.381,0,2.5-1.119,2.5-2.5s-1.119-2.5-2.5-2.5
		H183.833z"/>
	<path d="M69.5,159.524c-1.381,0-2.5,1.119-2.5,2.5s1.119,2.5,2.5,2.5h2.667c1.381,0,2.5-1.119,2.5-2.5s-1.119-2.5-2.5-2.5H69.5z"/>
	<path d="M114.833,159.524c-1.381,0-2.5,1.119-2.5,2.5s1.119,2.5,2.5,2.5h2.667c1.381,0,2.5-1.119,2.5-2.5s-1.119-2.5-2.5-2.5
		H114.833z"/>
	<path d="M160.167,159.524c-1.381,0-2.5,1.119-2.5,2.5s1.119,2.5,2.5,2.5h2.666c1.381,0,2.5-1.119,2.5-2.5s-1.119-2.5-2.5-2.5
		H160.167z"/>
	<path d="M205.5,159.524c-1.381,0-2.5,1.119-2.5,2.5s1.119,2.5,2.5,2.5h2.667c1.381,0,2.5-1.119,2.5-2.5s-1.119-2.5-2.5-2.5H205.5z"
		/>
	<path d="M6.42,192.719c5.156-5.165,13.613-5.258,18.881,0.01c7.116,7.13,18.762,7.135,25.958,0.01
		c0.042-0.042,0.083-0.084,0.121-0.129c5.236-5.068,13.627-5.026,18.783,0.122c7.138,7.127,18.76,7.204,25.979-0.025
		c4.917-4.992,13.49-5.356,18.868,0.021c7.144,7.164,18.779,7.192,25.978-0.007c5.252-5.251,13.553-5.238,18.883,0.009
		c7.172,7.182,18.786,7.184,25.968,0.001c0.042-0.042,0.082-0.084,0.12-0.129c5.215-5.097,13.596-5.058,18.766,0.12
		c6.879,6.948,18.601,7.373,25.973,0c5.226-5.218,13.681-5.204,18.884,0.007c0.976,0.977,2.559,0.979,3.536,0.003
		c0.977-0.976,0.979-2.559,0.003-3.536c-7.135-7.148-18.752-7.205-25.967-0.002c-5.343,5.344-13.887,5.049-18.883,0.001
		c-7.177-7.187-18.808-7.181-25.969-0.01c-0.04,0.041-0.079,0.083-0.117,0.126c-5.217,5.092-13.572,5.095-18.79-0.131
		c-7.329-7.214-18.724-7.213-25.951,0.014c-5.128,5.128-13.601,5.309-18.895,0c-7.337-7.336-19.099-6.972-25.968,0.002
		c-5.198,5.207-13.666,5.207-18.884-0.003c-7.14-7.127-18.784-7.134-25.957-0.016c-0.041,0.041-0.08,0.083-0.118,0.126
		c-5.252,5.074-13.643,5.041-18.783-0.109c-7.096-7.095-18.716-7.26-25.957-0.008c-0.976,0.977-0.974,2.56,0.003,3.535
		S5.443,193.696,6.42,192.719z"/>
	<path d="M41.59,122.267c1.38,0,2.5-1.12,2.5-2.5v-12.924l4.08,4.074c0.939,0.95,2.59,0.95,3.53,0c0.979-0.97,0.979-2.56,0-3.53
		l-8.341-8.35c-0.968-0.958-2.544-0.988-3.54,0l-8.34,8.35c-0.959,0.96-0.994,2.555,0,3.53c0.962,0.981,2.558,0.994,3.53,0
		c0.01,0,0.01,0,0.01,0l4.07-4.07v12.92C39.09,121.147,40.21,122.267,41.59,122.267z"/>
	<path d="M128,122.267c1.38,0,2.5-1.12,2.5-2.5v-12.924l4.08,4.074c0.939,0.95,2.59,0.95,3.529,0c0.968-0.967,0.98-2.551,0-3.53
		l-8.34-8.35c-0.96-0.951-2.54-0.992-3.54,0l-8.34,8.35c-0.979,0.97-0.979,2.56,0,3.53c0.976,0.997,2.575,0.976,3.53,0
		c0.01,0,0.01,0,0.01-0.01l4.07-4.064v12.924C125.5,121.147,126.62,122.267,128,122.267z"/>
	<path d="M214.41,122.267c1.38,0,2.5-1.12,2.5-2.5v-12.92l4.069,4.07c1.027,1.026,2.612,0.949,3.54,0c0.98-0.979,0.968-2.563,0-3.53
		l-8.317-8.317c-0.988-1.019-2.591-1.004-3.563-0.033l-8.34,8.35c-0.98,0.97-0.98,2.56-0.01,3.53c0.95,0.95,2.6,0.95,3.54,0
		l4.08-4.074v12.924C211.91,121.147,213.03,122.267,214.41,122.267z"/>
	<path d="M169.67,48.247c-0.023-26.563-24.584-46.618-51.07-40.61c-2.505,0.588-2.594,4.112-0.17,4.83
		c8.8,2.66,14.94,10.94,14.94,20.14c-0.021,11.57-9.45,21-21.03,21.02c-9.19,0-17.46-6.15-20.11-14.95
		c-0.774-2.486-4.274-2.286-4.83,0.16C81.361,65.015,101.207,89.892,128,89.917C151.006,89.917,169.67,71.279,169.67,48.247z
		 M128,84.917c-19.746-0.021-36.69-15.777-36.69-37c4.769,6.525,12.464,10.71,21.04,10.71c14.41,0,26.021-11.667,26.021-26.02
		c0-8.347-3.957-16.107-10.7-21.05c20.092-0.206,37,16.067,37,36.69C164.67,68.51,148.259,84.917,128,84.917z"/>
</g>
</svg>
