<?xml version="1.0" encoding="utf-8"?>
<!-- Generator: Adobe Illustrator 16.0.0, SVG Export Plug-In . SVG Version: 6.00 Build 0)  -->
<!DOCTYPE svg PUBLIC "-//W3C//DTD SVG 1.1//EN" "http://www.w3.org/Graphics/SVG/1.1/DTD/svg11.dtd">
<svg version="1.1" id="icons" xmlns="http://www.w3.org/2000/svg" xmlns:xlink="http://www.w3.org/1999/xlink" x="0px" y="0px"
	 width="64px" height="64px" viewBox="0 0 64 64" enable-background="new 0 0 64 64" xml:space="preserve">
<g>
	<g>
		<path fill="#656D78" d="M54.66,32.149l4.24,4.25C56.37,38.93,52.87,40.5,49,40.5v-0.01V34.5C51.21,34.5,53.21,33.6,54.66,32.149z"
			/>
	</g>
	<g>
		<path fill="#E6E9ED" d="M56.67,28.779c-0.34,1.15-0.93,2.19-1.7,3.051c-1.81-0.86-3.83-1.33-5.97-1.33H15
			c-2.13,0-4.15,0.47-5.96,1.33c-0.771-0.86-1.37-1.9-1.71-3.051h0.01C9.54,27.34,12.17,26.5,15,26.5h34
			C51.83,26.5,54.47,27.34,56.67,28.779z"/>
	</g>
	<g>
		<path fill="#E6E9ED" d="M54.66,20.84c1.09,1.09,1.859,2.49,2.18,4.061c-2.229-1.521-4.93-2.4-7.84-2.4H15
			c-2.9,0-5.6,0.88-7.84,2.4c0.32-1.57,1.1-2.971,2.189-4.061c1.44-1.45,3.44-2.34,5.65-2.34v-0.01h9h8h8h9v0.01
			C51.21,18.5,53.21,19.39,54.66,20.84z"/>
	</g>
	<g>
		<path fill="#656D78" d="M58.9,16.6c2.529,2.53,4.1,6.03,4.1,9.9h-6c0-0.551-0.05-1.08-0.16-1.6c-0.32-1.57-1.09-2.971-2.18-4.061
			l0.01-0.01L58.9,16.6z"/>
	</g>
	<g>
		<path fill="#CCD1D9" d="M56.84,24.9c0.11,0.52,0.16,1.049,0.16,1.6c0,0.789-0.11,1.56-0.33,2.279C54.47,27.34,51.83,26.5,49,26.5
			H15c-2.83,0-5.46,0.84-7.66,2.279H7.33C7.12,28.06,7,27.289,7,26.5c0-0.551,0.06-1.08,0.16-1.6C9.4,23.38,12.1,22.5,15,22.5h34
			C51.91,22.5,54.61,23.38,56.84,24.9z"/>
	</g>
	<g>
		<rect x="24" y="12.5" fill="#656D78" width="8" height="5.99"/>
	</g>
	<g>
		<path fill="#656D78" d="M1,26.5h6c0,0.789,0.12,1.56,0.33,2.279c0.34,1.15,0.939,2.19,1.71,3.051c0.11,0.109,0.21,0.22,0.31,0.319
			l-4.25,4.25C2.57,33.87,1,30.369,1,26.5z"/>
	</g>
	<g>
		<polygon fill="#ED5565" points="23,7 24,8.5 20,8.5 20,5.5 24,5.5 		"/>
	</g>
	<g>
		<rect x="31.99" y="34.5" fill="#656D78" width="8" height="6"/>
	</g>
	<g>
		<path fill="#A0D468" d="M9.35,32.149c-0.1-0.1-0.199-0.21-0.31-0.319c1.81-0.86,3.83-1.33,5.96-1.33h34
			c2.14,0,4.16,0.47,5.97,1.33c-0.109,0.109-0.21,0.22-0.31,0.319C53.21,33.6,51.21,34.5,49,34.5h-9.01h-8h-8H15
			C12.79,34.5,10.79,33.6,9.35,32.149z"/>
	</g>
	<g>
		<polygon fill="#ED5565" points="47,7 48,8.5 44,8.5 44,5.5 48,5.5 		"/>
	</g>
	<g>
		<g>
			<path fill="#545C66" d="M15,40.49v0.01c-3.87,0-7.37-1.57-9.9-4.101l4.25-4.25C10.79,33.6,12.79,34.5,15,34.5V40.49z"/>
		</g>
		<g>
			<path fill="#545C66" d="M54.66,20.84c-1.45-1.45-3.45-2.34-5.66-2.34v-0.01V12.5c3.87,0,7.37,1.57,9.9,4.1l-4.23,4.23
				L54.66,20.84z"/>
		</g>
		<g>
			<path fill="#545C66" d="M63,26.5c0,3.869-1.57,7.37-4.1,9.899l-4.24-4.25c0.1-0.1,0.2-0.21,0.31-0.319
				c0.771-0.86,1.36-1.9,1.7-3.051C56.89,28.06,57,27.289,57,26.5H63z"/>
		</g>
		<g>
			<rect x="23.99" y="34.5" fill="#545C66" width="8" height="6"/>
		</g>
		<g>
			<polygon fill="#545C66" points="49,40.49 49,40.5 39.99,40.5 39.99,34.5 49,34.5 			"/>
		</g>
		<g>
			<path fill="#545C66" d="M1,26.5c0-3.87,1.57-7.37,4.1-9.9l4.25,4.24C8.26,21.93,7.48,23.33,7.16,24.9C7.06,25.42,7,25.949,7,26.5
				H1z"/>
		</g>
		<g>
			<rect x="32" y="12.5" fill="#545C66" width="8" height="5.99"/>
		</g>
		<g>
			<polygon fill="#545C66" points="24,12.5 24,18.49 15,18.49 15,12.5 20,12.5 			"/>
		</g>
	</g>
	<g>
		<polygon fill="#656D78" points="49,12.5 49,18.49 40,18.49 40,12.5 44,12.5 		"/>
	</g>
	<g>
		<polygon fill="#656D78" points="23.99,34.5 23.99,40.5 15,40.5 15,40.49 15,34.5 		"/>
	</g>
	<g>
		<polygon fill="#ED5565" points="35,7 36,8.5 32,8.5 32,5.5 36,5.5 		"/>
	</g>
	<g>
		<path fill="#656D78" d="M5.1,16.6c2.53-2.529,6.03-4.1,9.9-4.1v5.99v0.01c-2.21,0-4.21,0.89-5.65,2.34L5.1,16.6z"/>
	</g>
	<g>
		<path fill="#E6E9ED" d="M49,52.5c7.74,0,14-6.271,14-14v6c0,7.729-6.26,14-14,14h-8v-6H49z"/>
	</g>
	<g>
		<path fill="#CCD1D9" d="M49,46.5c7.74,0,14-6.271,14-14v6c0,7.729-6.26,14-14,14h-8v-6H49z"/>
	</g>
	<g>
		<path fill="#E6E9ED" d="M1,38.5c0,7.729,6.27,14,14,14h8.01v6H15c-7.73,0-14-6.271-14-14V38.5z"/>
	</g>
	<g>
		<path fill="#CCD1D9" d="M1,32.5c0,7.729,6.27,14,14,14h8.01v6H15c-7.73,0-14-6.271-14-14V32.5z"/>
	</g>
	<g>
		<rect x="32.02" y="51.5" fill="#656D78" width="3.98" height="7"/>
	</g>
	<g>
		<rect x="28" y="51.5" fill="#656D78" width="4.02" height="7"/>
	</g>
	<g>
		<polygon fill="#F5F7FA" points="41,52.5 41,58.5 36,58.5 36,51.5 32.02,51.5 28,51.5 28,58.5 23.01,58.5 23.01,52.5 23.01,46.5 
			41,46.5 		"/>
	</g>
	<g>
		<path fill="#E6E9ED" d="M1,26.5c0,3.869,1.57,7.37,4.1,9.899C7.63,38.93,11.13,40.5,15,40.5h8.99h8h8H49
			c3.87,0,7.37-1.57,9.9-4.101C61.43,33.87,63,30.369,63,26.5v6c0,7.729-6.26,14-14,14h-8H23.01H15c-7.73,0-14-6.271-14-14V26.5z"/>
	</g>
</g>
<g>
	<g>
		<path d="M15,41.482c-8.271,0-15-6.729-15-14.999c0-8.271,6.729-15,15-15c0.553,0,1,0.448,1,1s-0.447,1-1,1
			c-7.168,0-13,5.832-13,13c0,7.168,5.832,12.999,13,12.999c0.553,0,1,0.447,1,1S15.553,41.482,15,41.482z"/>
	</g>
	<g>
		<path d="M15,35.483c-4.963,0-9-4.038-9-9c0-4.963,4.037-9.001,9-9.001c0.553,0,1,0.448,1,1s-0.447,1-1,1c-3.859,0-7,3.141-7,7.001
			c0,3.86,3.141,7,7,7c0.553,0,1,0.447,1,1S15.553,35.483,15,35.483z"/>
	</g>
	<g>
		<path d="M49,41.482c-0.553,0-1-0.447-1-1s0.447-1,1-1c7.168,0,13-5.831,13-12.999c0-7.168-5.832-13-13-13c-0.553,0-1-0.448-1-1
			s0.447-1,1-1c8.271,0,15,6.729,15,15C64,34.754,57.271,41.482,49,41.482z"/>
	</g>
	<g>
		<path d="M7.333,29.771c-0.326,0-0.646-0.159-0.837-0.452c-0.303-0.461-0.175-1.082,0.287-1.384
			c2.442-1.603,5.284-2.449,8.217-2.449c0.553,0,1,0.448,1,1s-0.447,1-1,1c-2.542,0-5.004,0.733-7.119,2.121
			C7.712,29.719,7.521,29.771,7.333,29.771z"/>
	</g>
	<g>
		<path d="M56.663,29.77c-0.188,0-0.379-0.053-0.548-0.164c-2.112-1.386-4.573-2.119-7.115-2.119c-0.553,0-1-0.448-1-1s0.447-1,1-1
			c2.933,0,5.772,0.846,8.213,2.447c0.462,0.303,0.59,0.923,0.287,1.385C57.309,29.611,56.989,29.77,56.663,29.77z"/>
	</g>
	<g>
		<path d="M7.161,25.884c-0.32,0-0.636-0.154-0.829-0.439c-0.31-0.457-0.189-1.079,0.268-1.389c2.483-1.682,5.389-2.571,8.4-2.571
			c0.553,0,1,0.448,1,1s-0.447,1-1,1c-2.61,0-5.128,0.77-7.279,2.228C7.549,25.828,7.354,25.884,7.161,25.884z"/>
	</g>
	<g>
		<path d="M56.84,25.883c-0.192,0-0.388-0.056-0.56-0.172c-2.152-1.457-4.668-2.227-7.275-2.227c-0.002,0-0.003,0-0.005,0l0,0
			c-0.552,0-1-0.447-1-1s0.447-1,1-1c0.001,0,0.003,0,0.005,0c3.008,0,5.911,0.889,8.396,2.57c0.457,0.31,0.577,0.931,0.268,1.389
			C57.476,25.729,57.16,25.883,56.84,25.883z"/>
	</g>
	<g>
		<path d="M54.963,32.814c-0.143,0-0.288-0.031-0.426-0.096c-1.737-0.82-3.6-1.235-5.537-1.235c-0.553,0-1-0.448-1-1s0.447-1,1-1
			c2.234,0,4.385,0.48,6.391,1.427c0.499,0.236,0.713,0.832,0.478,1.331C55.697,32.603,55.338,32.814,54.963,32.814z"/>
	</g>
	<g>
		<path d="M49,35.482c-0.553,0-1-0.447-1-1s0.447-1,1-1c3.859,0,7-3.14,7-6.999c0-3.86-3.141-7-7-7c-0.553,0-1-0.448-1-1
			s0.447-1,1-1c4.963,0,9,4.038,9,9C58,31.445,53.963,35.482,49,35.482z"/>
	</g>
	<g>
		<path d="M9.036,32.814c-0.375,0-0.734-0.212-0.905-0.573c-0.235-0.5-0.021-1.096,0.478-1.331c2.007-0.947,4.157-1.427,6.392-1.427
			c0.553,0,1,0.448,1,1s-0.447,1-1,1c-1.937,0-3.8,0.416-5.538,1.235C9.324,32.784,9.179,32.814,9.036,32.814z"/>
	</g>
	<g>
		<path d="M15,47.482c-8.271,0-15-6.729-15-15c0-0.552,0.447-1,1-1s1,0.448,1,1c0,7.168,5.832,13,13,13c0.553,0,1,0.447,1,1
			S15.553,47.482,15,47.482z"/>
	</g>
	<g>
		<path d="M49,47.482c-0.553,0-1-0.447-1-1s0.447-1,1-1c7.168,0,13-5.832,13-13c0-0.552,0.447-1,1-1s1,0.448,1,1
			C64,40.754,57.271,47.482,49,47.482z"/>
	</g>
	<g>
		<path d="M15,53.482c-8.271,0-15-6.729-15-15c0-0.553,0.447-1,1-1s1,0.447,1,1c0,7.168,5.832,13,13,13c0.553,0,1,0.447,1,1
			S15.553,53.482,15,53.482z"/>
	</g>
	<g>
		<path d="M49,53.482c-0.553,0-1-0.447-1-1s0.447-1,1-1c7.168,0,13-5.832,13-13c0-0.553,0.447-1,1-1s1,0.447,1,1
			C64,46.754,57.271,53.482,49,53.482z"/>
	</g>
	<g>
		<path d="M15,59.482c-8.271,0-15-6.729-15-15c0-0.553,0.447-1,1-1s1,0.447,1,1c0,7.168,5.832,13,13,13c0.553,0,1,0.447,1,1
			S15.553,59.482,15,59.482z"/>
	</g>
	<g>
		<path d="M49,59.482c-0.553,0-1-0.447-1-1s0.447-1,1-1c7.168,0,13-5.832,13-13c0-0.553,0.447-1,1-1s1,0.447,1,1
			C64,52.754,57.271,59.482,49,59.482z"/>
	</g>
	<g>
		<path d="M1,45.482c-0.553,0-1-0.447-1-1V26.483c0-0.552,0.447-1,1-1s1,0.448,1,1v17.999C2,45.035,1.553,45.482,1,45.482z"/>
	</g>
	<g>
		<path d="M63,45.482c-0.553,0-1-0.447-1-1V26.483c0-0.552,0.447-1,1-1s1,0.448,1,1v17.999C64,45.035,63.553,45.482,63,45.482z"/>
	</g>
	<g>
		<path d="M49,41.482H15c-0.553,0-1-0.447-1-1s0.447-1,1-1h34c0.553,0,1,0.447,1,1S49.553,41.482,49,41.482z"/>
	</g>
	<g>
		<path d="M49,47.482H15c-0.553,0-1-0.447-1-1s0.447-1,1-1h34c0.553,0,1,0.447,1,1S49.553,47.482,49,47.482z"/>
	</g>
	<g>
		<path d="M49,59.482H15c-0.553,0-1-0.447-1-1s0.447-1,1-1h34c0.553,0,1,0.447,1,1S49.553,59.482,49,59.482z"/>
	</g>
	<g>
		<path d="M49,19.479H15c-0.553,0-1-0.448-1-1s0.447-1,1-1h34c0.553,0,1,0.448,1,1S49.553,19.479,49,19.479z"/>
	</g>
	<g>
		<path d="M49,35.482H15c-0.553,0-1-0.447-1-1s0.447-1,1-1h34c0.553,0,1,0.447,1,1S49.553,35.482,49,35.482z"/>
	</g>
	<g>
		<path d="M49,13.483H15c-0.553,0-1-0.448-1-1s0.447-1,1-1h34c0.553,0,1,0.448,1,1S49.553,13.483,49,13.483z"/>
	</g>
	<g>
		<path d="M23.003,59.482c-0.553,0-1-0.447-1-1v-12c0-0.553,0.447-1,1-1s1,0.447,1,1v12C24.003,59.035,23.556,59.482,23.003,59.482z
			"/>
	</g>
	<g>
		<path d="M40.996,59.482c-0.553,0-1-0.447-1-1v-12c0-0.553,0.447-1,1-1s1,0.447,1,1v12C41.996,59.035,41.549,59.482,40.996,59.482z
			"/>
	</g>
	<g>
		<path d="M23.003,53.482H15c-0.553,0-1-0.447-1-1s0.447-1,1-1h8.003c0.553,0,1,0.447,1,1S23.556,53.482,23.003,53.482z"/>
	</g>
	<g>
		<path d="M49,53.482h-8.004c-0.553,0-1-0.447-1-1s0.447-1,1-1H49c0.553,0,1,0.447,1,1S49.553,53.482,49,53.482z"/>
	</g>
	<g>
		<path d="M35.999,59.516H28c-0.553,0-1-0.447-1-1v-7.031c0-0.553,0.447-1,1-1h7.999c0.553,0,1,0.447,1,1v7.031
			C36.999,59.068,36.552,59.516,35.999,59.516z M29,57.516h5.999v-5.031H29V57.516z"/>
	</g>
	<g>
		<path d="M32.016,59.482c-0.553,0-1-0.447-1-1v-6.998c0-0.553,0.447-1,1-1s1,0.447,1,1v6.998
			C33.016,59.035,32.568,59.482,32.016,59.482z"/>
	</g>
	<g>
		<path d="M63,27.483h-6c-0.553,0-1-0.448-1-1s0.447-1,1-1h6c0.553,0,1,0.448,1,1S63.553,27.483,63,27.483z"/>
	</g>
	<g>
		<path d="M49,19.479c-0.553,0-1-0.448-1-1v-5.995c0-0.552,0.447-1,1-1s1,0.448,1,1v5.995C50,19.031,49.553,19.479,49,19.479z"/>
	</g>
	<g>
		<path d="M49,41.48c-0.553,0-1-0.447-1-1v-6.009c0-0.553,0.447-1,1-1s1,0.447,1,1v6.009C50,41.033,49.553,41.48,49,41.48z"/>
	</g>
	<g>
		<path d="M54.665,21.819c-0.256,0-0.512-0.098-0.707-0.293c-0.391-0.391-0.391-1.023,0-1.414l4.235-4.235
			c0.391-0.391,1.023-0.391,1.414,0s0.391,1.023,0,1.414l-4.235,4.235C55.177,21.722,54.921,21.819,54.665,21.819z"/>
	</g>
	<g>
		<path d="M58.9,37.386c-0.256,0-0.512-0.098-0.707-0.293l-4.244-4.245c-0.391-0.391-0.391-1.024,0-1.414
			c0.391-0.391,1.023-0.391,1.414,0l4.244,4.245c0.391,0.391,0.391,1.023,0,1.414C59.412,37.288,59.156,37.386,58.9,37.386z"/>
	</g>
	<g>
		<path d="M7,27.483H1c-0.553,0-1-0.448-1-1s0.447-1,1-1h6c0.553,0,1,0.448,1,1S7.553,27.483,7,27.483z"/>
	</g>
	<g>
		<path d="M15,19.479c-0.553,0-1-0.448-1-1v-5.995c0-0.552,0.447-1,1-1s1,0.448,1,1v5.995C16,19.031,15.553,19.479,15,19.479z"/>
	</g>
	<g>
		<path d="M24.001,19.479c-0.553,0-1-0.448-1-1v-5.995c0-0.552,0.447-1,1-1s1,0.448,1,1v5.995
			C25.001,19.031,24.554,19.479,24.001,19.479z"/>
	</g>
	<g>
		<path d="M31.995,19.479c-0.553,0-1-0.448-1-1v-5.995c0-0.552,0.447-1,1-1s1,0.448,1,1v5.995
			C32.995,19.031,32.548,19.479,31.995,19.479z"/>
	</g>
	<g>
		<path d="M40.001,19.479c-0.553,0-1-0.448-1-1v-5.995c0-0.552,0.447-1,1-1s1,0.448,1,1v5.995
			C41.001,19.031,40.554,19.479,40.001,19.479z"/>
	</g>
	<g>
		<path d="M15,41.48c-0.553,0-1-0.447-1-1v-6.009c0-0.553,0.447-1,1-1s1,0.447,1,1v6.009C16,41.033,15.553,41.48,15,41.48z"/>
	</g>
	<g>
		<path d="M9.343,21.83c-0.256,0-0.512-0.098-0.707-0.293l-4.244-4.246c-0.391-0.391-0.391-1.024,0-1.414
			c0.391-0.391,1.023-0.391,1.414,0l4.244,4.246c0.391,0.391,0.391,1.024,0,1.414C9.854,21.732,9.599,21.83,9.343,21.83z"/>
	</g>
	<g>
		<path d="M5.099,37.387c-0.256,0-0.512-0.098-0.707-0.293c-0.391-0.391-0.391-1.023,0-1.414l4.245-4.246
			c0.391-0.391,1.023-0.391,1.414,0c0.391,0.39,0.391,1.023,0,1.414l-4.245,4.246C5.61,37.289,5.354,37.387,5.099,37.387z"/>
	</g>
	<g>
		<path d="M23.989,41.497c-0.553,0-1-0.447-1-1v-6.013c0-0.553,0.447-1,1-1s1,0.447,1,1v6.013
			C24.989,41.05,24.542,41.497,23.989,41.497z"/>
	</g>
	<g>
		<path d="M31.983,41.497c-0.553,0-1-0.447-1-1v-6.013c0-0.553,0.447-1,1-1s1,0.447,1,1v6.013
			C32.983,41.05,32.536,41.497,31.983,41.497z"/>
	</g>
	<g>
		<path d="M39.989,41.497c-0.553,0-1-0.447-1-1v-6.013c0-0.553,0.447-1,1-1s1,0.447,1,1v6.013
			C40.989,41.05,40.542,41.497,39.989,41.497z"/>
	</g>
	<g>
		<path d="M49,31.483H15c-0.553,0-1-0.448-1-1s0.447-1,1-1h34c0.553,0,1,0.448,1,1S49.553,31.483,49,31.483z"/>
	</g>
	<g>
		<path d="M49,27.482H15c-0.553,0-1-0.448-1-1s0.447-1,1-1h34c0.553,0,1,0.448,1,1S49.553,27.482,49,27.482z"/>
	</g>
	<g>
		<path d="M49,23.482H15c-0.553,0-1-0.448-1-1s0.447-1,1-1h34c0.553,0,1,0.448,1,1S49.553,23.482,49,23.482z"/>
	</g>
	<g>
		<path d="M20,13.483c-0.553,0-1-0.448-1-1V5.484c0-0.552,0.447-1,1-1s1,0.448,1,1v6.999C21,13.036,20.553,13.483,20,13.483z"/>
	</g>
	<g>
		<path d="M24.019,9.484c-0.005,0-0.013,0-0.02,0H20c-0.553,0-1-0.448-1-1v-3c0-0.552,0.447-1,1-1h3.999
			c0.369,0,0.708,0.203,0.882,0.528s0.154,0.72-0.05,1.027L24.2,6.984l0.536,0.803c0.175,0.18,0.282,0.426,0.282,0.697
			C25.019,9.037,24.571,9.484,24.019,9.484z M21,7.484h1.132c-0.179-0.309-0.179-0.691,0-1H21V7.484z"/>
	</g>
	<g>
		<path d="M32,13.483c-0.553,0-1-0.448-1-1V5.484c0-0.552,0.447-1,1-1s1,0.448,1,1v6.999C33,13.036,32.553,13.483,32,13.483z"/>
	</g>
	<g>
		<path d="M36.019,9.484c-0.005,0-0.012,0-0.02,0H32c-0.553,0-1-0.448-1-1v-3c0-0.552,0.447-1,1-1h3.999
			c0.369,0,0.708,0.203,0.882,0.528s0.154,0.72-0.05,1.027L36.2,6.984l0.536,0.803c0.175,0.18,0.282,0.426,0.282,0.697
			C37.019,9.037,36.571,9.484,36.019,9.484z M33,7.484h1.132c-0.179-0.309-0.179-0.691,0-1H33V7.484z"/>
	</g>
	<g>
		<path d="M44,13.483c-0.553,0-1-0.448-1-1V5.484c0-0.552,0.447-1,1-1s1,0.448,1,1v6.999C45,13.036,44.553,13.483,44,13.483z"/>
	</g>
	<g>
		<path d="M48.019,9.484c-0.005,0-0.012,0-0.02,0H44c-0.553,0-1-0.448-1-1v-3c0-0.552,0.447-1,1-1h3.999
			c0.369,0,0.708,0.203,0.882,0.528s0.154,0.72-0.05,1.027L48.2,6.984l0.536,0.803c0.175,0.18,0.282,0.426,0.282,0.697
			C49.019,9.037,48.571,9.484,48.019,9.484z M45,7.484h1.132c-0.179-0.309-0.179-0.691,0-1H45V7.484z"/>
	</g>
</g>
</svg>
