<?xml version="1.0" encoding="iso-8859-1"?>
<!-- Generator: Adobe Illustrator 19.0.0, SVG Export Plug-In . SVG Version: 6.00 Build 0)  -->
<svg version="1.1" id="Layer_1" xmlns="http://www.w3.org/2000/svg" xmlns:xlink="http://www.w3.org/1999/xlink" x="0px" y="0px"
	 viewBox="0 0 512.001 512.001" style="enable-background:new 0 0 512.001 512.001;" xml:space="preserve">
<path style="fill:#7C6755;" d="M299.029,503.524h-113.58c-12.483,0-22.604-10.12-22.604-22.603
	c0-12.484,10.121-22.604,22.604-22.604h113.58c50.543,0,91.662-41.119,91.662-91.662V145.344c0-12.484,10.121-22.604,22.604-22.604
	c12.485,0,22.604,10.12,22.604,22.604v221.311C435.897,442.126,374.498,503.524,299.029,503.524z"/>
<path style="fill:#493728;" d="M307.82,457.902l4.273,45.005c6.73-0.64,13.458-1.786,19.998-3.41l-10.889-43.876
	C316.831,456.707,312.327,457.475,307.82,457.902z M353.726,440.217l27.009,36.253c5.403-4.027,10.556-8.491,15.313-13.271
	l-32.044-31.889C360.811,434.519,357.351,437.516,353.726,440.217z M247.819,484.967v18.556h16.953v-34.002
	C259.665,475.42,253.996,480.571,247.819,484.967z M390.69,286.617h45.207v-16.953H390.69V286.617z M390.69,224.457h45.207v-16.953
	H390.69V224.457z M383.926,401.291l41.852,17.093c2.556-6.26,4.662-12.764,6.258-19.332l-43.929-10.671
	C387.041,392.767,385.635,397.11,383.926,401.291z M390.69,145.345v16.953h45.207v-16.953H390.69z M390.69,348.776h45.207v-16.953
	H390.69V348.776z"/>
<path style="opacity:0.2;enable-background:new    ;" d="M299.029,458.317h-113.58c-12.483,0-22.604,10.12-22.604,22.604
	c0,12.484,10.121,22.603,22.604,22.603h76.995c9.466-6.318,17.797-14.35,24.829-24.042c4.669-6.434,8.675-13.53,12.036-21.172
	C299.215,458.311,299.122,458.317,299.029,458.317z"/>
<path style="fill:#7C6755;" d="M185.448,503.524c-36.066,0-65.413-14.176-84.872-40.995c-16.01-22.069-24.473-51.706-24.473-85.701
	c0-34.058,15.41-54.15,27.791-70.294c11.485-14.976,20.557-26.804,20.557-50.534c0-23.729-9.072-35.558-20.557-50.532
	c-12.381-16.145-27.791-36.238-27.791-70.295c0-33.996,8.463-63.631,24.473-85.701c19.458-26.82,48.805-40.996,84.872-40.996
	s65.416,14.176,84.872,40.995c16.012,22.07,24.475,51.706,24.475,85.701c0,34.058-15.41,54.15-27.791,70.295
	c-11.487,14.975-20.557,26.803-20.557,50.532s9.07,35.558,20.557,50.534c12.381,16.143,27.791,36.237,27.791,70.294
	c0,33.997-8.463,63.632-24.475,85.701C250.864,489.348,221.514,503.524,185.448,503.524z M185.448,53.683
	c-21.584,0-37.375,7.305-48.28,22.336c-10.227,14.097-15.857,35.104-15.857,59.155c0,18.718,7.742,28.813,18.456,42.783
	c13.317,17.364,29.892,38.975,29.892,78.044s-16.575,60.679-29.892,78.044c-10.714,13.971-18.456,24.065-18.456,42.783
	c0,24.05,5.631,45.058,15.857,59.155c10.904,15.029,26.696,22.336,48.28,22.336c21.584,0,37.377-7.305,48.28-22.336
	c10.227-14.097,15.86-35.104,15.86-59.155c0-18.718-7.742-28.813-18.456-42.783c-13.319-17.364-29.892-38.975-29.892-78.044
	s16.573-60.679,29.892-78.044c10.714-13.971,18.456-24.065,18.456-42.783c0-24.05-5.633-45.058-15.86-59.155
	C222.825,60.989,207.032,53.683,185.448,53.683z"/>
<path style="fill:#493728;" d="M167.528,502.284c-7.408-1.06-14.56-2.823-21.26-5.237l15.332-42.527
	c3.812,1.374,7.962,2.388,12.335,3.015L167.528,502.284z M223.846,497.325l-14.982-42.652c3.867-1.358,7.508-3.126,10.82-5.253
	l24.431,38.036C237.847,491.482,231.028,494.803,223.846,497.325z M99.423,460.906c-4.004-5.744-7.56-12.069-10.569-18.804
	l41.274-18.446c1.852,4.144,3.997,7.979,6.38,11.393L99.423,460.906z M281.719,442.823l-41.152-18.711
	c1.821-4.009,3.397-8.383,4.682-13l43.554,12.114C286.891,430.095,284.508,436.689,281.719,442.823z M76.514,389.538
	c-0.271-4.157-0.41-8.433-0.41-12.71c0-2.594,0.09-5.184,0.267-7.7l45.094,3.19c-0.104,1.458-0.155,2.976-0.155,4.508
	c0,3.292,0.106,6.571,0.313,9.744L76.514,389.538z M249.464,372.797c-0.264-4.21-0.949-8.054-2.091-11.75l43.199-13.327
	c2.174,7.048,3.523,14.528,4.009,22.234L249.464,372.797z M133.992,341.71L97.41,315.152c2.168-2.986,4.364-5.85,6.487-8.621
	c1.387-1.806,2.777-3.619,4.152-5.459l36.214,27.059c-1.49,1.993-2.993,3.954-4.492,5.91
	C137.733,336.695,135.811,339.204,133.992,341.71z M227.054,328.692c-3.207-4.271-7.374-10.017-11.184-16.589l39.114-22.667
	c2.598,4.485,5.616,8.64,8.222,12.114L227.054,328.692z M167.875,277.162l-44.519-7.866c0.727-4.106,1.095-8.578,1.095-13.295
	l-0.007-1.061l45.205-0.466c0.005,0.486,0.007,0.976,0.009,1.469C169.659,263.347,169.058,270.467,167.875,277.162z
	 M201.242,256.765l-0.002-0.764c0-7.056,0.552-13.906,1.642-20.359l44.575,7.535c-0.671,3.971-1.012,8.285-1.012,12.824l0.002,0.533
	L201.242,256.765z M115.658,222.128c-2.61-4.437-5.675-8.638-8.333-12.162l36.101-27.21c3.426,4.546,7.437,10.056,11.2,16.458
	L115.658,222.128z M262.492,211.408l-36.276-26.976c1.626-2.188,3.275-4.337,4.919-6.478c1.911-2.492,3.715-4.846,5.437-7.2
	l36.494,26.681c-2.029,2.772-4.079,5.445-6.061,8.031C265.499,207.43,263.984,209.401,262.492,211.408z M80.079,163.465
	c-2.101-7.042-3.384-14.525-3.81-22.237l45.138-2.494c0.234,4.238,0.885,8.098,1.989,11.799L80.079,163.465z M294.464,143.702
	l-45.066-3.562c0.125-1.597,0.19-3.267,0.19-4.967c0-3.096-0.095-6.189-0.278-9.193l45.121-2.776
	c0.241,3.925,0.364,7.951,0.364,11.969C294.795,138.055,294.682,140.925,294.464,143.702z M125.792,100.379L82.303,88.035
	c1.95-6.864,4.373-13.451,7.207-19.578l41.033,18.973C128.696,91.422,127.098,95.778,125.792,100.379z M240.975,88.806
	c-1.83-4.168-3.956-8.027-6.315-11.468l37.282-25.566c3.951,5.762,7.457,12.103,10.421,18.848L240.975,88.806z M151.592,62.343
	l-24.093-38.252c6.291-3.964,13.136-7.223,20.339-9.688l14.635,42.773C158.579,58.508,154.92,60.246,151.592,62.343z
	 M209.727,57.639c-3.794-1.404-7.925-2.447-12.277-3.1l6.714-44.706c7.408,1.113,14.558,2.933,21.248,5.408L209.727,57.639z"/>
<path style="opacity:0.2;enable-background:new    ;" d="M124.081,248.088c0.241,2.491,0.371,5.116,0.371,7.912
	c0,16.364-4.315,27.067-10.759,37.046h50.097c3.57-10.385,5.868-22.505,5.868-37.046c0-2.724-0.088-5.353-0.243-7.912H124.081z
	 M246.447,256.001c0-2.796,0.13-5.421,0.371-7.912h-45.335c-0.155,2.56-0.243,5.189-0.243,7.912c0,14.541,2.298,26.661,5.867,37.046
	h50.098C250.76,283.067,246.447,272.363,246.447,256.001z"/>
<path style="fill:#61B4E4;" d="M247.562,278.479c10.602,0,19.197-10.064,19.197-22.479c0-12.415-8.595-22.479-19.197-22.479H123.337
	c-10.602,0-19.197,10.064-19.197,22.479c0,12.415,8.595,22.479,19.197,22.479H247.562z"/>
<g>
	<rect x="177.008" y="233.517" style="fill:#009BDE;" width="16.88" height="44.958"/>
	<rect x="135.565" y="233.517" style="fill:#009BDE;" width="16.88" height="44.958"/>
	<rect x="218.452" y="233.517" style="fill:#009BDE;" width="16.88" height="44.958"/>
</g>
<path style="fill:#1E252B;" d="M413.294,114.265c-17.137,0-31.08,13.943-31.08,31.08v221.311c0,45.868-37.317,83.185-83.185,83.185
	h-11.273c10.184-20.707,15.516-45.545,15.516-73.014c0-36.934-17.074-59.196-29.542-75.453c-5.09-6.638-9.393-12.276-12.609-18.405
	c8.416-5.315,14.115-15.409,14.115-26.969c0-11.562-5.699-21.655-14.116-26.971c3.216-6.128,7.518-11.763,12.612-18.405
	c12.467-16.255,29.541-38.52,29.541-75.452c0-35.796-9.021-67.152-26.09-90.678C256.064,15.386,224.344,0,185.448,0
	c-38.893,0-70.613,15.386-91.733,44.495c-17.067,23.527-26.088,54.884-26.088,90.678c0,36.932,17.072,59.196,29.544,75.456
	c5.091,6.639,9.393,12.274,12.608,18.4c-8.416,5.315-14.116,15.41-14.116,26.97c0,11.561,5.699,21.655,14.116,26.971
	c-3.215,6.126-7.516,11.762-12.61,18.405c-12.467,16.255-29.542,38.519-29.542,75.453c0,35.796,9.021,67.152,26.089,90.679
	c21.118,29.108,52.839,44.494,91.732,44.494h113.58c80.143,0,145.345-65.201,145.345-145.345V145.345
	C444.374,128.207,430.431,114.265,413.294,114.265z M84.58,135.174c0-32.195,7.904-60.11,22.858-80.724
	c17.798-24.53,44.773-37.497,78.01-37.497c33.24,0,60.215,12.967,78.01,37.497c14.954,20.613,22.86,48.527,22.86,80.724
	c0,31.18-13.833,49.219-26.04,65.137c-6.105,7.96-11.922,15.558-16.077,24.735h-30.135c5.44-17.962,15.099-30.598,23.791-41.931
	c10.843-14.137,20.206-26.348,20.206-47.941c0-25.823-6.206-48.599-17.475-64.132c-12.435-17.143-30.987-25.835-55.141-25.835
	c-24.151,0-42.703,8.691-55.14,25.834c-11.269,15.531-17.474,38.307-17.474,64.132c0,21.594,9.364,33.805,20.211,47.948
	c8.69,11.331,18.348,23.969,23.786,41.924h-30.135c-4.153-9.177-9.969-16.774-16.077-24.736
	C98.413,184.393,84.58,166.353,84.58,135.174z M123.337,270.002c-5.812,0-10.721-6.413-10.721-14.003s4.909-14.003,10.721-14.003
	h124.224c5.812,0,10.721,6.413,10.721,14.003s-4.909,14.003-10.721,14.003H123.337z M196.479,286.955
	c5.976,23.575,18.046,39.363,27.928,52.247c10.418,13.585,16.705,21.783,16.705,37.626c0,22.275-5.06,41.515-14.246,54.177
	c-9.322,12.851-22.483,18.837-41.418,18.837c-18.934,0-32.095-5.985-41.419-18.837c-9.184-12.659-14.242-31.9-14.242-54.177
	c0-15.843,6.287-24.041,16.713-37.634c9.879-12.883,21.943-28.669,27.919-52.238h22.06V286.955z M174.419,225.045
	c-5.975-23.57-18.042-39.357-27.927-52.247c-10.418-13.585-16.705-21.783-16.705-37.626c0-22.277,5.059-41.517,14.242-54.177
	c9.323-12.85,22.485-18.835,41.419-18.835c18.936,0,32.096,5.985,41.419,18.837c9.185,12.661,14.245,31.901,14.245,54.177
	c0,15.843-6.288,24.041-16.705,37.625c-9.881,12.883-21.95,28.669-27.927,52.247L174.419,225.045L174.419,225.045z M107.438,457.552
	c-14.953-20.613-22.859-48.527-22.859-80.724c0-31.182,13.834-49.22,26.047-65.143c6.102-7.959,11.918-15.555,16.069-24.729h30.136
	c-5.436,17.955-15.096,30.592-23.791,41.931c-10.843,14.137-20.206,26.348-20.206,47.941c0,25.826,6.205,48.601,17.474,64.132
	c12.438,17.142,30.989,25.834,55.14,25.834c24.154,0,42.706-8.692,55.14-25.834c11.27-15.533,17.476-38.31,17.476-64.132
	c0-21.594-9.364-33.805-20.206-47.942c-8.692-11.332-18.353-23.971-23.791-41.931H244.2c4.153,9.179,9.972,16.779,16.077,24.737
	c12.206,15.915,26.04,33.954,26.04,65.135c0,32.198-7.904,60.112-22.86,80.724c-17.796,24.53-44.771,37.496-78.01,37.496
	C152.211,495.047,125.236,482.082,107.438,457.552z M427.421,366.656c0,70.795-57.596,128.392-128.392,128.392h-50.966
	c11.162-7.06,20.938-16.267,29.118-27.541c0.168-0.233,0.324-0.478,0.493-0.713h21.356c55.216,0,100.138-44.922,100.138-100.138
	V145.345c0-7.79,6.337-14.127,14.127-14.127s14.127,6.337,14.127,14.127V366.656z"/>
<g>
</g>
<g>
</g>
<g>
</g>
<g>
</g>
<g>
</g>
<g>
</g>
<g>
</g>
<g>
</g>
<g>
</g>
<g>
</g>
<g>
</g>
<g>
</g>
<g>
</g>
<g>
</g>
<g>
</g>
</svg>
