<?xml version="1.0" encoding="iso-8859-1"?>
<!-- Generator: Adobe Illustrator 19.0.0, SVG Export Plug-In . SVG Version: 6.00 Build 0)  -->
<svg version="1.1" id="Layer_1" xmlns="http://www.w3.org/2000/svg" xmlns:xlink="http://www.w3.org/1999/xlink" x="0px" y="0px"
	 viewBox="0 0 512 512" style="enable-background:new 0 0 512 512;" xml:space="preserve">
<path style="fill:#F7DC4D;" d="M432.209,35.6c0-19.662-15.938-35.6-35.599-35.6H115.39c-19.661,0-35.6,15.938-35.6,35.6v451.752
	h352.418V35.6z"/>
<path style="fill:#FF8600;" d="M396.61,0H261.146v487.352h171.063V35.6C432.209,15.938,416.271,0,396.61,0z"/>
<path style="fill:#C27526;" d="M432.209,512H79.791c-13.612,0-24.648-11.035-24.648-24.648s11.035-24.648,24.648-24.648h352.417
	c13.612,0,24.648,11.035,24.648,24.648S445.822,512,432.209,512z"/>
<path style="fill:#00F9FF;" d="M295.323,141.193h-68.354c-9.281,0-16.805-7.524-16.805-16.805s7.524-16.805,16.805-16.805h68.354
	c9.281,0,16.805,7.524,16.805,16.805S304.604,141.193,295.323,141.193z"/>
<path style="fill:#E61F00;" d="M359.889,228.041h-43.247c-16.087,0-29.129-13.042-29.129-29.129s13.042-29.129,29.129-29.129h43.247
	c16.087,0,29.129,13.042,29.129,29.129S375.976,228.041,359.889,228.041z"/>
<path style="fill:#7E4F1F;" d="M432.209,462.705H261.146V512h171.063c13.612,0,24.648-11.035,24.648-24.648
	S445.822,462.705,432.209,462.705z"/>
<path style="fill:#9D2217;" d="M359.889,169.782h-21.623v58.258h21.623c16.087,0,29.129-13.042,29.129-29.129
	S375.976,169.782,359.889,169.782z"/>
<path style="fill:#E61F00;" d="M382.891,76.352l-38.757,19.185c-14.418,7.137-31.892,1.235-39.029-13.183
	s-1.235-31.892,13.183-39.029l38.757-19.185c14.418-7.137,31.892-1.235,39.029,13.183C403.211,51.742,397.309,69.215,382.891,76.352
	z"/>
<path style="fill:#9D2217;" d="M357.046,24.14l-19.379,9.592l25.844,52.212l19.379-9.592c14.418-7.137,20.32-24.611,13.183-39.029
	C388.937,22.906,371.463,17.004,357.046,24.14z"/>
<path style="fill:#E61F00;" d="M166.809,255.743l-37.495-21.549c-13.948-8.016-18.757-25.822-10.741-39.77
	c8.016-13.948,25.822-18.757,39.77-10.741l37.495,21.549c13.948,8.016,18.757,25.822,10.741,39.77
	C198.563,258.951,180.757,263.76,166.809,255.743z"/>
<path style="fill:#9D2217;" d="M195.837,205.232l-18.748-10.774l-29.028,50.511l18.748,10.774
	c13.948,8.016,31.754,3.208,39.77-10.741C214.594,231.054,209.786,213.249,195.837,205.232z"/>
<path style="fill:#E61F00;" d="M380.624,403.936h-43.247c-16.087,0-29.129-13.042-29.129-29.129
	c0-16.087,13.042-29.129,29.129-29.129h43.247c16.087,0,29.129,13.042,29.129,29.129
	C409.753,390.894,396.712,403.936,380.624,403.936z"/>
<path style="fill:#9D2217;" d="M380.624,345.677h-21.623v58.258h21.623c16.087,0,29.129-13.042,29.129-29.129
	C409.753,358.719,396.712,345.677,380.624,345.677z"/>
<path style="fill:#00B7C0;" d="M295.323,107.583h-34.176v33.611h34.176c9.281,0,16.805-7.524,16.805-16.805
	S304.604,107.583,295.323,107.583z"/>
<path style="fill:#00F9FF;" d="M245.666,427.463h-68.354c-9.281,0-16.805-7.524-16.805-16.805s7.524-16.805,16.805-16.805h68.354
	c9.281,0,16.805,7.524,16.805,16.805S254.947,427.463,245.666,427.463z"/>
<path style="fill:#00B7C0;" d="M245.666,393.852H211.49v33.611h34.176c9.281,0,16.805-7.524,16.805-16.805
	S254.947,393.852,245.666,393.852z"/>
<path style="fill:#00F9FF;" d="M289.352,310.981l-65.694-18.879c-8.92-2.563-14.074-11.873-11.51-20.793
	c2.563-8.92,11.873-14.074,20.793-11.51l65.694,18.879c8.92,2.563,14.074,11.873,11.51,20.793
	C307.581,308.391,298.272,313.545,289.352,310.981z"/>
<path style="fill:#00B7C0;" d="M298.635,278.678l-32.848-9.44l-9.283,32.303l32.848,9.44c8.92,2.563,18.229-2.59,20.793-11.51
	C312.709,290.552,307.555,281.241,298.635,278.678z"/>
<path style="fill:#00F9FF;" d="M200.292,54.552l-56.559,38.384c-7.68,5.212-18.131,3.211-23.342-4.468
	c-5.212-7.679-3.211-18.131,4.468-23.342l56.559-38.384c7.68-5.212,18.131-3.211,23.342,4.468
	C209.972,38.888,207.972,49.34,200.292,54.552z"/>
<path style="fill:#00B7C0;" d="M181.417,26.742l-28.279,19.192l18.875,27.81l28.279-19.192c7.68-5.212,9.68-15.662,4.468-23.342
	C199.548,23.53,189.097,21.53,181.417,26.742z"/>
<path style="fill:#00F9FF;" d="M185.778,325.065l-56.559,38.384c-7.68,5.212-18.131,3.211-23.342-4.468
	c-5.212-7.68-3.211-18.131,4.468-23.342l56.559-38.384c7.68-5.212,18.131-3.211,23.342,4.468
	C195.457,309.403,193.458,319.853,185.778,325.065z"/>
<path style="fill:#00B7C0;" d="M166.903,297.255l-28.279,19.192l18.875,27.81l28.279-19.192c7.68-5.212,9.68-15.663,4.468-23.342
	C185.034,294.044,174.583,292.043,166.903,297.255z"/>
<g>
</g>
<g>
</g>
<g>
</g>
<g>
</g>
<g>
</g>
<g>
</g>
<g>
</g>
<g>
</g>
<g>
</g>
<g>
</g>
<g>
</g>
<g>
</g>
<g>
</g>
<g>
</g>
<g>
</g>
</svg>
