<svg xmlns="http://www.w3.org/2000/svg" width="128" height="128" viewBox="0 0 128 128">
  <title>BRICK WALL</title>
  <g>
    <g>
      <rect x="1.75" y="95.372" width="41.5" height="15.372" fill="#ffdf40"/>
      <rect x="43.25" y="95.372" width="41.5" height="15.372" fill="#ff7f40"/>
      <rect x="84.75" y="95.372" width="41.5" height="15.372" fill="#f25a3c"/>
      <rect x="1.75" y="64.628" width="41.5" height="15.372" fill="#ffdf40"/>
      <rect x="43.25" y="64.628" width="41.5" height="15.372" fill="#ff7f40"/>
      <rect x="1.75" y="80" width="20.75" height="15.372" fill="#ff7f40"/>
      <rect x="22.5" y="80" width="41.5" height="15.372" fill="#f25a3c"/>
      <rect x="64" y="80" width="41.5" height="15.372" fill="#ffdf40"/>
      <rect x="105.5" y="80" width="20.75" height="15.372" fill="#ff7f40"/>
      <rect x="1.75" y="49.256" width="20.75" height="15.372" fill="#ff7f40"/>
      <rect x="22.5" y="49.256" width="41.5" height="15.372" fill="#f25a3c"/>
      <rect x="75.75" y="17.256" width="41.5" height="15.372" fill="#ffdf40"/>
    </g>
    <g>
      <path d="M126.25,78.25H86.5V64.628a1.75,1.75,0,0,0-1.75-1.75h-19V49.256A1.75,1.75,0,0,0,64,47.506H1.75A1.75,1.75,0,0,0,0,49.256v61.488a1.75,1.75,0,0,0,1.75,1.75h124.5a1.75,1.75,0,0,0,1.75-1.75V80A1.75,1.75,0,0,0,126.25,78.25ZM124.5,93.622H107.25V81.75H124.5ZM83,78.25H45V66.378H83ZM62.25,93.622h-38V81.75h38Zm-58.75,0V81.75H20.75V93.622Zm19-27.244h19V78.25H3.5V66.378Zm39.75-3.5h-38V51.006h38ZM3.5,51.006H20.75V62.878H3.5Zm0,46.116h38v11.872H3.5Zm41.5,0H64a1.75,1.75,0,0,0,1.75-1.75V81.75h38V93.622H74.008a1.75,1.75,0,0,0,0,3.5H83v11.872H45Zm79.5,11.872h-38V97.122h38Z"/>
      <path d="M75.75,34.378h4.625a1.75,1.75,0,0,0,0-3.5H77.5V19.006h38V30.878h-10a1.75,1.75,0,0,0,0,3.5h11.75a1.75,1.75,0,0,0,1.75-1.75V17.256a1.75,1.75,0,0,0-1.75-1.75H75.75A1.75,1.75,0,0,0,74,17.256V32.628A1.75,1.75,0,0,0,75.75,34.378Z"/>
      <path d="M89.375,30.878a1.75,1.75,0,0,0,0,3.5H96.5a1.75,1.75,0,0,0,0-3.5Z"/>
    </g>
  </g>
</svg>
