<?xml version="1.0" encoding="utf-8"?>
<!-- Generator: Adobe Illustrator 16.0.0, SVG Export Plug-In . SVG Version: 6.00 Build 0)  -->
<!DOCTYPE svg PUBLIC "-//W3C//DTD SVG 1.1//EN" "http://www.w3.org/Graphics/SVG/1.1/DTD/svg11.dtd">
<svg version="1.1" id="Слой_1" xmlns="http://www.w3.org/2000/svg" xmlns:xlink="http://www.w3.org/1999/xlink" x="0px" y="0px"
	 width="512px" height="512px" viewBox="0 0 512 512" enable-background="new 0 0 512 512" xml:space="preserve">
<g id="_x31_1_lighthouse_x2C__light_x2C__water_x2C__sea_x2C__island_x2C__building_x2C__architecture_1_">
	<g>
		<g>
			<rect x="4.037" y="389.98" fill="#5D9CEC" width="503.926" height="115.982"/>
		</g>
	</g>
	<g opacity="0.4">
		<g>
			<g>
				<path fill="#FFFFFF" d="M510.791,387.152c-1.563-1.563-4.094-1.563-5.656,0l-5.17,5.172l-5.172-5.172
					c-1.563-1.563-4.094-1.563-5.656,0l-5.17,5.172l-5.172-5.172c-1.563-1.563-4.092-1.563-5.654,0l-5.172,5.172l-5.172-5.172
					c-1.561-1.563-4.092-1.563-5.654,0l-5.172,5.172l-5.17-5.172c-1.563-1.563-4.094-1.563-5.656,0l-5.172,5.172l-5.17-5.172
					c-1.563-1.563-4.094-1.563-5.656,0l-5.17,5.172l-5.172-5.172c-1.563-1.563-4.094-1.563-5.656,0l-5.17,5.172l-5.172-5.172
					c-1.563-1.563-4.092-1.563-5.654,0l-5.172,5.172l-5.172-5.172c-1.561-1.563-4.092-1.563-5.654,0l-5.172,5.172l-5.17-5.172
					c-1.563-1.563-4.094-1.563-5.656,0l-5.172,5.172l-5.17-5.172c-1.563-1.563-4.094-1.563-5.656,0l-5.17,5.172l-5.172-5.172
					c-1.563-1.563-4.094-1.563-5.656,0l-5.17,5.172l-5.172-5.172c-1.563-1.563-4.092-1.563-5.654,0l-5.172,5.172l-5.172-5.172
					c-1.561-1.563-4.092-1.563-5.654,0l-5.172,5.172l-5.17-5.172c-1.563-1.563-4.094-1.563-5.656,0l-5.172,5.172l-5.17-5.172
					c-1.563-1.563-4.094-1.563-5.656,0l-5.17,5.172l-5.18-5.172c-1.563-1.563-4.094-1.563-5.655,0l-5.171,5.172l-5.172-5.172
					c-1.504-1.5-4.158-1.5-5.654,0l-5.164,5.172l-5.171-5.172c-1.562-1.563-4.093-1.563-5.655,0l-5.172,5.172l-5.178-5.172
					c-1.563-1.563-4.094-1.563-5.656,0l-5.171,5.172l-5.171-5.172c-1.563-1.563-4.094-1.563-5.656,0l-5.17,5.172l-5.164-5.172
					c-0.75-0.75-1.766-1.172-2.828-1.172c-1.059,0-2.078,0.422-2.827,1.172l-5.179,5.172l-5.171-5.172
					c-1.563-1.563-4.093-1.563-5.655,0l-5.171,5.172l-5.164-5.172c-0.75-0.75-1.765-1.172-2.828-1.172
					c-1.059,0-2.078,0.422-2.828,1.172l-5.175,5.172l-5.167-5.172c-0.75-0.75-1.766-1.172-2.828-1.172
					c-1.062,0-2.078,0.422-2.827,1.172l-5.171,5.172l-5.171-5.172c-1.562-1.563-4.093-1.563-5.655,0l-5.175,5.172l-5.167-5.172
					c-0.75-0.75-1.765-1.172-2.828-1.172s-2.078,0.422-2.828,1.172l-5.171,5.172l-5.179-5.172c-1.563-1.563-4.093-1.563-5.655,0
					l-5.171,5.172l-5.164-5.172c-0.75-0.75-1.765-1.172-2.827-1.172s-2.078,0.422-2.828,1.172l-5.171,5.172l-5.179-5.172
					c-1.563-1.563-4.093-1.563-5.656,0l-5.171,5.172l-5.164-5.172c-0.75-0.75-1.765-1.172-2.828-1.172
					c-1.062,0-2.078,0.422-2.828,1.172l-5.171,5.172l-5.171-5.172c-1.562-1.563-4.093-1.563-5.655,0l-7.999,8
					c-1.562,1.563-1.562,4.092,0,5.654s4.093,1.563,5.656,0l5.171-5.17l5.171,5.17c1.563,1.563,4.093,1.563,5.655,0l5.171-5.17
					l5.164,5.17c0.75,0.75,1.765,1.172,2.828,1.172c1.062,0,2.078-0.422,2.828-1.172l5.171-5.17l5.179,5.17
					c1.562,1.563,4.093,1.563,5.655,0l5.171-5.17l5.163,5.17c0.75,0.75,1.766,1.172,2.828,1.172c1.063,0,2.078-0.422,2.828-1.172
					l5.171-5.17l5.179,5.17c1.562,1.563,4.093,1.563,5.655,0l5.171-5.17l5.163,5.17c0.75,0.75,1.766,1.172,2.828,1.172
					c1.059,0,2.078-0.422,2.828-1.172l5.179-5.17l5.171,5.17c1.562,1.563,4.093,1.563,5.655,0l5.171-5.17l5.164,5.17
					c0.75,0.75,1.765,1.172,2.828,1.172c1.059,0,2.078-0.422,2.828-1.172l5.175-5.17l5.167,5.17c0.75,0.75,1.766,1.172,2.828,1.172
					c1.062,0,2.077-0.422,2.827-1.172l5.171-5.17l5.171,5.17c1.562,1.563,4.093,1.563,5.655,0l5.174-5.17l5.168,5.17
					c0.75,0.75,1.766,1.172,2.828,1.172s2.077-0.422,2.827-1.172l5.171-5.17l5.172,5.17c1.563,1.563,4.092,1.563,5.654,0l5.172-5.17
					l5.179,5.17c1.562,1.563,4.093,1.563,5.655,0l5.172-5.17l5.17,5.17c1.504,1.508,4.16,1.492,5.656,0l5.163-5.17l5.171,5.17
					c1.563,1.563,4.094,1.563,5.656,0l5.17-5.17l5.18,5.17c1.563,1.563,4.094,1.563,5.654,0l5.172-5.17l5.172,5.17
					c1.563,1.563,4.092,1.563,5.654,0l5.172-5.17l5.17,5.17c1.563,1.563,4.094,1.563,5.656,0l5.172-5.17l5.17,5.17
					c1.563,1.563,4.094,1.563,5.656,0l5.17-5.17l5.172,5.17c1.563,1.563,4.094,1.563,5.656,0l5.17-5.17l5.172,5.17
					c1.563,1.563,4.094,1.563,5.654,0l5.172-5.17l5.172,5.17c1.563,1.563,4.092,1.563,5.654,0l5.172-5.17l5.17,5.17
					c1.563,1.563,4.094,1.563,5.656,0l5.172-5.17l5.17,5.17c1.563,1.563,4.094,1.563,5.656,0l5.17-5.17l5.172,5.17
					c1.563,1.563,4.094,1.563,5.656,0l5.17-5.17l5.172,5.17c1.563,1.563,4.094,1.563,5.654,0l5.172-5.17l5.172,5.17
					c1.563,1.563,4.092,1.563,5.654,0l5.172-5.17l5.17,5.17c1.563,1.563,4.094,1.563,5.656,0l5.172-5.17l5.17,5.17
					c1.563,1.563,4.094,1.563,5.656,0l5.17-5.17l5.172,5.17c1.563,1.563,4.094,1.563,5.656,0l5.17-5.17l5.172,5.17
					c0.781,0.781,1.805,1.172,2.828,1.172s2.047-0.391,2.826-1.172l8-7.998C512.354,391.246,512.354,388.715,510.791,387.152z"/>
			</g>
		</g>
		<g>
			<g>
				<path fill="#FFFFFF" d="M302.82,427.146c-1.561-1.563-4.092-1.563-5.654,0l-5.172,5.172l-5.17-5.172
					c-1.563-1.563-4.094-1.563-5.656,0l-5.172,5.172l-5.17-5.172c-1.563-1.563-4.094-1.563-5.656,0l-5.178,5.172l-5.172-5.172
					c-1.5-1.508-4.156-1.492-5.655,0l-5.163,5.172l-5.172-5.172c-1.563-1.563-4.092-1.563-5.654,0l-5.172,5.172l-5.179-5.172
					c-1.562-1.563-4.093-1.563-5.655,0l-5.172,5.172l-5.17-5.172c-1.563-1.563-4.094-1.563-5.656,0l-5.171,5.172l-5.163-5.172
					c-0.75-0.75-1.766-1.172-2.828-1.172c-1.059,0-2.078,0.422-2.828,1.172l-8.006,8c-1.563,1.563-1.563,4.092,0,5.654
					s4.094,1.563,5.655,0l5.175-5.17l5.168,5.17c0.75,0.75,1.765,1.172,2.827,1.172c1.062,0,2.077-0.422,2.827-1.172l5.172-5.17
					l5.171,5.17c1.562,1.563,4.093,1.563,5.655,0l5.172-5.17l5.178,5.17c1.563,1.563,4.094,1.563,5.656,0l5.171-5.17l5.171,5.17
					c1.504,1.5,4.16,1.5,5.656,0l5.162-5.17l5.172,5.17c1.563,1.563,4.094,1.563,5.654,0l5.18-5.17l5.172,5.17
					c1.563,1.563,4.092,1.563,5.654,0l5.172-5.17l5.17,5.17c1.563,1.563,4.094,1.563,5.656,0l5.172-5.17l5.17,5.17
					c0.781,0.781,1.805,1.172,2.828,1.172s2.047-0.391,2.828-1.172c1.563-1.563,1.563-4.092,0-5.654L302.82,427.146z"/>
			</g>
		</g>
		<g>
			<g>
				<path fill="#FFFFFF" d="M486.787,451.145c-1.563-1.563-4.094-1.563-5.656,0l-5.172,5.17l-5.17-5.17c-1.5-1.5-4.156-1.5-5.656,0
					l-5.162,5.17l-5.172-5.17c-1.563-1.563-4.094-1.563-5.656,0l-5.17,5.17l-5.18-5.17c-1.563-1.563-4.092-1.563-5.654,0
					l-5.172,5.17l-5.172-5.17c-1.561-1.563-4.092-1.563-5.654,0l-5.172,5.17l-5.162-5.17c-0.75-0.75-1.766-1.172-2.828-1.172
					s-2.078,0.422-2.828,1.172l-8.006,7.998c-1.563,1.563-1.563,4.094,0,5.656c1.563,1.561,4.092,1.561,5.654,0l5.18-5.172
					l5.162,5.172c0.75,0.75,1.766,1.17,2.828,1.17s2.078-0.42,2.828-1.17l5.172-5.172l5.17,5.172c1.563,1.561,4.094,1.561,5.656,0
					l5.17-5.172l5.18,5.172c1.563,1.561,4.094,1.561,5.656,0l5.17-5.172l5.172,5.172c1.5,1.498,4.156,1.498,5.654,0l5.164-5.172
					l5.172,5.172c0.781,0.781,1.805,1.17,2.826,1.17c1.023,0,2.047-0.389,2.828-1.17l5.172-5.172l5.178,5.172
					c1.563,1.561,4.094,1.561,5.656,0c1.563-1.563,1.563-4.094,0-5.656L486.787,451.145z"/>
			</g>
		</g>
		<g>
			<g>
				<path fill="#FFFFFF" d="M110.837,459.143c-1.562-1.563-4.089-1.563-5.651,0l-5.171,5.172l-5.171-5.172
					c-0.75-0.75-1.765-1.172-2.828-1.172s-2.082,0.422-2.832,1.172l-5.156,5.172l-5.167-5.172c-1.563-1.563-4.093-1.563-5.655,0
					l-5.175,5.172l-5.187-5.172c-1.562-1.563-4.089-1.563-5.651,0l-5.171,5.172l-5.171-5.172c-1.563-1.563-4.093-1.563-5.656,0
					l-5.167,5.172l-5.156-5.172c-0.75-0.75-1.765-1.172-2.828-1.172h-0.004c-1.058,0-2.074,0.422-2.824,1.172l-8.015,7.998
					c-1.566,1.555-1.566,4.094-0.008,5.656c1.563,1.563,4.093,1.563,5.655,0l5.187-5.172l5.156,5.172
					c0.75,0.75,1.769,1.172,2.832,1.172c1.062,0,2.078-0.422,2.828-1.172l5.171-5.172l5.171,5.172c1.562,1.563,4.093,1.563,5.655,0
					l5.175-5.172l5.187,5.172c1.563,1.563,4.089,1.563,5.651,0l5.171-5.172l5.171,5.172c0.75,0.75,1.765,1.172,2.827,1.172
					s2.082-0.422,2.832-1.172l5.155-5.172l5.167,5.172c0.781,0.781,1.805,1.172,2.828,1.172s2.046-0.391,2.828-1.172l5.175-5.172
					l5.187,5.172c1.562,1.563,4.093,1.563,5.655,0c1.559-1.563,1.559-4.102-0.008-5.656L110.837,459.143z"/>
			</g>
		</g>
	</g>
	<g>
		<g>
			<rect x="156.015" y="66.028" fill="#FFCE54" width="31.995" height="31.995"/>
		</g>
	</g>
	<g>
		<g>
			<rect x="331.988" y="66.028" fill="#FFCE54" width="31.996" height="31.995"/>
		</g>
	</g>
	<g>
		<g>
			<polygon fill="#E6E9ED" points="319.318,281.105 202.176,275.826 209.655,210.007 310.344,210.007 			"/>
		</g>
	</g>
	<g>
		<g>
			<polygon fill="#FFFFFF" points="218.174,275.826 225.652,210.007 209.655,210.007 202.176,275.826 			"/>
		</g>
	</g>
	<g>
		<g>
			<polygon fill="#965353" points="331.988,389.98 84.025,389.98 64.024,389.98 156.015,297.994 172.012,305.992 204.008,273.998 
				228.004,273.998 267.998,242.002 267.998,265.998 315.99,321.99 331.988,369.984 			"/>
		</g>
	</g>
	<g opacity="0.2">
		<g>
			<g>
				<polygon fill="#FFFFFF" points="267.998,254.797 267.998,242.002 228.004,273.998 244.002,273.998 				"/>
			</g>
		</g>
		<g>
			<g>
				<polygon fill="#FFFFFF" points="156.015,297.994 64.024,389.98 80.022,389.98 166.681,303.33 				"/>
			</g>
		</g>
		<g>
			<g>
				<polygon fill="#FFFFFF" points="188.01,305.992 220.006,273.998 204.008,273.998 177.344,300.658 				"/>
			</g>
		</g>
	</g>
	<g>
		<g>
			<polygon fill="#E6E9ED" points="305.641,170.013 214.447,170.013 220.006,122.02 299.994,122.02 			"/>
		</g>
	</g>
	<g>
		<g>
			<polygon fill="#FFFFFF" points="220.006,122.02 214.447,170.013 230.445,170.013 236.003,122.02 			"/>
		</g>
	</g>
	<g>
		<g>
			<rect x="220.049" y="58.029" fill="#FFCE54" width="79.945" height="63.991"/>
		</g>
	</g>
	<g>
		<g>
			<path fill="#656D78" d="M260.043,18.035c-22.084,0-39.994,17.904-39.994,39.994h79.992
				C300.041,35.939,282.137,18.035,260.043,18.035z"/>
		</g>
	</g>
	<g opacity="0.2">
		<g>
			<path fill="#FFFFFF" d="M268.045,18.84c-2.594-0.523-5.262-0.805-8.002-0.805c-22.084,0-39.994,17.904-39.994,39.994h15.997
				C236.046,38.681,249.79,22.546,268.045,18.84z"/>
		</g>
	</g>
	<g opacity="0.2">
		<g>
			<path d="M251.957,18.84c2.586-0.523,5.258-0.805,8-0.805c22.086,0,39.99,17.904,39.99,39.994h-15.998
				C283.949,38.681,270.209,22.546,251.957,18.84z"/>
		</g>
	</g>
	<g>
		<g>
			<polygon fill="#ED5564" points="310.344,210.007 209.655,210.007 214.447,170.013 305.641,170.013 			"/>
		</g>
	</g>
	<g opacity="0.3">
		<g>
			<polygon fill="#FFFFFF" points="214.447,170.013 209.655,210.007 225.652,210.007 230.445,170.013 			"/>
		</g>
	</g>
	<g opacity="0.2">
		<g>
			<polygon points="302.57,275.826 295.088,210.007 311.086,210.007 318.568,275.826 			"/>
		</g>
	</g>
	<g opacity="0.2">
		<g>
			<polygon points="300.744,122.02 306.297,170.013 290.299,170.013 284.746,122.02 			"/>
		</g>
	</g>
	<g opacity="0.2">
		<g>
			<polygon points="306.297,170.013 311.086,210.007 295.088,210.007 290.299,170.013 			"/>
		</g>
	</g>
	<g>
		<g>
			<polygon fill="#7F4545" points="462.641,389.98 267.998,242.002 267.998,265.998 315.99,321.99 331.988,369.984 331.988,389.98 
							"/>
		</g>
	</g>
	<g opacity="0.2">
		<g>
			<polygon points="267.998,242.002 267.998,254.165 446.645,389.98 462.641,389.98 			"/>
		</g>
	</g>
	<g opacity="0.5">
		<g>
			<rect x="220.049" y="58.029" fill="#FFFFFF" width="15.954" height="63.991"/>
		</g>
	</g>
	<g opacity="0.2">
		<g>
			<rect x="283.996" y="58.029" width="15.951" height="63.991"/>
		</g>
	</g>
	<g id="_x31_1_lighthouse_x2C__light_x2C__water_x2C__sea_x2C__island_x2C__building_x2C__architecture">
		<g>
			<g>
				<path fill="#3A3847" d="M435.973,373.982c-0.842,0-1.701-0.266-2.42-0.82L268.061,247.08l-37.557,30.043
					c-0.711,0.563-1.59,0.875-2.5,0.875h-22.34L174.84,308.82c-1.223,1.211-3.086,1.5-4.617,0.75l-13.419-6.709l-69.95,69.949
					c-1.563,1.563-4.093,1.563-5.655,0c-1.563-1.561-1.563-4.092,0-5.654l71.989-71.99c1.223-1.219,3.074-1.516,4.616-0.75
					l13.419,6.711l29.957-29.957c0.75-0.75,1.766-1.172,2.828-1.172h22.594l38.896-31.12c1.438-1.137,3.461-1.164,4.922-0.059
					l167.975,127.985c1.758,1.336,2.094,3.844,0.766,5.6C438.363,373.443,437.176,373.982,435.973,373.982z"/>
			</g>
		</g>
		<g>
			<g>
				<path fill="#3A3847" d="M499.965,397.98c-1.023,0-2.047-0.391-2.828-1.172l-5.172-5.172l-5.17,5.172
					c-1.563,1.563-4.094,1.563-5.656,0l-5.172-5.172l-5.17,5.172c-1.563,1.563-4.094,1.563-5.656,0l-5.17-5.172l-5.172,5.172
					c-1.563,1.563-4.094,1.563-5.656,0l-5.17-5.172l-5.172,5.172c-1.563,1.563-4.092,1.563-5.654,0l-5.172-5.172l-5.172,5.172
					c-1.561,1.563-4.092,1.563-5.654,0l-5.172-5.172l-5.17,5.172c-1.563,1.563-4.094,1.563-5.656,0l-5.172-5.172l-5.17,5.172
					c-1.563,1.563-4.094,1.563-5.656,0l-5.17-5.172l-5.172,5.172c-1.563,1.563-4.094,1.563-5.656,0l-5.17-5.172l-5.172,5.172
					c-1.563,1.563-4.092,1.563-5.654,0l-5.172-5.172l-5.172,5.172c-1.561,1.563-4.092,1.563-5.654,0l-5.172-5.172l-5.17,5.172
					c-1.563,1.563-4.094,1.563-5.656,0l-5.172-5.172l-5.17,5.172c-1.563,1.563-4.094,1.563-5.656,0l-5.17-5.172l-5.172,5.172
					c-1.563,1.563-4.094,1.563-5.656,0l-5.17-5.172l-5.172,5.172c-1.563,1.563-4.092,1.563-5.654,0l-5.172-5.172l-5.172,5.172
					c-1.561,1.563-4.092,1.563-5.654,0l-5.18-5.172l-5.17,5.172c-1.563,1.563-4.094,1.563-5.656,0l-5.171-5.172l-5.163,5.172
					c-1.496,1.5-4.152,1.5-5.656,0l-5.17-5.172l-5.172,5.172c-1.563,1.563-4.094,1.563-5.655,0L204,391.637l-5.172,5.172
					c-1.563,1.563-4.092,1.563-5.654,0l-5.172-5.172l-5.171,5.172c-0.75,0.75-1.765,1.172-2.827,1.172l0,0
					c-1.063,0-2.078-0.422-2.828-1.172l-5.168-5.172l-5.174,5.172c-1.563,1.563-4.093,1.563-5.655,0l-5.171-5.172l-5.171,5.172
					c-0.75,0.75-1.765,1.172-2.827,1.172l0,0c-1.063,0-2.078-0.422-2.828-1.172l-5.167-5.172l-5.175,5.172
					c-0.75,0.75-1.769,1.172-2.828,1.172l0,0c-1.063,0-2.078-0.422-2.828-1.172l-5.164-5.172l-5.171,5.172
					c-1.563,1.563-4.093,1.563-5.655,0l-5.171-5.172l-5.179,5.172c-0.75,0.75-1.769,1.172-2.828,1.172l0,0
					c-1.063,0-2.078-0.422-2.828-1.172l-5.163-5.172l-5.171,5.172c-1.563,1.563-4.093,1.563-5.655,0l-5.179-5.172l-5.171,5.172
					c-0.75,0.75-1.765,1.172-2.828,1.172l0,0c-1.062,0-2.078-0.422-2.828-1.172l-5.163-5.172l-5.171,5.172
					c-1.562,1.563-4.093,1.563-5.655,0l-5.179-5.172l-5.171,5.172c-0.75,0.75-1.766,1.172-2.828,1.172l0,0
					c-1.063,0-2.078-0.422-2.828-1.172l-5.164-5.172l-5.171,5.172c-1.562,1.563-4.093,1.563-5.655,0l-5.171-5.172l-5.171,5.172
					c-1.563,1.563-4.094,1.563-5.656,0s-1.562-4.094,0-5.656l7.999-7.998c1.562-1.563,4.093-1.563,5.655,0l5.171,5.17l5.171-5.17
					c0.75-0.75,1.766-1.172,2.828-1.172l0,0c1.063,0,2.078,0.422,2.828,1.172l5.164,5.17l5.171-5.17
					c1.563-1.563,4.093-1.563,5.656,0l5.179,5.17l5.171-5.17c0.75-0.75,1.766-1.172,2.828-1.172l0,0
					c1.063,0,2.078,0.422,2.827,1.172l5.164,5.17l5.171-5.17c1.562-1.563,4.093-1.563,5.655,0l5.179,5.17l5.171-5.17
					c0.75-0.75,1.765-1.172,2.828-1.172l0,0c1.063,0,2.078,0.422,2.828,1.172l5.167,5.17l5.175-5.17
					c1.563-1.563,4.093-1.563,5.655,0l5.171,5.17l5.171-5.17c0.75-0.75,1.765-1.172,2.827-1.172l0,0
					c1.063,0,2.078,0.422,2.828,1.172l5.167,5.17l5.175-5.17c0.75-0.75,1.77-1.172,2.828-1.172l0,0c1.063,0,2.078,0.422,2.828,1.172
					l5.164,5.17l5.171-5.17c1.563-1.563,4.093-1.563,5.655,0l5.171,5.17l5.179-5.17c0.749-0.75,1.769-1.172,2.827-1.172l0,0
					c1.063,0,2.078,0.422,2.828,1.172l5.164,5.17l5.17-5.17c1.563-1.563,4.094-1.563,5.656,0l5.171,5.17l5.171-5.17
					c1.563-1.563,4.094-1.563,5.656,0l5.178,5.17l5.172-5.17c1.563-1.563,4.094-1.563,5.655,0l5.171,5.17l5.164-5.17
					c1.496-1.5,4.15-1.5,5.654,0l5.172,5.17l5.171-5.17c1.562-1.563,4.093-1.563,5.655,0l5.18,5.17l5.17-5.17
					c1.563-1.563,4.094-1.563,5.656,0l5.17,5.17l5.172-5.17c1.563-1.563,4.094-1.563,5.656,0l5.17,5.17l5.172-5.17
					c1.563-1.563,4.094-1.563,5.654,0l5.172,5.17l5.172-5.17c1.563-1.563,4.092-1.563,5.654,0l5.172,5.17l5.17-5.17
					c1.563-1.563,4.094-1.563,5.656,0l5.172,5.17l5.17-5.17c1.563-1.563,4.094-1.563,5.656,0l5.17,5.17l5.172-5.17
					c1.563-1.563,4.094-1.563,5.656,0l5.17,5.17l5.172-5.17c1.563-1.563,4.094-1.563,5.654,0l5.172,5.17l5.172-5.17
					c1.563-1.563,4.092-1.563,5.654,0l5.172,5.17l5.17-5.17c1.563-1.563,4.094-1.563,5.656,0l5.172,5.17l5.17-5.17
					c1.563-1.563,4.094-1.563,5.656,0l5.17,5.17l5.172-5.17c1.563-1.563,4.094-1.563,5.656,0l5.17,5.17l5.172-5.17
					c1.563-1.563,4.094-1.563,5.654,0l5.172,5.17l5.172-5.17c1.563-1.563,4.092-1.563,5.654,0l5.172,5.17l5.17-5.17
					c1.563-1.563,4.094-1.563,5.656,0l5.172,5.17l5.17-5.17c1.563-1.563,4.094-1.563,5.656,0s1.563,4.092,0,5.654l-8,8
					C502.012,397.59,500.988,397.98,499.965,397.98z"/>
			</g>
		</g>
		<g>
			<g>
				<path fill="#3A3847" d="M307.992,437.975c-1.023,0-2.047-0.391-2.828-1.172l-5.17-5.172l-5.172,5.172
					c-1.563,1.563-4.094,1.563-5.656,0l-5.17-5.172l-5.172,5.172c-1.563,1.563-4.092,1.563-5.654,0l-5.172-5.172l-5.18,5.172
					c-1.561,1.563-4.092,1.563-5.654,0l-5.172-5.172l-5.162,5.172c-1.5,1.5-4.156,1.5-5.656,0l-5.171-5.172l-5.171,5.172
					c-1.563,1.563-4.094,1.563-5.656,0l-5.178-5.172l-5.172,5.172c-1.563,1.563-4.094,1.563-5.655,0L204,431.631l-5.172,5.172
					c-0.75,0.75-1.766,1.172-2.827,1.172l0,0c-1.063,0-2.077-0.422-2.827-1.172l-5.168-5.172l-5.175,5.172
					c-1.562,1.563-4.093,1.563-5.655,0s-1.563-4.094,0-5.656l8.006-7.998c0.75-0.75,1.77-1.172,2.828-1.172l0,0
					c1.063,0,2.078,0.422,2.828,1.172l5.163,5.17l5.171-5.17c1.563-1.563,4.094-1.563,5.656,0l5.17,5.17l5.172-5.17
					c1.563-1.563,4.094-1.563,5.655,0l5.179,5.17l5.172-5.17c1.563-1.563,4.092-1.563,5.654,0l5.172,5.17l5.163-5.17
					c1.495-1.492,4.151-1.508,5.655,0l5.172,5.17l5.178-5.17c1.563-1.563,4.094-1.563,5.656,0l5.17,5.17l5.172-5.17
					c1.563-1.563,4.094-1.563,5.656,0l5.17,5.17l5.172-5.17c1.563-1.563,4.094-1.563,5.654,0l8,7.998
					c1.563,1.563,1.563,4.094,0,5.656C310.039,437.584,309.016,437.975,307.992,437.975z"/>
			</g>
		</g>
		<g>
			<g>
				<path fill="#3A3847" d="M475.959,461.971c-1.021,0-2.045-0.391-2.826-1.172l-5.172-5.172l-5.164,5.172
					c-1.498,1.5-4.154,1.5-5.654,0l-5.172-5.172l-5.17,5.172c-1.563,1.563-4.094,1.563-5.656,0l-5.18-5.172l-5.17,5.172
					c-1.563,1.563-4.094,1.563-5.656,0l-5.17-5.172l-5.172,5.172c-0.75,0.75-1.766,1.172-2.828,1.172l0,0
					c-1.063,0-2.078-0.422-2.828-1.172l-5.162-5.172l-5.18,5.172c-1.563,1.563-4.092,1.563-5.654,0s-1.563-4.094,0-5.656
					l8.006-7.998c0.75-0.75,1.766-1.172,2.828-1.172l0,0c1.063,0,2.078,0.422,2.828,1.172l5.162,5.17l5.172-5.17
					c1.563-1.563,4.094-1.563,5.654,0l5.172,5.17l5.172-5.17c1.563-1.563,4.092-1.563,5.654,0l5.18,5.17l5.17-5.17
					c1.563-1.563,4.094-1.563,5.656,0l5.172,5.17l5.162-5.17c1.492-1.5,4.148-1.5,5.656,0l5.17,5.17l5.172-5.17
					c1.563-1.563,4.094-1.563,5.656,0l8.006,7.998c1.563,1.563,1.563,4.094,0,5.656s-4.094,1.563-5.656,0l-5.178-5.172l-5.172,5.172
					C478.006,461.58,476.982,461.971,475.959,461.971z"/>
			</g>
		</g>
		<g>
			<g>
				<path fill="#3A3847" d="M100.015,469.969c-1.023,0-2.047-0.391-2.828-1.172l-5.167-5.17l-5.155,5.17
					c-0.75,0.75-1.77,1.172-2.832,1.172l0,0c-1.063,0-2.078-0.422-2.827-1.172l-5.171-5.17l-5.171,5.17
					c-1.562,1.563-4.089,1.563-5.651,0l-5.187-5.17l-5.175,5.17c-1.562,1.563-4.093,1.563-5.655,0l-5.171-5.17l-5.171,5.17
					c-0.75,0.75-1.766,1.172-2.828,1.172l0,0c-1.063,0-2.082-0.422-2.832-1.172l-5.156-5.17l-5.187,5.17
					c-1.562,1.563-4.093,1.563-5.655,0c-1.558-1.563-1.558-4.1,0.008-5.654l8.015-8c0.75-0.75,1.766-1.172,2.824-1.172h0.004
					c1.063,0,2.078,0.422,2.828,1.172l5.156,5.172l5.167-5.172c1.563-1.563,4.093-1.563,5.656,0l5.171,5.172l5.171-5.172
					c1.563-1.563,4.089-1.563,5.651,0l5.187,5.172l5.175-5.172c1.562-1.563,4.093-1.563,5.655,0l5.167,5.172l5.156-5.172
					c0.75-0.75,1.769-1.172,2.832-1.172l0,0c1.063,0,2.078,0.422,2.828,1.172l5.171,5.172l5.171-5.172
					c1.563-1.563,4.089-1.563,5.651,0l8.015,8c1.566,1.555,1.566,4.092,0.008,5.654c-1.563,1.563-4.093,1.563-5.655,0l-5.187-5.17
					l-5.175,5.17C102.062,469.578,101.039,469.969,100.015,469.969z"/>
			</g>
		</g>
		<g>
			<g>
				<path fill="#3A3847" d="M299.994,62.029c-2.211,0-4-1.789-4-4c0-19.849-16.146-35.995-35.994-35.995
					c-19.85,0-35.996,16.146-35.996,35.995c0,2.21-1.788,4-3.998,4c-2.211,0-4-1.789-4-4c0-24.258,19.735-43.994,43.994-43.994
					c24.262,0,43.992,19.735,43.992,43.994C303.992,60.24,302.203,62.029,299.994,62.029z"/>
			</g>
		</g>
		<g>
			<g>
				<path fill="#3A3847" d="M220.006,126.02c-2.211,0-4-1.789-4-4V58.029c0-2.21,1.789-4,4-4c2.21,0,3.998,1.789,3.998,4v63.991
					C224.004,124.231,222.216,126.02,220.006,126.02z"/>
			</g>
		</g>
		<g>
			<g>
				<path fill="#3A3847" d="M299.994,126.02c-2.211,0-4-1.789-4-4V58.029c0-2.21,1.789-4,4-4c2.209,0,3.998,1.789,3.998,4v63.991
					C303.992,124.231,302.203,126.02,299.994,126.02z"/>
			</g>
		</g>
		<g>
			<g>
				<path fill="#3A3847" d="M204.012,262c-0.156,0-0.313-0.008-0.473-0.031c-2.191-0.258-3.762-2.242-3.504-4.438l15.998-135.98
					c0.258-2.195,2.254-3.772,4.441-3.503c2.19,0.258,3.76,2.246,3.502,4.441l-15.996,135.98C207.742,260.5,206.012,262,204.012,262
					z"/>
			</g>
		</g>
		<g>
			<g>
				<path fill="#3A3847" d="M315.99,262c-1.998,0-3.732-1.5-3.967-3.531l-15.998-135.98c-0.266-2.195,1.313-4.183,3.5-4.441
					c2.188-0.285,4.186,1.309,4.436,3.503l15.998,135.98c0.266,2.195-1.313,4.18-3.5,4.438C316.303,261.992,316.146,262,315.99,262z
					"/>
			</g>
		</g>
		<g>
			<g>
				<path fill="#3A3847" d="M307.992,62.029h-95.986c-2.21,0-3.998-1.789-3.998-4s1.788-4,3.998-4h95.986c2.211,0,4,1.789,4,4
					S310.203,62.029,307.992,62.029z"/>
			</g>
		</g>
		<g>
			<g>
				<path fill="#3A3847" d="M260,22.035c-2.211,0-4-1.789-4-4v-7.999c0-2.211,1.789-4,4-4c2.209,0,3.998,1.789,3.998,4v7.999
					C263.998,20.246,262.209,22.035,260,22.035z"/>
			</g>
		</g>
		<g>
			<g>
				<path fill="#3A3847" d="M307.992,126.02h-95.986c-2.21,0-3.998-1.789-3.998-4s1.788-4,3.998-4h95.986c2.211,0,4,1.789,4,4
					S310.203,126.02,307.992,126.02z"/>
			</g>
		</g>
		<g>
			<g>
				<path fill="#3A3847" d="M307.992,110.022h-95.986c-2.21,0-3.998-1.789-3.998-4s1.788-4,3.998-4h95.986c2.211,0,4,1.789,4,4
					S310.203,110.022,307.992,110.022z"/>
			</g>
		</g>
		<g>
			<g>
				<path fill="#3A3847" d="M260,126.02c-2.211,0-4-1.789-4-4v-15.998c0-2.21,1.789-4,4-4c2.209,0,3.998,1.789,3.998,4v15.998
					C263.998,124.231,262.209,126.02,260,126.02z"/>
			</g>
		</g>
		<g>
			<g>
				<path fill="#3A3847" d="M236.003,126.02c-2.21,0-3.999-1.789-3.999-4v-15.998c0-2.21,1.789-4,3.999-4s3.999,1.789,3.999,4
					v15.998C240.002,124.231,238.213,126.02,236.003,126.02z"/>
			</g>
		</g>
		<g>
			<g>
				<path fill="#3A3847" d="M283.996,126.02c-2.211,0-4-1.789-4-4v-15.998c0-2.21,1.789-4,4-4s4,1.789,4,4v15.998
					C287.996,124.231,286.207,126.02,283.996,126.02z"/>
			</g>
		</g>
		<g>
			<g>
				<path fill="#3A3847" d="M305.641,174.012h-91.193c-2.211,0-4-1.789-4-3.999c0-2.211,1.789-4,4-4h91.193c2.211,0,4,1.789,4,4
					C309.641,172.224,307.852,174.012,305.641,174.012z"/>
			</g>
		</g>
		<g>
			<g>
				<path fill="#3A3847" d="M310.344,214.006H209.655c-2.21,0-3.999-1.789-3.999-3.999c0-2.211,1.789-4,3.999-4h100.688
					c2.211,0,4,1.789,4,4C314.344,212.218,312.555,214.006,310.344,214.006z"/>
			</g>
		</g>
		<g>
			<g>
				<path fill="#3A3847" d="M363.984,70.028h-31.996c-2.211,0-3.998-1.789-3.998-4s1.787-4,3.998-4h31.996c2.211,0,4,1.789,4,4
					S366.195,70.028,363.984,70.028z"/>
			</g>
		</g>
		<g>
			<g>
				<path fill="#3A3847" d="M403.979,86.025h-55.992c-2.211,0-4-1.789-4-4s1.789-4,4-4h55.992c2.211,0,4,1.789,4,4
					S406.189,86.025,403.979,86.025z"/>
			</g>
		</g>
		<g>
			<g>
				<path fill="#3A3847" d="M363.984,102.023h-31.996c-2.211,0-3.998-1.789-3.998-4s1.787-4,3.998-4h31.996c2.211,0,4,1.789,4,4
					S366.195,102.023,363.984,102.023z"/>
			</g>
		</g>
		<g>
			<g>
				<path fill="#3A3847" d="M188.01,70.028h-31.995c-2.21,0-4-1.789-4-4s1.789-4,4-4h31.995c2.211,0,4,1.789,4,4
					S190.221,70.028,188.01,70.028z"/>
			</g>
		</g>
		<g>
			<g>
				<path fill="#3A3847" d="M172.012,86.025h-55.991c-2.21,0-4-1.789-4-4s1.789-4,4-4h55.991c2.211,0,4,1.789,4,4
					S174.223,86.025,172.012,86.025z"/>
			</g>
		</g>
		<g>
			<g>
				<path fill="#3A3847" d="M188.01,102.023h-31.995c-2.21,0-4-1.789-4-4s1.789-4,4-4h31.995c2.211,0,4,1.789,4,4
					S190.221,102.023,188.01,102.023z"/>
			</g>
		</g>
		<g>
			<g>
				<path fill="#3A3847" d="M249.501,214.006c-1.023,0-2.046-0.391-2.827-1.171l-35.422-35.417c-1.562-1.563-1.562-4.094,0-5.656
					c1.563-1.562,4.094-1.562,5.656,0l35.42,35.417c1.563,1.563,1.563,4.094,0,5.656
					C251.547,213.616,250.523,214.006,249.501,214.006z"/>
			</g>
		</g>
		<g>
			<g>
				<path fill="#3A3847" d="M283.996,214.006c-1.023,0-2.047-0.391-2.828-1.171l-39.994-39.994c-1.563-1.562-1.563-4.093,0-5.656
					c1.563-1.562,4.094-1.562,5.656,0l39.994,39.994c1.563,1.563,1.563,4.094,0,5.656
					C286.043,213.616,285.02,214.006,283.996,214.006z"/>
			</g>
		</g>
		<g>
			<g>
				<path fill="#3A3847" d="M309.492,205.008c-1.031,0-2.047-0.39-2.828-1.171l-30.996-30.996c-1.561-1.562-1.561-4.093,0-5.656
					c1.563-1.562,4.094-1.562,5.656,0l30.996,30.996c1.563,1.562,1.563,4.093,0,5.655
					C311.539,204.618,310.508,205.008,309.492,205.008z"/>
			</g>
		</g>
		<g>
			<g>
				<path fill="#3A3847" d="M331.988,373.982c-1.672,0-3.234-1.063-3.795-2.732l-15.748-47.252L264.967,268.6
					c-1.445-1.672-1.25-4.201,0.43-5.639c1.68-1.414,4.203-1.234,5.633,0.438l47.992,55.99c0.344,0.391,0.602,0.844,0.766,1.336
					l15.998,47.994c0.695,2.094-0.438,4.357-2.531,5.061C332.832,373.92,332.41,373.982,331.988,373.982z"/>
			</g>
		</g>
	</g>
</g>
</svg>
