<svg id="Layer_1" data-name="Layer 1" xmlns="http://www.w3.org/2000/svg" viewBox="0 0 512 512"><defs><style>.cls-1{fill:#d61e1e;}.cls-2{fill:#f4eded;}.cls-3{fill:#5b5147;}</style></defs><title>no fishing</title><path class="cls-1" d="M256,7.92C119,7.92,7.92,119,7.92,256S119,504.08,256,504.08,504.08,393,504.08,256,393,7.92,256,7.92Z"/><path class="cls-2" d="M256,46.92C140.53,46.92,46.92,140.52,46.92,256S140.53,465.08,256,465.08,465.08,371.47,465.08,256,371.47,46.92,256,46.92Z"/><path class="cls-3" d="M313.19,120H302.27a.94.94,0,0,0-.94.94V355.78a58.72,58.72,0,0,1-117.43,0V302.42c5.63,7.29,17,22,17.89,22.76,1.08,1,3.79,1.06,4.59,1.06h0a.94.94,0,0,0,.82-1.39C177.9,271.61,177,244.1,177,243.83a.94.94,0,0,0-1.57-.67c-.48.44-2.9,2.72-3.27,4.47C170,258,171,275.21,171.09,276.2v79.35a71.52,71.52,0,0,0,143,0V121A.94.94,0,0,0,313.19,120Z"/><circle class="cls-3" cx="307.42" cy="118.71" r="33.78"/><circle class="cls-2" cx="307.42" cy="118.71" r="21.11"/><path class="cls-1" d="M93.77,68.31A249.56,249.56,0,0,0,68.31,93.77L418.23,443.68a249.62,249.62,0,0,0,25.46-25.46Z"/></svg>