<svg id="Layer_1" data-name="Layer 1" xmlns="http://www.w3.org/2000/svg" viewBox="0 0 512 512"><defs><style>.cls-1{fill:#d61e1e;}.cls-2{fill:#f4eded;}.cls-3{fill:#5b5147;}</style></defs><title>no swimming</title><path class="cls-1" d="M256,7.92C119,7.92,7.92,119,7.92,256S119,504.08,256,504.08,504.08,393,504.08,256,393,7.92,256,7.92Z"/><path class="cls-2" d="M256,46.92C140.53,46.92,46.92,140.52,46.92,256S140.53,465.08,256,465.08,465.08,371.47,465.08,256,371.47,46.92,256,46.92Z"/><path class="cls-3" d="M159,293.06c14.71,1.51,23-4.42,32.07-6.75a46.92,46.92,0,0,1,25.32,0c6.2,1.6,12.87,5.94,20.82,6.75,15.72,1.61,29.31-8.28,43.89-8.44,18.6-.21,33.69,14.33,52.89,6.75L273.24,178.84s73.1-13.14,78.21-14.63c23.11-6.75,10.74-43.81-14.06-38.82S253,140.58,253,140.58c-29.24,4.79-42.46,17.16-32.75,36.78l26,49.87L138.77,286.87C146,288.33,151.63,292.3,159,293.06Zm210.43,18c-18.54-3.79-30.71,8-49,7.88-10.18-.08-19.69-6-30.38-7.88-20.36-3.63-31,8.21-48.39,7.88-11.33-.21-21.54-7.3-32.64-8.44-18.58-1.9-29.65,8.32-43.89,8.44-11.18.09-21.7-7.15-34.32-8.44-18.88-1.93-28,8.67-43.89,8.44v28.13c15.83-1.67,29-10.3,45.57-8.44,11.54,1.29,21.56,8.44,32.07,8.44s20.77-7.22,32.63-8.44c20.39-2.09,29.08,8.44,45.58,8.44,11.1,0,20.77-7.22,32.63-8.44,19.64-2,30,8.56,45.58,8.44,10.57-.08,18.66-5.94,28.69-7.88,20.49-3.94,33.24,7.2,49,7.88V318.94C385.83,319.32,378.75,313,369.45,311.06Z"/><circle class="cls-3" cx="362.73" cy="242.43" r="38.26"/><path class="cls-1" d="M93.77,68.31A249.57,249.57,0,0,0,68.31,93.77L418.23,443.68a249.62,249.62,0,0,0,25.46-25.46Z"/></svg>