<svg id="Layer_1" data-name="Layer 1" xmlns="http://www.w3.org/2000/svg" viewBox="0 0 512 512"><defs><style>.cls-1{fill:#d61e1e;}.cls-2{fill:#f4eded;}.cls-3{fill:#5b5147;}</style></defs><title>no cycling</title><path class="cls-1" d="M256,7.92C119,7.92,7.92,119,7.92,256S119,504.08,256,504.08,504.08,393,504.08,256,393,7.92,256,7.92Z"/><path class="cls-2" d="M256,46.92C140.53,46.92,46.92,140.52,46.92,256S140.53,465.08,256,465.08,465.08,371.47,465.08,256,371.47,46.92,256,46.92Z"/><path class="cls-3" d="M360.8,235.8a68.11,68.11,0,0,0-12.73,1.2,5.69,5.69,0,0,0-1.72.65l-20.14-77.06,10.21-10L362.63,164c.35.48.81,1.18,1.12,1.7l5.19,12.6a5.69,5.69,0,1,0,10.52-4.34L374,160.79l-.08-.16c-2-3.56-3.84-6.11-6.45-6.95-56.6-29-56.6-29-58.39-29h-.3l-18.13,1.08a5.69,5.69,0,0,0,.28,11.37h.39l16.67-1c2.42,1.19,8.5,4.27,17.71,9l-7.92,7.76-.08.07-1.78,1.63c-1.85,1.72-3,4.92-.75,8.81l3.45,13.2H215.8v-7.51c12.55-2.07,24.36-7.11,23.49-15.8-.83-8.14-15-12.67-19.21-13.84A38.39,38.39,0,0,0,212,137.8a36.63,36.63,0,0,0-4.39-.2,74,74,0,0,0-8.51.42c-16,2.12-26.56,9.87-25.64,18.86,1,10,14,13.5,24.84,13.5,1.47,0,3-.06,4.39-.18l1.71-.1V200L195.84,216H120.52c-5,0-9,4.5-9,10.25a3.51,3.51,0,0,0,0,.47,5.64,5.64,0,0,0,.71,2.31c1,2.59,3.37,7.92,9,19.78a67.59,67.59,0,0,0,39.56,122.37c26.55,0,50.86-16.08,61.76-40.4h1.27a124.86,124.86,0,0,0,21.52-1.7l1.5,2.82h-1a5.69,5.69,0,1,0,0,11.38h21a5.69,5.69,0,1,0,0-11.38h-7.08l-3.26-6.11a5.76,5.76,0,0,0,1.74-.46c9.7-4.36,15.23-11.66,15.61-20.59l57.48-79.67,4.11,15.71a67.69,67.69,0,1,0,25.4-5Zm-158.65-77c-1.29.11-2.56.16-3.79.16h0c-8.33,0-12.61-2.35-13.47-3.28.75-1.26,5.57-5.08,16-6.45.68-.1,4.06-.29,6.89-.29a24.13,24.13,0,0,1,2.93.12,28.64,28.64,0,0,1,6.07,1.25,39.76,39.76,0,0,1,9.46,3.87c-2.83,1.46-8.15,3.25-15.46,4.11Zm6.15,58,15.87,59.9-.36,0h-1a68.54,68.54,0,0,0-29.39-32.24ZM188,254.49a57.32,57.32,0,0,1,22.38,22.69,212.68,212.68,0,0,0-37.82,6ZM156.66,288.7l-2.88,1.53c-5.49-11.32-12.14-25.11-17.89-37.14a56.68,56.68,0,0,1,41.22-3.3c.15,0,.3.06.45.09Zm33-61.35-7,13a5.66,5.66,0,0,0-2.41-1.46,68.09,68.09,0,0,0-49.3,3.94c-3.22-6.78-5.8-12.3-7.21-15.46ZM160.78,359.77a56.21,56.21,0,0,1-34.57-100.51c4.49,9.39,10.35,21.55,18,37.33a17.64,17.64,0,0,0-1.41,7.15c0,17.15,41.06,24.47,67.32,26.44A56.69,56.69,0,0,1,160.78,359.77Zm92.76-44.83a5.71,5.71,0,0,0-1.68,1.15,5.41,5.41,0,0,0-.55,0l-9-17a5.69,5.69,0,0,0-10,5.36l7.43,13.94a123.28,123.28,0,0,1-15.85.94c-1.33,0-2.67,0-4,0a5.69,5.69,0,0,0-1-.09,5.56,5.56,0,0,0-.62,0,199.1,199.1,0,0,1-43.32-6c-15.63-4.12-20.69-8.21-20.69-9.54,0-.27,0-.56,0-.85l8.88-4.75c13-5.41,34.84-9.33,54.88-10a5.08,5.08,0,0,0,2.32-.06c1.08,0,2.15,0,3.21,0l15.05.84c8.91,1.08,16,3.43,19.57,6.43,1.63,1.39,3.42,5.38,4.3,8.51C262.41,308.58,259.41,312.3,253.54,314.95Zm15.87-23.55a19.45,19.45,0,0,0-3.87-4.71c-5.26-4.48-14.44-7.7-25.94-9.09l-3.48-.19L215.8,200.73V188H321.61l6,22.78ZM360.8,360A56.36,56.36,0,0,1,338.31,251.9l13.49,51.6a5.69,5.69,0,0,0,5.49,4.25,5.75,5.75,0,0,0,1.45-.19,5.69,5.69,0,0,0,4.07-6.94l-13.68-52.37a5.78,5.78,0,0,0,1.08-.09A56.39,56.39,0,1,1,360.8,360Z"/><path class="cls-1" d="M93.77,68.31A249.58,249.58,0,0,0,68.31,93.77L418.23,443.68a249.62,249.62,0,0,0,25.46-25.46Z"/></svg>