<svg id="Layer_1" data-name="Layer 1" xmlns="http://www.w3.org/2000/svg" viewBox="0 0 512 512"><defs><style>.cls-1{fill:#d61e1e;}.cls-2{fill:#f4eded;}.cls-3{fill:#5b5147;}</style></defs><title>no skating</title><path class="cls-1" d="M256,7.92C119,7.92,7.92,119,7.92,256S119,504.08,256,504.08,504.08,393,504.08,256,393,7.92,256,7.92Z"/><path class="cls-2" d="M256,46.92C140.53,46.92,46.92,140.52,46.92,256S140.53,465.08,256,465.08,465.08,371.47,465.08,256,371.47,46.92,256,46.92Z"/><path class="cls-3" d="M311.29,236.07c-97.51-32.17-44.23-116.61-44.23-116.61-90.47-28.15-116.61,17.09-116.61,17.09-3,21.11-10.05,75.39-10.05,75.39-21.11,65.34,1,78.41,1,78.41,36.19,15.08,50.26,5.36,75.73,6.7s29.49,2.68,62,7.37,111.3-2.69,112.59-30.16C392.71,252.82,311.29,236.07,311.29,236.07Z"/><path class="cls-2" d="M253.39,151.63l-25.87,2.19-24.19,9a4.37,4.37,0,0,0-4.37,4.37V180a4.37,4.37,0,0,0,4.37,4.37l25.62-9.28,24.44-1.87a4.37,4.37,0,0,0,4.37-4.37V156A4.38,4.38,0,0,0,253.39,151.63Z"/><path class="cls-3" d="M254.88,147.63,227.46,150l-25.63,9.5a4.63,4.63,0,0,0-4.63,4.64v13.65a4.63,4.63,0,0,0,4.63,4.64L229,172.54l25.9-2a4.64,4.64,0,0,0,4.64-4.64V152.27A4.64,4.64,0,0,0,254.88,147.63Z"/><path class="cls-2" d="M268,202.28l-4.66-12a4.38,4.38,0,0,0-5.66-2.5l-23.32,11.4-19.31,17.1a4.37,4.37,0,0,0-2.49,5.66l4.66,12a4.37,4.37,0,0,0,5.66,2.5l20.53-17.92,22.11-10.59A4.37,4.37,0,0,0,268,202.28Z"/><path class="cls-3" d="M268.6,198.88l-4.94-12.73a4.64,4.64,0,0,0-6-2.64L232.94,195.6l-20.47,18.12a4.63,4.63,0,0,0-2.64,6l4.94,12.73a4.64,4.64,0,0,0,6,2.65l21.75-19L266,204.88A4.63,4.63,0,0,0,268.6,198.88Z"/><circle class="cls-3" cx="140.9" cy="340.11" r="29.65"/><circle class="cls-2" cx="140.9" cy="340.11" r="24.29"/><circle class="cls-3" cx="140.9" cy="340.11" r="20.61"/><circle class="cls-2" cx="140.9" cy="340.11" r="8.55"/><circle class="cls-3" cx="140.9" cy="340.11" r="6.2"/><circle class="cls-3" cx="217.63" cy="340.11" r="29.65"/><circle class="cls-2" cx="217.63" cy="340.11" r="24.29"/><circle class="cls-3" cx="217.63" cy="340.11" r="20.61"/><circle class="cls-2" cx="217.63" cy="340.11" r="8.55"/><circle class="cls-3" cx="217.63" cy="340.11" r="6.2"/><circle class="cls-3" cx="294.37" cy="340.11" r="29.65"/><circle class="cls-2" cx="294.37" cy="340.11" r="24.29"/><circle class="cls-3" cx="294.37" cy="340.11" r="20.61"/><circle class="cls-2" cx="294.37" cy="340.11" r="8.55"/><circle class="cls-3" cx="294.37" cy="340.11" r="6.2"/><circle class="cls-3" cx="371.1" cy="340.11" r="29.65"/><circle class="cls-2" cx="371.1" cy="340.11" r="24.29"/><circle class="cls-3" cx="371.1" cy="340.11" r="20.61"/><circle class="cls-2" cx="371.1" cy="340.11" r="8.55"/><circle class="cls-3" cx="371.1" cy="340.11" r="6.2"/><path class="cls-3" d="M361.22,296.38s-68.43,10.42-126.07,10.42c-42.5,0-94.42-18.47-94.42-18.47s-38.87,26.14-24.8,32.17H397.4S397.4,306.1,361.22,296.38Z"/><path class="cls-1" d="M93.77,68.31A249.58,249.58,0,0,0,68.31,93.77L418.23,443.68a249.63,249.63,0,0,0,25.46-25.46Z"/></svg>