<?xml version="1.0" encoding="utf-8"?>
<!-- Generator: Adobe Illustrator 16.0.0, SVG Export Plug-In . SVG Version: 6.00 Build 0)  -->
<!DOCTYPE svg PUBLIC "-//W3C//DTD SVG 1.1//EN" "http://www.w3.org/Graphics/SVG/1.1/DTD/svg11.dtd">
<svg version="1.1" id="icons" xmlns="http://www.w3.org/2000/svg" xmlns:xlink="http://www.w3.org/1999/xlink" x="0px" y="0px"
	 width="64px" height="64px" viewBox="0 0 64 64" enable-background="new 0 0 64 64" xml:space="preserve">
<g>
	<g>
		<path fill="#ED5565" d="M18.99,16.995H19v0.01c0,0-3.01,2.011-6,2.011c-3.32,0-6.01-2.69-6.01-6.011c0-3.31,2.689-6,6.01-6
			c2.99,0,5.99,1.99,5.99,1.99v0.01V16.995z"/>
	</g>
	<g>
		<path fill="#E6E9ED" d="M32,11.016c1.11,0,2,0.899,2,2c0,1.109-0.89,2-2,2c-1.1,0-2-0.891-2-2C30,11.915,30.9,11.016,32,11.016z"
			/>
	</g>
	<g>
		<path fill="#FFD2A6" d="M20.99,10.995h4v4.01h-4c-1.101,0-1.98,0.88-1.99,1.99h-0.01v-7.99C19,10.115,19.89,10.995,20.99,10.995z"
			/>
	</g>
	<g>
		<path fill="#FFD2A6" d="M45.01,9.016v8c0-1.101-0.89-1.99-2-1.99h-4v-4.01h4C44.11,11.016,45.01,10.115,45.01,9.016z"/>
	</g>
	<g>
		<path fill="#5D9CEC" d="M51,7.005c3.32,0,6.01,2.69,6.01,6c0,3.32-2.689,6.011-6.01,6.011c-2.99,0-5.99-2-5.99-2v-8
			C45.01,9.016,48.01,7.005,51,7.005z"/>
	</g>
	<g>
		<path fill="#CCD1D9" d="M45,52.995c1.1,0,2,0.89,2,2c0,1.1-0.9,2-2,2c-1.11,0-2-0.9-2-2C43,53.885,43.89,52.995,45,52.995z"/>
	</g>
	<g>
		<path fill="#CCD1D9" d="M19,52.995c1.11,0,2,0.89,2,2c0,1.1-0.89,2-2,2c-1.1,0-2-0.9-2-2C17,53.885,17.9,52.995,19,52.995z"/>
	</g>
	<g>
		<polygon fill="#656D78" points="49,49.995 49,52.995 45,52.995 19,52.995 15,52.995 15,49.995 25,49.995 39,49.995 		"/>
	</g>
	<g>
		<polygon fill="#4A89DC" points="63,29.985 63,32.985 61,32.985 48,32.985 48,29.985 		"/>
	</g>
	<g>
		<polygon fill="#4A89DC" points="48,29.985 48,32.985 39,32.985 27,32.985 27,29.985 45.02,29.985 		"/>
	</g>
	<g>
		<polygon fill="#5D9CEC" points="27,29.985 27,32.985 25,32.985 3,32.985 1,32.985 1,29.985 16.03,29.985 19.02,29.985 		"/>
	</g>
	<g>
		<polygon fill="#E6E9ED" points="45.02,23.985 45.02,29.985 27,29.985 19.02,29.985 19.02,23.985 		"/>
	</g>
</g>
<g>
	<g>
		<path d="M27,33.991H1c-0.553,0-1-0.447-1-1v-3c0-0.553,0.447-1,1-1h26c0.553,0,1,0.447,1,1v3C28,33.544,27.553,33.991,27,33.991z
			 M2,31.991h24v-1H2V31.991z"/>
	</g>
	<g>
		<path d="M63,33.991H27c-0.553,0-1-0.447-1-1v-3c0-0.553,0.447-1,1-1h36c0.553,0,1,0.447,1,1v3C64,33.544,63.553,33.991,63,33.991z
			 M28,31.991h34v-1H28V31.991z"/>
	</g>
	<g>
		<path d="M45.018,30.991h-26c-0.553,0-1-0.447-1-1V23.99c0-0.553,0.447-1,1-1h26c0.553,0,1,0.447,1,1v6.001
			C46.018,30.544,45.57,30.991,45.018,30.991z M20.018,28.991h24V24.99h-24V28.991z"/>
	</g>
	<g>
		<path d="M48.001,33.991c-0.553,0-1-0.447-1-1V23.99c0-0.553,0.447-1,1-1s1,0.447,1,1v9.001
			C49.001,33.544,48.554,33.991,48.001,33.991z"/>
	</g>
	<g>
		<path d="M48.001,24.99h-2.983c-0.553,0-1-0.447-1-1s0.447-1,1-1h2.983c0.553,0,1,0.447,1,1S48.554,24.99,48.001,24.99z"/>
	</g>
	<g>
		<path d="M16.028,30.991c-0.553,0-1-0.447-1-1V23.99c0-0.553,0.447-1,1-1s1,0.447,1,1v6.001
			C17.028,30.544,16.581,30.991,16.028,30.991z"/>
	</g>
	<g>
		<path d="M19.012,24.99h-2.983c-0.553,0-1-0.447-1-1s0.447-1,1-1h2.983c0.553,0,1,0.447,1,1S19.564,24.99,19.012,24.99z"/>
	</g>
	<g>
		<path d="M24.999,50.99c-0.553,0-1-0.447-1-1V32.991c0-0.553,0.447-1,1-1s1,0.447,1,1V49.99
			C25.999,50.543,25.552,50.99,24.999,50.99z"/>
	</g>
	<g>
		<path d="M3.001,57.997c-0.553,0-1-0.447-1-1V32.991c0-0.553,0.447-1,1-1s1,0.447,1,1v24.006
			C4.001,57.55,3.554,57.997,3.001,57.997z"/>
	</g>
	<g>
		<path d="M60.998,57.997c-0.553,0-1-0.447-1-1V32.991c0-0.553,0.447-1,1-1s1,0.447,1,1v24.006
			C61.998,57.55,61.551,57.997,60.998,57.997z"/>
	</g>
	<g>
		<path d="M39,50.99c-0.553,0-1-0.447-1-1V32.991c0-0.553,0.447-1,1-1s1,0.447,1,1V49.99C40,50.543,39.553,50.99,39,50.99z"/>
	</g>
	<g>
		<path d="M49,53.993H15c-0.553,0-1-0.447-1-1v-2.997c0-0.553,0.447-1,1-1h34c0.553,0,1,0.447,1,1v2.997
			C50,53.546,49.553,53.993,49,53.993z M16,51.993h32v-0.997H16V51.993z"/>
	</g>
	<g>
		<path d="M19.001,57.993c-1.654,0-3-1.346-3-3s1.346-3,3-3s3,1.346,3,3S20.655,57.993,19.001,57.993z M19.001,53.993
			c-0.552,0-1,0.448-1,1s0.448,1,1,1s1-0.448,1-1S19.553,53.993,19.001,53.993z"/>
	</g>
	<g>
		<path d="M44.998,57.993c-1.654,0-3-1.346-3-3s1.346-3,3-3s3,1.346,3,3S46.652,57.993,44.998,57.993z M44.998,53.993
			c-0.552,0-1,0.448-1,1s0.448,1,1,1s1-0.448,1-1S45.55,53.993,44.998,53.993z"/>
	</g>
	<g>
		<g>
			<path d="M12.999,20.021c-3.864,0-7.008-3.145-7.008-7.009s3.144-7.009,7.008-7.009c3.258,0,6.414,2.078,6.547,2.167
				c0.459,0.306,0.583,0.926,0.277,1.385c-0.305,0.459-0.926,0.584-1.386,0.28c-0.027-0.019-2.795-1.832-5.438-1.832
				c-2.762,0-5.008,2.247-5.008,5.009s2.246,5.009,5.008,5.009c2.642,0,5.412-1.829,5.439-1.848c0.46-0.31,1.081-0.183,1.387,0.275
				c0.308,0.458,0.186,1.078-0.272,1.386C19.42,17.924,16.258,20.021,12.999,20.021z"/>
		</g>
		<g>
			<path d="M18.993,18.002c-0.552,0-1-0.447-1-1l-0.004-7.998c0-0.552,0.447-1,1-1l0,0c0.552,0,1,0.447,1,1l0.004,7.998
				C19.993,17.554,19.546,18.002,18.993,18.002L18.993,18.002z"/>
		</g>
		<g>
			<path d="M20.991,12.001c-1.654,0-3-1.346-3-2.999c0-0.553,0.447-1,1-1s1,0.447,1,1c0,0.551,0.448,0.999,1,0.999
				c0.553,0,1,0.447,1,1S21.544,12.001,20.991,12.001z"/>
		</g>
		<g>
			<path d="M18.995,18.004c-0.553,0-1-0.447-1-1c0-1.651,1.344-2.995,2.996-2.995c0.553,0,1,0.447,1,1s-0.447,1-1,1
				c-0.549,0-0.996,0.446-0.996,0.995C19.995,17.557,19.548,18.004,18.995,18.004z"/>
		</g>
		<g>
			<path d="M24.987,16.009h-3.996c-0.553,0-1-0.447-1-1s0.447-1,1-1h2.996v-2.008h-2.996c-0.553,0-1-0.447-1-1s0.447-1,1-1h3.996
				c0.553,0,1,0.447,1,1v4.008C25.987,15.562,25.54,16.009,24.987,16.009z"/>
		</g>
	</g>
	<g>
		<g>
			<path d="M51.002,20.021c-3.258,0-6.414-2.078-6.547-2.167c-0.459-0.306-0.583-0.926-0.277-1.385
				c0.305-0.46,0.924-0.586,1.386-0.28c0.027,0.019,2.795,1.832,5.438,1.832c2.762,0,5.008-2.247,5.008-5.009
				s-2.246-5.009-5.008-5.009c-2.642,0-5.412,1.829-5.439,1.848c-0.461,0.307-1.081,0.182-1.387-0.275
				c-0.308-0.458-0.186-1.078,0.272-1.386c0.133-0.09,3.295-2.187,6.554-2.187c3.864,0,7.008,3.145,7.008,7.009
				S54.866,20.021,51.002,20.021z"/>
		</g>
		<g>
			<path d="M45.012,18.02c-0.552,0-1-0.447-1-1l-0.004-7.998c0-0.552,0.447-1,1-1l0,0c0.552,0,1,0.447,1,1l0.004,7.998
				C46.012,17.571,45.564,18.02,45.012,18.02L45.012,18.02z"/>
		</g>
		<g>
			<path d="M45.01,18.021c-0.553,0-1-0.447-1-1c0-0.551-0.448-0.999-1-0.999c-0.553,0-1-0.447-1-1s0.447-1,1-1
				c1.654,0,3,1.346,3,2.999C46.01,17.574,45.563,18.021,45.01,18.021z"/>
		</g>
		<g>
			<path d="M43.01,12.015c-0.553,0-1-0.447-1-1s0.447-1,1-1c0.549,0,0.996-0.446,0.996-0.995c0-0.553,0.447-1,1-1s1,0.447,1,1
				C46.006,10.671,44.662,12.015,43.01,12.015z"/>
		</g>
		<g>
			<path d="M43.01,16.022h-3.996c-0.553,0-1-0.447-1-1v-4.008c0-0.553,0.447-1,1-1h3.996c0.553,0,1,0.447,1,1s-0.447,1-1,1h-2.996
				v2.008h2.996c0.553,0,1,0.447,1,1S43.563,16.022,43.01,16.022z"/>
		</g>
	</g>
	<g>
		<path d="M32,16.021c-1.654,0-3-1.346-3-3s1.346-3,3-3s3,1.346,3,3S33.654,16.021,32,16.021z M32,12.021c-0.552,0-1,0.448-1,1
			s0.448,1,1,1s1-0.448,1-1S32.552,12.021,32,12.021z"/>
	</g>
</g>
</svg>
