<?xml version="1.0" encoding="iso-8859-1"?>
<!-- Generator: Adobe Illustrator 16.0.0, SVG Export Plug-In . SVG Version: 6.00 Build 0)  -->
<!DOCTYPE svg PUBLIC "-//W3C//DTD SVG 1.1//EN" "http://www.w3.org/Graphics/SVG/1.1/DTD/svg11.dtd">
<svg version="1.1" xmlns="http://www.w3.org/2000/svg" xmlns:xlink="http://www.w3.org/1999/xlink" x="0px" y="0px" width="512px"
	 height="512px" viewBox="0 0 512 512" style="enable-background:new 0 0 512 512;" xml:space="preserve">
<g id="_x37_48-Court_x2C__Game_x2C__Ground_x2C__Nba_x2C__Olympic">
	<path style="fill:#19AB5C;" d="M490,120c0,0.153,0,279.892,0,280H260c0-0.147,0-249.604,0-280C269.489,120,308.917,120,490,120z"/>
	<path style="fill:#07CC66;" d="M490,370h-50c-30.38,0-57.88-12.31-77.78-32.22C342.31,317.88,330,290.38,330,260
		c0-60.75,49.25-110,110-110h50C490,150.137,490,368.86,490,370z"/>
	<path style="fill:#07CC66;" d="M30,400c0-0.138,0-279.88,0-280h230c0,0.147,0,249.604,0,280C255.54,400,37.231,400,30,400z"/>
	<path style="fill:#19AB5C;" d="M80,150c60.75,0,110,49.25,110,110c0,60.746-49.238,110-110,110H30c0-0.137,0-218.86,0-220H80z"/>
	<path style="fill:#94D4FF;" d="M260,220c22.09,0,40,17.91,40,40s-17.91,40-40,40V220z"/>
	<path style="fill:#BCE4FF;" d="M260,220v80c-22.09,0-40-17.91-40-40S237.91,220,260,220z"/>
	<polygon style="fill:#163EB1;" points="490,400 490,440 30,440 30,400 210,400 260,400 	"/>
	<polygon style="fill:#163EB1;" points="490,80 490,120 320,120 260,120 30,120 30,80 	"/>
	<path style="fill:#94D4FF;" d="M490,220v80h-40c-22.09,0-40-17.91-40-40c0-11.04,4.48-21.04,11.72-28.28
		C428.96,224.48,438.96,220,450,220H490z"/>
	<path style="fill:#BCE4FF;" d="M98.28,231.72C105.52,238.96,110,248.96,110,260c0,22.09-17.91,40-40,40H30v-80h40
		C81.04,220,91.04,224.48,98.28,231.72z"/>
	<path d="M327.07,172.93c1.81,1.81,2.93,4.31,2.93,7.07c0,5.52-4.48,10-10,10c-2.76,0-5.26-1.12-7.07-2.93
		c-1.81-1.81-2.93-4.31-2.93-7.07s1.12-5.26,2.93-7.07c1.811-1.81,4.311-2.93,7.07-2.93S325.26,171.12,327.07,172.93z"/>
	<path d="M217.07,312.93c1.81,1.811,2.93,4.311,2.93,7.07c0,5.52-4.48,10-10,10c-2.76,0-5.26-1.12-7.07-2.93
		c-1.81-1.811-2.93-4.311-2.93-7.07s1.12-5.26,2.93-7.07c1.81-1.81,4.31-2.93,7.07-2.93S215.26,311.12,217.07,312.93z"/>
	<path d="M490,410c-5.522,0-10-4.478-10-10v-30c0-5.522,4.478-10,10-10s10,4.478,10,10v30C500,405.522,495.522,410,490,410z"/>
	<path d="M490,160c-5.522,0-10-4.477-10-10v-30c0-5.523,4.478-10,10-10s10,4.477,10,10v30C500,155.523,495.522,160,490,160z"/>
	<path d="M30,160c-5.523,0-10-4.477-10-10v-30c0-5.523,4.477-10,10-10s10,4.477,10,10v30C40,155.523,35.523,160,30,160z"/>
	<path d="M30,410c-5.523,0-10-4.478-10-10v-30c0-5.522,4.477-10,10-10s10,4.478,10,10v30C40,405.522,35.523,410,30,410z"/>
	<path d="M490,130H30c-5.523,0-10-4.477-10-10V80c0-5.523,4.477-10,10-10h460c5.522,0,10,4.477,10,10v40
		C500,125.523,495.522,130,490,130z M40,110h440V90H40V110z"/>
	<path d="M490,450H30c-5.523,0-10-4.478-10-10v-40c0-5.522,4.477-10,10-10h460c5.522,0,10,4.478,10,10v40
		C500,445.522,495.522,450,490,450z M40,430h440v-20H40V430z"/>
	<path d="M80,380H30c-5.523,0-10-4.478-10-10v-70c0-5.522,4.477-10,10-10s10,4.478,10,10v60h40
		c26.718,0,51.829-10.401,70.707-29.289C169.598,311.829,180,286.718,180,260c0-55.14-44.86-100-100-100H40v60
		c0,5.523-4.477,10-10,10s-10-4.477-10-10v-70c0-5.523,4.477-10,10-10h50c66.168,0,120,53.832,120,120
		c0,32.063-12.483,62.197-35.151,84.854C142.197,367.517,112.063,380,80,380z"/>
	<path d="M490,380h-50c-32.063,0-62.197-12.483-84.854-35.15C332.483,322.197,320,292.063,320,260c0-66.168,53.832-120,120-120h50
		c5.522,0,10,4.477,10,10v70c0,5.523-4.478,10-10,10s-10-4.477-10-10v-60h-40c-55.141,0-100,44.86-100,100
		c0,26.719,10.401,51.829,29.289,70.707C388.171,349.599,413.281,360,440,360h40v-60c0-5.522,4.478-10,10-10s10,4.478,10,10v70
		C500,375.522,495.522,380,490,380z"/>
	<path d="M260,310c-27.57,0-50-22.43-50-50s22.43-50,50-50s50,22.43,50,50S287.57,310,260,310z M260,230c-16.542,0-30,13.458-30,30
		s13.458,30,30,30s30-13.458,30-30S276.542,230,260,230z"/>
	<path d="M260,410c-5.523,0-10-4.478-10-10V120c0-5.523,4.477-10,10-10c5.522,0,10,4.477,10,10v280C270,405.522,265.522,410,260,410
		z"/>
	<path d="M320,160c-5.522,0-10-4.477-10-10v-30c0-5.523,4.478-10,10-10s10,4.477,10,10v30C330,155.523,325.522,160,320,160z"/>
	<path d="M210,410c-5.523,0-10-4.478-10-10v-50c0-5.522,4.477-10,10-10s10,4.478,10,10v50C220,405.522,215.523,410,210,410z"/>
	<path d="M490,310h-40c-27.57,0-50-22.43-50-50c0-13.349,5.202-25.904,14.648-35.351C424.096,215.203,436.65,210,450,210h40
		c5.522,0,10,4.477,10,10v80C500,305.522,495.522,310,490,310z M450,230c-8.008,0-15.54,3.122-21.209,8.792
		C423.122,244.46,420,251.993,420,260c0,16.542,13.458,30,30,30h30v-60H450z"/>
	<path d="M70,310H30c-5.523,0-10-4.478-10-10v-80c0-5.523,4.477-10,10-10h40c13.351,0,25.905,5.203,35.351,14.649
		c9.446,9.446,14.649,22,14.649,35.351C120,287.57,97.57,310,70,310z M40,290h30c16.542,0,30-13.458,30-30
		c0-8.008-3.122-15.54-8.791-21.208C85.54,233.122,78.008,230,70,230H40V290z"/>
</g>
<g id="Layer_1">
</g>
</svg>
