<?xml version="1.0" encoding="UTF-8" standalone="no"?> <svg width="64" height="64" viewBox="0 0 64 64" fill="none" xmlns="http://www.w3.org/2000/svg">
<path d="M47 33H17C16.7348 33 16.4804 32.8946 16.2929 32.7071C16.1054 32.5196 16 32.2652 16 32C16 31.7348 16.1054 31.4804 16.2929 31.2929C16.4804 31.1054 16.7348 31 17 31H47C47.2652 31 47.5196 31.1054 47.7071 31.2929C47.8946 31.4804 48 31.7348 48 32C48 32.2652 47.8946 32.5196 47.7071 32.7071C47.5196 32.8946 47.2652 33 47 33Z" fill="black"/>
<path d="M60 18H4C3.73478 18 3.48043 18.1054 3.29289 18.2929C3.10536 18.4804 3 18.7348 3 19V45C3 45.2652 3.10536 45.5196 3.29289 45.7071C3.48043 45.8946 3.73478 46 4 46H60C60.2652 46 60.5196 45.8946 60.7071 45.7071C60.8946 45.5196 61 45.2652 61 45V19C61 18.7348 60.8946 18.4804 60.7071 18.2929C60.5196 18.1054 60.2652 18 60 18ZM46 20V44H18V20H46ZM5 44V20H16V44H5ZM59 44H48V20H59V44Z" fill="#3FA9F5"/>
<path d="M60 13H4C3.73478 13 3.48043 13.1054 3.29289 13.2929C3.10536 13.4804 3 13.7348 3 14V50C3 50.2652 3.10536 50.5196 3.29289 50.7071C3.48043 50.8946 3.73478 51 4 51H60C60.2652 51 60.5196 50.8946 60.7071 50.7071C60.8946 50.5196 61 50.2652 61 50V14C61 13.7348 60.8946 13.4804 60.7071 13.2929C60.5196 13.1054 60.2652 13 60 13ZM5 15H31V49H5V15ZM59 49H33V15H59V49Z" fill="black"/>
</svg>
