<?xml version="1.0" encoding="iso-8859-1"?>
<!-- Generator: Adobe Illustrator 19.0.0, SVG Export Plug-In . SVG Version: 6.00 Build 0)  -->
<svg xmlns="http://www.w3.org/2000/svg" xmlns:xlink="http://www.w3.org/1999/xlink" version="1.1" id="Layer_1" x="0px" y="0px" viewBox="0 0 512 512" style="enable-background:new 0 0 512 512;" xml:space="preserve">
<circle style="fill:#69DD0C;" cx="256" cy="255.978" r="247.916"/>
<path style="fill:#6AD10F;" d="M395.669,429.337c-137.995,0-249.864-111.867-249.864-249.864  c0-64.259,24.266-122.846,64.124-167.116C95.027,33.954,8.084,134.807,8.084,255.983c0,136.92,110.996,247.916,247.916,247.916  c71.099,0,135.199-29.939,180.405-77.887C423.147,428.187,409.543,429.337,395.669,429.337z"/>
<path style="fill:#A3F44D;" d="M256,8.067c-39.712,0-77.233,9.353-110.509,25.951c84.074,54.36-17.726,148.706-17.726,148.706  c-24.999,27.324-40.251,63.713-40.251,103.664c0,84.839,68.777,153.615,153.615,153.615c53.749,0,101.048-27.602,128.499-69.406  l13.046-24.415c7.773-18.379,12.071-38.584,12.071-59.794c0,0-11.747-136.57,90.342-125.312C447.83,71.253,359.301,8.067,256,8.067z  "/>
<g>
	<path style="fill:#88ED2F;" d="M145.807,179.474c0-5.794,0.204-11.54,0.593-17.236c-10.092,12.569-18.635,20.488-18.635,20.488   c-24.999,27.322-40.251,63.712-40.251,103.663c0,84.839,68.777,153.615,153.615,153.615c29.092,0,56.289-8.1,79.476-22.149   C219.289,385.983,145.807,291.314,145.807,179.474z"/>
	<path style="fill:#88ED2F;" d="M173.714,64.663c9.84-18.978,22.03-36.544,36.204-52.291c-0.606,0.113-1.208,0.231-1.812,0.349   c-1.593,0.312-3.18,0.636-4.762,0.978c-1.408,0.304-2.814,0.611-4.213,0.94c-1.035,0.244-2.063,0.506-3.092,0.761   c-1.046,0.26-2.089,0.521-3.128,0.793c-0.996,0.262-1.99,0.529-2.979,0.803c-1.14,0.314-2.273,0.64-3.406,0.969   c-0.872,0.253-1.746,0.503-2.614,0.766c-1.893,0.575-3.777,1.168-5.649,1.786c-0.638,0.21-1.268,0.434-1.904,0.649   c-1.394,0.473-2.783,0.954-4.166,1.451c-0.738,0.265-1.473,0.536-2.209,0.808c-1.36,0.504-2.716,1.019-4.065,1.547   c-0.624,0.245-1.25,0.484-1.873,0.733c-1.95,0.779-3.89,1.577-5.815,2.403c-0.146,0.063-0.289,0.129-0.433,0.193   c-1.811,0.781-3.608,1.588-5.395,2.41c-0.534,0.246-1.065,0.498-1.596,0.747c-1.465,0.689-2.922,1.389-4.372,2.104   c-0.31,0.154-0.622,0.306-0.931,0.461C159.836,43.297,168.762,53.733,173.714,64.663z"/>
</g>
<path style="fill:#231F20;" d="M463.33,105.765c-0.144-0.199-0.288-0.4-0.433-0.598c-0.65-0.888-1.305-1.772-1.968-2.653  c-0.714-0.953-1.437-1.898-2.163-2.84c-0.299-0.386-0.592-0.775-0.894-1.16c-9.035-11.571-19.07-22.359-30.01-32.257  c-0.087-0.08-0.176-0.158-0.264-0.237c-1.228-1.108-2.467-2.204-3.718-3.29c-0.474-0.413-0.946-0.827-1.423-1.236  c-0.576-0.493-1.159-0.978-1.74-1.465C383.312,28.48,338.235,8.597,289.967,2.237c-0.192-0.025-0.384-0.053-0.577-0.078  c-1.264-0.164-2.532-0.316-3.801-0.461c-0.633-0.073-1.265-0.141-1.899-0.21c-1.104-0.117-2.208-0.236-3.315-0.34  c-1.121-0.106-2.245-0.197-3.37-0.289c-1.152-0.093-2.306-0.18-3.461-0.258c-1.305-0.088-2.612-0.17-3.92-0.239  c-0.709-0.037-1.42-0.068-2.13-0.099c-1.302-0.057-2.605-0.105-3.911-0.143c-0.617-0.017-1.233-0.038-1.85-0.052  C259.825,0.028,257.914,0,256,0c-2.32,0-4.634,0.037-6.944,0.098c-0.878,0.023-1.754,0.065-2.631,0.096  c-1.407,0.052-2.813,0.106-4.216,0.179c-1.094,0.057-2.185,0.129-3.276,0.2c-1.161,0.075-2.321,0.156-3.478,0.247  c-1.208,0.095-2.416,0.198-3.621,0.31c-1.019,0.095-2.034,0.198-3.05,0.305c-1.286,0.135-2.572,0.272-3.853,0.426  c-0.916,0.11-1.829,0.235-2.742,0.355c-1.341,0.176-2.682,0.346-4.017,0.543c-0.849,0.125-1.693,0.271-2.541,0.404  c-2.157,0.341-4.308,0.706-6.452,1.102c-1.358,0.249-2.716,0.498-4.068,0.77c-0.79,0.16-1.578,0.333-2.366,0.499  c-1.586,0.334-3.168,0.678-4.745,1.041c-0.55,0.127-1.097,0.259-1.646,0.39c-1.992,0.473-3.977,0.97-5.954,1.491  c-0.134,0.036-0.267,0.07-0.401,0.106c-43.113,11.424-82.64,34.042-115.017,66.42C26.628,123.333,0,187.62,0,256  s26.628,132.667,74.982,181.019C123.333,485.372,187.62,512,256,512s132.667-26.628,181.019-74.982  C485.372,388.667,512,324.381,512,256C512,201.273,494.928,149.177,463.33,105.765z M16.168,256  c0-92.203,52.31-172.408,128.803-212.532c15.742,11.252,24.105,24.499,25.495,40.389c3.856,44.043-47.682,92.474-48.2,92.954  c-0.162,0.152-0.319,0.308-0.47,0.472C94.475,207.149,79.43,245.902,79.43,286.406c0,65.192,38.784,121.491,94.487,147.053  l-15.875,41.439C74.495,437.362,16.168,353.367,16.168,256z M256,495.832c-29.16,0-57.118-5.237-82.991-14.81l15.923-41.564  c16.383,5.603,33.941,8.648,52.197,8.648c54.656,0,105.219-27.31,135.256-73.051c2.45-3.733,1.412-8.744-2.32-11.196  c-3.733-2.448-8.745-1.412-11.196,2.32c-27.038,41.177-72.55,65.759-121.741,65.759c-80.246,0-145.531-65.284-145.531-145.531  c0-36.35,13.464-71.131,37.918-97.976c4.72-4.433,57.469-55.244,53.062-105.942c-1.57-18.066-10.072-33.759-25.314-46.798  C190.34,23.139,222.37,16.168,256,16.168c1.849,0,3.691,0.028,5.529,0.07c0.485,0.011,0.969,0.025,1.453,0.039  c1.582,0.045,3.16,0.105,4.735,0.18c0.271,0.013,0.541,0.023,0.811,0.037c1.884,0.097,3.763,0.218,5.636,0.358  c0.253,0.019,0.506,0.041,0.759,0.06c1.763,0.138,3.523,0.293,5.274,0.47c0.15,0.015,0.3,0.029,0.449,0.044  c84.573,8.673,156.266,61.472,191.612,134.93c-21.521,0.25-39.463,7.262-53.465,20.932  c-37.243,36.357-32.638,107.018-32.135,113.442c-0.041,19.534-3.887,38.48-11.431,56.321c-1.739,4.111,0.184,8.855,4.296,10.594  c4.111,1.742,8.855-0.185,10.594-4.296c8.433-19.942,12.711-41.118,12.711-62.943c0-0.232-0.01-0.462-0.029-0.693  c-0.059-0.686-5.51-68.835,27.289-100.855c12.296-12.006,28.871-17.416,49.301-16.134c10.61,27.062,16.443,56.5,16.443,87.277  C495.832,388.244,388.245,495.832,256,495.832z"/>
<g>
</g>
<g>
</g>
<g>
</g>
<g>
</g>
<g>
</g>
<g>
</g>
<g>
</g>
<g>
</g>
<g>
</g>
<g>
</g>
<g>
</g>
<g>
</g>
<g>
</g>
<g>
</g>
<g>
</g>
</svg>
