<svg xmlns="http://www.w3.org/2000/svg" viewBox="0 0 128 128"><path d="M120.344 21.427c-.427.043-25.049 6.727-25.049 6.727v-11.74l11.768-3.263c2.333-.758 5.529-1.794 5.529-5.621v-.226c0-2.894-1.303-5.714-5.27-5.824-.429-.011-99.433 27.339-99.433 27.339-5.115 1.283-5.666 4.386-5.666 5.661v.227c0 2.767 1.623 5.724 6.177 5.724.189 0 16.564-4.514 16.564-4.514v11.737l-3.891 1.079c-5.115 1.283-5.666 4.388-5.666 5.662v.226c0 2.768 1.623 5.725 6.177 5.725.189 0 3.38-.858 3.38-.858v33.688c-2.876 1.463-4.553 3.859-4.355 6.374.286 3.627 4.267 6.227 9.283 6.227 4.697 0 7.43-1.703 9.062-3.637v10.341c-3.511 1.567-5.588 4.302-5.358 7.232.169 2.149 1.537 4.029 3.853 5.297 1.803.987 4.033 1.51 6.383 1.51 3.537 0 6.67-1.208 8.584-2.689 2.089-1.614 3.146-3.687 2.977-5.835-.213-2.707-2.394-4.978-5.733-6.089V52.64l34.931-9.686V76.44c-2.989 1.453-4.747 3.893-4.544 6.46.155 1.974 1.406 3.698 3.523 4.858 1.634.894 3.653 1.369 5.779 1.369 4.171 0 7.638-1.815 9.231-3.872v9.807c-3.588 1.547-5.778 4.36-5.545 7.314.169 2.149 1.537 4.031 3.853 5.298 1.803.987 4.033 1.51 6.384 1.51 3.883 0 6.669-1.208 8.584-2.689 2.089-1.614 3.146-3.687 2.977-5.835-.209-2.659-2.31-4.898-5.546-6.029V36.106l10.963-3.04c2.333-.758 5.529-1.794 5.529-5.621v-.227c-.002-2.893-1.666-6.174-5.435-5.791zm-29.25 7.892-2.302.638V18.218l2.302-.638v11.739zm-6.503-9.936v11.739L35.67 44.686V32.948l48.921-13.565zM8.134 36.224c-1.117.269-1.7-.312-1.693-1.267.007-.915.96-1.683 2.521-2.076 0 0 98.234-27.199 98.361-27.199.992 0 1.069 1.242 1.069 1.622v.226c0 .499 0 .773-2.537 1.599L8.134 36.224zm21.032-1.472 2.303-.639V45.85l-2.303.639V34.752zm2.303 22.932v37.271a6.457 6.457 0 0 1-2.303-.001V58.323l2.303-.639zm-.634 45.255c-3.832.309-7.255-1.349-7.433-3.608-.078-.989.51-2.009 1.562-2.85v.045c0 .848 1.003 2.75 5.353 2.75 4.315 0 5.352-1.907 5.352-2.75v-.855c1.142.662 1.864 1.56 1.941 2.54.179 2.259-2.924 4.424-6.775 4.728zm4.835-10.344V56.519l3.284-.911v39.157c-.81-.907-1.93-1.647-3.284-2.17zm17.257 25.763c0 2.419-3.501 5.558-8.447 5.558-6.784 0-7.967-2.839-8.091-4.423-.11-1.395.876-2.808 2.565-3.858v1.898c0 .848 1.295 2.75 5.352 2.75 3.967 0 5.353-1.907 5.353-2.75v-2.631c1.722.786 3.268 1.806 3.268 3.456zm-7.469-2.394a6.457 6.457 0 0 1-2.303-.001V54.444l2.303-.638v62.158zM91.094 41.15v37.367c-.659.122-1.534.093-2.302-.06V41.789l2.302-.639zm-.823 45.14c-5.76.207-7.326-2.259-7.432-3.609-.083-1.042.586-2.116 1.751-2.982v.36c0 .878 1.292 2.75 5.547 2.75 4.091 0 5.158-1.946 5.158-2.75v-.914c1.027.649 1.68 1.496 1.752 2.418.178 2.26-2.915 4.589-6.776 4.727zm5.025-10.272v-35.64a2.18 2.18 0 0 0-.038-.382l3.322-.921v39.238c-.785-.957-1.915-1.737-3.284-2.295zm16.742 24.863c-.027 2.291-2.218 5.455-8.298 5.455-6.35 0-7.789-2.592-7.914-4.179-.113-1.432.962-2.905 2.752-3.965v2.711c0 .871 1.192 2.749 5.497 2.749 4.039 0 5.208-1.933 5.208-2.749v-3.256c1.621.787 2.77 1.96 2.755 3.234zm-6.954-1.528c-.667.123-1.54.105-2.303-.045V37.91l2.303-.639v62.082zm16.491-71.908c0 .499 0 .773-2.537 1.599l-97.72 27.095c-.821.188-1.726.071-1.726-1.242 0-1.05.993-1.71 2.554-2.102 0 0 98.233-27.198 98.361-27.198.992 0 1.069 1.241 1.069 1.621v.227z"/></svg>