<?xml version="1.0" encoding="iso-8859-1"?>
<!-- Generator: Adobe Illustrator 19.0.0, SVG Export Plug-In . SVG Version: 6.00 Build 0)  -->
<svg xmlns="http://www.w3.org/2000/svg" xmlns:xlink="http://www.w3.org/1999/xlink" version="1.1" id="Layer_1" x="0px" y="0px" viewBox="0 0 512 512" style="enable-background:new 0 0 512 512;" xml:space="preserve">
<path style="fill:#B2A17D;" d="M421.836,181.02l-20.137-27.073c-3.335-4.415-8.743-4.415-12.08,0l-76.604,101.417l9.918,13.079  c-9.977,3.403-19.647,7.472-28.962,12.137l-0.009,0.01c31.398-15.724,66.825-24.59,104.331-24.59  c34.227,0,66.732,7.37,96.017,20.606L421.836,181.02z"/>
<path style="fill:#BCAE8A;" d="M239.322,158.171l-34.636-46.568c-5.737-7.594-15.04-7.594-20.776,0L99.126,223.849l-17.151,22.708  l-67.531,89.404c9.568-3.708,19.442-6.799,29.574-9.233c0.316-0.075,0.632-0.157,0.947-0.232c1.301-0.307,2.611-0.597,3.92-0.881  c0.52-0.113,1.04-0.231,1.562-0.34c1.191-0.251,2.39-0.488,3.589-0.721c0.651-0.126,1.299-0.252,1.952-0.374  c1.118-0.207,2.238-0.403,3.362-0.595c0.745-0.126,1.491-0.25,2.238-0.371c1.061-0.169,2.122-0.332,3.187-0.487  c0.821-0.12,1.646-0.234,2.472-0.345c1.009-0.137,2.021-0.269,3.035-0.392c0.897-0.11,1.796-0.209,2.697-0.308  c0.958-0.106,1.915-0.21,2.876-0.303c0.977-0.096,1.955-0.178,2.937-0.261c0.901-0.075,1.8-0.156,2.703-0.222  c1.071-0.078,2.149-0.14,3.225-0.204c0.824-0.049,1.644-0.105,2.469-0.144c1.24-0.061,2.485-0.101,3.726-0.142  c0.674-0.022,1.345-0.055,2.021-0.07c1.926-0.047,3.857-0.073,5.794-0.073c40.945,0,79.419,10.558,112.87,29.081  c27.855-37.084,66.501-65.594,111.275-80.88c0.019-0.005,0.036-0.013,0.055-0.019L239.322,158.171z"/>
<path style="fill:#FFA233;" d="M289.128,98.097c5.414,5.416,12.899,8.768,21.164,8.768c16.533,0,29.934-13.403,29.934-29.933  c0-16.533-13.403-29.934-29.934-29.934c-16.531,0-29.933,13.401-29.933,29.934C280.36,85.195,283.709,92.679,289.128,98.097"/>
<g>
	<path style="fill:#EDE1CA;" d="M195.03,176.822c17.39,0,33.169-6.86,44.812-18.005l-0.52-0.646l-34.636-46.568   c-5.737-7.594-15.04-7.594-20.776,0l-34.833,46.118C160.817,169.518,177.069,176.822,195.03,176.822z"/>
	<path style="fill:#EDE1CA;" d="M396.417,207.542c13.785,0,26.697-3.711,37.813-10.174l-12.394-16.346l-20.137-27.073   c-3.335-4.415-8.743-4.415-12.08,0l-32.255,42.703C368.755,203.559,382.12,207.542,396.417,207.542z"/>
</g>
<path style="fill:#B8E5F4;" d="M32.255,90.662c6.604,0,12.588,2.652,16.952,6.946C51.75,83.51,64.074,72.814,78.904,72.814  c16.442,0,29.804,13.147,30.168,29.502c1.966-0.695,4.082-1.077,6.286-1.077c10.428,0,18.88,8.453,18.88,18.88  s-8.453,18.881-18.88,18.881H32.255c-13.35,0-24.171-10.822-24.171-24.17S18.905,90.662,32.255,90.662z"/>
<path style="fill:#36CC6B;" d="M503.916,281.224c-31.714-16.127-67.604-25.225-105.623-25.225  c-76.343,0-144.118,36.665-186.69,93.342c57.903,32.063,100.73,88.024,115.171,154.573h177.142V281.224z"/>
<g style="opacity:0.1;">
	<path style="fill:#231F20;" d="M350.968,495.966c-15.486-71.371-59.997-131.901-120.543-168.665   c-6.712,6.95-13.01,14.3-18.823,22.041c57.903,32.063,100.73,88.024,115.171,154.573h177.143v-7.949H350.968z"/>
</g>
<path style="fill:#B0E046;" d="M98.733,320.26c-32.149,0-62.779,6.503-90.649,18.263v165.392h318.677  C303.986,398.918,210.554,320.26,98.733,320.26z"/>
<g style="opacity:0.1;">
	<path style="fill:#231F20;" d="M111.361,320.61c-4.182-0.223-8.39-0.349-12.629-0.349c-32.149,0-62.779,6.503-90.649,18.263   v165.392h25.36V338.523C57.61,328.326,83.854,322.089,111.361,320.61z"/>
</g>
<g>
	<path style="fill:#231F20;" d="M310.292,114.947c-10.156,0-19.702-3.955-26.882-11.136c-7.179-7.177-11.135-16.725-11.135-26.882   c0-20.963,17.054-38.018,38.017-38.018c20.964,0,38.018,17.054,38.018,38.018C348.312,97.893,331.256,114.947,310.292,114.947z    M310.292,55.081c-12.048,0-21.849,9.801-21.849,21.85c0,5.837,2.272,11.323,6.401,15.448c4.126,4.128,9.613,6.401,15.448,6.401   c12.049,0,21.85-9.801,21.85-21.849C332.144,64.882,322.341,55.081,310.292,55.081z"/>
	<path style="fill:#231F20;" d="M379.139,85.014h-19.455c-4.466,0-8.084-3.62-8.084-8.084s3.618-8.084,8.084-8.084h19.455   c4.466,0,8.084,3.62,8.084,8.084S383.604,85.014,379.139,85.014z"/>
	<path style="fill:#231F20;" d="M260.903,85.014h-19.457c-4.466,0-8.084-3.62-8.084-8.084s3.618-8.084,8.084-8.084h19.457   c4.466,0,8.084,3.62,8.084,8.084S265.368,85.014,260.903,85.014z"/>
	<path style="fill:#231F20;" d="M345.219,50.089c-2.068,0-4.138-0.789-5.716-2.367c-3.158-3.157-3.158-8.276-0.001-11.433   l13.756-13.757c3.158-3.157,8.277-3.157,11.433,0c3.158,3.157,3.158,8.276,0.001,11.433l-13.756,13.757   C349.356,49.3,347.287,50.089,345.219,50.089z"/>
	<path style="fill:#231F20;" d="M261.613,133.696c-2.068,0-4.138-0.789-5.717-2.368c-3.157-3.157-3.157-8.276,0-11.432   l13.758-13.758c3.158-3.157,8.276-3.157,11.433,0c3.157,3.157,3.157,8.276,0,11.432l-13.758,13.758   C265.751,132.907,263.681,133.696,261.613,133.696z"/>
	<path style="fill:#231F20;" d="M310.292,35.625c-0.001,0,0,0-0.001,0c-4.465-0.001-8.083-3.621-8.083-8.085l0.002-19.456   c0-4.465,3.62-8.083,8.084-8.083c0,0,0,0,0.001,0c4.465,0,8.083,3.621,8.083,8.085l-0.002,19.456   C318.377,32.005,314.757,35.625,310.292,35.625z"/>
	<path style="fill:#231F20;" d="M310.292,153.861c-4.466,0-8.084-3.62-8.084-8.084V126.32c0-4.465,3.618-8.084,8.084-8.084   c4.465,0,8.084,3.62,8.084,8.084v19.457C318.377,150.242,314.758,153.861,310.292,153.861z"/>
	<path style="fill:#231F20;" d="M275.371,50.09c-2.068,0-4.138-0.789-5.717-2.368l-13.758-13.758c-3.157-3.157-3.157-8.276,0-11.433   c3.158-3.157,8.276-3.157,11.433,0l13.758,13.758c3.157,3.157,3.157,8.276,0,11.432C279.509,49.301,277.439,50.09,275.371,50.09z"/>
	<path style="fill:#231F20;" d="M358.974,133.696c-2.07,0-4.138-0.789-5.717-2.368l-13.756-13.758   c-3.157-3.157-3.157-8.276,0.001-11.432c3.157-3.158,8.276-3.156,11.432,0.001l13.756,13.758c3.157,3.157,3.157,8.276-0.001,11.432   C363.113,132.907,361.043,133.696,358.974,133.696z"/>
	<path style="fill:#231F20;" d="M115.357,147.086H32.255C14.47,147.086,0,132.616,0,114.831c0-17.784,14.47-32.253,32.255-32.253   c4.455,0,8.779,0.901,12.759,2.616c6.458-12.316,19.343-20.465,33.889-20.465c17.538,0,32.566,12.125,36.962,28.431   c14.635,0.272,26.457,12.261,26.457,26.96C142.322,134.989,130.226,147.086,115.357,147.086z M32.255,98.746   c-8.871,0-16.087,7.215-16.087,16.084s7.215,16.085,16.087,16.085h83.104c5.952,0,10.796-4.844,10.796-10.797   c0-5.953-4.843-10.796-10.796-10.796c-1.231,0-2.439,0.207-3.594,0.614c-2.444,0.864-5.154,0.502-7.288-0.971   c-2.133-1.473-3.43-3.88-3.487-6.472c-0.265-11.909-10.173-21.598-22.086-21.598c-10.701,0-19.844,7.631-21.741,18.145   c-0.531,2.949-2.653,5.363-5.508,6.27c-2.859,0.907-5.981,0.158-8.118-1.942C40.506,100.389,36.499,98.746,32.255,98.746z"/>
	<path style="fill:#231F20;" d="M507.58,274.019c-2.658-1.352-5.339-2.632-8.029-3.88l-58.879-77.655c0,0,0,0,0-0.001   l-12.349-16.287l-20.173-27.121c-3.13-4.146-7.683-6.522-12.49-6.522c-4.805,0-9.358,2.377-12.492,6.522l-70.166,92.893   l-66.372-87.535c-0.151-0.234-0.314-0.463-0.492-0.684l-0.424-0.525l-34.579-46.492c-4.276-5.66-10.414-8.907-16.839-8.907   s-12.563,3.247-16.839,8.907L92.676,218.976c-2.691,3.562-1.984,8.633,1.578,11.323c3.565,2.691,8.633,1.982,11.323-1.578   l44.7-59.179c12.744,9.951,28.323,15.363,44.753,15.363c15.824,0,30.96-5.079,43.484-14.42l68.049,89.747   c0.004,0.005,0.007,0.011,0.011,0.016l3.315,4.371c-1.522,0.601-3.036,1.223-4.549,1.857c-0.279,0.117-0.558,0.235-0.838,0.354   c-0.329,0.139-0.66,0.276-0.988,0.417c-0.428,0.182-0.86,0.358-1.287,0.542c-1.357,0.591-2.704,1.21-4.053,1.827   c-30.424,13.847-57.525,33.804-79.878,58.851c-0.116,0.129-0.229,0.262-0.345,0.392c-1.394,1.568-2.779,3.145-4.135,4.754   c-0.776,0.917-1.527,1.854-2.291,2.783c-0.71,0.868-1.438,1.718-2.137,2.597c-20.124-10.386-41.68-17.839-63.899-22.218   c-0.324-0.065-0.649-0.128-0.973-0.191c-1.478-0.285-2.957-0.563-4.439-0.82c-0.425-0.074-0.85-0.139-1.275-0.211   c-2.274-0.383-4.554-0.733-6.84-1.051c-1.022-0.142-2.044-0.285-3.069-0.414c-0.99-0.124-1.979-0.241-2.97-0.354   c-1.29-0.147-2.583-0.28-3.877-0.406c-0.761-0.073-1.52-0.155-2.282-0.222c-2.012-0.177-4.028-0.327-6.047-0.453   c-0.614-0.039-1.23-0.067-1.844-0.1c-1.602-0.088-3.205-0.161-4.81-0.217c-0.636-0.022-1.272-0.045-1.908-0.063   c-2.14-0.057-4.28-0.096-6.424-0.096c-1.796,0-3.678,0.025-5.585,0.068c-0.875,0.019-1.748,0.055-2.623,0.084l-0.063,0.002   c-0.014,0-0.028,0.001-0.042,0.002c-18.396,0.618-36.458,3.288-54.024,7.976l52.027-68.88c2.692-3.562,1.984-8.633-1.578-11.323   c-3.565-2.693-8.632-1.983-11.323,1.578L9.366,329.273c-1.478,0.59-2.956,1.182-4.425,1.802C1.947,332.339,0,335.273,0,338.523   v165.392c0,4.466,3.618,8.084,8.084,8.084h318.677c0.001,0,0.003,0,0.004,0c0.002,0,0.004,0,0.005,0h177.144   c4.466,0,8.084-3.618,8.084-8.084V281.224C512,278.182,510.292,275.397,507.58,274.019z M195.03,168.737   c-12.864,0-25.068-4.249-35.018-12.083l30.348-40.179c1.21-1.602,2.609-2.485,3.938-2.485s2.727,0.882,3.902,2.436l30.607,41.151   C219.072,164.817,207.311,168.737,195.03,168.737z M373.299,188.966l22.358-29.599l19.738,26.537l6.485,8.552   c-8.043,3.289-16.699,5.001-25.461,5.001c-9.283,0-18.415-1.908-26.836-5.567L373.299,188.966z M359.618,207.078   c11.403,5.603,23.983,8.548,36.798,8.548c12.302,0,24.436-2.734,35.495-7.935l38.885,51.286c-0.177-0.056-0.354-0.107-0.53-0.162   c-1.251-0.391-2.505-0.775-3.762-1.146c-0.225-0.066-0.451-0.128-0.676-0.194c-2.452-0.715-4.916-1.388-7.389-2.023   c-0.485-0.125-0.971-0.25-1.457-0.371c-3.897-0.974-7.819-1.849-11.766-2.624c-0.694-0.137-1.389-0.271-2.085-0.401   c-1.208-0.226-2.417-0.451-3.629-0.659c-1.517-0.26-3.036-0.506-4.56-0.737c-0.992-0.15-1.987-0.288-2.98-0.426   c-1.099-0.153-2.201-0.296-3.303-0.434c-0.849-0.106-1.698-0.218-2.548-0.315c-1.805-0.206-3.616-0.387-5.429-0.552   c-0.73-0.067-1.462-0.126-2.194-0.186c-1.624-0.134-3.251-0.251-4.882-0.352c-0.417-0.026-0.832-0.058-1.249-0.082   c-2.03-0.115-4.065-0.198-6.103-0.263c-0.539-0.017-1.078-0.031-1.617-0.045c-2.112-0.054-4.225-0.091-6.346-0.091   c-2.139,0-4.271,0.038-6.399,0.092c-0.517,0.013-1.035,0.027-1.552,0.043c-2.077,0.066-4.15,0.151-6.216,0.269   c-0.332,0.019-0.663,0.045-0.996,0.066c-1.775,0.109-3.546,0.238-5.314,0.385c-0.601,0.05-1.203,0.098-1.802,0.153   c-1.934,0.176-3.863,0.37-5.787,0.591c-0.637,0.073-1.272,0.157-1.908,0.235c-1.417,0.175-2.832,0.361-4.243,0.561   c-0.749,0.106-1.498,0.208-2.246,0.32c-1.757,0.265-3.51,0.55-5.258,0.853c-0.893,0.155-1.783,0.321-2.672,0.486   c-1.076,0.199-2.15,0.407-3.223,0.622c-1.311,0.262-2.618,0.534-3.924,0.817c-1.201,0.261-2.4,0.526-3.597,0.806   c-1.105,0.258-2.205,0.528-3.306,0.802c-0.737,0.183-1.473,0.374-2.21,0.565c-2.063,0.535-4.119,1.097-6.168,1.688   c-0.504,0.146-1.01,0.287-1.514,0.435c-1.264,0.373-2.526,0.758-3.783,1.153c-0.099,0.031-0.198,0.059-0.297,0.091l-2.723-3.592   L359.618,207.078z M16.168,495.831V343.956c0.397-0.156,0.797-0.301,1.194-0.455c0.001,0,0.002,0,0.002-0.001   c9.249-3.584,18.851-6.583,28.54-8.911l0.921-0.225c1.253-0.295,2.515-0.575,3.788-0.85l0.462-0.102   c0.343-0.075,0.688-0.152,1.043-0.226c1.148-0.243,2.302-0.469,3.461-0.694l0.123-0.024c0.587-0.114,1.173-0.227,1.762-0.337   c1.079-0.201,2.16-0.388,3.238-0.572c0.722-0.122,1.445-0.244,2.162-0.358c1.026-0.164,2.052-0.321,3.082-0.472   c0.792-0.115,1.589-0.225,2.39-0.334c0.97-0.132,1.946-0.259,2.929-0.379c0.864-0.106,1.73-0.201,2.6-0.296   c0.922-0.101,1.844-0.204,2.782-0.294c0.883-0.086,1.769-0.161,2.655-0.236l0.824-0.07c0.654-0.056,1.309-0.112,1.959-0.158   c0.907-0.067,1.817-0.12,2.727-0.174l1.195-0.072c0.525-0.032,1.05-0.065,1.583-0.091c1.134-0.056,2.271-0.094,3.407-0.13   l1.011-0.037c0.373-0.015,0.746-0.029,1.131-0.038c1.86-0.046,3.724-0.071,5.594-0.071c2.101,0,4.199,0.041,6.297,0.1   c0.575,0.016,1.148,0.035,1.722,0.055c1.838,0.066,3.675,0.152,5.509,0.263c0.591,0.036,1.181,0.077,1.771,0.117   c1.55,0.106,3.098,0.231,4.645,0.369c1.006,0.091,2.009,0.185,3.012,0.29c0.764,0.079,1.527,0.168,2.291,0.254   c89.494,10.227,165.854,74.075,191.112,160.975c0.092,0.317,0.184,0.633,0.275,0.951c0.355,1.24,0.698,2.485,1.033,3.734   c0.033,0.126,0.065,0.252,0.098,0.378H16.168V495.831z M495.832,495.831H333.2c-0.246-1.001-0.515-1.993-0.774-2.989   c-0.07-0.268-0.138-0.537-0.208-0.805c-0.399-1.518-0.814-3.029-1.242-4.535c-0.016-0.056-0.032-0.111-0.047-0.167   c-13.553-47.585-41.433-89.677-79.552-120.778c-0.043-0.035-0.084-0.071-0.127-0.106c-0.101-0.082-0.204-0.162-0.305-0.244   c-1.22-0.992-2.447-1.975-3.689-2.944c-0.122-0.095-0.245-0.188-0.366-0.281c-7.38-5.737-15.114-11.081-23.192-15.973   c0.225-0.277,0.456-0.55,0.682-0.826c0.843-1.025,1.694-2.04,2.552-3.048c0.507-0.595,1.013-1.19,1.526-1.779   c0.661-0.76,1.33-1.508,1.998-2.258c1.193-1.336,2.398-2.659,3.621-3.963c0.191-0.204,0.38-0.409,0.571-0.611   c18.025-19.088,39.114-34.78,62.469-46.508c0.155-0.066,0.312-0.123,0.464-0.199c3.236-1.621,6.5-3.16,9.786-4.616   c2.937-1.299,5.901-2.533,8.883-3.701c0.08-0.031,0.158-0.063,0.238-0.094c1.322-0.516,2.647-1.015,3.974-1.505   c0.213-0.079,0.426-0.161,0.639-0.238c1.477-0.539,2.957-1.064,4.439-1.569h0.001c0.029-0.01,0.059-0.021,0.088-0.03   c0.025-0.009,0.047-0.022,0.072-0.03c0.107-0.039,0.213-0.077,0.318-0.12c10.041-3.413,20.285-6.09,30.704-8.029   c0.236-0.044,0.473-0.086,0.71-0.129c1.334-0.244,2.67-0.48,4.01-0.7c1.54-0.25,3.084-0.489,4.633-0.709   c0.712-0.101,1.427-0.189,2.142-0.283c1.216-0.161,2.434-0.315,3.655-0.456c0.647-0.075,1.295-0.148,1.943-0.217   c1.532-0.164,3.068-0.313,4.607-0.446c0.323-0.028,0.646-0.061,0.969-0.088c1.894-0.155,3.793-0.285,5.697-0.393   c0.448-0.026,0.897-0.044,1.346-0.068c1.504-0.077,3.011-0.139,4.52-0.186c0.528-0.016,1.055-0.034,1.583-0.047   c1.913-0.047,3.83-0.079,5.753-0.079c2.074,0,4.142,0.03,6.204,0.084c0.878,0.024,1.753,0.069,2.629,0.102   c1.167,0.044,2.336,0.082,3.499,0.143c1.149,0.061,2.293,0.147,3.439,0.224c0.874,0.059,1.75,0.111,2.623,0.18   c1.312,0.105,2.618,0.233,3.926,0.361c0.691,0.067,1.384,0.127,2.074,0.201c1.428,0.153,2.851,0.328,4.274,0.507   c0.557,0.07,1.116,0.135,1.672,0.209c1.516,0.203,3.027,0.427,4.535,0.661c0.453,0.07,0.908,0.137,1.36,0.209   c1.583,0.255,3.163,0.53,4.74,0.82c0.37,0.068,0.741,0.134,1.11,0.203c1.632,0.308,3.26,0.636,4.883,0.98   c0.312,0.066,0.623,0.132,0.935,0.198c1.661,0.36,3.318,0.738,4.97,1.136c0.273,0.066,0.545,0.132,0.819,0.198   c1.671,0.409,3.337,0.836,4.998,1.285c0.261,0.07,0.521,0.141,0.78,0.212c1.659,0.454,3.313,0.926,4.963,1.417   c0.274,0.082,0.546,0.166,0.82,0.249c1.621,0.49,3.238,0.998,4.849,1.526c0.324,0.107,0.648,0.217,0.972,0.326   c1.548,0.515,3.092,1.044,4.631,1.595c0.428,0.153,0.854,0.313,1.279,0.469c1.425,0.52,2.847,1.048,4.263,1.596   c0.615,0.239,1.228,0.489,1.841,0.734c1.216,0.483,2.431,0.969,3.639,1.475c0.983,0.412,1.96,0.841,2.938,1.268   c0.831,0.361,1.663,0.715,2.491,1.087c1.802,0.811,3.598,1.642,5.384,2.503v209.591H495.832z"/>
</g>
<g style="opacity:0.1;">
	<path style="fill:#231F20;" d="M50.449,325.275c1.191-0.251,2.39-0.488,3.589-0.721c0.25-0.049,0.5-0.095,0.749-0.143   l58.805-77.854l17.151-22.708l79.322-105.015l-5.379-7.232c-5.737-7.594-15.04-7.594-20.776,0L99.126,223.849l-17.151,22.708   l-67.531,89.404c9.568-3.708,19.442-6.799,29.574-9.233c0.316-0.075,0.632-0.157,0.947-0.232c1.301-0.307,2.611-0.597,3.92-0.881   C49.406,325.501,49.926,325.385,50.449,325.275z"/>
</g>
<g style="opacity:0.1;">
	<path style="fill:#231F20;" d="M344.723,255.363l66.715-88.324l-9.739-13.093c-3.335-4.415-8.743-4.415-12.08,0l-76.604,101.417   l9.918,13.079c-7.859,2.681-15.523,5.78-22.977,9.253c15.545-7.237,32.024-12.801,49.199-16.489L344.723,255.363z"/>
</g>
<g>
</g>
<g>
</g>
<g>
</g>
<g>
</g>
<g>
</g>
<g>
</g>
<g>
</g>
<g>
</g>
<g>
</g>
<g>
</g>
<g>
</g>
<g>
</g>
<g>
</g>
<g>
</g>
<g>
</g>
</svg>
