<?xml version="1.0" encoding="utf-8"?>
<!-- Generator: Adobe Illustrator 24.0.0, SVG Export Plug-In . SVG Version: 6.00 Build 0)  -->
<svg version="1.1" xmlns="http://www.w3.org/2000/svg" xmlns:xlink="http://www.w3.org/1999/xlink" x="0px" y="0px"
	 viewBox="0 0 256 256" enable-background="new 0 0 256 256" xml:space="preserve">
<g id="Layer_1">
</g>
<g id="Layer_2">
</g>
<g id="Layer_3">
</g>
<g id="Layer_4">
</g>
<g id="Layer_5">
</g>
<g id="Layer_6">
</g>
<g id="Layer_7">
</g>
<g id="Layer_8">
</g>
<g id="Layer_9">
</g>
<g id="Layer_10">
</g>
<g id="Layer_11">
</g>
<g id="Layer_12">
</g>
<g id="Layer_13">
</g>
<g id="Layer_14">
</g>
<g id="Layer_15">
</g>
<g id="Layer_16">
</g>
<g id="Layer_17">
</g>
<g id="Layer_18">
</g>
<g id="Layer_19">
</g>
<g id="Layer_20">
</g>
<g id="Layer_21">
</g>
<g id="Layer_22">
</g>
<g id="Layer_23">
</g>
<g id="Layer_24">
</g>
<g id="Layer_25">
</g>
<g id="Layer_26">
</g>
<g id="Layer_27">
</g>
<g id="Layer_28">
	<g>
		<g>
			<g>
				<path fill="#87D147" d="M185.297,64.212h-4.856c-7.173,0-13.008-5.835-13.008-13.008C167.432,22.97,144.463,0,116.229,0H83.853
					C55.619,0,32.649,22.97,32.649,51.204v153.592c0,13.735,5.365,26.632,15.106,36.314C57.414,250.712,70.231,256,83.846,256
					h44.677c13.635-0.082,26.904-6.001,36.407-15.776l57.081-58.712c9.345-9.612,14.491-22.288,14.491-35.693v-30.403
					C236.501,87.182,213.531,64.212,185.297,64.212z"/>
			</g>
		</g>
		<g>
			<g>
				<path fill="#5B5D60" d="M185.297,73.658h-4.856c-12.381,0-22.454-10.073-22.454-22.454c0-23.025-18.732-41.757-41.757-41.757
					H83.853c-23.025,0-41.757,18.732-41.757,41.757v153.592c0,11.201,4.375,21.719,12.319,29.615
					c7.883,7.836,18.326,12.142,29.432,12.142c0.085,0,0.172,0,0.257,0l44.363-0.266c11.118-0.066,21.941-4.677,29.69-12.649
					l57.08-58.712c7.621-7.838,11.818-18.176,11.818-29.108v-30.403C227.054,92.391,208.322,73.658,185.297,73.658z"/>
			</g>
		</g>
		<g>
			<g>
				<path fill="#F9D0B4" d="M185.297,92.962h-4.856c-23.026,0-41.758-18.732-41.758-41.758c0-12.381-10.073-22.454-22.454-22.454
					H83.853c-12.381,0-22.454,10.073-22.454,22.454v153.592c0,6.023,2.353,11.679,6.624,15.925
					c4.239,4.214,9.855,6.529,15.826,6.529c0.046,0,0.092,0,0.138,0l44.364-0.266c5.979-0.035,11.798-2.514,15.965-6.801
					l57.08-58.711c4.098-4.215,6.355-9.774,6.355-15.653v-30.403C207.751,103.034,197.678,92.962,185.297,92.962z"/>
			</g>
		</g>
		<g>
			<g>
				<path fill="#C49A6C" d="M185.297,102.408h-4.856c-28.234,0-51.204-22.97-51.204-51.205c0-7.172-5.835-13.007-13.007-13.007
					H83.853c-7.173,0-13.007,5.835-13.007,13.007v153.592c0,3.489,1.363,6.765,3.837,9.225c2.453,2.439,5.709,3.782,9.166,3.782
					l44.445-0.266c3.464-0.02,6.834-1.456,9.248-3.939l57.081-58.712c2.374-2.441,3.681-5.662,3.681-9.067v-30.403
					C198.304,108.243,192.469,102.408,185.297,102.408z"/>
			</g>
		</g>
		<g>
			<g>
				<g>
					<g>
						<path d="M185.297,71.158h-4.856c-11.003,0-19.954-8.951-19.954-19.954c0-24.404-19.854-44.257-44.258-44.257H83.853
							c-24.404,0-44.257,19.854-44.257,44.257v153.592c0,11.872,4.637,23.019,13.056,31.388
							c8.349,8.299,19.427,12.869,31.194,12.869l44.636-0.266c11.785-0.07,23.254-4.957,31.468-13.406l57.079-58.711
							c8.078-8.308,12.526-19.264,12.526-30.851v-30.403C229.555,91.012,209.701,71.158,185.297,71.158z M224.555,145.819
							c0,10.278-3.946,19.997-11.111,27.366l-57.08,58.711c-7.285,7.495-17.458,11.829-27.912,11.891l-44.362,0.266l-0.243,0
							c-10.437,0-20.264-4.054-27.668-11.415c-7.469-7.424-11.582-17.312-11.582-27.842V51.204
							c0-21.646,17.611-39.257,39.257-39.257h32.375c21.646,0,39.258,17.611,39.258,39.257c0,13.76,11.194,24.954,24.954,24.954
							h4.856c21.646,0,39.258,17.611,39.258,39.257V145.819z"/>
					</g>
				</g>
			</g>
		</g>
		<g>
			<g>
				<g>
					<g>
						<path d="M185.297,90.462h-4.856c-21.646,0-39.258-17.611-39.258-39.258c0-13.76-11.194-24.954-24.954-24.954H83.853
							c-13.76,0-24.954,11.194-24.954,24.954v153.592c0,6.694,2.615,12.979,7.362,17.698c4.707,4.679,10.954,7.256,17.588,7.256
							l44.518-0.266c6.644-0.04,13.111-2.794,17.743-7.559l57.08-58.711c4.554-4.685,7.062-10.862,7.062-17.395v-30.403
							C210.251,101.656,199.057,90.462,185.297,90.462z M205.251,145.819c0,5.224-2.006,10.164-5.647,13.91l-57.08,58.711
							c-3.702,3.81-8.874,6.012-14.187,6.044l-44.375,0.266l-0.112,0c-5.305,0-10.299-2.061-14.063-5.802
							c-3.796-3.773-5.887-8.799-5.887-14.152V51.204c0-11.003,8.951-19.954,19.954-19.954h32.375
							c11.003,0,19.954,8.951,19.954,19.954c0,24.404,19.854,44.258,44.258,44.258h4.856c11.003,0,19.954,8.951,19.954,19.954
							V145.819z"/>
					</g>
				</g>
			</g>
		</g>
		<g>
			<g>
				<g>
					<g>
						<path d="M200.805,115.416c0-8.551-6.957-15.507-15.508-15.507h-4.856c-26.855,0-48.704-21.849-48.704-48.705
							c0-8.55-6.957-15.507-15.507-15.507H83.853c-8.551,0-15.507,6.957-15.507,15.507v153.593c0,4.16,1.625,8.065,4.575,10.998
							c2.925,2.908,6.806,4.509,10.944,4.509l44.445-0.266c4.129-0.024,8.148-1.736,11.027-4.696l57.08-58.712h-0.001
							c2.831-2.911,4.39-6.75,4.39-10.81V115.416z M195.805,145.819c0,2.751-1.057,5.352-2.974,7.325c0,0,0,0-0.001,0
							l-57.079,58.712c-1.95,2.005-4.674,3.165-7.472,3.181l-44.43,0.266c-2.792,0-5.422-1.085-7.404-3.055
							c-1.999-1.987-3.1-4.633-3.1-7.452V51.204c0-5.793,4.713-10.507,10.507-10.507h32.376c5.794,0,10.507,4.713,10.507,10.507
							c0,29.613,24.092,53.705,53.704,53.705h4.856c5.794,0,10.508,4.713,10.508,10.507V145.819z"/>
					</g>
				</g>
			</g>
		</g>
		<g>
			<g>
				<path fill="#B2E26D" d="M207.792,15.292l-8.978-11.985c-0.806-1.077-2.421-1.077-3.227,0l-8.978,11.985
					c-0.996,1.329-0.047,3.225,1.614,3.225h17.956C207.839,18.517,208.787,16.622,207.792,15.292z"/>
			</g>
		</g>
		<g>
			<g>
				<path fill="#87D147" d="M211.022,28.732l-7.652-10.215h-12.339l-7.652,10.215c-0.996,1.329-0.047,3.225,1.614,3.225h24.416
					C211.069,31.957,212.017,30.061,211.022,28.732z"/>
			</g>
		</g>
		<g>
			<g>
				<path fill="#87D147" d="M214.316,43.076l-8.33-11.119h-17.572l-8.329,11.119c-0.996,1.329-0.047,3.225,1.614,3.225h31.004
					C214.363,46.301,215.311,44.406,214.316,43.076z"/>
			</g>
		</g>
		<g>
			<g>
				<path fill="#B2E26D" d="M115.792,95.401l-8.978-11.985c-0.806-1.077-2.421-1.077-3.227,0l-8.978,11.985
					c-0.996,1.329-0.047,3.225,1.614,3.225h17.956C115.839,98.626,116.787,96.731,115.792,95.401z"/>
			</g>
		</g>
		<g>
			<g>
				<path fill="#87D147" d="M119.022,108.841l-7.652-10.215H99.031l-7.652,10.215c-0.996,1.329-0.047,3.225,1.614,3.225h24.416
					C119.069,112.066,120.017,110.171,119.022,108.841z"/>
			</g>
		</g>
		<g>
			<g>
				<path fill="#87D147" d="M122.316,123.185l-8.33-11.119H96.414l-8.329,11.119c-0.996,1.329-0.047,3.225,1.614,3.225h31.004
					C122.363,126.41,123.311,124.515,122.316,123.185z"/>
			</g>
		</g>
		<g>
			<g>
				<path fill="#B2E26D" d="M144.792,143.401l-8.978-11.985c-0.806-1.077-2.421-1.077-3.227,0l-8.978,11.985
					c-0.996,1.329-0.047,3.225,1.614,3.225h17.956C144.839,146.626,145.787,144.731,144.792,143.401z"/>
			</g>
		</g>
		<g>
			<g>
				<path fill="#87D147" d="M148.022,156.841l-7.652-10.215h-12.339l-7.652,10.215c-0.996,1.329-0.047,3.225,1.614,3.225h24.416
					C148.069,160.066,149.017,158.171,148.022,156.841z"/>
			</g>
		</g>
		<g>
			<g>
				<path fill="#87D147" d="M151.316,171.185l-8.33-11.119h-17.572l-8.329,11.119c-0.996,1.329-0.047,3.225,1.614,3.225h31.004
					C151.363,174.41,152.311,172.515,151.316,171.185z"/>
			</g>
		</g>
		<g>
			<g>
				<rect x="192.504" y="46.301" fill="#B26E2B" width="9.393" height="9.981"/>
			</g>
		</g>
		<g>
			<g>
				<rect x="100.504" y="126.41" fill="#B26E2B" width="9.393" height="9.981"/>
			</g>
		</g>
		<g>
			<g>
				<rect x="129.504" y="174.41" fill="#B26E2B" width="9.393" height="9.981"/>
			</g>
		</g>
		<g>
			<g>
				<g>
					<g>
						<path d="M209.793,13.793l-8.979-11.986C199.953,0.659,198.636,0,197.2,0c-1.437,0-2.754,0.659-3.614,1.808
							c-0.001,0-0.001,0-0.001,0.001l-8.978,11.984c-1.031,1.377-1.194,3.189-0.425,4.729c0.771,1.539,2.318,2.496,4.039,2.496
							h17.956c1.721,0,3.269-0.956,4.039-2.495C210.986,16.983,210.824,15.171,209.793,13.793z M189.189,16.017L197.2,5.323
							l8.011,10.694H189.189z"/>
					</g>
				</g>
			</g>
		</g>
		<g>
			<g>
				<path d="M213.022,27.233l-6.983-9.322c-0.828-1.104-2.395-1.329-3.5-0.502c-1.104,0.828-1.33,2.395-0.502,3.5l6.404,8.548
					h-22.483L192.294,21c0.828-1.105,0.603-2.672-0.502-3.5c-1.105-0.827-2.672-0.603-3.5,0.502l-6.916,9.232
					c-1.03,1.378-1.192,3.19-0.423,4.729c0.771,1.539,2.318,2.495,4.039,2.495h24.416c1.721,0,3.269-0.956,4.039-2.495
					C214.217,30.423,214.055,28.611,213.022,27.233z"/>
			</g>
		</g>
		<g>
			<g>
				<path d="M216.316,41.577l-7.637-10.195c-0.828-1.104-2.396-1.329-3.5-0.502c-1.104,0.828-1.33,2.395-0.502,3.5l7.058,9.421
					h-29.071l6.882-9.185c0.828-1.105,0.603-2.672-0.502-3.5c-1.104-0.828-2.672-0.603-3.5,0.502l-7.461,9.959
					c-1.031,1.378-1.193,3.189-0.424,4.729c0.771,1.539,2.318,2.495,4.039,2.495h31.004c1.722,0,3.269-0.956,4.039-2.496
					C217.511,44.766,217.349,42.954,216.316,41.577z"/>
			</g>
		</g>
		<g>
			<g>
				<path d="M201.896,43.801h-9.393c-1.381,0-2.5,1.119-2.5,2.5v9.98c0,1.381,1.119,2.5,2.5,2.5s2.5-1.119,2.5-2.5v-7.48h4.393v7.48
					c0,1.381,1.119,2.5,2.5,2.5s2.5-1.119,2.5-2.5v-9.98C204.396,44.92,203.277,43.801,201.896,43.801z"/>
			</g>
		</g>
		<g>
			<g>
				<g>
					<g>
						<path d="M117.792,93.902l-8.978-11.984c-0.861-1.149-2.178-1.809-3.614-1.809c-1.437,0-2.754,0.66-3.615,1.809l-8.978,11.984
							c-1.032,1.378-1.194,3.189-0.424,4.729c0.771,1.539,2.318,2.495,4.039,2.495h17.957c1.721,0,3.269-0.957,4.039-2.496
							C118.987,97.091,118.824,95.279,117.792,93.902z M97.189,96.126l8.011-10.694l8.011,10.694H97.189z"/>
					</g>
				</g>
			</g>
		</g>
		<g>
			<g>
				<path d="M121.022,107.342l-7.058-9.422c-0.828-1.104-2.395-1.329-3.5-0.502c-1.105,0.828-1.33,2.395-0.502,3.5l6.478,8.647
					H93.959l6.402-8.546c0.828-1.105,0.603-2.672-0.502-3.5c-1.106-0.827-2.672-0.603-3.5,0.502l-6.982,9.321
					c-1.032,1.377-1.194,3.189-0.424,4.729c0.771,1.539,2.318,2.495,4.039,2.495h24.416c1.721,0,3.269-0.956,4.039-2.496
					S122.054,108.719,121.022,107.342z"/>
			</g>
		</g>
		<g>
			<g>
				<path d="M124.316,121.686l-7.489-9.997c-0.829-1.104-2.395-1.33-3.5-0.502c-1.105,0.828-1.33,2.395-0.502,3.5l6.909,9.223
					h-29.07l6.883-9.188c0.828-1.105,0.603-2.672-0.502-3.5c-1.106-0.827-2.672-0.603-3.5,0.502l-7.463,9.962
					c-1.032,1.377-1.194,3.189-0.424,4.729c0.77,1.539,2.317,2.495,4.039,2.495h31.004c1.721,0,3.269-0.956,4.039-2.495
					C125.511,124.875,125.348,123.063,124.316,121.686z"/>
			</g>
		</g>
		<g>
			<g>
				<path d="M100.503,124.917c-1.381,0-2.5,1.119-2.5,2.5v8.974c0,1.381,1.119,2.5,2.5,2.5s2.5-1.119,2.5-2.5v-8.974
					C103.003,126.037,101.884,124.917,100.503,124.917z"/>
			</g>
		</g>
		<g>
			<g>
				<path d="M109.896,124.917c-1.381,0-2.5,1.119-2.5,2.5v8.974c0,1.381,1.119,2.5,2.5,2.5s2.5-1.119,2.5-2.5v-8.974
					C112.396,126.037,111.277,124.917,109.896,124.917z"/>
			</g>
		</g>
		<g>
			<g>
				<g>
					<g>
						<path d="M146.793,141.902l-8.979-11.985c-0.861-1.149-2.179-1.809-3.615-1.809c-1.436,0-2.753,0.659-3.614,1.809
							l-8.978,11.985c-1.032,1.378-1.194,3.189-0.424,4.729c0.771,1.539,2.318,2.495,4.039,2.495h17.956
							c1.721,0,3.269-0.956,4.039-2.495C147.986,145.092,147.824,143.281,146.793,141.902z M126.189,144.126l8.011-10.694
							l8.012,10.694H126.189z"/>
					</g>
				</g>
			</g>
		</g>
		<g>
			<g>
				<path d="M150.022,155.342l-7.132-9.521c-0.828-1.104-2.395-1.329-3.5-0.502c-1.104,0.828-1.33,2.395-0.502,3.5l6.552,8.747
					h-22.481l6.501-8.68c0.828-1.105,0.604-2.672-0.501-3.5c-1.106-0.828-2.672-0.603-3.5,0.502l-7.082,9.454
					c-1.032,1.377-1.194,3.189-0.424,4.729c0.771,1.539,2.318,2.495,4.039,2.495h24.416c1.722,0,3.269-0.956,4.039-2.496
					C151.217,158.531,151.055,156.719,150.022,155.342z"/>
			</g>
		</g>
		<g>
			<g>
				<path d="M153.316,169.686l-7.484-9.992c-0.828-1.104-2.395-1.33-3.5-0.502c-1.104,0.828-1.33,2.395-0.502,3.5l6.905,9.218
					h-29.07l6.943-9.268c0.828-1.105,0.603-2.672-0.502-3.5c-1.106-0.827-2.672-0.603-3.5,0.502l-7.522,10.042
					c-1.032,1.377-1.194,3.189-0.424,4.729c0.77,1.539,2.317,2.495,4.039,2.495h31.004c1.721,0,3.269-0.956,4.039-2.495
					C154.511,172.876,154.349,171.064,153.316,169.686z"/>
			</g>
		</g>
		<g>
			<g>
				<path d="M129.504,172.958c-1.381,0-2.5,1.119-2.5,2.5v8.933c0,1.381,1.119,2.5,2.5,2.5s2.5-1.119,2.5-2.5v-8.933
					C132.004,174.078,130.885,172.958,129.504,172.958z"/>
			</g>
		</g>
		<g>
			<g>
				<path d="M138.896,172.958c-1.381,0-2.5,1.119-2.5,2.5v8.933c0,1.381,1.119,2.5,2.5,2.5s2.5-1.119,2.5-2.5v-8.933
					C141.396,174.078,140.277,172.958,138.896,172.958z"/>
			</g>
		</g>
		<g>
			<g>
				<path d="M179.876,117.865l-4.238-3.764c-1.982-1.758-4.969-1.758-6.949,0l-2.423,2.152c-0.087,0.078-0.221,0.079-0.308,0
					l-2.418-2.148c-1.982-1.762-4.971-1.761-6.953,0l-2.413,2.146c-0.086,0.078-0.218,0.079-0.308,0l-2.41-2.145
					c-1.982-1.764-4.971-1.765-6.955,0l-4.228,3.76c-1.032,0.917-1.125,2.498-0.207,3.53c0.918,1.031,2.499,1.124,3.529,0.207
					l4.229-3.76c0.088-0.077,0.22-0.079,0.308,0l2.41,2.145c1.982,1.763,4.973,1.764,6.955,0l2.412-2.146
					c0.088-0.079,0.222-0.078,0.309,0l2.419,2.149c1.979,1.758,4.967,1.761,6.949,0l2.423-2.151c0.088-0.078,0.221-0.078,0.309,0
					l4.238,3.764c0.477,0.423,1.068,0.631,1.659,0.631c0.689,0,1.376-0.284,1.87-0.84
					C181.002,120.362,180.908,118.782,179.876,117.865z"/>
			</g>
		</g>
		<g>
			<g>
				<path d="M189.876,135.865l-4.238-3.764c-1.982-1.758-4.969-1.758-6.949,0l-2.423,2.152c-0.087,0.078-0.221,0.079-0.308,0
					l-2.418-2.148c-1.982-1.762-4.971-1.761-6.953,0l-2.413,2.146c-0.087,0.078-0.219,0.079-0.308,0l-2.41-2.145
					c-1.983-1.764-4.972-1.765-6.955,0l-4.228,3.76c-1.032,0.917-1.125,2.498-0.207,3.53c0.918,1.031,2.499,1.124,3.529,0.207
					l4.229-3.76c0.087-0.077,0.22-0.079,0.308,0l2.41,2.145c1.982,1.763,4.973,1.764,6.955,0l2.412-2.146
					c0.088-0.079,0.221-0.078,0.309,0l2.419,2.149c1.979,1.758,4.967,1.761,6.949,0l2.423-2.151c0.088-0.078,0.221-0.078,0.309,0
					l4.238,3.764c0.477,0.423,1.068,0.631,1.659,0.631c0.689,0,1.376-0.284,1.87-0.84
					C191.002,138.362,190.908,136.782,189.876,135.865z"/>
			</g>
		</g>
		<g>
			<g>
				<path d="M119.876,198.865l-4.238-3.764c-1.981-1.759-4.968-1.759-6.949,0l-2.423,2.152c-0.089,0.078-0.221,0.078-0.308,0
					l-2.418-2.149c-1.982-1.762-4.971-1.761-6.953,0.001l-2.412,2.146c-0.088,0.078-0.221,0.078-0.309,0l-2.411-2.145
					c-1.982-1.763-4.971-1.763-6.955,0l-4.228,3.76c-1.031,0.917-1.124,2.498-0.207,3.53c0.918,1.031,2.498,1.124,3.53,0.207
					l4.227-3.76c0.089-0.078,0.221-0.079,0.309,0l2.411,2.145c1.982,1.764,4.972,1.763,6.955,0l2.412-2.146
					c0.088-0.078,0.221-0.079,0.309,0l2.418,2.149c1.981,1.761,4.969,1.762,6.95,0.001l2.423-2.152c0.088-0.079,0.221-0.078,0.308,0
					l4.238,3.764c0.477,0.423,1.069,0.631,1.659,0.631c0.689,0,1.376-0.284,1.87-0.84
					C121.002,201.362,120.908,199.782,119.876,198.865z"/>
			</g>
		</g>
		<g>
			<g>
				<path fill="#70D6F9" d="M239.775,55.9h-2.3v-2.3c0-1.7-1.4-3.2-3.2-3.2c-1.8,0-3.2,1.4-3.2,3.2v2.3h-2.3c-1.7,0-3.2,1.4-3.2,3.2
					s1.4,3.2,3.2,3.2h2.3v2.3c0,1.7,1.4,3.2,3.2,3.2c1.8,0,3.2-1.4,3.2-3.2v-2.3h2.3c1.7,0,3.2-1.4,3.2-3.2
					S241.575,55.9,239.775,55.9z"/>
			</g>
		</g>
		<g>
			<g>
				<path fill="#F5C84C" d="M223.375,222.85c-4.5-0.8-8-4.3-8.9-8.7c0-0.2-0.4-0.2-0.4,0c-0.9,4.4-4.4,7.9-8.9,8.7
					c-0.2,0-0.2,0.3,0,0.4c4.5,0.8,8,4.3,8.9,8.7c0,0.2,0.4,0.2,0.4,0c0.9-4.4,4.4-7.9,8.9-8.7
					C223.575,223.15,223.575,222.85,223.375,222.85z"/>
			</g>
		</g>
		<g>
			<g>
				<path fill="#F5C84C" d="M26.465,80.482c-3.296-0.586-5.859-3.149-6.519-6.372c0-0.146-0.293-0.146-0.293,0
					c-0.659,3.223-3.223,5.786-6.519,6.372c-0.146,0-0.146,0.22,0,0.293c3.296,0.586,5.859,3.15,6.519,6.372
					c0,0.146,0.293,0.146,0.293,0c0.659-3.223,3.223-5.786,6.519-6.372C26.612,80.702,26.612,80.482,26.465,80.482z"/>
			</g>
		</g>
		<g>
			<g>
				<path fill="#FC657E" d="M192.375,235.5c-1.878,0-3.4,1.522-3.4,3.4c0,1.878,1.522,3.4,3.4,3.4s3.4-1.522,3.4-3.4
					C195.775,237.022,194.253,235.5,192.375,235.5z"/>
			</g>
		</g>
		<g>
			<g>
				<path fill="#B2E26D" d="M234.375,31.5c-1.878,0-3.4,1.522-3.4,3.4c0,1.878,1.522,3.4,3.4,3.4s3.4-1.522,3.4-3.4
					C237.775,33.022,236.253,31.5,234.375,31.5z"/>
			</g>
		</g>
	</g>
</g>
<g id="Layer_29">
</g>
<g id="Layer_30">
</g>
<g id="Layer_31">
</g>
<g id="Layer_32">
</g>
<g id="Layer_33">
</g>
<g id="Layer_34">
</g>
<g id="Layer_35">
</g>
<g id="Layer_36">
</g>
<g id="Layer_37">
</g>
<g id="Layer_38">
</g>
<g id="Layer_39">
</g>
<g id="Layer_40">
</g>
<g id="Layer_41">
</g>
<g id="Layer_42">
</g>
<g id="Layer_43">
</g>
<g id="Layer_44">
</g>
<g id="Layer_45">
</g>
<g id="Layer_46">
</g>
<g id="Layer_47">
</g>
<g id="Layer_48">
</g>
<g id="Layer_49">
</g>
<g id="Layer_50">
</g>
<g id="Layer_51">
</g>
<g id="Layer_52">
</g>
<g id="Layer_53">
</g>
<g id="Layer_54">
</g>
<g id="Layer_55">
</g>
<g id="Layer_56">
</g>
<g id="Layer_57">
</g>
<g id="Layer_58">
</g>
<g id="Layer_59">
</g>
<g id="Layer_60">
</g>
<g id="Layer_61">
</g>
<g id="Layer_62">
</g>
<g id="Layer_63">
</g>
<g id="Layer_64">
</g>
<g id="Layer_65">
</g>
<g id="Layer_66">
</g>
<g id="Layer_67">
</g>
<g id="Layer_68">
</g>
<g id="Layer_69">
</g>
<g id="Layer_70">
</g>
<g id="Layer_71">
</g>
<g id="Layer_72">
</g>
<g id="Layer_73">
</g>
<g id="Layer_74">
</g>
<g id="Layer_75">
</g>
</svg>
