<?xml version="1.0" encoding="UTF-8" standalone="no"?>
<!-- Created with Inkscape (http://www.inkscape.org/) -->

<svg
   width="144.00333mm"
   height="117.71577mm"
   viewBox="0 0 144.00332 117.71577"
   version="1.1"
   id="svg5"
   inkscape:version="1.1.1 (3bf5ae0d25, 2021-09-20)"
   sodipodi:docname="add-pictures.svg"
   xmlns:inkscape="http://www.inkscape.org/namespaces/inkscape"
   xmlns:sodipodi="http://sodipodi.sourceforge.net/DTD/sodipodi-0.dtd"
   xmlns="http://www.w3.org/2000/svg"
   xmlns:svg="http://www.w3.org/2000/svg">
  <sodipodi:namedview
     id="namedview7"
     pagecolor="#505050"
     bordercolor="#ffffff"
     borderopacity="1"
     inkscape:pageshadow="0"
     inkscape:pageopacity="0"
     inkscape:pagecheckerboard="1"
     inkscape:document-units="mm"
     showgrid="false"
     inkscape:zoom="0.7500982"
     inkscape:cx="428.61054"
     inkscape:cy="31.99581"
     inkscape:window-width="1920"
     inkscape:window-height="1046"
     inkscape:window-x="-11"
     inkscape:window-y="-11"
     inkscape:window-maximized="1"
     inkscape:current-layer="layer1" />
  <defs
     id="defs2" />
  <g
     inkscape:label="Calque 1"
     inkscape:groupmode="layer"
     id="layer1"
     transform="translate(-37.733418,-137.7275)">
    <g
       id="g955"
       transform="matrix(0.26458333,0,0,0.26458333,37.733418,124.15252)">
      <path
         style="fill:#e4eaf8"
         d="m 110.63,427.023 h 359.148 c 4.722,0 8.551,-3.829 8.551,-8.551 V 161.937 c 0,-4.722 -3.829,-8.551 -8.551,-8.551 H 110.63 c -4.722,0 -8.551,3.829 -8.551,8.551 v 256.534 c 0,4.723 3.829,8.552 8.551,8.552 z"
         id="path824" />
      <path
         style="fill:#c7cfe2"
         d="m 110.63,153.386 c -4.722,0 -8.551,3.829 -8.551,8.551 V 409.92 h 324.944 c 18.891,0 34.205,-15.314 34.205,-34.205 V 153.385 H 110.63 Z"
         id="path826" />
      <path
         style="fill:#e4eaf8"
         d="M 418.472,384.267 H 25.119 c -9.446,0 -17.102,-7.656 -17.102,-17.102 V 76.426 c 0,-9.446 7.656,-17.102 17.102,-17.102 h 393.353 c 9.446,0 17.102,7.656 17.102,17.102 v 290.739 c 0,9.446 -7.656,17.102 -17.102,17.102 z"
         id="path828" />
      <path
         style="fill:#4dd5ff"
         d="M 400.864,358.079 H 42.727 c -4.706,0 -8.522,-3.816 -8.522,-8.522 V 94.034 c 0,-4.706 3.816,-8.522 8.522,-8.522 h 358.137 c 4.706,0 8.522,3.816 8.522,8.522 v 255.523 c 0,4.706 -3.816,8.522 -8.522,8.522 z"
         id="path830" />
      <circle
         style="fill:#8be4ff"
         cx="102.079"
         cy="153.386"
         r="59.858002"
         id="circle832" />
      <circle
         style="fill:#ffffff"
         cx="102.079"
         cy="153.386"
         r="34.205002"
         id="circle834" />
      <path
         style="fill:#81deb6"
         d="m 225.106,191.115 c -6.656,-6.656 -17.446,-6.656 -24.102,0 l -164.4,164.401 c 1.542,1.542 3.673,2.496 6.025,2.496 H 281.226 V 247.235 Z"
         id="path836" />
      <path
         style="fill:#b4e66e"
         d="M 409.221,349.551 V 204.565 L 365.846,161.19 c -6.661,-6.661 -17.461,-6.661 -24.123,0 L 144.835,358.079 h 255.857 c 4.71,0 8.529,-3.818 8.529,-8.528 z"
         id="path838" />
      <path
         d="m 444.122,119.716 h -0.531 v -43.29 c 0,-13.851 -11.268,-25.119 -25.119,-25.119 H 25.119 C 11.268,51.307 0,62.575 0,76.426 v 290.739 c 0,13.851 11.268,25.119 25.119,25.119 h 43.29 v 0.534 c 0,4.427 3.589,8.017 8.017,8.017 4.428,0 8.017,-3.589 8.017,-8.017 v -0.534 h 334.029 c 13.851,0 25.119,-11.268 25.119,-25.119 V 135.749 h 0.531 c 4.427,0 8.017,-3.589 8.017,-8.017 0,-4.427 -3.59,-8.016 -8.017,-8.016 z m -25.65,256.535 H 25.119 c -5.01,0 -9.086,-4.076 -9.086,-9.086 V 76.426 c 0,-5.01 4.076,-9.086 9.086,-9.086 h 393.353 c 5.01,0 9.086,4.076 9.086,9.086 v 290.739 c -10e-4,5.01 -4.076,9.086 -9.086,9.086 z"
         id="path840" />
      <path
         d="m 381.025,444.66 h -17.004 c -4.427,0 -8.017,3.589 -8.017,8.017 0,4.427 3.589,8.017 8.017,8.017 h 17.004 c 4.427,0 8.017,-3.589 8.017,-8.017 0,-4.428 -3.589,-8.017 -8.017,-8.017 z"
         id="path842" />
      <path
         d="m 432.036,444.66 h -17.004 c -4.427,0 -8.017,3.589 -8.017,8.017 0,4.427 3.589,8.017 8.017,8.017 h 17.004 c 4.427,0 8.017,-3.589 8.017,-8.017 0,-4.428 -3.59,-8.017 -8.017,-8.017 z"
         id="path844" />
      <path
         d="m 84.443,435.574 v -8.695 c 0,-4.427 -3.589,-8.017 -8.017,-8.017 -4.428,0 -8.017,3.589 -8.017,8.017 v 8.698 c 0,4.081 1.005,8.138 2.903,11.729 1.438,2.719 4.218,4.271 7.094,4.271 1.263,0 2.545,-0.299 3.74,-0.931 3.914,-2.069 5.41,-6.92 3.34,-10.834 -0.692,-1.312 -1.043,-2.737 -1.043,-4.238 z"
         id="path846" />
      <path
         d="M 330.014,444.66 H 313.01 c -4.427,0 -8.017,3.589 -8.017,8.017 0,4.427 3.589,8.017 8.017,8.017 h 17.004 c 4.427,0 8.017,-3.589 8.017,-8.017 0,-4.428 -3.589,-8.017 -8.017,-8.017 z"
         id="path848" />
      <path
         d="m 503.983,152.202 c -4.427,0 -8.017,3.589 -8.017,8.017 v 17.004 c 0,4.427 3.589,8.017 8.017,8.017 4.427,0 8.017,-3.589 8.017,-8.017 v -17.004 c 0,-4.428 -3.589,-8.017 -8.017,-8.017 z"
         id="path850" />
      <path
         d="m 176.982,444.66 h -17.004 c -4.427,0 -8.017,3.589 -8.017,8.017 0,4.427 3.589,8.017 8.017,8.017 h 17.004 c 4.427,0 8.017,-3.589 8.017,-8.017 0,-4.428 -3.59,-8.017 -8.017,-8.017 z"
         id="path852" />
      <path
         d="m 227.993,444.66 h -17.004 c -4.427,0 -8.017,3.589 -8.017,8.017 0,4.427 3.589,8.017 8.017,8.017 h 17.004 c 4.427,0 8.017,-3.589 8.017,-8.017 0,-4.428 -3.59,-8.017 -8.017,-8.017 z"
         id="path854" />
      <path
         d="M 279.004,444.66 H 262 c -4.427,0 -8.017,3.589 -8.017,8.017 0,4.427 3.589,8.017 8.017,8.017 h 17.004 c 4.427,0 8.017,-3.589 8.017,-8.017 -0.001,-4.428 -3.59,-8.017 -8.017,-8.017 z"
         id="path856" />
      <path
         d="m 503.983,305.234 c -4.427,0 -8.017,3.589 -8.017,8.017 v 17.004 c 0,4.427 3.589,8.017 8.017,8.017 4.427,0 8.017,-3.589 8.017,-8.017 v -17.004 c 0,-4.427 -3.589,-8.017 -8.017,-8.017 z"
         id="path858" />
      <path
         d="m 503.983,407.256 c -4.427,0 -8.017,3.589 -8.017,8.017 v 17.004 c 0,4.427 3.589,8.017 8.017,8.017 4.427,0 8.017,-3.589 8.017,-8.017 v -17.004 c 0,-4.428 -3.589,-8.017 -8.017,-8.017 z"
         id="path860" />
      <path
         d="m 503.983,356.245 c -4.427,0 -8.017,3.589 -8.017,8.017 v 17.004 c 0,4.427 3.589,8.017 8.017,8.017 4.427,0 8.017,-3.589 8.017,-8.017 v -17.004 c 0,-4.428 -3.589,-8.017 -8.017,-8.017 z"
         id="path862" />
      <path
         d="m 125.971,444.66 h -17.004 c -4.427,0 -8.017,3.589 -8.017,8.017 0,4.427 3.589,8.017 8.017,8.017 h 17.004 c 4.427,0 8.017,-3.589 8.017,-8.017 0,-4.428 -3.589,-8.017 -8.017,-8.017 z"
         id="path864" />
      <path
         d="m 501.914,133.404 c 2.057,-3.921 0.545,-8.767 -3.376,-10.824 -3.573,-1.874 -7.604,-2.865 -11.657,-2.865 h -8.752 c -4.427,0 -8.017,3.589 -8.017,8.017 0,4.427 3.589,8.017 8.017,8.017 h 8.752 c 1.49,0 2.906,0.346 4.209,1.03 1.189,0.623 2.462,0.919 3.718,0.919 2.885,0 5.673,-1.562 7.106,-4.294 z"
         id="path866" />
      <path
         d="m 483.047,444.66 h -17.004 c -4.427,0 -8.017,3.589 -8.017,8.017 0,4.427 3.589,8.017 8.017,8.017 h 17.004 c 4.427,0 8.017,-3.589 8.017,-8.017 0,-4.428 -3.59,-8.017 -8.017,-8.017 z"
         id="path868" />
      <path
         d="m 503.983,203.213 c -4.427,0 -8.017,3.589 -8.017,8.017 v 17.003 c 0,4.427 3.589,8.017 8.017,8.017 4.427,0 8.017,-3.589 8.017,-8.017 V 211.23 c 0,-4.428 -3.589,-8.017 -8.017,-8.017 z"
         id="path870" />
      <path
         d="m 503.983,254.223 c -4.427,0 -8.017,3.589 -8.017,8.017 v 17.004 c 0,4.427 3.589,8.017 8.017,8.017 4.427,0 8.017,-3.589 8.017,-8.017 V 262.24 c 0,-4.427 -3.589,-8.017 -8.017,-8.017 z"
         id="path872" />
      <path
         d="m 372.1,155.535 c -4.744,-4.744 -11.051,-7.357 -17.762,-7.357 -6.711,0 -13.018,2.613 -17.762,7.357 L 181.922,310.19 c -3.131,3.131 -3.131,8.206 0,11.337 3.131,3.131 8.207,3.131 11.337,0 L 347.914,166.873 c 1.716,-1.716 3.998,-2.662 6.424,-2.662 2.426,0 4.708,0.945 6.424,2.662 l 32.591,32.591 V 342.047 H 61.575 L 206.82,196.801 c 1.716,-1.716 3.998,-2.662 6.424,-2.662 2.426,0 4.708,0.945 6.424,2.662 l 22.112,22.111 c 3.131,3.131 8.207,3.131 11.337,0 3.131,-3.131 3.131,-8.207 0,-11.337 l -22.112,-22.111 c -4.744,-4.744 -11.051,-7.357 -17.762,-7.357 -6.711,0 -13.018,2.613 -17.762,7.357 L 36.553,344.394 c -2.293,2.293 -2.979,5.741 -1.738,8.736 1.241,2.995 4.164,4.949 7.406,4.949 H 401.37 c 4.427,0 8.017,-3.589 8.017,-8.017 v -153.92 c 0,-2.126 -0.844,-4.165 -2.348,-5.668 z"
         id="path874" />
      <path
         d="m 102.079,195.608 c 23.281,0 42.221,-18.941 42.221,-42.221 0,-23.28 -18.941,-42.221 -42.221,-42.221 -23.28,0 -42.221,18.941 -42.221,42.221 0,23.28 18.941,42.221 42.221,42.221 z m 0,-68.41 c 14.44,0 26.188,11.748 26.188,26.188 0,14.44 -11.748,26.188 -26.188,26.188 -14.44,0 -26.188,-11.748 -26.188,-26.188 0,-14.439 11.749,-26.188 26.188,-26.188 z"
         id="path876" />
      <g
         id="g878">
</g>
      <g
         id="g880">
</g>
      <g
         id="g882">
</g>
      <g
         id="g884">
</g>
      <g
         id="g886">
</g>
      <g
         id="g888">
</g>
      <g
         id="g890">
</g>
      <g
         id="g892">
</g>
      <g
         id="g894">
</g>
      <g
         id="g896">
</g>
      <g
         id="g898">
</g>
      <g
         id="g900">
</g>
      <g
         id="g902">
</g>
      <g
         id="g904">
</g>
      <g
         id="g906">
</g>
    </g>
    <g
       id="layer1-7"
       transform="matrix(8.6516918,0,0,8.6516918,-330.95665,-959.1469)">
      <g
         id="_51.Add"
         data-name="51.Add"
         transform="matrix(0.26458333,0,0,0.26458333,52.909323,134.03759)"
         style="fill:#ef0502;fill-opacity:1;stroke:none;stroke-opacity:1">
        <path
           d="M 12,24 A 12,12 0 1 1 24,12 12.013,12.013 0 0 1 12,24 Z M 12,2 A 10,10 0 1 0 22,12 10.011,10.011 0 0 0 12,2 Z"
           id="path826-8"
           style="fill:#ef0502;fill-opacity:1;stroke:none;stroke-opacity:1" />
        <rect
           x="11"
           y="6"
           width="2"
           height="12"
           id="rect828"
           style="fill:#ef0502;fill-opacity:1;stroke:none;stroke-opacity:1" />
        <rect
           x="6"
           y="11"
           width="12"
           height="2"
           id="rect830"
           style="fill:#ef0502;fill-opacity:1;stroke:none;stroke-opacity:1" />
      </g>
      <path
         style="fill:#ffffff;fill-opacity:1;stroke:none;stroke-width:0.132938;stroke-opacity:1"
         d="m 55.91914,139.84657 c -0.935856,-0.0618 -1.772182,-0.62316 -2.186372,-1.46755 -0.185197,-0.37756 -0.271503,-0.74592 -0.272007,-1.16095 -5.27e-4,-0.43874 0.0901,-0.81601 0.290906,-1.21099 0.34873,-0.68593 0.999238,-1.19368 1.751557,-1.36717 0.353942,-0.0816 0.792892,-0.0858 1.132071,-0.0107 0.98821,0.21868 1.759358,0.96302 2.006202,1.93647 0.05638,0.22233 0.07914,0.40841 0.07914,0.64691 0,0.42174 -0.08476,0.78618 -0.271294,1.16646 -0.468916,0.95596 -1.471496,1.53747 -2.530203,1.46756 z m 0.435788,-1.70257 v -0.66689 h 0.665181 0.665179 v -0.26455 -0.26455 h -0.665179 -0.665181 v -0.66689 -0.66689 h -0.263871 -0.263873 v 0.66689 0.66689 h -0.665182 -0.665179 v 0.26455 0.26455 h 0.665179 0.665182 v 0.66689 0.66689 h 0.263873 0.263871 z"
         id="path2162" />
    </g>
    <path
       style="fill:#ffffff;stroke-width:4.02467"
       d="m 433.40451,426.93879 c -16.39319,-1.59519 -31.1262,-7.28302 -44.21791,-17.07077 -4.64706,-3.47428 -12.62978,-11.27695 -15.98507,-15.62455 -3.59722,-4.66107 -6.79394,-9.79458 -9.41948,-15.12644 -4.10331,-8.33289 -6.16361,-14.49459 -7.74527,-23.16364 -0.81828,-4.48503 -0.88292,-5.52804 -0.89847,-14.4981 -0.0134,-7.74924 0.10267,-10.42526 0.58567,-13.49823 0.74819,-4.76031 2.15326,-10.41797 3.72473,-14.99804 1.65708,-4.82955 6.60796,-14.72149 9.67501,-19.3308 14.04217,-21.10327 36.58579,-35.08767 61.31992,-38.03836 4.66402,-0.5564 17.03032,-0.55345 21.16389,0.005 18.53021,2.50367 35.89324,11.06557 49.26116,24.29123 13.57816,13.43367 22.25735,30.80759 24.92968,49.90401 0.68028,4.86131 0.77224,16.44185 0.16937,21.33054 -3.11894,25.29168 -17.07775,47.88982 -38.1671,61.78933 -10.83314,7.13988 -22.1415,11.47225 -34.97451,13.39915 -5.04453,0.75744 -14.84346,1.07511 -19.42162,0.62962 z m 16.13995,-55.07081 -0.10331,-21.74716 21.74715,-0.0857 21.74716,-0.0857 v -8.82976 -8.82977 h -21.66142 -21.66142 l -0.0857,-21.74715 -0.0857,-21.74715 -8.74885,-0.0889 -8.74886,-0.0888 v 21.83601 21.836 h -21.83047 -21.83048 v 8.83218 8.83218 h 21.83048 21.83047 v 21.83047 21.83048 h 8.85216 8.85216 z"
       id="path1063"
       transform="matrix(0.26458333,0,0,0.26458333,37.733418,137.7275)" />
    <path
       style="fill:#ffffff;stroke-width:4.02467"
       d="m 435.10969,427.05562 c -21.99493,-1.81001 -40.93348,-10.62174 -55.8445,-25.98333 -6.62821,-6.82849 -11.38585,-13.60811 -15.64115,-22.28855 -3.01131,-6.14283 -4.53366,-10.09364 -5.97177,-15.49797 -1.91799,-7.20773 -2.43006,-11.1002 -2.6088,-19.83074 -0.24489,-11.96203 0.74074,-19.21121 3.94247,-28.9962 2.00775,-6.13604 6.53696,-15.44813 10.13402,-20.83566 13.96552,-20.91696 35.85157,-34.67236 60.3077,-37.90345 5.04431,-0.66644 17.69645,-0.73982 22.17987,-0.12863 29.59497,4.03443 55.63113,23.54267 67.45576,50.54291 5.06674,11.56934 7.28654,22.09985 7.30511,34.65471 0.0149,10.10454 -1.05274,17.42462 -3.78901,25.97766 -7.43467,23.23927 -23.77606,41.95336 -45.67612,52.30806 -12.76798,6.0369 -28.62425,9.06493 -41.79358,7.98119 z m 14.30232,-55.27097 -0.2405,-21.83047 h 21.88197 21.88198 V 341.122 332.28982 H 471.27163 449.6078 l -3.4e-4,-6.08253 c -2.1e-4,-3.3454 -0.0997,-13.16911 -0.22104,-21.83048 l -0.22069,-15.74794 h -8.61115 -8.61114 v 21.83048 21.83047 h -21.83047 -21.83048 v 8.83218 8.83218 h 21.83048 21.83047 v 21.83047 21.83048 h 8.85454 8.85454 z"
       id="path1102"
       transform="matrix(0.26458333,0,0,0.26458333,37.733418,137.7275)" />
    <path
       style="fill:#ffffff;stroke-width:4.02467"
       d=""
       id="path1141"
       transform="matrix(0.26458333,0,0,0.26458333,37.733418,137.7275)" />
  </g>
</svg>
