<svg xmlns="http://www.w3.org/2000/svg" viewBox="0 0 1000 1000" xml:space="preserve"><path d="M38.61 14.28c-12.25 5.51-24.5 21.74-27.25 36.13-4.59 25.11-8.57 20.51 212.5 242.2l206.99 207.3-207.3 207.6C109.65 821.42 15.03 917.87 13.19 921.55c-4.9 9.8-3.98 30.62 1.53 42.56 9.49 19.9 39.19 30.93 61.24 22.66 4.59-1.84 102.27-96.15 217.09-209.75l208.52-206.38L706.74 776.1c117.89 117.89 209.13 206.99 214.64 209.44 41.64 18.07 83.59-26.64 63.38-67.06C982 912.97 888 816.51 775.63 704.14L571.7 499.3l205.77-203.93C999.15 74.91 993.34 81.64 988.44 54.7c-5.51-29.7-42.56-47.46-70.12-33.68-5.51 2.75-101.05 96.15-212.5 207.3l-203.01 202.7-205.77-205.77C183.74 112.26 86.68 17.65 81.17 14.89c-11.94-5.82-29.7-6.12-42.56-.61z"/></svg>