<?xml version="1.0" encoding="UTF-8" standalone="no"?>
<svg
   viewBox="0 0 24 24"
   fill="none"
   stroke="currentColor"
   stroke-width="2"
   stroke-linecap="round"
   stroke-linejoin="round"
   class="feather feather-search"
   version="1.1"
   id="svg6"
   sodipodi:docname="search-groupe-friends.svg"
   inkscape:version="1.1.1 (3bf5ae0d25, 2021-09-20)"
   xmlns:inkscape="http://www.inkscape.org/namespaces/inkscape"
   xmlns:sodipodi="http://sodipodi.sourceforge.net/DTD/sodipodi-0.dtd"
   xmlns="http://www.w3.org/2000/svg"
   xmlns:svg="http://www.w3.org/2000/svg">
  <defs
     id="defs10">
    <clipPath
       clipPathUnits="userSpaceOnUse"
       id="clipPath182">
      <path
         id="path184"
         style="fill:#ff0000;fill-opacity:1;fill-rule:nonzero;stroke:none"
         d="M 15.650391,15.650391 V 22 H 22 v -6.349609 z" />
    </clipPath>
    <clipPath
       clipPathUnits="userSpaceOnUse"
       id="clipPath1575">
      <path
         id="path1577"
         style="fill:#ff0000;fill-opacity:1;fill-rule:nonzero;stroke:none"
         d="m 2,2 v 18 h 18 v -8.546875 c -0.342501,7.7e-5 -0.685167,2.27e-4 -1.027344,0 -0.295917,-10e-5 -0.590812,-0.0016 -0.886718,0 -0.437913,-0.0014 -0.876541,-0.0027 -1.314454,-0.0039 -0.07623,-2e-4 -0.294684,-6.82e-4 -0.365234,0.002 -0.04013,0.0014 -0.08104,0.0049 -0.121094,0.0078 -0.125491,0.0061 -0.196464,0.01466 -0.316406,0.0078 -0.329125,-0.01852 -0.653762,-0.0888 -0.984375,-0.07617 -1.514756,0.05785 -1.514124,-1.458712 0,-1.53125 0.04615,-0.00221 0.09266,-0.00243 0.138672,-0.00195 0.180647,0.00189 0.361213,0.020655 0.541015,0.041016 0.01363,-0.011714 0.02438,-0.023625 0.03906,-0.035156 0.09718,-0.1195573 0.247598,-0.2303085 0.466797,-0.3085937 0.05534,-0.019763 0.09267,-0.031617 0.130859,-0.044922 5.8e-4,-0.00667 0.0011,-0.012814 0.002,-0.019531 C 15.833239,9.6924664 15.43339,9.273274 15.726606,8.6933933 15.10787,8.6742523 14.860643,8.048005 15.376997,7.5430027 c -0.01244,-0.023364 -0.02027,-0.052548 -0.03125,-0.078125 -0.209721,-0.022113 -0.377775,-0.085943 -0.5,-0.1777344 0.0059,0.048673 -0.0021,0.045596 -0.02734,-0.023437 C 14.625258,7.1029745 14.560472,6.8755635 14.628906,6.6601562 L 14.386719,5.8691406 c -0.07807,-0.046609 -0.1466,-0.08911 -0.253907,-0.1484375 -0.02848,0.053776 -0.0599,0.1061196 -0.08789,0.1601563 -0.579209,1.1181129 -1.136617,2.2464972 -1.695313,3.375 -0.414612,0.8374676 -0.872288,1.6559636 -1.224609,2.5214846 -0.318389,0.782163 -0.522493,1.606924 -0.783203,2.410156 -0.05924,0.376338 -0.123804,0.751771 -0.177735,1.128906 -8.35e-4,0.0058 -0.0011,0.01174 -0.002,0.01758 0.216047,-0.179222 0.287307,-0.244415 0.0059,0.08984 -0.0079,0.328884 -0.0082,0.535486 -0.08203,0.654297 0.003,0.0046 0.0062,0.0087 0.002,0.0078 -0.0022,-4.62e-4 -0.0037,-0.0015 -0.0059,-0.002 -0.1259628,0.191069 -0.4600357,0.156292 -1.3886716,0.07617 -0.090602,-0.0078 -0.011808,-0.182847 -0.00391,-0.273437 0.013014,-0.148374 0.028041,-0.297525 0.046875,-0.445313 v -0.002 c -0.0067,-0.02781 -0.00805,-0.05156 0.00977,-0.0625 0.012733,-0.09608 0.026372,-0.191326 0.041016,-0.287109 C 8.8554814,14.64427 8.939471,14.199421 9.015625,13.753906 9.3000452,12.892055 9.5268311,12.008508 9.8691406,11.167969 10.223885,10.296897 10.684109,9.4717243 11.101562,8.6289062 11.286746,8.2550365 11.472507,7.8814546 11.658203,7.5078125 11.359868,7.3906374 11.10938,7.0251768 11.109375,6.4121094 V 6.3574219 6.2363281 c -0.07797,-0.1727691 -0.125,-0.3917886 -0.125,-0.6582031 V 4.8261719 4.7050781 4.6367188 c -0.0046,-0.06188 -0.0092,-0.1238297 -0.01367,-0.1855469 -0.0036,0.036852 -0.006,0.074416 -0.0078,0.1113281 -5.78e-4,0.011842 0.0014,0.034105 0.0059,0.056641 -0.0035,-0.014657 0.0015,0.00525 -0.01953,-0.074219 -0.006,-0.07465 -0.01383,-0.1479867 -0.01953,-0.2226563 -0.0021,-0.00584 -0.0043,-0.011539 -0.0059,-0.017578 -0.04494,-0.1771342 -0.06905,-0.262172 -0.06445,-0.4140625 V 3.6386719 3.375 3.1035156 2.8183594 2.359375 c -7.33e-4,-0.00265 -0.0012,-0.00513 -0.002,-0.00781 -0.0117,-0.042206 -0.0037,-0.087074 -0.0039,-0.1308594 -3e-4,-0.064526 0.0036,-0.1289255 0.0059,-0.1933593 V 2.0019531 2 Z m 8.167969,13.423828 c 2.44e-4,-0.01013 -2.65e-4,-0.01697 0,-0.02734 -0.0035,-0.01537 -0.0046,-0.02453 -0.0078,-0.03906 -0.0041,0.02929 -0.0078,0.05858 -0.01172,0.08789 0.0013,-0.0015 0.0026,-0.0024 0.0039,-0.0039 0.0084,-0.0099 0.0078,-0.0083 0.01563,-0.01758 z m -0.0078,-0.06641 c 0.0011,-0.0078 2.88e-4,-0.01567 0.002,-0.02344 -0.0025,0.0021 -0.0033,0.0037 -0.0059,0.0059 0.0014,0.0064 0.0025,0.01101 0.0039,0.01758 z M 16.119141,2 c -0.0228,0.064892 -0.04452,0.1303068 -0.07617,0.1914062 -0.09996,0.1929548 -0.202647,0.3842241 -0.304688,0.5761719 0.169667,0.02004 0.337139,0.057491 0.476563,0.1054688 0.07956,0.027378 0.155982,0.061238 0.234375,0.091797 0.165979,0.075688 0.174098,0.072067 0.347656,0.1894531 0.04399,0.029733 0.08095,0.068012 0.125,0.097656 0.0081,0.00547 -0.01281,-0.014074 -0.01563,-0.023437 -8e-4,-0.00264 0.0055,-0.00156 0.0078,0 0.0918,0.063352 0.182588,0.1286474 0.273438,0.1933594 0.160488,0.2066569 0.220666,0.2459817 0.238281,0.5039062 0.0585,0.1095323 0.07564,0.2047473 0.113281,0.3886719 0.03217,0.1571834 -0.02114,0.088598 0.02148,0.1386719 0.0027,0.00761 0.0053,0.01572 0.0078,0.023437 0.07028,-0.00448 0.14225,0.00433 0.212891,0.00586 0.138751,0.003 0.277352,0.011788 0.416016,0.017578 0.0099,0.00131 0.02364,0.00352 0.05469,0.00781 0.05104,0.00818 0.06039,0.00723 0.04297,0.015625 0.301709,-0.133595 0.349067,0.1012345 0.439453,0.5546875 0.03497,-0.00862 0.06968,-0.016169 0.105469,-0.017578 0.0418,-0.00165 0.08043,-0.00174 0.117187,-0.00195 0.245627,-0.00143 0.382694,0.03452 0.462891,0.1660156 C 19.635959,5.1008944 19.867422,4.9692198 20,4.8925781 V 2 Z M 14.09375,2.060547 c -0.01503,0.00175 -0.04496,0.00663 -0.08008,0.013672 3.2e-4,0.00477 0.0014,0.00898 0.002,0.013672 0.02432,-0.00379 0.04773,-0.00843 0.07031,-0.017578 0.02219,-0.00899 0.02284,-0.011519 0.0078,-0.00977 z m 2.669922,1.9941406 c 0.0097,0.00292 0.01959,0.00485 0.0293,0.00781 -0.007,-0.00622 -0.01728,-0.0079 -0.0293,-0.00781 z m 0.605469,0.2558594 c -0.0102,0.024917 -0.02106,0.049114 -0.0293,0.074219 -0.01425,0.04345 0.0065,-0.00623 0.0293,-0.074219 z m -4.457032,0.5605469 c -0.39887,0.067035 -0.220513,0.2023175 -0.349609,0.023437 0.0066,0.025307 0.01482,0.050246 0.01953,0.076172 0.01136,0.062286 0.0075,0.1262875 0.01172,0.1894531 0.0082,-0.046855 0.01262,0.00991 0.01563,0.072266 0.0016,0.00546 0.0036,0.00991 0.0059,0.017578 0.02366,0.1004165 0.03332,0.2028797 0.0293,0.3046875 0.05922,-0.1155207 0.116054,-0.2323575 0.175781,-0.3476563 0.05416,-0.1045452 0.112216,-0.2069343 0.167969,-0.3105468 -0.05094,0.00546 -0.101609,0.011202 -0.152343,0.019531 -0.0056,9.147e-4 0.01842,0.00253 0.03906,0.00391 -0.0335,-0.00106 -0.05159,-0.00171 -0.0918,-0.00195 -0.01037,-6.26e-5 -0.04095,0.00363 -0.03125,0 0.05208,-0.01948 0.214996,-0.056095 0.160156,-0.046875 z m 1.640625,1.09375 c 0.04288,0.1796566 0.08255,0.3500427 0.132813,0.5683593 0.0015,-0.0025 0.0024,-0.00533 0.0039,-0.00781 L 14.554688,5.9648438 Z M 20,6.5019531 C 19.784006,6.6261746 19.444027,6.820213 19.240234,6.9375 19.356882,6.8838461 19.461737,6.8354978 19.642578,6.7519531 19.761468,6.6970287 19.881689,6.6424538 20,6.5859375 Z M 8.9023438,15.941406 c 0.1031282,0.233359 0.294733,0.357996 0.6933593,0.05469 -0.1969717,-0.02877 -0.3398064,-0.03889 -0.4589843,-0.04492 -0.059114,0.0092 -0.1136066,0.0066 -0.1621094,-0.0078 -0.029868,-5.66e-4 -0.049051,-0.0015 -0.072266,-0.002 z" />
    </clipPath>
  </defs>
  <sodipodi:namedview
     id="namedview8"
     pagecolor="#505050"
     bordercolor="#ffffff"
     borderopacity="1"
     inkscape:pageshadow="0"
     inkscape:pageopacity="0"
     inkscape:pagecheckerboard="1"
     showgrid="false"
     inkscape:zoom="32"
     inkscape:cx="9.859375"
     inkscape:cy="10.4375"
     inkscape:window-width="1920"
     inkscape:window-height="1046"
     inkscape:window-x="-11"
     inkscape:window-y="-11"
     inkscape:window-maximized="1"
     inkscape:current-layer="g620" />
  <circle
     cx="11"
     cy="11"
     r="8"
     id="circle2"
     clip-path="url(#clipPath1575)" />
  <line
     x1="21"
     y1="21"
     x2="16.65"
     y2="16.65"
     id="line4"
     clip-path="url(#clipPath182)" />
  <g
     style="fill:none;stroke:currentColor;stroke-width:2;stroke-linecap:round;stroke-linejoin:round"
     id="g620"
     transform="matrix(0.34813594,0,0,0.34813594,13.009854,1.6811957)">
    <line
       x1="7.7362537"
       y1="2.2429469"
       x2="7.7362537"
       y2="23.502657"
       id="line608"
       style="stroke:#000000;stroke-width:4.34451;stroke-miterlimit:4;stroke-dasharray:none;stroke-opacity:1" />
    <line
       x1="-2.8935997"
       y1="12.872801"
       x2="18.366112"
       y2="12.872801"
       id="line610"
       style="stroke:#000000;stroke-width:4.34451;stroke-miterlimit:4;stroke-dasharray:none;stroke-opacity:1" />
  </g>
</svg>
