<?xml version="1.0" encoding="UTF-8" standalone="no"?>
<svg
   viewBox="0 0 64 64"
   version="1.1"
   id="svg7"
   sodipodi:docname="community-filled.svg"
   inkscape:version="1.2 (dc2aedaf03, 2022-05-15)"
   xmlns:inkscape="http://www.inkscape.org/namespaces/inkscape"
   xmlns:sodipodi="http://sodipodi.sourceforge.net/DTD/sodipodi-0.dtd"
   xmlns="http://www.w3.org/2000/svg"
   xmlns:svg="http://www.w3.org/2000/svg">
  <defs
     id="defs11" />
  <sodipodi:namedview
     id="namedview9"
     pagecolor="#ffffff"
     bordercolor="#666666"
     borderopacity="1.0"
     inkscape:showpageshadow="2"
     inkscape:pageopacity="0.0"
     inkscape:pagecheckerboard="0"
     inkscape:deskcolor="#d1d1d1"
     showgrid="false"
     inkscape:zoom="11.625"
     inkscape:cx="24.516129"
     inkscape:cy="41.935484"
     inkscape:window-width="1890"
     inkscape:window-height="1013"
     inkscape:window-x="15"
     inkscape:window-y="1492"
     inkscape:window-maximized="1"
     inkscape:current-layer="Layer_27" />
  <title
     id="title2">2</title>
  <g
     id="Layer_27"
     data-name="Layer 27">
    <path
       d="M62,41.42A20,20,0,0,0,50,23.08,10.24,10.24,0,1,0,34.7,9.78a10.72,10.72,0,0,0-5.4,0A10.24,10.24,0,1,0,14,23.08,20,20,0,0,0,2,41.42c0,3.74,3.35,6.52,9.48,7.94.07,2.27,1.39,5.33,7.09,7.43a40.28,40.28,0,0,0,13.42,2c9.37,0,20.28-2.49,20.5-9.46C58.63,48,62,45.16,62,41.42ZM43.25,9.17a6.25,6.25,0,0,1,0,12.5l-.21,0c0-.37.06-.74.06-1.11a11.1,11.1,0,0,0-4.7-9.06A6.25,6.25,0,0,1,43.25,9.17ZM39.1,20.54A7.11,7.11,0,0,1,25.47,23.4a2,2,0,0,0-.16-.41l-.06-.17c0-.06,0-.13,0-.19s0-.08-.06-.12a7.08,7.08,0,0,1,3.93-8.45l.06,0,.1-.06a7.11,7.11,0,0,1,9.86,6.56ZM14.5,15.42a6.25,6.25,0,0,1,11.09-3.95,11.1,11.1,0,0,0-4.72,9.07c0,.38,0,.75.06,1.11h-.18A6.26,6.26,0,0,1,14.5,15.42ZM6,41.42C6,33,12.89,25.67,20.75,25.67c.47,0,.95,0,1.42.07a11.18,11.18,0,0,0,2.68,3.31,21.78,21.78,0,0,0-13,16.27C8.23,44.4,6,42.94,6,41.42ZM32,54.83c-9.1,0-16.51-2.54-16.51-5.67,0-.34,0-.68.05-1v0a2,2,0,0,0,0-.51c.81-8.65,8.13-15.93,16.43-15.93,8.79,0,16.51,8.18,16.51,17.51C48.49,52.29,41.09,54.83,32,54.83Zm20.16-9.49a21.78,21.78,0,0,0-13-16.28,11.18,11.18,0,0,0,2.68-3.31c.49,0,1-.08,1.46-.08C51.11,25.67,58,33,58,41.42,58,42.95,55.76,44.41,52.14,45.34Z"
       id="path4"
       style="fill:none" />
    <path
       style="fill:#086788;fill-opacity:1;stroke-width:0.0860215;stroke-opacity:0.329588;paint-order:stroke markers fill"
       d="M 11.569892,45.205097 C 9.8762344,44.656204 9.4047092,44.489195 8.9019796,44.260151 8.0238065,43.860053 7.2171047,43.326309 6.7730288,42.851556 6.0453741,42.073634 5.9562364,41.715677 6.102836,40.160208 6.7572193,33.216992 11.77437,27.344683 18.222919,25.974294 c 0.881237,-0.187272 3.673287,-0.328757 3.845912,-0.194887 0.04969,0.03853 0.21922,0.282959 0.376744,0.543174 0.432299,0.714115 1.31478,1.814955 1.832789,2.286287 l 0.461325,0.419756 -0.9935,0.481675 c -5.936337,2.878091 -10.294953,8.379647 -11.73471,14.811851 -0.185847,0.830284 -0.244182,0.946923 -0.441587,0.882947 z"
       id="path1896" />
    <path
       style="fill:#086788;fill-opacity:1;stroke-width:0.0860215;stroke-opacity:0.329588;paint-order:stroke markers fill"
       d="m 29.11828,54.706666 c -4.329446,-0.298 -7.934728,-1.086211 -10.4407,-2.282614 -1.594056,-0.761036 -2.510857,-1.518318 -2.938177,-2.426947 -0.178644,-0.379859 -0.187981,-0.490654 -0.146559,-1.73904 0.134929,-4.066462 1.983092,-8.236728 5.046278,-11.386615 1.462026,-1.503407 2.833522,-2.538408 4.484308,-3.384085 3.750764,-1.921473 7.732699,-2.236328 11.556843,-0.91381 4.194455,1.450584 7.746758,4.640899 9.866313,8.860908 1.160525,2.310592 1.885788,5.211325 1.882681,7.529889 -0.0014,1.035634 -0.475602,1.814317 -1.586172,2.604568 -2.059084,1.465188 -5.842587,2.555199 -10.455998,3.012329 -1.616657,0.16019 -5.732009,0.231197 -7.268817,0.125417 z"
       id="path1898" />
    <path
       style="fill:#086788;fill-opacity:1;stroke-width:0.0860215;stroke-opacity:0.329588;paint-order:stroke markers fill"
       d="m 52.180945,45.139785 c -0.01579,-0.05914 -0.165166,-0.668846 -0.331948,-1.354902 -0.39105,-1.608586 -0.774861,-2.644136 -1.610042,-4.344023 -2.120651,-4.316266 -5.604827,-7.78638 -9.957484,-9.917292 l -0.96584,-0.472842 0.720768,-0.757404 c 0.629696,-0.661702 1.674467,-2.071082 1.788183,-2.412228 0.03125,-0.09376 0.34342,-0.116698 1.537425,-0.112951 1.216266,0.0038 1.668183,0.04114 2.401434,0.198351 2.973452,0.637499 5.457073,2.062632 7.703123,4.420149 1.821797,1.912208 3.126399,4.183972 3.865767,6.731637 0.544057,1.874677 0.770249,4.424793 0.445319,5.02059 -0.586213,1.074893 -2.068656,2.015969 -4.361928,2.769011 -1.146245,0.376393 -1.193814,0.385328 -1.234777,0.231904 z"
       id="path1900" />
    <path
       style="fill:#086788;fill-opacity:1;stroke-width:0.0860215;stroke-opacity:0.329588;paint-order:stroke markers fill"
       d="m 43.104841,20.494624 c -0.0015,-0.603226 -0.06166,-1.432424 -0.133684,-1.842662 -0.455134,-2.592304 -1.832969,-4.987614 -3.802833,-6.611071 L 38.46108,11.458018 38.956487,10.98548 c 1.249645,-1.1919587 2.621788,-1.7384538 4.355341,-1.7346384 1.077662,0.00237 1.838116,0.1906687 2.795699,0.6922463 1.247334,0.6533481 2.069694,1.5136761 2.706161,2.8311061 0.488705,1.011576 0.603547,1.52057 0.601667,2.666666 -0.0019,1.137399 -0.152445,1.774817 -0.660439,2.795699 -0.505682,1.016238 -1.611792,2.135487 -2.622725,2.653881 -0.825899,0.423511 -1.826371,0.700958 -2.527651,0.700958 h -0.496972 l -0.0027,-1.096774 z"
       id="path1902" />
    <path
       style="fill:#086788;fill-opacity:1;stroke-width:0.0860215;stroke-opacity:0.329588;paint-order:stroke markers fill"
       d="m 30.572016,27.490483 c -1.831198,-0.417306 -3.499312,-1.55924 -4.470279,-3.060201 -0.476156,-0.736062 -0.654089,-1.147494 -0.895352,-2.070309 -0.452016,-1.728931 -0.281132,-3.345222 0.526261,-4.977587 0.398396,-0.805467 0.548681,-1.008602 1.316458,-1.779408 0.779396,-0.782471 0.957631,-0.914168 1.769024,-1.307119 1.323562,-0.64099 1.781932,-0.744879 3.267894,-0.740661 1.125264,0.0032 1.318856,0.02692 1.978494,0.242434 2.324861,0.759582 4.015917,2.465576 4.744805,4.786718 0.173291,0.551844 0.201037,0.815707 0.198606,1.888768 -0.0031,1.381091 -0.104607,1.882738 -0.603378,2.982766 -0.498444,1.099302 -1.272224,2.056953 -2.258841,2.795601 -0.559409,0.41881 -1.68855,0.964938 -2.382267,1.152223 -0.711149,0.19199 -2.514553,0.241024 -3.191425,0.08677 z"
       id="path1904" />
    <path
       style="fill:#086788;fill-opacity:1;stroke-width:0.0860215;stroke-opacity:0.329588;paint-order:stroke markers fill"
       d="m 19.483871,21.463907 c -2.003146,-0.441719 -3.71888,-1.870744 -4.47232,-3.724971 -1.227003,-3.019675 0.134148,-6.492551 3.095976,-7.8991475 2.340394,-1.1114727 5.004029,-0.6878838 6.865101,1.0917335 l 0.532748,0.509431 -0.344086,0.272004 c -0.66317,0.524243 -1.982399,1.928117 -2.393876,2.547474 -0.860801,1.29568 -1.533325,2.955305 -1.785522,4.406236 -0.06168,0.354838 -0.114286,1.157953 -0.116909,1.7847 l -0.0048,1.139539 -0.430107,-0.0066 c -0.23656,-0.0036 -0.662366,-0.05781 -0.946237,-0.120406 z"
       id="path1906" />
  </g>
</svg>
