<?xml version="1.0" encoding="UTF-8" standalone="no"?>
<!-- Created with Inkscape (http://www.inkscape.org/) -->

<svg
   width="50mm"
   height="53mm"
   viewBox="0 0 50 53"
   version="1.1"
   id="svg5"
   inkscape:version="1.1.1 (3bf5ae0d25, 2021-09-20)"
   sodipodi:docname="filter-test.svg"
   xmlns:inkscape="http://www.inkscape.org/namespaces/inkscape"
   xmlns:sodipodi="http://sodipodi.sourceforge.net/DTD/sodipodi-0.dtd"
   xmlns="http://www.w3.org/2000/svg"
   xmlns:svg="http://www.w3.org/2000/svg">
  <sodipodi:namedview
     id="namedview7"
     pagecolor="#505050"
     bordercolor="#ffffff"
     borderopacity="1"
     inkscape:pageshadow="0"
     inkscape:pageopacity="0"
     inkscape:pagecheckerboard="1"
     inkscape:document-units="mm"
     showgrid="false"
     inkscape:zoom="0.7500982"
     inkscape:cx="288.62887"
     inkscape:cy="91.987955"
     inkscape:window-width="1920"
     inkscape:window-height="1046"
     inkscape:window-x="-11"
     inkscape:window-y="-11"
     inkscape:window-maximized="1"
     inkscape:current-layer="layer1" />
  <defs
     id="defs2" />
  <g
     inkscape:label="Calque 1"
     inkscape:groupmode="layer"
     id="layer1"
     transform="translate(-28.6583,-124.3872)">
    <g
       id="g941"
       transform="matrix(1.9230769,0,0,1.8928571,22.889069,120.60149)"
       style="fill:#ffffff;fill-opacity:1">
	<path
   d="m 4,7 h 5 c 0,0 0.1,0 0.1,0 0.4,1.7 2,3 3.9,3 1.9,0 3.4,-1.3 3.9,-3 0,0 0.1,0 0.1,0 H 28 C 28.6,7 29,6.6 29,6 29,5.4 28.6,5 28,5 H 17 C 17,5 16.9,5 16.9,5 16.5,3.3 14.9,2 13,2 11.1,2 9.6,3.3 9.1,5 9.1,5 9,5 9,5 H 4 C 3.4,5 3,5.4 3,6 3,6.6 3.4,7 4,7 Z"
   id="path935"
   style="fill:#ffffff;fill-opacity:1" />

	<path
   d="m 28,15 h -4 c 0,0 -0.1,0 -0.1,0 -0.4,-1.7 -2,-3 -3.9,-3 -1.9,0 -3.4,1.3 -3.9,3 0,0 -0.1,0 -0.1,0 H 4 c -0.6,0 -1,0.4 -1,1 0,0.6 0.4,1 1,1 h 12 c 0,0 0.1,0 0.1,0 0.4,1.7 2,3 3.9,3 1.9,0 3.4,-1.3 3.9,-3 0,0 0.1,0 0.1,0 h 4 c 0.6,0 1,-0.4 1,-1 0,-0.6 -0.4,-1 -1,-1 z"
   id="path937"
   style="fill:#ffffff;fill-opacity:1" />

	<path
   d="M 28,25 H 17 c 0,0 -0.1,0 -0.1,0 -0.4,-1.7 -2,-3 -3.9,-3 -1.9,0 -3.4,1.3 -3.9,3 0,0 -0.1,0 -0.1,0 H 4 c -0.6,0 -1,0.4 -1,1 0,0.6 0.4,1 1,1 h 5 c 0,0 0.1,0 0.1,0 0.4,1.7 2,3 3.9,3 1.9,0 3.4,-1.3 3.9,-3 0,0 0.1,0 0.1,0 h 11 c 0.6,0 1,-0.4 1,-1 0,-0.6 -0.4,-1 -1,-1 z"
   id="path939"
   style="fill:#ffffff;fill-opacity:1" />

</g>
  </g>
  <style
     type="text/css"
     id="style2255">
	.st0{fill:none;stroke:#000000;stroke-width:2;stroke-linecap:round;stroke-linejoin:round;stroke-miterlimit:10;}
	.st1{fill:none;stroke:#000000;stroke-width:2;stroke-linejoin:round;stroke-miterlimit:10;}
</style>
  <style
     type="text/css"
     id="style2351">
	.st0{fill:none;stroke:#000000;stroke-width:2;stroke-linecap:round;stroke-linejoin:round;stroke-miterlimit:10;}
	.st1{fill:none;stroke:#000000;stroke-width:2;stroke-linejoin:round;stroke-miterlimit:10;}
</style>
  <style
     type="text/css"
     id="style2474">
	.st0{fill:none;stroke:#000000;stroke-width:2;stroke-linecap:round;stroke-linejoin:round;stroke-miterlimit:10;}
	.st1{fill:none;stroke:#000000;stroke-width:2;stroke-linejoin:round;stroke-miterlimit:10;}
</style>
  <style
     type="text/css"
     id="style933">
	.st0{fill:none;}
</style>
</svg>
