<?xml version="1.0" encoding="iso-8859-1"?>
<!-- Generator: Adobe Illustrator 19.0.0, SVG Export Plug-In . SVG Version: 6.00 Build 0)  -->
<svg version="1.1" id="Layer_1" xmlns="http://www.w3.org/2000/svg" xmlns:xlink="http://www.w3.org/1999/xlink" x="0px" y="0px"
	 viewBox="0 0 512 512" style="enable-background:new 0 0 512 512;" xml:space="preserve">
<polygon style="fill:#F95428;" points="154.355,143.545 13.371,143.545 13.371,31.53 154.355,31.53 113.798,87.538 "/>
<path style="fill:#2BA5F7;" d="M475.25,311.134L475.25,311.134c-31.174-31.174-81.716-31.174-112.889,0l0,0
	c-31.174,31.174-31.174,81.716,0,112.889l56.445,56.445l56.445-56.445C506.423,392.85,506.423,342.308,475.25,311.134z"/>
<circle style="fill:#E6E6E6;" cx="418.807" cy="368.159" r="29.08"/>
<g>
	<path style="fill:#333333;" d="M418.804,493.839c-3.546,0-6.946-1.409-9.454-3.916l-56.444-56.445
		c-17.602-17.602-27.296-41.005-27.296-65.898c0-24.893,9.694-48.297,27.296-65.9c17.602-17.602,41.005-27.296,65.898-27.297
		c24.893,0,48.297,9.694,65.9,27.296l0,0c17.602,17.602,27.296,41.005,27.296,65.9s-9.694,48.297-27.296,65.9l-56.445,56.445
		C425.75,492.43,422.35,493.839,418.804,493.839z M418.804,301.125c-17.749,0-34.439,6.913-46.99,19.464
		c-12.552,12.552-19.465,29.24-19.465,46.991c0,17.751,6.913,34.439,19.465,46.99l46.99,46.991l46.991-46.991
		c12.552-12.551,19.465-29.239,19.465-46.99c0-17.751-6.913-34.439-19.465-46.99l0,0
		C453.243,308.038,436.554,301.125,418.804,301.125z"/>
	<path style="fill:#333333;" d="M418.804,410.612c-23.408,0-42.45-19.044-42.45-42.45s19.042-42.45,42.45-42.45
		c7.383,0,13.371,5.986,13.371,13.371s-5.987,13.371-13.371,13.371c-8.663,0-15.709,7.048-15.709,15.709s7.048,15.709,15.709,15.709
		s15.709-7.048,15.709-15.709c0-7.385,5.987-13.371,13.371-13.371s13.371,5.986,13.371,13.371
		C461.255,391.568,442.212,410.612,418.804,410.612z"/>
</g>
<path style="fill:#4D4D4D;" d="M359.768,493.839H183.696c-41.573,0-75.395-33.822-75.395-75.395s33.822-75.395,75.395-75.395h48.276
	c26.827,0,48.654-21.826,48.654-48.654S258.8,245.74,231.972,245.74H57.592c-7.385,0-13.371-5.986-13.371-13.371
	c0-7.385,5.986-13.371,13.371-13.371H231.97c41.573,0,75.395,33.822,75.395,75.395s-33.822,75.395-75.395,75.395h-48.276
	c-26.828,0-48.654,21.826-48.654,48.654s21.826,48.654,48.654,48.654h176.072c7.383,0,13.371,5.986,13.371,13.371
	S367.151,493.839,359.768,493.839z"/>
<path style="fill:#333333;" d="M130.307,87.538l34.879-48.165c2.947-4.069,3.364-9.446,1.079-13.921
	c-2.284-4.475-6.885-7.291-11.908-7.291H13.371C5.986,18.161,0,24.147,0,31.531v112.015v88.825c0,7.385,5.986,13.371,13.371,13.371
	s13.371-5.986,13.371-13.371v-75.454h127.614c5.023,0,9.624-2.816,11.908-7.291c2.285-4.475,1.868-9.853-1.079-13.921
	L130.307,87.538z M102.968,95.38l25.197,34.794H26.741V44.9h101.424l-25.197,34.794C99.581,84.374,99.581,90.7,102.968,95.38z"/>
<g>
</g>
<g>
</g>
<g>
</g>
<g>
</g>
<g>
</g>
<g>
</g>
<g>
</g>
<g>
</g>
<g>
</g>
<g>
</g>
<g>
</g>
<g>
</g>
<g>
</g>
<g>
</g>
<g>
</g>
</svg>
