<?xml version="1.0" encoding="UTF-8" standalone="no"?>
<!-- Svg Vector Icons : http://www.onlinewebfonts.com/icon -->

<svg
   version="1.1"
   x="0px"
   y="0px"
   viewBox="0 0 1000 1000"
   enable-background="new 0 0 1000 1000"
   xml:space="preserve"
   id="svg10"
   sodipodi:docname="localize-me.svg"
   inkscape:version="1.1.2 (0a00cf5339, 2022-02-04, custom)"
   xmlns:inkscape="http://www.inkscape.org/namespaces/inkscape"
   xmlns:sodipodi="http://sodipodi.sourceforge.net/DTD/sodipodi-0.dtd"
   xmlns="http://www.w3.org/2000/svg"
   xmlns:svg="http://www.w3.org/2000/svg"><defs
   id="defs14" /><sodipodi:namedview
   id="namedview12"
   pagecolor="#ffffff"
   bordercolor="#666666"
   borderopacity="1.0"
   inkscape:pageshadow="2"
   inkscape:pageopacity="0.0"
   inkscape:pagecheckerboard="0"
   showgrid="false"
   inkscape:lockguides="true"
   inkscape:zoom="0.707"
   inkscape:cx="500"
   inkscape:cy="606.78925"
   inkscape:window-width="1890"
   inkscape:window-height="1013"
   inkscape:window-x="15"
   inkscape:window-y="52"
   inkscape:window-maximized="1"
   inkscape:current-layer="svg10" />
<metadata
   id="metadata2"> Svg Vector Icons : http://www.onlinewebfonts.com/icon </metadata>
<g
   id="g8"
   style="fill:#ffffff"><path
     d="M500,10C229.4,10,10,229.4,10,500c0,270.6,219.4,490,490,490c270.6,0,490-219.4,490-490C990,229.4,770.6,10,500,10z M530.6,927.7V775.5c0-16.7-13.7-30.5-30.6-30.5c-17,0-30.6,13.7-30.6,30.5v152.1c-212.4-15-382.1-184.7-397-397h152.1c16.7,0,30.5-13.7,30.5-30.6c0-17-13.7-30.6-30.5-30.6H72.3c15-212.4,184.7-382.1,397-397v152.1c0,16.7,13.7,30.5,30.6,30.5c17,0,30.6-13.7,30.6-30.5V72.3c212.4,15,382.1,184.7,397,397H775.5c-16.7,0-30.5,13.7-30.5,30.6c0,17,13.7,30.6,30.5,30.6h152.1C912.7,743,743,912.7,530.6,927.7z"
     id="path4"
     style="fill:#ffffff" /><path
     d="M408.1,500c0,50.7,41.1,91.9,91.9,91.9c50.7,0,91.9-41.1,91.9-91.9c0-50.7-41.1-91.9-91.9-91.9C449.3,408.1,408.1,449.3,408.1,500z"
     id="path6"
     style="fill:#ffffff" /></g>
</svg>
