<?xml version="1.0" encoding="UTF-8" standalone="no"?>
<svg
   viewBox="0 0 700 700"
   version="1.1"
   id="svg5"
   sodipodi:docname="play-video.svg"
   inkscape:version="1.2.2 (b0a8486541, 2022-12-01)"
   xmlns:inkscape="http://www.inkscape.org/namespaces/inkscape"
   xmlns:sodipodi="http://sodipodi.sourceforge.net/DTD/sodipodi-0.dtd"
   xmlns="http://www.w3.org/2000/svg"
   xmlns:svg="http://www.w3.org/2000/svg">
  <defs
     id="defs9" />
  <sodipodi:namedview
     id="namedview7"
     pagecolor="#ffffff"
     bordercolor="#000000"
     borderopacity="0.25"
     inkscape:showpageshadow="2"
     inkscape:pageopacity="0.0"
     inkscape:pagecheckerboard="0"
     inkscape:deskcolor="#d1d1d1"
     showgrid="false"
     inkscape:zoom="1.0285714"
     inkscape:cx="350"
     inkscape:cy="350.48611"
     inkscape:window-width="2560"
     inkscape:window-height="1408"
     inkscape:window-x="0"
     inkscape:window-y="32"
     inkscape:window-maximized="1"
     inkscape:current-layer="svg5" />
  <g
     id="play"
     style="stroke:#000000;fill:#000000">
    <path
       d="M641.20973,295.29782,113.46286,31.42487A60.23475,60.23475,0,0,0,70.11424,27.1778a61.70626,61.70626,0,0,0-9.50585,3.37012A60.79807,60.79807,0,0,0,25,86.09868V613.83774a60.61505,60.61505,0,0,0,29.456,52.247A61.41975,61.41975,0,0,0,82.5,674.93049a.67549.67549,0,0,1,.07715,0A59.91324,59.91324,0,0,0,97.998,673.85822a61.78159,61.78159,0,0,0,15.46484-5.34863l64.38865-32.18944,171.55364-85.77634L641.20973,404.64055C686.26342,382.11419,686.26342,317.82222,641.20973,295.29782Z"
       style="fill:#000000;stroke:#000000"
       id="path2" />
  </g>
</svg>
