<?xml version="1.0" encoding="UTF-8" standalone="no"?>
<!-- Svg Vector Icons : http://www.onlinewebfonts.com/icon -->

<svg
   version="1.1"
   x="0px"
   y="0px"
   viewBox="0 0 1000 1000"
   enable-background="new 0 0 1000 1000"
   xml:space="preserve"
   id="svg10"
   sodipodi:docname="selectedSpot.svg"
   inkscape:version="1.1.2 (0a00cf5339, 2022-02-04)"
   xmlns:inkscape="http://www.inkscape.org/namespaces/inkscape"
   xmlns:sodipodi="http://sodipodi.sourceforge.net/DTD/sodipodi-0.dtd"
   xmlns="http://www.w3.org/2000/svg"
   xmlns:svg="http://www.w3.org/2000/svg"><defs
   id="defs14" /><sodipodi:namedview
   id="namedview12"
   pagecolor="#ffffff"
   bordercolor="#666666"
   borderopacity="1.0"
   inkscape:pageshadow="2"
   inkscape:pageopacity="0.0"
   inkscape:pagecheckerboard="0"
   showgrid="false"
   inkscape:zoom="0.707"
   inkscape:cx="501.41443"
   inkscape:cy="500.70721"
   inkscape:window-width="1890"
   inkscape:window-height="1013"
   inkscape:window-x="15"
   inkscape:window-y="1492"
   inkscape:window-maximized="1"
   inkscape:current-layer="svg10" />
<metadata
   id="metadata2"> Svg Vector Icons : http://www.onlinewebfonts.com/icon </metadata>
<g
   id="g8"><g
     transform="translate(0.000000,511.000000) scale(0.100000,-0.100000)"
     id="g6"><path
       d="M4581.9,4994.7C3421.1,4847,2389.6,4103.9,1893.4,3056.2c-235.4-500.8-320.8-883.9-323.1-1453.9c0-350.8,9.2-440.8,62.3-692.3C1893.4-315.4,2749.6-1903,4131.9-3728.5c360-475.4,835.4-1061.5,863.1-1061.5c25.4,0,500.8,583.9,844.6,1036.2c1620,2130,2526.9,3955.4,2586.9,5215.4c34.6,738.5-216.9,1550.8-666.9,2160c-163.8,221.5-546.9,595.4-768.4,752.3c-390,276.9-858.5,480-1336.2,576.9C5387.3,5006.2,4849.6,5027,4581.9,4994.7z M5373.4,2756.2c214.6-73.9,350.8-159.2,510-325.4c170.8-177.7,270-366.9,323.1-611.5c41.5-200.8,41.5-279.2,0-482.3c-103.8-491.5-477.7-865.4-971.6-969.2c-200.8-41.5-279.2-41.5-480,0c-242.3,50.8-424.6,147.7-611.5,323.1c-512.3,484.6-516.9,1271.6-9.2,1774.6C4450.3,2779.3,4960.3,2899.3,5373.4,2756.2z"
       id="path4" /></g></g>
<path
   style="fill:#008000;stroke:#000000;stroke-width:10.6917"
   d="M 489.73352,978.42999 C 462.91407,948.07788 393.21891,856.92697 354.81772,801.9802 257.63871,662.93051 192.23325,534.81836 167.79083,435.64356 c -8.71095,-35.34455 -8.66996,-34.94851 -8.63728,-83.4512 0.0327,-48.47953 0.84808,-56.67034 8.64073,-86.79527 7.61262,-29.42901 27.61433,-73.74742 45.09081,-99.90911 56.012,-83.848048 145.29995,-139.757141 244.16408,-152.887297 13.57082,-1.802344 23.83149,-2.14013 45.77968,-1.507092 59.73978,1.72304 98.06337,10.902849 148.51486,35.574374 35.79282,17.503223 56.43579,32.422888 88.8457,64.213045 32.92662,32.297 53.25356,61.09005 71.00322,100.57585 30.05614,66.86272 37.83511,136.91795 23.22044,209.11686 -26.46987,130.7656 -130.69549,315.38603 -291.9753,517.19149 -27.42517,34.31643 -41.08245,50.21216 -43.14125,50.21216 -0.61976,0 -4.92311,-4.29632 -9.563,-9.54738 z m 34.42142,-503.81993 c 43.57253,-10.44696 75.35691,-37.1778 90.90165,-76.44882 15.52405,-39.21869 9.26129,-85.93349 -15.90281,-118.62128 -32.10044,-41.69799 -78.90645,-58.64679 -129.28299,-46.81427 -43.29885,10.17008 -76.83677,42.57159 -90.2817,87.22256 -3.24099,10.76342 -3.76244,15.11384 -3.86483,32.24411 -0.13649,22.82176 1.8765,32.71775 10.39161,51.08746 7.28733,15.721 14.79778,26.30435 27.09175,38.17633 19.51265,18.84286 41.99675,30.20113 69.11204,34.91327 9.84365,1.71065 31.08894,0.81719 41.83528,-1.75936 z"
   id="path979" /><path
   style="fill:#d5e5ff;stroke:#000000;stroke-width:10.6917"
   d="m 483.25283,470.30055 c -40.22157,-7.16733 -73.02562,-31.94658 -90.87983,-68.64803 -8.66262,-17.80703 -10.85903,-29.26489 -10.1591,-52.99623 0.49605,-16.81877 1.079,-20.56527 4.8908,-31.43184 6.89196,-19.64742 15.03571,-32.66172 29.45353,-47.06886 13.12702,-13.1173 22.76874,-19.74106 37.2497,-25.59018 16.97556,-6.85673 25.22316,-8.32342 46.89928,-8.3402 17.57749,-0.0136 22.0256,0.45786 31.1174,3.29818 40.3926,12.61883 71.93583,45.58381 82.09461,85.79486 3.63139,14.37395 3.8804,38.41123 0.54963,53.0555 -11.85799,52.13559 -56.46026,89.27902 -110.93278,92.38147 -7.39038,0.42092 -16.51784,0.21631 -20.28324,-0.45467 z"
   id="path1129" /></svg>
