<?xml version="1.0" encoding="utf-8"?>
<!-- Svg Vector Icons : http://www.onlinewebfonts.com/icon -->
<!DOCTYPE svg PUBLIC "-//W3C//DTD SVG 1.1//EN" "http://www.w3.org/Graphics/SVG/1.1/DTD/svg11.dtd">
<svg version="1.1" xmlns="http://www.w3.org/2000/svg" xmlns:xlink="http://www.w3.org/1999/xlink" x="0px" y="0px" viewBox="0 0 1000 1000" enable-background="new 0 0 1000 1000" xml:space="preserve">
<metadata> Svg Vector Icons : http://www.onlinewebfonts.com/icon </metadata>
<g><g transform="translate(0.000000,512.000000) scale(0.100000,-0.100000)"><path d="M7490,4994.1c-724-145.6-1306.3-875.3-1258.4-1580.2c9.6-141.7,42.1-308.4,78.5-402.2c9.6-21.1-344.8-249-1426.9-919.4c-793-490.3-1461.4-902.1-1486.3-915.5c-42.1-23-53.6-19.2-155.1,68.9c-383.1,331.4-817.9,461.6-1252.6,379.2C1288.1,1491,709.6,811,709.6,119.6c0-480.8,295-992.1,735.5-1281.4c580.4-379.2,1245-321.8,1796.6,155.2c88.1,74.7,116.8,90,143.6,76.6c34.5-19.2,2922.8-1804.3,2930.5-1810c1.9-1.9-13.4-65.1-34.5-137.9c-141.7-498,15.3-1038.1,413.7-1436.5c369.7-371.6,863.8-534.4,1325.4-438.6c704.8,145.6,1269.9,814,1269.9,1501.6c0,480.7-295,992.1-735.5,1281.4c-582.3,379.3-1245,321.8-1796.6-155.1c-88.1-74.7-116.8-90-143.7-76.6c-34.5,19.2-2922.8,1804.3-2930.5,1810c-1.9,1.9,15.3,65.1,36.4,137.9c57.5,189.6,57.5,557.4,0,747c-21.1,72.8-38.3,136-36.4,137.9c7.7,7.7,2896,1790.8,2930.5,1810c26.8,13.4,55.5-1.9,143.7-76.6c386.9-335.2,827.4-465.4,1262.2-375.4c611,126.4,1112.8,628.2,1239.2,1239.2c95.8,461.6-67,955.8-438.6,1325.4C8453.4,4923.3,7955.4,5088,7490,4994.1z M7972.6,4388.9c452-93.9,737.4-496.1,699.1-982.6c-34.5-463.5-365.8-794.9-829.3-829.3c-570.8-44.1-1003.7,348.6-1003.7,913.6C6838.7,4103.5,7361.6,4517.2,7972.6,4388.9z M2588.6,975.7c333.3-120.7,538.2-402.2,566.9-781.5c44-565-350.5-994.1-913.6-994.1c-611,0-1011.3,499.9-898.3,1122.4c63.2,344.8,337.1,626.3,678,695.3C2176.8,1048.5,2443,1029.4,2588.6,975.7z M7972.6-2353.1c421.4-88.1,704.8-448.2,704.8-898.3c0-532.5-386.9-919.4-919.4-919.4c-532.5,0-919.4,386.9-919.4,919.4C6838.7-2638.5,7361.6-2224.8,7972.6-2353.1z"/></g></g>
</svg>