<?xml version="1.0" encoding="UTF-8" standalone="no"?>
<svg
   width="512"
   height="512"
   viewBox="0 0 512 512"
   fill="none"
   version="1.1"
   id="svg4"
   sodipodi:docname="star-favorite-filled.svg"
   inkscape:version="1.2 (dc2aedaf03, 2022-05-15)"
   xmlns:inkscape="http://www.inkscape.org/namespaces/inkscape"
   xmlns:sodipodi="http://sodipodi.sourceforge.net/DTD/sodipodi-0.dtd"
   xmlns="http://www.w3.org/2000/svg"
   xmlns:svg="http://www.w3.org/2000/svg">
  <defs
     id="defs8" />
  <sodipodi:namedview
     id="namedview6"
     pagecolor="#ffffff"
     bordercolor="#666666"
     borderopacity="1.0"
     inkscape:showpageshadow="2"
     inkscape:pageopacity="0.0"
     inkscape:pagecheckerboard="0"
     inkscape:deskcolor="#d1d1d1"
     showgrid="false"
     inkscape:zoom="93"
     inkscape:cx="258.31183"
     inkscape:cy="93.166667"
     inkscape:window-width="1890"
     inkscape:window-height="1013"
     inkscape:window-x="15"
     inkscape:window-y="1492"
     inkscape:window-maximized="1"
     inkscape:current-layer="svg4" />
  <path
     fill-rule="evenodd"
     clip-rule="evenodd"
     d="M232.712 57.0006C240.012 34.333 271.984 34.3332 279.284 57.0007L320.908 186.243H455.511C479.504 186.243 488.801 216.789 469.949 230.608L360.931 310.518L402.59 439.869C409.719 462.007 384.44 481.582 364.865 467.234L255.998 387.434L147.131 467.234C127.555 481.582 102.277 462.006 109.406 439.869L151.065 310.518L42.0471 230.608C23.1949 216.789 32.4919 186.243 56.4853 186.243H191.088L232.712 57.0006ZM255.998 89.083L219.876 201.242C216.636 211.302 207.284 218.243 196.59 218.243H79.3059L174.312 287.882C182.877 294.16 186.393 305.21 183.16 315.247L146.946 427.693L241.56 358.341C250.159 352.038 261.836 352.038 270.436 358.341L365.05 427.693L328.836 315.247C325.603 305.21 329.119 294.16 337.684 287.882L432.69 218.243H315.406C304.712 218.243 295.36 211.302 292.12 201.242L255.998 89.083Z"
     fill="black"
     id="path2"
     style="fill:#086788;fill-opacity:1" />
  <path
     style="fill:#086788;fill-opacity:1;stroke-width:0.688172;stroke-opacity:0.329588;paint-order:stroke markers fill"
     d="m 145.6234,424.50726 c 0.40593,-0.38824 7.7288,-25.01959 17.50783,-55.30447 l 17.89887,-55.43141 0.59827,-6.56064 c -0.007,-6.12628 -0.48248,-6.25413 -2.12668,-9.38308 -1.01581,-1.93314 -1.54248,-3.05732 -2.46979,-4.15937 -0.92731,-1.10205 -22.92002,-18.4788 -49.23553,-37.77479 l -56.057671,-39.52771 70.092491,-0.20398 c 58.44985,-0.17009 59.36473,0.37741 62.48196,-0.95939 5.12988,-2.19991 8.94196,-4.55464 11.517,-8.48575 1.89948,-2.89979 2.77179,-14.98455 17.14577,-59.69342 9.94789,-30.94194 22.71378,-58.154353 22.9325,-58.154353 0.21872,0 12.19181,26.513313 22.1397,57.455253 14.37398,44.70887 17.26241,56.7899 19.16189,59.68969 2.57504,3.93111 6.27273,5.37429 11.40261,7.5742 3.11728,1.33682 3.90733,2.11501 62.38222,2.59712 l 67.24323,0.5544 -53.63383,41.77588 c -25.74643,20.05413 -48.49232,33.17349 -49.42542,34.28241 -0.9331,1.10893 -1.76261,3.12439 -2.78251,5.05753 -1.68967,3.20264 0.8801,3.76615 -1.54527,9.88749 l 0.39078,7.62029 16.41882,54.46051 c 9.2421,30.65564 19.26022,59.67017 19.13132,59.79908 -0.12891,0.1289 -26.9502,-17.66876 -53.01434,-36.79602 -32.21368,-23.64014 -48.0146,-34.66778 -50.58748,-35.67551 -5.41155,-2.11957 -10.90521,-1.92627 -16.22522,0.27875 -2.66734,1.10556 -18.54614,11.8149 -49.82353,34.78154 -25.77287,18.92473 -51.56169,37.18165 -51.94368,37.32792 -0.382,0.14627 -5.15961,0.30981 -1.45425,-3.23413 z"
     id="path1400"
     sodipodi:nodetypes="ssccssccssssssssscsssscsssssssss" />
</svg>
