<?xml version="1.0" encoding="utf-8"?>
<!-- Svg Vector Icons : http://www.onlinewebfonts.com/icon -->
<!DOCTYPE svg PUBLIC "-//W3C//DTD SVG 1.1//EN" "http://www.w3.org/Graphics/SVG/1.1/DTD/svg11.dtd">
<svg version="1.1" xmlns="http://www.w3.org/2000/svg" xmlns:xlink="http://www.w3.org/1999/xlink" x="0px" y="0px" viewBox="0 0 1000 1000" enable-background="new 0 0 1000 1000" xml:space="preserve">
<metadata> Svg Vector Icons : http://www.onlinewebfonts.com/icon </metadata>
<g><g transform="translate(0.000000,511.000000) scale(0.100000,-0.100000)"><path d="M855.1,1168.7c-245.9-77.7-535-323.6-660.2-556.6C121.6,474,100,361.8,100,111.6c0-388.3,94.9-599.8,375.4-837.1c552.3-474.6,1419.6-280.5,1721.6,384c107.9,233,107.9,673.1,0,906.1C1972.6,1060.8,1368.5,1332.7,855.1,1168.7z"/><path d="M4686.6,1177.3c-578.2-164-923.4-789.6-755.1-1367.8c198.5-677.4,966.5-1001,1579.2-668.8c384,211.4,582.5,539.4,582.5,970.8c0,586.8-405.6,1035.6-988.1,1096C4984.4,1220.5,4798.8,1207.5,4686.6,1177.3z"/><path d="M8557,1194.6c-319.3-77.7-625.6-332.3-759.4-630c-51.8-112.2-82-271.8-82-453.1c0-582.5,379.7-1005.3,979.5-1104.6c388.3-60.4,897.5,215.7,1104.6,604.1c133.8,250.3,133.8,750.8,0,1001C9562.3,1056.5,9027.3,1306.8,8557,1194.6z"/></g></g>
</svg>