<?xml version="1.0" encoding="UTF-8" standalone="no"?>
<!-- Generator: Adobe Illustrator 16.0.0, SVG Export Plug-In . SVG Version: 6.00 Build 0)  -->

<svg
   version="1.1"
   id="icons"
   x="0px"
   y="0px"
   width="64px"
   height="64px"
   viewBox="0 0 64 64"
   enable-background="new 0 0 64 64"
   xml:space="preserve"
   sodipodi:docname="user-location.svg"
   inkscape:version="1.1.1 (3bf5ae0d25, 2021-09-20)"
   xmlns:inkscape="http://www.inkscape.org/namespaces/inkscape"
   xmlns:sodipodi="http://sodipodi.sourceforge.net/DTD/sodipodi-0.dtd"
   xmlns="http://www.w3.org/2000/svg"
   xmlns:svg="http://www.w3.org/2000/svg"><defs
   id="defs2107"><clipPath
     clipPathUnits="userSpaceOnUse"
     id="clipPath2303"><path
       id="path2305"
       style="fill:#ff0000;fill-opacity:1;fill-rule:nonzero;stroke:none"
       d="m 36.505859,49 v 2.601562 c 0.192535,-0.400888 0.33741,-0.825769 0.496094,-1.240234 C 37.237866,49.810859 37.46435,49.281019 38.0625,49 Z m 13.771485,0 c 0.03663,0.04107 0.07407,0.0808 0.109375,0.123047 0.0096,0.01154 0.06795,0.126466 0.11914,0.226562 V 49 Z m -0.533203,7.78125 c -0.01794,0.01658 -0.03468,0.03429 -0.05273,0.05078 -0.01063,0.07958 -0.02213,0.175181 -0.03125,0.289063 0.03296,0.002 0.06494,0.0069 0.09766,0.0098 -2e-6,-0.116644 -0.0039,-0.233378 -0.01367,-0.349609 z m -0.0918,1.154297 c 0.01641,0.123163 0.04598,0.185284 0.101562,0.105469 -5.14e-4,-0.0104 4.3e-4,-0.02085 0,-0.03125 -0.0316,-0.02441 -0.06799,-0.04791 -0.101562,-0.07422 z m 0.03516,3.119141 c 0.02634,0.05732 0.054,0.119434 0.0918,0.203124 0.140946,0.612328 0.169917,0.578433 0.113281,0.947266 -2.56e-4,0.05894 -0.0073,0.09576 -0.02148,0.138672 -0.01426,0.08924 -0.02614,0.157757 -0.04687,0.294922 -0.0065,0.04279 -0.02755,0.08262 -0.04297,0.123047 -0.0089,0.02325 -0.02508,0.06283 -0.0293,0.06836 -0.0092,0.04539 -0.0149,0.09159 -0.02539,0.136719 -0.0025,0.0108 -0.0082,0.0221 -0.01172,0.0332 h 0.791015 V 61.28906 c -0.08034,-0.01083 -0.158501,-0.02404 -0.232421,-0.04297 -0.198887,-0.05093 -0.393075,-0.120253 -0.585938,-0.191406 z m 0.183594,1.289062 c 0.0067,-0.04194 0.01626,-0.104674 0.02148,-0.138672 1.56e-4,-0.03594 -0.0012,-0.07428 -0.002,-0.162109 -0.04227,0.238785 -0.07952,0.478667 -0.125,0.716797 0.05622,-0.254194 0.08898,-0.365972 0.105469,-0.416016 z m -2.949219,-1.154297 c -0.01107,0.0032 -0.02984,0.0069 -0.03906,0.0098 -0.0062,0.0019 0.01393,0.0053 0.01953,0.002 0.01011,-0.0061 0.0097,-0.0058 0.01953,-0.01172 z M 36.505859,62.837891 V 63 h 0.07227 c -0.0011,-0.01532 -0.0032,-0.02973 0,-0.04883 -0.03018,-0.04717 -0.04177,-0.0656 -0.07227,-0.113281 z" /></clipPath><clipPath
     clipPathUnits="userSpaceOnUse"
     id="clipPath2313"><path
       id="path2315"
       style="fill:#ff0000;fill-opacity:1;fill-rule:nonzero;stroke:none"
       d="m 44.021484,56.898438 c 0.0154,0.09741 0.02869,0.139998 0.03516,0.144531 0.0061,-0.0073 0.0068,-0.06224 0.0039,-0.144531 -0.01303,4.08e-4 -0.02604,-3.69e-4 -0.03906,0 z" /></clipPath><clipPath
     clipPathUnits="userSpaceOnUse"
     id="clipPath2323"><path
       id="path2325"
       style="fill:#ff0000;fill-opacity:1;fill-rule:nonzero;stroke:none"
       d="m 35.501953,48 v 5.794922 c 0.102548,-0.16069 0.21182,-0.314378 0.333985,-0.455078 -0.06792,-0.634284 0.155137,-1.094833 0.523437,-1.464844 0.04041,-0.07135 0.08286,-0.1416 0.119141,-0.214844 0.206928,-0.417692 0.357079,-0.864321 0.523437,-1.298828 0.260887,-0.608742 0.50804,-1.194058 1.261719,-1.443359 0.02252,-0.0074 0.04561,-0.01149 0.06836,-0.01758 0.378354,-0.234957 0.795766,-0.331501 1.220703,-0.433594 0.023,-0.0055 -0.04685,0.0067 -0.07031,0.0098 C 40.018874,48.325253 40.55123,48.163315 41.083984,48 Z m 13.910156,0 c 0.158706,0.152121 0.297612,0.323507 0.4375,0.513672 0.0132,0.01794 0.04148,0.06568 0.06641,0.107422 0.164011,0.160825 0.32356,0.325889 0.470703,0.501953 0.02679,0.03205 0.297496,0.578708 0.347656,0.679687 0.08768,0.204466 0.222662,0.378498 0.355469,0.554688 0.04963,0.06584 0.106787,0.126114 0.148437,0.197266 0.09426,0.161028 0.178088,0.32823 0.263672,0.49414 V 48 Z m 0.142579,0.269531 c 0.115819,0.115143 0.23479,0.227455 0.351562,0.341797 -0.04106,-0.05259 -0.08103,-0.106061 -0.128906,-0.152344 -0.06996,-0.06763 -0.147059,-0.128049 -0.222656,-0.189453 z m -9.484376,0.183594 c -0.02577,0.0033 -0.02374,0.0041 -0.05273,0.0078 -0.04893,0.04298 -0.02849,0.02541 0.05273,-0.0078 z m -0.339843,0.146484 c -0.04717,0.0059 -0.109385,0.02827 -0.173828,0.05469 0.0589,-0.01862 0.119026,-0.03835 0.173828,-0.05469 z m -0.115235,0.328125 c 0.03375,0.0031 0.06802,0.0076 0.101563,0.0098 0.0022,-0.0013 0.0036,-0.0026 0.0059,-0.0039 -0.02582,-0.0019 -0.07305,-0.0037 -0.107422,-0.0059 z m 10.128907,7.853516 c -0.01794,0.01658 -0.03468,0.03429 -0.05273,0.05078 -0.01063,0.07958 -0.02213,0.175181 -0.03125,0.289063 0.03296,0.002 0.06494,0.0069 0.09766,0.0098 -2e-6,-0.116644 -0.0039,-0.233378 -0.01367,-0.349609 z m -0.0918,1.154297 c 0.01641,0.123163 0.04598,0.185284 0.101562,0.105469 -5.14e-4,-0.0104 4.3e-4,-0.02085 0,-0.03125 -0.0316,-0.02441 -0.06799,-0.04791 -0.101562,-0.07422 z m 0.03516,3.119141 c 0.02634,0.05732 0.054,0.119434 0.0918,0.203124 0.140946,0.612328 0.169917,0.578433 0.113281,0.947266 -2.56e-4,0.05894 -0.0073,0.09576 -0.02148,0.138672 -0.01426,0.08924 -0.02614,0.157757 -0.04687,0.294922 -0.0065,0.04279 -0.02755,0.08262 -0.04297,0.123047 -0.0089,0.02325 -0.02508,0.06283 -0.0293,0.06836 -0.0092,0.04539 -0.0149,0.09159 -0.02539,0.136719 C 49.638775,63.344175 48.932729,63.89288 48.787109,64 h 2.714844 v -2.722656 c -0.410962,0.04531 -0.863777,0.06215 -1.228515,-0.03125 -0.198887,-0.05093 -0.393077,-0.120256 -0.585937,-0.191406 z m 0.183594,1.289062 c 0.0067,-0.04194 0.01626,-0.104674 0.02148,-0.138672 1.56e-4,-0.03594 -0.0012,-0.07428 -0.002,-0.162109 -0.04227,0.238785 -0.07952,0.478667 -0.125,0.716797 0.05622,-0.254194 0.08898,-0.365972 0.105469,-0.416016 z m -2.949219,-1.154297 c -0.01107,0.0032 -0.02984,0.0069 -0.03906,0.0098 -0.0062,0.0019 0.01393,0.0053 0.01953,0.002 0.01011,-0.0061 0.0097,-0.0058 0.01953,-0.01172 z m -11.419922,0.07617 V 64 h 0.837891 c -0.04787,-0.167424 0.104797,-0.498577 0.142578,-0.699219 0.01812,-0.09623 0.05469,-0.187775 0.0957,-0.277343 -0.0018,-0.02296 -0.0048,-0.044 0,-0.07227 -0.449189,-0.702076 -0.795364,-1.245199 -1.076172,-1.685547 z m 1.078125,1.800781 c -0.01224,0.03925 -0.01885,0.07854 -0.01367,0.117188 0.01474,-0.03302 0.01743,-0.04123 0.03125,-0.07227 -0.005,-0.01521 -0.01303,-0.02957 -0.01758,-0.04492 z m 10.208984,0.173828 c 0.03809,0.0343 0.07857,0.06252 0.126954,0.07422 0.104131,0.02519 0.210353,0.04283 0.316406,0.05859 z m -10.140624,0.181641 c 0.06165,0.16785 0.142381,0.373788 0.222656,0.578125 h 0.228515 c -0.127919,-0.190241 -0.258608,-0.380248 -0.365234,-0.578125 -0.02869,-10e-6 -0.05728,2.25e-4 -0.08594,0 z" /></clipPath><clipPath
     clipPathUnits="userSpaceOnUse"
     id="clipPath2333"><path
       id="path2335"
       style="fill:#ff0000;fill-opacity:1;fill-rule:nonzero;stroke:none"
       d="m 39.869141,52 v 0.556641 c 0.03281,-0.07281 0.07572,-0.143899 0.130859,-0.210938 0.07651,-0.09302 0.161942,-0.176504 0.251953,-0.255859 0.02184,-0.03142 0.03442,-0.04903 0.05859,-0.08398 0.0025,0.0098 0.0054,0.01952 0.0078,0.0293 0.01495,-0.0124 0.03168,-0.02301 0.04687,-0.03516 z m 0.449218,0.03516 c -0.02211,0.01834 -0.0449,0.03572 -0.06641,0.05469 -0.185975,0.267638 -0.294413,0.427603 -0.308594,0.544922 0.07207,-0.06535 0.166816,-0.07563 0.277344,-0.04687 0.01861,-0.06707 0.03758,-0.131386 0.05664,-0.19336 0.003,-0.01683 4.07e-4,-0.0055 0.0039,-0.02539 -0.0013,-2.8e-5 -0.0026,2.9e-5 -0.0039,0 -0.0031,-10e-5 0.0044,-0.005 0.0059,-0.0078 -0.0011,0.0065 -8.58e-4,0.0016 -0.002,0.0078 0.0013,2.8e-5 0.0026,-2.7e-5 0.0039,0 0.02123,-0.06777 0.04396,-0.127347 0.06641,-0.189453 -0.01115,-0.04805 -0.02121,-0.09688 -0.0332,-0.144532 z m -0.0332,0.333985 c -0.0027,0.0085 -0.0052,0.01679 -0.0078,0.02539 -0.04738,0.267691 -0.03491,0.186859 0.02148,-0.02539 -0.0046,-8e-5 -0.0091,9.4e-5 -0.01367,0 z m -0.341797,0.265625 c -0.02936,0.02662 -0.05276,0.06713 -0.07422,0.113281 v 0.429687 c 0.08992,-0.02883 0.167727,-0.05354 0.236328,-0.07422 0.006,-0.04831 0.01598,-0.09289 0.02539,-0.138672 -0.130086,-0.131304 -0.200187,-0.225111 -0.1875,-0.330078 z m 7.1875,3.160156 c -0.06621,0.03315 -0.135059,0.06739 -0.199218,0.09961 -0.0033,0.115616 -0.0065,0.187738 -0.0039,0.365235 4e-4,0.02503 0.0063,0.05151 0.002,0.07617 -0.03538,0.202491 -0.07016,0.405609 -0.109376,0.607421 0.10986,-0.0043 0.09267,-0.0058 0.310547,-0.05469 z m 0,1.097656 c -0.02506,0.0076 -0.03926,0.01161 -0.05859,0.01758 -0.05891,0.01818 -0.116545,0.06034 -0.177735,0.05273 -0.02978,-0.0037 -0.04774,-0.0044 -0.07617,-0.0078 -0.02235,0.114366 -0.04483,0.228556 -0.07227,0.341797 -0.03506,0.144722 -0.07524,0.291367 -0.150391,0.419922 -0.191892,0.328252 -0.429373,0.627912 -0.644531,0.941406 L 45.583984,59 h 1.546875 z m -0.875,0.002 c 0.01678,0.0043 0.02693,0.0094 0.04492,0.01367 0.107379,0.02523 0.218819,0.03013 0.328125,0.04492 0.105461,-0.0072 0.06776,-0.0032 0.119141,-0.0059 -0.193357,-0.02247 -0.356838,-0.04082 -0.492188,-0.05273 z m -2.234375,0.0039 c 0.0352,0.222662 0.04487,0.164577 0.03906,0 -0.01303,4.08e-4 -0.02604,-3.7e-4 -0.03906,0 z m -3.814453,0.173828 c -0.11169,0.04508 -0.224468,0.08879 -0.33789,0.128906 V 59 h 1.322265 c -0.07866,-0.106186 -0.157601,-0.211833 -0.238281,-0.316406 -0.212609,-0.414144 -0.398235,-0.846726 -0.521484,-1.296875 -0.08197,-0.09337 -0.15829,-0.197311 -0.22461,-0.314453 z" /></clipPath></defs><sodipodi:namedview
   id="namedview2105"
   pagecolor="#505050"
   bordercolor="#ffffff"
   borderopacity="1"
   inkscape:pageshadow="0"
   inkscape:pageopacity="0"
   inkscape:pagecheckerboard="1"
   showgrid="false"
   inkscape:zoom="6.578125"
   inkscape:cx="-60.275534"
   inkscape:cy="12.465558"
   inkscape:window-width="1920"
   inkscape:window-height="1046"
   inkscape:window-x="-11"
   inkscape:window-y="-11"
   inkscape:window-maximized="1"
   inkscape:current-layer="icons" />
<g
   id="g1946">
	<g
   id="g1892">
		<path
   fill="#E6E9ED"
   d="M43.505,49c3.87,0,7,3.13,7,7c0,3.86-3.13,7-7,7s-7-3.14-7-7C36.505,52.13,39.635,49,43.505,49z     M45.125,58l1.01-3.09L43.505,53l-2.63,1.91l1,3.09H45.125z"
   id="path1890"
   clip-path="url(#clipPath2303)" />
	</g>
	<g
   id="g1896">
		<polygon
   fill="#656D78"
   points="46.135,54.91 45.125,58 41.875,58 40.875,54.91 43.505,53   "
   id="polygon1894"
   clip-path="url(#clipPath2313)" />
	</g>
	<g
   id="g1900">
		<path
   fill="#656D78"
   d="M32.505,62v1h-7.01v-1c0-1.94,1.57-3.5,3.51-3.5C30.935,58.5,32.505,60.06,32.505,62z"
   id="path1898" />
	</g>
	<g
   id="g1904">
		<path
   fill="#E6E9ED"
   d="M32.505,53v9c0-1.94-1.57-3.5-3.5-3.5c-1.939,0-3.51,1.56-3.51,3.5v-9H32.505z"
   id="path1902" />
	</g>
	<g
   id="g1908">
		<rect
   x="18.495"
   y="46"
   fill="#4A89DC"
   width="7"
   height="7"
   id="rect1906" />
	</g>
	<g
   id="g1912">
		<path
   fill="#E6E9ED"
   d="M25.495,53v9c0-1.94-1.561-3.5-3.5-3.5c-1.93,0-3.5,1.56-3.5,3.5v-9H25.495z"
   id="path1910" />
	</g>
	<g
   id="g1916">
		<rect
   x="25.495"
   y="46"
   fill="#4A89DC"
   width="7.01"
   height="7"
   id="rect1914" />
	</g>
	<g
   id="g1920">
		<path
   fill="#656D78"
   d="M25.495,63h-7v-1c0-1.94,1.57-3.5,3.5-3.5c1.939,0,3.5,1.56,3.5,3.5V63z"
   id="path1918" />
	</g>
	<g
   id="g1924">
		<path
   fill="#D3B1A9"
   d="M37.495,33.03v10.46c0,1.39-1.12,2.5-2.5,2.5c-1.29,0-2.36-0.98-2.49-2.24V33.03H37.495z"
   id="path1922" />
	</g>
	<g
   id="g1928">
		<path
   fill="#D3B1A9"
   d="M18.495,33.03v10.46c0,1.39-1.12,2.5-2.5,2.5s-2.5-1.11-2.5-2.5V33.03H18.495z"
   id="path1926" />
	</g>
	<g
   id="g1932">
		<path
   fill="#D3B1A9"
   d="M25.495,22c1.46,0,2.83-0.39,4-1.07V23c0,2.21-1.79,4.01-4,4.01s-3.99-1.79-4-4V23v-2.07    C22.665,21.61,24.035,22,25.495,22z"
   id="path1930" />
	</g>
	<g
   id="g1936">
		<path
   fill="#5D9CEC"
   d="M18.495,33.03h-5V27.01c0-2.22,1.79-4,4.01-4h3.99c0.01,2.21,1.79,4,4,4s4-1.8,4-4.01h4c2.21,0,4,1.79,4,4    v6.03h-4.99v10.72V46h-7.01h-7v-2.51V33.03z"
   id="path1934" />
	</g>
	<g
   id="g1940">
		<path
   fill="#965353"
   d="M17.495,9c0-4.42,3.58-8,8-8h4v4c2.22,0,4.01,1.79,4.01,4v2.97h-0.01l-3-1.97c0,0-2,1-5,1s-5-1-5-1    l-3,1.97V9z"
   id="path1938" />
	</g>
	<g
   id="g1944">
		<path
   fill="#EAC6BB"
   d="M33.495,11.97h0.01V14c0,2.96-1.609,5.55-4.01,6.93c-1.17,0.681-2.54,1.07-4,1.07s-2.83-0.39-4-1.07    c-2.39-1.38-4-3.97-4-6.93v-2.03l3-1.97c0,0,2,1,5,1s5-1,5-1L33.495,11.97z"
   id="path1942" />
	</g>
</g>
<g
   id="g2102">
	<g
   id="g1950">
		<path
   d="M43.502,64c-4.411,0-8-3.589-8-8s3.589-8,8-8s8,3.589,8,8S47.913,64,43.502,64z M43.502,50c-3.309,0-6,2.691-6,6    s2.691,6,6,6s6-2.691,6-6S46.811,50,43.502,50z"
   id="path1948"
   clip-path="url(#clipPath2323)" />
	</g>
	<g
   id="g2096">
		<g
   id="g1954">
			<path
   d="M13.498,28.01c-0.553,0-1-0.447-1-1c0-2.758,2.244-5.002,5.002-5.002c0.553,0,1,0.447,1,1s-0.447,1-1,1     c-1.655,0-3.002,1.347-3.002,3.002C14.498,27.563,14.051,28.01,13.498,28.01z"
   id="path1952" />
		</g>
		<g
   id="g1958">
			<path
   d="M37.498,28.006c-0.553,0-1-0.447-1-1c0-1.654-1.346-3-3-3c-0.553,0-1-0.447-1-1s0.447-1,1-1c2.757,0,5,2.243,5,5     C38.498,27.559,38.051,28.006,37.498,28.006z"
   id="path1956" />
		</g>
		<g
   id="g1962">
			<path
   d="M29.498,24.004c-0.553,0-1-0.447-1-1v-2.068c0-0.553,0.447-1,1-1s1,0.447,1,1v2.068     C30.498,23.557,30.051,24.004,29.498,24.004z"
   id="path1960" />
		</g>
		<g
   id="g1966">
			<path
   d="M21.49,24.004c-0.553,0-1-0.447-1-1v-2.072c0-0.553,0.447-1,1-1s1,0.447,1,1v2.072     C22.49,23.557,22.043,24.004,21.49,24.004z"
   id="path1964" />
		</g>
		<g
   id="g1970">
			<path
   d="M21.49,24.008H17.5c-0.553,0-1-0.447-1-1s0.447-1,1-1h3.99c0.553,0,1,0.447,1,1S22.043,24.008,21.49,24.008z"
   id="path1968" />
		</g>
		<g
   id="g1974">
			<path
   d="M33.498,24.004h-4c-0.553,0-1-0.447-1-1s0.447-1,1-1h4c0.553,0,1,0.447,1,1S34.051,24.004,33.498,24.004z"
   id="path1972" />
		</g>
		<g
   id="g1978">
			<path
   d="M25.494,28.008c-2.759,0-5.004-2.245-5.004-5.004c0-0.553,0.447-1,1-1s1,0.447,1,1c0,1.656,1.348,3.004,3.004,3.004     s3.004-1.348,3.004-3.004c0-0.553,0.447-1,1-1s1,0.447,1,1C30.498,25.763,28.253,28.008,25.494,28.008z"
   id="path1976" /><path
   d="m 25.423554,19.388179 c -1.270352,0 -2.304038,-0.669912 -2.304038,-1.493202 0,-0.165016 0.205816,-0.298402 0.460439,-0.298402 0.254623,0 0.46044,0.133386 0.46044,0.298402 0,0.494153 0.620672,0.896399 1.383159,0.896399 0.762487,0 1.383159,-0.402246 1.383159,-0.896399 0,-0.165016 0.205817,-0.298402 0.46044,-0.298402 0.254623,0 0.460439,0.133386 0.460439,0.298402 0,0.82329 -1.033686,1.493202 -2.304038,1.493202 z"
   id="path1976-8"
   style="stroke-width:0.370669" />
		</g>
		<g
   id="g1982">
			<path
   d="M13.498,44.496c-0.553,0-1-0.447-1-1V27.01c0-0.553,0.447-1,1-1s1,0.447,1,1v16.486     C14.498,44.049,14.051,44.496,13.498,44.496z"
   id="path1980" />
		</g>
		<g
   id="g1986">
			<path
   d="M37.498,44.496c-0.553,0-1-0.447-1-1v-16.49c0-0.553,0.447-1,1-1s1,0.447,1,1v16.49     C38.498,44.049,38.051,44.496,37.498,44.496z"
   id="path1984" />
		</g>
		<g
   id="g1996">
			<g
   id="g1990">
				<path
   d="M18.498,62.998c-0.553,0-1-0.447-1-1V30.015c0-0.553,0.447-1,1-1s1,0.447,1,1v31.983      C19.498,62.551,19.051,62.998,18.498,62.998z"
   id="path1988" />
			</g>
			<g
   id="g1994">
				<path
   d="M32.5,62.998c-0.553,0-1-0.447-1-1V30.011c0-0.553,0.447-1,1-1s1,0.447,1,1v31.987      C33.5,62.551,33.053,62.998,32.5,62.998z"
   id="path1992" />
			</g>
		</g>
		<g
   id="g2000">
			<path
   d="M25.498,63.998c-0.553,0-1-0.447-1-1V45.999c0-0.553,0.447-1,1-1s1,0.447,1,1v16.999     C26.498,63.551,26.051,63.998,25.498,63.998z"
   id="path1998" />
		</g>
		<g
   id="g2004">
			<path
   d="M15.998,46.996c-1.93,0-3.5-1.57-3.5-3.5c0-0.553,0.447-1,1-1s1,0.447,1,1c0,0.827,0.673,1.5,1.5,1.5s1.5-0.673,1.5-1.5     c0-0.553,0.447-1,1-1s1,0.447,1,1C19.498,45.426,17.928,46.996,15.998,46.996z"
   id="path2002" />
		</g>
		<g
   id="g2008">
			<path
   d="M34.998,46.996c-1.93,0-3.5-1.57-3.5-3.5c0-0.553,0.447-1,1-1s1,0.447,1,1c0,0.827,0.673,1.5,1.5,1.5s1.5-0.673,1.5-1.5     c0-0.553,0.447-1,1-1s1,0.447,1,1C38.498,45.426,36.928,46.996,34.998,46.996z"
   id="path2006" />
		</g>
		<g
   id="g2012">
			<path
   d="M25.498,62.998c-0.553,0-1-0.447-1-1c0-1.379-1.121-2.5-2.5-2.5s-2.5,1.121-2.5,2.5c0,0.553-0.447,1-1,1s-1-0.447-1-1     c0-2.481,2.019-4.5,4.5-4.5s4.5,2.019,4.5,4.5C26.498,62.551,26.051,62.998,25.498,62.998z"
   id="path2010" />
		</g>
		<g
   id="g2016">
			<path
   d="M18.498,63.998c-0.553,0-1-0.447-1-1v-1c0-0.553,0.447-1,1-1s1,0.447,1,1v1C19.498,63.551,19.051,63.998,18.498,63.998z"
   id="path2014" />
		</g>
		<g
   id="g2020">
			<path
   d="M25.498,63.998h-7c-0.553,0-1-0.447-1-1s0.447-1,1-1h7c0.553,0,1,0.447,1,1S26.051,63.998,25.498,63.998z"
   id="path2018" />
		</g>
		<g
   id="g2024">
			<path
   d="M32.5,62.998c-0.553,0-1-0.447-1-1c0-1.379-1.121-2.5-2.5-2.5c-1.38,0-2.502,1.121-2.502,2.5c0,0.553-0.447,1-1,1     s-1-0.447-1-1c0-2.481,2.02-4.5,4.502-4.5c2.481,0,4.5,2.019,4.5,4.5C33.5,62.551,33.053,62.998,32.5,62.998z"
   id="path2022" />
		</g>
		<g
   id="g2028">
			<path
   d="M32.5,63.998h-7.002c-0.553,0-1-0.447-1-1s0.447-1,1-1H32.5c0.553,0,1,0.447,1,1S33.053,63.998,32.5,63.998z"
   id="path2026" />
		</g>
		<g
   id="g2032">
			<path
   d="M32.5,63.998c-0.553,0-1-0.447-1-1v-1c0-0.553,0.447-1,1-1s1,0.447,1,1v1C33.5,63.551,33.053,63.998,32.5,63.998z"
   id="path2030" />
		</g>
		<g
   id="g2074">
			<g
   id="g2036">
				<path
   d="M25.498,23.004c-4.965,0-9.004-4.039-9.004-9.004c0-0.553,0.447-1,1-1s1,0.447,1,1c0,3.862,3.142,7.004,7.004,7.004      s7.004-3.142,7.004-7.004c0-0.553,0.447-1,1-1s1,0.447,1,1C34.502,18.965,30.463,23.004,25.498,23.004z"
   id="path2034" />
			</g>
			<g
   id="g2040">
				<path
   d="M17.494,10.004c-0.553,0-1-0.447-1-1C16.494,4.039,20.533,0,25.498,0c0.553,0,1,0.447,1,1s-0.447,1-1,1      c-3.862,0-7.004,3.142-7.004,7.004C18.494,9.557,18.047,10.004,17.494,10.004z"
   id="path2038" />
			</g>
			<g
   id="g2044">
				<path
   d="M33.502,15c-0.553,0-1-0.447-1-1V9.004c0-0.553,0.447-1,1-1s1,0.447,1,1V14C34.502,14.553,34.055,15,33.502,15z"
   id="path2042" />
			</g>
			<g
   id="g2048">
				<path
   d="M17.494,15c-0.553,0-1-0.447-1-1V9.004c0-0.553,0.447-1,1-1s1,0.447,1,1V14C18.494,14.553,18.047,15,17.494,15z"
   id="path2046" />
			</g>
			<g
   id="g2052">
				<path
   d="M33.502,10.004c-0.553,0-1-0.447-1-1C32.502,7.348,31.154,6,29.498,6c-0.553,0-1-0.447-1-1s0.447-1,1-1      c2.759,0,5.004,2.245,5.004,5.004C34.502,9.557,34.055,10.004,33.502,10.004z"
   id="path2050" />
			</g>
			<g
   id="g2056">
				<path
   d="M29.498,2h-4c-0.553,0-1-0.447-1-1s0.447-1,1-1h4c0.553,0,1,0.447,1,1S30.051,2,29.498,2z"
   id="path2054" />
			</g>
			<g
   id="g2060">
				<path
   d="M29.498,6c-0.553,0-1-0.447-1-1V1c0-0.553,0.447-1,1-1s1,0.447,1,1v4C30.498,5.553,30.051,6,29.498,6z"
   id="path2058" />
			</g>
			<g
   id="g2064">
				<path
   d="M17.495,12.971c-0.326,0-0.646-0.159-0.837-0.452c-0.303-0.462-0.174-1.081,0.288-1.384l3.004-1.969      c0.464-0.306,1.082-0.173,1.384,0.288c0.303,0.462,0.174,1.081-0.288,1.384l-3.004,1.969      C17.873,12.918,17.683,12.971,17.495,12.971z"
   id="path2062" />
			</g>
			<g
   id="g2068">
				<path
   d="M33.497,12.971c-0.188,0-0.379-0.053-0.548-0.164l-3-1.969c-0.462-0.303-0.59-0.923-0.287-1.385      c0.305-0.461,0.926-0.59,1.385-0.287l3,1.969c0.462,0.303,0.59,0.923,0.287,1.385C34.142,12.812,33.822,12.971,33.497,12.971z"
   id="path2066" />
			</g>
			<g
   id="g2072">
				<path
   d="M25.498,12.002c-3.199,0-5.356-1.061-5.447-1.105c-0.494-0.247-0.694-0.848-0.447-1.342      c0.248-0.495,0.847-0.693,1.342-0.447c0.015,0.008,1.852,0.895,4.553,0.895c2.732,0,4.535-0.886,4.553-0.895      c0.494-0.246,1.095-0.048,1.342,0.447c0.247,0.494,0.047,1.095-0.447,1.342C30.854,10.941,28.697,12.002,25.498,12.002z"
   id="path2070" />
			</g>
		</g>
		<g
   id="g2078">
			<path
   d="M32.5,53.999H18.498c-0.553,0-1-0.447-1-1s0.447-1,1-1H32.5c0.553,0,1,0.447,1,1S33.053,53.999,32.5,53.999z"
   id="path2076" />
		</g>
		<g
   id="g2082">
			<path
   d="M32.5,46.999H18.498c-0.553,0-1-0.447-1-1s0.447-1,1-1H32.5c0.553,0,1,0.447,1,1S33.053,46.999,32.5,46.999z"
   id="path2080" />
		</g>
		<g
   id="g2086">
			<path
   d="M25.494,38c-0.553,0-1-0.447-1-1v-4c0-0.553,0.447-1,1-1s1,0.447,1,1v4C26.494,37.553,26.047,38,25.494,38z"
   id="path2084" />
		</g>
		<g
   id="g2090">
			<path
   d="M18.498,34.032h-5c-0.553,0-1-0.447-1-1s0.447-1,1-1h5c0.553,0,1,0.447,1,1S19.051,34.032,18.498,34.032z"
   id="path2088" />
		</g>
		<g
   id="g2094">
			<path
   d="M37.498,34.032H32.5c-0.553,0-1-0.447-1-1s0.447-1,1-1h4.998c0.553,0,1,0.447,1,1S38.051,34.032,37.498,34.032z"
   id="path2092" />
		</g>
	</g>
	<g
   id="g2100">
		<path
   d="M45.127,59h-3.252c-0.433,0-0.816-0.278-0.951-0.69l-1.006-3.087c-0.134-0.412,0.013-0.863,0.363-1.118l2.631-1.913    c0.35-0.256,0.826-0.256,1.176,0l2.631,1.913c0.351,0.255,0.497,0.706,0.363,1.118l-1.004,3.087    C45.944,58.721,45.561,59,45.127,59z M42.601,57h1.8l0.555-1.705L43.5,54.236l-1.455,1.058L42.601,57z"
   id="path2098"
   clip-path="url(#clipPath2333)" />
	</g>
</g>
<ellipse
   style="fill:#ffffff;stroke:#000000;stroke-width:0.996"
   id="path2359"
   cx="21.92874"
   cy="14.441805"
   rx="1.7102138"
   ry="0.91211402" /><ellipse
   style="fill:#ffffff;stroke:#000000;stroke-width:0.996"
   id="path2359-6"
   cx="28.275534"
   cy="14.517815"
   rx="1.7102138"
   ry="0.91211402" /><ellipse
   style="fill:#000000;stroke:#000000;stroke-width:0.429225"
   id="path2777"
   cx="-25.806774"
   cy="4.6500278"
   rx="0.21086769"
   ry="0.21905673"
   transform="rotate(-136.34422)" /><ellipse
   style="fill:#000000;stroke:#000000;stroke-width:0.429225"
   id="path2777-7"
   cx="-30.479353"
   cy="9.015645"
   rx="0.21086769"
   ry="0.21905673"
   transform="rotate(-136.34422)" /></svg>
