<svg class="transition duration-300 ease-in-out delay-150" width="1440" height="1082" xmlns:xlink="http://www.w3.org/1999/xlink" xmlns="http://www.w3.org/2000/svg"><defs><linearGradient id="a" x1="0" y1=".5" x2="1" y2=".5"><stop offset="5%" stop-color="#002bdc88"/><stop offset="95%" stop-color="#32ded488"/></linearGradient><linearGradient xlink:href="#a" id="b" x1="0" y1="652.359" x2="815.147" y2="652.359" gradientTransform="matrix(1.76655 0 0 .56607 -.078 480.308)" gradientUnits="userSpaceOnUse"/><linearGradient xlink:href="#a" id="c" x1="0" y1="1106.069" x2="611.892" y2="1106.069" gradientTransform="matrix(2.35336 0 0 .42492 0 482)" gradientUnits="userSpaceOnUse"/></defs><path style="fill:none;fill-rule:evenodd;stroke:#000;stroke-width:5;stroke-linecap:butt;stroke-linejoin:miter;stroke-miterlimit:4;stroke-dasharray:none;stroke-opacity:1" d="m1173.484 321.403 26.473 46.504M1238.388 337.163l-38.43 30.744M1276.528 335.983l-38.14 1.18"/><path style="fill:#e3dedb;fill-opacity:1;stroke:#000;stroke-width:2.083;stroke-miterlimit:4;stroke-dasharray:none;stroke-opacity:1" d="M1199.04 360.671c-3.787-6.506-20.59-36.136-20.99-37.013-.378-.83 2.5-7.032 22.159-47.741 12.426-25.733 22.715-46.917 22.864-47.077.15-.159 11.534 23.275 25.298 52.075l25.026 52.365-6.07.257c-3.34.142-11.273.4-17.631.574-10.929.299-11.561.359-11.561 1.1 0 .657-.124.706-.767.305-.667-.417-3.051 1.351-18.532 13.744-9.771 7.823-17.854 14.223-17.962 14.223-.108 0-.933-1.265-1.833-2.812z"/><path d="M-.078 1080.308v-400c97.435 24.258 194.87 48.517 300 34 105.13-14.517 217.952-67.81 314-65 96.048 2.809 175.32 61.718 273 58 97.68-3.718 213.766-70.062 309-85 95.234-14.938 169.617 21.53 244 58v400z" fill="url(#a)" class="transition-all duration-300 ease-in-out delay-150 path-0" style="fill:url(#b)"/><path d="M0 1082V882c68.124-31.971 136.249-63.943 234-46 97.751 17.943 225.13 85.799 325 83 99.87-2.799 172.234-76.254 258-93 85.766-16.746 184.933 23.215 291 42 106.067 18.785 219.033 16.392 332 14v200z" fill="url(#a)" class="transition-all duration-300 ease-in-out delay-150 path-1" style="fill:url(#c)"/><path style="display:inline;fill:none;fill-rule:evenodd;stroke:#000;stroke-width:7.58133;stroke-linecap:butt;stroke-linejoin:miter;stroke-miterlimit:4;stroke-dasharray:none;stroke-opacity:1" d="M1046.807 289.857 886.238 708.942"/><path style="display:inline;fill:none;fill-rule:evenodd;stroke:#000;stroke-width:7.58177;stroke-linecap:butt;stroke-linejoin:miter;stroke-miterlimit:4;stroke-dasharray:none;stroke-opacity:1" d="m1148.771 477.397-101.964-187.54"/><path style="fill:none;fill-rule:evenodd;stroke:#000;stroke-width:7.58177;stroke-linecap:butt;stroke-linejoin:miter;stroke-miterlimit:4;stroke-dasharray:none;stroke-opacity:1" d="m1223.237 218.982-100.34 207.703M1339.436 462.069l-116.2-243.087"/><path style="display:inline;fill:none;fill-rule:evenodd;stroke:#000;stroke-width:7.58177;stroke-linecap:butt;stroke-linejoin:miter;stroke-miterlimit:4;stroke-dasharray:none;stroke-opacity:1" d="m1438.455 172.15-123.629 238.472"/><path style="display:inline;fill:none;fill-rule:evenodd;stroke:#000;stroke-width:5.03008;stroke-linecap:butt;stroke-linejoin:miter;stroke-miterlimit:4;stroke-dasharray:none;stroke-opacity:1" d="m1034.863 421.905-30.335-16.566M1105.911 394.996l-71.048 26.91"/><path style="fill:#e3dedb;stroke:none;stroke-width:.4166" d="m1021.248 411.32-13.794-7.56 1.552-3.995c.854-2.197 9.763-25.46 19.798-51.696 10.035-26.235 18.365-47.841 18.512-48.013.147-.172 11.846 20.984 25.998 47.013 14.153 26.03 25.642 47.416 25.532 47.526-.135.136-63.803 24.373-63.803 24.29 0-.004-6.208-3.408-13.795-7.565z"/><path style="fill:none;fill-rule:evenodd;stroke:#000;stroke-width:5;stroke-linecap:butt;stroke-linejoin:miter;stroke-miterlimit:4;stroke-dasharray:none;stroke-opacity:1" d="m1379.022 291.393 18.264 39.127M1440.278 319.29l-42.992 11.23"/><path style="fill:#e3dedb;fill-opacity:1;stroke:#000;stroke-width:.1;stroke-miterlimit:4;stroke-dasharray:none;stroke-opacity:1" d="m1440.218 172.237.06 147.053"/><path style="fill:#e3dedb;fill-opacity:1;stroke:#000;stroke-width:.0184295;stroke-miterlimit:4;stroke-dasharray:none;stroke-opacity:1" d="m1390.098 308.956-8.608-18.443 28.952-55.873c15.925-30.73 29.106-56.123 29.293-56.427.33-.537.338 1.398.325 69.571-.01 42.844-.079 69.898-.182 69.54-.16-.551-.202-.574-.767-.42-2.254.612-40.189 10.496-40.285 10.495-.066 0-3.994-8.3-8.728-18.443z"/><path style="fill:#c87137;stroke:#000;stroke-width:0;stroke-miterlimit:4;stroke-dasharray:none" d="M892.044 706.177c0-1.15 113.37-296.423 113.812-296.423.252 0 6.452 3.294 13.778 7.32 7.326 4.027 13.657 7.32 14.07 7.32.412 0 .754-.374.76-.831.01-.6.173-.574.593.09.371.585 1.157.77 2.153.506.863-.228 15.643-5.774 32.846-12.325 17.202-6.55 31.482-11.719 31.733-11.486.252.232 10.032 18.039 21.734 39.57 11.702 21.53 21.423 39.293 21.603 39.473.614.614 7.2-3.153 6.99-3.998-.114-.464-5.858-11.24-12.764-23.949l-12.555-23.105 23.834-49.28c21.018-43.457 23.937-49.138 24.707-48.084.48.657 5.683 9.667 11.56 20.022 9.595 16.903 10.815 18.758 11.936 18.158.956-.512 1.396-.405 1.878.456.534.955 3.519-1.188 19.841-14.24l19.213-15.365 18.178-.229 18.178-.229 26.238 54.9c14.43 30.196 27.867 58.264 29.86 62.373l3.623 7.47 3.396-1.573c1.868-.865 3.537-1.714 3.709-1.886.172-.171-4.952-11.336-11.387-24.809-6.434-13.473-11.757-24.674-11.827-24.89-.193-.587 58.204-113.177 58.7-113.177.234 0 3.986 7.65 8.337 16.998 5.965 12.815 8.172 16.944 8.97 16.779.581-.12 1.382.206 1.78.726.61.799 3.766.152 20.296-4.157 10.766-2.806 20.024-5.239 20.573-5.405.886-.269.976 19.629.803 176.843-.107 97.43-.346 177.296-.53 177.48-.183.183-.863.002-1.51-.401-1.787-1.117-10.791-4.633-13.23-5.167-1.185-.26-2.325-.749-2.534-1.087-.209-.338-.86-.614-1.446-.614-.587 0-3.34-1.323-6.117-2.94s-8.193-4.328-12.037-6.025c-3.843-1.696-8.676-3.967-10.74-5.045-2.064-1.079-4.102-1.961-4.528-1.961-.427 0-2.032-.546-3.567-1.213a763.813 763.813 0 0 0-5.787-2.48c-1.647-.696-4.641-2.245-6.654-3.443-2.013-1.197-3.99-2.178-4.392-2.179-.403 0-2.045-.953-3.65-2.115-3.18-2.304-10.527-4.541-14.913-4.541-3.217 0-12.618-3.047-18.283-5.926-2.852-1.449-7.011-2.596-14.804-4.083-5.96-1.138-12.715-2.645-15.01-3.35-2.296-.705-5.315-1.281-6.71-1.281-4.49 0-10.086-1.43-10.797-2.76-.367-.684-1.384-1.233-2.287-1.233-.895 0-2.906-.524-4.469-1.165-2.452-1.005-5.028-1.155-18.812-1.1-8.86.037-17.898.41-20.297.838-2.38.424-10.465 1.09-17.968 1.48-7.503.39-15.289 1.123-17.302 1.628-2.013.506-8.152 1.72-13.642 2.699-11.694 2.084-26.287 5.582-43.92 10.528-6.955 1.95-14.291 3.922-16.304 4.382-2.013.459-4.708 1.398-5.99 2.087-1.28.689-11.013 4.202-21.627 7.808-10.614 3.605-31.127 10.817-45.584 16.025-34.885 12.567-66.07 22.959-78.193 26.055-2.562.655-8.307 2.257-12.768 3.561-18.812 5.5-47.736 10.942-64.259 12.09-3.569.247-6.488.195-6.488-.115z"/><path style="fill:#c87137;stroke:#000;stroke-width:0;stroke-miterlimit:4;stroke-dasharray:none" d="M1353.458 641.32c-21.53-8.1-42.734-14.101-62.777-17.767-31.785-5.815-63.578-6.237-94.859-1.26-.952.151-1.778.273-1.835.27-.058-.003.996-.229 2.342-.503 1.346-.273 3.059-.636 3.807-.805 1.552-.352 2.555-.512 4.724-.755 3.667-.411 7.833-.732 14.207-1.093 7.516-.426 13.434-.911 16.553-1.359 2.658-.381 5.832-.576 12.916-.795 3.73-.114 18.75-.116 20.767-.003 2.733.155 4.079.358 5.331.804 2.765.984 3.55 1.2 4.886 1.344.76.082.934.125 1.374.343.352.174.58.343.76.564.762.934 1.35 1.3 2.91 1.811 2.266.742 4.689 1.145 7.637 1.27 2.391.1 4.098.408 7.351 1.324 3.116.878 7.29 1.81 14.65 3.272 5.628 1.118 7.66 1.576 10.06 2.267 2.21.637 3.213 1.018 5.268 2.003 4.61 2.21 9.733 4.07 14.241 5.172 1.677.41 2.713.566 4.259.642 1.488.074 2.722.24 4.307.581 1.018.22 2.345.553 2.394.602.012.012.014.589 0 1.282l-.02 1.261-1.257-.473zM1414.108 667.638c-1.783-.93-15.253-7.234-21.742-10.175-11.401-5.165-19.506-8.613-29.757-12.658a1578.05 1578.05 0 0 1-7.264-2.878c-.395-.166-.45-.335-.45-1.377v-1.187l.85.26c2.775.847 4.772 1.795 7.352 3.489.986.648 2.41 1.414 3.164 1.702.754.288 2.495 1.162 3.869 1.942s3.355 1.851 4.402 2.379c2.895 1.459 9.744 4.339 11.428 4.805.823.228 3.39 1.33 5.705 2.447a544.018 544.018 0 0 0 8.917 4.179c6.39 2.914 14.828 7.197 14.828 7.527 0 .17-.316.06-1.302-.455zM1290.175 368.9l-8.01-16.759-6.015-12.586-1.684.01c-1.567.009-14.144.16-20.683.247-1.578.021-5.377.07-8.444.106l-5.577.068-5.934 4.741c-3.264 2.608-8.14 6.506-10.834 8.661l-4.9 3.92-.011-.33c-.01-.18 0-.341.02-.357.079-.07 21.147-16.914 21.187-16.938.033-.02 33.482-1.075 36.471-1.15l.39-.01 8.227 17.205a8060.841 8060.841 0 0 1 8.248 17.274c.018.061-.01.07-.218.07h-.239z"/></svg>