<?xml version="1.0" encoding="UTF-8" standalone="no"?>
<svg
   viewBox="0 0 2324.1 5000"
   style="enable-background:new 0 0 2324.1 5000"
   xml:space="preserve"
   version="1.1"
   id="svg4"
   sodipodi:docname="kitesurf.svg"
   inkscape:version="1.1.1 (3bf5ae0d25, 2021-09-20, custom)"
   xmlns:inkscape="http://www.inkscape.org/namespaces/inkscape"
   xmlns:sodipodi="http://sodipodi.sourceforge.net/DTD/sodipodi-0.dtd"
   xmlns="http://www.w3.org/2000/svg"
   xmlns:svg="http://www.w3.org/2000/svg"><defs
     id="defs8" /><sodipodi:namedview
     id="namedview6"
     pagecolor="#ffffff"
     bordercolor="#666666"
     borderopacity="1.0"
     inkscape:pageshadow="2"
     inkscape:pageopacity="0.0"
     inkscape:pagecheckerboard="0"
     showgrid="false"
     inkscape:zoom="0.16"
     inkscape:cx="1396.875"
     inkscape:cy="2465.625"
     inkscape:window-width="1890"
     inkscape:window-height="1026"
     inkscape:window-x="15"
     inkscape:window-y="1479"
     inkscape:window-maximized="1"
     inkscape:current-layer="svg4" /><path
     d="m 1916.0609,2316.1288 c -5.2058,-9.4015 -2.8182,-20.9362 -7.0292,-30.6562 -4.8518,-11.4094 -10.3333,-22.9163 -12.0813,-35.2204 4.0507,-15.0593 -2.4449,-29.7315 -4.7653,-44.4449 -2.719,-16.5802 -24.417,-30.7698 -20.4776,-54.2698 1.9563,-13.1916 -1.0401,-26.5916 0.9164,-39.7831 2.6125,-20.4823 10.3046,-41.2953 4.8706,-61.9918 -2.7663,-17.6619 -1.3725,-36.6566 -10.1334,-52.797 -9.2665,-24.2552 -4.2972,-51.0769 -10.4922,-76.0168 -4.1794,-12.4227 -6.4559,-25.7541 -14.0463,-36.6851 -5.9329,-8.8692 -9.2974,-19.0598 -14.5357,-28.2513 -34.4122,-59.4785 -8.7738,-76.5674 -42.24,-109.1251 -29.7467,-32.1536 -36.2971,-26.7642 -55.9089,-34.4422 -14.9803,-5.6716 -30.9905,-8.0214 -45.9417,-13.6025 -4.5412,-2.0355 -9.4354,0.4299 -13.9468,0.9778 -6.9279,1.7209 -13.7994,-1.3628 -20.6736,-1.6536 -8.2053,0.5345 -15.6855,5.8229 -24.17,4.5522 -8.3652,-1.2092 -39.5632,8.4865 -49.2709,16.7821 -8.2545,4.7387 -14.9631,13.3698 -25.0606,13.9122 -6.3351,-0.1642 -12.6051,-0.7482 -18.8348,0.35 -5.1137,-4.4448 -10.9184,-8.8675 -12.2775,-15.9112 -1.3986,-6.2333 -4.1539,-12.0318 -9.0611,-16.1439 -7.0393,-6.7198 -0.5556,-16.6749 -0.7899,-24.8768 0.1874,-23.694 -2.9941,-49.4999 -18.6915,-68.3043 1.2065,-5.572 1.4542,-11.3355 -0.3746,-16.7328 -3.4876,-9.952 -1.7366,-20.9836 -5.9474,-30.7036 -4.3058,-11.8837 -9.2735,-23.6546 -10.2655,-36.4005 -2.8693,-1.1748 -5.6484,-2.3786 -8.4889,-3.4631 -2.7964,-9.9738 -4.5908,-20.8668 -12.1297,-28.5236 -11.9544,-12.7239 -20.0532,-28.9766 -34.6513,-39.0586 -9.208,-11.3102 -22.8606,-17.5069 -36.5668,-21.6917 -5.5439,-3.6089 -9.8042,-9.125 -16.1759,-11.2719 -5.5001,-2.2267 -12.4464,-1.4972 -16.4422,-6.4996 -6.3447,-7.0419 -17.2754,-9.7228 -19.8295,-19.8739 -2.3936,4.3569 -2.8758,12.1899 -9.0045,12.3583 -2.9529,-1.7465 -4.7194,-4.7704 -6.8224,-7.2878 -2.6148,2.7323 -4.9039,5.859 -8.525,7.3183 -6.2666,-0.8843 -11.5909,-7.8543 -18.2325,-4.9288 -5.458,4.4411 -11.3287,8.2166 -18.2854,9.847 -1.376,-3.0494 -2.7227,-6.0085 -3.9792,-8.9966 -5.2219,7.3571 -13.832,9.1183 -22.2692,8.9294 -7.1709,-0.5945 -10.3048,7.9882 -17.1281,8.4789 -7.6732,1.2618 -16.0129,0.4432 -22.6756,5.1705 -33.5522,23.5135 -33.6513,8.886 -49.7533,34.8865 -3.7334,0.7972 -7.6082,0.842 -11.3961,1.1579 -0.15,-5.1374 0.9336,-10.4707 -0.5697,-15.4737 -4.4839,-4.3473 -11.0911,-6.9175 -12.8771,-13.4255 -7.9854,-23.3693 -337.54468,-433.2488 -340.39295,-436.22544 -5.71868,-6.64437 -17.48623,-1.97682 -22.17054,-9.75029 -23.03304,-36.09941 -51.73058,-68.09054 -77.03531,-102.56485 -9.74695,-11.43666 -15.85881,-25.53383 -27.15378,-35.5769 -11.15609,-16.7692 -24.7357,-31.76468 -35.4686,-48.76914 -6.16815,-9.2924 -15.27684,-16.2467 -20.98922,-25.98431 -4.4744,-7.7409 -58.69512,-78.62378 -59.61442,-79.62557 -8.47649,-9.64985 -12.83312,-22.31484 -22.70571,-30.71973 C 513.24285,654.14608 403.72691,501.55583 394.06248,488.19796 375.5791,468.79027 263.68459,311.57702 245.80697,296.86158 238.60183,291.49133 159.77802,185.21145 124.52356,138.66743 114.1172,124.55005 99.338129,114.52604 89.477927,99.934517 76.389217,81.490968 60.576788,64.817497 50.454167,44.426498 43.017228,38.332748 36.553183,31.229251 31.756567,22.793796 L 17.467185,27.371668 C 19.602552,29.679215 454.6019,596.54621 467.74831,625.44197 c 6.95927,5.848 12.49354,12.85049 16.75453,20.85917 12.95786,16.79024 27.61217,32.33889 39.44877,49.98686 3.83354,6.0516 6.03197,13.22526 11.04462,18.59985 20.38354,21.29203 99.1968,128.47286 99.78675,129.38069 6.80551,11.28202 18.09972,18.83273 24.42047,30.46943 13.30216,18.17577 24.93334,37.98371 41.38941,53.55357 5.17232,7.11829 8.28668,15.59415 14.54789,22.06456 13.90188,15.69005 25.10539,33.54093 38.39956,49.8245 -3.29717,7.1394 -9.34003,15.3577 -5.05005,23.4568 5.71677,11.9302 129.51821,180.7856 143.03712,198.3933 50.89476,67.6602 168.64102,197.0711 174.96272,211.2007 -0.2452,13.2419 -12.2789,22.6815 -13.483,35.7319 -0.6526,6.99 -0.075,14.0847 -1.6573,20.9738 -3.7187,12.3602 6.1004,22.7765 9.7546,33.8716 -11.7536,3.4664 -23.5396,7.1424 -35.2063,10.8801 -6.5695,1.9053 -8.043,9.7568 -13.4,13.268 -28.32691,15.8562 -31.53432,10.2023 -35.54413,49.9795 -15.99118,11.4054 -35.53035,15.4713 -54.90793,15.9952 -34.18915,-63.14 -97.49043,-143.3794 -138.7442,-213.6298 -18.82745,-20.7933 -279.67873,-442.81241 -284.48488,-458.12561 -2.62522,-6.63792 4.01547,-12.05634 4.33167,-18.53984 -7.82393,-16.63992 -24.10797,-26.38123 -37.54889,-37.83109 -6.73268,-9.80965 -11.49764,-20.94771 -19.44204,-29.87056 -13.65949,-15.86739 -23.28955,-34.72094 -35.40454,-51.68151 -4.61843,-5.70035 -11.2116,-9.47164 -15.52621,-15.46875 -10.69608,-15.02175 -18.33566,-32.01998 -28.85087,-47.09971 -15.09059,-21.89076 -204.76179,-313.24244 -218.28576,-345.80672 -4.88086,-11.49983 -14.48213,-19.99157 -21.72496,-29.83721 -4.81421,-6.934 -13.2232,-9.52525 -19.77333,-14.40729 -0.98075,-0.88246 -120.888645,-189.33398 -121.449703,-190.15146 -7.760841,-11.77383 -11.564304,-25.51354 -19.74836,-37.05207 -5.704527,-7.84542 -8.750305,-17.04125 -13.941163,-25.15096 C -57.998245,85.653259 -66.450945,71.4086 -75.265403,57.279819 l -17.635614,5.649926 c 59.609675,97.975905 137.06515,223.641245 147.972592,253.952415 9.470298,17.10973 22.539753,32.06921 30.921267,49.82693 0.651498,0.78849 234.715358,368.76438 238.914908,376.8925 48.06464,75.94641 54.80285,69.89853 24.34981,110.86761 -9.15295,12.20643 -8.40547,-2.89151 -35.9311,-14.41636 -7.27986,-1.55687 -38.6701,6.60487 -49.11548,16.33351 -9.53748,9.13842 -36.14952,24.7444 -16.1771,50.35638 6.26209,8.9632 17.77147,10.9602 27.494,14.22751 15.88465,5.38187 32.9354,3.50919 49.36449,3.43134 9.60934,0.11249 10.91083,-13.56736 19.93715,-14.96337 23.09329,10.45183 10.83726,26.04567 22.17967,37.17073 2.78083,-4.08208 8.05093,-7.86451 6.85512,-13.46481 -1.85604,-10.77366 -5.4707,-22.67896 0.62573,-32.90899 2.18377,-4.38933 7.87875,-3.42162 11.93445,-3.52418 8.15876,0.87624 17.77866,0.0877 24.07236,6.34852 3.74218,3.58777 7.81712,6.96916 12.99845,8.20124 4.72089,20.02732 10.61401,39.97838 21.00712,57.78975 4.76078,-1.32577 9.43816,-3.22316 14.39824,-3.61555 4.25498,0.83061 431.67465,632.75108 432.23581,633.56838 4.06525,6.7751 9.72585,13.2385 10.16995,21.4728 -2.27058,4.118 -6.5029,6.4712 -10.10902,9.2219 -1.09659,-1.2442 -3.10903,-3.7906 -4.20566,-5.0347 -13.23911,-3.0384 -24.30586,-12.0578 -36.86184,-17.0101 -9.04554,-2.0882 -18.49952,-2.6493 -27.01028,-6.8037 -6.33613,7.6145 -16.37301,5.5447 -25.114,5.6526 -14.13919,-0.5561 -27.15794,5.8086 -40.30062,9.9193 -6.77595,1.5726 -7.65235,9.7313 -12.62216,13.5174 -4.14875,2.9247 -8.98508,5.571 -14.16997,4.6394 -1.88077,1.5996 -3.70365,3.3803 -6.31931,3.62 -2.93345,-8.5338 -3.7578,-17.6435 -8.13816,-25.7137 -5.77822,-11.8107 -6.64809,-27.2879 -18.75269,-34.8779 -11.93516,-9.24 -27.72058,-10.2658 -40.51976,-17.5336 -10.3107,-9.4611 -16.46561,-22.4475 -24.71466,-33.5663 -113.95428,-160.8413 -9.90991,-33.4229 -264.52403,-369.9844 -12.41795,-14.171 -13.84303,-13.0165 -29.80067,-9.5994 -7.09261,-14.9795 -681.29619,-980.18614 -695.33667,-999.42171 l -11.57621,3.70867 c 34.61168,50.14046 69.55614,100.07459 104.43913,150.12813 6.02324,8.84025 8.20851,19.70785 14.26073,28.63855 8.09445,14.06026 22.79717,22.91209 30.01269,37.65283 4.88789,10.89926 14.80353,18.19334 20.08566,28.76684 8.31572,15.68465 41.80277,56.71187 57.44738,80.02071 5.1654,7.71898 6.12757,17.8815 12.92791,24.47837 13.56468,13.70382 43.472691,62.85822 43.9433,63.70461 17.485897,22.51956 36.693638,44.18827 50.273053,69.4551 6.468399,9.29599 30.7722239,36.91092 56.567609,78.20846 12.787553,15.94723 21.853068,34.28359 34.3983,50.40824 11.690908,14.70306 20.050494,31.76973 30.410278,47.29816 13.886907,14.39842 22.29037,32.84711 35.47924,47.86805 11.3397,13.91804 17.7746,31.20256 30.17413,44.38219 5.75461,6.13421 9.38958,13.74503 12.9666,21.17512 0,0 98.33601,140.41598 98.98752,141.20448 6.43508,7.0131 7.78445,17.4504 15.25035,23.6345 9.5688,8.7017 14.07734,21.2182 22.49236,30.9875 6.55097,7.3749 10.98231,16.2265 16.80624,24.1334 4.16623,5.8452 8.56776,12.1137 9.23232,19.4796 -6.00784,15.4868 -12.55363,12.7972 30.89631,72.4717 17.15559,30.2042 237.61073,339.5159 238.17181,340.3334 5.24444,6.0981 13.88524,9.4128 16.25054,17.7296 3.81672,10.0459 9.05141,19.5376 12.14465,29.8152 3.16515,9.2573 5.18357,18.9816 9.25321,27.9492 5.02411,6.9664 14.3664,9.3584 19.26757,16.5638 5.30325,8.7717 -3.34392,18.8216 1.41669,27.7673 3.54891,9.8324 15.91791,7.6646 22.97112,13.1834 7.50177,15.9453 10.60098,33.4009 16.32293,50.0163 1.74635,7.3185 9.12801,10.4384 15.46742,12.7951 9.33802,0.1995 16.42301,-7.2559 23.95411,-11.7628 7.41165,-4.5683 11.82659,-12.2651 17.07036,-18.9313 2.96177,-4.1398 11.57625,-3.7086 11.26353,2.4747 0.7267,20.0106 7.56371,38.8615 10.48638,58.5675 1.97626,13.3277 -13.87633,38.5503 -32.76327,99.747 -9.85569,31.1792 -53.40803,108.4552 -79.14422,200.5661 -10.25463,49.8553 -11.48193,36.6862 -19.78983,130.593 -3.0374,15.7319 -4.06675,31.8177 -6.68448,47.6146 -4.01649,19.835 -1.93156,44.3965 16.2745,56.7132 15.03198,8.9457 29.26038,27.5228 78.68802,35.8203 14.80637,5.1289 30.23791,8.1628 45.70903,10.3862 34.29641,5.2672 67.44765,15.9869 101.27076,23.2006 5.5,2.2269 9.88662,7.2037 15.9759,7.8457 8.06834,0.9052 16.30254,0.4611 24.14346,2.8355 11.08619,2.2322 21.62703,7.4312 33.13202,7.2356 11.94322,0.8606 23.69318,-2.3054 35.67587,-2.255 10.27139,2e-4 20.5647,0.6913 30.9301,0.3622 11.4181,-0.4669 21.1492,7.1854 32.4953,7.7388 20.0476,1.2559 40.1408,-1.3919 60.1585,-2.7191 9.7323,-0.1264 18.7787,4.4546 28.4785,4.5381 12.2724,0.9547 25.0936,-1.3579 36.8426,3.2548 7.2349,7.9533 8.7871,19.0238 12.7593,28.6209 27.1603,65.7906 27.5747,61.1703 25.7158,73.7326 -3.7268,20.7393 -3.6147,41.944 -5.301,62.8275 -2.3642,27.4826 2.8013,24.9303 7.8886,36.7629 -3.6588,7.2552 -11.2733,11.1904 -16.8069,16.952 -27.6079,23.7033 -31.4816,59.5476 -46.592,118.8366 -6.7869,33.2874 -45.4373,76.6833 -31.4208,100.5136 3.7511,-2.2986 7.5707,-5.3174 8.944,-9.7461 0.3433,-1.1072 37.8853,-124.2244 39.9199,-131.2583 28.9742,-81.3811 28.2215,-70.9683 49.1165,-77.9616 12.0579,19.2723 8.3629,27.0377 46.5536,69.051 5.5519,5.5011 5.0301,14.1445 9.4931,20.2936 6.0522,8.9307 7.1233,20.0556 12.4519,29.2182 16.3558,29.2635 17.4867,25.0121 13.3184,44.9954 9.265,8.9984 11.422,22.2683 15.3695,33.9674 3.0415,7.0035 -3.9101,13.3191 -2.3411,20.3952 1.8225,8.4908 2.9513,17.3038 -0.06,25.6477 -2.4797,6.5784 -0.7878,13.4158 -0.4165,20.1775 -103.4211,134.7492 -715.36588,1136.2483 -719.6846,1528.0414 -2.85237,28.1378 267.51687,188.8289 453.5712,235.1271 4.4253,1.6736 8.8568,0.2538 12.2276,-2.9202 392.3754,-309.492 1002.1851,-1215.8706 1197.25,-1961.9543 15.826,-61.4127 29.5861,-123.3604 39.8691,-185.8894 C 2087.636,2372.9491 1982.17,2343.8127 1916.0609,2316.1288 Z M 319.49102,903.49528 c -16.13852,3.47507 -33.21997,0.27155 -48.31256,-6.06197 -4.48058,-4.64759 -3.28194,-12.1119 -4.77452,-18.01586 5.54928,-1.97724 11.22854,-4.79387 17.34672,-4.06159 -0.0633,5.40532 -0.0248,12.37342 6.07584,14.60733 9.33098,0.80008 18.0009,-6.06609 27.50571,-4.72342 5.6923,3.76078 11.41257,15.39061 2.15881,18.25551 z m 76.42975,-20.09809 c -4.39551,0.90951 -8.76205,1.90965 -13.15756,2.81916 -1.54968,-3.592 -4.88705,-8.40646 -1.30282,-11.84837 5.10247,-7.41837 14.41482,2.66157 14.46038,9.02921 z M 377.17314,809.62624 C 234.49387,578.11058 144.06374,439.64925 139.25054,424.93666 c 3.82743,-1.12647 7.62587,-2.34338 11.48578,-3.6797 39.49957,61.03976 229.7633,360.7776 242.20135,380.92547 -5.04968,2.91413 -10.18981,5.85723 -15.76453,7.44381 z m 94.93532,141.0068 c 5.37459,-5.01272 10.98802,-9.90249 17.57517,-13.30912 48.43593,82.70808 96.72002,165.56488 144.64224,248.53738 -3.2355,-3.2514 8.78202,14.3386 -162.21741,-235.22826 z m 197.48606,744.67476 -8.23003,2.6368 c -1.64443,-5.7556 -4.96071,-12.3717 -0.96113,-17.9412 7.09815,-0.8779 7.90137,10.0335 9.19116,15.3044 z m 647.04278,1081.5077 c 1.1088,5.3289 2.5619,12.0433 -1.7528,16.3177 -3.7942,3.4093 -6.9147,-1.9731 -8.6847,-4.6968 -5.622,-9.7668 -11.7866,-19.3595 -15.6576,-29.8864 -0.1319,-4.146 -3.7686,-6.4713 1.2197,-9.2659 9.0946,8.1555 22.7507,14.0516 24.8754,27.5314 z m 26.6058,31.0658 c -0.4671,9.1245 2.2713,18.9174 -1.7345,27.5802 -5.9187,0.2009 -6.4674,-6.8032 -8.2527,-10.8186 -4.5329,-10.4145 4.2986,-20.8228 1.3283,-31.339 -6.0829,-3.7354 -10.8858,-9.0775 -8.9346,-16.6831 6.4825,-2.1766 11.7375,3.0207 16.0443,7.1257 5.1435,7.0278 1.1631,16.0812 1.5492,24.1348 z m -222.4116,-706.3742 c -12.248,7.2145 -22.7549,17.0626 -34.9738,24.3678 -7.3827,4.6586 -16.351,6.2356 -23.1438,11.8022 -4.067,-1.4892 -8.3579,-1.8099 -12.6306,-1.1389 -8.9938,1.186 -17.566,-2.8488 -26.5169,-2.7734 -15.7337,2.2484 -12.4253,6.9724 -41.78166,-4.664 -36.1597,5.1026 -30.26281,4.2106 -38.84639,-1.4161 -1.72895,1.4512 -3.33842,2.9643 -4.82845,4.5386 -0.19259,-1.534 -0.69625,-4.6633 -0.91741,-6.2878 -12.7904,-2.8828 -25.73733,2.4616 -36.91498,8.0371 -7.68133,9.6408 -20.96258,10.2059 -31.9057,13.7118 -6.09693,-12.8056 -5.94683,-61.5176 -7.59306,-72.2588 -2.95426,-17.0033 -2.44995,-34.4167 0.18178,-51.4147 4.68393,-25.5335 7.72153,-51.5367 13.87438,-76.8428 2.91185,-12.7 26.17147,-77.9902 30.16085,-103.2014 3.56786,-19.9905 0.78914,-41.737 10.85542,-60.1196 4.49391,-9.3177 9.37866,-18.6609 10.85129,-29.0051 3.23333,-14.4982 -7.52777,-29.1004 -1.02386,-43.35 6.93104,8.2502 11.22892,18.2416 18.49291,26.2855 6.03736,7.639 17.86991,2.5519 24.27607,9.4745 5.51933,5.7109 11.85685,13.3536 10.91898,21.6316 -7.69627,8.3493 -19.38317,16.3815 -18.24282,29.2791 1.54969,3.5921 5.19005,5.6169 8.0744,8.0834 6.76711,4.314 30.1812,43.7816 32.27345,47.1999 4.0372,9.1772 2.1377,20.0571 7.3507,28.8579 5.0933,8.7393 9.8468,18.2855 18.8247,23.5865 11.2608,5.2674 10.434,42.5291 33.7028,58.509 20.5842,37.4823 40.2138,87.237 79.2565,112.9223 5.2508,3.0047 5.593,9.676 6.4921,14.9725 -8.5189,4.225 -17.784,5.498 -26.2669,9.2129 z m 251.9295,724.7398 c -0.6461,-6.3745 -1.6188,-15.6363 5.8912,-18.3414 5.0995,5.6459 1.1922,16.1719 -5.8912,18.3414 z m -85.5822,-829.2893 c -0.019,9.2801 -8.4645,14.9774 -12.1015,22.9238 -6.3925,12.4189 -14.9123,24.4225 -28.3114,29.9118 -22.4565,-21.2263 -18.025,-12.3746 -36.0644,-23.548 -5.0655,-44.4486 -33.2036,-80.6077 -59.8649,-114.6473 -13.9307,-15.7805 -23.1666,-34.9598 -35.5529,-51.8333 -10.7567,-12.4097 -12.2639,-29.8766 -21.5377,-43.2599 -12.1563,-10.8643 -14.0249,-5.1799 -27.8106,-30.7795 -4.1636,-8.6383 -10.747,-15.8032 -15.4857,-24.0579 -2.4409,-6.9962 -4.2776,-14.2858 -7.0802,-21.1661 -13.7317,-4.5758 -25.5327,8.0801 -38.7131,7.7156 -27.40244,-32.3066 -4.73137,-29.398 -10.78873,-43.0139 -14.06313,-32.6908 -22.19913,-30.3835 -24.95684,-43.6604 15.44672,-5.9459 30.92155,-14.294 47.94407,-13.7642 15.5697,-6.1848 29.8863,-15.6579 46.1004,-20.4534 11.6947,4.1314 18.9488,15.569 21.9375,27.0767 2.2354,9.1563 6.7825,18.3697 5.0782,27.9903 -9.6927,-0.684 -28.6557,-15.0518 -50.319,-1.4302 -7.748,5.0749 -9.9731,15.5605 -7.7307,24.1161 1.5992,9.6594 11.3976,14.0991 16.9897,21.2825 7.3693,9.3065 12.1144,4.1963 70.648,22.2411 7.8075,10.3629 10.2183,25.0474 21.4185,32.9271 4.6063,1.6158 9.4969,-0.5495 14.1892,-1.1553 2.4514,6.0954 3.0362,12.5895 4.2828,18.9712 4.2143,19.691 18.1486,35.1713 25.4704,53.6674 13.0534,31.7178 42.6926,78.1661 77.446,108.5162 7.3614,7.4144 16.8891,11.9408 25.9608,16.9125 0.5593,6.1032 -0.8351,12.3339 -1.1479,18.5171 z"
     id="path2"
     style="stroke-width:0.949669" /></svg>
