<svg xmlns="http://www.w3.org/2000/svg" viewBox="0 0 512 512" style="enable-background:new 0 0 512 512" xml:space="preserve"><path style="fill:#999" d="m412.493 279.136 23.623-17.464 67.18 174.754H8.598l103.041-178.48 32.61 32.609 20.232-20.232 49.335 9.597-21.34-36.969 26.773-46.371 40.383 35.678 27.569-27.569 19.009 32.921 20.256-35.078 20.901-36.208 32.032 55.495z"/><path style="fill:#e6e6e6" d="m250.877 141.789 36.324 62.9-27.569 27.569-40.383-35.678zM192.476 242.951l21.34 36.969-49.335-9.597-20.232 20.232-32.61-32.609 44.744-77.503 17.326 29.991z"/><path style="fill:gray" d="m144.249 290.555-23.255 145.871H8.598l103.041-178.48"/><path style="fill:#fed159" d="M449.785 148.307c0 39.565-31.225 71.839-70.386 73.512l-32.032-55.494-20.901 36.208c-14.649-13.45-23.843-32.759-23.843-54.226 0-40.637 32.944-73.581 73.581-73.581s73.581 32.943 73.581 73.581z"/><path style="fill:gray" d="m222.485 294.93 43.849 72.84-47.085-171.19-26.773 46.371zM320.442 212.962l47.399 72.91-20.474-119.548z"/><path d="M345.605 314.813a8.651 8.651 0 0 0 7.484-12.978l-9.814-16.998c-2.389-4.139-7.682-5.554-11.818-3.166a8.651 8.651 0 0 0-3.166 11.818l9.814 16.998a8.653 8.653 0 0 0 7.5 4.326z"/><path d="m511.424 433.746-67.179-174.754a8.645 8.645 0 0 0-5.654-5.201 8.648 8.648 0 0 0-7.563 1.348l-15.833 11.704-60.281-104.421a8.653 8.653 0 0 0-14.986 0l-33.666 58.31-47.84-82.846a8.651 8.651 0 0 0-14.984 0l-50.906 88.18-11.277-19.534-.001-.002v-.001l-17.325-29.991a8.653 8.653 0 0 0-14.983.002L1.159 432.525a8.653 8.653 0 0 0 7.492 12.977h77.79a8.65 8.65 0 0 0 8.651-8.651 8.65 8.65 0 0 0-8.651-8.651H23.635l89.912-155.74 24.637 24.637c1.689 1.689 3.903 2.534 6.117 2.534s4.428-.844 6.117-2.534l16.979-16.979 40.957 7.967 12.406 21.491a8.646 8.646 0 0 0 11.818 3.164 8.652 8.652 0 0 0 3.165-11.819l-33.223-57.55 18.982-32.879 32.455 28.673a8.619 8.619 0 0 0 5.726 2.167c2.22 0 4.435-.85 6.119-2.534l19.595-19.596 25.792 44.665a8.649 8.649 0 0 0 11.819 3.167 8.652 8.652 0 0 0 3.166-11.819l-9.922-17.182 31.167-53.981 53.771 93.141-9.958 7.358a8.65 8.65 0 0 0 5.148 15.609 8.611 8.611 0 0 0 5.134-1.694l30.657-22.659 58.582 152.39h-64.712l-22.084-38.26a8.652 8.652 0 0 0-14.987 8.649l17.091 29.611H121.047a8.65 8.65 0 0 0-8.651 8.651 8.65 8.65 0 0 0 8.651 8.651h382.301a8.649 8.649 0 0 0 8.076-11.753zM166.186 262.255a8.65 8.65 0 0 0-7.769 2.375l-14.115 14.115-21.799-21.799 33.936-58.781 9.83 17.015v.001l18.834 32.624c.024.039.045.081.069.12l11.719 20.301-30.705-5.971zm93.133-41.441-28.99-25.612 20.602-35.687 25.509 44.176-17.121 17.123z"/><path d="M312.649 186.741a8.652 8.652 0 0 0 4.346-11.437c-3.762-8.372-5.668-17.313-5.668-26.573 0-35.803 29.127-64.93 64.93-64.93s64.93 29.127 64.93 64.93c0 25.464-14.997 48.7-38.207 59.195a8.654 8.654 0 0 0 3.569 16.536 8.624 8.624 0 0 0 3.56-.771c29.39-13.289 48.381-42.714 48.381-74.961 0-45.344-36.889-82.232-82.232-82.232s-82.232 36.889-82.232 82.232c0 11.722 2.419 23.047 7.187 33.665a8.65 8.65 0 0 0 11.436 4.346z"/></svg>
