<svg viewBox="0 0 3492.708 4000" xml:space="preserve" xmlns="http://www.w3.org/2000/svg"><path d="M3131.553 70.84c-1.499.916-2.972 1.881-4.457 2.818 1.374-.376 2.747-.76 4.123-1.135.11-.56.223-1.122.334-1.683zm-185.25 39.597c-.179.503-.501.953-.662 1.461.087.082.112.205.207.282 1.27 1.022 5.07 3.891 4.193 2.517-.869-1.36-2.265-2.792-3.738-4.26zm-1547.83 4.49c-50.905-.03-102.184 18.536-124.756 15.714-21.84-2.73-71.139 6.227-122.569.173-55.658-6.55-288.634 7.79-288.634 7.79-22.24-4.172-152.431-8.961-225.33 38.125-7.642 4.936-9.979 5.17-52.91 5.298-70.337.212-114.155 12.956-175.358 51.008-8.75 5.44-18.077 9.893-20.728 9.893-11.747 0-65.71 23.633-88.543 38.777-23.647 15.685-63.259 52.014-75.018 68.803-1.855 2.649-7.092 4.65-14.75 5.64-69.541 8.99-143.223 61.499-161.287 114.938-4.847 14.34-8.98 21.913-16.567 30.35-63.993 71.175-15.75 156.426 4.791 213.097 16.37 45.16 21.938 55.305 40.344 73.477 9.03 8.915 16.453 16.999 16.498 17.965.107 2.323 11.694 16.334 9.996 11.662-1.422-3.91-.477-6.285 2.246-7.463l393.383 687.162 551.79 1254.115c-3.269 3.09-5.496-2.167-.536 13.768 5.673 18.228 1.806 15.33 7.334 62.56 9.458 80.805 10.095 90.519 6.31 96.569-23.098 36.933-61.54 32.494-46.593 78.6 11.86 36.586 11.755 34.091 4.389 105.05-8.217 79.153 17.243 99.169 62.437 141.94-.663 7.433-1.684 25.538-5.658 31.869-13.81 21.995-1.7 50.552-18.162 137.728-13.147 69.622-14.253 83.783-20.871 66.25-5.821-15.419-16.332-1.075-3.801 8.781 9.953 7.83 3.04 11.576-17.123 25.788l6.75 6.964c9.743 10.053 2.017 21.348-14.6 21.348-4.95 0-9.976 5.122-17.957 18.295-4.313 7.119-56.979 59.956-60.219 87.324-3.919 33.09-59.183 86.662-50.01 135.565 11.745 62.604 187.714 46.5 187.714 98.843 0 19.54 25.098 10.899 10.343 72.606-6.415 26.827-6.119 30.508 2.834 35.373 25.74 13.985 64.795-28.952 70.395-77.39 1.215-10.508 26.857-2.732 41.627-7.665 6.746-2.254 6.39 1.088-.83 7.77-24.776 22.929-31.256 68.776-11.024 77.994 31.961 14.563 65.958-36.034 77.963-42.46 3.401-1.82 4.041-3.773 2.914-8.903-1.577-7.18 2.142-21.334 7.102-27.032 4.043-4.645 12.726-32.136 19.988-52.21 6.204-17.152 3.072-25.673-12.3-33.46-18.76-9.5-28.216-5.752-38.364 15.211-12.697 26.23-29.929-10.273-56.293-23.722-4.844-2.471-8.807-5.641-8.807-7.043 0-4.833 11.23-17.259 16.247-17.975 8.922-1.275 1.656-9.242 16.677-29.21 25.835-34.347 77.238-109.911 80.022-154.368 2.313-36.938 12.691-2.71 4.021-45.22-6.9-33.834-6.534-54.313.936-52.438 6.46 1.622 7.065-.498 2.144-7.524-5.11-7.296-.15-23.853 6.688-22.316 20.009 4.5 60.487 15.616 67.437 18.52 19.795 8.27 33.683-10.037 26.94-35.514-29.942-113.124-29.211-122.327 9.717-122.442 33.604-.098 82.425-11.554 95.134-22.324 11.87-10.058 17.438-74.954 9.88-115.144-5.739-30.51-5.784-31.18-2.307-33.125 5.49-3.073 2.944-29.782 8.8-43.72 6.146-14.623-1.153-39.794-12.593-43.425-4.907-1.557-4.785-10.012.627-43.67 4.203-26.136 6.295-29.718 43.152-73.834 31.835-38.104 47.72-58.27 50.398-62.74l59.133-71.568 1543.34-1165.844c22.04 3.259 40.755.964 59.625-18.307 19.975-20.4 29.393-10.792 83.777-39.982 35.99-19.316 74.365-76.838 87.184-130.686 3.837-16.118 10.75-31.524 14.137-31.504 8.677.052 32.275-34.278 37.06-53.914 14.426-59.186 10.058-131.011-9.697-159.517-5.73-8.27-5.854-9.072-3.264-21.547 13.295-64.041-41.416-162.964-94.369-170.627-13.313-1.926-13.712-2.269-10.957-9.393 18.46-47.742-42.788-148.298-109.668-180.05-10.248-4.865-11.593-6.35-12.842-14.159-7.994-49.988-68.915-106.448-127.756-118.402-16.418-3.335-13.267-3.16-18.318-24.732-11.04-47.143-47.597-92.578-92.965-115.543-11.053-5.595-17.214-10.615-23.879-19.454-31.96-42.383-79.678-74.464-124.412-83.644-39.326-8.07-59.549-70.271-183.254-88.041-28.307-4.066-52.222-57.779-204.363-66.762-104.297-69.08-146.005-54.578-173.691-62.336-10.045-.77-15.122-6.187-15.227-11.66-6.348-.08-10.104-.922-13.904-4.363-24.463-22.155-61.488-38.682-69.256-30.914-1.656 1.656-4.652 1.063-9.994-1.975-10.984-6.247-41.129-6.458-64.643-.455-25.36 6.475-26.514 6.294-28.326-4.428-1.802-10.667-6.855-11.93-8.982-2.246-3.498 15.927-10.646-4.664-34.418-7.972-21.8-3.033-61.854-21.264-144.12-21.717-59.31-.327-45.774-21.511-178.537-28.584-74.754-3.983-100.99-20.7-162.816-13.748-59.032 6.637-114.533-22.262-166.068-22.291zm1591.37 16c-.116.038-.14.058-.263.096-.016.013-.042.042-.06.057.097-.018.222-.076.42-.125 0-.004.01-.009.01-.014-.036-.003-.07-.01-.106-.013zm-25.046 24.81c.142.14.268.298.41.439.259.256.843.693.85.687 0-.006.01-.011.01-.017-.42-.375-.83-.77-1.268-1.11zm-51.447 25.478c-.346.166-.673.37-1.022.53.227-.002.455 0 .682 0 .116-.176.223-.355.34-.53zm46.925 10.139c.042.391.153.757.223 1.14.067.116.14.228.207.344-.194-.795-.484-1.997-.43-1.484zm1.541 4.236c-.239.024-.477.04-.716.064.069.366.109.736.152 1.106.137-.3.408-.838.564-1.17zm120.112 30.074c-.962.513-1.884 1.082-2.84 1.602 1.196-.66 2.298-1.235 2.887-1.405-.03-.051-.02-.142-.047-.197zm-5.055 2.885c-.458.253-.899.531-1.355.787.065-.022.138-.03.205-.049.37-.243.725-.476 1.15-.738zm10.082.488c-.594.329-1.177.675-1.748 1.043 1.021.196 2.188.39 3.424.602-.176-.33-.333-.72-.496-1.094-.416-.195-.831-.382-1.18-.55zm-13.43 1.453c-.538.308-1.072.62-1.607.932-.422.437-.858.858-1.287 1.287.193.27.413.533.586.771.768-1.079 1.61-2.384 2.308-2.99zm-3.591 2.918a51.936 51.936 0 0 1-2.155 1.961c.506.618.737.938 1.157 1.486.275-.495-.118.074.459-.878.578-.958.971-1.283 1.47-2.014-.254-.186-.61-.37-.931-.555zm-45.883 27.85c-.33.219-.65.455-.98.674.212.241.5.48.702.722.09-.468.194-.927.278-1.396zM821.127 523.912c6.665-.087 11.476.436 15.908 1.402l-4.82 306.487a2267.226 2267.226 0 0 0-28.7-27.979l-9.425-277.648c11.852-1.475 20.372-2.174 27.037-2.262zm18.146 1.932c9.983 2.553 19.32 7.288 45.93 12.183 26.678 4.908 26.989 5.037 30.772 12.694 3.753 7.593 3.824 7.623 3.93 1.691.048-2.763.164-4.638 1.163-5.72l63.975 451.601c-42.288-50.408-92.924-106.863-150.617-164.281zm-47.42.611 9.34 275.16c-25.304-24.17-51.81-48.333-79.423-72.129l-37.004-122.47c35.612-33.915 75.657-76.051 85.09-77.465 8.392-1.26 15.647-2.283 21.998-3.096zm313.221 5.014c5.608.321 9.692 3.891 18.473 11.578l-27.58 242.176c-20.131-110.461-38.333-204.783-47.293-237.12 9.377-2.328 18.938-5.21 28.783-8.722 14.876-5.307 22.009-8.234 27.617-7.912zm20.528 13.375c.557.486 1.122.98 1.716 1.494 12.582 10.914 23.378 19.708 33.116 26.976l-53.051 275.098a22868.822 22868.822 0 0 0-10.028-55.555zm-202.409.834c3.316-.557 10.04.897 23.77 4.011 23.308 5.285 46.064 6.694 69.568 4.18l57.035 428.027-12.672 111.278a2491.168 2491.168 0 0 0-30.959-39.858 2586.096 2586.096 0 0 0-42.16-51.75zm123.305 2.953c9.015 32.533 27.85 130.576 48.564 244.514l-20.45 179.584-55.844-419.084c9.096-1.068 18.321-2.761 27.73-5.014zm115.937 26.178c14.286 10.508 26.297 17.657 38.319 23.238l-18.694 675.16a109.18 109.18 0 0 0-1.462-3.022c-5.727-33.922-39.46-233.234-72.114-415.623zm40.536 24.242c17.783 7.974 35.903 12.772 61.763 20.152 1.802 24.76 4.734 21.263 6.62 10.668l-5.586 307.74-81.364 332.012zm-520.028 9.695 35.65 117.994c-26.577-22.805-54.168-45.249-82.697-67.004l-2.996-11.08c10.272-3.659 29.296-20.235 50.043-39.91zm783.98 7.584c37.734 32.93 84.232 72.633 137.45 85.816 20.417 5.057 25.183 7.715 25.262 14.075.03 2.447 2.018 3.33 3.35 2.343l3.07 120.68-42.06 213.781-492.223 1711.278c.115-.605.152-6.148.277-6.381 3.223-6.022 2.566-10.215-.865-5.522-.541.74-.991 1.322-1.387 1.739l213.506-1568.045zm-2.706.182-126.149 381.164 5.951-364.135c7.152.781 14.83 1.196 23.08.996 36.612-.888 44.418-3.49 97.118-18.025zm-182.33 3.398c10.936.24 30.248 9.532 58.498 13.205l-72.194 294.598 5.53-304.48c1.805-2.477 4.52-3.403 8.166-3.323zm59.828 17.213-6.012 367.79-24.61 180.743-51.019 189.229 7.934-436.983zm-710.98 12.12 2.242 8.288a1672.943 1672.943 0 0 0-7.84-5.914c.42-1.323 1.595-2.209 4.103-2.209.46 0 .967-.068 1.494-.166zm824.868.44-139.93 518.985 22.25-163.408zm-830.517 4.712c2.953 2.22 5.91 4.436 8.844 6.671l185.838 687.22 205.002 1202.362c-97.943-284.466-187.994-542.654-271.72-778.959l-111.878-360.486L503.584 718.81c50.118-42.795 104.284-66.81 118.826-57.282 9.59 6.284 3.698-1.45 2.676-7.132zm11.773 8.904c28.631 21.909 56.298 44.51 82.95 67.463l88.976 294.482 10.63 313.129zM1642.555 713c3.98.715 9.617 2.286 17.396 4.78l-21.906 111.35-2.945-115.769c1.15-.934 3.474-1.076 7.455-.361zm182.517 3.969c1.704.558 3.815 1.911 6.951 4.517l-177.644 749.85-13.018-511.807 109.37-227.718c23.664-1.136 47.165-5.972 69.826-14.588 1.513-.575 2.811-.813 4.515-.254zm-162.967 1.504c1.63.53 3.322 1.086 5.13 1.691 26.498 8.867 53.818 12.745 80.952 11.75l-106.953 222.69-2.927-115.17zM501.63 720.486l134.975 679.258-221.176-554.043-.946.367c13.25-48.358 48.84-92.425 87.147-125.582zm1332.312 2.641c4.323 3.776 10.335 9.53 19.178 18.11 108.306 105.09 134.792 67.503 136.348 106.92.688-1.749 1.27-3.768 2.148-5.647l-112.98 735.482-366.46 1308.465 142.391-1406.219Zm-1110.957 10.38c27.22 23.54 53.365 47.426 78.319 71.311l7.185 211.68zm373.467 67.284c3.208 17.683 6.457 35.715 9.717 53.92l-27.963 144.994-2.377-17.836zm-292.828 6.242a2258.257 2258.257 0 0 1 28.541 27.897l-3.887 247.066-17.257-57.121zm-695.498 2.504c22.894-4.03 115.348 39.312 128.059 45.082 3.758-.089 7.445-.14 11.074-.162l246.388 628.512zm1896.664 26.889c5.058.719 12.04 3.147 21.828 8.191a210.509 210.509 0 0 0 7.326 3.58l-44.697 308.127-91.63 375.215-15.337 37.518 112.227-730.57c2.091-1.79 5.225-2.78 10.283-2.061zm-1170.412.715c58.083 57.915 108.938 114.775 151.264 165.373l47.449 334.953 22.922 1138.89c-52.418-349.76-124.505-792.67-225.6-1387.218zm-420.43 10.996c101.772 269.342 212.369 572.575 336.971 924.254l302.795 975.63c-.345.342-.705.805-1.084 1.393L501.324 1496.396 249.672 854.464c107.434-.228 157.992 27.648 161.264 7.73.776-4.72 1.801-9.406 3.011-14.056zm1622.125 1.031c25.147 11.404 51.738 17.358 79.936 17.926l-123.367 281.445zm-399.756.379 2.786 109.5-41.213 85.81zm557.711 8.902c57.16 78.756 91.716 113.84 131.428 133.436 5.132 2.532 9.13 4.576 12.275 6.312l-74.644 250.815c-155.101 385.458-361.479 844.694-643.963 1432.38l280.635-1149.175 274.281-670.926c11.124-2.046 19.67-3.282 19.988-2.842zm-1086.758 2.416c30.714 171.744 62.144 356.723 69.97 402.936-14.04-25.691-48.303-79.023-96.997-144.83l-1.115-112.18zm1064.145.914-268.066 655.74 88.047-360.54L2118.44 867.14c16.02.145 32.552-1.409 49.646-4.727 1.128-.219 2.234-.429 3.328-.635zm-905.834 86.022-7.916 436.084-136.652 959.7 63.082-1063.1c.092-.17.19-.337.22-.55a2.022 2.022 0 0 0 0-.517zm-810.875 2.345 184.318 461.713 95.237 306.858c-101.556-285.89-193.775-539.363-279.555-768.57zm1184.524 13.83 13.123 515.963-142.366 1405.86c-1.853-1.114-3.913-1.871-5.662-1.871-1.168 0-2.595 5.81-3.172 12.912-.21 2.59-75.993 187.642-78.26 190.107-3.243 3.528-34.694-8.101-34.33-12.693.827-10.404-9.254 6.377-19.185.176-5.249-3.278-9.863-1.411-22.285 1.904-5.145-18.577-10.857-44.095-28.881-54.658-12.853-7.532-49.67-19.122-55.535-17.48-52.807 14.772-51.811 38.621-60.373 14.513-6.093-17.156-7.202-14.083-54.346-22.422-18.046-3.192-36.04-.217-53.152 2.447 3.94-128.78 4.492-220.327 6.943-233.902l2.037.588 492.356-1711.73zm-564.444 27.061 2.096 15.73 1.086 109.135a2464.355 2464.355 0 0 0-15.11-20.134zm1264.953 8.293c6.668 3.867 8.495 6.08 8.522 8.836.037 3.92 1.227 5.538 3.271 4.748l-77.047 205.676zm-1351.365 6.457a2587.931 2587.931 0 0 1 39.406 48.426 2509.62 2509.62 0 0 1 32.746 42.185l-26.433 232.118zm1366.404 4.857c4.504-2.197 17.798 4.102 29.846 14.358a169.63 169.63 0 0 0 7.166 5.75l-122.11 207.063zm39.399 21.893c28.578 21.04 65.35 35.027 102.88 39.836l-397.343 624.244zm-1582.86 1.084 16.875 55.856c102.761 604.349 175.548 1052.008 228.172 1404.42l3.178 157.88a125790.083 125790.083 0 0 0-30.26-88.017L821.984 1347.932Zm1575.48 10.016-285.968 644.922 164.336-438.694zm174.895 28.39c1.8.313 2.207 1.214 2.207 2.875 0 23.89 26.667 76.4 56.477 119.1l-113.928 213.55-690.762 1093.706-176.134 233.133 454.052-1023.997 405.92-637.714c17.32 2.03 34.763 2.11 51.598.01 5.574-.697 8.77-.975 10.57-.663zm-1499.199 26.951a2450.277 2450.277 0 0 1 15.514 20.715l14.19 1426.276-12.755 89.564a29127.78 29127.78 0 0 0-20.834-141.824l-23.27-1156.287zm17.79 23.805c53.782 72.883 87.52 127.441 98.15 148.074.38 2.251.6 3.553.644 3.823l1.162-.196c.886 1.88 1.421 3.229 1.672 4.139l-.037 1.33-.472 1.932.369-.137-64.616 1088.916-22.86 160.559zm1541.546 73.268c8.703 12.33 17.633 23.773 26.225 33.39l-133.838 168.327zm-1313.107 7.027-211.19 1551.037c-.246-.34-.509-.803-.797-1.39l22.657-381.823 140.498-986.707zm1340.861 28.047c8.032 8.828 15.737 16.03 22.617 20.74 11.367 7.781 12.005 9.217 8.361 18.8-.185.486-.348.921-.501 1.331l-399.827 614.393-448.351 593.435 676.457-1071.058zm41.168 38.828c2.568.968 5.189 4.035 8.654 9.504 17.506 27.624 48.05 48.917 82.875 64.701l-493.011 532.465 392.253-602.758c.277-.247.572-.511.9-.808 3.248-2.939 5.761-4.072 8.329-3.104zm-456.432 55.86-145.095 387.331-3.768 10.053.053-.084-451.904 1019.15-43.362 57.391 26.31-107.728c266.517-554.163 465.565-994.396 617.767-1366.114zm550.125 19.316c3.45 1.533 6.94 3.01 10.461 4.435l-176.062 325.08-579.033 700.778c-102.044 113.292-210.136 232.71-324.811 358.855l-92.463 77.006 195.012-308.765 464.44-614.735zm12.551 5.289c21.55 8.577 44.203 15.187 66.078 20.03l-236.453 294.509zm68.522 20.572a478.189 478.189 0 0 0 27.386 5.09c.953 6.448 1.768 13.83 4.655 25.395l-265.172 259.89zm32.873 33.713c1.285 4.841 2.91 10.353 5.03 16.774 3.79 11.475 6.255 21.499 5.48 22.275-.117.116-.19.273-.239.45l-126.127 100.275zm-14.12 12.94a31865.553 31865.553 0 0 1-124.98 145.312l-123.332 98.053zm24.915 29.013c.337.671.801 1.38 1.388 2.057 4.537 5.225 10.143 25.319 18.098 39.219 10.674 18.652 1.944 46.153 13.154 75.496 1.901 4.976 3.367 9.429 4.48 13.457l-253.15 75.422 82.405-99.414zm-95.258 56.43-39.942 48.187-5.191 4.127a32542.435 32542.435 0 0 0 45.133-52.314zm-919.899 43.15-279.6 1144.922a53844.328 53844.328 0 0 1-98.206 203.072c-.601-.05-1.086-.524-1.086-2.232 0-.925-.516-1.965-1.342-2.986l366.98-1310.356zm872.983 13.451-75.74 91.377 1.6 1.327-11.13 3.316a36979.368 36979.368 0 0 0 79.11-91.121zm-15.684 12.467a36650.853 36650.853 0 0 1-73.605 84.748l-52.768 15.723zm195.553 6.9c4.753 18.694 1.474 27.71-1.848 36.66l-459.101 476.491-670.866 558.732 226.28-273.863c244.864-271.855 454.92-508.46 637.64-718.205zm-1.819 39.87 38.01.394c76.85.8 72.32 18.75 83.912 29.834l-569.332 434.116zm123.657 31.728c5.367 4.194 14.093 7.09 32.588 7.11 41.137.043 71.955 11.262 98.021 15.638L1665.271 2832.23l142.057-171.93 679.996-566.343zm-393.754 9.416c-173.274 198.865-371.11 421.867-599.834 676.117l545.19-659.835zm-1904.91 166.403c79.563 225.13 164.81 469.852 257.049 737.847l34.074 199.856 2.213-.377-.623-3.656 1.19.072 8.921-62.655c5.538 16.146 11.095 32.356 16.682 48.666-2.141 8.334-1.463 33.92-3.43 48.994-7.213 55.287-.412 82.937-12.387 40.172-11.082-39.575-12.27-84.289-17.844-87.908zm345.482 571.511-19.326 325.702-1.768-177.567zm890.945 17.778-200.732 242.937-78.256 65.176c97.685-107.483 190.567-210.06 278.988-308.113zm-947.52 95.558c6.784 45.595 13.231 89.608 19.354 132.127l-6.343 44.545c-3.358-9.788-6.704-19.535-10.043-29.263zm742.393 12.635-184.421 292-21.48 17.89 40.1-90.435zm-709.011 36.908 1.77 177.854a24272.691 24272.691 0 0 0-13.53-95.268zm-60.727 16.58c9.287 26.99 18.645 54.221 28.074 81.686l1.893 94.076zm47.838 73.938c4.572 31.823 8.966 62.822 13.188 93.05-.62-.756-1.155-1.02-1.616-.855-5.845-17.062-11.662-34.028-17.453-50.91zm-17.377 14.697 9.2 26.809-7.589 53.281zm735.936 1.983-140.48 170.017-86.786 65.559c-.076-1.082-.685-1.742-1.963-1.742-1.008 0-1.434-.802-1.697-1.846a135109.511 135109.511 0 0 0 149.476-164.15zm-186.155 33.623-25.029 102.492-68.234 90.312a54271.329 54271.329 0 0 0 93.263-192.804zm92.205 44.625a136656.498 136656.498 0 0 1-132.113 145.076l46.695-73.934zm-74.459 4.974-38.046 85.807-13.123 10.93 10.464-42.86zm-44.119 58.399-9.953 40.754-56.203 46.808zm27.555 12.435-41.58 65.836 21.94-49.476zm-23.537 19.606-21.217 47.847 9.25-37.883zm61.838 3.847-82.19 99.471c-7.627 8.994-16.534 19.641-26.625 31.87-25.734 31.187-24.184 29.786-27.039 24.45-4.559-8.52 37.826-63.03 37.826-72.195 0-2.35 3.79-7.68 8.422-11.844 3.842-3.453 6.716-7.23 8.106-10.185zm-76.703 8.535-10.03 41.063c-.023 0-.04-.01-.064-.01-3.682 0-.864-26.94-10.035 5.615-6.24 22.157-38.493 65.97-44.793 85.848 0-.001-24.724 36.326-46.402 73.203-40.176 68.338 5.3-44.697 11.6-46.344 8.304-2.173 26.162-89.484 37.568-103.039 5.504-6.54 3.565-4.977 3.781-7.719zm-495.176 41.051c2.955 0 2.955 8.983 0 8.983s-2.955-8.983 0-8.983zm-10.48 48.283c.95 3.986 6.302 25.827 1.65 25.827-7.706 0-2.118-23.58-1.65-25.827zm-8.471.332c.702.208.984 1.386.984 3.768 0 4.733-1.905 6.64-10.39 10.393-9.484 4.195-14.273 5.75-11.88 3.857 13.305-10.532 19.18-18.641 21.286-18.018zm441.582 73.778c-4.182 24.643-20.426 49.691-24.88 54.148-23.507 23.531 6.942-26.045 24.88-54.148zm-430.83 15.638c2.588-.386 5.955 4.277 5.955 10.014 0 3.307 1.198 7.211 2.662 8.676 5.36 5.361 2.64 64.836-4.729 16.81-4.209-27.434-8.005-28.219-6.062-33.283.536-1.398 1.311-2.088 2.174-2.217zm96.775 7.995c5.786-.24 18.921 4.344 6.44 4.406-3.941.019-7.792-.978-8.555-2.213-.926-1.498.186-2.113 2.115-2.193zm-72.396 3.978c26.023 3.251 67.869 10.855 70.697 11.998 25.862 10.454 33.393-6.109 31.023 16.533l26.95-1.279c20.928 21.481 40.865 31.779 57.345 36.213 8.93 15.333 20.336 24.757 33.94 27.979a47.302 47.302 0 0 0 10.918 1.251c14.608 0 26.844-6.351 31.273-8.972 37.772 37.543 40.87 42.219 1.27 86.871-25.884-13.108-40.46-5.447-43.297-1.442-6.138 8.664-36.514 12.331-39.766 2.086-2.475-7.797-19.152-1.82-9.113-44.404 4.563-19.355 4.384-20.343-8.65-47.982-30.479-64.628-131.61-57.674-131.61 9.049 0 6.754-3.428 5.222-25.826-1.49 2.715-54.807-1.122-3.44-5.154-86.41zm109.77 20.672c11.053 0-4.68 12.153-4.68 3.533 0-2.083 1.92-3.533 4.68-3.533zm282.776 3.37c2.906-1.797 3.027 4.867 0 6.737-2.906 1.796-3.027-4.868 0-6.738zm-157.931 36.413c2.732 3.18-4.836 18.608 1.658 18.608 8.771 0-11.893-32.776 24.213 3.01-5.778 3.282-22.403 11.354-40.012 7.187-12.419-2.943-22.961-11.361-31.388-25.027 20.33 4.709 34.85.518 38.46-1.848 4.102-2.688 6.158-2.99 7.069-1.93zm115.465 7.418c.73-.02 2.592 5.771 4.142 12.873 7.247 33.224 34.973 46.231.871 135.867-4.559 11.982-6.305 12.415-32.166 7.944-40.366-6.98-39.669-6.548-30.318-18.809 7.314-9.589 3.095-6.212 11.422-27.027 5.51-13.773 5.618-14.808 2.1-20.178-6.95-10.605-1.7-21.505 11.742-24.379 6.887-1.473 7.298-2.116 7.298-11.41 0-17.605 9.441-8.845 7.307-20.012-1.004-5.255 13.89-34.759 17.602-34.869zm-335.909 38.139c27 0 27.559 31.942 5.58 25.54-10.791-3.142-15.685-25.54-5.58-25.54zm263.963 53.18c.92.988 9.538 9.799 8.526 10.693-4.961 4.382-15.072 6.65-8.526-10.693zm-280.84 70.335c2.96 0 2.948 15.72 0 15.72-2.96 0-2.948-15.72 0-15.72zm19.387 411.762c5.79.737 4.794 10.318-11.039 39.633-42.26 78.248-30.822 87.185-51.015 64.59-5.558-6.22-13.897-13.83-18.528-16.912-11.484-7.644-6.138-25.22 7.672-25.22 6.037 0 6.95-11.192 24.148-27.99 16.831-16.438 8.003-14.73 19.088-20.671 11.309-6.06 23.884-14.167 29.674-13.43z"/></svg>