<?xml version="1.0" encoding="UTF-8" standalone="no"?>
<svg
   viewBox="0 0 512 512"
   style="enable-background:new 0 0 512 512"
   xml:space="preserve"
   version="1.1"
   id="svg34"
   sodipodi:docname="skateboard.svg"
   inkscape:version="1.1.1 (3bf5ae0d25, 2021-09-20, custom)"
   xmlns:inkscape="http://www.inkscape.org/namespaces/inkscape"
   xmlns:sodipodi="http://sodipodi.sourceforge.net/DTD/sodipodi-0.dtd"
   xmlns="http://www.w3.org/2000/svg"
   xmlns:svg="http://www.w3.org/2000/svg"><defs
     id="defs38" /><sodipodi:namedview
     id="namedview36"
     pagecolor="#ffffff"
     bordercolor="#666666"
     borderopacity="1.0"
     inkscape:pageshadow="2"
     inkscape:pageopacity="0.0"
     inkscape:pagecheckerboard="0"
     showgrid="false"
     inkscape:zoom="0.69042969"
     inkscape:cx="6.5176803"
     inkscape:cy="228.11881"
     inkscape:window-width="1890"
     inkscape:window-height="1026"
     inkscape:window-x="15"
     inkscape:window-y="39"
     inkscape:window-maximized="1"
     inkscape:current-layer="svg34" /><path
     style="fill:#7c6755;stroke-width:0.9046"
     d="M 78.85405,175.12555 C 47.388169,122.87389 65.605527,55.804068 119.54339,25.321869 173.4826,-5.1618217 242.71569,12.486658 274.18224,64.739406 L 437.45948,335.87338 c 31.46566,52.25251 13.24966,119.32085 -40.68956,149.80454 -53.93876,30.48197 -123.17209,12.83434 -154.63974,-39.41776 z"
     id="path2" /><path
     style="fill:#ffce00;stroke-width:0.9046"
     d="m 91.575278,196.2602 c 38.349312,27.48313 91.509492,31.95603 135.256612,7.23299 37.52512,-21.20678 80.09368,-26.76944 119.60109,-18.76676 l 78.30472,130.02136 c -38.34908,-27.48398 -91.50927,-31.9569 -135.25727,-7.23407 -37.52559,21.20849 -80.09368,26.76943 -119.60108,18.76676 z"
     id="path4" /><path
     style="fill:#61b4e4;stroke-width:0.9046"
     d="m 150.13013,293.48406 c 39.50694,8.00439 82.07551,2.44173 119.6011,-18.76676 43.74711,-24.72304 96.90818,-20.24991 135.25703,7.23495 L 366.1865,217.5175 c -39.50653,-8.00245 -82.07487,-2.44065 -119.59932,18.76721 -43.74825,24.72367 -96.90932,20.25054 -135.25905,-7.23454 z"
     id="path6" /><path
     style="fill:#493728;stroke-width:0.9046"
     d="m 304.14011,366.60205 18.67967,31.02035 31.21937,-17.64463 -18.679,-31.01927 c -5.0305,-8.35106 -16.09551,-11.17153 -24.71559,-6.30002 -8.62365,4.87062 -11.53448,15.59078 -6.50445,23.94357 z"
     id="path8" /><path
     style="opacity:0.2;stroke-width:0.9046;enable-background:new"
     d="m 343.97417,363.25749 10.06764,16.71747 -31.22016,17.64431 -10.06763,-16.71745 z"
     id="path10" /><ellipse
     style="fill:#7d868c;stroke-width:0.904656"
     cx="-267.74451"
     cy="402.39539"
     id="circle12"
     transform="matrix(0.26212068,-0.9650351,0.96901484,0.24700249,0,0)"
     rx="4.9742188"
     ry="5.1136527" /><path
     style="fill:#7d868c;stroke-width:0.9046"
     d="m 366.90829,360.75342 13.4703,22.36762 -67.69964,38.261 -13.47028,-22.36764 z"
     id="path14" /><path
     style="opacity:0.2;stroke-width:0.9046;enable-background:new"
     d="m 312.68374,421.38141 13.04803,-7.3739 -13.47237,-22.37198 -13.04802,7.3739 z m 41.17618,-53.2558 13.47349,22.37134 13.04689,-7.37326 -13.4735,-22.37134 z"
     id="path16" /><path
     style="fill:#333e48;stroke-width:0.9046"
     d="m 262.82953,401.95552 c -5.2689,-8.74695 -2.21919,-19.97491 6.81044,-25.07715 9.031,-5.10374 20.62129,-2.14937 25.88931,6.59736 l 29.3006,48.65605 c 5.26867,8.74781 2.2192,19.9749 -6.81292,25.07928 -9.02987,5.10309 -20.62017,2.14873 -25.88884,-6.59908 z m 124.63155,-70.43224 c -5.26731,-8.74931 -16.85672,-11.70346 -25.88884,-6.59909 -9.02987,5.10311 -12.07958,16.33107 -6.81222,25.07669 l 29.30243,48.65284 c 5.2682,8.74953 16.85761,11.70369 25.88658,6.60035 9.03077,-5.10287 12.08048,-16.33083 6.81294,-25.07927 z"
     id="path18" /><path
     style="fill:#493728;stroke-width:0.9046"
     d="m 180.95451,162.03979 -18.68079,-31.01972 31.21981,-17.64269 18.6799,31.0195 c 5.0296,8.35083 2.11764,19.07164 -6.50333,23.94293 -8.62078,4.8741 -19.68756,2.05316 -24.71559,-6.30002 z"
     id="path20" /><path
     style="opacity:0.2;stroke-width:0.9046;enable-background:new"
     d="m 172.33225,147.74369 -10.06762,-16.71747 31.22015,-17.64432 10.06763,16.71746 z"
     id="path22" /><ellipse
     style="fill:#7d868c;stroke-width:0.904656"
     cx="-99.929024"
     cy="229.88689"
     id="circle24"
     transform="matrix(0.26212068,-0.9650351,0.96901484,0.24700249,0,0)"
     rx="4.9742188"
     ry="5.1136527" /><path
     style="fill:#7d868c;stroke-width:0.9046"
     d="M 149.40699,150.24174 135.9367,127.87411 203.63633,89.613121 217.10662,111.98074 Z"
     id="path26" /><path
     style="opacity:0.2;stroke-width:0.9046;enable-background:new"
     d="m 149.40696,150.24572 13.04802,-7.3739 -13.47237,-22.37198 -13.04825,7.37476 z m 67.69453,-38.2573 -13.47035,-22.372392 -13.04712,7.374121 13.47147,22.371751 z"
     id="path28" /><path
     style="fill:#333e48;stroke-width:0.9046"
     d="m 128.85312,179.47674 c 5.26689,8.74736 16.85718,11.70173 25.88528,6.59817 9.03165,-5.10265 12.08136,-16.3306 6.81381,-25.07905 L 132.2516,112.33981 c -5.26778,-8.74758 -16.85807,-11.70194 -25.88996,-6.59844 -9.029867,5.1031 -12.079579,16.33105 -6.812036,25.0795 z m 124.63023,-70.43442 c 5.26891,8.74695 2.2192,19.97492 -6.81203,25.0795 -9.03053,5.10202 -20.62017,2.14874 -25.8873,-6.59776 l -29.2977,-48.656233 c -5.26844,-8.748668 -2.22009,-19.975137 6.80978,-25.078235 9.03189,-5.103509 20.62218,-2.149132 25.88997,6.598451 z"
     id="path30" /><path
     style="fill:#1e252b;stroke-width:0.9046"
     d="m 194.43845,47.383616 c -6.13243,3.466378 -10.50441,9.037752 -12.31109,15.689281 -1.8069,6.652395 -0.83218,13.588478 2.74649,19.53114 l 4.05546,6.734429 -46.00936,26.001514 -4.05676,-6.73659 c -7.38655,-12.265988 -23.69764,-16.422772 -36.35856,-9.266915 -6.133312,3.466155 -10.505761,9.039245 -12.31266,15.691645 -1.80691,6.65239 -0.832183,13.58848 2.746058,19.5292 l 29.301962,48.65455 c 3.578,5.94156 9.32982,10.17796 16.1969,11.92837 6.86706,1.75042 14.02656,0.80421 20.15852,-2.66043 6.13421,-3.46593 10.50843,-9.03856 12.31533,-15.69096 l 4.6e-4,-0.002 c 1.80645,-6.65067 0.83149,-13.5859 -2.74653,-19.52746 l -4.05832,-6.73793 0.78141,-0.44159 9.45227,15.69626 c 3.46249,5.75102 9.02991,9.8511 15.67654,11.54534 6.64577,1.694 13.57548,0.77852 19.51008,-2.57533 5.93571,-3.35447 10.16786,-8.74697 11.91654,-15.18497 1.74867,-6.43799 0.80455,-13.15085 -2.65841,-18.90014 l -9.45228,-15.69627 0.7805,-0.44182 4.05743,6.73769 c 7.38637,12.26316 23.69544,16.42035 36.35768,9.26667 6.13419,-3.46592 10.50664,-9.03902 12.31354,-15.69141 1.8069,-6.65239 0.8304,-13.58893 -2.74695,-19.52942 L 230.79676,56.651374 C 223.41222,44.384992 207.10138,40.227346 194.43845,47.383616 Z M 154.94128,164.73338 a 11.195318,10.845331 0 0 1 1.16475,8.2799 l -2.3e-4,8.5e-4 a 11.199914,10.849782 0 0 1 -5.22442,6.6559 11.200832,10.850672 0 0 1 -8.54797,1.1281 c -2.91179,-0.74221 -5.35096,-2.53871 -6.86759,-5.05847 l -29.30286,-48.65478 c -1.51752,-2.51997 -1.93133,-5.46106 -1.16516,-8.28183 0.76616,-2.82076 2.62087,-5.18454 5.22193,-6.65375 5.36988,-3.03471 12.28784,-1.27224 15.42048,3.92976 z m 50.62009,-16.59834 a 10.344249,10.020868 0 0 1 1.07576,7.65233 10.347007,10.023539 0 0 1 -4.82629,6.14882 c -2.4028,1.35864 -5.20839,1.72986 -7.89974,1.04384 -2.69137,-0.68603 -4.94434,-2.34577 -6.34637,-4.67518 l -9.45316,-15.69651 17.99576,-10.17003 z m -49.16815,-10.42286 -5.7568,-9.56088 46.00824,-26.00088 5.7568,9.56088 z m 61.18061,-73.588792 29.29861,48.656462 a 11.191641,10.84177 0 0 1 1.16563,8.28011 11.201751,10.851563 0 0 1 -5.22241,6.65548 c -5.36964,3.03385 -12.28671,1.2716 -15.4187,-3.92932 l -29.2977,-48.656223 a 11.200832,10.850672 0 0 1 -1.1656,-8.283789 c 0.76594,-2.819905 2.61953,-5.183038 5.21881,-6.652717 5.37142,-3.033385 12.2885,-1.271141 15.42136,3.929997 z M 345.40391,334.20945 c -1.80667,6.65153 -0.83259,13.58654 2.7463,19.52832 l 4.05744,6.7377 -0.78051,0.44182 -9.45228,-15.69627 c -3.46251,-5.75102 -9.02991,-9.85109 -15.67655,-11.54532 -6.64664,-1.69424 -13.57523,-0.7794 -19.50917,2.57555 -5.93571,3.35446 -10.16788,8.74697 -11.91655,15.18496 -1.74868,6.438 -0.80453,13.15085 2.65843,18.90015 l 9.45316,15.69649 -0.78141,0.44161 -4.05743,-6.73771 c -7.38636,-12.26316 -23.69543,-16.42036 -36.35766,-9.26668 -6.13419,3.46594 -10.50664,9.03903 -12.31379,15.69228 -1.80691,6.65239 -0.83016,13.58808 2.74719,19.52855 l 29.2977,48.65625 c 7.38656,12.26597 23.69765,16.42276 36.35945,9.26712 6.13217,-3.46551 10.5044,-9.03774 12.31107,-15.68928 1.80691,-6.6524 0.8304,-13.58894 -2.74648,-19.53115 l -4.05547,-6.73443 46.00937,-26.00151 4.05676,6.73661 c 7.38655,12.26597 23.69764,16.42276 36.35944,9.26711 6.13332,-3.46614 10.50577,-9.03923 12.31267,-15.69162 1.80691,-6.65239 0.83129,-13.58872 -2.74606,-19.52921 l -29.30196,-48.65454 c -3.578,-5.94157 -9.32983,-10.17796 -16.1969,-11.92838 -6.86707,-1.75042 -14.02609,-0.80593 -20.15852,2.66044 -6.13753,3.46416 -10.51085,9.03701 -12.31824,15.69114 z m -34.65063,28.65382 c -1.40249,-2.32771 -1.78391,-5.04513 -1.07574,-7.65235 0.70817,-2.60723 2.4208,-4.79086 4.82627,-6.14882 a 10.345168,10.021759 0 0 1 7.89887,-1.04406 c 2.69049,0.6858 4.94547,2.34512 6.34724,4.6754 l 9.45317,15.6965 -17.99575,10.17004 z m 7.4626,73.0034 a 11.200832,10.850672 0 0 1 1.16558,8.28379 11.194399,10.84444 0 0 1 -5.22035,6.65141 c -5.36988,3.0347 -12.28784,1.27222 -15.42048,-3.92978 l -29.2986,-48.65647 a 11.194399,10.84444 0 0 1 -1.16563,-8.2801 c 0.7664,-2.82163 2.62111,-5.18539 5.22241,-6.65548 5.36964,-3.03385 12.28761,-1.27137 15.41893,3.92846 z m 1.45501,-27.01857 -5.7568,-9.56089 46.00823,-26.00088 5.75794,9.56026 z m 61.1782,-73.59034 29.30285,48.65479 c 1.51752,2.51996 1.93133,5.46106 1.16515,8.28183 -0.76617,2.82076 -2.62087,5.18453 -5.22193,6.65376 -5.36988,3.0347 -12.28761,1.27137 -15.42048,-3.92976 l -29.3006,-48.65606 a 11.199914,10.849782 0 0 1 -1.16452,-8.28074 11.203589,10.853344 0 0 1 5.22441,-6.65589 11.196237,10.846221 0 0 1 8.54709,-1.12834 11.205428,10.855125 0 0 1 6.86803,5.06041 z M 115.68749,18.916346 C 87.833545,34.656869 67.975191,59.962739 59.769508,90.173174 51.563812,120.38362 55.993755,151.87967 72.242474,178.86198 L 235.51771,449.99636 c 33.54474,55.70005 107.61151,74.5797 165.11011,42.08668 27.85282,-15.73989 47.71141,-41.04664 55.91687,-71.2562 8.20569,-30.21044 3.77622,-61.70822 -12.47362,-88.6899 L 280.79583,61.00256 C 264.54711,34.020245 238.4246,14.782703 207.24014,6.8337636 176.05502,-1.1162626 143.54056,3.1755983 115.68749,18.916346 Z M 267.57066,68.475845 430.8468,339.61044 c 14.188,23.56159 18.05566,51.06414 10.8907,77.44295 -7.16471,26.37795 -24.50556,48.47537 -48.82573,62.22028 -50.20576,28.37233 -114.88119,11.88652 -144.17025,-36.7491 L 85.467641,171.38871 C 71.279408,147.82799 67.411505,120.32629 74.576688,93.946615 81.741645,67.567803 99.082252,45.471258 123.40241,31.726349 c 24.32016,-13.744909 52.71113,-17.491438 79.9412,-10.550475 27.23008,6.940964 50.03881,23.73925 64.22705,47.299971 z"
     id="path32" /></svg>
